<svg width="24" height="24" viewBox="0 0 24 24" fill="none" xmlns="http://www.w3.org/2000/svg">
<path d="M9.23114 10.8796L11.3901 13.127V4.25H12.8901V13.131L15.0604 10.8795L16.1403 11.9205L12.6799 15.5105C12.5384 15.6573 12.3432 15.7402 12.1392 15.74C11.9353 15.7398 11.7403 15.6566 11.599 15.5096L8.14941 11.9187L9.23114 10.8796Z" fill="#10181B"/>
<path d="M5.83984 16.0095C5.83984 17.2553 6.84406 18.2595 8.08984 18.2595H16.0898C17.3356 18.2595 18.3398 17.2553 18.3398 16.0095V8.00953C18.3398 6.76375 17.3356 5.75953 16.0898 5.75953H15.3398V4.25953H16.0898C18.1641 4.25953 19.8398 5.93532 19.8398 8.00953V16.0095C19.8398 18.0837 18.1641 19.7595 16.0898 19.7595H8.08984C6.01563 19.7595 4.33984 18.0837 4.33984 16.0095V8.00953C4.33984 5.93532 6.01563 4.25953 8.08984 4.25953H8.83984V5.75953H8.08984C6.84406 5.75953 5.83984 6.76375 5.83984 8.00953V16.0095Z" fill="#10181B"/>
</svg>
