<svg width="16" height="16" viewBox="0 0 16 16" fill="none" xmlns="http://www.w3.org/2000/svg">
<path d="M11.6102 2.75C12.616 2.75 13.4302 3.56422 13.4302 4.57001V11.43C13.4302 12.4358 12.616 13.25 11.6102 13.25H4.75018C3.74439 13.25 2.93018 12.4358 2.93018 11.43L2.93018 10.68H1.43018V11.43C1.43018 13.2642 2.91596 14.75 4.75018 14.75H11.6102C13.4444 14.75 14.9302 13.2642 14.9302 11.43V4.57001C14.9302 2.7358 13.4444 1.25 11.6102 1.25H4.75018C2.91596 1.25 1.43018 2.7358 1.43018 4.57001V5.32001H2.93018V4.57001C2.93018 3.56422 3.74439 2.75 4.75018 2.75L11.6102 2.75Z" fill="#10181B"/>
<path d="M11.9302 8.00003C11.9302 8.20329 11.8477 8.39784 11.7016 8.53915L8.12244 12.0005L7.07966 10.9223L9.32584 8.75L1.43018 8.75V7.25L9.32579 7.25L7.07966 5.07776L8.12244 3.99951L11.7016 7.4609C11.8477 7.60221 11.9302 7.79676 11.9302 8.00003Z" fill="#10181B"/>
</svg>
