<svg width="24" height="24" viewBox="0 0 24 24" fill="none" xmlns="http://www.w3.org/2000/svg">
<path d="M2.75 12.5C2.75 8.22421 6.22421 4.75 10.5 4.75C14.5979 4.75 17.9613 7.94186 18.2324 11.9915L16.17 9.9292L15.1094 10.9899L18.4697 14.3502C18.6104 14.4908 18.8011 14.5699 19.0001 14.5699C19.199 14.5699 19.3897 14.4908 19.5304 14.3502L22.8907 10.9899L21.83 9.9292L19.7369 12.0223C19.4788 7.13104 15.439 3.25 10.5 3.25C5.39579 3.25 1.25 7.39579 1.25 12.5C1.25 17.6042 5.39579 21.75 10.5 21.75C13.3843 21.75 15.9534 20.4317 17.6496 18.3659L18.1255 17.7863L16.9662 16.8344L16.4903 17.4141C15.0664 19.1482 12.9157 20.25 10.5 20.25C6.22421 20.25 2.75 16.7758 2.75 12.5Z" fill="#10181B"/>
</svg>
