<svg width="16" height="16" viewBox="0 0 16 16" fill="none" xmlns="http://www.w3.org/2000/svg">
<path d="M2 10V12C2 13.1046 2.89543 14 4 14H6V12.5H4C3.72386 12.5 3.5 12.2761 3.5 12V10H2Z" fill="#10181B"/>
<path d="M2 6H3.5V4C3.5 3.72386 3.72386 3.5 4 3.5H6V2H4C2.89543 2 2 2.89543 2 4V6Z" fill="#10181B"/>
<path d="M10 2V3.5H12C12.2761 3.5 12.5 3.72386 12.5 4V6H14V4C14 2.89543 13.1046 2 12 2H10Z" fill="#10181B"/>
<path d="M14 10H12.5V12C12.5 12.2761 12.2761 12.5 12 12.5H10V14H12C13.1046 14 14 13.1046 14 12V10Z" fill="#10181B"/>
<path d="M8.79346 7.00022L10.5 7.00023L8.38411 4.46116C8.18421 4.22128 7.81579 4.22128 7.61589 4.46116L5.5 7.00022L7.29346 7.00022V11.4697H8.79346V7.00022Z" fill="#10181B"/>
</svg>
