<svg width="16" height="16" viewBox="0 0 16 16" fill="none" xmlns="http://www.w3.org/2000/svg">
<g clip-path="url(#clip0_44_40451)">
<path d="M10.1391 4.61067L10.1391 0.77832L12.1854 2.82466L13.6731 1.33691L14.7338 2.39757L13.2461 3.88531L15.2214 5.86067L11.3891 5.86067C10.6987 5.86067 10.1391 5.30102 10.1391 4.61067Z" fill="#10181B"/>
<path d="M4.61049 5.86084C5.30085 5.86084 5.86049 5.3012 5.86049 4.61084L5.86049 0.778502L3.73317 2.90579L2.16433 1.33691L1.10366 2.39757L2.67251 3.96644L0.778076 5.86084L4.61049 5.86084Z" fill="#10181B"/>
<path d="M7.9999 10C9.10447 10 9.9999 9.10457 9.9999 8C9.9999 6.89543 9.10447 6 7.9999 6C6.89533 6 5.9999 6.89543 5.9999 8C5.9999 9.10457 6.89533 10 7.9999 10Z" fill="#10181B"/>
<path d="M10.1392 11.3893L10.1392 15.2217L12.2016 13.1593L13.6731 14.6309L14.7338 13.5702L13.2622 12.0987L15.2216 10.1393H11.3892C10.6989 10.1393 10.1392 10.699 10.1392 11.3893Z" fill="#10181B"/>
<path d="M0.778076 10.1393L2.65632 12.0176L1.10366 13.5702L2.16431 14.6309L3.71699 13.0782L5.86049 15.2217L5.86049 11.3893C5.86049 10.699 5.30085 10.1393 4.61049 10.1393H0.778076Z" fill="#10181B"/>
</g>
<defs>
<clipPath id="clip0_44_40451">
<rect width="16" height="16" fill="white"/>
</clipPath>
</defs>
</svg>
