<svg width="16" height="16" viewBox="0 0 16 16" fill="none" xmlns="http://www.w3.org/2000/svg">
<path fill-rule="evenodd" clip-rule="evenodd" d="M2 4C2 2.89543 2.89543 2 4 2H12C13.1046 2 14 2.89543 14 4V12C14 13.1046 13.1046 14 12 14H4C2.89543 14 2 13.1046 2 12V4ZM4.77686 11.8706L4.77686 6.99979L3 6.99979L5.19271 4.36854C5.35263 4.17663 5.64737 4.17663 5.80729 4.36854L8 6.99979L6.27686 6.99979L6.27686 11.8706H4.77686ZM11.2617 9.00021L13 9.00021L10.8073 11.6315C10.6474 11.8234 10.3526 11.8234 10.1927 11.6315L8 9.00021L9.76172 9.00021L9.76172 3.8584H11.2617L11.2617 9.00021Z" fill="#10181B"/>
</svg>
