<svg width="24" height="24" viewBox="0 0 24 24" fill="none" xmlns="http://www.w3.org/2000/svg">
<path d="M3 3H10V10H3V3Z" fill="#10181B"/>
<path d="M19.0897 7.495L17.1449 9.43987L17.1441 4.0001C17.1441 3.58593 16.8083 3.25021 16.3942 3.2502L12.2501 3.25003L12.25 4.75003L15.6442 4.75017L15.6449 9.58408L13.5503 7.4895L12.4896 8.55016L15.7924 11.853C16.0853 12.1458 16.5602 12.1458 16.8531 11.853L20.1504 8.55566L19.0897 7.495Z" fill="#10181B"/>
<path d="M6.23674 12.211L2.93945 15.5083L4.00011 16.569L5.94505 14.624L5.94561 20C5.94565 20.4142 6.28142 20.7499 6.69559 20.7499L10.2501 20.75L10.2501 19.25L7.44553 19.25L7.44503 14.48L9.53954 16.5745L10.6002 15.5138L7.2974 12.211C7.00451 11.9181 6.52964 11.9181 6.23674 12.211Z" fill="#10181B"/>
<path d="M21 13H13V21H21V13Z" fill="#10181B"/>
</svg>
