<svg width="24" height="24" viewBox="0 0 24 24" fill="none" xmlns="http://www.w3.org/2000/svg">
<path d="M21.0799 12.5C21.0799 8.22421 17.6057 4.75 13.3299 4.75C9.23186 4.75 5.86843 7.942 5.59749 11.9918L7.65997 9.92932L8.72062 10.99L5.36028 14.3503C5.21962 14.491 5.02886 14.57 4.82994 14.57C4.63103 14.57 4.44027 14.491 4.29961 14.3503L0.939331 10.99L2 9.92932L4.09297 12.0223C4.35105 7.13104 8.3909 3.25 13.3299 3.25C18.4341 3.25 22.5799 7.39579 22.5799 12.5C22.5799 17.6042 18.4341 21.75 13.3299 21.75C10.4456 21.75 7.87643 20.4317 6.18028 18.3659L5.70436 17.7863L6.86366 16.8344L7.33958 17.4141C8.76343 19.1482 10.9141 20.25 13.3299 20.25C17.6057 20.25 21.0799 16.7758 21.0799 12.5Z" fill="#10181B"/>
</svg>
