<svg width="16" height="16" viewBox="0 0 16 16" fill="none" xmlns="http://www.w3.org/2000/svg">
<path d="M7.16022 3.62988C4.60444 3.62988 2.53027 5.70408 2.53027 8.25988C2.53027 10.8157 4.60444 12.8899 7.16022 12.8899C8.59663 12.8899 9.87789 12.2375 10.7317 11.2026L11.209 10.6241L12.3661 11.5786L11.8888 12.1572C10.7626 13.5222 9.0638 14.3899 7.16022 14.3899C3.77599 14.3899 1.03027 11.6441 1.03027 8.25988C1.03027 4.87568 3.77599 2.12988 7.16022 2.12988C10.1523 2.12988 12.2785 4.06954 12.681 6.25H15.8108L12.8132 9.24749C12.3641 9.69659 11.636 9.69659 11.1869 9.24748L8.18945 6.25H11.1383C10.7482 4.92525 9.35178 3.62988 7.16022 3.62988Z" fill="#10181B"/>
</svg>
