<svg width="16" height="16" viewBox="0 0 16 16" fill="none" xmlns="http://www.w3.org/2000/svg">
<path d="M2.5 1.25C1.80965 1.25 1.25 1.80964 1.25 2.5V6.61064L3.40454 4.45613C3.42435 4.48192 3.44606 4.50672 3.46967 4.53033L6.93934 8L3.46967 11.4697C3.44575 11.4936 3.42379 11.5187 3.40378 11.5449L1.25 9.39111V13.5005C1.25 14.1909 1.80964 14.7505 2.5 14.7505H6.60951L4.45515 12.5962C4.48129 12.5762 4.50642 12.5542 4.53033 12.5303L8 9.06066L11.4697 12.5303C11.4937 12.5544 11.5191 12.5765 11.5454 12.5966L9.3916 14.7504H13.4999C14.1903 14.7504 14.7499 14.1908 14.7499 13.5004V9.39209L12.5966 11.5454C12.5765 11.5191 12.5544 11.4937 12.5303 11.4697L9.06066 8L12.5303 4.53033C12.5536 4.50708 12.575 4.48269 12.5945 4.45733L14.7501 6.61291V2.5C14.7501 1.80964 14.1905 1.25 13.5001 1.25H9.38721L11.5427 3.40546C11.5173 3.42502 11.4929 3.44642 11.4697 3.46967L8 6.93934L4.53033 3.46967C4.50672 3.44606 4.48193 3.42435 4.45614 3.40455L6.61072 1.25H2.5Z" fill="#10181B"/>
</svg>
