<svg width="24" height="24" viewBox="0 0 24 24" fill="none" xmlns="http://www.w3.org/2000/svg">
<path d="M16.0896 5.75977C17.3354 5.75977 18.3396 6.76398 18.3396 8.00977L18.3396 16.0098C18.3396 17.2556 17.3354 18.2598 16.0896 18.2598L8.08961 18.2598C6.84382 18.2598 5.83961 17.2556 5.83961 16.0098V15.2598H4.33961L4.33961 16.0098C4.33961 18.084 6.0154 19.7598 8.08961 19.7598L16.0896 19.7598C18.1638 19.7598 19.8396 18.084 19.8396 16.0098L19.8396 8.00977C19.8396 5.93555 18.1638 4.25977 16.0896 4.25977H8.08961C6.0154 4.25977 4.33961 5.93555 4.33961 8.00977L4.33961 8.75977H5.83961L5.83961 8.00977C5.83961 6.76398 6.84382 5.75977 8.08961 5.75977L16.0896 5.75977Z" fill="#10181B"/>
<path d="M15.8196 12.0592C15.8198 12.2631 15.7369 12.4583 15.5901 12.5998L12.0001 16.0603L10.9591 14.9803L13.2106 12.8101H4.33008V11.3101L13.2065 11.3101L10.9591 9.15106L11.9983 8.06934L15.5892 11.5189C15.7362 11.6602 15.8194 11.8553 15.8196 12.0592Z" fill="#10181B"/>
</svg>
