<svg width="16" height="16" viewBox="0 0 16 16" fill="none" xmlns="http://www.w3.org/2000/svg">
<g clip-path="url(#clip0_777_758)">
<path d="M8.62004 3.63013C11.1758 3.63013 13.25 5.70433 13.25 8.26012C13.25 10.8159 11.1758 12.8901 8.62004 12.8901C7.18362 12.8901 5.90236 12.2378 5.04854 11.2028L4.57126 10.6243L3.4142 11.5789L3.89148 12.1574C5.01767 13.5225 6.71645 14.3901 8.62004 14.3901C12.0043 14.3901 14.75 11.6443 14.75 8.26012C14.75 4.87592 12.0043 2.13013 8.62004 2.13013C5.62802 2.13013 3.50194 4.06964 3.09927 6.25H-0.0306396L2.9669 9.24749C3.416 9.69659 4.14414 9.69659 4.59324 9.24748L7.59068 6.25H4.64201C5.03222 4.92533 6.42861 3.63013 8.62004 3.63013Z" fill="#10181B"/>
</g>
<defs>
<clipPath id="clip0_777_758">
<rect width="16" height="16" fill="white"/>
</clipPath>
</defs>
</svg>
