<svg width="24" height="24" viewBox="0 0 24 24" fill="none" xmlns="http://www.w3.org/2000/svg">
<path d="M3.75 4C3.75 3.86193 3.86193 3.75 4 3.75H10.25V2.25H4C3.0335 2.25 2.25 3.0335 2.25 4V20C2.25 20.9615 3.02335 21.75 3.99487 21.75H20.0029C20.9722 21.75 21.75 20.9637 21.75 20V13.25H20.25V20C20.25 20.1409 20.1381 20.25 20.0029 20.25H3.99487C3.86182 20.25 3.75 20.1431 3.75 20V4Z" fill="#10181B"/>
<path d="M20.9999 2.25006C21.4142 2.25006 21.7499 2.58584 21.7499 3.00006L21.7499 9.75006H20.2499V4.71024L11.0001 13.9601L9.93945 12.8994L19.0888 3.75006L14.2499 3.75006V2.25006L20.9999 2.25006Z" fill="#10181B"/>
</svg>
