<svg width="24" height="24" viewBox="0 0 24 24" fill="none" xmlns="http://www.w3.org/2000/svg">
<path d="M3.25 4C3.25 3.58579 3.58579 3.25 4 3.25H8.75V4.75H5.81066L10.0608 9.00011L9.00011 10.0608L4.75 5.81066V8.75H3.25V4Z" fill="#10181B"/>
<path d="M5.81089 19.25L10.0608 15.0001L9.00011 13.9395L4.75 18.1896V15.25H3.25V20C3.25 20.4142 3.58579 20.75 4 20.75H8.75V19.25H5.81089Z" fill="#10181B"/>
<path d="M15.25 3.25H20C20.4142 3.25 20.75 3.58579 20.75 4V8.75H19.25V5.81089L15.0001 10.0608L13.9395 9.00011L18.1896 4.75H15.25V3.25Z" fill="#10181B"/>
<path d="M20.75 15.25V20C20.75 20.4142 20.4142 20.75 20 20.75H15.25V19.25H18.1893L13.9395 15.0001L15.0001 13.9395L19.25 18.1893V15.25H20.75Z" fill="#10181B"/>
</svg>
