<svg width="24" height="24" viewBox="0 0 24 24" fill="none" xmlns="http://www.w3.org/2000/svg">
<path d="M3.00011 1.93945L8.25 7.18934V4.25H9.75V9C9.75 9.41421 9.41421 9.75 9 9.75H4.25V8.25H7.18934L1.93945 3.00011L3.00011 1.93945Z" fill="#10181B"/>
<path d="M4.25 14.25H9C9.41421 14.25 9.75 14.5858 9.75 15V19.75H8.25V16.8109L3.00011 22.0608L1.93945 21.0001L7.18957 15.75H4.25V14.25Z" fill="#10181B"/>
<path d="M15.75 4.25V7.18957L21.0001 1.93945L22.0608 3.00011L16.8109 8.25H19.75V9.75H15C14.5858 9.75 14.25 9.41421 14.25 9V4.25H15.75Z" fill="#10181B"/>
<path d="M15 14.25C14.5858 14.25 14.25 14.5858 14.25 15V19.75H15.75V16.8107L21.0001 22.0608L22.0608 21.0001L16.8107 15.75H19.75V14.25H15Z" fill="#10181B"/>
<path d="M14 12C14 13.1046 13.1046 14 12 14C10.8954 14 10 13.1046 10 12C10 10.8954 10.8954 10 12 10C13.1046 10 14 10.8954 14 12Z" fill="#10181B"/>
</svg>
