<svg width="16" height="16" viewBox="0 0 16 16" fill="none" xmlns="http://www.w3.org/2000/svg">
<path d="M2.75 11.43C2.75 12.4358 3.56422 13.25 4.57001 13.25H11.43C12.4358 13.25 13.25 12.4358 13.25 11.43V4.57C13.25 3.56422 12.4358 2.75 11.43 2.75H10.68V1.25H11.43C13.2642 1.25 14.75 2.73578 14.75 4.57V11.43C14.75 13.2642 13.2642 14.75 11.43 14.75H4.57001C2.7358 14.75 1.25 13.2642 1.25 11.43V4.57C1.25 2.73578 2.7358 1.25 4.57001 1.25H5.32001V2.75H4.57001C3.56422 2.75 2.75 3.56422 2.75 4.57V11.43Z" fill="#10181B"/>
<path d="M5.07776 6.89949L7.25 9.14561V1.25H8.75V9.14567L10.9223 6.89949L12.0005 7.94227L8.53915 11.5214C8.39784 11.6675 8.20329 11.75 8.00003 11.75C7.79676 11.75 7.60221 11.6675 7.4609 11.5214L3.99951 7.94227L5.07776 6.89949Z" fill="#10181B"/>
</svg>
