<svg width="24" height="24" viewBox="0 0 24 24" fill="none" xmlns="http://www.w3.org/2000/svg">
<path d="M4.25003 1.25L4.25003 6.74995H9.74997V5.24995H7.25515C8.59743 4.3045 10.2337 3.74992 12 3.74992C16.5563 3.74992 20.25 7.44357 20.25 11.9999C20.25 13.1393 20.0195 14.2228 19.6032 15.208L20.985 15.7918C21.4778 14.6252 21.75 13.3434 21.75 11.9999C21.75 6.61514 17.3848 2.24992 12 2.24992C9.62175 2.24992 7.44186 3.10207 5.75003 4.51634L5.75003 1.25H4.25003Z" fill="#10181B"/>
<path d="M4.39678 8.79182C3.98053 9.777 3.75 10.8606 3.75 11.9999C3.75 16.5563 7.44365 20.2499 12 20.2499C13.9035 20.2499 15.6557 19.6059 17.0519 18.5228H14.023V17.0228H19.5229V22.5228H18.0229V19.6676C16.3651 20.9714 14.2731 21.7499 12 21.7499C6.61522 21.7499 2.25 17.3847 2.25 11.9999C2.25 10.6564 2.52215 9.37461 3.01504 8.20802L4.39678 8.79182Z" fill="#10181B"/>
</svg>
