<svg width="24" height="24" viewBox="0 0 24 24" fill="none" xmlns="http://www.w3.org/2000/svg">
<path d="M12.75 2.25V13.22H11.25V2.25H12.75Z" fill="#10181B"/>
<path d="M7.90548 15.4194C8.93641 15.6436 10.0666 15.7845 11.25 15.8266V21.7499H12.75V15.8267C15.0225 15.7463 17.0946 15.3033 18.6682 14.604C19.5398 14.2167 20.2917 13.736 20.8358 13.1643C21.3836 12.5887 21.7499 11.8864 21.7499 11.0899C21.7499 9.83331 20.8577 8.83031 19.7154 8.12137C18.5495 7.39788 16.9564 6.86587 15.155 6.58035L13.9246 6.35889L13.6589 7.83516L14.897 8.05803L14.9128 8.06069C16.5882 8.32547 17.977 8.80796 18.9244 9.3959C19.897 9.99947 20.2499 10.6065 20.2499 11.0899C20.2499 11.3984 20.1124 11.7486 19.7492 12.1302C19.3824 12.5156 18.8162 12.8968 18.0591 13.2333C16.5468 13.9053 14.4051 14.3399 11.9999 14.3399C10.5846 14.3399 9.25092 14.1881 8.08571 13.9229L10.7928 12.2415L10.0014 10.9673L5.8543 13.543C5.68519 13.648 5.56477 13.816 5.51958 14.0099C5.47439 14.2037 5.50814 14.4076 5.61339 14.5766L8.18983 18.7132L9.46306 17.9202L7.90548 15.4194Z" fill="#10181B"/>
<path d="M9.11643 8.06088L10.351 7.8593L10.1093 6.37891L8.88134 6.5794C7.06798 6.86459 5.46539 7.39672 4.29338 8.12061C3.14665 8.82888 2.25 9.83181 2.25 11.09C2.25 12.1029 2.84267 12.9674 3.66448 13.618L4.25251 14.0835L5.18357 12.9074L4.59553 12.4419C3.97734 11.9525 3.75 11.4771 3.75 11.09C3.75 10.6081 4.10335 10.001 5.08162 9.3968C6.03413 8.80849 7.43071 8.32578 9.11643 8.06088Z" fill="#10181B"/>
</svg>
