<svg width="24" height="24" viewBox="0 0 24 24" fill="none" xmlns="http://www.w3.org/2000/svg">
<path d="M2 18H3.5V20C3.5 20.2761 3.72386 20.5 4 20.5H6V22H4C2.89543 22 2 21.1046 2 20V18Z" fill="#10181B"/>
<path d="M2 14H3.5V10H2V14Z" fill="#10181B"/>
<path d="M2 6H3.5V4C3.5 3.72386 3.72386 3.5 4 3.5H6V2H4C2.89543 2 2 2.89543 2 4V6Z" fill="#10181B"/>
<path d="M10 2V3.5H14V2H10Z" fill="#10181B"/>
<path d="M18 2V3.5H20C20.2761 3.5 20.5 3.72386 20.5 4V6H22V4C22 2.89543 21.1046 2 20 2H18Z" fill="#10181B"/>
<path d="M22 10H20.5V14H22V10Z" fill="#10181B"/>
<path d="M22 18H20.5V20C20.5 20.2761 20.2761 20.5 20 20.5H18V22H20C21.1046 22 22 21.1046 22 20V18Z" fill="#10181B"/>
<path d="M14 22V20.5H10V22H14Z" fill="#10181B"/>
<path d="M12.75 8.81055L15.0001 11.0607L16.0608 10L12.5304 6.46967C12.2375 6.17678 11.7627 6.17678 11.4698 6.46967L7.93945 10L9.00011 11.0607L11.25 8.81077V17.75H12.75V8.81055Z" fill="#10181B"/>
</svg>
