<svg width="16" height="16" viewBox="0 0 16 16" fill="none" xmlns="http://www.w3.org/2000/svg">
<path d="M2.75 4.57C2.75 3.56422 3.56422 2.75 4.57001 2.75H11.43C12.4358 2.75 13.25 3.56422 13.25 4.57V11.43C13.25 12.4358 12.4358 13.25 11.43 13.25H10.68V14.75H11.43C13.2642 14.75 14.75 13.2642 14.75 11.43V4.57C14.75 2.73578 13.2642 1.25 11.43 1.25H4.57001C2.7358 1.25 1.25 2.73578 1.25 4.57V11.43C1.25 13.2642 2.7358 14.75 4.57001 14.75H5.32001V13.25H4.57001C3.56422 13.25 2.75 12.4358 2.75 11.43V4.57Z" fill="#10181B"/>
<path d="M8.00003 4.25C8.20329 4.25 8.39784 4.3325 8.53915 4.47861L12.0005 8.05773L10.9223 9.10051L8.75 6.85433V14.75H7.25V6.85439L5.07776 9.10051L3.99951 8.05773L7.4609 4.47861C7.60221 4.3325 7.79676 4.25 8.00003 4.25Z" fill="#10181B"/>
</svg>
