<svg width="24" height="24" viewBox="0 0 24 24" fill="none" xmlns="http://www.w3.org/2000/svg">
<path fill-rule="evenodd" clip-rule="evenodd" d="M2 4C2 2.89543 2.89543 2 4 2H20C21.1046 2 22 2.89543 22 4V20C22 21.1046 21.1046 22 20 22H4C2.89543 22 2 21.1046 2 20V4ZM9.75 8.81055L12.0001 11.0607L13.0608 10L9.53044 6.46967C9.23755 6.17678 8.76268 6.17678 8.46978 6.46967L4.93945 10L6.00011 11.0607L8.25 8.81077V17.75H9.75V8.81055ZM14.25 15.1895L11.9999 12.9393L10.9392 14L14.4696 17.5303C14.7625 17.8232 15.2373 17.8232 15.5302 17.5303L19.0605 14L17.9999 12.9393L15.75 15.1892V6.25H14.25V15.1895Z" fill="#10181B"/>
</svg>
