<svg width="16" height="16" viewBox="0 0 16 16" fill="none" xmlns="http://www.w3.org/2000/svg">
<path d="M8.73975 8.75V1.25H7.23975V8.75H8.73975Z" fill="#10181B"/>
<path d="M6.34802 9.20567L6.875 7.27441L3.90353 8.7854C3.2981 9.09327 3.08996 9.85601 3.4551 10.4287L5.24725 13.2396L5.94998 10.6644C6.36455 10.7262 6.79615 10.7688 7.23975 10.7914V14.7504H8.73975V10.7907C10.1848 10.7149 11.508 10.422 12.5353 9.96566C13.1358 9.69893 13.6685 9.3616 14.0612 8.94854C14.4577 8.53143 14.7396 8.0036 14.7396 7.39024C14.7396 6.51312 14.2806 5.79778 13.5437 5.28388C12.8306 4.78651 11.8328 4.45348 10.6179 4.25972L9.87725 4.1416L9.64101 5.62288L10.3817 5.741C11.4868 5.91725 12.2339 6.19915 12.6857 6.51422C13.1137 6.81276 13.2396 7.10735 13.2396 7.39024C13.2396 7.51688 13.1853 7.6928 12.974 7.91506C12.7589 8.14138 12.4122 8.37905 11.9264 8.59481C10.9568 9.02553 9.56509 9.31024 7.98964 9.31024C7.41335 9.31024 6.86216 9.2738 6.34802 9.20567Z" fill="#10181B"/>
<path d="M6.85621 5.50682L6.11501 5.62135C5.01531 5.79125 4.11918 6.1039 3.52069 6.47334C2.90319 6.85451 2.75387 7.19075 2.75055 7.38353C2.75086 7.38669 2.75159 7.3933 2.75317 7.40364C2.7565 7.42551 2.76197 7.45323 2.76929 7.48305C2.77663 7.51295 2.78431 7.53879 2.79061 7.5572L2.79385 7.56634L3.14049 8.21356L1.8182 8.92175L1.4641 8.2606C1.39033 8.12288 1.34137 7.95813 1.31251 7.84052C1.2827 7.71903 1.25049 7.55026 1.25049 7.39013C1.25049 6.42178 1.9399 5.68637 2.73279 5.19693C3.5518 4.69137 4.65566 4.32903 5.88597 4.13894L6.62717 4.02441L6.85621 5.50682Z" fill="#10181B"/>
</svg>
