<svg width="16" height="16" viewBox="0 0 16 16" fill="none" xmlns="http://www.w3.org/2000/svg">
<path d="M4.57 2.75C3.56422 2.75 2.75 3.56422 2.75 4.57001L2.75 11.43C2.75 12.4358 3.56422 13.25 4.57 13.25H11.43C12.4358 13.25 13.25 12.4358 13.25 11.43V10.68H14.75V11.43C14.75 13.2642 13.2642 14.75 11.43 14.75H4.57C2.73578 14.75 1.25 13.2642 1.25 11.43V4.57001C1.25 2.7358 2.73578 1.25 4.57 1.25H11.43C13.2642 1.25 14.75 2.7358 14.75 4.57001V5.32001H13.25V4.57001C13.25 3.56422 12.4358 2.75 11.43 2.75L4.57 2.75Z" fill="#10181B"/>
<path d="M4.25 8.00003C4.25 8.20329 4.3325 8.39784 4.47861 8.53915L8.05773 12.0005L9.10051 10.9223L6.85433 8.75L14.75 8.75V7.25L6.85439 7.25L9.10051 5.07776L8.05774 3.99951L4.47861 7.4609C4.3325 7.60221 4.25 7.79676 4.25 8.00003Z" fill="#10181B"/>
</svg>
