<svg width="16" height="16" viewBox="0 0 16 16" fill="none" xmlns="http://www.w3.org/2000/svg">
<path d="M2.00007 2H6.50007V6.5H2.00007V2Z" fill="#10181B"/>
<path d="M12.3585 5.46436H14.2782L12.4315 7.31102C11.9824 7.76012 11.2543 7.76011 10.8052 7.311L8.95857 5.46436H10.8585L10.8582 3.50951L9.1579 3.50944L9.15796 2.00944L11.6082 2.00954C12.0223 2.00956 12.3581 2.34528 12.3581 2.75944L12.3585 5.46436Z" fill="#10181B"/>
<path d="M3.3831 10.4766H1.46362L3.31031 8.6299C3.75942 8.1808 4.48756 8.18081 4.93666 8.62991L6.78328 10.4766H4.8831L4.88337 12.4319L6.58371 12.432L6.58365 13.932L4.13344 13.9319C3.71927 13.9318 3.38352 13.5961 3.38347 13.182L3.3831 10.4766Z" fill="#10181B"/>
<path d="M14.0018 9.50195H9.50178V14.002H14.0018V9.50195Z" fill="#10181B"/>
</svg>
