<svg width="16" height="16" viewBox="0 0 16 16" fill="none" xmlns="http://www.w3.org/2000/svg">
<path d="M3.69614 4.93131L6.51196 4.67325L5.21257 3.55001C6.02045 3.04277 6.97581 2.74991 8 2.74991C10.8995 2.74991 13.25 5.10041 13.25 7.99991C13.25 8.56462 13.1611 9.10711 12.9971 9.61496L14.4245 10.0759C14.636 9.42093 14.75 8.723 14.75 7.99991C14.75 4.27198 11.7279 1.24991 8 1.24991C6.51975 1.24991 5.15037 1.7269 4.03792 2.5346L2.18187 0.930176L2.33386 3.75372C2.37196 4.46149 2.9903 4.996 3.69614 4.93131Z" fill="#10181B"/>
<path d="M2.98623 6.4374C2.83289 6.93003 2.75 7.45459 2.75 7.99991C2.75 10.8994 5.1005 13.2499 8 13.2499C9.08481 13.2499 10.0922 12.9214 10.9291 12.3577L9.63794 10.5883L12.4394 10.9722C13.1416 11.0685 13.6234 11.7287 13.5008 12.4268L13.0118 15.2119L11.8137 13.57C10.7288 14.314 9.41496 14.7499 8 14.7499C4.27208 14.7499 1.25 11.7278 1.25 7.99991C1.25 7.3017 1.35626 6.62692 1.55401 5.9916L2.98623 6.4374Z" fill="#10181B"/>
</svg>
