<svg width="24" height="24" viewBox="0 0 24 24" fill="none" xmlns="http://www.w3.org/2000/svg">
<path d="M5.83984 8.00977C5.83984 6.76398 6.84406 5.75977 8.08984 5.75977H16.0898C17.3356 5.75977 18.3398 6.76398 18.3398 8.00977V16.0098C18.3398 17.2556 17.3356 18.2598 16.0898 18.2598H15.3398V19.7598H16.0898C18.1641 19.7598 19.8398 18.084 19.8398 16.0098V8.00977C19.8398 5.93555 18.1641 4.25977 16.0898 4.25977H8.08984C6.01563 4.25977 4.33984 5.93555 4.33984 8.00977V16.0098C4.33984 18.084 6.01563 19.7598 8.08984 19.7598H8.83984V18.2598H8.08984C6.84406 18.2598 5.83984 17.2556 5.83984 16.0098V8.00977Z" fill="#10181B"/>
<path d="M12.1392 8.28027C12.3432 8.2801 12.5384 8.36296 12.6799 8.50977L16.1403 12.0998L15.0604 13.1408L12.8901 10.8893V19.7703H11.3901V10.8933L9.23114 13.1407L8.14941 12.1015L11.599 8.51069C11.7403 8.36364 11.9353 8.28045 12.1392 8.28027Z" fill="#10181B"/>
</svg>
