<svg width="24" height="24" viewBox="0 0 24 24" fill="none" xmlns="http://www.w3.org/2000/svg">
<path d="M8.09033 5.75977C6.84455 5.75977 5.84033 6.76398 5.84033 8.00977L5.84033 16.0098C5.84033 17.2556 6.84455 18.2598 8.09033 18.2598L16.0903 18.2598C17.3361 18.2598 18.3403 17.2556 18.3403 16.0098V15.2598H19.8403V16.0098C19.8403 18.084 18.1645 19.7598 16.0903 19.7598L8.09033 19.7598C6.01612 19.7598 4.34033 18.084 4.34033 16.0098V8.00977C4.34033 5.93555 6.01612 4.25977 8.09033 4.25977H16.0903C18.1645 4.25977 19.8403 5.93555 19.8403 8.00977V8.75977H18.3403V8.00977C18.3403 6.76398 17.3361 5.75977 16.0903 5.75977L8.09033 5.75977Z" fill="#10181B"/>
<path d="M8.36035 12.0592C8.36018 12.2631 8.44304 12.4583 8.58985 12.5998L12.1798 16.0603L13.2208 14.9803L10.9694 12.8101H19.8504L19.8504 11.3101L10.9734 11.3101L13.2208 9.15106L12.1816 8.06934L8.59077 11.5189C8.44372 11.6602 8.36052 11.8553 8.36035 12.0592Z" fill="#10181B"/>
</svg>
