<svg width="16" height="16" viewBox="0 0 16 16" fill="none" xmlns="http://www.w3.org/2000/svg">
<path fill-rule="evenodd" clip-rule="evenodd" d="M7.99368 1.25C8.30346 1.24958 8.58163 1.43966 8.6938 1.72843L12.0727 10.4265H13.3657V11.9265H9.24385V10.4265H10.4635L9.88253 8.93101H6.12746L5.55105 10.4265H6.77175V11.9265H2.6499V10.4265H3.94346L7.29486 1.73032C7.40625 1.44126 7.6839 1.25042 7.99368 1.25ZM6.70561 7.43101H9.29983L7.99751 4.0785L6.70561 7.43101Z" fill="#10181B"/>
<path d="M1 14C1 13.4477 1.44772 13 2 13H14C14.5523 13 15 13.4477 15 14C15 14.5523 14.5523 15 14 15H2C1.44772 15 1 14.5523 1 14Z" fill="#10181B"/>
</svg>
