<svg width="24" height="24" viewBox="0 0 24 24" fill="none" xmlns="http://www.w3.org/2000/svg">
<path d="M18.5301 3.13C18.729 3.13 18.9198 3.20902 19.0604 3.34967L22.2504 6.53967C22.4649 6.75417 22.5291 7.07676 22.413 7.35702C22.2969 7.63727 22.0235 7.82 21.7201 7.82H19.28V20.65H17.78V7.82H15.3401C15.0368 7.82 14.7633 7.63727 14.6472 7.35702C14.5311 7.07676 14.5953 6.75417 14.8098 6.53967L17.9998 3.34967C18.1404 3.20902 18.3312 3.13 18.5301 3.13Z" fill="#10181B"/>
<path fill-rule="evenodd" clip-rule="evenodd" d="M6.1101 5.19001C6.3901 4.78001 6.7901 4.46001 7.3101 4.23001C7.8301 4.00001 8.4301 3.89001 9.1201 3.89001H9.2401C9.7901 3.89001 10.3601 3.99001 10.8901 4.25001C11.4201 4.51001 11.8301 4.89001 12.1201 5.34001C12.4101 5.79001 12.5601 6.29001 12.5601 6.84001C12.5601 7.59001 12.3001 8.22001 11.7701 8.73001L12.3801 8.88001V10.2H2.8501V8.51001H6.4401C5.9401 8.03001 5.6901 7.40001 5.6901 6.63001C5.6901 6.08001 5.8301 5.59001 6.1101 5.18001V5.19001ZM9.0701 5.58001C7.6701 5.58001 6.9701 6.05001 6.9701 6.98001C6.9701 7.30001 7.0401 7.59001 7.1701 7.85001C7.3101 8.11001 7.5001 8.34001 7.7401 8.52001H10.6901C11.0901 8.14001 11.2901 7.68001 11.2901 7.13001C11.2901 6.65001 11.1101 6.27001 10.7401 5.99001C10.3701 5.71001 9.8501 5.57001 9.1701 5.57001H9.0701V5.58001Z" fill="#10181B"/>
<path fill-rule="evenodd" clip-rule="evenodd" d="M9.8801 14.15V17.45L12.3901 18.17V19.9L2.8501 16.98V14.65L12.3801 11.59V13.36L9.8701 14.15H9.8801ZM8.5001 17.07V14.56L4.0501 15.83L8.5001 17.07Z" fill="#10181B"/>
</svg>
