<svg width="24" height="24" viewBox="0 0 24 24" fill="none" xmlns="http://www.w3.org/2000/svg">
<path fill-rule="evenodd" clip-rule="evenodd" d="M12.0083 3C12.3181 2.99958 12.5962 3.18966 12.7084 3.47843L17.5725 16H19.3057V17.5H14.0914V16H15.9633L14.8976 13.2564H9.14957L8.0921 16H9.96429V17.5H4.75V16H6.48452L11.3095 3.48032C11.4208 3.19126 11.6985 3.00042 12.0083 3ZM9.72773 11.7564H14.3149L12.0121 5.8285L9.72773 11.7564Z" fill="#10181B"/>
<path d="M2.1499 20.75C2.1499 20.1977 2.59762 19.75 3.1499 19.75H21.1399C21.6922 19.75 22.1399 20.1977 22.1399 20.75C22.1399 21.3023 21.6922 21.75 21.1399 21.75H3.1499C2.59762 21.75 2.1499 21.3023 2.1499 20.75Z" fill="#10181B"/>
</svg>
