<svg width="16" height="16" viewBox="0 0 16 16" fill="none" xmlns="http://www.w3.org/2000/svg">
<path d="M4.66992 2.55005C4.66992 2.13584 4.33414 1.80005 3.91992 1.80005C3.50571 1.80005 3.16992 2.13584 3.16992 2.55005V10.37H1.79006C1.48639 10.37 1.21269 10.5531 1.09681 10.8338C0.980936 11.1145 1.04575 11.4374 1.26098 11.6516L3.39098 13.7716C3.68359 14.0628 4.15654 14.0628 4.44914 13.7716L6.57914 11.6516C6.79437 11.4374 6.85919 11.1145 6.74331 10.8338C6.62743 10.5531 6.35373 10.37 6.05006 10.37H4.66992V2.55005Z" fill="#10181B"/>
<path fill-rule="evenodd" clip-rule="evenodd" d="M9.6799 6.38006V4.19006L8.0099 3.71006V2.56006L14.3699 4.50006V6.05006L8.0099 8.09006V6.91006L9.6799 6.38006ZM10.5999 4.45006V6.12006L13.5699 5.28006L10.5999 4.45006Z" fill="#10181B"/>
<path fill-rule="evenodd" clip-rule="evenodd" d="M12.1999 12.3601C12.0099 12.6401 11.7499 12.8501 11.3999 13.0001C11.0499 13.1501 10.6499 13.2301 10.1899 13.2301H10.1099C9.7399 13.2301 9.3599 13.1601 9.0099 12.9901C8.6599 12.8201 8.3899 12.5601 8.1899 12.2601C7.9899 11.9601 7.8999 11.6201 7.8999 11.2601C7.8999 10.7601 8.0799 10.3401 8.4299 10.0001L8.0199 9.90006V9.02006H14.3799V10.1501H11.9899C12.3199 10.4701 12.4899 10.8901 12.4899 11.4001C12.4899 11.7701 12.3999 12.0901 12.2099 12.3701L12.1999 12.3601ZM10.2299 12.1001C11.1599 12.1001 11.6299 11.7901 11.6299 11.1601C11.6299 10.9501 11.5799 10.7501 11.4899 10.5801C11.3999 10.4001 11.2699 10.2601 11.1099 10.1401H9.1399C8.8699 10.3901 8.7399 10.7001 8.7399 11.0701C8.7399 11.3901 8.8599 11.6401 9.1099 11.8301C9.3599 12.0101 9.6999 12.1101 10.1599 12.1101H10.2299V12.1001Z" fill="#10181B"/>
</svg>
