<svg width="16" height="16" viewBox="0 0 16 16" fill="none" xmlns="http://www.w3.org/2000/svg">
<path d="M3.59562 7.18279L6.05578 3.87105L4.85166 2.97656L2.89212 5.6144L1.97688 4.75937L0.952881 5.85547L2.48157 7.28359C2.63763 7.42939 2.84845 7.50174 3.06115 7.48249C3.27386 7.46324 3.46827 7.35423 3.59562 7.18279Z" fill="#10181B"/>
<path d="M8.12988 3.25H14.7499V4.75H8.12988V3.25Z" fill="#10181B"/>
<path d="M8.12988 7.10156H14.7499V8.60156H8.12988V7.10156Z" fill="#10181B"/>
<path d="M14.7499 10.9468H8.12988V12.4468H14.7499V10.9468Z" fill="#10181B"/>
<path d="M6.04257 9.00494L3.5898 12.3174C3.46312 12.4884 3.2697 12.5976 3.05776 12.6177C2.84582 12.6378 2.63534 12.5668 2.4788 12.4226L0.940186 11.0046L1.95671 9.90159L2.88125 10.7536L4.83709 8.1123L6.04257 9.00494Z" fill="#10181B"/>
</svg>
