<svg width="24" height="24" viewBox="0 0 24 24" fill="none" xmlns="http://www.w3.org/2000/svg">
<path fill-rule="evenodd" clip-rule="evenodd" d="M4.90002 2.90002H12.88C15.4175 2.90002 17.48 4.96251 17.48 7.50002C17.48 8.81986 16.9221 10.0112 16.0295 10.8506C17.5596 11.8692 18.57 13.6093 18.57 15.59C18.57 18.7375 16.0275 21.28 12.88 21.28H4.90002V2.90002ZM7.10002 9.90002V5.10002H12.88C14.2025 5.10002 15.28 6.17754 15.28 7.50002C15.28 8.82251 14.2025 9.90002 12.88 9.90002H7.10002ZM7.10002 12.1L12.882 12.1C14.8051 12.1011 16.37 13.6598 16.37 15.59C16.37 17.5225 14.8125 19.08 12.88 19.08H7.10002V12.1Z" fill="#10181B"/>
</svg>
