<svg width="24" height="24" viewBox="0 0 24 24" fill="none" xmlns="http://www.w3.org/2000/svg">
<path d="M21.52 5.73999H8.97998V7.23999H21.52V5.73999Z" fill="#10181B"/>
<path d="M21.52 11.71H8.97998V13.21H21.52V11.71Z" fill="#10181B"/>
<path d="M8.97998 17.67H21.52V19.17H8.97998V17.67Z" fill="#10181B"/>
<path fill-rule="evenodd" clip-rule="evenodd" d="M2.48116 18.5343L2.48145 18.533L2.48175 18.5316L2.48241 18.5287L2.48398 18.5219L2.48817 18.5052C2.49145 18.4926 2.49576 18.4772 2.50133 18.4592C2.51246 18.4232 2.52861 18.3767 2.55158 18.3214C2.59759 18.2107 2.67066 18.0654 2.78485 17.8987C3.01433 17.5636 3.40277 17.1523 4.05147 16.7619C4.55393 16.4575 4.90859 16.1848 5.13337 15.9353C5.35473 15.6896 5.41987 15.5012 5.41987 15.35C5.41987 15.0258 5.30761 14.8247 5.16 14.6977C5.00228 14.562 4.75501 14.47 4.42986 14.47C3.9746 14.47 3.7431 14.6562 3.61314 14.8203C3.54237 14.9097 3.49644 15.0007 3.46863 15.0693C3.45495 15.103 3.44634 15.1295 3.44168 15.1453C3.43968 15.1521 3.43845 15.1567 3.43788 15.1589L3.33476 15.6431L2.35669 15.4349L2.46095 14.9453L2.46133 14.9435L2.46194 14.9408L2.46346 14.934L2.46786 14.9159C2.47142 14.9017 2.47629 14.8835 2.48271 14.8618C2.4955 14.8185 2.51463 14.7607 2.54204 14.6932C2.59642 14.5592 2.68611 14.3802 2.82909 14.1996C3.12663 13.8238 3.63512 13.47 4.42986 13.47C4.93471 13.47 5.43245 13.6129 5.81224 13.9397C6.20213 14.2752 6.41987 14.7642 6.41987 15.35C6.41987 15.8288 6.20001 16.2453 5.87636 16.6046C5.55624 16.96 5.10611 17.2922 4.56893 17.6176L4.56765 17.6184C4.26584 17.8 4.04466 17.9797 3.88326 18.14H6.52987V19.14H2.96987C2.81871 19.14 2.67567 19.0716 2.58075 18.954L2.48116 18.5343C2.48134 18.5345 2.48477 18.5353 2.54234 18.5477L2.96987 18.64L2.48116 18.5343ZM2.94987 15.05C2.46083 14.9458 2.46089 14.9456 2.46095 14.9453L2.94987 15.05Z" fill="#10181B"/>
<path d="M2.48116 18.5343C2.48116 18.5343 2.48116 18.5343 2.48116 18.5343Z" fill="#10181B"/>
<path d="M4.99005 10.8H6.05992V11.8H2.91992V10.8H3.99005V7.27027L3.36716 7.70629L2.7937 6.88705L4.20332 5.90032C4.35605 5.79341 4.55559 5.78035 4.72095 5.86645C4.88632 5.95255 4.99005 6.1235 4.99005 6.30994V10.8Z" fill="#10181B"/>
</svg>
