<svg width="16" height="16" viewBox="0 0 16 16" fill="none" xmlns="http://www.w3.org/2000/svg">
<path fill-rule="evenodd" clip-rule="evenodd" d="M6.10003 6.28998H3.91003L3.43003 7.95998H2.28003L4.22003 1.59998H5.77003L7.81003 7.95998H6.63003L6.10003 6.28998ZM4.17003 5.36998H5.84003L5.00003 2.39998L4.17003 5.36998Z" fill="#10181B"/>
<path fill-rule="evenodd" clip-rule="evenodd" d="M12.08 3.77998C12.36 3.96998 12.57 4.22998 12.72 4.57998C12.87 4.92998 12.95 5.32998 12.95 5.78998V5.86998C12.95 6.23998 12.88 6.61998 12.71 6.96998C12.54 7.31998 12.28 7.58998 11.98 7.78998C11.68 7.98998 11.34 8.07998 10.98 8.07998C10.48 8.07998 10.06 7.89998 9.72003 7.54998L9.62003 7.95998H8.74003V1.59998H9.87003V3.98997C10.19 3.65998 10.61 3.48997 11.12 3.48997C11.49 3.48997 11.81 3.57997 12.09 3.76997L12.08 3.77998ZM11.82 5.74998C11.82 4.81998 11.51 4.34998 10.88 4.34998C10.67 4.34998 10.47 4.39998 10.3 4.48997C10.12 4.57997 9.98003 4.70998 9.86003 4.86998V6.83997C10.11 7.10997 10.42 7.23997 10.79 7.23997C11.11 7.23997 11.36 7.11998 11.55 6.86998C11.73 6.61998 11.83 6.27998 11.83 5.81998V5.74998H11.82Z" fill="#10181B"/>
<path d="M10.4738 9.2267C10.7545 9.11082 11.0774 9.17563 11.2916 9.39086L13.4116 11.5209C13.7028 11.8135 13.7028 12.2864 13.4116 12.579L11.2916 14.709C11.0774 14.9243 10.7545 14.9891 10.4738 14.8732C10.1931 14.7573 10.01 14.4836 10.01 14.1799V12.8H2.28003C1.86582 12.8 1.53003 12.4643 1.53003 12.05C1.53003 11.6358 1.86582 11.3 2.28003 11.3H10.01V9.91994C10.01 9.61628 10.1931 9.34258 10.4738 9.2267Z" fill="#10181B"/>
</svg>
