<svg width="24" height="24" viewBox="0 0 24 24" fill="none" xmlns="http://www.w3.org/2000/svg">
<path fill-rule="evenodd" clip-rule="evenodd" d="M9.59007 5.71996C10.0001 5.99996 10.3201 6.39996 10.5501 6.91996C10.7801 7.43996 10.8901 8.03996 10.8901 8.72996V8.84996C10.8901 9.39996 10.7901 9.96996 10.5301 10.5C10.2701 11.03 9.89008 11.44 9.44008 11.73C8.99008 12.02 8.49008 12.17 7.94008 12.17C7.19008 12.17 6.56008 11.91 6.05008 11.38L5.90008 11.99H4.58008V2.45996H6.27007V6.04996C6.75007 5.54996 7.38008 5.29996 8.15008 5.29996C8.70008 5.29996 9.19007 5.43996 9.60007 5.71996H9.59007ZM9.20007 8.67996C9.20007 7.27996 8.73008 6.57996 7.80008 6.57996C7.48008 6.57996 7.19008 6.64996 6.93008 6.77996C6.67008 6.91996 6.44008 7.10996 6.26008 7.34996V10.3C6.64008 10.7 7.10008 10.9 7.65008 10.9C8.13008 10.9 8.51008 10.72 8.79008 10.35C9.07008 9.97996 9.21008 9.45996 9.21008 8.77996V8.67996H9.20007Z" fill="#10181B"/>
<path fill-rule="evenodd" clip-rule="evenodd" d="M17.9101 9.48996H14.6101L13.8901 12H12.1601L15.0801 2.46996H17.4101L20.4701 12H18.7001L17.9101 9.48996ZM14.9901 8.10996H17.5001L16.2301 3.65996L14.9901 8.10996Z" fill="#10181B"/>
<path d="M7.99704 14.2571C8.27729 14.3731 8.46002 14.6466 8.46002 14.95V17.39H20.4701C20.8843 17.39 21.2201 17.7258 21.2201 18.14C21.2201 18.5542 20.8843 18.89 20.4701 18.89H8.46002V21.33C8.46002 21.6333 8.27729 21.9068 7.99703 22.0229C7.71678 22.139 7.39419 22.0748 7.17969 21.8603L3.98969 18.6703C3.84904 18.5297 3.77002 18.3389 3.77002 18.14C3.77002 17.9411 3.84904 17.7503 3.98969 17.6096L7.17969 14.4196C7.39419 14.2051 7.71678 14.141 7.99704 14.2571Z" fill="#10181B"/>
</svg>
