<svg width="16" height="16" viewBox="0 0 16 16" fill="none" xmlns="http://www.w3.org/2000/svg">
<path d="M11.4198 2.00971C11.7127 1.71682 12.1875 1.71682 12.4804 2.00971L14.6104 4.13971C14.8249 4.3542 14.8891 4.67679 14.773 4.95705C14.6569 5.2373 14.3834 5.42004 14.0801 5.42004H12.7V13.97H11.2V5.42004H9.82009C9.51674 5.42004 9.24327 5.2373 9.12718 4.95705C9.0111 4.67679 9.07526 4.3542 9.28976 4.13971L11.4198 2.00971Z" fill="#10181B"/>
<path fill-rule="evenodd" clip-rule="evenodd" d="M3.67 3.42004C3.86 3.14004 4.12 2.93004 4.47 2.78004C4.82 2.63004 5.22 2.55005 5.68 2.55005H5.76C6.13 2.55005 6.51 2.62005 6.86 2.79005C7.21 2.96005 7.48 3.22004 7.68 3.52004C7.88 3.82004 7.97 4.16004 7.97 4.52004C7.97 5.02004 7.79 5.44004 7.44 5.78004L7.85 5.88004V6.76005H1.5V5.63004H3.89C3.56 5.31004 3.39 4.89004 3.39 4.38004C3.39 4.01004 3.48 3.69005 3.67 3.41005V3.42004ZM5.64 3.68005C4.71 3.68005 4.24 3.99005 4.24 4.62005C4.24 4.83005 4.29 5.03004 4.38 5.20004C4.47 5.38004 4.6 5.52005 4.76 5.64005H6.73C7 5.39005 7.13 5.08004 7.13 4.71004C7.13 4.39004 7.01 4.14004 6.76 3.95004C6.51 3.77004 6.17 3.67004 5.71 3.67004H5.64V3.68005Z" fill="#10181B"/>
<path fill-rule="evenodd" clip-rule="evenodd" d="M6.19 9.40005V11.59L7.86 12.07V13.22L1.5 11.28V9.73005L7.86 7.69005V8.87005L6.19 9.40005ZM5.27 11.33V9.66005L2.3 10.5L5.27 11.33Z" fill="#10181B"/>
</svg>
