<svg width="16" height="16" viewBox="0 0 16 16" fill="none" xmlns="http://www.w3.org/2000/svg">
<path fill-rule="evenodd" clip-rule="evenodd" d="M5.50993 5.73004H3.31995L2.83994 7.40004H1.68994L3.62994 1.04004H5.17993L7.21994 7.40004H6.03993L5.50993 5.73004ZM3.57994 4.81004H5.24994L4.40994 1.84003L3.57994 4.81004Z" fill="#10181B"/>
<path d="M12.1799 2.55005C12.1799 2.13584 11.8441 1.80005 11.4299 1.80005C11.0157 1.80005 10.6799 2.13584 10.6799 2.55005V10.3201H9.29995C8.99628 10.3201 8.72258 10.5032 8.6067 10.7839C8.49082 11.0646 8.55564 11.3874 8.77087 11.6016L10.9009 13.7216C11.1939 14.0134 11.6679 14.0128 11.9603 13.7204L14.0803 11.6004C14.2948 11.3859 14.3589 11.0633 14.2429 10.7831C14.1268 10.5028 13.8533 10.3201 13.5499 10.3201H12.1799V2.55005Z" fill="#10181B"/>
<path fill-rule="evenodd" clip-rule="evenodd" d="M6.47993 10.92C6.32993 10.57 6.11994 10.31 5.83994 10.12L5.84995 10.11C5.56994 9.92004 5.24994 9.83004 4.87994 9.83004C4.36994 9.83004 3.94994 10 3.62994 10.33V7.94004H2.49994V14.3H3.37994L3.47993 13.89C3.81993 14.24 4.23994 14.42 4.73994 14.42C5.09994 14.42 5.43994 14.33 5.73994 14.13C6.03994 13.93 6.29994 13.66 6.46994 13.31C6.63994 12.96 6.70995 12.58 6.70995 12.21V12.13C6.70995 11.67 6.62993 11.27 6.47993 10.92ZM4.63994 10.69C5.26994 10.69 5.57994 11.16 5.57994 12.09H5.58994V12.16C5.58994 12.62 5.48994 12.96 5.30994 13.21C5.11994 13.46 4.86994 13.58 4.54994 13.58C4.17994 13.58 3.86993 13.45 3.61993 13.18V11.21C3.73993 11.05 3.87994 10.92 4.05994 10.83C4.22994 10.74 4.42994 10.69 4.63994 10.69Z" fill="#10181B"/>
</svg>
