<svg width="16" height="16" viewBox="0 0 16 16" fill="none" xmlns="http://www.w3.org/2000/svg">
<path d="M14.1801 2.38623H7.33008V3.88623H14.1801V2.38623Z" fill="#10181B"/>
<path d="M14.1801 6.90369H7.33008V8.40369H14.1801V6.90369Z" fill="#10181B"/>
<path d="M7.33008 11.4136H14.1801V12.9136H7.33008V11.4136Z" fill="#10181B"/>
<path fill-rule="evenodd" clip-rule="evenodd" d="M1.4763 12.2243L1.47658 12.2231L1.47687 12.2217L1.47751 12.2189L1.47899 12.2125L1.48279 12.1973C1.48572 12.1861 1.48947 12.1727 1.49423 12.1573C1.50374 12.1265 1.51725 12.0878 1.53615 12.0423C1.57402 11.9511 1.63325 11.8338 1.72463 11.7003C1.90848 11.4319 2.21538 11.1088 2.72049 10.8048C3.09647 10.577 3.35322 10.3779 3.51172 10.202C3.66677 10.0299 3.69724 9.91505 3.69724 9.8405C3.69724 9.62702 3.62512 9.50991 3.5429 9.43917C3.45057 9.35972 3.29394 9.29626 3.06977 9.29626C2.76658 9.29626 2.6251 9.41676 2.54714 9.51523C2.50238 9.57177 2.47295 9.62995 2.45514 9.67383C2.44645 9.69522 2.44122 9.71153 2.43868 9.72013L2.43748 9.7243L2.33476 10.2067L1.35669 9.99838L1.46095 9.50881L1.46132 9.50707L1.4619 9.50447L1.46329 9.49832L1.46716 9.48234C1.47023 9.47012 1.47436 9.45473 1.47971 9.43662C1.49038 9.40053 1.50613 9.35299 1.52854 9.29777C1.57292 9.18842 1.64611 9.04229 1.76309 8.89453C2.00862 8.58438 2.42709 8.29626 3.06977 8.29626C3.47364 8.29626 3.88075 8.41063 4.19514 8.68115C4.51965 8.96038 4.69724 9.36539 4.69724 9.8405C4.69724 10.2427 4.51205 10.5856 4.25471 10.8713C4.00089 11.1531 3.64869 11.4117 3.23803 11.6605L3.23675 11.6612C3.1419 11.7183 3.05828 11.7749 2.98463 11.83H4.78048V12.83H1.965C1.81385 12.83 1.6708 12.7616 1.57588 12.644L1.4763 12.2243C1.47647 12.2245 1.47988 12.2253 1.53695 12.2376L1.965 12.33L1.4763 12.2243ZM1.94987 9.61349C1.46083 9.50935 1.46089 9.50908 1.46095 9.50881L1.94987 9.61349Z" fill="#10181B"/>
<path d="M1.4763 12.2243C1.47629 12.2243 1.4763 12.2244 1.4763 12.2243Z" fill="#10181B"/>
<path d="M3.61539 6.27588H4.42498V7.27588H1.80566V6.27588H2.61539V3.96033L2.23582 4.22603L1.66235 3.4068L2.82866 2.59039C2.9814 2.48347 3.18093 2.47041 3.3463 2.55651C3.51166 2.64261 3.61539 2.81356 3.61539 3V6.27588Z" fill="#10181B"/>
</svg>
