<svg width="24" height="24" viewBox="0 0 24 24" fill="none" xmlns="http://www.w3.org/2000/svg">
<path fill-rule="evenodd" clip-rule="evenodd" d="M8.65002 8.66002H5.35004L4.63004 11.17H2.90002L5.82004 1.64001H8.15002L11.21 11.17H9.44003L8.65002 8.66002ZM5.73003 7.28001H8.24004L6.97003 2.83001L5.73003 7.28001Z" fill="#10181B"/>
<path d="M18.26 3.88C18.26 3.46579 17.9242 3.13 17.51 3.13C17.0958 3.13 16.76 3.46579 16.76 3.88V15.91H14.32C14.0166 15.91 13.7431 16.0928 13.6271 16.373C13.511 16.6533 13.5751 16.9759 13.7896 17.1904L16.9796 20.3804C17.1203 20.521 17.311 20.6 17.51 20.6C17.7089 20.6 17.8996 20.521 18.0403 20.3804L21.2303 17.1904C21.4448 16.9759 21.509 16.6533 21.3929 16.373C21.2768 16.0928 21.0033 15.91 20.7 15.91H18.26V3.88Z" fill="#10181B"/>
<path fill-rule="evenodd" clip-rule="evenodd" d="M10.08 16.44C9.85003 15.92 9.53003 15.52 9.12003 15.24H9.13004C8.72004 14.96 8.23002 14.82 7.68002 14.82C6.91002 14.82 6.28003 15.07 5.80003 15.57V11.98H4.11003V21.51H5.43002L5.58003 20.9C6.09003 21.43 6.72003 21.69 7.47003 21.69C8.02003 21.69 8.52003 21.54 8.97003 21.25C9.42003 20.96 9.80003 20.55 10.06 20.02C10.32 19.49 10.42 18.92 10.42 18.37V18.25C10.42 17.56 10.31 16.96 10.08 16.44ZM7.33003 16.1C8.26003 16.1 8.73003 16.8 8.73003 18.2H8.74004V18.3C8.74004 18.98 8.60004 19.5 8.32004 19.87C8.04004 20.24 7.66002 20.42 7.18002 20.42C6.63002 20.42 6.17002 20.22 5.79002 19.82V16.87C5.97002 16.63 6.20004 16.44 6.46004 16.3C6.72004 16.17 7.01003 16.1 7.33003 16.1Z" fill="#10181B"/>
</svg>
