<svg width="24" height="24" viewBox="0 0 24 24" fill="none" xmlns="http://www.w3.org/2000/svg">
<path d="M6.58008 3.89001C6.58008 3.4758 6.24429 3.14001 5.83008 3.14001C5.41586 3.14001 5.08008 3.4758 5.08008 3.89001V15.99H2.63991C2.33657 15.99 2.06309 16.1727 1.947 16.453C1.83092 16.7332 1.89509 17.0558 2.10958 17.2703L5.29958 20.4603C5.59215 20.7529 6.06639 20.7533 6.35941 20.4612L9.55941 17.2711C9.7744 17.0568 9.839 16.7341 9.72305 16.4535C9.6071 16.173 9.33347 15.99 9.02991 15.99H6.58008V3.89001Z" fill="#10181B"/>
<path fill-rule="evenodd" clip-rule="evenodd" d="M14.48 9.64001V6.34001L11.9701 5.62001V3.89001L21.5 6.81001V9.14001L11.9701 12.2V10.43L14.48 9.64001ZM15.8601 6.72001V9.23001L20.3101 7.96001L15.8601 6.72001Z" fill="#10181B"/>
<path fill-rule="evenodd" clip-rule="evenodd" d="M18.25 18.6C17.97 19.01 17.57 19.33 17.05 19.56C16.53 19.79 15.9301 19.9 15.2401 19.9H15.12C14.57 19.9 14.0001 19.8 13.4701 19.54C12.9401 19.28 12.5301 18.9 12.2401 18.45C11.9501 18 11.8 17.5 11.8 16.95C11.8 16.2 12.0601 15.57 12.59 15.06L11.98 14.91V13.59H21.51V15.28H17.92C18.42 15.76 18.67 16.39 18.67 17.16C18.67 17.71 18.5301 18.2 18.25 18.61V18.6ZM15.2901 18.21C16.6901 18.21 17.39 17.74 17.39 16.81C17.39 16.49 17.32 16.2 17.19 15.94C17.05 15.68 16.86 15.45 16.62 15.27H13.67C13.27 15.65 13.07 16.11 13.07 16.66C13.07 17.14 13.25 17.52 13.62 17.8C13.99 18.08 14.51 18.22 15.19 18.22H15.2901V18.21Z" fill="#10181B"/>
</svg>
