<svg width="24" height="24" viewBox="0 0 24 24" fill="none" xmlns="http://www.w3.org/2000/svg">
<path fill-rule="evenodd" clip-rule="evenodd" d="M18.3099 5.71996C18.7199 5.99996 19.0399 6.39996 19.2699 6.91996C19.4999 7.43996 19.6099 8.03996 19.6099 8.72996V8.84996C19.6099 9.39996 19.5099 9.96996 19.2499 10.5C18.9899 11.03 18.6099 11.44 18.1599 11.73C17.7099 12.02 17.2099 12.17 16.6599 12.17C15.9099 12.17 15.2799 11.91 14.7699 11.38L14.6199 11.99H13.2999V2.45996H14.9899V6.04996C15.4699 5.54996 16.0999 5.29996 16.8699 5.29996C17.4199 5.29996 17.9099 5.43996 18.3199 5.71996H18.3099ZM17.9199 8.67996C17.9199 7.27996 17.4499 6.57996 16.5199 6.57996C16.1999 6.57996 15.9099 6.64996 15.6499 6.77996C15.3899 6.91996 15.1599 7.10996 14.9799 7.34996V10.3C15.3599 10.7 15.8199 10.9 16.3699 10.9C16.8499 10.9 17.2299 10.72 17.5099 10.35C17.7899 9.97996 17.9299 9.45996 17.9299 8.77996V8.67996H17.9199Z" fill="#10181B"/>
<path fill-rule="evenodd" clip-rule="evenodd" d="M9.35986 9.48996H6.05986L5.33986 12H3.60986L6.52986 2.46996H8.85986L11.9199 12H10.1499L9.35986 9.48996ZM6.43986 8.10996H8.94986L7.67986 3.65996L6.43986 8.10996Z" fill="#10181B"/>
<path d="M16.0431 14.2571C16.3233 14.141 16.6459 14.2051 16.8604 14.4196L20.0504 17.6096C20.3433 17.9025 20.3433 18.3774 20.0504 18.6703L16.8604 21.8603C16.6459 22.0748 16.3233 22.139 16.0431 22.0229C15.7628 21.9068 15.5801 21.6333 15.5801 21.33V18.89H3.60986C3.19565 18.89 2.85986 18.5542 2.85986 18.14C2.85986 17.7258 3.19565 17.39 3.60986 17.39H15.5801V14.95C15.5801 14.6466 15.7628 14.3731 16.0431 14.2571Z" fill="#10181B"/>
</svg>
