<svg width="16" height="16" viewBox="0 0 16 16" fill="none" xmlns="http://www.w3.org/2000/svg">
<path d="M10.6721 1.43745C10.952 1.32116 11.2743 1.38468 11.489 1.59845L13.619 3.71845C13.7602 3.85899 13.8397 4.04993 13.84 4.24915C13.8402 4.44837 13.7612 4.63949 13.6203 4.78036L11.4903 6.91036C11.2758 7.12486 10.9532 7.18902 10.6729 7.07294C10.3927 6.95685 10.21 6.68337 10.21 6.38003V5H2.41992C2.00571 5 1.66992 4.66421 1.66992 4.25C1.66992 3.83579 2.00571 3.5 2.41992 3.5H10.21V2.13003C10.21 1.827 10.3923 1.55375 10.6721 1.43745Z" fill="#10181B"/>
<path fill-rule="evenodd" clip-rule="evenodd" d="M5.71002 10.3999V12.5899L7.38002 13.0699V14.2199L1.02002 12.2799V10.7299L7.38002 8.68994V9.86994L5.71002 10.3999ZM4.79002 12.3299V10.6599L1.82002 11.4999L4.79002 12.3299Z" fill="#10181B"/>
<path fill-rule="evenodd" clip-rule="evenodd" d="M11.07 9.61994C10.72 9.76994 10.46 9.97994 10.27 10.2599V10.2499C10.08 10.5299 9.99002 10.8499 9.99002 11.2199C9.99002 11.7299 10.16 12.1499 10.49 12.4699H8.22002V13.5999H14.45V12.7199L14.04 12.6199C14.39 12.2799 14.57 11.8599 14.57 11.3599C14.57 10.9999 14.48 10.6599 14.28 10.3599C14.08 10.0599 13.81 9.79994 13.46 9.62994C13.11 9.45994 12.73 9.38994 12.36 9.38994H12.28C11.82 9.38994 11.42 9.46994 11.07 9.61994ZM10.84 11.4599C10.84 10.8299 11.31 10.5199 12.24 10.5199V10.5099H12.31C12.77 10.5099 13.11 10.6099 13.36 10.7899C13.61 10.9799 13.73 11.2299 13.73 11.5499C13.73 11.9199 13.6 12.2299 13.33 12.4799H11.36C11.2 12.3599 11.07 12.2199 10.98 12.0399C10.89 11.8699 10.84 11.6699 10.84 11.4599Z" fill="#10181B"/>
</svg>
