<svg width="16" height="16" viewBox="0 0 16 16" fill="none" xmlns="http://www.w3.org/2000/svg">
<path fill-rule="evenodd" clip-rule="evenodd" d="M5.56998 3.76997C5.84998 3.95997 6.05998 4.21997 6.20998 4.56997C6.35998 4.91997 6.43998 5.31997 6.43998 5.77997V5.85997C6.43998 6.22997 6.36997 6.60997 6.19997 6.95997C6.02997 7.30997 5.76998 7.57997 5.46998 7.77997C5.16998 7.97997 4.82998 8.06997 4.46998 8.06997C3.96998 8.06997 3.54998 7.88997 3.20998 7.53997L3.10998 7.94997H2.22998V1.58997H3.35998V3.97997C3.67998 3.64997 4.09998 3.47997 4.60998 3.47997C4.97998 3.47997 5.29998 3.56997 5.57998 3.75997L5.56998 3.76997ZM5.30997 5.73997C5.30997 4.80997 4.99998 4.33997 4.36998 4.33997C4.15998 4.33997 3.95998 4.38997 3.78998 4.47997C3.60998 4.56997 3.46998 4.69997 3.34998 4.85997V6.82997C3.59998 7.09997 3.90998 7.22997 4.27998 7.22997C4.59998 7.22997 4.84998 7.10997 5.03998 6.85997C5.21998 6.60997 5.31998 6.26997 5.31998 5.80997V5.73997H5.30997Z" fill="#10181B"/>
<path fill-rule="evenodd" clip-rule="evenodd" d="M11.1 6.28997H8.90998L8.42998 7.95997H7.27998L9.21998 1.59997H10.77L12.81 7.95997H11.63L11.1 6.28997ZM9.16998 5.36997H10.84L9.99998 2.39997L9.16998 5.36997Z" fill="#10181B"/>
<path d="M4.60695 9.22703C4.88721 9.34312 5.06994 9.6166 5.06994 9.91994V11.3H12.8199C13.2341 11.3 13.5699 11.6358 13.5699 12.05C13.5699 12.4643 13.2341 12.8 12.8199 12.8H5.06994V14.1799C5.06994 14.4833 4.88721 14.7568 4.60695 14.8729C4.3267 14.9889 4.00411 14.9248 3.78961 14.7103L1.65961 12.5803C1.36672 12.2874 1.36672 11.8125 1.65961 11.5196L3.78961 9.38961C4.00411 9.17512 4.32669 9.11095 4.60695 9.22703Z" fill="#10181B"/>
</svg>
