<svg width="24" height="24" viewBox="0 0 24 24" fill="none" xmlns="http://www.w3.org/2000/svg">
<path d="M18.46 2.84998H16.96V3.84998H9.76002C7.18663 3.84998 5.02002 5.83609 5.02002 8.36998V8.43998C5.02002 9.61062 5.48049 10.6647 6.23098 11.46H1.97998V12.96H9.74762C9.75175 12.96 9.75589 12.96 9.76002 12.96L21.47 12.96V11.46H9.7495C7.91931 11.4547 6.52002 10.0642 6.52002 8.43998V8.36998C6.52002 6.74386 7.93342 5.34998 9.76002 5.34998H16.96V8.34998H18.46V2.84998Z" fill="#10181B"/>
<path d="M18.0406 13.9297L18.2655 14.6452C18.3975 15.0651 18.47 15.5108 18.47 15.9701C18.47 18.4942 16.3132 20.4701 13.75 20.4701H6.48999V21.47H4.98999V15.97H6.48999V18.9701H13.75C15.5668 18.9701 16.97 17.586 16.97 15.9701C16.97 15.6693 16.9225 15.375 16.8345 15.0949L16.6096 14.3794L18.0406 13.9297Z" fill="#10181B"/>
</svg>
