<svg width="16" height="16" viewBox="0 0 16 16" fill="none" xmlns="http://www.w3.org/2000/svg">
<path fill-rule="evenodd" clip-rule="evenodd" d="M2.90002 0.900024H9.10262C11.1415 0.900024 12.7984 2.55691 12.7984 4.59582C12.7984 5.53357 12.4479 6.3905 11.871 7.0426C12.9267 7.866 13.6068 9.14988 13.6068 10.5958C13.6068 13.0871 11.5939 15.1 9.10262 15.1H2.90002V0.900024ZM5.10002 6.09155V3.10002H9.10262C9.92651 3.10002 10.5984 3.77194 10.5984 4.59582C10.5984 5.41499 9.93419 6.08392 9.11677 6.09155H5.10002ZM5.10002 8.29155L9.10262 8.29162L9.11647 8.29159C10.3806 8.29904 11.4068 9.32565 11.4068 10.5958C11.4068 11.8721 10.3789 12.9 9.10262 12.9H5.10002V8.29155Z" fill="#10181B"/>
</svg>
