<svg width="16" height="16" viewBox="0 0 16 16" fill="none" xmlns="http://www.w3.org/2000/svg">
<path d="M13.25 1.25H11.75V1.95093H6.92759C5.01214 1.95093 3.38086 3.43162 3.38086 5.34345V5.39252C3.38086 6.09996 3.60336 6.74861 3.98125 7.28503H1.25V8.78503H6.92027C6.92271 8.78504 6.92515 8.78504 6.92759 8.78504L15.3598 8.78503V7.28503H6.92182C5.75032 7.28213 4.88086 6.39611 4.88086 5.39252V5.34345C4.88086 4.33939 5.75893 3.45093 6.92759 3.45093H11.75V5.55374H13.25V1.25Z" fill="#10181B"/>
<path d="M12.8785 8.95911L13.1034 9.6746C13.2025 9.98982 13.2571 10.3249 13.2571 10.6705C13.2571 12.5755 11.6326 14.049 9.72435 14.049H4.85986V14.75H3.35986V10.4463H4.85986V12.549H9.72435C10.8862 12.549 11.7571 11.6673 11.7571 10.6705C11.7571 10.4834 11.7275 10.2998 11.6724 10.1243L11.4475 9.40885L12.8785 8.95911Z" fill="#10181B"/>
</svg>
