<svg width="24" height="24" viewBox="0 0 24 24" fill="none" xmlns="http://www.w3.org/2000/svg">
<path d="M4.6921 10.1773L8.25936 5.3752L7.05524 4.48071L3.9886 8.60887L2.534 7.24997L1.51001 8.34607L3.57805 10.2781C3.73411 10.4239 3.94493 10.4962 4.15763 10.477C4.37034 10.4577 4.56475 10.3487 4.6921 10.1773Z" fill="#10181B"/>
<path d="M9.35986 4.73999H21.8999V6.23999H9.35986V4.73999Z" fill="#10181B"/>
<path d="M9.35986 10.71H21.8999V12.21H9.35986V10.71Z" fill="#10181B"/>
<path d="M21.8999 16.67H9.35986V18.17H21.8999V16.67Z" fill="#10181B"/>
<path d="M8.23907 13.3336L4.68275 18.1363C4.55607 18.3074 4.36265 18.4166 4.15071 18.4366C3.93877 18.4567 3.7283 18.3858 3.57175 18.2415L1.49023 16.3232L2.50676 15.2202L3.9742 16.5726L7.03359 12.4409L8.23907 13.3336Z" fill="#10181B"/>
</svg>
