<svg width="24" height="24" viewBox="0 0 24 24" fill="none" xmlns="http://www.w3.org/2000/svg">
<path d="M16.273 2.05711C16.5533 1.94103 16.8759 2.00519 17.0904 2.21969L20.2804 5.40969C20.421 5.55034 20.5001 5.74111 20.5001 5.94002C20.5001 6.13893 20.421 6.3297 20.2804 6.47035L17.0904 9.66035C16.8759 9.87485 16.5533 9.93902 16.273 9.82293C15.9928 9.70685 15.8101 9.43337 15.8101 9.13002V6.68994H3.75C3.33579 6.68994 3 6.35416 3 5.93994C3 5.52573 3.33579 5.18994 3.75 5.18994H15.8101V2.75002C15.8101 2.44668 15.9928 2.1732 16.273 2.05711Z" fill="#10181B"/>
<path fill-rule="evenodd" clip-rule="evenodd" d="M8.67991 15.15V18.45L11.1899 19.17V20.9L1.65991 17.98V15.65L11.1899 12.59V14.36L8.67991 15.15ZM7.29991 18.07V15.56L2.84991 16.83L7.29991 18.07Z" fill="#10181B"/>
<path fill-rule="evenodd" clip-rule="evenodd" d="M16.7299 13.99C16.2099 14.22 15.8099 14.54 15.5299 14.95L15.5199 14.94C15.2399 15.35 15.0999 15.84 15.0999 16.39C15.0999 17.16 15.3499 17.79 15.8499 18.27H12.4499V19.96H21.7999V18.64L21.1899 18.49C21.7199 17.98 21.9799 17.35 21.9799 16.6C21.9799 16.05 21.8299 15.55 21.5399 15.1C21.2499 14.65 20.8399 14.27 20.3099 14.01C19.7799 13.75 19.2099 13.65 18.6599 13.65H18.5399C17.8499 13.65 17.2499 13.76 16.7299 13.99ZM16.3899 16.74C16.3899 15.81 17.0899 15.34 18.4899 15.34V15.33H18.5899C19.2699 15.33 19.7899 15.47 20.1599 15.75C20.5299 16.03 20.7099 16.41 20.7099 16.89C20.7099 17.44 20.5099 17.9 20.1099 18.28H17.1599C16.9199 18.1 16.7299 17.87 16.5899 17.61C16.4599 17.35 16.3899 17.06 16.3899 16.74Z" fill="#10181B"/>
</svg>
