<svg width="16" height="16" viewBox="0 0 16 16" fill="none" xmlns="http://www.w3.org/2000/svg">
<path fill-rule="evenodd" clip-rule="evenodd" d="M4.75 2.25H7.25V1.5H8.75V2.25H11.25V1.5H12.75V2.25H14.75V8H13.25V7.75H2.75V13.25H5.5V14.75H1.25V2.25H3.25V1.5H4.75V2.25ZM11.25 3.75V4.7H12.75V3.75H13.25V6.25H2.75V3.75H3.25V4.7H4.75V3.75H7.25V4.7H8.75V3.75H11.25Z" fill="#10181B"/>
<path d="M9.65374 11.7928C8.88311 11.7928 8.25734 11.167 8.25734 10.3964C8.25734 9.62577 8.88311 9 9.65374 9C10.4244 9 11.0501 9.62577 11.0501 10.3964C11.0501 11.167 10.4244 11.7928 9.65374 11.7928Z" fill="#10181B"/>
<path d="M7.28391 14.5098H11.9888C12.1452 14.5098 12.2727 14.3823 12.2727 14.2259C12.2727 13.2756 11.5021 12.4992 10.546 12.4992H8.72666C7.77642 12.4992 7 13.2698 7 14.2259C7 14.3823 7.12747 14.5098 7.28391 14.5098Z" fill="#10181B"/>
<path d="M13.0143 11.7928C12.2437 11.7928 11.618 11.167 11.618 10.3964C11.618 9.62577 12.2437 9 13.0143 9C13.785 9 14.4107 9.62577 14.4107 10.3964C14.4107 11.167 13.785 11.7928 13.0143 11.7928Z" fill="#10181B"/>
<path d="M13.5184 14.5098H14.8974C15.0539 14.5098 15.1814 14.3823 15.1814 14.2259C15.1814 13.2756 14.4107 12.4992 13.4547 12.4992H12.7652C12.6319 12.4992 12.545 12.5572 12.5218 12.6904C12.5045 12.7947 12.574 12.9106 12.6609 13.0497C12.6609 13.0497 12.6652 13.0575 12.674 13.0711C12.7037 13.1163 12.7847 13.2397 12.9274 13.5074C13.1418 13.913 13.2345 14.2259 13.2345 14.2259C13.2925 14.3939 13.362 14.5098 13.5184 14.5098Z" fill="#10181B"/>
</svg>
