<svg width="24" height="24" viewBox="0 0 24 24" fill="none" xmlns="http://www.w3.org/2000/svg">
<path d="M4.74958 11.7148C4.89621 7.28848 8.53521 3.75 12.99 3.75C17.4417 3.75 21.24 7.45015 21.24 12C21.24 16.5558 17.5458 20.25 12.99 20.25C10.8178 20.25 8.83842 19.4075 7.36124 18.0313L6.8125 17.52L5.78999 18.6175L6.33873 19.1287C8.08156 20.7525 10.4222 21.75 12.99 21.75C18.3742 21.75 22.74 17.3842 22.74 12C22.74 6.60985 18.2582 2.25 12.99 2.25C7.72476 2.25 3.42377 6.43152 3.2504 11.6652L3.23103 12.25H0.189331L2.76255 14.8233C3.44597 15.5067 4.55401 15.5067 5.23743 14.8233L7.81065 12.25H4.73185L4.74958 11.7148Z" fill="#10181B"/>
<path d="M13.75 6H12.25V12.3107L15.9697 16.0303L17.0303 14.9697L13.75 11.6893V6Z" fill="#10181B"/>
</svg>
