<svg width="24" height="24" viewBox="0 0 24 24" fill="none" xmlns="http://www.w3.org/2000/svg">
<path fill-rule="evenodd" clip-rule="evenodd" d="M6.75 3.25H11.25V2H12.75V3.25H17.25V2H18.75V3.25H21.75V10.3889H20.25V9.75H3.75V20.25H5.5V21.75H2.25V3.25H5.25V2H6.75V3.25ZM17.25 4.75V6H18.75V4.75H20.25V8.25H3.75V4.75H5.25V6H6.75V4.75H11.25V6H12.75V4.75H17.25Z" fill="#10181B"/>
<path d="M12.5799 16.82C11.2499 16.82 10.1699 15.74 10.1699 14.41C10.1699 13.08 11.2499 12 12.5799 12C13.9099 12 14.9899 13.08 14.9899 14.41C14.9899 15.74 13.9099 16.82 12.5799 16.82Z" fill="#10181B"/>
<path d="M8.48999 21.5096H16.61C16.88 21.5096 17.1 21.2896 17.1 21.0196C17.1 19.3796 15.77 18.0396 14.12 18.0396H10.98C9.34 18.0396 8 19.3696 8 21.0196C8 21.2896 8.21999 21.5096 8.48999 21.5096Z" fill="#10181B"/>
<path d="M18.38 16.82C17.05 16.82 15.97 15.74 15.97 14.41C15.97 13.08 17.05 12 18.38 12C19.71 12 20.79 13.08 20.79 14.41C20.79 15.74 19.71 16.82 18.38 16.82Z" fill="#10181B"/>
<path d="M19.25 21.5096H21.63C21.9 21.5096 22.12 21.2896 22.12 21.0196C22.12 19.3796 20.79 18.0396 19.14 18.0396H17.95C17.72 18.0396 17.57 18.1396 17.53 18.3696C17.5 18.5496 17.62 18.7495 17.77 18.9895C17.77 18.9918 17.7774 19.0031 17.7927 19.0265C17.8439 19.1046 17.9836 19.3176 18.23 19.7796C18.6 20.4796 18.76 21.0196 18.76 21.0196C18.86 21.3096 18.98 21.5096 19.25 21.5096Z" fill="#10181B"/>
</svg>
