<svg width="16" height="16" viewBox="0 0 16 16" fill="none" xmlns="http://www.w3.org/2000/svg">
<path d="M0.189331 8.25003H2.2517C2.38121 4.91105 5.13242 2.25 8.49694 2.25C11.8765 2.25 14.75 5.04224 14.75 8.5C14.75 11.9518 11.9497 14.75 8.49694 14.75C6.85015 14.75 5.34882 14.1104 4.23153 13.07L3.68265 12.5589L4.70485 11.4611L5.25374 11.9722C6.10532 12.7652 7.24546 13.25 8.49694 13.25C11.122 13.25 13.25 11.1226 13.25 8.5C13.25 5.88331 11.0607 3.75 8.49694 3.75C5.95887 3.75 3.88102 5.74238 3.75318 8.25003H5.81065L4.23743 9.82325C3.55401 10.5067 2.44597 10.5067 1.76255 9.82325L0.189331 8.25003Z" fill="#10181B"/>
<path d="M8.74998 5H7.24998V9.07841L9.44383 11.5032L10.5561 10.4968L8.74998 8.50054V5Z" fill="#10181B"/>
</svg>
