<svg width="24" height="24" viewBox="0 0 24 24" fill="none" xmlns="http://www.w3.org/2000/svg">
<path d="M11.1199 7.56995C11.1199 8.32658 10.5065 8.93995 9.74988 8.93995C8.99325 8.93995 8.37988 8.32658 8.37988 7.56995C8.37988 6.81332 8.99325 6.19995 9.74988 6.19995C10.5065 6.19995 11.1199 6.81332 11.1199 7.56995Z" fill="#10181B"/>
<path d="M14.7699 8.93995C15.5265 8.93995 16.1399 8.32658 16.1399 7.56995C16.1399 6.81332 15.5265 6.19995 14.7699 6.19995C14.0133 6.19995 13.3999 6.81332 13.3999 7.56995C13.3999 8.32658 14.0133 8.93995 14.7699 8.93995Z" fill="#10181B"/>
<path d="M17.5199 12.78C18.2765 12.78 18.8899 12.1667 18.8899 11.41C18.8899 10.6534 18.2765 10.04 17.5199 10.04C16.7633 10.04 16.1499 10.6534 16.1499 11.41C16.1499 12.1667 16.7633 12.78 17.5199 12.78Z" fill="#10181B"/>
<path d="M6.78992 12.78C7.54655 12.78 8.15991 12.1667 8.15991 11.41C8.15991 10.6534 7.54655 10.04 6.78992 10.04C6.03329 10.04 5.41992 10.6534 5.41992 11.41C5.41992 12.1667 6.03329 12.78 6.78992 12.78Z" fill="#10181B"/>
<path fill-rule="evenodd" clip-rule="evenodd" d="M12.62 2.25C9.61654 2.25 7.01516 3.13089 5.15695 4.84204C3.29079 6.5605 2.25 9.04718 2.25 12.1C2.25 18.3437 7.21676 21.1095 9.87162 21.9175C11.1379 22.3029 11.935 22.4112 12.4721 22.2923C12.7862 22.2227 13.0291 22.073 13.2013 21.8605C13.277 21.767 13.3243 21.6789 13.3491 21.6308L13.3553 21.6188L13.3577 21.6155C13.4694 21.4532 13.5461 21.2534 13.5455 21.0247C13.545 20.8113 13.4768 20.6385 13.4194 20.5239C13.3636 20.4125 13.2941 20.311 13.2452 20.2408L13.1968 20.1717C13.1609 20.1206 13.1289 20.075 13.0927 20.02C12.9226 19.7617 12.71 19.3703 12.71 18.61C12.71 17.9922 13.3954 17.04 14.97 17.04C15.8234 17.04 17.5043 16.8962 19.0315 16.1471C20.599 15.3782 22.0305 13.9478 22.1689 11.4515C22.4337 6.67337 18.752 2.25 12.62 2.25ZM3.75 12.1C3.75 9.40282 4.6592 7.3395 6.17305 5.94546C7.69483 4.54411 9.90345 3.75 12.62 3.75C17.928 3.75 20.8863 7.48663 20.6712 11.3685C20.5695 13.2022 19.571 14.2118 18.371 14.8004C17.1307 15.4088 15.7066 15.54 14.97 15.54C12.8246 15.54 11.21 16.9278 11.21 18.61C11.21 19.7074 11.5351 20.3782 11.8299 20.8298C11.5534 20.8042 11.0818 20.7179 10.3084 20.4825C7.90324 19.7505 3.75 17.3563 3.75 12.1Z" fill="#10181B"/>
</svg>
