<svg width="16" height="16" viewBox="0 0 16 16" fill="none" xmlns="http://www.w3.org/2000/svg">
<path d="M7.56289 4.84932C7.56289 5.32108 7.18045 5.70352 6.70869 5.70352C6.23693 5.70352 5.85449 5.32108 5.85449 4.84932C5.85449 4.37756 6.23693 3.99512 6.70869 3.99512C7.18045 3.99512 7.56289 4.37756 7.56289 4.84932Z" fill="#10181B"/>
<path d="M9.83857 5.70352C10.3103 5.70352 10.6928 5.32108 10.6928 4.84932C10.6928 4.37756 10.3103 3.99512 9.83857 3.99512C9.36681 3.99512 8.98438 4.37756 8.98438 4.84932C8.98438 5.32108 9.36681 5.70352 9.83857 5.70352Z" fill="#10181B"/>
<path d="M11.5532 8.09781C12.0249 8.09781 12.4074 7.71537 12.4074 7.24361C12.4074 6.77184 12.0249 6.3894 11.5532 6.3894C11.0814 6.3894 10.699 6.77184 10.699 7.24361C10.699 7.71537 11.0814 8.09781 11.5532 8.09781Z" fill="#10181B"/>
<path d="M4.86299 8.09781C5.33475 8.09781 5.71719 7.71537 5.71719 7.24361C5.71719 6.77184 5.33475 6.3894 4.86299 6.3894C4.39122 6.3894 4.00879 6.77184 4.00879 7.24361C4.00879 7.71537 4.39122 8.09781 4.86299 8.09781Z" fill="#10181B"/>
<path fill-rule="evenodd" clip-rule="evenodd" d="M8.49811 1.25C6.57143 1.25 4.87552 1.81557 3.65359 2.9408C2.42371 4.07334 1.75 5.70349 1.75 7.67389C1.75 11.7528 4.99994 13.5472 6.70227 14.0653C7.4923 14.3057 8.05313 14.3961 8.46693 14.3045C8.71941 14.2486 8.92887 14.1239 9.07995 13.9373C9.14086 13.8621 9.17961 13.7919 9.19956 13.7538C9.29206 13.6147 9.35805 13.4397 9.35754 13.2378C9.35705 13.0446 9.29539 12.8923 9.24896 12.7997C9.20418 12.7103 9.15026 12.6324 9.11977 12.5885L9.08655 12.5411C9.06546 12.5111 9.0488 12.4874 9.02866 12.4568C8.94659 12.3321 8.83661 12.1412 8.83661 11.7329C8.83661 11.5481 9.08907 11.0364 9.96335 11.0364C10.5174 11.0364 11.6138 10.9444 12.6201 10.4508C13.6666 9.93747 14.6406 8.96639 14.7338 7.28518C14.9083 4.13727 12.4766 1.25 8.49811 1.25ZM3.25 7.67389C3.25 6.05914 3.79212 4.85234 4.66969 4.04423C5.55519 3.2288 6.85834 2.75 8.49811 2.75C11.6525 2.75 13.3609 4.95053 13.2361 7.20217C13.1797 8.22073 12.6386 8.771 11.9595 9.10408C11.2402 9.4569 10.4007 9.53637 9.96335 9.53637C8.51819 9.53637 7.33661 10.4837 7.33661 11.7329C7.33661 12.1422 7.40367 12.4684 7.49835 12.732C7.39284 12.7047 7.27358 12.6712 7.13901 12.6303C5.68642 12.1882 3.25 10.7653 3.25 7.67389Z" fill="#10181B"/>
</svg>
