<svg width="24" height="24" viewBox="0 0 24 24" fill="none" xmlns="http://www.w3.org/2000/svg">
<path d="M6.95537 15.0455C6.96304 15.0537 6.97092 15.0616 6.97898 15.0694L10.1485 18.1304L11.1905 17.0515L9.35619 15.2799H14.3238L12.4895 17.0515L13.5315 18.1304L16.701 15.0694C16.8475 14.9279 16.9302 14.7329 16.93 14.5292C16.9298 14.3255 16.8467 14.1306 16.6999 13.9894L13.5294 10.9395L12.4895 12.0205L14.3185 13.7799H9.36147L11.1905 12.0205L10.1506 10.9395L6.98106 13.9884C6.83866 14.1249 6.75 14.3171 6.75 14.5299C6.75 14.7296 6.82807 14.9111 6.95537 15.0455Z" fill="#10181B"/>
<path fill-rule="evenodd" clip-rule="evenodd" d="M3.80957 2H12.9167L20 8.875V22H3.80957V2ZM5.30957 3.5H12.3085L12.381 3.5704V9.61905H18.5V20.5H5.30957V3.5Z" fill="#10181B"/>
</svg>
