<svg width="16" height="16" viewBox="0 0 16 16" fill="none" xmlns="http://www.w3.org/2000/svg">
<path fill-rule="evenodd" clip-rule="evenodd" d="M10.3412 8.83715C10.8122 8.91969 11.0623 9.21131 10.9867 9.60747C10.8995 10.0862 10.5273 10.2292 10.0156 10.1467C9.64348 10.0862 9.14923 9.86608 8.64917 9.58546C8.13166 9.72302 7.6316 9.9211 7.1548 10.1357C6.98617 10.6859 6.37563 12.5402 5.27084 11.8469C4.87544 11.5993 4.93358 11.1261 5.31154 10.7299C5.59646 10.4053 6.10234 10.0807 6.70125 9.78354C6.82917 9.29934 6.93965 8.82065 6.9978 8.33645C6.50936 7.87976 6.13141 7.41207 5.98023 7.02691C5.82323 6.57022 5.97441 6.20157 6.43959 6.05301C6.92802 5.88794 7.27109 6.11904 7.45716 6.59774C7.59671 6.96639 7.61415 7.52211 7.56182 8.13837C7.92233 8.4575 8.31773 8.76012 8.73057 9.01873C9.37019 8.85916 9.95166 8.76562 10.3412 8.83715ZM10.4459 9.51943C10.4882 9.22919 9.70325 9.33946 9.45582 9.37421C9.43119 9.37767 9.41189 9.38038 9.39926 9.38188C9.55044 9.45891 10.3819 9.83856 10.4459 9.51943ZM8.07351 9.21681L8.03862 9.19206C7.84159 9.05229 7.65032 8.91662 7.4746 8.77113C7.44932 8.89073 7.42811 9.00649 7.40704 9.12149C7.3845 9.24454 7.3621 9.3668 7.33505 9.49192C7.57345 9.38188 7.82348 9.29384 8.07351 9.21681ZM7.03268 7.64867C7.03268 7.43958 7.03269 6.39965 6.6024 6.53721C6.15566 6.67446 6.89564 7.49644 7.03178 7.64767L7.03268 7.64867ZM5.61972 11.4562C5.92789 11.7038 6.39307 10.6639 6.45122 10.4988C6.27678 10.5979 5.30572 11.1976 5.61972 11.4562Z" fill="#10181B"/>
<path fill-rule="evenodd" clip-rule="evenodd" d="M2.5 1H8.875L13.8333 5.8125V15H2.5V1ZM4 2.5H8.26675L8.50006 2.72645V6.33341H12.2163L12.3333 6.44698V13.5H4V2.5Z" fill="#10181B"/>
</svg>
