<svg width="16" height="16" viewBox="0 0 16 16" fill="none" xmlns="http://www.w3.org/2000/svg">
<g clip-path="url(#clip0_44_48073)">
<path d="M1 2H14.5V3.5H1V2Z" fill="#10181B"/>
<path d="M9.78997 7.84009H5.71997V9.34009H9.78997V7.84009Z" fill="#10181B"/>
<path fill-rule="evenodd" clip-rule="evenodd" d="M2.37988 5.67993C2.37988 5.26572 2.71567 4.92993 3.12988 4.92993H12.3999C12.8141 4.92993 13.1499 5.26572 13.1499 5.67993V11.0099C13.1499 11.6483 12.9923 12.2853 12.5628 12.7707C12.1198 13.2714 11.4864 13.4999 10.7699 13.4999H4.75988C4.04667 13.4999 3.41246 13.2759 2.96795 12.7756C2.53677 12.2902 2.37988 11.6518 2.37988 11.0099V5.67993ZM10.7699 11.9999C11.1634 11.9999 11.3449 11.8835 11.4394 11.7767C11.5475 11.6546 11.6499 11.4216 11.6499 11.0099V6.42993H3.87988V11.0099C3.87988 11.4281 3.98299 11.6596 4.08932 11.7793C4.18231 11.884 4.36309 11.9999 4.75988 11.9999H10.7699Z" fill="#10181B"/>
</g>
<defs>
<clipPath id="clip0_44_48073">
<rect width="13.5" height="11.5" fill="white" transform="translate(1 2)"/>
</clipPath>
</defs>
</svg>
