<svg width="16" height="16" viewBox="0 0 16 16" fill="none" xmlns="http://www.w3.org/2000/svg">
<path fill-rule="evenodd" clip-rule="evenodd" d="M5.5 7.25C5.08579 7.25 4.75 7.58579 4.75 8V11.92C4.75 12.3342 5.08579 12.67 5.5 12.67H10.73C11.1442 12.67 11.48 12.3342 11.48 11.92V8C11.48 7.58579 11.1442 7.25 10.73 7.25H5.5ZM6.25 11.17V8.75H7.25V11.17H6.25ZM8.75 11.17H9.98V8.75H8.75V11.17Z" fill="#10181B"/>
<path fill-rule="evenodd" clip-rule="evenodd" d="M2.5 1H8.875L13.8333 5.8125V15H2.5V1ZM4 2.5H8.26675L8.50006 2.72645V6.33341H12.2163L12.3333 6.44698V13.5H4V2.5Z" fill="#10181B"/>
</svg>
