<svg width="24" height="24" viewBox="0 0 24 24" fill="none" xmlns="http://www.w3.org/2000/svg">
<path d="M14.0204 5.73033C15.3275 4.42322 17.4326 4.42322 18.7397 5.73033C20.0468 7.03744 20.0468 9.14256 18.7397 10.4497L12.0097 17.1797C11.5026 17.6868 10.6875 17.6868 10.1804 17.1797C9.67328 16.6726 9.67328 15.8574 10.1804 15.3503L14.9404 10.5903C15.2333 10.2974 15.2333 9.82256 14.9404 9.52967C14.6475 9.23678 14.1726 9.23678 13.8797 9.52967L9.11973 14.2897C8.02684 15.3826 8.02684 17.1474 9.11973 18.2403C10.2126 19.3332 11.9775 19.3332 13.0704 18.2403L19.8004 11.5103C21.6933 9.61744 21.6933 6.56256 19.8004 4.66967C17.9075 2.77678 14.8526 2.77678 12.9597 4.66967L4.94661 12.6828C4.94429 12.6851 4.94197 12.6873 4.93967 12.6896C4.93328 12.696 4.92691 12.7024 4.92056 12.7088L4.77973 12.8497C4.74946 12.8799 4.72233 12.9121 4.69832 12.9459C2.68988 15.211 2.77033 18.671 4.93967 20.8403C5.23256 21.1332 5.70744 21.1332 6.00033 20.8403C6.29322 20.5474 6.29322 20.0725 6.00033 19.7796C4.33869 18.118 4.33324 15.4351 5.98399 13.7667L14.0204 5.73033Z" fill="#10181B"/>
</svg>
