<svg width="16" height="16" viewBox="0 0 16 16" fill="none" xmlns="http://www.w3.org/2000/svg">
<path d="M6.95059 7.38591C6.72153 7.2253 6.42211 7.20553 6.17392 7.33463C5.92573 7.46374 5.77002 7.72024 5.77002 8V11.65C5.77002 11.9294 5.92534 12.1857 6.17306 12.3149C6.42078 12.4442 6.71982 12.425 6.94901 12.2652L9.55901 10.4452C9.75987 10.3051 9.8797 10.0758 9.88002 9.83097C9.88033 9.5861 9.76109 9.35649 9.56059 9.21591L6.95059 7.38591Z" fill="#10181B"/>
<path fill-rule="evenodd" clip-rule="evenodd" d="M2.5 1H8.875L13.8333 5.8125V15H2.5V1ZM4 2.5H8.26675L8.50006 2.72645V6.33341H12.2163L12.3333 6.44698V13.5H4V2.5Z" fill="#10181B"/>
</svg>
