<svg width="16" height="16" viewBox="0 0 16 16" fill="none" xmlns="http://www.w3.org/2000/svg">
<path d="M9.74032 4.31033C10.486 3.56462 11.7031 3.56099 12.4622 4.31286C13.2109 5.05445 13.2122 6.26866 12.4582 7.0311L12.4571 7.03221L8.05966 11.4297C7.83255 11.6568 7.45742 11.6568 7.23032 11.4297C7.00321 11.2026 7.00321 10.8274 7.23032 10.6003L10.3403 7.49033C10.6332 7.19744 10.6332 6.72256 10.3403 6.42967C10.0474 6.13678 9.57255 6.13678 9.27965 6.42967L6.16965 9.53967C5.35676 10.3526 5.35676 11.6774 6.16965 12.4903C6.98255 13.3032 8.30742 13.3032 9.12032 12.4903L13.5203 8.09033L13.5228 8.08779C14.8477 6.75016 14.8687 4.58519 13.5178 3.24714C12.1769 1.91901 10.0139 1.91538 8.67966 3.24967L3.50764 8.42168C3.4805 8.44226 3.45443 8.46493 3.42967 8.48969C1.85678 10.0626 1.85678 12.6175 3.42967 14.1903C3.72256 14.4832 4.19744 14.4832 4.49033 14.1903C4.78322 13.8975 4.78322 13.4226 4.49033 13.1297C3.54616 12.1855 3.50509 10.6759 4.36712 9.68256C4.37497 9.67535 4.38271 9.66794 4.39032 9.66033L9.74032 4.31033Z" fill="#10181B"/>
</svg>
