<svg width="16" height="16" viewBox="0 0 16 16" fill="none" xmlns="http://www.w3.org/2000/svg">
<path d="M5.77881 5.02002H12.1611V6.52002H5.77881V5.02002Z" fill="#10181B"/>
<path d="M12.1611 7.3501H9.6416V8.8501H12.1611V7.3501Z" fill="#10181B"/>
<path d="M9.6416 9.26001H12.1611V10.76H9.6416V9.26001Z" fill="#10181B"/>
<path d="M5.98999 7.41089H8.42004V10.7683H5.98999V7.41089Z" fill="#10181B"/>
<path fill-rule="evenodd" clip-rule="evenodd" d="M3.25 3C3.25 2.58579 3.58579 2.25 4 2.25H13.85C14.2642 2.25 14.6 2.58579 14.6 3V11.8C14.6 13.031 13.6074 14.04 12.36 14.04H3.48999C2.25905 14.04 1.25 13.0475 1.25 11.8V11.18C1.25 11.1205 1.25693 11.0626 1.27002 11.0071V5.35C1.27002 4.93578 1.60581 4.6 2.02002 4.6H3.25V3ZM4.75 5.47283C4.75658 5.43286 4.76001 5.39183 4.76001 5.35C4.76001 5.30817 4.75658 5.26713 4.75 5.22716V3.75H13.1V11.8C13.1 12.209 12.7725 12.54 12.36 12.54H4.0981C4.49603 12.2217 4.75 11.7317 4.75 11.18V5.47283ZM3.25 6.1H2.77002V11.18C2.77002 11.3158 2.87423 11.42 3.01001 11.42C3.14579 11.42 3.25 11.3158 3.25 11.18V6.1Z" fill="#10181B"/>
</svg>
