<svg width="24" height="24" viewBox="0 0 24 24" fill="none" xmlns="http://www.w3.org/2000/svg">
<path d="M15.5601 11.75H7.56006V10.25H15.5601V11.75Z" fill="#10181B"/>
<path d="M7.56006 15.4099H13.5601V13.9099H7.56006V15.4099Z" fill="#10181B"/>
<path fill-rule="evenodd" clip-rule="evenodd" d="M12.3101 4.1001V2.1001H10.8101V4.1001H7.47998V2.1001H5.97998V4.1001H5.72998C3.65891 4.1001 1.97998 5.77903 1.97998 7.8501V17.8401C1.97998 19.9112 3.65891 21.5901 5.72998 21.5901H17.4C19.4711 21.5901 21.15 19.9112 21.15 17.8401V7.8501C21.15 5.77903 19.4711 4.1001 17.4 4.1001H17.1401V2.1001H15.6401V4.1001H12.3101ZM15.6401 5.6001H12.3101V7.6001H10.8101V5.6001H7.47998V7.6001H5.97998V5.6001H5.72998C4.48734 5.6001 3.47998 6.60746 3.47998 7.8501V17.8401C3.47998 19.0827 4.48734 20.0901 5.72998 20.0901H17.4C18.6427 20.0901 19.65 19.0827 19.65 17.8401V7.8501C19.65 6.60746 18.6427 5.6001 17.4 5.6001H17.1401V7.6001H15.6401V5.6001Z" fill="#10181B"/>
</svg>
