<svg width="16" height="16" viewBox="0 0 16 16" fill="none" xmlns="http://www.w3.org/2000/svg">
<path d="M3.08395 12.0282C3.45533 12.9728 3.84736 13.97 4.42995 13.97H8.86859C9.70503 13.97 10.0469 13.7075 10.1202 13.3045C10.1935 12.9016 10.5354 10.9845 10.6514 10.2274C10.7674 9.47031 10.4987 9.20168 10.1019 9.05515C9.70503 8.90862 6.47527 7.85238 6.47527 7.85238V3.8106C6.47527 2.70552 4.58869 2.75436 4.58869 3.8106V10.319C4.15521 9.32378 3.66067 8.50566 2.81202 8.38966C2.05495 8.28586 2 8.94525 2 8.94525C2 8.94525 2.45791 10.496 2.89139 11.5462C2.95552 11.7015 3.01947 11.8642 3.08395 12.0282Z" fill="#10181B"/>
<path d="M9.11903 4.03046C9.11903 4.36766 8.84568 4.641 8.50849 4.641C8.1713 4.641 7.89795 4.36766 7.89795 4.03046C7.89795 3.69327 8.1713 3.41992 8.50849 3.41992C8.84568 3.41992 9.11903 3.69327 9.11903 4.03046Z" fill="#10181B"/>
<path d="M10.9506 4.641C11.2878 4.641 11.5612 4.36766 11.5612 4.03046C11.5612 3.69327 11.2878 3.41992 10.9506 3.41992C10.6134 3.41992 10.3401 3.69327 10.3401 4.03046C10.3401 4.36766 10.6134 4.641 10.9506 4.641Z" fill="#10181B"/>
<path d="M14.0033 4.03046C14.0033 4.36766 13.73 4.641 13.3928 4.641C13.0556 4.641 12.7822 4.36766 12.7822 4.03046C12.7822 3.69327 13.0556 3.41992 13.3928 3.41992C13.73 3.41992 14.0033 3.69327 14.0033 4.03046Z" fill="#10181B"/>
</svg>
