<svg width="24" height="24" viewBox="0 0 24 24" fill="none" xmlns="http://www.w3.org/2000/svg">
<path d="M10.2502 10.5955C10.0211 10.4352 9.72176 10.4156 9.47371 10.5447C9.22566 10.6739 9.07007 10.9303 9.07007 11.21V16.79C9.07007 17.0692 9.22516 17.3253 9.47259 17.4546C9.72002 17.584 10.0188 17.5652 10.2481 17.4058L14.2481 14.6258C14.4494 14.4859 14.5697 14.2564 14.5701 14.0112C14.5705 13.766 14.451 13.5361 14.2502 13.3955L10.2502 10.5955Z" fill="#10181B"/>
<path fill-rule="evenodd" clip-rule="evenodd" d="M3.80957 2H12.9167L20 8.875V22H3.80957V2ZM5.30957 3.5H12.3085L12.381 3.5704V9.61905H18.5V20.5H5.30957V3.5Z" fill="#10181B"/>
</svg>
