<svg width="24" height="24" viewBox="0 0 24 24" fill="none" xmlns="http://www.w3.org/2000/svg">
<path fill-rule="evenodd" clip-rule="evenodd" d="M16.1858 12.1563C16.9958 12.3063 17.4258 12.8363 17.2958 13.5563C17.1458 14.4263 16.5058 14.6863 15.6258 14.5363C14.9858 14.4263 14.1358 14.0263 13.2758 13.5163C12.3858 13.7663 11.5258 14.1263 10.7058 14.5163C10.4158 15.5163 9.36578 18.8863 7.46578 17.6263C6.78578 17.1763 6.88578 16.3163 7.53578 15.5963C8.02578 15.0063 8.89578 14.4163 9.92578 13.8763C10.1458 12.9963 10.3358 12.1263 10.4358 11.2463C9.59578 10.4163 8.94578 9.56635 8.68578 8.86635C8.41578 8.03635 8.67578 7.36635 9.47578 7.09635C10.3158 6.79635 10.9058 7.21635 11.2258 8.08635C11.4658 8.75635 11.4958 9.76635 11.4058 10.8863C12.0258 11.4663 12.7058 12.0163 13.4158 12.4863C14.5158 12.1963 15.5158 12.0263 16.1858 12.1563ZM16.3658 13.3963C16.4385 12.8688 15.0886 13.0692 14.663 13.1324C14.6207 13.1387 14.5875 13.1436 14.5658 13.1463C14.8258 13.2863 16.2558 13.9763 16.3658 13.3963ZM12.2858 12.8463L12.2258 12.8014C11.8869 12.5474 11.558 12.3008 11.2558 12.0363C11.2123 12.2537 11.1758 12.4641 11.1396 12.6732C11.1008 12.8968 11.0623 13.1189 11.0158 13.3463C11.4258 13.1463 11.8558 12.9863 12.2858 12.8463ZM10.4958 9.99635C10.4958 9.61633 10.4958 7.72635 9.75578 7.97635C8.9875 8.22579 10.2601 9.71966 10.4942 9.99452L10.4958 9.99635ZM8.06578 16.9163C8.59578 17.3663 9.39578 15.4763 9.49578 15.1763C9.19578 15.3563 7.52578 16.4463 8.06578 16.9163Z" fill="#10181B"/>
<path fill-rule="evenodd" clip-rule="evenodd" d="M3.80957 2H12.9167L20 8.875V22H3.80957V2ZM5.30957 3.5H12.3085L12.381 3.5704V9.61905H18.5V20.5H5.30957V3.5Z" fill="#10181B"/>
</svg>
