<svg width="24" height="24" viewBox="0 0 24 24" fill="none" xmlns="http://www.w3.org/2000/svg">
<g clip-path="url(#clip0_44_48068)">
<path d="M1 4H22.48V5.5H1V4Z" fill="#10181B"/>
<path d="M15.01 11.8H8.51001V13.3H15.01V11.8Z" fill="#10181B"/>
<path fill-rule="evenodd" clip-rule="evenodd" d="M3.28003 8.20996C3.28003 7.79575 3.61582 7.45996 4.03003 7.45996H19.47C19.8842 7.45996 20.22 7.79575 20.22 8.20996V17.09C20.22 18.079 19.9746 19.0045 19.3638 19.6901C18.7401 20.3902 17.8345 20.73 16.75 20.73H6.75003C5.66561 20.73 4.75995 20.3902 4.13626 19.6901C3.5255 19.0045 3.28003 18.079 3.28003 17.09V8.20996ZM16.75 19.23C17.5156 19.23 17.97 18.9997 18.2438 18.6923C18.5305 18.3705 18.72 17.8509 18.72 17.09V8.95996H4.78003V17.09C4.78003 17.8509 4.96956 18.3705 5.2563 18.6923C5.5301 18.9997 5.98445 19.23 6.75003 19.23H16.75Z" fill="#10181B"/>
</g>
<defs>
<clipPath id="clip0_44_48068">
<rect width="21.48" height="16.73" fill="white" transform="translate(1 4)"/>
</clipPath>
</defs>
</svg>
