<svg width="24" height="24" viewBox="0 0 24 24" fill="none" xmlns="http://www.w3.org/2000/svg">
<path d="M18.87 7.69067H8.27002V9.19067H18.87V7.69067Z" fill="#10181B"/>
<path d="M14.51 11.2507H18.87V12.7507H14.51V11.2507Z" fill="#10181B"/>
<path d="M18.87 14.1707H14.51V15.6707H18.87V14.1707Z" fill="#10181B"/>
<path d="M12.73 11.4407H9.02002V15.6807H12.73V11.4407Z" fill="#10181B"/>
<path fill-rule="evenodd" clip-rule="evenodd" d="M21.05 3.45068H5.63342L5.63397 7.86915H2.94995C2.53574 7.86915 2.19995 8.20494 2.19995 8.61915V17.6507C2.19995 19.3149 3.55577 20.6707 5.21997 20.6707H18.78C20.4442 20.6707 21.8 19.3149 21.8 17.6507V4.20068C21.8 3.78647 21.4642 3.45068 21.05 3.45068ZM5.63397 9.36915H3.69995V16.068H3.70825C3.70825 16.5897 3.86773 16.9153 4.0469 17.1112C4.23171 17.3132 4.47946 17.4238 4.73174 17.4443C4.98826 17.4651 5.21794 17.3909 5.37217 17.264C5.51176 17.1492 5.63397 16.9565 5.63397 16.6237V9.36915ZM4.36872 18.9081C4.61202 19.0737 4.90525 19.1707 5.21997 19.1707H18.78C19.6158 19.1707 20.3 18.4865 20.3 17.6507V4.95068H7.13397V16.6237C7.13397 17.3826 6.82797 18.0087 6.32523 18.4223C5.83714 18.8239 5.21039 18.988 4.61048 18.9394C4.52985 18.9328 4.44914 18.9224 4.36872 18.9081Z" fill="#10181B"/>
</svg>
