<svg width="16" height="16" viewBox="0 0 16 16" fill="none" xmlns="http://www.w3.org/2000/svg">
<path d="M10.96 8.93994H5.72998V7.43994H10.96V8.93994Z" fill="#10181B"/>
<path d="M9.65997 11.3401H5.72998V9.84009H9.65997V11.3401Z" fill="#10181B"/>
<path fill-rule="evenodd" clip-rule="evenodd" d="M8.22003 1.25C7.34064 1.25 6.58076 1.7982 6.2789 2.58H4.96002C3.46582 2.58 2.25 3.79577 2.25 5.29V12.43C2.25 13.9242 3.46582 15.14 4.96002 15.14H11.4901C12.9843 15.14 14.2 13.9242 14.2 12.43V5.29C14.2 3.7958 12.9843 2.58 11.4901 2.58H10.1594C9.85698 1.80367 9.10015 1.25 8.22003 1.25ZM7.64001 3.33C7.64001 3.00789 7.90055 2.75 8.22003 2.75C8.53583 2.75 8.80005 3.01423 8.80005 3.33C8.80005 3.74421 9.13584 4.08 9.55005 4.08H10.09V4.57008H6.36011V4.08H6.89001C7.30423 4.08 7.64001 3.74421 7.64001 3.33ZM4.86011 4.08411C4.24063 4.13529 3.75 4.65785 3.75 5.29V12.43C3.75 13.0958 4.29422 13.64 4.96002 13.64H11.4901C12.1558 13.64 12.7 13.0958 12.7 12.43V5.29C12.7 4.65783 12.2094 4.13529 11.59 4.08411V5.32008C11.59 5.73429 11.2542 6.07008 10.84 6.07008H5.61011C5.19589 6.07008 4.86011 5.73429 4.86011 5.32008V4.08411Z" fill="#10181B"/>
</svg>
