<svg width="16" height="16" viewBox="0 0 16 16" fill="none" xmlns="http://www.w3.org/2000/svg">
<path d="M7.04639 7.02246H11.493V5.52246H7.04639V7.02246Z" fill="#10181B"/>
<path d="M10.3813 9.05518H7.04639V7.55518H10.3813V9.05518Z" fill="#10181B"/>
<path fill-rule="evenodd" clip-rule="evenodd" d="M9.16167 0.25C8.39189 0.25 7.72593 0.712718 7.43584 1.3807H6.39209C5.05494 1.3807 3.97144 2.47426 3.97144 3.80135V9.87412C3.97144 11.2113 5.065 12.2948 6.39209 12.2948H11.944C13.2811 12.2948 14.3646 11.2012 14.3646 9.87412V3.8077C14.3646 2.50696 13.3298 1.44625 12.0518 1.38945C12.0143 1.38366 11.9761 1.3807 11.9376 1.3807H10.8862C10.5959 0.71594 9.93198 0.25 9.16167 0.25ZM8.78098 2.1307C8.78098 1.91877 8.95063 1.75 9.16167 1.75C9.36999 1.75 9.54239 1.92241 9.54239 2.1307C9.54239 2.54492 9.87818 2.8807 10.2924 2.8807H11.8465C11.8787 2.88491 11.9112 2.88706 11.944 2.88706C12.4463 2.88706 12.8646 3.30269 12.8646 3.8077V9.87412C12.8646 10.3765 12.449 10.7948 11.944 10.7948H6.39209C5.88972 10.7948 5.47144 10.3791 5.47144 9.87412V3.80135C5.47144 3.29898 5.88707 2.8807 6.39209 2.8807H8.03098C8.4452 2.8807 8.78098 2.54492 8.78098 2.1307Z" fill="#10181B"/>
<path d="M2.75 13V5.75415H1.25V13C1.25 13.4125 1.28269 13.9425 1.59458 14.3547C1.95293 14.8284 2.50001 14.94 3 14.94H9.03193V13.44H3C2.89072 13.44 2.82322 13.4308 2.78511 13.4226C2.78248 13.4126 2.77961 13.4005 2.7767 13.3858C2.76063 13.3047 2.75 13.1831 2.75 13Z" fill="#10181B"/>
</svg>
