<svg width="24" height="24" viewBox="0 0 24 24" fill="none" xmlns="http://www.w3.org/2000/svg">
<path d="M10.27 11.01H17.27V9.51001H10.27V11.01Z" fill="#10181B"/>
<path d="M15.52 14.21H10.27V12.71H15.52V14.21Z" fill="#10181B"/>
<path fill-rule="evenodd" clip-rule="evenodd" d="M13.5999 1.20996C12.4671 1.20996 11.502 1.9542 11.1823 2.98996H9.23987C7.95094 2.98996 6.83001 3.71879 6.25994 4.78003H6.23987C4.53564 4.78003 3.1499 6.16583 3.1499 7.87003V18.81C3.1499 20.5142 4.53564 21.9 6.23987 21.9H14.9698C16.504 21.9 17.7801 20.7771 18.0195 19.3097C19.8673 19.2883 21.3599 17.7692 21.3599 15.93V6.37996C21.3599 4.55617 19.9006 3.06873 18.1052 3.00228C18.0609 2.99414 18.0156 2.98996 17.9698 2.98996H16.0162C15.6956 1.96034 14.7331 1.20996 13.5999 1.20996ZM12.5699 3.73996C12.5699 3.1669 13.0313 2.70996 13.5999 2.70996C14.1657 2.70996 14.6299 3.17419 14.6299 3.73996C14.6299 4.15417 14.9657 4.48996 15.3799 4.48996H16.3601V5.66H10.8501V4.48996H11.8199C12.2341 4.48996 12.5699 4.15417 12.5699 3.73996ZM9.3501 4.48996H9.23987C8.20593 4.48996 7.35986 5.34232 7.35986 6.36996V15.93C7.35986 16.9639 8.21222 17.81 9.23987 17.81H17.9799C19.0138 17.81 19.8599 16.9576 19.8599 15.93V6.37996C19.8599 5.34603 19.0075 4.49996 17.9799 4.49996C17.9395 4.49996 17.8995 4.49671 17.8601 4.49034V6.41C17.8601 6.82421 17.5243 7.16 17.1101 7.16H10.1001C9.68588 7.16 9.3501 6.82421 9.3501 6.41V4.48996ZM16.4792 19.31H9.23987C7.38751 19.31 5.85986 17.796 5.85986 15.93V6.36996C5.85986 6.35528 5.85996 6.34062 5.86015 6.32598C5.1667 6.49696 4.6499 7.12502 4.6499 7.87003V18.81C4.6499 19.6858 5.3641 20.4 6.23987 20.4H14.9698C15.6711 20.4 16.2688 19.9421 16.4792 19.31Z" fill="#10181B"/>
</svg>
