<svg width="24" height="24" viewBox="0 0 24 24" fill="none" xmlns="http://www.w3.org/2000/svg">
<path d="M15.77 12.1899H7.77002V10.6899H15.77V12.1899Z" fill="#10181B"/>
<path d="M13.77 15.8501H7.77002V14.3501H13.77V15.8501Z" fill="#10181B"/>
<path fill-rule="evenodd" clip-rule="evenodd" d="M11.5801 1.20996C10.2958 1.20996 9.21796 2.07159 8.89144 3.24996H6.59009C4.52587 3.24996 2.84009 4.93575 2.84009 6.99996V17.91C2.84009 19.9742 4.52587 21.66 6.59009 21.66H16.5801C18.6443 21.66 20.3301 19.9742 20.3301 17.91V6.99996C20.3301 4.93575 18.6443 3.24996 16.5801 3.24996H14.2687C13.9422 2.07161 12.8643 1.20996 11.5801 1.20996ZM10.29 3.99996C10.29 3.28419 10.8643 2.70996 11.5801 2.70996C12.2959 2.70996 12.8701 3.28416 12.8701 3.99996C12.8701 4.41417 13.2058 4.74996 13.6201 4.74996H14.8301V6.29H8.33008V4.74996H9.54004C9.95425 4.74996 10.29 4.41417 10.29 3.99996ZM6.83008 4.74996H6.59009C5.3543 4.74996 4.34009 5.76417 4.34009 6.99996V17.91C4.34009 19.1457 5.3543 20.16 6.59009 20.16H16.5801C17.8159 20.16 18.8301 19.1457 18.8301 17.91V6.99996C18.8301 5.76417 17.8159 4.74996 16.5801 4.74996H16.3301V7.04C16.3301 7.45421 15.9943 7.79 15.5801 7.79H7.58008C7.16586 7.79 6.83008 7.45421 6.83008 7.04V4.74996Z" fill="#10181B"/>
</svg>
