<svg width="24" height="24" viewBox="0 0 24 24" fill="none" xmlns="http://www.w3.org/2000/svg">
<path d="M10.9299 11.18C10.9299 11.8152 10.415 12.33 9.77988 12.33C9.14475 12.33 8.62988 11.8152 8.62988 11.18C8.62988 10.5449 9.14475 10.03 9.77988 10.03C10.415 10.03 10.9299 10.5449 10.9299 11.18Z" fill="#10181B"/>
<path d="M7.32007 18.16C7.32007 18.38 7.32008 18.6 7.72006 18.6H16.5401L16.6291 18.6001C17.0496 18.6013 17.1901 18.6017 17.1901 18.33V14.71C17.1901 14.71 16.2201 13.52 15.7301 13.13C15.2401 12.74 14.8101 12.72 14.3501 13.04C14.092 13.2195 13.6135 13.6289 13.1637 14.0138C12.8119 14.3147 12.4775 14.6008 12.2801 14.75C11.8301 15.09 11.4101 14.99 11.0001 14.72C10.5901 14.45 10.2601 14.26 9.75006 14.72C9.24006 15.18 7.32007 17 7.32007 17V18.16Z" fill="#10181B"/>
<path fill-rule="evenodd" clip-rule="evenodd" d="M3.80957 2H12.9167L20 8.875V22H3.80957V2ZM5.30957 3.5H12.3085L12.381 3.5704V9.61905H18.5V20.5H5.30957V3.5Z" fill="#10181B"/>
</svg>
