<svg width="16" height="16" viewBox="0 0 16 16" fill="none" xmlns="http://www.w3.org/2000/svg">
<path d="M10.1799 8.59009H4.94995V7.09009H10.1799V8.59009Z" fill="#10181B"/>
<path d="M4.94995 10.98H8.86993V9.47998H4.94995V10.98Z" fill="#10181B"/>
<path fill-rule="evenodd" clip-rule="evenodd" d="M8.31006 3.06006V1.75H6.81006V3.06006H5.1499V1.75H3.6499V3.06308C2.19154 3.13102 1.03003 4.3349 1.03003 5.81006V12.2701C1.03003 13.7888 2.26125 15.0201 3.78003 15.0201H11.34C12.8588 15.0201 14.09 13.7888 14.09 12.2701V5.81006C14.09 4.33483 12.9284 3.13092 11.47 3.06307V1.75H9.96997V3.06006H8.31006ZM9.96997 4.56006H8.31006V5.87H6.81006V4.56006H5.1499V5.87H3.6499V4.56675C3.0207 4.63183 2.53003 5.16364 2.53003 5.81006V12.2701C2.53003 12.9604 3.08967 13.5201 3.78003 13.5201H11.34C12.0304 13.5201 12.59 12.9604 12.59 12.2701V5.81006C12.59 5.16358 12.0993 4.63173 11.47 4.56673V5.87H9.96997V4.56006Z" fill="#10181B"/>
</svg>
