<svg width="16" height="16" viewBox="0 0 16 16" fill="none" xmlns="http://www.w3.org/2000/svg">
<path d="M7.16737 6.88159C7.16737 7.36848 6.77268 7.76318 6.28579 7.76318C5.7989 7.76318 5.4042 7.36848 5.4042 6.88159C5.4042 6.3947 5.7989 6 6.28579 6C6.77268 6 7.16737 6.3947 7.16737 6.88159Z" fill="#10181B"/>
<path d="M4.69995 12.1955C4.69995 12.3476 4.69996 12.4998 4.97661 12.4998H11.0771L11.1387 12.4999C11.4296 12.5007 11.5267 12.501 11.5267 12.313V9.80922C11.5267 9.80922 10.8558 8.98614 10.5168 8.71639C10.1779 8.44664 9.88052 8.4328 9.56236 8.65414C9.38384 8.77832 9.05292 9.06145 8.74183 9.32761C8.4985 9.53579 8.2672 9.73368 8.13061 9.83689C7.81936 10.0721 7.52886 10.0029 7.24527 9.81614C6.96169 9.62938 6.73344 9.49797 6.38069 9.81614C6.02794 10.1343 4.69995 11.3931 4.69995 11.3931V12.1955Z" fill="#10181B"/>
<path fill-rule="evenodd" clip-rule="evenodd" d="M2.5 1H8.875L13.8333 5.8125V15H2.5V1ZM4 2.5H8.26675L8.50006 2.72645V6.33341H12.2163L12.3333 6.44698V13.5H4V2.5Z" fill="#10181B"/>
</svg>
