<svg width="24" height="24" viewBox="0 0 24 24" fill="none" xmlns="http://www.w3.org/2000/svg">
<path fill-rule="evenodd" clip-rule="evenodd" d="M7.25 12C7.25 11.5858 7.58579 11.25 8 11.25H16C16.4142 11.25 16.75 11.5858 16.75 12V18C16.75 18.4142 16.4142 18.75 16 18.75H8C7.58579 18.75 7.25 18.4142 7.25 18V12ZM8.75 15.75V17.25H10.33V15.75H8.75ZM8.75 14.25H10.33V12.75H8.75V14.25ZM11.83 15.75V17.25H15.25V15.75H11.83ZM15.25 14.25H11.83V12.75H15.25V14.25Z" fill="#10181B"/>
<path fill-rule="evenodd" clip-rule="evenodd" d="M3.80957 2H12.9167L20 8.875V22H3.80957V2ZM5.30957 3.5H12.3085L12.381 3.5704V9.61905H18.5V20.5H5.30957V3.5Z" fill="#10181B"/>
</svg>
