<svg width="16" height="16" viewBox="0 0 16 16" fill="none" xmlns="http://www.w3.org/2000/svg">
<path d="M8.99609 0.75H2.25V14.75H7.91071V13.25H3.75V2.25H8.38784L8.50006 2.35892V6.33341H12.369V7.5H13.869V5.47964L8.99609 0.75Z" fill="#10181B"/>
<path fill-rule="evenodd" clip-rule="evenodd" d="M10.17 7.25C8.55735 7.25 7.25 8.55732 7.25 10.17C7.25 11.7827 8.55735 13.09 10.17 13.09C11.7827 13.09 13.09 11.7827 13.09 10.17C13.09 8.55733 11.7827 7.25 10.17 7.25ZM8.75 10.17C8.75 9.38576 9.38576 8.75 10.17 8.75C10.9543 8.75 11.59 9.38575 11.59 10.17C11.59 10.9542 10.9543 11.59 10.17 11.59C9.38576 11.59 8.75 10.9542 8.75 10.17Z" fill="#10181B"/>
<path d="M15.0608 14.0001L13.0001 11.9395L11.9395 13.0001L14.0001 15.0608L15.0608 14.0001Z" fill="#10181B"/>
</svg>
