<svg width="24" height="24" viewBox="0 0 24 24" fill="none" xmlns="http://www.w3.org/2000/svg">
<path d="M13.2353 2.25H3.75V21.75H10.75V20.25H5.25V3.75H12.5V10H18.75V12.25H20.25V8.86384L13.2353 2.25Z" fill="#10181B"/>
<path d="M7 12.75H12V11.25H7V12.75Z" fill="#10181B"/>
<path d="M7 16.75H10V15.25H7V16.75Z" fill="#10181B"/>
<path d="M20.0001 19.9395L22.0608 22.0001L21.0001 23.0608L18.9395 21.0001L20.0001 19.9395Z" fill="#10181B"/>
<path fill-rule="evenodd" clip-rule="evenodd" d="M16.1501 13.03C14.0459 13.03 12.3401 14.7358 12.3401 16.84C12.3401 18.9442 14.0459 20.65 16.1501 20.65C18.2543 20.65 19.9601 18.9442 19.9601 16.84C19.9601 14.7358 18.2543 13.03 16.1501 13.03ZM13.8401 16.84C13.8401 15.5643 14.8743 14.53 16.1501 14.53C17.4259 14.53 18.4601 15.5643 18.4601 16.84C18.4601 18.1158 17.4259 19.15 16.1501 19.15C14.8743 19.15 13.8401 18.1158 13.8401 16.84Z" fill="#10181B"/>
</svg>
