<svg width="24" height="24" viewBox="0 0 24 24" fill="none" xmlns="http://www.w3.org/2000/svg">
<path fill-rule="evenodd" clip-rule="evenodd" d="M10.08 4.32767V10.4041L10.4004 10.5091C10.9067 10.6751 11.5886 10.8989 12.2909 11.1303C13.6846 11.5895 15.1885 12.0881 15.5298 12.2141C15.9383 12.3649 16.397 12.6212 16.6872 13.1324C16.9709 13.632 17.0195 14.2452 16.9114 14.9513C16.7195 16.2034 16.1575 19.3538 16.0379 20.0118C15.9413 20.5432 15.6493 21.0107 15.1212 21.3183C14.6316 21.6034 13.9966 21.7177 13.25 21.7177H5.98C5.426 21.7177 4.99194 21.4343 4.67819 21.1144C4.36783 20.798 4.11376 20.3863 3.89977 19.9716C3.59875 19.3883 3.31766 18.6735 3.06063 18.0199C2.95881 17.7609 2.86076 17.5116 2.76674 17.2838C2.40045 16.3965 2.02833 15.3094 1.75048 14.4545C1.61084 14.0249 1.49367 13.6496 1.41135 13.3817C1.37017 13.2476 1.33766 13.1402 1.31538 13.0661L1.28981 12.9807L1.2807 12.9501C1.25441 12.861 1.24488 12.7679 1.25259 12.6754L2 12.7377C1.25259 12.6754 1.2527 12.6741 1.25274 12.6736L1.2529 12.6718L1.25326 12.6678L1.25418 12.6584L1.25686 12.6346C1.25906 12.6165 1.26218 12.5941 1.26656 12.5679C1.27527 12.5158 1.28925 12.4472 1.31161 12.368C1.35539 12.2128 1.43669 11.9974 1.58949 11.7833C1.74606 11.5639 1.97769 11.3467 2.30683 11.2074C2.63492 11.0686 3.01275 11.0272 3.43187 11.0846C4.29499 11.2027 4.96317 11.653 5.49 12.241V4.32767C5.49 3.6432 5.80699 3.10101 6.26596 2.74849C6.70587 2.41061 7.25702 2.25694 7.77529 2.25023C8.29317 2.24353 8.85224 2.38286 9.30079 2.72351C9.77169 3.08113 10.08 3.63384 10.08 4.32767ZM6.99 4.32767C6.99 4.14713 7.05926 4.03057 7.17966 3.93809C7.31913 3.83097 7.54048 3.7534 7.79471 3.7501C8.04933 3.74681 8.26276 3.81872 8.39359 3.91808C8.50206 4.00045 8.58 4.11649 8.58 4.32767V10.9477C8.58 11.2721 8.7895 11.56 9.09783 11.6608L9.93305 11.9344C10.4389 12.1003 11.1201 12.3239 11.8216 12.555C13.2354 13.0208 14.7015 13.5072 15.0102 13.6212C15.2517 13.7104 15.338 13.7941 15.3828 13.873C15.4341 13.9633 15.5105 14.1901 15.4287 14.7241C15.2405 15.952 14.6825 19.0815 14.5621 19.7435C14.5387 19.8722 14.4907 19.9496 14.3663 20.0221C14.2034 20.1169 13.8734 20.2177 13.25 20.2177H5.97976C5.97228 20.2177 5.90001 20.218 5.749 20.064C5.5928 19.9048 5.41999 19.6466 5.23273 19.2837C4.9685 18.7717 4.73468 18.1767 4.4904 17.5551C4.38133 17.2776 4.27013 16.9946 4.15326 16.7115C3.80955 15.8788 3.45167 14.8359 3.17703 13.9909C3.04041 13.5705 2.9257 13.2032 2.84522 12.9412C2.81829 12.8535 2.79522 12.7777 2.77645 12.7158C2.78604 12.6938 2.79743 12.6729 2.81051 12.6546C2.83144 12.6252 2.85481 12.6043 2.89129 12.5889C2.92883 12.573 3.02754 12.5432 3.22843 12.5708C3.68365 12.633 4.07751 12.8805 4.46194 13.3455C4.85732 13.8238 5.20359 14.4864 5.5524 15.2872C5.69427 15.6129 6.04518 15.7944 6.39297 15.7219C6.74076 15.6494 6.99 15.3429 6.99 14.9877V4.32767Z" fill="#10181B"/>
<path d="M13.6602 4.68774C13.6602 5.24003 13.2124 5.68774 12.6602 5.68774C12.1079 5.68774 11.6602 5.24003 11.6602 4.68774C11.6602 4.13546 12.1079 3.68774 12.6602 3.68774C13.2124 3.68774 13.6602 4.13546 13.6602 4.68774Z" fill="#10181B"/>
<path d="M16.6602 5.68774C17.2124 5.68774 17.6602 5.24003 17.6602 4.68774C17.6602 4.13546 17.2124 3.68774 16.6602 3.68774C16.1079 3.68774 15.6602 4.13546 15.6602 4.68774C15.6602 5.24003 16.1079 5.68774 16.6602 5.68774Z" fill="#10181B"/>
<path d="M21.6602 4.68774C21.6602 5.24003 21.2124 5.68774 20.6602 5.68774C20.1079 5.68774 19.6602 5.24003 19.6602 4.68774C19.6602 4.13546 20.1079 3.68774 20.6602 3.68774C21.2124 3.68774 21.6602 4.13546 21.6602 4.68774Z" fill="#10181B"/>
</svg>
