<svg width="24" height="24" viewBox="0 0 24 24" fill="none" xmlns="http://www.w3.org/2000/svg">
<path d="M18.0148 2.27038L16.9542 1.20972L8.93258 9.23125L9.06159 9.66051C9.31783 10.5131 9.43282 12.7348 7.73556 14.4321C7.50413 14.6635 7.50934 14.9404 7.51957 15.04C7.53085 15.1498 7.564 15.2308 7.57707 15.2612C7.60623 15.3291 7.6395 15.3781 7.64883 15.3919C7.67411 15.4291 7.69925 15.4594 7.71019 15.4724C7.7372 15.5046 7.7696 15.5402 7.8 15.5729C7.86368 15.6413 7.95312 15.734 8.05904 15.842C8.2724 16.0597 8.56911 16.3569 8.89925 16.685C9.56031 17.3422 10.3638 18.1322 10.9223 18.6794L11.4526 19.199L11.9775 18.6741C12.7118 17.9398 13.8788 17.6206 14.9806 17.5134C15.515 17.4614 15.9987 17.4626 16.3489 17.4771C16.5233 17.4843 16.6629 17.4947 16.7571 17.5031C16.8041 17.5073 16.8397 17.511 16.8625 17.5135L16.8868 17.5162L16.8918 17.5168L17.2578 17.5636L22.0539 12.7319L20.9893 11.6752L16.702 15.9943C16.617 15.9884 16.5194 15.9828 16.4108 15.9784C16.0105 15.9618 15.4552 15.9601 14.8353 16.0204C13.8231 16.1189 12.5324 16.3925 11.4879 17.1329C11.0027 16.6563 10.4409 16.1025 9.95675 15.6212C9.70284 15.3688 9.47156 15.1376 9.2844 14.9485C10.7758 13.0889 10.8387 10.9228 10.6059 9.67926L18.0148 2.27038Z" fill="#10181B"/>
<path d="M6.24992 16.51L9.90993 20.18L8.93993 21.09H1.66992L6.24992 16.51Z" fill="#10181B"/>
</svg>
