<svg width="16" height="16" viewBox="0 0 16 16" fill="none" xmlns="http://www.w3.org/2000/svg">
<path d="M12.1114 0.25H15.6858L15.7023 8.42905L12.3703 12.0166L11.9894 11.9679L11.9883 11.9678L11.9873 11.9676L11.973 11.966C11.959 11.9645 11.9364 11.9621 11.9061 11.9595C11.8454 11.954 11.7543 11.9472 11.6399 11.9425C11.4097 11.933 11.0922 11.9322 10.7424 11.9663C10.0099 12.0375 9.28585 12.2471 8.84647 12.6865L8.3215 13.2115L7.79122 12.6919C7.41125 12.3195 6.86431 11.7818 6.41413 11.3343C6.18943 11.1109 5.98673 10.9079 5.84049 10.7587C5.76813 10.6849 5.70553 10.6201 5.66002 10.5712C5.63871 10.5483 5.61323 10.5204 5.59073 10.4935C5.58205 10.4832 5.55858 10.4551 5.53431 10.4193C5.52537 10.4061 5.49249 10.3577 5.46361 10.2905C5.45064 10.2603 5.41754 10.1795 5.40628 10.0698C5.39607 9.97035 5.39083 9.69359 5.62219 9.46223C6.6952 8.38921 6.62149 6.98005 6.46392 6.45578L6.3349 6.02652L12.1114 0.25Z" fill="#10181B"/>
<path d="M4.1323 11.6865L6.78036 14.3418L6.07855 15.0002H0.818604L4.1323 11.6865Z" fill="#10181B"/>
</svg>
