<svg width="16" height="16" viewBox="0 0 16 16" fill="none" xmlns="http://www.w3.org/2000/svg">
<path d="M12.791 1.53039L11.7303 0.469727L5.83899 6.36105L5.96801 6.79031C6.13897 7.35913 6.21829 8.87856 5.06056 10.0363C4.82919 10.2677 4.83442 10.5444 4.84464 10.644C4.8559 10.7536 4.88901 10.8344 4.90199 10.8646C4.93091 10.9319 4.96384 10.9805 4.97283 10.9937C4.99724 11.0297 5.02094 11.0581 5.02993 11.0688C5.05303 11.0964 5.07945 11.1253 5.102 11.1495C5.14997 11.2011 5.21621 11.2697 5.29313 11.3482C5.44848 11.5067 5.66394 11.7224 5.90295 11.96C6.38174 12.436 6.9635 13.008 7.3677 13.404L7.89797 13.9237L8.42295 13.3987C8.90234 12.9193 9.6865 12.6948 10.4691 12.6187C10.844 12.5822 11.1841 12.583 11.4305 12.5932C11.5531 12.5983 11.6508 12.6056 11.716 12.6114C11.7486 12.6143 11.7729 12.6168 11.7881 12.6185L11.8049 12.6204L11.8062 12.6205L12.1718 12.6673L15.7139 9.09892L14.6493 8.04219L11.6136 11.1004C11.5756 11.0982 11.5351 11.0962 11.4924 11.0945C11.1959 11.0822 10.7842 11.0809 10.3239 11.1257C9.62396 11.1938 8.71763 11.377 7.94667 11.8705C7.6256 11.5547 7.27087 11.2048 6.96044 10.8962C6.83122 10.7678 6.71031 10.6471 6.60303 10.5394C7.57871 9.22445 7.65361 7.73906 7.50643 6.81493L12.791 1.53039Z" fill="#10181B"/>
<path d="M4.1323 11.6865L6.78036 14.3418L6.07855 15.0002H0.818604L4.1323 11.6865Z" fill="#10181B"/>
</svg>
