<svg width="24" height="24" viewBox="0 0 24 24" fill="none" xmlns="http://www.w3.org/2000/svg">
<path d="M15.4278 4.58783C16.5449 3.47072 18.36 3.47072 19.4771 4.58783C20.5942 5.70494 20.5942 7.52006 19.4771 8.63717L15.7168 12.3975L16.7775 13.4582L20.5378 9.69783C22.2407 7.99494 22.2407 5.23006 20.5378 3.52717C18.8349 1.82428 16.07 1.82428 14.3671 3.52717L10.9668 6.9275L12.0275 7.98816L15.4278 4.58783Z" fill="#10181B"/>
<path d="M4.58783 15.4279L8.57815 11.4376L7.51749 10.377L3.52717 14.3673C1.82428 16.0702 1.82428 18.8351 3.52717 20.5379C5.23006 22.2408 7.99494 22.2408 9.69783 20.5379L13.0882 17.1476L12.0275 16.087L8.63717 19.4773C7.52006 20.5944 5.70494 20.5944 4.58783 19.4773C3.47072 18.3602 3.47072 16.545 4.58783 15.4279Z" fill="#10181B"/>
<path d="M3.65936 6.40283L8.13219 8.45947L7.50555 9.82231L3.03271 7.76567L3.65936 6.40283Z" fill="#10181B"/>
<path d="M9.82129 7.29812L7.87809 3.0437L6.51367 3.6669L8.45688 7.92131L9.82129 7.29812Z" fill="#10181B"/>
<path d="M16.5695 14.2627L21.0423 16.3193L20.4157 17.6822L15.9429 15.6255L16.5695 14.2627Z" fill="#10181B"/>
<path d="M17.5613 20.418L15.6181 16.1636L14.2537 16.7868L16.1969 21.0412L17.5613 20.418Z" fill="#10181B"/>
</svg>
