<svg width="24" height="24" viewBox="0 0 24 24" fill="none" xmlns="http://www.w3.org/2000/svg">
<path d="M15.8204 4.58783C16.9375 3.47072 18.7526 3.47072 19.8697 4.58783C20.9868 5.70494 20.9868 7.52006 19.8697 8.63717L15.4997 13.0072C14.3826 14.1243 12.5675 14.1243 11.4504 13.0072L10.92 12.4768L9.85938 13.5375L10.3897 14.0678C12.0926 15.7707 14.8575 15.7707 16.5604 14.0678L20.9304 9.69783C22.6333 7.99494 22.6333 5.23006 20.9304 3.52717C19.2275 1.82428 16.4626 1.82428 14.7597 3.52717L11.8194 6.4675L12.88 7.52816L15.8204 4.58783Z" fill="#10181B"/>
<path d="M9.34039 11.0678C10.4575 9.9507 12.2726 9.9507 13.3897 11.0678L13.9201 11.5981L14.9807 10.5375L14.4504 10.0072C12.7475 8.30426 9.98263 8.30426 8.27973 10.0072L3.90974 14.3772C2.20685 16.08 2.20685 18.8449 3.90974 20.5478C5.61263 22.2507 8.37751 22.2507 10.0804 20.5478L13.0207 17.6075L11.9601 16.5468L9.01974 19.4871C7.90263 20.6043 6.08751 20.6043 4.9704 19.4872C3.85329 18.37 3.85329 16.5549 4.9704 15.4378L9.34039 11.0678Z" fill="#10181B"/>
</svg>
