<svg width="16" height="16" viewBox="0 0 16 16" fill="none" xmlns="http://www.w3.org/2000/svg">
<path d="M10.473 3.23631C11.1214 2.5879 12.1754 2.5879 12.8238 3.23631C13.4722 3.88471 13.4722 4.93862 12.8238 5.58703L10.1371 8.27367L11.1497 9.2863L10.9365 9.18823L10.3098 10.5511L10.3258 10.5584L9.18237 11.0807L10.6868 14.3745L12.0512 13.7513L10.6639 10.7139L13.7488 12.1324L14.3755 10.7695L11.2155 9.31656L13.8844 6.64769C15.1186 5.41349 15.1186 3.40984 13.8844 2.17565C12.6502 0.941451 10.6466 0.941452 9.41237 2.17565L6.96606 4.62196L8.02672 5.68262L10.473 3.23631Z" fill="#10181B"/>
<path d="M3.23631 10.4729L6.07649 7.63268L5.19277 6.74897L5.75684 5.52221L5.74069 5.51478L6.88421 4.99248L5.3798 1.69873L4.01538 2.32193L5.40274 5.3594L2.3178 3.94092L1.69116 5.30375L4.83742 6.75043L2.17564 9.41221C0.941452 10.6464 0.941452 12.6501 2.17565 13.8843C3.40984 15.1184 5.41349 15.1184 6.64769 13.8843L9.08732 11.4446L8.02666 10.384L5.58703 12.8236C4.93862 13.472 3.88471 13.472 3.23631 12.8236C2.5879 12.1752 2.5879 11.1213 3.23631 10.4729Z" fill="#10181B"/>
</svg>
