<svg width="16" height="16" viewBox="0 0 16 16" fill="none" xmlns="http://www.w3.org/2000/svg">
<path d="M10.4884 3.23708C11.1378 2.58764 12.1934 2.58764 12.8429 3.23708C13.4923 3.88653 13.4923 4.94212 12.8429 5.59157L9.92228 8.51215C9.27284 9.1616 8.21724 9.1616 7.5678 8.51215L7.03747 7.98182L5.97681 9.04248L6.50714 9.57281C7.74237 10.808 9.74771 10.808 10.9829 9.57281L13.9035 6.65223C15.1388 5.417 15.1388 3.41166 13.9035 2.17642C12.6683 0.941191 10.663 0.941192 9.42772 2.17643L7.28673 4.31742L8.34739 5.37808L10.4884 3.23708Z" fill="#10181B"/>
<path d="M6.15767 7.5679C6.80711 6.91845 7.86271 6.91845 8.51215 7.5679L9.04248 8.09823L10.1031 7.03757L9.57281 6.50724C8.33758 5.272 6.33224 5.272 5.09701 6.50724L2.17642 9.42782C0.941192 10.6631 0.941192 12.6684 2.17642 13.9036C3.41166 15.1389 5.417 15.1389 6.65223 13.9036L8.79323 11.7626L7.73257 10.702L5.59157 12.843C4.94212 13.4924 3.88653 13.4924 3.23708 12.843C2.58764 12.1935 2.58764 11.1379 3.23709 10.4885L6.15767 7.5679Z" fill="#10181B"/>
</svg>
