<svg width="16" height="16" viewBox="0 0 16 16" fill="none" xmlns="http://www.w3.org/2000/svg">
<path fill-rule="evenodd" clip-rule="evenodd" d="M9.46617 2.41215C9.65919 2.1193 9.6252 1.72152 9.36595 1.46592C9.07098 1.17511 8.59612 1.17848 8.30531 1.47345L7.96256 1.8211C7.90295 1.86557 7.85018 1.91869 7.80609 1.9786L2.12488 7.65385L2.11411 7.66483C2.09125 7.68656 2.06977 7.70971 2.04979 7.73415L1.68145 8.0973C1.38649 8.38811 1.38312 8.86297 1.67393 9.15793C1.93052 9.41819 2.3304 9.45144 2.62357 9.25589L7.02867 13.661L7.03211 13.6644C7.79528 14.4178 9.03193 14.4178 9.7951 13.6644L13.8692 9.59038C14.2525 9.20701 14.4391 8.71106 14.4391 8.20848C14.4391 7.7099 14.2552 7.20659 13.8692 6.82054L9.46617 2.41215ZM12.3803 7.45253H4.44885L8.41912 3.48644L12.3803 7.45253Z" fill="#10181B"/>
<path d="M3.31333 12.9379C3.50055 13.6989 2.957 14.2002 2.42552 14.2002C1.89404 14.2002 1.35049 13.6989 1.53771 12.9379C1.68266 12.3702 2.42552 11.4099 2.42552 11.4099C2.42552 11.4099 3.16838 12.3762 3.31333 12.9379Z" fill="#10181B"/>
</svg>
