<svg width="16" height="16" viewBox="0 0 16 16" fill="none" xmlns="http://www.w3.org/2000/svg">
<g clip-path="url(#clip0_44_47603)">
<path fill-rule="evenodd" clip-rule="evenodd" d="M12.7769 0.983079C12.3864 0.592555 11.7532 0.592554 11.3627 0.983079L4.12263 8.22317C3.93762 8.40818 3.83249 8.65833 3.82979 8.91996L3.80824 11.0103C3.80246 11.5706 4.25817 12.0263 4.8185 12.0206L6.90884 11.999C7.17048 11.9963 7.42063 11.8912 7.60564 11.7062L14.8457 4.46609C15.2363 4.07556 15.2363 3.4424 14.8457 3.05188L12.7769 0.983079ZM9.69763 4.76948L5.32761 9.13951L5.31342 10.5154L6.6893 10.5012L11.0593 6.13117L9.69763 4.76948ZM10.7583 3.70882L12.12 5.07051L13.4315 3.75898L12.0698 2.39729L10.7583 3.70882Z" fill="#10181B"/>
<path d="M4.05981 2.73007C3.24404 2.73007 2.57983 3.39428 2.57983 4.21007V11.6401C2.57983 12.4559 3.24404 13.1201 4.05981 13.1201H11.4898C12.3056 13.1201 12.9698 12.4559 12.9698 11.6401V7.93007C12.9698 7.51586 13.3056 7.18007 13.7198 7.18007C14.134 7.18007 14.4698 7.51586 14.4698 7.93007V11.6401C14.4698 13.2843 13.134 14.6201 11.4898 14.6201H4.05981C2.41559 14.6201 1.07983 13.2843 1.07983 11.6401V4.21007C1.07983 2.56587 2.41559 1.23007 4.05981 1.23007H7.76984C8.18405 1.23007 8.51984 1.56586 8.51984 1.98007C8.51984 2.39429 8.18405 2.73007 7.76984 2.73007H4.05981Z" fill="#10181B"/>
</g>
<defs>
<clipPath id="clip0_44_47603">
<rect width="16" height="16" fill="white"/>
</clipPath>
</defs>
</svg>
