<svg width="24" height="24" viewBox="0 0 24 24" fill="none" xmlns="http://www.w3.org/2000/svg">
<path fill-rule="evenodd" clip-rule="evenodd" d="M18.244 2.41106C17.8534 2.02053 17.2203 2.02053 16.8298 2.41106L7.49939 11.7414C7.31437 11.9264 7.20924 12.1766 7.20655 12.4382L7.17579 15.4218C7.17001 15.9821 7.62572 16.4378 8.18604 16.432L11.1696 16.4013C11.4312 16.3986 11.6814 16.2935 11.8664 16.1084L21.1968 6.77807C21.5873 6.38755 21.5873 5.75438 21.1968 5.36386L18.244 2.41106ZM14.428 6.93416L8.70436 12.6578L8.68097 14.9269L10.9501 14.9035L16.6737 9.17985L14.428 6.93416ZM15.4886 5.8735L17.7343 8.11919L19.7826 6.07096L17.5369 3.82527L15.4886 5.8735Z" fill="#10181B"/>
<path d="M6.88007 4.45004C5.61428 4.45004 4.57007 5.49426 4.57007 6.76004V16.94C4.57007 18.2058 5.61428 19.25 6.88007 19.25H17.0701C18.3359 19.25 19.3801 18.2058 19.3801 16.94V11.85C19.3801 11.4358 19.7159 11.1 20.1301 11.1C20.5443 11.1 20.8801 11.4358 20.8801 11.85V16.94C20.8801 19.0343 19.1643 20.75 17.0701 20.75H6.88007C4.78585 20.75 3.07007 19.0343 3.07007 16.94V6.76004C3.07007 4.66583 4.78585 2.95004 6.88007 2.95004H11.97C12.3842 2.95004 12.72 3.28583 12.72 3.70004C12.72 4.11426 12.3842 4.45004 11.97 4.45004H6.88007Z" fill="#10181B"/>
</svg>
