<svg width="16" height="16" viewBox="0 0 16 16" fill="none" xmlns="http://www.w3.org/2000/svg">
<path fill-rule="evenodd" clip-rule="evenodd" d="M11.2133 1.33979C10.9204 1.04689 10.4456 1.04689 10.1527 1.33979L6.58749 4.90498C5.66298 5.82949 4.89037 7.24228 4.36393 8.35915C4.09524 8.9292 3.88029 9.445 3.73237 9.81855C3.6583 10.0056 3.60078 10.1576 3.56148 10.2638C3.54182 10.3168 3.5267 10.3585 3.51632 10.3874L3.50434 10.4209L3.50106 10.4302L3.4997 10.4341C3.40465 10.7059 3.47361 11.0085 3.67727 11.2121L4.4065 11.9414C4.42756 11.9624 4.44955 11.982 4.47235 12L5.14923 12.6769C5.3529 12.8805 5.65543 12.9495 5.92731 12.8545L5.93119 12.8531L5.94046 12.8498L5.97401 12.8378C6.00287 12.8275 6.04452 12.8123 6.09761 12.7927C6.20375 12.7534 6.35579 12.6959 6.54282 12.6218C6.91637 12.4739 7.43218 12.2589 8.00222 11.9902C9.1191 11.4638 10.5319 10.6912 11.4564 9.76666L15.0216 6.20147C15.3145 5.90858 15.3145 5.43371 15.0216 5.14081C14.7287 4.84792 14.2538 4.84792 13.9609 5.14081L10.3957 8.706C9.66595 9.43579 8.45548 10.1183 7.36268 10.6334C6.82789 10.8855 6.34225 11.0879 5.99057 11.2271C5.94787 11.2441 5.90719 11.26 5.86867 11.275L5.48065 10.887C5.4596 10.8659 5.4376 10.8464 5.41481 10.8284L5.07915 10.4927C5.09414 10.4542 5.1101 10.4135 5.127 10.3708C5.26627 10.0191 5.46869 9.53349 5.72076 8.9987C6.23586 7.90589 6.91836 6.69543 7.64815 5.96564L11.2133 2.40045C11.5062 2.10755 11.5062 1.63268 11.2133 1.33979ZM5.67956 12.1466C5.92709 12.8545 5.92731 12.8545 5.92731 12.8545L5.67956 12.1466ZM4.2076 10.6818L3.4997 10.4341C3.4997 10.4341 3.49962 10.4343 4.2076 10.6818Z" fill="#10181B"/>
<path d="M13.2592 3.17621C13.5521 3.46911 13.5521 3.94398 13.2592 4.23687L10.7068 6.78923C10.4139 7.08212 9.93908 7.08212 9.64618 6.78922C9.35329 6.49633 9.35329 6.02146 9.64618 5.72856L12.1985 3.17621C12.4914 2.88332 12.9663 2.88332 13.2592 3.17621Z" fill="#10181B"/>
<path d="M4.48438 13.6795L2.69503 11.8901C2.69503 11.8901 2.26289 12.903 2.12785 13.3216C1.9928 13.7403 1.92528 14.0171 2.12785 14.2197C2.33041 14.4222 2.55999 14.3615 3.0259 14.2197C3.44454 14.0914 4.48438 13.6795 4.48438 13.6795Z" fill="#10181B"/>
</svg>
