<svg width="24" height="24" viewBox="0 0 24 24" fill="none" xmlns="http://www.w3.org/2000/svg">
<path fill-rule="evenodd" clip-rule="evenodd" d="M14.5541 2.52631C14.8449 2.23135 14.8416 1.75648 14.5466 1.46568C14.2516 1.17487 13.7768 1.17824 13.486 1.4732L12.8881 2.07962C12.8089 2.1336 12.7406 2.20235 12.6871 2.28191L3.24999 11.7091C3.24323 11.7159 3.23659 11.7228 3.23009 11.7298C3.19934 11.7583 3.17097 11.7894 3.14534 11.8227L2.51349 12.4457C2.21852 12.7365 2.21515 13.2113 2.50596 13.5063C2.79677 13.8013 3.27163 13.8046 3.56659 13.5138L3.7463 13.3367L11.3697 20.9601L11.3731 20.9635C12.4452 22.0218 14.1848 22.0218 15.2569 20.9635L15.2604 20.9601L22.0004 14.2201C22.5382 13.6823 22.8 12.9883 22.8 12.2798C22.8 11.5752 22.5409 10.8699 22.0004 10.3294L14.3816 2.7013L14.5541 2.52631ZM21.0525 11.5198H5.56202L13.3245 3.76548L20.9397 11.3901C20.9808 11.4312 21.0184 11.4745 21.0525 11.5198Z" fill="#10181B"/>
<path d="M4.87012 20.1098C5.18012 21.3698 4.28012 22.1998 3.40012 22.1998C2.52012 22.1998 1.62012 21.3698 1.93012 20.1098C2.17012 19.1698 3.40012 17.5798 3.40012 17.5798C3.40012 17.5798 4.63012 19.1798 4.87012 20.1098Z" fill="#10181B"/>
</svg>
