<svg width="24" height="24" viewBox="0 0 24 24" fill="none" xmlns="http://www.w3.org/2000/svg">
<path fill-rule="evenodd" clip-rule="evenodd" d="M18.7596 4.87034C17.8625 3.97323 16.4174 3.97323 15.5203 4.87034C15.2274 5.16323 14.7526 5.16323 14.4597 4.87034C14.1668 4.57745 14.1668 4.10257 14.4597 3.80968C15.9426 2.32679 18.3374 2.32679 19.8203 3.80968C21.3032 5.29257 21.3032 7.68745 19.8203 9.17034C19.5274 9.46323 19.0525 9.46323 18.7596 9.17034C18.4668 8.87745 18.4668 8.40257 18.7596 8.10968C19.6568 7.21257 19.6568 5.76745 18.7596 4.87034Z" fill="#10181B"/>
<path fill-rule="evenodd" clip-rule="evenodd" d="M15.5203 3.80976C15.8132 4.10265 15.8132 4.57753 15.5203 4.87042L4.96919 15.4215L4.95996 19.4218C4.959 19.836 4.62244 20.171 4.20823 20.1701C3.79402 20.1691 3.45901 19.8326 3.45996 19.4184L3.46991 15.1084C3.47037 14.91 3.54935 14.72 3.68958 14.5798L14.4596 3.80976C14.7525 3.51686 15.2274 3.51686 15.5203 3.80976Z" fill="#10181B"/>
<path fill-rule="evenodd" clip-rule="evenodd" d="M19.8202 8.10981C20.1131 8.4027 20.1131 8.87757 19.8202 9.17047L9.05029 19.9405C8.91006 20.0807 8.72001 20.1597 8.5217 20.1601L4.2117 20.1701C3.79749 20.1711 3.46092 19.8361 3.45996 19.4219C3.459 19.0077 3.79401 18.6711 4.20822 18.6701L8.20858 18.6609L18.7596 8.10981C19.0525 7.81691 19.5274 7.81691 19.8202 8.10981Z" fill="#10181B"/>
<path fill-rule="evenodd" clip-rule="evenodd" d="M13.2097 5.05976C13.5026 4.76686 13.9774 4.76686 14.2703 5.05976L18.5703 9.35976C18.8632 9.65265 18.8632 10.1275 18.5703 10.4204C18.2774 10.7133 17.8025 10.7133 17.5096 10.4204L13.2097 6.12042C12.9168 5.82752 12.9168 5.35265 13.2097 5.05976Z" fill="#10181B"/>
</svg>
