<svg width="24" height="24" viewBox="0 0 24 24" fill="none" xmlns="http://www.w3.org/2000/svg">
<path d="M14.502 3.93844C14.7939 3.64455 14.7923 3.16968 14.4984 2.87778C14.2045 2.58589 13.7296 2.5875 13.4377 2.88139L12.1255 4.20256L6.39451 5.41618C6.10227 5.47807 5.87462 5.70748 5.81499 6.00019L3.73789 16.1958C3.72592 16.2491 3.71968 16.3041 3.71973 16.36C3.71965 16.4404 3.73258 16.5189 3.75685 16.5929C3.80456 16.7397 3.89477 16.8634 4.01063 16.9531C4.04447 16.9793 4.08076 17.0028 4.11924 17.0231C4.25669 17.0959 4.41745 17.1266 4.58139 17.1018C4.59366 17.0999 4.60587 17.0978 4.61798 17.0953L14.8296 15.015C15.1223 14.9554 15.3517 14.7277 15.4136 14.4355L16.6273 8.70448L17.9484 7.39223C18.2423 7.10033 18.2439 6.62546 17.952 6.33157C17.6601 6.03769 17.1852 6.03609 16.8914 6.32799L15.4114 7.79799C15.3078 7.90091 15.2364 8.03185 15.2062 8.17473L14.0481 13.6434L6.76301 15.1275L11.2003 10.6902C11.4932 10.3973 11.4932 9.92248 11.2003 9.62958C10.9074 9.33669 10.4325 9.33669 10.1397 9.62958L5.70244 14.0668L7.18658 6.78172L12.6553 5.62364C12.7982 5.59338 12.9291 5.52206 13.032 5.41844L14.502 3.93844Z" fill="#10181B"/>
<path d="M3.55005 19.99C3.13584 19.99 2.80005 20.3258 2.80005 20.74C2.80005 21.1542 3.13584 21.49 3.55005 21.49H21.0801C21.4943 21.49 21.8301 21.1542 21.8301 20.74C21.8301 20.3258 21.4943 19.99 21.0801 19.99H3.55005Z" fill="#10181B"/>
</svg>
