<svg width="16" height="16" viewBox="0 0 16 16" fill="none" xmlns="http://www.w3.org/2000/svg">
<path fill-rule="evenodd" clip-rule="evenodd" d="M4.14003 7.7893L9.38563 2.55243C9.40514 2.52717 9.42648 2.50285 9.44965 2.47968C9.47313 2.4562 9.49778 2.43461 9.52341 2.41489L10.1422 1.79717L10.1496 1.78962C11.1025 0.836728 12.6574 0.836728 13.6103 1.78962C14.5618 2.74109 14.5632 4.29273 13.6146 5.246L13.6098 5.25074L7.59983 11.2507C7.45998 11.3904 7.27068 11.4691 7.07307 11.47L4.68545 11.4799L4.66992 11.4801C4.26218 11.4801 3.93043 11.1547 3.92017 10.7494L3.91993 10.7331L3.91992 10.7301V8.32007C3.91992 8.12094 3.99911 7.92998 4.14003 7.7893ZM12.5496 2.85028C12.1845 2.48515 11.5839 2.48319 11.2162 2.8444L11.2098 2.85084L11.0455 3.01488L12.3848 4.35417L12.5469 4.1924L12.5496 4.18962C12.9167 3.82252 12.9167 3.21739 12.5496 2.85028ZM11.3233 5.41395L9.98397 4.07465L5.41992 8.63109V9.97684L6.75836 9.97126L11.3233 5.41395Z" fill="#10181B"/>
<path d="M1.60986 13.04C1.19565 13.04 0.859863 13.3758 0.859863 13.79C0.859863 14.2043 1.19565 14.54 1.60986 14.54H13.8599C14.2741 14.54 14.6099 14.2043 14.6099 13.79C14.6099 13.3758 14.2741 13.04 13.8599 13.04H1.60986Z" fill="#10181B"/>
</svg>
