<svg width="16" height="16" viewBox="0 0 16 16" fill="none" xmlns="http://www.w3.org/2000/svg">
<path fill-rule="evenodd" clip-rule="evenodd" d="M12.7425 2.76333C12.1131 2.14078 11.1058 2.14492 10.4903 2.76044C10.1974 3.05333 9.72252 3.05333 9.42963 2.76044C9.13674 2.46754 9.13674 1.99267 9.42963 1.69978C10.6341 0.495294 12.5868 0.499437 13.7974 1.69689C15.0194 2.90566 14.9969 4.86066 13.8032 6.06753C13.5119 6.36202 13.037 6.36461 12.7425 6.07333C12.448 5.78204 12.4455 5.30717 12.7367 5.01268C13.363 4.37955 13.3605 3.37456 12.7425 2.76333Z" fill="#10181B"/>
<path fill-rule="evenodd" clip-rule="evenodd" d="M10.4903 1.69965C10.7832 1.99254 10.7832 2.46742 10.4903 2.76031L2.43901 10.8116L2.42993 13.8222C2.42868 14.2365 2.09188 14.5712 1.67767 14.57C1.26346 14.5687 0.928686 14.2319 0.929935 13.8177L0.939945 10.4977C0.940542 10.2996 1.01951 10.1097 1.15961 9.96965L9.42963 1.69965C9.72253 1.40676 10.1974 1.40676 10.4903 1.69965Z" fill="#10181B"/>
<path fill-rule="evenodd" clip-rule="evenodd" d="M13.8003 4.9997C14.0932 5.29259 14.0932 5.76747 13.8003 6.06036L5.52026 14.3404C5.38016 14.4805 5.19032 14.5594 4.9922 14.56L1.6822 14.57C1.26799 14.5713 0.931187 14.2365 0.929935 13.8223C0.928684 13.4081 1.26345 13.0713 1.67767 13.07L4.67833 13.061L12.7396 4.9997C13.0325 4.70681 13.5074 4.70681 13.8003 4.9997Z" fill="#10181B"/>
<path fill-rule="evenodd" clip-rule="evenodd" d="M8.46887 2.66041C8.76132 2.36708 9.23619 2.36636 9.52953 2.65881L12.8395 5.9588C13.1329 6.25125 13.1336 6.72613 12.8411 7.01946C12.5487 7.3128 12.0738 7.31352 11.7805 7.02107L8.47047 3.72107C8.17714 3.42862 8.17642 2.95375 8.46887 2.66041Z" fill="#10181B"/>
</svg>
