<svg width="24" height="24" viewBox="0 0 24 24" fill="none" xmlns="http://www.w3.org/2000/svg">
<path fill-rule="evenodd" clip-rule="evenodd" d="M15.9404 2.46967C15.6475 2.17678 15.1726 2.17678 14.8797 2.46967L9.59971 7.74967C8.27735 9.07203 7.1548 11.1157 6.37788 12.764C5.98394 13.5997 5.66861 14.3564 5.45163 14.9043C5.34303 15.1786 5.25881 15.4012 5.20143 15.5562C5.17273 15.6336 5.15073 15.6942 5.13574 15.736L5.11854 15.7841L5.11395 15.7971L5.11228 15.8019C5.01722 16.0737 5.08605 16.3767 5.28971 16.5803L6.3697 17.6603C6.39452 17.6852 6.42065 17.7079 6.44787 17.7285L7.46959 18.7502C7.67326 18.9539 7.97618 19.0227 8.24806 18.9276L8.25281 18.926L8.2658 18.9214L8.31397 18.9042C8.35568 18.8892 8.41628 18.8672 8.49377 18.8385C8.64871 18.7811 8.87134 18.6969 9.14558 18.5883C9.69355 18.3713 10.4502 18.056 11.2859 17.662C12.9342 16.8851 14.9779 15.7626 16.3003 14.4402L21.5803 9.16021C21.8731 8.86732 21.8731 8.39245 21.5803 8.09955C21.2874 7.80666 20.8125 7.80666 20.5196 8.09955L15.2396 13.3796C14.112 14.5072 12.2706 15.5396 10.6464 16.3052C9.84591 16.6825 9.11943 16.9853 8.59333 17.1937C8.4411 17.2539 8.30587 17.3062 8.19073 17.35L7.45025 16.6096C7.42543 16.5847 7.3993 16.562 7.37209 16.5414L6.6899 15.8592C6.7337 15.7441 6.78599 15.6088 6.84627 15.4566C7.05459 14.9305 7.35739 14.204 7.73471 13.4035C8.50028 11.7793 9.53273 9.93797 10.6604 8.81033L15.9404 3.53033C16.2333 3.23744 16.2333 2.76256 15.9404 2.46967ZM7.99992 18.2199C8.24745 18.9279 8.24806 18.9276 8.24806 18.9276L7.99992 18.2199ZM5.82004 16.05L5.11228 15.8019C5.11228 15.8019 5.11207 15.8025 5.82004 16.05Z" fill="#10181B"/>
<path d="M18.9704 5.18964C19.2633 5.48253 19.2633 5.95741 18.9704 6.2503L15.1904 10.0303C14.8975 10.3232 14.4226 10.3232 14.1297 10.0303C13.8368 9.73741 13.8368 9.26253 14.1297 8.96964L17.9097 5.18964C18.2026 4.89675 18.6775 4.89675 18.9704 5.18964Z" fill="#10181B"/>
<path d="M6.22999 20.4898L3.57999 17.8398C3.57999 17.8398 2.94 19.3398 2.74 19.9598C2.54 20.5798 2.44 20.9898 2.74 21.2898C3.04 21.5898 3.38 21.4998 4.07 21.2898C4.69 21.0998 6.22999 20.4898 6.22999 20.4898Z" fill="#10181B"/>
</svg>
