<svg width="24" height="24" viewBox="0 0 24 24" fill="none" xmlns="http://www.w3.org/2000/svg">
<path fill-rule="evenodd" clip-rule="evenodd" d="M11.049 4.3105C11.0738 4.28562 11.0999 4.26284 11.1272 4.24217L12.0896 3.27973L12.0969 3.2725C13.3704 2.00673 15.4399 2.00911 16.7104 3.27962C17.9833 4.55251 17.9833 6.62739 16.7104 7.90028L16.7073 7.90336L15.6885 8.92221L15.6812 8.92967L15.6722 8.93853L7.79028 16.8204C7.65014 16.9606 7.46023 17.0396 7.26205 17.0401L3.69204 17.0501C3.27783 17.0513 2.9411 16.7164 2.93994 16.3022L2.93994 16.3001L2.93994 16.298L2.94995 12.728C2.95051 12.5298 3.02948 12.3399 3.16962 12.1997L10.9822 4.38716C11.0024 4.3605 11.0247 4.33487 11.049 4.3105ZM15.6498 4.34028C14.9627 3.65317 13.8376 3.65317 13.1504 4.34028L13.144 4.34663L12.6464 4.84425L15.1493 7.34011L15.6496 6.83979L15.6522 6.83723C16.3369 6.1499 16.3361 5.02659 15.6498 4.34028ZM6.94842 15.541L14.0886 8.40077L11.5857 5.90491L4.44908 13.0416L4.44205 15.548L6.94842 15.541Z" fill="#10181B"/>
<path d="M3 19.99C2.58579 19.99 2.25 20.3258 2.25 20.74C2.25 21.1542 2.58579 21.49 3 21.49H20.52C20.9342 21.49 21.27 21.1542 21.27 20.74C21.27 20.3258 20.9342 19.99 20.52 19.99H3Z" fill="#10181B"/>
</svg>
