<svg width="16" height="16" viewBox="0 0 16 16" fill="none" xmlns="http://www.w3.org/2000/svg">
<path d="M9.56717 2.52852C9.85906 2.23464 9.85745 1.75977 9.56356 1.46787C9.26967 1.17597 8.7948 1.17759 8.50291 1.47148L7.57208 2.40865L3.38486 3.29535C3.09262 3.35724 2.86497 3.58665 2.80534 3.87936L1.26833 11.424C1.25608 11.4778 1.2497 11.5334 1.24976 11.59C1.24968 11.664 1.2606 11.7363 1.28124 11.805C1.31069 11.9038 1.3609 11.9977 1.43187 12.0798C1.49109 12.1486 1.56299 12.2069 1.64493 12.2509C1.68969 12.275 1.73637 12.2941 1.78419 12.3085C1.85283 12.3291 1.92502 12.3401 1.99885 12.3401C2.05582 12.3403 2.11184 12.3339 2.16601 12.3216L9.71055 10.7846C10.0033 10.7249 10.2327 10.4973 10.2946 10.205L11.1813 6.01783L12.1184 5.08698C12.4123 4.79508 12.4139 4.32021 12.122 4.02633C11.8301 3.73245 11.3553 3.73084 11.0614 4.02274L9.96539 5.11133C9.86177 5.21426 9.79045 5.3452 9.76019 5.48808L8.92903 9.41298L4.29316 10.3574L7.12159 7.52898C7.41448 7.23608 7.41448 6.76121 7.12159 6.46832C6.8287 6.17542 6.35383 6.17542 6.06093 6.46832L3.2325 9.29675L4.17693 4.66088L8.10184 3.82973C8.24473 3.79947 8.37567 3.72815 8.47859 3.62452L9.56717 2.52852Z" fill="#10181B"/>
<path d="M1.60986 13.04C1.19565 13.04 0.859863 13.3758 0.859863 13.79C0.859863 14.2043 1.19565 14.54 1.60986 14.54H13.8599C14.2741 14.54 14.6099 14.2043 14.6099 13.79C14.6099 13.3758 14.2741 13.04 13.8599 13.04H1.60986Z" fill="#10181B"/>
</svg>
