<svg width="16" height="16" viewBox="0 0 16 16" fill="none" xmlns="http://www.w3.org/2000/svg">
<path d="M5.81012 4.90996C5.81012 5.57822 5.26836 6.11996 4.6001 6.11996C3.93183 6.11996 3.39014 5.57822 3.39014 4.90996C3.39014 4.24169 3.93183 3.69995 4.6001 3.69995C5.26836 3.69995 5.81012 4.24169 5.81012 4.90996Z" fill="#10181B"/>
<path fill-rule="evenodd" clip-rule="evenodd" d="M7.49481 1.2611C7.85828 1.40649 8.1458 1.6251 8.40033 1.87963L13.4752 6.95449C13.7551 7.23956 14.0869 7.62482 14.206 8.09642C14.3498 8.66624 14.1513 9.1893 13.7303 9.61029L11.522 11.8186L11.5104 11.8304L9.29047 14.0504C8.86948 14.4714 8.34641 14.6698 7.7766 14.526C7.30499 14.407 6.91974 14.0752 6.63466 13.7953C6.1938 13.3624 3.49091 10.6548 2.20554 9.36712L1.55983 8.72041C1.3053 8.46588 1.08669 8.17836 0.941293 7.81489C0.797052 7.45431 0.74426 7.06756 0.750203 6.63966L0.75025 6.63669C0.765091 5.80559 0.765135 4.60778 0.761386 3.61291C0.759515 3.1165 0.756708 2.67241 0.754369 2.35244L0.750165 1.83724C0.748167 1.62819 0.831895 1.4383 0.968576 1.30098C1.10676 1.15687 1.30181 1.06793 1.5172 1.06999L2.03237 1.07419C2.35235 1.07653 2.79643 1.07934 3.29284 1.08121C4.28772 1.08496 5.48553 1.08492 6.31663 1.07007L6.3196 1.07003C6.74749 1.06408 7.13423 1.11687 7.49481 1.2611ZM10.4497 10.7696L10.4381 10.7814L8.22981 12.9897C8.18239 13.0372 8.15011 13.0592 8.13367 13.0686C8.11176 13.0612 8.06629 13.0412 7.99391 12.9907C7.90855 12.9312 7.80742 12.8446 7.68555 12.7249C7.25109 12.2983 4.57039 9.61293 3.27981 8.32008L2.62049 7.65975C2.46502 7.50428 2.38361 7.3818 2.33399 7.25777C2.2833 7.13105 2.24612 6.95317 2.25004 6.6619C2.26517 5.81307 2.26512 4.60176 2.26137 3.60725C2.25992 3.22055 2.2579 2.86554 2.25597 2.57579C2.54567 2.57772 2.90059 2.57974 3.28719 2.5812C4.28173 2.58495 5.49309 2.58499 6.34192 2.56986C6.63315 2.56595 6.81101 2.60313 6.93771 2.65381C7.06173 2.70342 7.1842 2.78482 7.33967 2.94029L12.4071 8.00775C12.5256 8.12859 12.6115 8.22896 12.6707 8.31377C12.7212 8.38613 12.7411 8.43158 12.7486 8.4535C12.7391 8.46994 12.7171 8.50222 12.6697 8.54963L10.4497 10.7696Z" fill="#10181B"/>
</svg>
