<svg width="24" height="24" viewBox="0 0 24 24" fill="none" xmlns="http://www.w3.org/2000/svg">
<path d="M8.2309 6.59093C8.2309 7.49668 7.49663 8.23093 6.59088 8.23093C5.68513 8.23093 4.95093 7.49668 4.95093 6.59093C4.95093 5.68518 5.68513 4.95093 6.59088 4.95093C7.49663 4.95093 8.2309 5.68518 8.2309 6.59093Z" fill="#10181B"/>
<path fill-rule="evenodd" clip-rule="evenodd" d="M11.3674 1.52345C11.8768 1.72752 12.2867 2.03593 12.6613 2.41058L20.7313 10.4806C21.1779 10.9271 21.6343 11.4676 21.7942 12.0977C21.9788 12.8253 21.7364 13.5061 21.1513 14.0912L14.0912 21.1513C13.5061 21.7364 12.8253 21.9788 12.0977 21.7942C11.4676 21.6343 10.9271 21.1778 10.4806 20.7313L2.41058 12.6613C2.03594 12.2867 1.72753 11.8768 1.52346 11.3674C1.32047 10.8608 1.23988 10.3036 1.25101 9.65888C1.27088 8.33138 1.27091 6.42041 1.26591 4.83709C1.26341 4.04614 1.25967 3.33846 1.25655 2.82854C1.25499 2.57359 1.25358 2.36811 1.25257 2.2264L1.25093 2.00698C1.24862 1.71843 1.40957 1.46665 1.64746 1.33931C1.75451 1.28198 1.87704 1.24989 2.00702 1.25093L2.2264 1.25257C2.3681 1.25358 2.57359 1.25499 2.82853 1.25655C3.33846 1.25967 4.04613 1.26341 4.83709 1.26591C6.42039 1.27091 8.33137 1.27088 9.65886 1.25101C10.3036 1.23988 10.8607 1.32047 11.3674 1.52345ZM20.0906 13.0306L13.0306 20.0906C12.7357 20.3855 12.5765 20.3681 12.4666 20.3403C12.2592 20.2876 11.9647 20.0941 11.5412 19.6706L3.47124 11.6006C3.19588 11.3253 3.02429 11.0802 2.91586 10.8095C2.80645 10.5364 2.74202 10.1888 2.75079 9.68402L2.75082 9.68221C2.77094 8.33974 2.77091 6.4162 2.7659 4.83236C2.7634 4.03957 2.75965 3.33037 2.75652 2.81935L2.75613 2.75613L2.81935 2.75652C3.33036 2.75965 4.03956 2.7634 4.83235 2.7659C6.41619 2.77091 8.33972 2.77094 9.68219 2.75082L9.684 2.75079C10.1888 2.74202 10.5364 2.80645 10.8095 2.91586C11.0802 3.02429 11.3253 3.19588 11.6007 3.47124L19.6707 11.5412C20.0941 11.9647 20.2876 12.2592 20.3403 12.4666C20.3681 12.5765 20.3855 12.7357 20.0906 13.0306Z" fill="#10181B"/>
</svg>
