<svg width="24" height="24" viewBox="0 0 24 24" fill="none" xmlns="http://www.w3.org/2000/svg">
<path d="M2.28002 2.19114C2.2359 2.18343 2.19046 2.17959 2.14408 2.17996C1.93623 2.18162 1.7488 2.26768 1.61406 2.40535C1.47712 2.54 1.39157 2.72691 1.38992 2.93412C1.38955 2.98043 1.39339 3.0258 1.4011 3.06986L1.40174 3.15536C1.40275 3.29706 1.40416 3.50254 1.40572 3.75749C1.40884 4.26742 1.41258 4.97509 1.41508 5.76605C1.42008 7.34936 1.42005 9.26034 1.40018 10.5878C1.38905 11.2326 1.46964 11.7897 1.67263 12.2964C1.8767 12.8057 2.18511 13.2156 2.55975 13.5903C2.63863 13.6691 2.73382 13.7661 2.86957 13.9043L2.87132 13.9061C2.96326 13.9997 3.07435 14.1128 3.21081 14.2513C3.54713 14.5927 4.03343 15.084 4.76971 15.8203C5.0626 16.1132 5.53748 16.1132 5.83037 15.8203C6.12327 15.5274 6.12327 15.0525 5.83037 14.7596C5.09665 14.0259 4.61297 13.5372 4.27931 13.1986C4.14904 13.0663 4.04039 12.9557 3.94813 12.8618L3.94706 12.8607C3.80637 12.7174 3.70328 12.6125 3.62041 12.5296C3.34505 12.2542 3.17346 12.0091 3.06503 11.7385C2.95562 11.4654 2.89119 11.1178 2.89996 10.613L2.89999 10.6112C2.92011 9.26869 2.92007 7.34516 2.91507 5.76131C2.91257 4.96852 2.90882 4.25932 2.90569 3.74831L2.90536 3.6954L2.95828 3.69573C3.46929 3.69886 4.1785 3.70261 4.9713 3.70511C6.55515 3.71011 8.4787 3.71015 9.82117 3.69003L9.82298 3.69C10.3278 3.68122 10.6754 3.74566 10.9485 3.85507C11.2191 3.9635 11.4642 4.13508 11.7396 4.41045L13.9595 6.63044C14.2524 6.92334 14.7273 6.92334 15.0202 6.63045C15.3131 6.33756 15.3131 5.86269 15.0202 5.56979L12.8002 3.34979C12.4256 2.97515 12.0157 2.66674 11.5064 2.46267C10.9997 2.25968 10.4426 2.17909 9.79784 2.19021C8.47034 2.21009 6.55936 2.21012 4.97603 2.20512C4.18507 2.20262 3.47739 2.19888 2.96746 2.19576C2.71251 2.1942 2.50702 2.19279 2.36532 2.19178L2.28002 2.19114Z" fill="#10181B"/>
<path fill-rule="evenodd" clip-rule="evenodd" d="M7.59529 18.6553L4.7503 21.5003C4.45741 21.7932 3.98253 21.7932 3.68964 21.5003C3.39675 21.2074 3.39675 20.7325 3.68964 20.4396L19.6896 4.43964C19.9825 4.14675 20.4574 4.14675 20.7503 4.43964C21.0432 4.73253 21.0432 5.20741 20.7503 5.5003L17.8557 8.3949L20.8803 11.4196C21.3268 11.8661 21.7833 12.4066 21.9432 13.0367C22.1278 13.7643 21.8855 14.4451 21.3004 15.0302L17.7833 18.5472L17.7704 18.5604L14.2404 22.0904C13.6553 22.6755 12.9745 22.9179 12.2469 22.7333C11.6168 22.5734 11.0763 22.1169 10.6298 21.6704C10.4993 21.5399 10.2504 21.2932 9.91509 20.9608L9.32441 20.375C8.82666 19.8812 8.23119 19.2897 7.59529 18.6553ZM16.795 9.45556L8.65595 17.5947C9.28997 18.2272 9.88391 18.8172 10.3808 19.3102L10.9666 19.891L10.9676 19.892C11.305 20.2265 11.5577 20.477 11.6905 20.6098C12.114 21.0332 12.4084 21.2268 12.6158 21.2794C12.7257 21.3073 12.8849 21.3247 13.1798 21.0298L16.6967 17.5128L16.7097 17.4996L20.2397 13.9696C20.5346 13.6747 20.5172 13.5155 20.4893 13.4056C20.4367 13.1982 20.2431 12.9037 19.8196 12.4802L16.795 9.45556Z" fill="#10181B"/>
<path d="M6.74011 9.16989C7.64586 9.16989 8.38013 8.43564 8.38013 7.52989C8.38013 6.62415 7.64586 5.88989 6.74011 5.88989C5.83437 5.88989 5.1001 6.62415 5.1001 7.52989C5.1001 8.43564 5.83437 9.16989 6.74011 9.16989Z" fill="#10181B"/>
</svg>
