<svg width="16" height="16" viewBox="0 0 16 16" fill="none" xmlns="http://www.w3.org/2000/svg">
<path d="M9.26037 1.88962L10.6704 3.29962C10.9633 3.59251 10.9633 4.06738 10.6704 4.36028C10.3775 4.65318 9.90265 4.65318 9.60975 4.36029L8.19972 2.95029C8.03789 2.78846 7.91273 2.70518 7.78714 2.65482C7.65896 2.60341 7.47915 2.56592 7.1818 2.56986C6.32307 2.58499 5.09679 2.58495 4.08975 2.5812C3.69405 2.57973 3.3311 2.57768 3.036 2.57573C3.03793 2.86906 3.03995 3.2284 3.0414 3.61978C3.04515 4.62678 3.0452 5.85302 3.03007 6.71174C3.02612 7.00915 3.06361 7.18898 3.11502 7.31718C3.16468 7.44104 3.24635 7.56446 3.4038 7.72305C3.49455 7.80931 3.61834 7.93519 3.82014 8.1404C4.04076 8.36475 4.35461 8.68391 4.82044 9.14974C5.11333 9.44263 5.11333 9.91751 4.82044 10.2104C4.52755 10.5033 4.05267 10.5033 3.75978 10.2104C3.24329 9.69391 2.9276 9.37237 2.71946 9.16036C2.54309 8.98072 2.44385 8.87964 2.36517 8.80533C2.35998 8.80043 2.35485 8.79545 2.34981 8.7904C2.09163 8.53222 1.86991 8.24237 1.72278 7.87545C1.57678 7.51135 1.52432 7.12154 1.53023 6.68979L1.53028 6.68683C1.54512 5.84563 1.54516 4.63274 1.54141 3.62536C1.53954 3.12269 1.53674 2.67297 1.5344 2.34892L1.53019 1.82714C1.52629 1.41295 1.85889 1.07401 2.27308 1.0701L2.27604 1.07008L2.29714 1.06999L2.81889 1.07419C3.14294 1.07653 3.59266 1.07934 4.09533 1.08121C5.10272 1.08496 6.31561 1.08492 7.15681 1.07007L7.15977 1.07002C7.59153 1.06411 7.98134 1.11658 8.34545 1.26259C8.71235 1.40972 9.00221 1.63146 9.26037 1.88962Z" fill="#10181B"/>
<path d="M6.61993 4.90996C6.61993 5.57822 6.07818 6.11996 5.40991 6.11996C4.74165 6.11996 4.19995 5.57822 4.19995 4.90996C4.19995 4.24169 4.74165 3.69995 5.40991 3.69995C6.07818 3.69995 6.61993 4.24169 6.61993 4.90996Z" fill="#10181B"/>
<path fill-rule="evenodd" clip-rule="evenodd" d="M11.1302 4.70727C11.1057 4.72635 11.0821 4.74717 11.0595 4.76972C11.0371 4.79209 11.0165 4.81553 10.9975 4.83986L5.25554 10.5762C5.24243 10.5877 5.22963 10.5997 5.21716 10.6123C5.20659 10.623 5.19641 10.6339 5.18661 10.645L3.07003 12.7595C2.77699 13.0523 2.77676 13.5271 3.06951 13.8202C3.36225 14.1132 3.83713 14.1135 4.13017 13.8207L5.75339 12.1991L5.9569 12.4006C6.6978 13.1344 7.29585 13.7267 7.48739 13.9182C7.77548 14.2112 8.16314 14.5507 8.64195 14.6721C9.21848 14.8183 9.74655 14.6143 10.1703 14.1905L12.4103 11.9505L12.421 11.9396L14.6502 9.71038C15.074 9.28657 15.278 8.7585 15.1319 8.18197C15.0105 7.70315 14.6709 7.31548 14.3779 7.02739L12.6549 5.30442L14.3102 3.65071C14.6033 3.35796 14.6035 2.88309 14.3107 2.59005C14.018 2.29701 13.5431 2.29678 13.2501 2.58953L11.1302 4.70727ZM11.5937 6.36455L6.81459 11.1389L7.00537 11.3279C7.75217 12.0675 8.35827 12.6677 8.55035 12.8598L8.55513 12.8646C8.67566 12.9873 8.77641 13.0758 8.86134 13.1363C8.936 13.1894 8.98214 13.2091 9.00299 13.2159C9.01957 13.207 9.05546 13.184 9.10968 13.1298L11.3389 10.9006L11.3496 10.8897L13.5895 8.64972C13.6438 8.5955 13.6668 8.5596 13.6756 8.54303C13.6689 8.52217 13.6492 8.47603 13.596 8.40137C13.5356 8.31643 13.4471 8.21567 13.3243 8.09513L13.3195 8.0904L11.5937 6.36455Z" fill="#10181B"/>
</svg>
