<svg width="24" height="24" viewBox="0 0 24 24" fill="none" xmlns="http://www.w3.org/2000/svg">
<path d="M8.79004 3.27002C8.79004 2.85581 9.12583 2.52002 9.54004 2.52002H16.29C19.0343 2.52002 21.28 4.7658 21.28 7.51002V12.95C21.28 13.3642 20.9443 13.7 20.53 13.7C20.1158 13.7 19.78 13.3642 19.78 12.95V7.51002C19.78 5.59423 18.2058 4.02002 16.29 4.02002H9.54004C9.12583 4.02002 8.79004 3.68423 8.79004 3.27002Z" fill="#10181B"/>
<path d="M12.3498 11.38C12.3498 12.6944 11.2843 13.76 9.96984 13.76C8.65541 13.76 7.58984 12.6944 7.58984 11.38C7.58984 10.0656 8.65541 9 9.96984 9C11.2843 9 12.3498 10.0656 12.3498 11.38Z" fill="#10181B"/>
<path fill-rule="evenodd" clip-rule="evenodd" d="M1.80005 8.3999C1.80005 6.88112 3.03127 5.6499 4.55005 5.6499H15.4001C16.9188 5.6499 18.1501 6.88112 18.1501 8.3999V14.3699C18.1501 15.8887 16.9188 17.1199 15.4001 17.1199H4.55005C3.03127 17.1199 1.80005 15.8887 1.80005 14.3699V8.3999ZM4.55005 7.1499C3.85969 7.1499 3.30005 7.70955 3.30005 8.3999V14.3699C3.30005 15.0603 3.85969 15.6199 4.55005 15.6199H15.4001C16.0904 15.6199 16.6501 15.0603 16.6501 14.3699V8.3999C16.6501 7.70955 16.0904 7.1499 15.4001 7.1499H4.55005Z" fill="#10181B"/>
<path d="M18.2329 16.6579C18.5102 16.3501 18.9844 16.3255 19.2921 16.6028L22.0221 19.0628C22.1799 19.205 22.27 19.4075 22.27 19.6199C22.27 19.8324 22.1799 20.0349 22.0221 20.1771L19.2921 22.6371C18.9844 22.9144 18.5102 22.8897 18.2329 22.582C17.9556 22.2743 17.9803 21.8 18.288 21.5228L19.5671 20.3701H15.54C15.1258 20.3701 14.79 20.0343 14.79 19.6201C14.79 19.2059 15.1258 18.8701 15.54 18.8701H19.5676L18.288 17.7171C17.9803 17.4398 17.9556 16.9656 18.2329 16.6579Z" fill="#10181B"/>
</svg>
