<svg width="16" height="16" viewBox="0 0 16 16" fill="none" xmlns="http://www.w3.org/2000/svg">
<g clip-path="url(#clip0_697_206)">
<path d="M4.82313 2.76268C5.50655 3.4461 5.50655 4.55413 4.82313 5.23755L3.24991 6.81077L3.24991 4.75H1.5V3.25H3.24991L3.24991 1.18945L4.82313 2.76268Z" fill="#10181B"/>
<path fill-rule="evenodd" clip-rule="evenodd" d="M7.31383 5C7.31383 4.58579 7.64962 4.25 8.06383 4.25H12C12.8121 4.25 13.6463 4.32093 14.2737 4.74432C14.9825 5.22259 15.2441 6.00434 15.2441 6.94634V11.7265C15.2441 12.1408 14.9083 12.4765 14.4941 12.4765C14.0799 12.4765 13.7441 12.1408 13.7441 11.7265V6.94634C13.7441 6.26924 13.5683 6.07782 13.4347 5.9877C13.2198 5.84269 12.8069 5.75 12 5.75H8.06383C7.64962 5.75 7.31383 5.41421 7.31383 5Z" fill="#10181B"/>
<path fill-rule="evenodd" clip-rule="evenodd" d="M3.27946 8.65C2.98705 8.65 2.75 8.88705 2.75 9.17946V12.9987C2.75 13.2911 2.98705 13.5281 3.27946 13.5281H10.2205C10.513 13.5281 10.75 13.2911 10.75 12.9987V9.17946C10.75 8.88705 10.513 8.65 10.2205 8.65H3.27946ZM1.25 9.17946C1.25 8.05862 2.15862 7.15 3.27946 7.15H10.2205C11.3414 7.15 12.25 8.05862 12.25 9.17946V12.9987C12.25 14.1195 11.3414 15.0281 10.2205 15.0281H3.27946C2.15862 15.0281 1.25 14.1195 1.25 12.9987V9.17946Z" fill="#10181B"/>
<path d="M6.74681 12.6084C7.5877 12.6084 8.26937 11.9267 8.26937 11.0859C8.26937 10.245 7.5877 9.5633 6.74681 9.5633C5.90592 9.5633 5.22425 10.245 5.22425 11.0859C5.22425 11.9267 5.90592 12.6084 6.74681 12.6084Z" fill="#10181B"/>
</g>
<defs>
<clipPath id="clip0_697_206">
<rect width="16" height="16" fill="white"/>
</clipPath>
</defs>
</svg>
