<svg width="16" height="16" viewBox="0 0 16 16" fill="none" xmlns="http://www.w3.org/2000/svg">
<path fill-rule="evenodd" clip-rule="evenodd" d="M8 15C11.866 15 15 11.866 15 8C15 4.13401 11.866 1 8 1C4.13401 1 1 4.13401 1 8C1 11.866 4.13401 15 8 15ZM8.738 4.11219C9.23945 4.19268 9.76685 4.35693 10.3031 4.61432L9.65398 5.9666C8.66076 5.48985 7.84432 5.4869 7.33974 5.65247C6.81475 5.82473 6.73581 6.10391 6.74537 6.22818C6.7573 6.38329 6.79031 6.44963 6.80837 6.47804C6.82616 6.50603 6.86112 6.54724 6.95732 6.60317C7.06242 6.66427 7.21062 6.72609 7.43663 6.80422C7.54113 6.84035 7.65294 6.87691 7.77886 6.91808L7.80106 6.92534C7.93393 6.96878 8.07962 7.01656 8.23338 7.06979C8.80926 7.26912 9.40926 7.55887 9.87778 7.97818C10.3587 8.40864 10.7285 9.00519 10.7285 9.76903C10.7285 10.6169 10.1266 11.4839 9.14735 11.892C9.01669 11.9464 8.88018 11.9927 8.738 12.0302V13.262H7.238V12.108C6.60962 12.0264 5.91586 11.8107 5.16455 11.4351L5.83537 10.0934C7.1989 10.7752 8.08427 10.7099 8.57043 10.5074C9.08401 10.2934 9.22853 9.91634 9.22853 9.76903C9.22853 9.53761 9.12883 9.3209 8.87744 9.09591C8.61359 8.85978 8.21835 8.6519 7.74273 8.48727C7.60245 8.43871 7.46778 8.39451 7.33486 8.35105L7.30917 8.34265C7.18681 8.30265 7.0635 8.26234 6.94651 8.22189C6.70097 8.137 6.43937 8.03712 6.20342 7.89994C5.95856 7.75759 5.72122 7.56395 5.54241 7.28262C5.36388 7.00171 5.27602 6.68427 5.24979 6.34322C5.16887 5.29128 5.94945 4.52997 6.87208 4.22723C6.98989 4.18857 7.11201 4.15611 7.238 4.13009V2.80005H8.738V4.11219Z" fill="#10181B"/>
</svg>
