<svg width="16" height="16" viewBox="0 0 16 16" fill="none" xmlns="http://www.w3.org/2000/svg">
<path fill-rule="evenodd" clip-rule="evenodd" d="M1.98366 4.16108C1.98366 4.08385 2.00014 4.02637 2.01665 3.98916H13.9838C14.0001 4.02642 14.0164 4.08385 14.0164 4.16108V5.59352H1.98366V4.16108ZM14.1096 2.78589C14.7233 2.78589 15.2196 3.40232 15.2196 4.16108V6.79663V6.79679V11.9048C15.2196 12.6282 14.7224 13.2141 14.1096 13.2141H1.89131C1.27765 13.2141 0.780396 12.6282 0.780396 11.9048V6.79679V6.79663V4.16108C0.780396 3.40232 1.27855 2.78589 1.89131 2.78589H14.1096ZM13.9988 12.0108H2.00121C1.992 11.9862 1.98366 11.951 1.98366 11.9048V7.9999H14.0164V11.9048C14.0164 11.951 14.008 11.9862 13.9988 12.0108Z" fill="#10181B"/>
</svg>
