<svg width="16" height="16" viewBox="0 0 16 16" fill="none" xmlns="http://www.w3.org/2000/svg">
<path d="M4.31384 3.00024C4.31384 2.58603 4.64963 2.25024 5.06384 2.25024H12C12.8122 2.25024 13.6463 2.32117 14.2738 2.74456C14.9825 3.22283 15.2441 4.00459 15.2441 4.94658V9.72678C15.2441 10.141 14.9084 10.4768 14.4941 10.4768C14.0799 10.4768 13.7441 10.141 13.7441 9.72678V4.94658C13.7441 4.26948 13.5683 4.07807 13.4347 3.98794C13.2198 3.84294 12.8069 3.75024 12 3.75024H5.06384C4.64963 3.75024 4.31384 3.41446 4.31384 3.00024Z" fill="#10181B"/>
<path d="M8.26936 9.08603C8.26936 9.92692 7.58769 10.6086 6.7468 10.6086C5.90592 10.6086 5.22424 9.92692 5.22424 9.08603C5.22424 8.24515 5.90592 7.56348 6.7468 7.56348C7.58769 7.56348 8.26936 8.24515 8.26936 9.08603Z" fill="#10181B"/>
<path fill-rule="evenodd" clip-rule="evenodd" d="M1.25 7.17961C1.25 6.05877 2.15862 5.15015 3.27946 5.15015H10.2205C11.3414 5.15015 12.25 6.05877 12.25 7.17961V10.9988C12.25 12.1196 11.3414 13.0283 10.2205 13.0283H3.27946C2.15862 13.0283 1.25 12.1196 1.25 10.9988V7.17961ZM3.27946 6.65015C2.98705 6.65015 2.75 6.88719 2.75 7.17961V10.9988C2.75 11.2912 2.98705 11.5283 3.27946 11.5283H10.2205C10.513 11.5283 10.75 11.2912 10.75 10.9988V7.17961C10.75 6.88719 10.513 6.65015 10.2205 6.65015H3.27946Z" fill="#10181B"/>
</svg>
