<svg width="24" height="24" viewBox="0 0 24 24" fill="none" xmlns="http://www.w3.org/2000/svg">
<path fill-rule="evenodd" clip-rule="evenodd" d="M5.10999 9.05014C4.41963 9.05014 3.85999 9.60978 3.85999 10.3001V16.2701C3.85999 16.9605 4.41963 17.5201 5.10999 17.5201H15.96C16.6503 17.5201 17.21 16.9605 17.21 16.2701V10.3001C17.21 9.60978 16.6503 9.05014 15.96 9.05014H5.10999ZM2.35999 10.3001C2.35999 8.78136 3.5912 7.55014 5.10999 7.55014H15.96C17.4788 7.55014 18.71 8.78136 18.71 10.3001V16.2701C18.71 17.7889 17.4788 19.0201 15.96 19.0201H5.10999C3.5912 19.0201 2.35999 17.7889 2.35999 16.2701V10.3001Z" fill="#10181B"/>
<path fill-rule="evenodd" clip-rule="evenodd" d="M5.32996 5.16016C5.32996 4.74594 5.66574 4.41016 6.07996 4.41016H16.85C19.5942 4.41016 21.84 6.65594 21.84 9.40016V14.8402C21.84 15.2544 21.5042 15.5902 21.09 15.5902C20.6757 15.5902 20.34 15.2544 20.34 14.8402V9.40016C20.34 7.48437 18.7657 5.91016 16.85 5.91016H6.07996C5.66574 5.91016 5.32996 5.57437 5.32996 5.16016Z" fill="#10181B"/>
<path d="M10.53 15.6601C11.8444 15.6601 12.91 14.5946 12.91 13.2801C12.91 11.9657 11.8444 10.9001 10.53 10.9001C9.21553 10.9001 8.14996 11.9657 8.14996 13.2801C8.14996 14.5946 9.21553 15.6601 10.53 15.6601Z" fill="#10181B"/>
</svg>
