<svg width="24" height="24" viewBox="0 0 24 24" fill="none" xmlns="http://www.w3.org/2000/svg">
<path d="M5.00188 1.57915C5.27854 1.27088 5.75272 1.24525 6.061 1.5219L8.78489 3.96642C8.93611 4.09928 9.03341 4.29204 9.03973 4.50763C9.03995 4.51485 9.04006 4.52208 9.04007 4.52932C9.04008 4.53844 9.03992 4.54754 9.0396 4.55662C9.03404 4.71611 8.97868 4.86295 8.88859 4.98206C8.86007 5.01982 8.82783 5.05507 8.79213 5.08725L6.06213 7.54725C5.75441 7.82453 5.28018 7.79986 5.0029 7.49215C4.72562 7.18443 4.75029 6.7102 5.058 6.43292L6.33743 5.28003H2.31006C1.89585 5.28003 1.56006 4.94424 1.56006 4.53003C1.56006 4.11582 1.89585 3.78003 2.31006 3.78003H6.33139L5.05913 2.63827C4.75086 2.36161 4.72523 1.88743 5.00188 1.57915Z" fill="#10181B"/>
<path d="M9.56006 6.96997C9.56006 6.55576 9.89585 6.21997 10.3101 6.21997H17.0601C19.8043 6.21997 22.0501 8.46575 22.0501 11.21V16.65C22.0501 17.0642 21.7143 17.4 21.3001 17.4C20.8858 17.4 20.5501 17.0642 20.5501 16.65V11.21C20.5501 9.29418 18.9758 7.71997 17.0601 7.71997H10.3101C9.89585 7.71997 9.56006 7.38418 9.56006 6.96997Z" fill="#10181B"/>
<path d="M13.1199 15.09C13.1199 16.4044 12.0543 17.47 10.7399 17.47C9.42543 17.47 8.35986 16.4044 8.35986 15.09C8.35986 13.7755 9.42543 12.71 10.7399 12.71C12.0543 12.71 13.1199 13.7755 13.1199 15.09Z" fill="#10181B"/>
<path fill-rule="evenodd" clip-rule="evenodd" d="M2.56006 12.1099C2.56006 10.5911 3.79128 9.35986 5.31006 9.35986H16.1601C17.6788 9.35986 18.9101 10.5911 18.9101 12.1099V18.0799C18.9101 19.5986 17.6788 20.8299 16.1601 20.8299H5.31006C3.79128 20.8299 2.56006 19.5986 2.56006 18.0799V12.1099ZM5.31006 10.8599C4.6197 10.8599 4.06006 11.4195 4.06006 12.1099V18.0799C4.06006 18.7702 4.6197 19.3299 5.31006 19.3299H16.1601C16.8504 19.3299 17.4101 18.7702 17.4101 18.0799V12.1099C17.4101 11.4195 16.8504 10.8599 16.1601 10.8599H5.31006Z" fill="#10181B"/>
</svg>
