<svg width="24" height="24" viewBox="0 0 24 24" fill="none" xmlns="http://www.w3.org/2000/svg">
<path fill-rule="evenodd" clip-rule="evenodd" d="M4.5 7.71432C4.5 7.61804 4.52054 7.54639 4.54111 7.5H19.4594C19.4797 7.54645 19.5 7.61805 19.5 7.71432V9.5H4.5V7.71432ZM19.6163 6C20.3813 6 21 6.76845 21 7.71432V11V17.3679C21 18.2696 20.3801 19 19.6163 19H4.38487C3.61987 19 3 18.2696 3 17.3679V11V7.71432C3 6.76845 3.621 6 4.38487 6H19.6163ZM19.4781 17.5H4.52187C4.51039 17.4694 4.5 17.4255 4.5 17.3679V12.5H19.5V17.3679C19.5 17.4254 19.4896 17.4693 19.4781 17.5Z" fill="#10181B"/>
</svg>
