<svg width="24" height="24" viewBox="0 0 24 24" fill="none" xmlns="http://www.w3.org/2000/svg">
<path fill-rule="evenodd" clip-rule="evenodd" d="M12 22C17.5228 22 22 17.5228 22 12C22 6.47715 17.5228 2 12 2C6.47715 2 2 6.47715 2 12C2 17.5228 6.47715 22 12 22ZM12.7722 7.2434C13.453 7.33104 14.1798 7.54417 14.9246 7.90164L14.2755 9.25392C12.9485 8.61699 11.8318 8.60069 11.1136 8.83633C10.3751 9.07867 10.1693 9.51135 10.1922 9.80915C10.2098 10.0375 10.2607 10.1604 10.3077 10.2345C10.3545 10.3081 10.4296 10.3839 10.5762 10.4691C10.7316 10.5595 10.9402 10.6451 11.2358 10.7473C11.373 10.7948 11.5195 10.8427 11.682 10.8958L11.7113 10.9054C11.8834 10.9616 12.0704 11.023 12.2676 11.0912C12.9986 11.3443 13.7454 11.7074 14.3219 12.2234C14.911 12.7506 15.35 13.4671 15.35 14.3778C15.35 15.3725 14.638 16.423 13.4385 16.9228C13.2295 17.0099 13.0073 17.0802 12.7722 17.1319V18.303H11.2722V17.2093C10.4381 17.1289 9.49893 16.8546 8.4646 16.3375L9.13542 14.9958C10.9394 15.8978 12.1552 15.8326 12.8616 15.5382C13.5954 15.2325 13.85 14.6719 13.85 14.3778C13.85 13.9995 13.681 13.6628 13.3216 13.3412C12.9497 13.0083 12.4077 12.727 11.7769 12.5087C11.5932 12.4451 11.4172 12.3874 11.2451 12.3311L11.2122 12.3203C11.0533 12.2684 10.8953 12.2167 10.7457 12.165C10.4306 12.0561 10.1085 11.9323 9.82225 11.7659C9.52708 11.5943 9.24956 11.366 9.04175 11.039C8.83422 10.7125 8.72853 10.3384 8.69666 9.92419C8.6024 8.69872 9.50978 7.78391 10.646 7.4111C10.8445 7.34596 11.0537 7.29498 11.2722 7.25909V6H12.7722V7.2434Z" fill="#10181B"/>
</svg>
