<svg width="16" height="16" viewBox="0 0 16 16" fill="none" xmlns="http://www.w3.org/2000/svg">
<path d="M8.06372 1.05017C7.64951 1.05017 7.31372 1.38596 7.31372 1.80017C7.31372 2.21438 7.64951 2.55017 8.06372 2.55017H11.9999C12.8068 2.55017 13.2197 2.64287 13.4346 2.78787C13.5681 2.87799 13.744 3.06941 13.744 3.74651V8.52671C13.744 8.94092 14.0798 9.27671 14.494 9.27671C14.9082 9.27671 15.244 8.94092 15.244 8.52671V3.74651C15.244 2.80451 14.9824 2.02276 14.2736 1.54449C13.6462 1.1211 12.812 1.05017 11.9999 1.05017H8.06372Z" fill="#10181B"/>
<path d="M13.5465 14.5653C14.8364 13.9204 14.8364 12.0797 13.5465 11.4348L12.25 10.7865V12.2501H8V13.7501H12.25V15.2135L13.5465 14.5653Z" fill="#10181B"/>
<path d="M7.8978 7.69707C7.8978 8.4881 7.25654 9.12936 6.4655 9.12936C5.67446 9.12936 5.0332 8.4881 5.0332 7.69707C5.0332 6.90603 5.67446 6.26477 6.4655 6.26477C7.25654 6.26477 7.8978 6.90603 7.8978 7.69707Z" fill="#10181B"/>
<path fill-rule="evenodd" clip-rule="evenodd" d="M1.25 5.90368C1.25 4.82473 2.12466 3.95007 3.20361 3.95007H9.7332C10.8122 3.95007 11.6868 4.82474 11.6868 5.90368V9.49646C11.6868 10.5754 10.8122 11.4501 9.7332 11.4501H3.20361C2.12466 11.4501 1.25 10.5754 1.25 9.49646V5.90368ZM3.20361 5.45007C2.95309 5.45007 2.75 5.65316 2.75 5.90368V9.49646C2.75 9.74698 2.95309 9.95007 3.20361 9.95007H9.7332C9.98372 9.95007 10.1868 9.74699 10.1868 9.49646V5.90368C10.1868 5.65316 9.98372 5.45007 9.7332 5.45007H3.20361Z" fill="#10181B"/>
</svg>
