<svg width="16" height="16" viewBox="0 0 16 16" fill="none" xmlns="http://www.w3.org/2000/svg">
<path fill-rule="evenodd" clip-rule="evenodd" d="M0.783691 2.6267C0.783691 1.60884 1.60884 0.783691 2.6267 0.783691H10.3707C11.3885 0.783691 12.2137 1.60884 12.2137 2.6267V10.3707C12.2137 11.3885 11.3885 12.2137 10.3707 12.2137H2.6267C1.60884 12.2137 0.783691 11.3885 0.783691 10.3707V2.6267ZM4.85644 5.62155C5.04749 5.60536 5.2255 5.51803 5.35523 5.37684C5.48496 5.23566 5.55694 5.05091 5.55694 4.85918C5.55694 4.66744 5.48496 4.48269 5.35523 4.34151C5.2255 4.20032 5.04749 4.11299 4.85644 4.0968C4.7509 4.08786 4.64465 4.10092 4.54442 4.13518C4.44419 4.16943 4.35217 4.22412 4.27417 4.29578C4.19617 4.36745 4.13391 4.45453 4.09132 4.55151C4.04872 4.64849 4.02673 4.75325 4.02673 4.85918C4.02673 4.9651 4.04872 5.06986 4.09132 5.16684C4.13391 5.26382 4.19617 5.3509 4.27417 5.42257C4.35217 5.49423 4.44419 5.54892 4.54442 5.58317C4.64465 5.61743 4.7509 5.63049 4.85644 5.62155ZM3.03658 8.77489V9.58918C3.03658 9.74766 3.03658 9.90069 3.3153 9.90069H9.50174C9.84604 9.90069 9.95534 9.90069 9.95534 9.70941V7.17362C9.64219 6.78451 9.3006 6.41917 8.93337 6.08061C8.80846 5.95257 8.64072 5.87508 8.46225 5.86298C8.28377 5.85088 8.10711 5.90502 7.96606 6.01503C7.78056 6.1408 7.43407 6.4384 7.11287 6.71428C6.87577 6.91793 6.65243 7.10976 6.51782 7.21188C6.38987 7.31432 6.23086 7.37013 6.06695 7.37013C5.90305 7.37013 5.74403 7.31432 5.61609 7.21188C5.32644 7.02607 5.06958 6.90037 4.74168 7.21188C4.41377 7.52339 3.03658 8.77489 3.03658 8.77489Z" fill="#10181B"/>
<path d="M14.75 4C14.75 3.58579 14.4142 3.25 14 3.25C13.5858 3.25 13.25 3.58579 13.25 4V12C13.25 12.6858 12.6858 13.25 12 13.25H4C3.58579 13.25 3.25 13.5858 3.25 14C3.25 14.4142 3.58579 14.75 4 14.75H12C13.5142 14.75 14.75 13.5142 14.75 12V4Z" fill="#10181B"/>
</svg>
