<svg width="16" height="16" viewBox="0 0 16 16" fill="none" xmlns="http://www.w3.org/2000/svg">
<path d="M7.35028 9.71061L10.149 6.91189C10.3484 7.15839 10.5045 7.45583 10.5045 7.87982V8.44879C10.4944 9.29187 9.96182 10.0729 9.09538 10.4958L8.42139 10.8248L9.07935 12.1728L9.75334 11.8438C10.9974 11.2365 11.9176 10.0546 11.9988 8.62982H12.0045V8.45699L12.0047 8.42432V7.67432H11.9979C11.9419 6.81666 11.5431 6.22268 11.2142 5.84672L12.018 5.04285C12.7207 5.63598 13.2498 6.61743 13.2498 7.87969V8.45603C13.2382 10.1819 12.2783 11.6437 10.9167 12.3304L10.2471 12.6682L10.9226 14.0075L11.5922 13.6697C13.4163 12.7497 14.6731 10.8432 14.7465 8.62969H14.7498V8.46074L14.7499 8.42432V7.67432H14.7463C14.6926 6.1195 14.0317 4.82729 13.0813 3.97959L15.0608 2.00011L14.0001 0.939453L1.93945 13.0001L3.00011 14.0608L5.27345 11.7874L7.35028 12.6631L7.35028 9.71061Z" fill="#10181B"/>
<path d="M5.63483 6.94745L7.13483 5.44745V1.51587L3.17154 4.43561H1.25V9.01041L3.54516 9.01107C3.5538 9.01108 3.56247 9.01109 3.57118 9.0111L5.07054 7.51173H4.64704C4.35048 7.51173 3.91154 7.5114 3.54652 7.51107L2.75 7.51041V5.93561H3.66441L5.63483 4.48401V6.94745Z" fill="#10181B"/>
</svg>
