<svg width="16" height="16" viewBox="0 0 16 16" fill="none" xmlns="http://www.w3.org/2000/svg">
<path fill-rule="evenodd" clip-rule="evenodd" d="M7.98114 5.58667C6.25326 5.58667 4.85254 6.9874 4.85254 8.71528C4.85254 10.4432 6.25326 11.8439 7.98114 11.8439C9.70902 11.8439 11.1098 10.4432 11.1098 8.71528C11.1098 6.98739 9.70902 5.58667 7.98114 5.58667ZM6.35254 8.71528C6.35254 7.81582 7.08169 7.08667 7.98114 7.08667C8.8806 7.08667 9.60976 7.81582 9.60976 8.71528C9.60976 9.61473 8.8806 10.3439 7.98114 10.3439C7.08169 10.3439 6.35254 9.61473 6.35254 8.71528Z" fill="#10181B"/>
<path fill-rule="evenodd" clip-rule="evenodd" d="M1.00342 5.1719C1.00342 4.61962 1.45113 4.1719 2.00342 4.1719H3.83323C4.20431 4.1719 4.54489 3.96641 4.71789 3.63812L5.29885 2.53573C5.4724 2.20643 5.81449 2.00077 6.18673 2.00196L9.82121 2.01361C10.1983 2.01482 10.5426 2.22801 10.7117 2.565L11.2415 3.6205C11.4112 3.95852 11.7571 4.1719 12.1353 4.1719H13.9964C14.5487 4.1719 14.9964 4.61962 14.9964 5.1719V12.9999C14.9964 13.5522 14.5487 13.9999 13.9964 13.9999H2.00342C1.45113 13.9999 1.00342 13.5522 1.00342 12.9999V5.1719ZM12.1353 5.6719H13.4964V12.4999H2.50342V5.6719H3.83323C4.76094 5.6719 5.61238 5.15817 6.0449 4.33745L6.4847 3.50292L9.50903 3.51261L9.90093 4.2934C10.3251 5.13845 11.1897 5.6719 12.1353 5.6719Z" fill="#10181B"/>
</svg>
