<svg width="16" height="16" viewBox="0 0 16 16" fill="none" xmlns="http://www.w3.org/2000/svg">
<path d="M6.59863 8.71528C6.59863 7.95389 7.21585 7.33667 7.97724 7.33667C8.73862 7.33667 9.35585 7.9539 9.35585 8.71528C9.35585 9.47666 8.73862 10.0939 7.97724 10.0939C7.21585 10.0939 6.59863 9.47666 6.59863 8.71528Z" fill="#10181B"/>
<path fill-rule="evenodd" clip-rule="evenodd" d="M2 4.1719C1.44772 4.1719 1 4.61962 1 5.1719V12.9999C1 13.5522 1.44772 13.9999 2 13.9999H13.993C14.5453 13.9999 14.993 13.5522 14.993 12.9999V5.1719C14.993 4.61962 14.5453 4.1719 13.993 4.1719H12.1318C11.7536 4.1719 11.4078 3.95852 11.2381 3.6205L10.7083 2.565C10.5392 2.22801 10.1949 2.01482 9.81779 2.01361L6.18331 2.00196C5.81107 2.00077 5.46898 2.20643 5.29544 2.53573L4.71448 3.63812C4.54147 3.96641 4.20089 4.1719 3.82981 4.1719H2ZM7.97724 5.33667C6.11128 5.33667 4.59863 6.84933 4.59863 8.71528C4.59863 10.5812 6.11128 12.0939 7.97724 12.0939C9.84318 12.0939 11.3558 10.5812 11.3558 8.71528C11.3558 6.84932 9.84318 5.33667 7.97724 5.33667Z" fill="#10181B"/>
</svg>
