<svg width="16" height="16" viewBox="0 0 16 16" fill="none" xmlns="http://www.w3.org/2000/svg">
<path d="M6.33996 7.45188C6.85832 7.45188 7.27854 7.03166 7.27854 6.5133C7.27854 5.99493 6.85832 5.57471 6.33996 5.57471C5.82159 5.57471 5.40137 5.99493 5.40137 6.5133C5.40137 7.03166 5.82159 7.45188 6.33996 7.45188Z" fill="#10181B"/>
<path fill-rule="evenodd" clip-rule="evenodd" d="M8.30887 1.12378C4.71225 1.12378 2.99515 2.91202 2.56827 4.14357C2.12004 4.30228 1.78059 4.45987 1.5563 4.59307L1.19359 4.80846L1.13086 10.96L1.54007 11.1723C1.77385 11.2936 2.10726 11.4401 2.52559 11.5918C2.78884 12.9062 4.34476 14.8762 8.03224 14.8762C11.5812 14.8762 13.2792 12.9746 13.7441 11.6742C14.2944 11.4814 14.7224 11.2895 15.0028 11.1359L15.3926 10.9225V4.81994L15.0371 4.60007C14.7783 4.43999 14.3612 4.24667 13.7938 4.05833C13.4677 2.80286 11.865 1.12378 8.30887 1.12378ZM8.30887 2.62378C6.61291 2.62378 5.52962 3.07517 4.86789 3.56778C5.84382 3.40296 7.00351 3.29175 8.3312 3.29175C9.61528 3.29175 10.7363 3.39579 11.6833 3.55211C11.1061 3.08252 10.0776 2.62378 8.30887 2.62378ZM11.5366 12.2606C10.5837 12.4427 9.49154 12.5667 8.30433 12.5667C6.87254 12.5667 5.56931 12.39 4.47909 12.1505C5.01487 12.7423 6.0704 13.3762 8.03224 13.3762C9.77933 13.3762 10.8795 12.8384 11.5366 12.2606ZM2.68452 5.70574L2.64044 10.0284C2.9381 10.1518 3.33023 10.293 3.80123 10.4306C4.42214 9.85587 5.36648 8.98434 5.64451 8.74161C6.06992 8.37023 6.33325 8.51878 6.67087 8.73486C7.0085 8.95094 7.35288 9.03872 7.72426 8.76187C7.89263 8.63636 8.17897 8.39011 8.47694 8.13385C8.83622 7.82486 9.21241 7.50132 9.41912 7.35736C9.79726 7.09402 10.1484 7.11428 10.5535 7.43164C10.881 7.68813 12.5448 9.5721 13.171 10.2854C13.4528 10.1889 13.6949 10.0941 13.8926 10.0081V5.69713C13.0726 5.3414 11.1943 4.79175 8.3312 4.79175C5.45733 4.79175 3.5324 5.34568 2.68452 5.70574Z" fill="#10181B"/>
</svg>
