<svg width="24" height="24" viewBox="0 0 24 24" fill="none" xmlns="http://www.w3.org/2000/svg">
<path d="M15.786 4.09839L15.1883 5.47677C17.6021 6.69362 19.2578 9.19466 19.2578 12.0824C19.2578 14.9812 17.5894 17.4903 15.1605 18.7019L15.7582 20.0801C18.7184 18.6363 20.7578 15.5975 20.7578 12.0824C20.7578 8.5783 18.7311 5.54755 15.786 4.09839Z" fill="#10181B"/>
<path d="M14.2788 7.57401L13.6816 8.95113C14.8503 9.5085 15.6579 10.701 15.6579 12.0821C15.6579 13.4743 14.8373 14.6748 13.6533 15.2264L14.2504 16.6032C15.9657 15.8207 17.1579 14.0906 17.1579 12.0821C17.1579 10.0847 15.9789 8.36266 14.2788 7.57401Z" fill="#10181B"/>
<path fill-rule="evenodd" clip-rule="evenodd" d="M11.3801 5.56641V18.4136L6.30603 14.72H3.8501V9.26003H6.30603L11.3801 5.56641ZM9.8801 8.51365V15.4664L6.79417 13.22H5.3501V10.76H6.79417L9.8801 8.51365Z" fill="#10181B"/>
</svg>
