<svg width="16" height="16" viewBox="0 0 16 16" fill="none" xmlns="http://www.w3.org/2000/svg">
<path d="M7.71102 6.91588C7.91917 6.75263 8.1744 6.65808 8.46801 6.65808C9.06835 6.65808 9.56642 7.0848 9.67268 7.66012H8.22044L10.4289 9.8612L12.63 7.66012H11.1842C11.0682 6.25547 9.90036 5.15808 8.46801 5.15808C7.83348 5.15808 7.25339 5.36849 6.78531 5.7356L6.19517 6.19846L7.12088 7.37874L7.71102 6.91588Z" fill="#10181B"/>
<path d="M4.74576 9.52257C4.84108 10.9156 5.99237 12.0098 7.40739 12.0098C8.02839 12.0098 8.59631 11.8038 9.05453 11.4445L9.64467 10.9816L8.71896 9.80132L8.12882 10.2642C7.93054 10.4197 7.68747 10.5098 7.40739 10.5098C6.82413 10.5098 6.34213 10.0872 6.25384 9.52257H7.71251L7.70516 9.5152H7.71251L5.51142 7.30676L3.30298 9.5152H3.31035L3.30298 9.52257H4.74576Z" fill="#10181B"/>
<path fill-rule="evenodd" clip-rule="evenodd" d="M1.00354 4.78324C1.00354 4.23096 1.45126 3.78324 2.00354 3.78324H3.83335C4.20443 3.78324 4.54501 3.57775 4.71802 3.24946L5.29898 2.14706C5.47252 1.81775 5.81461 1.61209 6.18685 1.61329L9.82133 1.62494C10.1984 1.62614 10.5427 1.83934 10.7119 2.17633L11.2417 3.23184C11.4113 3.56986 11.7572 3.78324 12.1354 3.78324H13.9966C14.5488 3.78324 14.9966 4.23096 14.9966 4.78324L14.9966 13.3887C14.9966 13.941 14.5488 14.3887 13.9966 14.3887H2.00354C1.45126 14.3887 1.00354 13.941 1.00354 13.3887V4.78324ZM12.1354 5.28324H13.4966L13.4966 12.8887H2.50354L2.50354 5.28324H3.83335C4.76107 5.28324 5.6125 4.76951 6.04502 3.94879L6.48482 3.11425L9.50915 3.12394L9.90106 3.90473C10.3252 4.74979 11.1899 5.28324 12.1354 5.28324Z" fill="#10181B"/>
</svg>
