<svg width="24" height="24" viewBox="0 0 24 24" fill="none" xmlns="http://www.w3.org/2000/svg">
<path fill-rule="evenodd" clip-rule="evenodd" d="M2.25 5C2.25 3.48122 3.48122 2.25 5 2.25H15.96C17.4788 2.25 18.71 3.48122 18.71 5V15.96C18.71 17.4788 17.4788 18.71 15.96 18.71H5C3.48122 18.71 2.25 17.4788 2.25 15.96V5ZM8 9.16C8.63 9.16 9.14999 8.65 9.14999 8.01C9.14999 7.37 8.63 6.86 8 6.86C7.37 6.86 6.85 7.38 6.85 8.01C6.85 8.64 7.37 9.16 8 9.16ZM15.21 15.73L15.3025 15.7301C15.7696 15.7312 15.92 15.7316 15.92 15.44V11.45C15.92 11.45 14.85 10.13 14.31 9.7C13.77 9.27 13.29 9.25 12.79 9.6C12.4917 9.79886 11.9335 10.2782 11.4213 10.718C11.0578 11.0301 10.7176 11.3223 10.51 11.48C10.01 11.86 9.55 11.73 9.1 11.45C8.64 11.16 8.27999 10.96 7.71999 11.46C7.15999 11.96 5.03999 13.96 5.03999 13.96V15.25C5.03999 15.49 5.04 15.73 5.48 15.73H15.21Z" fill="#10181B"/>
<path d="M21.72 5.97C21.72 5.55579 21.3842 5.22 20.97 5.22C20.5558 5.22 20.22 5.55579 20.22 5.97V17.97C20.22 19.2058 19.2058 20.22 17.97 20.22H5.96999C5.55578 20.22 5.21999 20.5558 5.21999 20.97C5.21999 21.3842 5.55578 21.72 5.96999 21.72H17.97C20.0342 21.72 21.72 20.0342 21.72 17.97V5.97Z" fill="#10181B"/>
</svg>
