<svg width="24" height="24" viewBox="0 0 24 24" fill="none" xmlns="http://www.w3.org/2000/svg">
<path d="M15.7861 4.09839L15.1884 5.47677C17.6023 6.69358 19.2581 9.19467 19.2581 12.0825C19.2581 14.9814 17.5896 17.4906 15.1606 18.7021L15.7583 20.0803C18.7185 18.6366 20.7581 15.5977 20.7581 12.0825C20.7581 8.57832 18.7313 5.54751 15.7861 4.09839Z" fill="#10181B"/>
<path d="M14.2788 7.5742L13.6816 8.95132C14.8502 9.50874 15.6577 10.7012 15.6577 12.0822C15.6577 13.4743 14.8372 14.6748 13.6533 15.2264L14.2504 16.6032C15.9656 15.8206 17.1577 14.0906 17.1577 12.0822C17.1577 10.0849 15.9788 8.36289 14.2788 7.5742Z" fill="#10181B"/>
<path d="M10.8598 5.56421L5.79529 9.25996H3.33984V14.72H5.79529L10.8598 18.4157V5.56421Z" fill="#10181B"/>
</svg>
