<svg width="16" height="16" viewBox="0 0 16 16" fill="none" xmlns="http://www.w3.org/2000/svg">
<path fill-rule="evenodd" clip-rule="evenodd" d="M7.35028 8.5957L7.35028 12.6631L3.92139 11.2174L7.35028 8.5957Z" fill="#10181B"/>
<path d="M2 6.65014L2 8.26047H2.89005C2.89005 8.26047 3.1077 8.26179 3.70157 8.26179L6.38483 5.6125V3L3.41798 5.18567H2V6.64278" fill="#10181B"/>
<path fill-rule="evenodd" clip-rule="evenodd" d="M7.13483 1.51587V5.61244C7.13483 5.81301 7.05449 6.00522 6.91177 6.14613L4.22851 8.79543C4.08815 8.93402 3.89883 9.01173 3.70157 9.01173C3.40409 9.01173 3.20056 9.0114 3.07119 9.01107L2.93021 9.01061L2.88847 9.01042L1.25 9.01041V4.43561H3.17154L7.13483 1.51587ZM2.75 5.93561V7.51041H2.8946L2.93646 7.51062L3.07503 7.51107C3.15254 7.51127 3.25734 7.51147 3.39384 7.5116L5.63483 5.29898V4.48401L3.66441 5.93561H2.75Z" fill="#10181B"/>
<path fill-rule="evenodd" clip-rule="evenodd" d="M14.0002 7.25C14.4144 7.25 14.7502 7.58579 14.7502 8C14.7502 10.4878 13.3689 12.6453 11.3379 13.6697C10.9681 13.8562 10.517 13.7076 10.3305 13.3377C10.144 12.9679 10.2926 12.5169 10.6624 12.3304C12.183 11.5634 13.2502 9.9269 13.2502 8C13.2502 7.58579 13.5859 7.25 14.0002 7.25Z" fill="#10181B"/>
<path fill-rule="evenodd" clip-rule="evenodd" d="M15.0608 2.00011L3.00011 14.0608L1.93945 13.0001L14.0001 0.939453L15.0608 2.00011Z" fill="#10181B"/>
<path fill-rule="evenodd" clip-rule="evenodd" d="M9.50237 5.46797C9.79526 5.17507 10.2701 5.17506 10.563 5.46795C10.5733 5.47821 10.584 5.48884 10.595 5.49986C10.9614 5.86489 11.7501 6.65067 11.7501 7.99998C11.7501 8.41419 11.4143 8.74998 11.0001 8.74998C10.5858 8.74998 10.2501 8.41419 10.2501 7.99998C10.2501 7.27935 9.85179 6.87801 9.5024 6.52863C9.2095 6.23575 9.20949 5.76087 9.50237 5.46797Z" fill="#10181B"/>
<path fill-rule="evenodd" clip-rule="evenodd" d="M11.3771 3.58242C11.6078 3.23838 12.0737 3.14647 12.4177 3.37713C13.769 4.28307 14.7501 5.93857 14.7501 8.00008C14.7501 8.41429 14.4143 8.75008 14.0001 8.75008C13.5859 8.75008 13.2501 8.41429 13.2501 8.00008C13.2501 6.42862 12.5099 5.24488 11.5824 4.62303C11.2384 4.39236 11.1465 3.92647 11.3771 3.58242Z" fill="#10181B"/>
<path fill-rule="evenodd" clip-rule="evenodd" d="M11.75 7.25V8C11.75 9.62602 10.7334 10.9885 9.32903 11.674L8.65503 12.003L7.99707 10.655L8.67107 10.326C9.64685 9.84972 10.25 8.96222 10.25 8V7.25H11.75Z" fill="#10181B"/>
<path fill-rule="evenodd" clip-rule="evenodd" d="M14.7501 7.25V8C14.7501 10.4878 13.3688 12.6453 11.3378 13.6696L10.6682 14.0074L9.99268 12.6681L10.6623 12.3304C12.1829 11.5634 13.2501 9.9269 13.2501 8V7.25H14.7501Z" fill="#10181B"/>
</svg>
