<svg width="24" height="24" viewBox="0 0 24 24" fill="none" xmlns="http://www.w3.org/2000/svg">
<path fill-rule="evenodd" clip-rule="evenodd" d="M20.1246 5.30871L5.44396 19.9894L4.3833 18.9287L19.064 4.24805L20.1246 5.30871Z" fill="#10181B"/>
<path fill-rule="evenodd" clip-rule="evenodd" d="M16.6211 4.56678C16.3522 4.39628 16.0735 4.2398 15.7861 4.09839L15.1883 5.47677C15.3034 5.53479 15.4168 5.59572 15.5284 5.65948L16.6211 4.56678ZM14.1128 9.1964L15.188 8.12119C16.3847 9.0281 17.1578 10.4649 17.1578 12.0822C17.1578 14.0906 15.9657 15.8206 14.2506 16.6032L13.6535 15.2264C14.8373 14.6748 15.6578 13.4743 15.6578 12.0822C15.6578 10.8784 15.0442 9.81794 14.1128 9.1964ZM10.8598 10.328V5.56436L5.79529 9.26011H3.33984V11.2401V12.7401V14.7201H5.79529L6.18404 15.0038L10.8598 10.328ZM7.41043 15.8988L10.8598 12.4493V12.7401V18.4159L7.41043 15.8988ZM16.7638 6.54534L17.8261 5.48305C19.6267 7.11043 20.7582 9.46436 20.7582 12.0825C20.7582 15.5977 18.7187 18.6366 15.7584 20.0803L15.1608 18.7021C17.5897 17.4906 19.2582 14.9814 19.2582 12.0825C19.2582 9.87855 18.2937 7.89981 16.7638 6.54534Z" fill="#10181B"/>
</svg>
