<svg width="16" height="16" viewBox="0 0 16 16" fill="none" xmlns="http://www.w3.org/2000/svg">
<g clip-path="url(#clip0_44_47281)">
<path d="M5.85419 6.85755C6.40058 6.85755 6.84351 6.41462 6.84351 5.86823C6.84351 5.32184 6.40058 4.87891 5.85419 4.87891C5.3078 4.87891 4.86486 5.32184 4.86486 5.86823C4.86486 6.41462 5.3078 6.85755 5.85419 6.85755Z" fill="#10181B"/>
<path d="M3.72607 10.9003V11.9109C3.72607 12.1031 3.72607 12.2882 4.07483 12.2882H11.7047C11.7368 12.2882 11.7673 12.2883 11.7961 12.2884C12.1513 12.2898 12.267 12.2903 12.267 12.0533V8.92161C11.8879 8.43221 11.474 7.97075 11.0286 7.54083C10.8732 7.38403 10.6658 7.2895 10.4455 7.27507C10.2253 7.26065 10.0073 7.32733 9.83284 7.46254C9.6453 7.60227 9.27917 7.91109 8.91507 8.21821C8.57444 8.50553 8.23557 8.79136 8.04636 8.93585C7.88983 9.06423 7.69364 9.13439 7.4912 9.13439C7.28876 9.13439 7.09257 9.06423 6.93604 8.93585L6.92897 8.93127C6.56998 8.69896 6.33507 8.54694 5.86131 8.93585C5.38444 9.32731 3.72607 10.9003 3.72607 10.9003Z" fill="#10181B"/>
<path fill-rule="evenodd" clip-rule="evenodd" d="M0.783691 2.95718C0.783691 1.7568 1.7568 0.783691 2.95718 0.783691H13.0426C14.243 0.783691 15.2161 1.7568 15.2161 2.95718V13.0426C15.2161 14.243 14.243 15.2161 13.0426 15.2161H2.95718C1.7568 15.2161 0.783691 14.243 0.783691 13.0426V2.95718ZM2.95718 2.28369C2.58522 2.28369 2.28369 2.58522 2.28369 2.95718V13.0426C2.28369 13.4145 2.58522 13.7161 2.95718 13.7161H13.0426C13.4145 13.7161 13.7161 13.4145 13.7161 13.0426V2.95718C13.7161 2.58522 13.4145 2.28369 13.0426 2.28369H2.95718Z" fill="#10181B"/>
</g>
<defs>
<clipPath id="clip0_44_47281">
<rect width="16" height="16" fill="white"/>
</clipPath>
</defs>
</svg>
