<svg width="24" height="24" viewBox="0 0 24 24" fill="none" xmlns="http://www.w3.org/2000/svg">
<path d="M8.0001 9.1501C8.63523 9.1501 9.1501 8.63523 9.1501 8.0001C9.1501 7.36497 8.63523 6.8501 8.0001 6.8501C7.36497 6.8501 6.8501 7.36497 6.8501 8.0001C6.8501 8.63523 7.36497 9.1501 8.0001 9.1501Z" fill="#10181B"/>
<path d="M5.54004 13.8201V14.9801C5.54004 14.9801 5.54004 14.9801 5.54004 14.9801C5.54004 15.2001 5.54004 15.4201 5.94004 15.4201H14.76C14.791 15.4201 14.8207 15.4201 14.849 15.4202C15.2696 15.4213 15.41 15.4217 15.41 15.1501V11.5301C15.41 11.5301 14.44 10.3401 13.95 9.95006C13.46 9.56006 13.03 9.54006 12.57 9.86006C12.3119 10.0396 11.8334 10.449 11.3836 10.8338C11.0318 11.1348 10.6975 11.4208 10.5 11.5701C10.05 11.9101 9.63004 11.8101 9.22004 11.5401C8.81004 11.2701 8.48004 11.0801 7.97004 11.5401C7.46004 12.0001 5.54004 13.8201 5.54004 13.8201Z" fill="#10181B"/>
<path fill-rule="evenodd" clip-rule="evenodd" d="M5 2.25C3.48122 2.25 2.25 3.48122 2.25 5V15.95C2.25 17.4688 3.48122 18.7 5 18.7H15.95C17.4688 18.7 18.7 17.4688 18.7 15.95V5C18.7 3.48122 17.4688 2.25 15.95 2.25H5ZM3.75 5C3.75 4.30964 4.30964 3.75 5 3.75H15.95C16.6404 3.75 17.2 4.30964 17.2 5V15.95C17.2 16.6404 16.6404 17.2 15.95 17.2H5C4.30964 17.2 3.75 16.6404 3.75 15.95V5Z" fill="#10181B"/>
<path d="M21.72 5.95996C21.72 5.54575 21.3842 5.20996 20.97 5.20996C20.5558 5.20996 20.22 5.54575 20.22 5.95996V17.96C20.22 19.1957 19.2058 20.21 17.97 20.21H5.96997C5.55576 20.21 5.21997 20.5457 5.21997 20.96C5.21997 21.3742 5.55576 21.71 5.96997 21.71H17.97C20.0342 21.71 21.72 20.0242 21.72 17.96V5.95996Z" fill="#10181B"/>
</svg>
