<svg width="24" height="24" viewBox="0 0 24 24" fill="none" xmlns="http://www.w3.org/2000/svg">
<g clip-path="url(#clip0_44_47274)">
<path d="M8.82008 10.23C9.58775 10.23 10.2101 9.60763 10.2101 8.83995C10.2101 8.07228 9.58775 7.44995 8.82008 7.44995C8.0524 7.44995 7.43008 8.07228 7.43008 8.83995C7.43008 9.60763 8.0524 10.23 8.82008 10.23Z" fill="#10181B"/>
<path d="M5.83008 15.91V17.33C5.83008 17.6 5.83008 17.86 6.32008 17.86H17.0401C17.0852 17.86 17.1279 17.8601 17.1685 17.8603C17.6676 17.8623 17.8301 17.8629 17.8301 17.53V13.13C17.2974 12.4423 16.7159 11.794 16.0901 11.19C15.8718 10.9696 15.5804 10.8368 15.2709 10.8166C14.9614 10.7963 14.6552 10.89 14.4101 11.08C14.1466 11.2763 13.6322 11.7102 13.1206 12.1417C12.642 12.5454 12.1659 12.9469 11.9001 13.15C11.6802 13.3303 11.4045 13.4289 11.1201 13.4289C10.8356 13.4289 10.56 13.3303 10.3401 13.15L10.3301 13.1435C9.82577 12.8171 9.49572 12.6035 8.83008 13.15C8.16008 13.7 5.83008 15.91 5.83008 15.91Z" fill="#10181B"/>
<path fill-rule="evenodd" clip-rule="evenodd" d="M2 4.75C2 3.23122 3.23122 2 4.75 2H18.92C20.4388 2 21.67 3.23122 21.67 4.75V18.92C21.67 20.4388 20.4388 21.67 18.92 21.67H4.75C3.23122 21.67 2 20.4388 2 18.92V4.75ZM4.75 3.5C4.05964 3.5 3.5 4.05964 3.5 4.75V18.92C3.5 19.6104 4.05964 20.17 4.75 20.17H18.92C19.6104 20.17 20.17 19.6104 20.17 18.92V4.75C20.17 4.05964 19.6104 3.5 18.92 3.5H4.75Z" fill="#10181B"/>
</g>
<defs>
<clipPath id="clip0_44_47274">
<rect width="19.67" height="19.67" fill="white" transform="translate(2 2)"/>
</clipPath>
</defs>
</svg>
