<svg width="16" height="16" viewBox="0 0 16 16" fill="none" xmlns="http://www.w3.org/2000/svg">
<path d="M10.5655 1.05078L9.96851 2.42734C12.1097 3.33435 13.6118 5.45524 13.6118 7.92696C13.6118 10.4077 12.0986 12.5351 9.94492 13.4365L10.5419 14.8131C13.227 13.6809 15.1118 11.024 15.1118 7.92696C15.1118 4.83896 13.238 2.18859 10.5655 1.05078Z" fill="#10181B"/>
<path d="M9.31462 3.9352L8.71531 5.31716C9.83036 5.66054 10.6408 6.69896 10.6408 7.92667C10.6408 9.16348 9.81828 10.2082 8.69043 10.5437L9.29016 11.9266C10.949 11.3547 12.1408 9.77985 12.1408 7.92667C12.1408 6.0826 10.9607 4.51415 9.31462 3.9352Z" fill="#10181B"/>
<path d="M6.75 2.33252V13.6675L3.00889 10.35H1.25V5.65H3.00889L6.75 2.33252Z" fill="#10181B"/>
</svg>
