<svg width="24" height="24" viewBox="0 0 24 24" fill="none" xmlns="http://www.w3.org/2000/svg">
<path fill-rule="evenodd" clip-rule="evenodd" d="M5 2.25C3.48122 2.25 2.25 3.48122 2.25 5V19.17C2.25 20.6888 3.48122 21.92 5 21.92H19.17C20.6888 21.92 21.92 20.6888 21.92 19.17V5C21.92 3.48122 20.6888 2.25 19.17 2.25H5ZM9.99268 10.0322C9.75531 10.2906 9.42959 10.4504 9.08 10.48C8.88688 10.4964 8.69246 10.4725 8.50906 10.4098C8.32566 10.3471 8.15727 10.247 8.01455 10.1159C7.87184 9.98476 7.7579 9.82543 7.67996 9.64797C7.60203 9.47052 7.56178 9.27881 7.56178 9.085C7.56178 8.89118 7.60203 8.69948 7.67996 8.52203C7.7579 8.34457 7.87184 8.18524 8.01455 8.0541C8.15727 7.92297 8.32566 7.8229 8.50906 7.76022C8.69246 7.69755 8.88688 7.67363 9.08 7.69C9.42959 7.71962 9.75531 7.87943 9.99268 8.13777C10.2301 8.39611 10.3618 8.73416 10.3618 9.085C10.3618 9.43584 10.2301 9.77389 9.99268 10.0322ZM5.75 17.74V16.25C5.75 16.25 8.27 13.96 8.87 13.39C9.47 12.82 9.94 13.05 10.47 13.39C10.7041 13.5774 10.9951 13.6796 11.295 13.6796C11.5949 13.6796 11.8859 13.5774 12.12 13.39C12.3663 13.2031 12.7749 12.8522 13.2088 12.4795C13.7965 11.9747 14.4306 11.4301 14.77 11.2C15.0281 10.9987 15.3514 10.8996 15.6779 10.9218C16.0045 10.9439 16.3114 11.0857 16.54 11.32C17.212 11.9395 17.837 12.608 18.41 13.32V17.96C18.41 18.31 18.21 18.31 17.58 18.31H6.26C5.75 18.31 5.75 18.03 5.75 17.74Z" fill="#10181B"/>
</svg>
