<svg width="24" height="24" viewBox="0 0 24 24" fill="none" xmlns="http://www.w3.org/2000/svg">
<path d="M11.1129 9.53008C11.4929 9.23201 11.9605 9.05994 12.49 9.05994C13.5145 9.05994 14.3748 9.74395 14.6375 10.6899H12.45L15.45 13.6799L18.44 10.6899H16.1711C15.8822 8.90972 14.3487 7.55994 12.49 7.55994C11.6195 7.55994 10.8271 7.84786 10.1872 8.3498L9.59702 8.81265L10.5227 9.99293L11.1129 9.53008Z" fill="#10181B"/>
<path d="M8.04225 13.2199C8.33931 14.9902 9.86829 16.3299 11.72 16.3299C12.5905 16.3299 13.3829 16.042 14.0229 15.54L14.613 15.0772L13.6873 13.8969L13.0972 14.3598C12.7171 14.6578 12.2496 14.8299 11.72 14.8299C10.7027 14.8299 9.84737 14.1555 9.57816 13.2199H11.76L11.75 13.2099H11.76L8.77002 10.2099L5.77002 13.2099H5.78003L5.77002 13.2199H8.04225Z" fill="#10181B"/>
<path fill-rule="evenodd" clip-rule="evenodd" d="M2.11432 7.01299C2.11432 6.4607 2.56203 6.01299 3.11432 6.01299H6.37506C6.74615 6.01299 7.08672 5.80749 7.25973 5.47921L8.31775 3.47158C8.49129 3.14228 8.83338 2.93662 9.20562 2.93781L14.8636 2.95594C15.2406 2.95715 15.5849 3.17035 15.7541 3.50734L16.735 5.46158C16.9047 5.79961 17.2505 6.01299 17.6287 6.01299H20.9396C21.4919 6.01299 21.9396 6.4607 21.9396 7.01299V18.9373C21.9396 19.4896 21.4919 19.9373 20.9396 19.9373H3.11432C2.56203 19.9373 2.11432 19.4896 2.11432 18.9373V7.01299ZM17.6287 7.51298H20.4396V18.4373H3.61432V7.51298H6.37506C7.30278 7.51298 8.15421 6.99926 8.58673 6.17854L9.50359 4.43877L14.5514 4.45495L15.3944 6.13448C15.8186 6.97954 16.6832 7.51298 17.6287 7.51298Z" fill="#10181B"/>
</svg>
