<svg width="16" height="16" viewBox="0 0 16 16" fill="none" xmlns="http://www.w3.org/2000/svg">
<path d="M3.33921 2.75C3.01686 2.75 2.75 3.01686 2.75 3.33921V6.07119C2.75 6.4854 2.41421 6.82119 2 6.82119C1.58579 6.82119 1.25 6.4854 1.25 6.07119V3.33921C1.25 2.18843 2.18843 1.25 3.33921 1.25H6.07119C6.4854 1.25 6.82119 1.58579 6.82119 2C6.82119 2.41421 6.4854 2.75 6.07119 2.75H3.33921Z" fill="#10181B"/>
<path d="M2.00684 9.3186C2.42105 9.3186 2.75684 9.65439 2.75684 10.0686V12.8207C2.75684 13.143 3.02369 13.4099 3.34604 13.4099H6.07803C6.49224 13.4099 6.82803 13.7457 6.82803 14.1599C6.82803 14.5741 6.49224 14.9099 6.07803 14.9099H3.34604C2.19527 14.9099 1.25684 13.9715 1.25684 12.8207V10.0686C1.25684 9.65439 1.59262 9.3186 2.00684 9.3186Z" fill="#10181B"/>
<path d="M10.0957 1.25C9.68149 1.25 9.3457 1.58579 9.3457 2C9.3457 2.41421 9.68149 2.75 10.0957 2.75H12.8277C13.15 2.75 13.4169 3.01686 13.4169 3.33921V6.0578C13.4169 6.47201 13.7527 6.8078 14.1669 6.8078C14.5811 6.8078 14.9169 6.47201 14.9169 6.0578V3.33921C14.9169 2.18843 13.9785 1.25 12.8277 1.25H10.0957Z" fill="#10181B"/>
<path d="M14.1669 9.3186C14.5811 9.3186 14.9169 9.65439 14.9169 10.0686V12.8207C14.9169 13.9715 13.9785 14.9099 12.8277 14.9099H10.0957C9.68149 14.9099 9.3457 14.5741 9.3457 14.1599C9.3457 13.7457 9.68149 13.4099 10.0957 13.4099H12.8277C13.15 13.4099 13.4169 13.143 13.4169 12.8207V10.0686C13.4169 9.65439 13.7527 9.3186 14.1669 9.3186Z" fill="#10181B"/>
<path fill-rule="evenodd" clip-rule="evenodd" d="M8.08662 4.65161C6.19316 4.65161 4.6582 6.18656 4.6582 8.08003C4.6582 9.97349 6.19316 11.5084 8.08662 11.5084C9.98008 11.5084 11.515 9.97349 11.515 8.08003C11.515 6.18656 9.98008 4.65161 8.08662 4.65161ZM6.1582 8.08003C6.1582 7.01499 7.02158 6.15161 8.08662 6.15161C9.15165 6.15161 10.015 7.01499 10.015 8.08003C10.015 9.14506 9.15165 10.0084 8.08662 10.0084C7.02158 10.0084 6.1582 9.14506 6.1582 8.08003Z" fill="#10181B"/>
</svg>
