<svg width="24" height="24" viewBox="0 0 24 24" fill="none" xmlns="http://www.w3.org/2000/svg">
<path d="M5 3.75C4.31421 3.75 3.75 4.31421 3.75 5V9.08C3.75 9.49421 3.41421 9.83 3 9.83C2.58579 9.83 2.25 9.49421 2.25 9.08V5C2.25 3.48579 3.48579 2.25 5 2.25H9.07999C9.49421 2.25 9.82999 2.58579 9.82999 3C9.82999 3.41421 9.49421 3.75 9.07999 3.75H5Z" fill="#10181B"/>
<path d="M3.00977 14.3C3.42398 14.3 3.75977 14.6358 3.75977 15.05V19.16C3.75977 19.8458 4.32398 20.41 5.00977 20.41H9.08977C9.50398 20.41 9.83977 20.7458 9.83977 21.16C9.83977 21.5743 9.50398 21.91 9.08977 21.91H5.00977C3.49555 21.91 2.25977 20.6743 2.25977 19.16V15.05C2.25977 14.6358 2.59555 14.3 3.00977 14.3Z" fill="#10181B"/>
<path d="M15.0898 2.25C14.6756 2.25 14.3398 2.58579 14.3398 3C14.3398 3.41421 14.6756 3.75 15.0898 3.75H19.1698C19.8556 3.75 20.4198 4.31421 20.4198 5V9.06C20.4198 9.47421 20.7556 9.81 21.1698 9.81C21.5841 9.81 21.9198 9.47421 21.9198 9.06V5C21.9198 3.48579 20.6841 2.25 19.1698 2.25H15.0898Z" fill="#10181B"/>
<path d="M21.1698 14.3C21.5841 14.3 21.9198 14.6358 21.9198 15.05V19.16C21.9198 20.6743 20.6841 21.91 19.1698 21.91H15.0898C14.6756 21.91 14.3398 21.5743 14.3398 21.16C14.3398 20.7458 14.6756 20.41 15.0898 20.41H19.1698C19.8556 20.41 20.4198 19.8458 20.4198 19.16V15.05C20.4198 14.6358 20.7556 14.3 21.1698 14.3Z" fill="#10181B"/>
<path fill-rule="evenodd" clip-rule="evenodd" d="M12.0898 7.33008C9.46649 7.33008 7.33984 9.45673 7.33984 12.0801C7.33984 14.7034 9.46649 16.8301 12.0898 16.8301C14.7132 16.8301 16.8398 14.7034 16.8398 12.0801C16.8398 9.45673 14.7132 7.33008 12.0898 7.33008ZM8.83984 12.0801C8.83984 10.2852 10.2949 8.83008 12.0898 8.83008C13.8848 8.83008 15.3398 10.2852 15.3398 12.0801C15.3398 13.875 13.8848 15.3301 12.0898 15.3301C10.2949 15.3301 8.83984 13.875 8.83984 12.0801Z" fill="#10181B"/>
</svg>
