<svg width="24" height="24" viewBox="0 0 24 24" fill="none" xmlns="http://www.w3.org/2000/svg">
<path d="M9.62988 12.4501C9.62988 11.1412 10.691 10.0801 11.9999 10.0801C13.3088 10.0801 14.3699 11.1412 14.3699 12.4501C14.3699 13.759 13.3088 14.8201 11.9999 14.8201C10.691 14.8201 9.62988 13.759 9.62988 12.4501Z" fill="#10181B"/>
<path fill-rule="evenodd" clip-rule="evenodd" d="M2.11426 7.01292C2.11426 6.46064 2.56197 6.01292 3.11426 6.01292H6.375C6.74609 6.01292 7.08666 5.80743 7.25967 5.47914L8.31768 3.47152C8.49123 3.14222 8.83332 2.93656 9.20556 2.93775L14.8635 2.95588C15.2406 2.95709 15.5849 3.17029 15.754 3.50728L16.7349 5.46152C16.9046 5.79955 17.2505 6.01292 17.6287 6.01292H20.9395C21.4918 6.01292 21.9395 6.46064 21.9395 7.01292V18.9373C21.9395 19.4895 21.4918 19.9373 20.9395 19.9373H3.11426C2.56197 19.9373 2.11426 19.4895 2.11426 18.9373V7.01292ZM11.9999 8.08008C9.58639 8.08008 7.62988 10.0366 7.62988 12.4501C7.62988 14.8636 9.58639 16.8201 11.9999 16.8201C14.4134 16.8201 16.3699 14.8636 16.3699 12.4501C16.3699 10.0366 14.4134 8.08008 11.9999 8.08008Z" fill="#10181B"/>
</svg>
