<svg width="24" height="24" viewBox="0 0 24 24" fill="none" xmlns="http://www.w3.org/2000/svg">
<path d="M9.09996 11.54C9.86764 11.54 10.49 10.9177 10.49 10.15C10.49 9.38233 9.86764 8.76001 9.09996 8.76001C8.33228 8.76001 7.70996 9.38233 7.70996 10.15C7.70996 10.9177 8.33228 11.54 9.09996 11.54Z" fill="#10181B"/>
<path fill-rule="evenodd" clip-rule="evenodd" d="M12.0154 2.52905C6.81041 2.52905 4.42564 5.10818 3.85377 6.76144C2.82205 7.0577 2.08048 7.36591 1.65024 7.60686L1.27144 7.81899L1.17725 16.5293L1.60266 16.7375C2.07986 16.971 2.84404 17.2745 3.83771 17.5748L3.7994 17.5827C4.14017 19.2392 6.30316 21.8003 11.6062 21.8003C16.7094 21.8003 19.1016 19.321 19.7322 17.6659C20.9006 17.321 21.7853 16.9592 22.3104 16.688L22.7162 16.4784V7.83041L22.3441 7.61335C21.8751 7.33976 21.0201 6.9826 19.8013 6.65357C19.4001 4.99604 17.2201 2.52905 12.0154 2.52905ZM12.0154 4.02905C8.56716 4.02905 6.72111 5.26219 5.85507 6.28911C7.51428 5.97191 9.59394 5.73975 12.0547 5.73975C14.389 5.73975 16.3668 5.94866 17.9633 6.24143C17.2814 5.28773 15.6104 4.02905 12.0154 4.02905ZM17.6381 18.1859C16.0285 18.5156 14.1186 18.754 12.0125 18.754C9.58449 18.754 7.39822 18.4437 5.62782 18.0445C6.28973 19.003 7.95634 20.3003 11.6062 20.3003C14.8927 20.3003 16.7238 19.1801 17.6381 18.1859ZM2.76167 8.73032L2.68759 15.5812C3.2182 15.8028 3.98218 16.0714 4.93339 16.3281C5.77518 15.5479 7.59082 13.8684 8.07001 13.45C8.70001 12.9 9.09 13.12 9.59 13.44C10.09 13.76 10.6 13.89 11.15 13.48C11.3994 13.2941 11.8234 12.9294 12.2647 12.5499C12.7967 12.0923 13.3539 11.6132 13.66 11.4C14.22 11.01 14.74 11.04 15.34 11.51C15.94 11.98 19.57 16.14 19.57 16.14C19.57 16.14 19.5666 16.1438 19.5595 16.1512C20.2458 15.9394 20.8053 15.7276 21.2162 15.5472V8.72098C19.9832 8.16375 16.875 7.23975 12.0547 7.23975C7.22235 7.23975 4.0377 8.16855 2.76167 8.73032Z" fill="#10181B"/>
</svg>
