<svg width="24" height="24" viewBox="0 0 24 24" fill="none" xmlns="http://www.w3.org/2000/svg">
<path fill-rule="evenodd" clip-rule="evenodd" d="M11.9999 8.33008C9.72446 8.33008 7.87988 10.1747 7.87988 12.4501C7.87988 14.7255 9.72446 16.5701 11.9999 16.5701C14.2753 16.5701 16.1199 14.7255 16.1199 12.4501C16.1199 10.1747 14.2753 8.33008 11.9999 8.33008ZM9.37988 12.4501C9.37988 11.0031 10.5529 9.83008 11.9999 9.83008C13.4469 9.83008 14.6199 11.0031 14.6199 12.4501C14.6199 13.8971 13.4469 15.0701 11.9999 15.0701C10.5529 15.0701 9.37988 13.8971 9.37988 12.4501Z" fill="#10181B"/>
<path fill-rule="evenodd" clip-rule="evenodd" d="M2.11426 7.01292C2.11426 6.46064 2.56197 6.01292 3.11426 6.01292H6.375C6.74609 6.01292 7.08666 5.80743 7.25967 5.47914L8.31768 3.47152C8.49123 3.14222 8.83332 2.93656 9.20556 2.93775L14.8635 2.95588C15.2406 2.95709 15.5849 3.17029 15.754 3.50728L16.7349 5.46152C16.9046 5.79955 17.2505 6.01292 17.6287 6.01292H20.9395C21.4918 6.01292 21.9395 6.46064 21.9395 7.01292V18.9373C21.9395 19.4895 21.4918 19.9373 20.9395 19.9373H3.11426C2.56197 19.9373 2.11426 19.4895 2.11426 18.9373V7.01292ZM17.6287 7.51292H20.4395V18.4373H3.61426V7.51292H6.375C7.30272 7.51292 8.15415 6.9992 8.58667 6.17848L9.50353 4.43871L14.5513 4.45489L15.3943 6.13442C15.8185 6.97948 16.6831 7.51292 17.6287 7.51292Z" fill="#10181B"/>
</svg>
