<svg width="16" height="16" viewBox="0 0 16 16" fill="none" xmlns="http://www.w3.org/2000/svg">
<path d="M5.61058 4.8619C5.61058 5.28144 5.27048 5.62154 4.85094 5.62154C4.4314 5.62154 4.0913 5.28144 4.0913 4.8619C4.0913 4.44236 4.4314 4.10226 4.85094 4.10226C5.27048 4.10226 5.61058 4.44236 5.61058 4.8619Z" fill="#10181B"/>
<path d="M3.21689 9.50173V8.72569C3.21689 8.72569 4.49025 7.51792 4.85641 7.21734C5.22018 6.91872 5.40056 7.03544 5.6762 7.21382L5.68163 7.21734C5.80182 7.31591 5.95246 7.36978 6.1079 7.36978C6.26335 7.36978 6.41399 7.31591 6.53418 7.21734C6.67946 7.10639 6.93966 6.88692 7.20121 6.66631C7.48078 6.43049 7.76191 6.19336 7.90591 6.08607C8.03989 5.98226 8.20723 5.93106 8.37636 5.94213C8.5455 5.9532 8.70473 6.02579 8.82404 6.14619C9.16606 6.4763 9.48385 6.83062 9.77495 7.20641V9.61103C9.77495 9.79299 9.68614 9.79264 9.41339 9.79156L9.34321 9.79138H3.48468C3.21689 9.79138 3.21689 9.64929 3.21689 9.50173Z" fill="#10181B"/>
<path fill-rule="evenodd" clip-rule="evenodd" d="M2.6267 0.783691C1.60884 0.783691 0.783691 1.60884 0.783691 2.6267V10.3707C0.783691 11.3885 1.60884 12.2137 2.6267 12.2137H10.3707C11.3885 12.2137 12.2137 11.3885 12.2137 10.3707V2.6267C12.2137 1.60884 11.3885 0.783691 10.3707 0.783691H2.6267ZM2.28369 2.6267C2.28369 2.43726 2.43726 2.28369 2.6267 2.28369H10.3707C10.5601 2.28369 10.7137 2.43726 10.7137 2.6267V10.3707C10.7137 10.5601 10.5601 10.7137 10.3707 10.7137H2.6267C2.43726 10.7137 2.28369 10.5601 2.28369 10.3707V2.6267Z" fill="#10181B"/>
<path d="M14.75 4C14.75 3.58579 14.4142 3.25 14 3.25C13.5858 3.25 13.25 3.58579 13.25 4V12C13.25 12.6858 12.6858 13.25 12 13.25H4C3.58579 13.25 3.25 13.5858 3.25 14C3.25 14.4142 3.58579 14.75 4 14.75H12C13.5142 14.75 14.75 13.5142 14.75 12V4Z" fill="#10181B"/>
</svg>
