<svg width="16" height="16" viewBox="0 0 16 16" fill="none" xmlns="http://www.w3.org/2000/svg">
<g clip-path="url(#clip0_44_47206)">
<path fill-rule="evenodd" clip-rule="evenodd" d="M2.95718 0.783691C1.7568 0.783691 0.783691 1.7568 0.783691 2.95718V13.0426C0.783691 14.243 1.7568 15.2161 2.95718 15.2161H13.0426C14.243 15.2161 15.2161 14.243 15.2161 13.0426V2.95718C15.2161 1.7568 14.243 0.783691 13.0426 0.783691H2.95718ZM6.51069 6.53884C6.34174 6.72271 6.10991 6.83645 5.86109 6.85753C5.72364 6.86918 5.58527 6.85216 5.45473 6.80756C5.3242 6.76295 5.20434 6.69172 5.10277 6.59839C5.00119 6.50505 4.9201 6.39165 4.86463 6.26534C4.80916 6.13904 4.78051 6.0026 4.78051 5.86465C4.78051 5.72671 4.80916 5.59026 4.86463 5.46396C4.9201 5.33766 5.00119 5.22425 5.10277 5.13092C5.20434 5.03758 5.3242 4.96636 5.45473 4.92175C5.58527 4.87714 5.72364 4.86012 5.86109 4.87177C6.10991 4.89286 6.34174 5.00659 6.51069 5.19046C6.67964 5.37434 6.7734 5.61494 6.7734 5.86465C6.7734 6.11436 6.67964 6.35497 6.51069 6.53884ZM3.49099 12.0248V10.9643C3.49099 10.9643 5.28458 9.3344 5.71163 8.92871C6.13867 8.52301 6.47319 8.68672 6.85042 8.92871C7.01705 9.06212 7.22415 9.13481 7.43761 9.13481C7.65107 9.13481 7.85816 9.06212 8.02479 8.92871C8.20011 8.79571 8.49094 8.54591 8.79973 8.28069C9.21806 7.92138 9.66932 7.53378 9.91092 7.36999C10.0946 7.22671 10.3247 7.15621 10.5571 7.17196C10.7896 7.18772 11.008 7.28864 11.1707 7.4554C11.649 7.89631 12.0938 8.37211 12.5017 8.87889V12.1814C12.5017 12.4305 12.3593 12.4305 11.9109 12.4305H3.85398C3.49099 12.4305 3.49099 12.2312 3.49099 12.0248Z" fill="#10181B"/>
</g>
<defs>
<clipPath id="clip0_44_47206">
<rect width="16" height="16" fill="white"/>
</clipPath>
</defs>
</svg>
