<svg width="24" height="24" viewBox="0 0 24 24" fill="none" xmlns="http://www.w3.org/2000/svg">
<path d="M4.38379 18.9286L14.115 9.19735L14.1133 9.19622L15.1885 8.12102L15.1901 8.12224L16.7657 6.54671L16.7642 6.54538L17.8265 5.48309L17.828 5.48443L19.0645 4.24793L20.1251 5.30859L18.8528 6.58098C20.0461 8.09458 20.7582 10.0053 20.7582 12.0823C20.7582 15.7049 18.592 18.8217 15.4843 20.2079L14.8873 18.8313C17.4637 17.6759 19.2582 15.0887 19.2582 12.0823C19.2582 10.4198 18.7094 8.88551 17.7832 7.65061L16.2357 9.19812C16.8165 10.0111 17.1582 11.0067 17.1582 12.082C17.1582 14.1976 15.8354 16.0043 13.9718 16.7202L13.3741 15.3418C14.7064 14.8583 15.6582 13.5813 15.6582 12.082C15.6582 11.422 15.4738 10.8052 15.1537 10.2801L10.895 14.5388V18.4791L8.12337 17.3104L5.44445 19.9894L4.38379 18.9286Z" fill="#10181B"/>
<path d="M15.5288 5.65945C15.3299 5.54578 15.1253 5.44108 14.9154 5.3459L15.5124 3.96924C15.8974 4.14259 16.2679 4.34255 16.6215 4.56677L15.5288 5.65945Z" fill="#10181B"/>
<path d="M10.5603 5.56629V10.628L9.10856 12.0797H9.06027V8.51354L5.97435 10.7599H4.53027V13.2193L5.76675 13.2185L7.15864 14.0296L6.06175 15.1265L5.36207 14.7187L3.03027 14.7204V9.25992H5.48621L10.5603 5.56629Z" fill="#10181B"/>
</svg>
