<svg width="16" height="16" viewBox="0 0 16 16" fill="none" xmlns="http://www.w3.org/2000/svg">
<path d="M10.5657 1.05103L9.96872 2.42759C12.1098 3.33464 13.6118 5.45547 13.6118 7.92711C13.6118 10.4078 12.0987 12.5351 9.94513 13.4366L10.5421 14.8132C13.2271 13.6809 15.1118 11.0241 15.1118 7.92711C15.1118 4.83919 13.2381 2.18889 10.5657 1.05103Z" fill="#10181B"/>
<path d="M9.31486 3.93536L8.71556 5.31731C9.8306 5.6607 10.641 6.69912 10.641 7.92682C10.641 9.16364 9.81852 10.2084 8.69067 10.5439L9.2904 11.9268C10.9493 11.3548 12.141 9.78 12.141 7.92682C12.141 6.08276 10.961 4.51431 9.31486 3.93536Z" fill="#10181B"/>
<path fill-rule="evenodd" clip-rule="evenodd" d="M6.75 2.33252V13.6675L3.00889 10.35H1.25V5.65H3.00889L6.75 2.33252ZM5.25 5.66748V10.3325L3.57817 8.85H2.75V7.15H3.57817L5.25 5.66748Z" fill="#10181B"/>
</svg>
