<svg width="16" height="16" viewBox="0 0 16 16" fill="none" xmlns="http://www.w3.org/2000/svg">
<path fill-rule="evenodd" clip-rule="evenodd" d="M4.7582 3.10247C5.07107 2.5849 5.6472 2.25 6.28667 2.25C7.07827 2.25 7.7678 2.7583 8 3.48268C8.2322 2.7583 8.92173 2.25 9.71333 2.25C10.3528 2.25 10.9289 2.58489 11.2418 3.10247C11.3127 3.2044 11.3605 3.30684 11.3941 3.40006L14.3156 9.26133C14.5878 9.70582 14.75 10.2338 14.75 10.7968C14.75 12.4571 13.3692 13.7754 11.7133 13.7754C10.2523 13.7754 8.99962 12.7503 8.73171 11.3587C8.7079 11.3 8.69119 11.2374 8.68276 11.1716L8.67609 11.1196L8.67424 11.1038L8.62537 10.6502H7.37463L7.32576 11.1038L7.32391 11.1196L7.31724 11.1716C7.30881 11.2374 7.2921 11.3 7.26829 11.3587C7.00037 12.7503 5.7477 13.7754 4.28667 13.7754C2.62265 13.7754 1.25 12.4557 1.25 10.7968C1.25 10.2422 1.40144 9.71059 1.6874 9.2557L4.60587 3.40008C4.6395 3.30685 4.6873 3.20441 4.7582 3.10247ZM7.53623 9.15018H8.46378L8.41189 8.66849H7.58812L7.53623 9.15018ZM11.7133 9.31822C12.2715 9.31822 12.757 9.60426 13.0212 10.0204L13.0302 10.0346C13.1691 10.2573 13.25 10.5197 13.25 10.7968C13.25 11.5925 12.5774 12.2754 11.7133 12.2754C10.9047 12.2754 10.261 11.6768 10.1865 10.9515C10.18 10.8822 10.1767 10.8359 10.1767 10.7968C10.1767 9.99601 10.8478 9.31822 11.7133 9.31822ZM2.96412 10.0433C2.97231 10.031 2.98017 10.0184 2.9877 10.0055L2.99227 9.99753C3.2662 9.5898 3.73719 9.31822 4.28667 9.31822C5.15208 9.31822 5.82315 9.99582 5.82333 10.7965L5.8228 10.8069C5.82218 10.8167 5.82124 10.8279 5.81951 10.8477L5.81887 10.8549C5.81663 10.8802 5.81268 10.9247 5.81091 10.975C5.72508 11.6897 5.08659 12.2754 4.28667 12.2754C3.41735 12.2754 2.75 11.5939 2.75 10.7968C2.75 10.5122 2.82835 10.2547 2.96412 10.0433Z" fill="#10181B"/>
</svg>
