<svg width="24" height="24" viewBox="0 0 24 24" fill="none" xmlns="http://www.w3.org/2000/svg">
<path fill-rule="evenodd" clip-rule="evenodd" d="M7.19731 5.13555C7.59291 4.45507 8.3381 4 9.18011 4C10.4643 4 11.5001 5.03579 11.5001 6.32C11.5001 6.35657 11.4975 6.39253 11.4924 6.4277L11.4571 6.72835C11.457 6.7289 11.457 6.72944 11.4569 6.72998H12.0431L12.0071 6.42373C12.0024 6.38983 12 6.3552 12 6.32C12.0002 5.03599 13.0359 4 14.32 4C15.162 4 15.9072 4.45507 16.3028 5.13555C16.3948 5.26872 16.4554 5.40449 16.4979 5.53033L20.8991 14.5903C21.2763 15.2165 21.4999 15.9593 21.4999 16.7498C21.4999 19.054 19.6241 20.9298 17.3199 20.9298C15.2723 20.9298 13.5534 19.4483 13.207 17.4901C13.1765 17.4229 13.1555 17.35 13.1459 17.2729L13.1359 17.1929L13.1341 17.1775L13.0231 16.1201H10.4769L10.3659 17.1775L10.3642 17.1929L10.3542 17.2729C10.3445 17.3502 10.3234 17.4232 10.2928 17.4905C9.94627 19.4485 8.22747 20.9298 6.18 20.9298C3.86436 20.9298 2 19.0526 2 16.7498C2 15.9671 2.20996 15.2199 2.60484 14.5829L7.00236 5.52978C7.04484 5.40409 7.10547 5.26852 7.19731 5.13555ZM10.6344 14.6201H12.8656L12.7028 13.0698H10.7972L10.6344 14.6201ZM17.3199 14.0698C18.2785 14.0698 19.1272 14.5746 19.5956 15.3339C19.5993 15.3401 19.6031 15.3463 19.607 15.3524C19.8539 15.7574 19.9999 16.2385 19.9999 16.7498C19.9999 18.2256 18.7957 19.4298 17.3199 19.4298C15.9375 19.4298 14.7901 18.3748 14.6566 17.0291C14.6467 16.9209 14.6399 16.8317 14.6399 16.7498C14.6399 15.2655 15.8427 14.0698 17.3199 14.0698ZM3.88453 15.3655C3.89831 15.3447 3.91118 15.3231 3.92306 15.3006C4.40461 14.5554 5.23102 14.0698 6.18 14.0698C7.65721 14.0698 8.86 15.2655 8.86 16.7498C8.86 16.7731 8.85804 16.8023 8.8527 16.865L8.8518 16.8755C8.84809 16.9187 8.84243 16.9846 8.8406 17.0554C8.69478 18.3885 7.55337 19.4298 6.18 19.4298C4.69564 19.4298 3.5 18.227 3.5 16.7498C3.5 16.233 3.63898 15.7583 3.88453 15.3655Z" fill="#10181B"/>
</svg>
