<svg width="16" height="16" viewBox="0 0 16 16" fill="none" xmlns="http://www.w3.org/2000/svg">
<path fill-rule="evenodd" clip-rule="evenodd" d="M7.61874 1.59229L7.65057 1.60792L7.67885 1.59424L7.69634 1.63039L12.8547 4.16368C12.9591 4.17942 13.0604 4.21723 13.1516 4.27653C13.1912 4.30223 13.2278 4.33133 13.2612 4.36331L13.3778 4.42055L13.3535 4.46996C13.4428 4.59524 13.4928 4.74691 13.4928 4.90528V8.35348L13.5147 8.4009L13.4928 8.41106V11.2484C13.4928 11.5452 13.3177 11.8141 13.0463 11.9343L7.92298 14.2013C7.84318 14.2377 7.7582 14.2595 7.67203 14.2664C7.6045 14.2719 7.53624 14.2682 7.46915 14.2552C7.41146 14.244 7.35491 14.226 7.30074 14.2013L2.17747 11.9343C1.90602 11.8141 1.73096 11.5452 1.73096 11.2484V4.90528C1.73096 4.74522 1.78201 4.59201 1.87308 4.46597L1.84814 4.41442L1.97172 4.35465C2.00263 4.32606 2.03615 4.29989 2.07209 4.27653C2.16222 4.21791 2.26232 4.1803 2.3654 4.16423L7.59875 1.63298L7.61874 1.59229ZM11.9928 6.05861V7.45229L11.0684 7.87998V6.46882L11.9928 6.05861ZM9.56836 8.57399V7.13444L8.3619 7.66981V9.13217L9.56836 8.57399ZM9.56836 10.2268V11.8329L8.3619 12.3668V10.7849L9.56836 10.2268ZM11.0684 11.1692V9.53275L11.9928 9.10506V10.7601L11.0684 11.1692ZM4.30303 4.89329L7.64556 3.27658L10.9296 4.88936L7.61186 6.36159L4.30303 4.89329ZM3.23096 9.07686L4.15527 9.51097V11.1691L3.23096 10.7601V9.07686ZM3.23096 7.41967L4.15527 7.85377V6.46878L3.23096 6.05861V7.41967ZM6.86182 10.7821L5.65527 10.2154V11.8329L6.86182 12.3668V10.7821ZM5.65527 7.13441V8.55825L6.86182 9.12491V7.66981L5.65527 7.13441Z" fill="#10181B"/>
</svg>
