<svg width="24" height="24" viewBox="0 0 24 24" fill="none" xmlns="http://www.w3.org/2000/svg">
<g clip-path="url(#clip0_44_42448)">
<path fill-rule="evenodd" clip-rule="evenodd" d="M3.45299 6.84109L7.40984 4.97148C7.42284 4.96487 7.43602 4.95864 7.44937 4.9528L11.4242 3.07468C11.4339 3.07001 11.4437 3.06555 11.4536 3.06131C11.5501 3.01968 11.6509 2.99993 11.7502 3C11.8495 2.99993 11.9503 3.01968 12.0468 3.06131C12.0566 3.06555 12.0664 3.07001 12.0761 3.07468L16.0536 4.95405C16.0651 4.95911 16.0764 4.96446 16.0876 4.97008L20.0515 6.84304C20.0885 6.85928 20.1244 6.87863 20.1589 6.90104C20.1874 6.9196 20.2144 6.93992 20.2398 6.96182C20.4124 7.11029 20.5069 7.32941 20.5 7.55365V12.3858C20.5005 12.4016 20.5005 12.4174 20.5 12.4331V17.4198C20.5 17.7166 20.3249 17.9855 20.0535 18.1056L16.4408 19.7042C16.3405 19.7852 16.2189 19.8408 16.0857 19.8614L12.0768 21.6353C11.978 21.6832 11.8672 21.7101 11.75 21.7101C11.6328 21.7101 11.522 21.6832 11.4232 21.6353L7.41435 19.8614C7.28114 19.8408 7.15951 19.7852 7.05917 19.7042L3.44651 18.1056C3.17506 17.9855 3 17.7166 3 17.4198V7.53068C3 7.27688 3.12836 7.0394 3.34113 6.90104C3.37699 6.87772 3.41442 6.85773 3.45299 6.84109ZM16.7202 17.9403L19 16.9315V13.562L16.7202 14.5708V17.9403ZM15.2202 15.2345V18.6041L12.5 19.8078V16.4382L15.2202 15.2345ZM16.7202 12.9305L19 11.9217V8.68313L16.7202 9.69478V12.9305ZM15.2202 10.3604V13.5942L12.5 14.7979V11.5675L15.2202 10.3604ZM11 19.8078L8.27979 18.6041V15.2343L11 16.438V19.8078ZM11 14.7978L8.27979 13.5941V10.3604L11 11.5675V14.7978ZM6.77979 12.9303V9.69478L4.5 8.68313V11.9215L6.77979 12.9303ZM6.77979 17.9403V14.5706L4.5 13.5618V16.9315L6.77979 17.9403ZM12.053 10.3938L12.0515 10.3931L12.0664 10.1189L12.0678 10.1182L12.053 10.3938ZM12.0678 10.1182L12.1591 8.42392L14.0194 9.25222L12.0678 10.1182ZM12.1581 8.42346L12.0664 10.1189L11.75 10.2593L9.48069 9.25225L11.7501 8.24179L12.1581 8.42346ZM5.55137 7.50862L7.75984 6.46512L9.90623 7.42081L7.63371 8.43266L5.55137 7.50862ZM13.5939 7.42081L15.8664 8.43262L17.9488 7.50854L15.7404 6.46507L13.5939 7.42081ZM9.54895 5.61976L11.7501 6.59982L12.2693 6.36865L12.3507 4.86344L11.7502 4.57968L9.54895 5.61976ZM13.9513 5.61972L12.3507 4.86344L12.2693 6.36865L13.9513 5.61972Z" fill="#10181B"/>
</g>
<defs>
<clipPath id="clip0_44_42448">
<rect width="17.5" height="18.71" fill="white" transform="translate(3 3)"/>
</clipPath>
</defs>
</svg>
