<svg width="24" height="24" viewBox="0 0 24 24" fill="none" xmlns="http://www.w3.org/2000/svg">
<path d="M10.25 10.25V13.25H8.75V10.25H5.75V8.75H8.75V5.75H10.25V8.75H13.25V10.25H10.25Z" fill="#10181B"/>
<path fill-rule="evenodd" clip-rule="evenodd" d="M17 9.5C17 13.6421 13.6421 17 9.5 17C5.35786 17 2 13.6421 2 9.5C2 5.35786 5.35786 2 9.5 2C13.6421 2 17 5.35786 17 9.5ZM15.5 9.5C15.5 12.8137 12.8137 15.5 9.5 15.5C6.18629 15.5 3.5 12.8137 3.5 9.5C3.5 6.18629 6.18629 3.5 9.5 3.5C12.8137 3.5 15.5 6.18629 15.5 9.5Z" fill="#10181B"/>
<path d="M22.5302 21.4697L16.6968 15.6364L15.6362 16.697L21.4695 22.5304L22.5302 21.4697Z" fill="#10181B"/>
</svg>
