<svg width="16" height="16" viewBox="0 0 16 16" fill="none" xmlns="http://www.w3.org/2000/svg">
<path d="M7.75 7.75V9.25H6.25V7.75H4.75V6.25H6.25V4.75H7.75V6.25H9.25V7.75H7.75Z" fill="#10181B"/>
<path fill-rule="evenodd" clip-rule="evenodd" d="M12 7C12 9.76142 9.76142 12 7 12C4.23858 12 2 9.76142 2 7C2 4.23858 4.23858 2 7 2C9.76142 2 12 4.23858 12 7ZM10.5 7C10.5 8.933 8.933 10.5 7 10.5C5.067 10.5 3.5 8.933 3.5 7C3.5 5.067 5.067 3.5 7 3.5C8.933 3.5 10.5 5.067 10.5 7Z" fill="#10181B"/>
<path d="M14.5303 13.4697L11.5303 10.4697L10.4697 11.5303L13.4697 14.5303L14.5303 13.4697Z" fill="#10181B"/>
</svg>
