<svg width="16" height="16" viewBox="0 0 16 16" fill="none" xmlns="http://www.w3.org/2000/svg">
<path fill-rule="evenodd" clip-rule="evenodd" d="M11 6.5C11 8.98528 8.98528 11 6.5 11C4.01472 11 2 8.98528 2 6.5C2 4.01472 4.01472 2 6.5 2C8.98528 2 11 4.01472 11 6.5ZM9.5 6.5C9.5 8.15685 8.15685 9.5 6.5 9.5C4.84315 9.5 3.5 8.15685 3.5 6.5C3.5 4.84315 4.84315 3.5 6.5 3.5C8.15685 3.5 9.5 4.84315 9.5 6.5Z" fill="#10181B"/>
<path d="M14.5304 13.4697L11.0304 9.96973L9.96973 11.0304L13.4697 14.5304L14.5304 13.4697Z" fill="#10181B"/>
</svg>
