<svg width="24" height="24" viewBox="0 0 24 24" fill="none" xmlns="http://www.w3.org/2000/svg">
<path d="M13.25 10.25V8.75L5.75 8.75V10.25H13.25Z" fill="#10181B"/>
<path fill-rule="evenodd" clip-rule="evenodd" d="M9.5 17C13.6421 17 17 13.6421 17 9.5C17 5.35786 13.6421 2 9.5 2C5.35786 2 2 5.35786 2 9.5C2 13.6421 5.35786 17 9.5 17ZM9.5 15.5C12.8137 15.5 15.5 12.8137 15.5 9.5C15.5 6.18629 12.8137 3.5 9.5 3.5C6.18629 3.5 3.5 6.18629 3.5 9.5C3.5 12.8137 6.18629 15.5 9.5 15.5Z" fill="#10181B"/>
<path d="M16.6968 15.6364L22.5302 21.4697L21.4695 22.5304L15.6362 16.697L16.6968 15.6364Z" fill="#10181B"/>
</svg>
