<svg width="16" height="16" viewBox="0 0 16 16" fill="none" xmlns="http://www.w3.org/2000/svg">
<path d="M4.75 7.75H9.25V6.25H4.75V7.75Z" fill="#10181B"/>
<path fill-rule="evenodd" clip-rule="evenodd" d="M7 12C9.76142 12 12 9.76142 12 7C12 4.23858 9.76142 2 7 2C4.23858 2 2 4.23858 2 7C2 9.76142 4.23858 12 7 12ZM7 10.5C8.933 10.5 10.5 8.933 10.5 7C10.5 5.067 8.933 3.5 7 3.5C5.067 3.5 3.5 5.067 3.5 7C3.5 8.933 5.067 10.5 7 10.5Z" fill="#10181B"/>
<path d="M11.5303 10.4697L14.5303 13.4697L13.4697 14.5303L10.4697 11.5303L11.5303 10.4697Z" fill="#10181B"/>
</svg>
