<svg width="16" height="16" viewBox="0 0 16 16" fill="none" xmlns="http://www.w3.org/2000/svg">
<path d="M8.02797 0.25H8.77797V1.75H8.02797C5.11027 1.75 2.75 4.11566 2.75 7.02797C2.75 9.58175 4.5701 11.7158 6.98207 12.202V10.3659L9.39144 12.95L8.77797 13.608V13.8059H8.59342L6.98207 15.5342V13.739C6.51792 13.6661 6.0578 13.5469 5.60028 13.3687L4.90145 13.0964L4.91907 13.0512C4.70564 12.9407 4.49881 12.8191 4.29933 12.6874L4.27087 12.722L3.69165 12.2455C3.2412 11.875 2.8409 11.4456 2.49905 10.9583L2.06834 10.3443L2.10314 10.3199C1.55972 9.34491 1.25 8.22225 1.25 7.02797C1.25 3.28828 4.28081 0.25 8.02797 0.25Z" fill="#10181B"/>
<path d="M12.7301 4.5444L12.325 3.91321L13.5874 3.10303L13.9925 3.73422C14.3043 4.21997 14.5569 4.75443 14.7373 5.31016L14.9689 6.0235L13.5422 6.48671L13.3106 5.77337C13.1694 5.33837 12.9716 4.92071 12.7301 4.5444Z" fill="#10181B"/>
<path d="M9.64143 1.97279L10.3248 2.28173C10.7333 2.46638 11.1206 2.70755 11.4752 3.00019L12.0536 3.47761L13.0084 2.32078L12.43 1.84335C11.974 1.46693 11.4735 1.15484 10.9427 0.914898L10.2593 0.605957L9.64143 1.97279Z" fill="#10181B"/>
<path d="M13.2502 7.77079L13.3629 7.0293L14.8458 7.25456L14.7332 7.99606C14.6466 8.56637 14.4878 9.12924 14.257 9.67027L13.9626 10.3601L12.583 9.77145L12.8773 9.08161C13.0582 8.65765 13.1825 8.21694 13.2502 7.77079Z" fill="#10181B"/>
<path d="M12.3691 9.98389L11.8726 10.546C11.5757 10.882 11.2333 11.1798 10.8499 11.4335L10.2245 11.8474L11.0523 13.0983L11.6777 12.6844C12.1693 12.3591 12.6117 11.975 12.9968 11.539L13.4933 10.9769L12.3691 9.98389Z" fill="#10181B"/>
</svg>
