<svg width="24" height="24" viewBox="0 0 24 24" fill="none" xmlns="http://www.w3.org/2000/svg">
<g clip-path="url(#clip0_44_42498)">
<path d="M21.7769 13.7716L21.1532 14.3531L18.1921 11.5923H20.4991C20.3566 7.10025 16.6636 3.5 12.1333 3.5H11.3833V2H12.1333C17.4905 2 21.8568 6.27027 21.9997 11.5923H24.1143L21.8635 13.6909L21.8533 13.7803L21.7769 13.7716Z" fill="#10181B"/>
<path d="M8.55884 2.65809L7.87508 2.96626C7.10211 3.31464 6.37405 3.77128 5.71219 4.32463L5.1368 4.8057L6.09893 5.95648L6.67432 5.47542C7.23246 5.00877 7.8444 4.62541 8.49143 4.33379L9.17519 4.02561L8.55884 2.65809Z" fill="#10181B"/>
<path d="M4.20317 5.92462L3.80051 6.55737C3.34796 7.26852 2.97909 8.03759 2.71807 8.86417L2.49222 9.57936L3.92259 10.0311L4.14844 9.31587C4.36742 8.62245 4.67855 7.97153 5.066 7.36268L5.46866 6.72993L4.20317 5.92462Z" fill="#10181B"/>
<path d="M2.25355 11.5908L2.27278 10.841L3.77228 10.8795L3.75306 11.6292C3.73453 12.352 3.79961 13.0777 3.96362 13.7793L4.13434 14.5096L2.67372 14.851L2.50299 14.1207C2.307 13.2823 2.23209 12.428 2.25355 11.5908Z" fill="#10181B"/>
<path d="M3.22777 16.2191L3.60507 16.8673C4.02661 17.5915 4.54584 18.2732 5.15293 18.8803L5.68326 19.4107L6.74392 18.35L6.21359 17.8197C5.70068 17.3067 5.25991 16.7285 4.90144 16.1127L4.52414 15.4645L3.22777 16.2191Z" fill="#10181B"/>
<path d="M7.63786 20.6908L6.96704 20.3554L7.63786 19.0138L8.30868 19.3492C8.9575 19.6736 9.63563 19.92 10.344 20.0653L11.0787 20.216L10.7773 21.6854L10.0426 21.5347C9.1909 21.36 8.38904 21.0664 7.63786 20.6908Z" fill="#10181B"/>
<path d="M15.8335 19.455L15.1309 19.7174C14.4327 19.978 13.7351 20.1512 13.0267 20.2239L12.2806 20.3004L12.4337 21.7926L13.1797 21.7161C14.0313 21.6287 14.8538 21.4219 15.6555 21.1226L16.3582 20.8603L15.8335 19.455Z" fill="#10181B"/>
<path d="M18.9644 16.7423L19.4021 16.1333L20.6201 17.0087L20.1824 17.6177C19.6856 18.3089 19.1024 18.9355 18.4535 19.4762L17.8774 19.9563L16.9171 18.804L17.4933 18.3238C18.0444 17.8645 18.5412 17.3311 18.9644 16.7423Z" fill="#10181B"/>
<path fill-rule="evenodd" clip-rule="evenodd" d="M14.8266 15.588C14.2465 15.588 13.7499 15.4547 13.3368 15.1881C12.9267 14.9215 12.6117 14.5391 12.392 14.0411C12.1723 13.5401 12.0624 12.9366 12.0624 12.2305C12.0624 11.5245 12.1723 10.921 12.392 10.42C12.6117 9.91608 12.9281 9.53083 13.3412 9.26422C13.7543 8.99762 14.2509 8.86432 14.831 8.86432C15.411 8.86432 15.9076 8.99909 16.3207 9.26862C16.7338 9.53522 17.0502 9.91901 17.2699 10.42C17.4897 10.921 17.5995 11.5245 17.5995 12.2305C17.5995 12.9366 17.4897 13.5401 17.2699 14.0411C17.0502 14.5391 16.7338 14.9215 16.3207 15.1881C15.9105 15.4547 15.4125 15.588 14.8266 15.588ZM14.8266 14.296C15.0727 14.296 15.2807 14.2169 15.4506 14.0587C15.6205 13.8975 15.7494 13.6631 15.8373 13.3555C15.9252 13.0479 15.9691 12.6729 15.9691 12.2305C15.9691 11.7852 15.9252 11.4088 15.8373 11.1011C15.7494 10.7906 15.6205 10.5548 15.4506 10.3936C15.2807 10.2296 15.0727 10.1475 14.8266 10.1475C14.4604 10.1475 14.1791 10.3292 13.9828 10.6924C13.7865 11.0528 13.6884 11.5655 13.6884 12.2305C13.6884 12.6729 13.7309 13.0479 13.8158 13.3555C13.9037 13.6631 14.0326 13.8975 14.2025 14.0587C14.3754 14.2169 14.5834 14.296 14.8266 14.296Z" fill="#10181B"/>
<path fill-rule="evenodd" clip-rule="evenodd" d="M9.85846 9.02692C9.53326 8.90973 9.19049 8.85114 8.83014 8.85114C8.33209 8.84821 7.89264 8.94635 7.51178 9.14557C7.13092 9.34186 6.83356 9.61432 6.61969 9.96295C6.40582 10.3116 6.29889 10.7144 6.29889 11.1715C6.29889 11.5757 6.38385 11.9361 6.55377 12.2525C6.72369 12.5689 6.95953 12.8179 7.26129 12.9996C7.56305 13.1783 7.90875 13.2676 8.2984 13.2676C8.54449 13.2676 8.77594 13.2296 8.99274 13.1534C9.20953 13.0772 9.40143 12.9688 9.56842 12.8282C9.73834 12.6876 9.86725 12.5206 9.95514 12.3272H9.99469C9.99469 12.9102 9.89655 13.3775 9.70026 13.7291C9.50397 14.0777 9.20514 14.252 8.80377 14.252C8.58405 14.252 8.39362 14.1964 8.23248 14.085C8.07428 13.9737 7.97174 13.8126 7.92487 13.6016H6.3692C6.41022 13.9678 6.53619 14.3033 6.74713 14.608C6.95807 14.9097 7.23932 15.1514 7.59088 15.3331C7.94244 15.5118 8.34674 15.6011 8.80377 15.6011C9.21979 15.6011 9.59625 15.522 9.93317 15.3638C10.273 15.2027 10.563 14.9713 10.8033 14.6695C11.0464 14.3648 11.2325 13.9986 11.3614 13.5709C11.4903 13.1402 11.5547 12.6539 11.5547 12.1119C11.5547 11.5172 11.4815 11.0118 11.335 10.5958C11.1885 10.1798 10.9879 9.8443 10.733 9.58942C10.4781 9.33161 10.1866 9.14411 9.85846 9.02692ZM8.32477 10.2178C8.48004 10.127 8.65289 10.0816 8.84332 10.0816C9.03961 10.0816 9.21393 10.1285 9.36627 10.2222C9.51862 10.3131 9.63727 10.4376 9.72223 10.5958C9.81012 10.751 9.85406 10.9254 9.85406 11.1187C9.85406 11.315 9.81012 11.4923 9.72223 11.6505C9.63434 11.8057 9.51276 11.9302 9.35748 12.024C9.20514 12.1148 9.03229 12.1602 8.83893 12.1602C8.64557 12.1602 8.47272 12.1163 8.32037 12.0284C8.16803 11.9376 8.04791 11.8131 7.96002 11.6548C7.87213 11.4966 7.82819 11.3194 7.82819 11.1231C7.82819 10.9239 7.87213 10.7466 7.96002 10.5914C8.04791 10.4332 8.16949 10.3087 8.32477 10.2178Z" fill="#10181B"/>
</g>
<defs>
<clipPath id="clip0_44_42498">
<rect width="24" height="24" fill="white"/>
</clipPath>
</defs>
</svg>
