<svg width="16" height="16" viewBox="0 0 16 16" fill="none" xmlns="http://www.w3.org/2000/svg">
<g clip-path="url(#clip0_44_42510)">
<path d="M14.3515 7.37988H16.1111L13.5561 9.76213L11.001 7.37988H12.8465C12.617 4.90916 10.5344 2.97314 8.00128 2.97314H7.25128V1.47314H8.00128C11.3619 1.47314 14.1182 4.0785 14.3515 7.37988Z" fill="#10181B"/>
<path d="M5.94398 1.78564L5.26022 2.09382C4.76003 2.31926 4.28937 2.61453 3.86187 2.97195L3.28648 3.45301L4.16367 4.5022L3.02921 3.78027L2.62656 4.41302C2.33536 4.8706 2.09713 5.3669 1.92831 5.9015L1.70246 6.61668L2.71868 6.9376L1.64846 6.91016L1.62924 7.65991C1.61545 8.19746 1.66348 8.74827 1.79031 9.29085L1.96104 10.0212L3.35809 9.69457L2.12336 10.4133L2.50067 11.0615C2.77237 11.5282 3.10718 11.968 3.49912 12.3599L4.02945 12.8902L5.09011 11.8296L4.55978 11.2992C4.26202 11.0015 4.00567 10.6653 3.79704 10.3069L3.41973 9.65869L3.4171 9.66022L3.25094 8.9494C3.15608 8.54363 3.11789 8.12147 3.12874 7.69836L3.14596 7.02681L3.35868 6.35319C3.48545 5.95176 3.66596 5.57361 3.89205 5.21833L4.2947 4.58559L4.2809 4.5768L4.824 4.12273C5.14779 3.85203 5.50231 3.63002 5.87657 3.46134L6.56033 3.15317L5.94398 1.78564Z" fill="#10181B"/>
<path d="M5.10425 13.5286L4.43343 13.1932L5.10425 11.8516L5.77507 12.187C6.15496 12.3769 6.54879 12.5196 6.95746 12.6034L7.69216 12.7541L7.39075 14.2235L6.65605 14.0728C6.10406 13.9596 5.5865 13.7697 5.10425 13.5286Z" fill="#10181B"/>
<path d="M10.4493 12.1396L9.74664 12.402C9.33656 12.5551 8.93102 12.6553 8.52224 12.6972L7.77615 12.7737L7.92919 14.2659L8.67528 14.1894C9.22716 14.1328 9.75765 13.999 10.2713 13.8072L10.9739 13.5449L10.4493 12.1396Z" fill="#10181B"/>
<path d="M11.9744 10.6715L12.4121 10.0625L13.6302 10.938L13.1924 11.547C12.8724 11.9923 12.4966 12.396 12.0783 12.7446L11.5021 13.2247L10.5418 12.0724L11.118 11.5923C11.4386 11.325 11.7279 11.0144 11.9744 10.6715Z" fill="#10181B"/>
</g>
<defs>
<clipPath id="clip0_44_42510">
<rect width="16" height="16" fill="white"/>
</clipPath>
</defs>
</svg>
