<svg width="24" height="24" viewBox="0 0 24 24" fill="none" xmlns="http://www.w3.org/2000/svg">
<g clip-path="url(#clip0_44_42522)">
<path d="M11.3187 0.714355H12.0687C17.9462 0.714355 22.7002 5.47993 22.7002 11.3458C22.7002 13.3729 22.1313 15.2685 21.1446 16.8814L21.1705 16.8995L20.7397 17.5135C20.2046 18.2764 19.5781 18.9484 18.8727 19.5286L18.2935 20.0051L18.2714 19.9783C17.7355 20.3643 17.1622 20.7016 16.5581 20.9838L16.5727 21.0212L15.8738 21.2934C15.0265 21.6236 14.1716 21.8249 13.3033 21.9298V24.0726L11.3497 21.9773H11.3187V21.9441L10.4886 21.0538L13.3033 18.035V20.3943C17.7588 19.7905 21.2002 15.9652 21.2002 11.3458C21.2002 6.30732 17.1167 2.21436 12.0687 2.21436H11.3187V0.714355Z" fill="#10181B"/>
<path d="M4.36238 6.38465L3.95729 7.01584C3.53893 7.66769 3.19726 8.38969 2.95321 9.14136L2.72161 9.8547L1.29492 9.39149L1.52653 8.67815C1.80977 7.80575 2.20631 6.96695 2.69491 6.20566L3.1 5.57447L4.36238 6.38465Z" fill="#10181B"/>
<path d="M8.10646 3.12853L8.78987 2.81959L8.17199 1.45276L7.48858 1.7617C6.65757 2.13736 5.87334 2.62629 5.15819 3.21657L4.57977 3.69399L5.53462 4.85083L6.11304 4.3734C6.72667 3.86691 7.39777 3.4489 8.10646 3.12853Z" fill="#10181B"/>
<path d="M2.92151 11.8943L3.03415 12.6358C3.15127 13.4069 3.36602 14.1684 3.67851 14.9008L3.97284 15.5906L2.59317 16.1793L2.29885 15.4894C1.9364 14.64 1.68714 13.7563 1.55116 12.8611L1.43852 12.1196L2.92151 11.8943Z" fill="#10181B"/>
<path d="M5.40678 17.4299L4.91025 16.8678L3.78604 17.8609L4.28257 18.423C4.88564 19.1057 5.57892 19.7078 6.35012 20.2182L6.97557 20.6321L7.80337 19.3812L7.17792 18.9673C6.51488 18.5285 5.92157 18.0127 5.40678 17.4299Z" fill="#10181B"/>
<path fill-rule="evenodd" clip-rule="evenodd" d="M14.9997 14.7061C15.4128 14.9727 15.9094 15.106 16.4894 15.106C17.0754 15.106 17.5734 14.9727 17.9836 14.7061C18.3967 14.4395 18.7131 14.0571 18.9328 13.5591C19.1525 13.0581 19.2624 12.4546 19.2624 11.7485C19.2624 11.0425 19.1525 10.439 18.9328 9.93799C18.7131 9.43701 18.3967 9.05322 17.9836 8.78662C17.5705 8.51709 17.0739 8.38232 16.4938 8.38232C15.9137 8.38232 15.4172 8.51562 15.0041 8.78223C14.591 9.04883 14.2746 9.43408 14.0549 9.93799C13.8351 10.439 13.7253 11.0425 13.7253 11.7485C13.7253 12.4546 13.8351 13.0581 14.0549 13.5591C14.2746 14.0571 14.5895 14.4395 14.9997 14.7061ZM17.1135 13.5767C16.9435 13.7349 16.7355 13.814 16.4894 13.814C16.2463 13.814 16.0383 13.7349 15.8654 13.5767C15.6955 13.4155 15.5666 13.1812 15.4787 12.8735C15.3937 12.5659 15.3512 12.1909 15.3512 11.7485C15.3512 11.0835 15.4494 10.5708 15.6457 10.2104C15.842 9.84717 16.1232 9.66553 16.4894 9.66553C16.7355 9.66553 16.9435 9.74756 17.1135 9.91162C17.2834 10.0728 17.4123 10.3086 17.5002 10.6191C17.5881 10.9268 17.632 11.3032 17.632 11.7485C17.632 12.1909 17.5881 12.5659 17.5002 12.8735C17.4123 13.1812 17.2834 13.4155 17.1135 13.5767Z" fill="#10181B"/>
<path fill-rule="evenodd" clip-rule="evenodd" d="M10.5721 15.106C10.0623 15.106 9.60824 15.0254 9.2098 14.8643C8.8143 14.7002 8.50229 14.479 8.27377 14.2007C8.04818 13.9194 7.93539 13.603 7.93539 13.2515C7.93539 12.979 7.99984 12.73 8.12875 12.5044C8.25766 12.2788 8.43344 12.0898 8.65609 11.9375C8.87875 11.7852 9.12777 11.687 9.40316 11.6431V11.6035C9.04281 11.5332 8.74691 11.3633 8.51547 11.0938C8.28695 10.8242 8.1727 10.5093 8.1727 10.1489C8.1727 9.80908 8.27523 9.50732 8.48031 9.24365C8.68832 8.97705 8.97396 8.76758 9.33725 8.61523C9.70053 8.45996 10.1121 8.38232 10.5721 8.38232C11.035 8.38232 11.4481 8.45996 11.8114 8.61523C12.1746 8.76758 12.4603 8.97705 12.6683 9.24365C12.8763 9.51025 12.9803 9.81201 12.9803 10.1489C12.9803 10.5122 12.8631 10.8286 12.6287 11.0981C12.3944 11.3647 12.1014 11.5332 11.7498 11.6035V11.6431C12.0194 11.687 12.2655 11.7852 12.4881 11.9375C12.7108 12.0898 12.888 12.2788 13.0199 12.5044C13.1517 12.73 13.2176 12.979 13.2176 13.2515C13.2176 13.603 13.1034 13.9194 12.8748 14.2007C12.6493 14.479 12.3372 14.7002 11.9388 14.8643C11.5404 15.0254 11.0848 15.106 10.5721 15.106ZM10.5721 13.9897C10.7684 13.9897 10.9398 13.9531 11.0863 13.8799C11.2328 13.8037 11.347 13.6997 11.429 13.5679C11.514 13.436 11.5565 13.2852 11.5565 13.1152C11.5565 12.9482 11.514 12.7988 11.429 12.667C11.3441 12.5352 11.2269 12.4326 11.0775 12.3594C10.931 12.2832 10.7625 12.2451 10.5721 12.2451C10.3846 12.2451 10.2162 12.2832 10.0667 12.3594C9.92025 12.4326 9.80453 12.5352 9.71957 12.667C9.63461 12.7959 9.59213 12.9453 9.59213 13.1152C9.59213 13.2852 9.63314 13.436 9.71518 13.5679C9.80014 13.6968 9.91586 13.7993 10.0623 13.8755C10.2118 13.9517 10.3817 13.9897 10.5721 13.9897ZM10.5721 11.1245C10.7391 11.1245 10.8871 11.0908 11.016 11.0234C11.1449 10.9561 11.2459 10.8623 11.3192 10.7422C11.3954 10.6191 11.4334 10.4814 11.4334 10.3291C11.4334 10.1738 11.3954 10.0376 11.3192 9.92041C11.2459 9.80322 11.1449 9.7124 11.016 9.64795C10.8871 9.58057 10.7391 9.54688 10.5721 9.54688C10.4051 9.54688 10.2572 9.58057 10.1283 9.64795C9.99936 9.7124 9.89828 9.80322 9.82504 9.92041C9.7518 10.0376 9.71518 10.1738 9.71518 10.3291C9.71518 10.4814 9.7518 10.6177 9.82504 10.7378C9.89828 10.8579 9.99936 10.9531 10.1283 11.0234C10.2601 11.0908 10.408 11.1245 10.5721 11.1245Z" fill="#10181B"/>
<path d="M7.35742 15.0181V8.47021H5.88965L4.27246 9.47656V10.8477L5.74023 9.94678H5.77539V15.0181H7.35742Z" fill="#10181B"/>
</g>
<defs>
<clipPath id="clip0_44_42522">
<rect width="24" height="24" fill="white"/>
</clipPath>
</defs>
</svg>
