<svg width="24" height="24" viewBox="0 0 24 24" fill="none" xmlns="http://www.w3.org/2000/svg">
<g clip-path="url(#clip0_44_42544)">
<path d="M12.8717 0.714355H12.1217C6.24422 0.714355 1.49023 5.47993 1.49023 11.3458C1.49023 13.3729 2.05915 15.2685 3.04585 16.8814L3.01997 16.8995L3.45068 17.5135C3.98582 18.2764 4.61231 18.9484 5.31774 19.5286L5.89696 20.0051L5.91902 19.9783C6.45497 20.3643 7.02822 20.7016 7.63229 20.9838L7.61775 21.0212L8.31658 21.2934C9.16394 21.6236 10.0188 21.8249 10.8872 21.9298V24.0726L12.8407 21.9773H12.8717V21.9441L13.7018 21.0538L10.8872 18.035V20.3943C6.43167 19.7905 2.99023 15.9652 2.99023 11.3458C2.99023 6.30732 7.07369 2.21436 12.1217 2.21436H12.8717V0.714355Z" fill="#10181B"/>
<path d="M19.828 6.38465L20.2331 7.01584C20.6515 7.66769 20.9932 8.38969 21.2372 9.14136L21.4688 9.8547L22.8955 9.39149L22.6639 8.67815C22.3807 7.80575 21.9841 6.96695 21.4955 6.20566L21.0904 5.57447L19.828 6.38465Z" fill="#10181B"/>
<path d="M16.084 3.12853L15.4006 2.81959L16.0184 1.45276L16.7018 1.7617C17.5329 2.13736 18.3171 2.62629 19.0322 3.21657L19.6107 3.69399L18.6558 4.85083L18.0774 4.3734C17.4638 3.86691 16.7927 3.4489 16.084 3.12853Z" fill="#10181B"/>
<path d="M21.2689 11.8943L21.1563 12.6358C21.0392 13.4069 20.8244 14.1684 20.5119 14.9008L20.2176 15.5906L21.5973 16.1793L21.8916 15.4894C22.254 14.64 22.5033 13.7563 22.6393 12.8611L22.7519 12.1196L21.2689 11.8943Z" fill="#10181B"/>
<path d="M18.7836 17.4299L19.2802 16.8678L20.4044 17.8609L19.9079 18.423C19.3048 19.1057 18.6115 19.7078 17.8403 20.2182L17.2149 20.6321L16.3871 19.3812L17.0125 18.9673C17.6755 18.5285 18.2689 18.0127 18.7836 17.4299Z" fill="#10181B"/>
<path fill-rule="evenodd" clip-rule="evenodd" d="M14.9997 14.7061C15.4128 14.9727 15.9094 15.106 16.4894 15.106C17.0754 15.106 17.5734 14.9727 17.9836 14.7061C18.3967 14.4395 18.7131 14.0571 18.9328 13.5591C19.1525 13.0581 19.2624 12.4546 19.2624 11.7485C19.2624 11.0425 19.1525 10.439 18.9328 9.93799C18.7131 9.43701 18.3967 9.05322 17.9836 8.78662C17.5705 8.51709 17.0739 8.38232 16.4938 8.38232C15.9137 8.38232 15.4172 8.51562 15.0041 8.78223C14.591 9.04883 14.2746 9.43408 14.0549 9.93799C13.8351 10.439 13.7253 11.0425 13.7253 11.7485C13.7253 12.4546 13.8351 13.0581 14.0549 13.5591C14.2746 14.0571 14.5895 14.4395 14.9997 14.7061ZM17.1135 13.5767C16.9435 13.7349 16.7355 13.814 16.4894 13.814C16.2463 13.814 16.0383 13.7349 15.8654 13.5767C15.6955 13.4155 15.5666 13.1812 15.4787 12.8735C15.3937 12.5659 15.3512 12.1909 15.3512 11.7485C15.3512 11.0835 15.4494 10.5708 15.6457 10.2104C15.842 9.84717 16.1232 9.66553 16.4894 9.66553C16.7355 9.66553 16.9435 9.74756 17.1135 9.91162C17.2834 10.0728 17.4123 10.3086 17.5002 10.6191C17.5881 10.9268 17.632 11.3032 17.632 11.7485C17.632 12.1909 17.5881 12.5659 17.5002 12.8735C17.4123 13.1812 17.2834 13.4155 17.1135 13.5767Z" fill="#10181B"/>
<path fill-rule="evenodd" clip-rule="evenodd" d="M10.5721 15.106C10.0623 15.106 9.60824 15.0254 9.2098 14.8643C8.81429 14.7002 8.50228 14.479 8.27377 14.2007C8.04818 13.9194 7.93539 13.603 7.93539 13.2515C7.93539 12.979 7.99984 12.73 8.12875 12.5044C8.25765 12.2788 8.43343 12.0898 8.65609 11.9375C8.87875 11.7852 9.12777 11.687 9.40316 11.6431V11.6035C9.04281 11.5332 8.74691 11.3633 8.51547 11.0938C8.28695 10.8242 8.17269 10.5093 8.17269 10.1489C8.17269 9.80908 8.27523 9.50732 8.48031 9.24365C8.68832 8.97705 8.97396 8.76758 9.33724 8.61523C9.70052 8.45996 10.1121 8.38232 10.5721 8.38232C11.035 8.38232 11.4481 8.45996 11.8114 8.61523C12.1746 8.76758 12.4603 8.97705 12.6683 9.24365C12.8763 9.51025 12.9803 9.81201 12.9803 10.1489C12.9803 10.5122 12.8631 10.8286 12.6287 11.0981C12.3944 11.3647 12.1014 11.5332 11.7498 11.6035V11.6431C12.0194 11.687 12.2655 11.7852 12.4881 11.9375C12.7108 12.0898 12.888 12.2788 13.0199 12.5044C13.1517 12.73 13.2176 12.979 13.2176 13.2515C13.2176 13.603 13.1034 13.9194 12.8748 14.2007C12.6493 14.479 12.3372 14.7002 11.9388 14.8643C11.5404 15.0254 11.0848 15.106 10.5721 15.106ZM10.5721 13.9897C10.7684 13.9897 10.9398 13.9531 11.0863 13.8799C11.2328 13.8037 11.347 13.6997 11.429 13.5679C11.514 13.436 11.5565 13.2852 11.5565 13.1152C11.5565 12.9482 11.514 12.7988 11.429 12.667C11.3441 12.5352 11.2269 12.4326 11.0775 12.3594C10.931 12.2832 10.7625 12.2451 10.5721 12.2451C10.3846 12.2451 10.2161 12.2832 10.0667 12.3594C9.92025 12.4326 9.80453 12.5352 9.71957 12.667C9.63461 12.7959 9.59213 12.9453 9.59213 13.1152C9.59213 13.2852 9.63314 13.436 9.71517 13.5679C9.80013 13.6968 9.91586 13.7993 10.0623 13.8755C10.2118 13.9517 10.3817 13.9897 10.5721 13.9897ZM10.5721 11.1245C10.7391 11.1245 10.887 11.0908 11.016 11.0234C11.1449 10.9561 11.2459 10.8623 11.3192 10.7422C11.3953 10.6191 11.4334 10.4814 11.4334 10.3291C11.4334 10.1738 11.3953 10.0376 11.3192 9.92041C11.2459 9.80322 11.1449 9.7124 11.016 9.64795C10.887 9.58057 10.7391 9.54688 10.5721 9.54688C10.4051 9.54688 10.2572 9.58057 10.1283 9.64795C9.99935 9.7124 9.89828 9.80322 9.82504 9.92041C9.75179 10.0376 9.71517 10.1738 9.71517 10.3291C9.71517 10.4814 9.75179 10.6177 9.82504 10.7378C9.89828 10.8579 9.99935 10.9531 10.1283 11.0234C10.2601 11.0908 10.408 11.1245 10.5721 11.1245Z" fill="#10181B"/>
<path d="M7.35742 15.0181V8.47021H5.88965L4.27246 9.47656V10.8477L5.74023 9.94678H5.77539V15.0181H7.35742Z" fill="#10181B"/>
</g>
<defs>
<clipPath id="clip0_44_42544">
<rect width="24" height="24" fill="white"/>
</clipPath>
</defs>
</svg>
