<svg width="16" height="16" viewBox="0 0 16 16" fill="none" xmlns="http://www.w3.org/2000/svg">
<path d="M2.23279 7.37988H0.473145L3.0282 9.76213L5.58325 7.37988H3.73779C3.96728 4.90916 6.04985 2.97314 8.58297 2.97314H9.33297V1.47314H8.58297C5.22238 1.47314 2.46605 4.0785 2.23279 7.37988Z" fill="#10181B"/>
<path d="M10.6398 1.78564L11.3235 2.09382C11.8237 2.31926 12.2944 2.61453 12.7219 2.97195L13.2973 3.45301L12.4201 4.5022L13.5546 3.78027L13.9572 4.41302C14.2484 4.8706 14.4866 5.3669 14.6555 5.9015L14.8813 6.61668L13.865 6.93761L14.9358 6.91016L14.955 7.65991C14.9688 8.19746 14.9208 8.74827 14.7939 9.29085L14.6232 10.0212L13.2262 9.69457L14.4609 10.4133L14.0836 11.0615C13.8119 11.5282 13.4771 11.968 13.0851 12.3599L12.5548 12.8902L11.4941 11.8296L12.0245 11.2992C12.3222 11.0015 12.5786 10.6653 12.7872 10.3069L13.1645 9.65869L13.1672 9.66022L13.3333 8.9494C13.4282 8.54363 13.4664 8.12147 13.4555 7.69836L13.4383 7.02849L13.2251 6.35319C13.0983 5.95176 12.9178 5.57361 12.6917 5.21833L12.2891 4.58559L12.3029 4.5768L11.7598 4.12273C11.436 3.85203 11.0815 3.63002 10.7072 3.46134L10.0234 3.15317L10.6398 1.78564Z" fill="#10181B"/>
<path d="M11.48 13.5286L12.1508 13.1932L11.48 11.8516L10.8092 12.187C10.4293 12.3769 10.0355 12.5196 9.62679 12.6034L8.89209 12.7541L9.19351 14.2235L9.92821 14.0728C10.4802 13.9596 10.9978 13.7697 11.48 13.5286Z" fill="#10181B"/>
<path d="M6.13498 12.1396L6.83761 12.402C7.2477 12.5551 7.65324 12.6553 8.06202 12.6972L8.80811 12.7737L8.65506 14.2659L7.90898 14.1894C7.35709 14.1328 6.82661 13.999 6.31298 13.8072L5.61035 13.5449L6.13498 12.1396Z" fill="#10181B"/>
<path d="M4.60985 10.6715L4.17212 10.0625L2.9541 10.938L3.39183 11.547C3.7119 11.9923 4.08769 12.396 4.50599 12.7446L5.08216 13.2247L6.04244 12.0724L5.46627 11.5923C5.14561 11.325 4.85633 11.0144 4.60985 10.6715Z" fill="#10181B"/>
</svg>
