<svg width="16" height="16" viewBox="0 0 16 16" fill="none" xmlns="http://www.w3.org/2000/svg">
<path d="M7.99609 0.25H7.24609V1.75H7.99609C10.9138 1.75 13.2741 4.11566 13.2741 7.02797C13.2741 9.58175 11.454 11.7158 9.04199 12.202V10.3659L6.63263 12.95L7.24609 13.608V13.8059H7.43064L9.04199 15.5342V13.7389C9.50598 13.666 9.96594 13.5469 10.4233 13.3687L11.1221 13.0964L11.1046 13.0514C11.3182 12.9408 11.5251 12.8192 11.7247 12.6874L11.7532 12.722L12.3324 12.2455C12.7829 11.875 13.1832 11.4456 13.525 10.9583L13.9557 10.3443L13.9209 10.3199C14.4643 9.34491 14.7741 8.22225 14.7741 7.02797C14.7741 3.28828 11.7433 0.25 7.99609 0.25Z" fill="#10181B"/>
<path d="M3.29394 4.5444L3.69903 3.91321L2.43665 3.10303L2.03156 3.73422C1.71981 4.21997 1.46721 4.75443 1.28678 5.31016L1.05518 6.0235L2.48186 6.48671L2.71347 5.77337C2.8547 5.33837 3.05243 4.92071 3.29394 4.5444Z" fill="#10181B"/>
<path d="M6.38264 1.97279L5.69923 2.28173C5.29075 2.46638 4.90343 2.70755 4.54889 3.00019L3.97047 3.47761L3.01562 2.32078L3.59404 1.84335C4.0501 1.46693 4.55056 1.15484 5.08135 0.914898L5.76476 0.605957L6.38264 1.97279Z" fill="#10181B"/>
<path d="M2.77384 7.77079L2.66121 7.0293L1.17822 7.25456L1.29085 7.99606C1.37748 8.56637 1.53627 9.12924 1.76711 9.67027L2.06144 10.3601L3.44111 9.77145L3.14678 9.08161C2.96589 8.65765 2.84161 8.21694 2.77384 7.77079Z" fill="#10181B"/>
<path d="M3.65497 9.98389L4.1515 10.546C4.44832 10.882 4.79076 11.1798 5.17415 11.4335L5.7996 11.8474L4.9718 13.0983L4.34635 12.6844C3.85481 12.3591 3.41239 11.975 3.02729 11.539L2.53076 10.9769L3.65497 9.98389Z" fill="#10181B"/>
</svg>
