<svg width="24" height="24" viewBox="0 0 24 24" fill="none" xmlns="http://www.w3.org/2000/svg">
<path d="M2.34633 13.6907L2.35657 13.7803L2.43307 13.7716L3.05681 14.3531L6.01792 11.5923H3.71081C3.85325 7.10025 7.54631 3.5 12.0766 3.5H12.8266V2H12.0766C6.71934 2 2.35304 6.27027 2.21015 11.5923H0.0957031L2.34633 13.6907Z" fill="#10181B"/>
<path d="M16.3348 2.96638L15.651 2.6582L15.0347 4.02572L15.7184 4.3339C16.3655 4.62552 16.9774 5.00889 17.5355 5.47553L18.1109 5.9566L19.0731 4.80581L18.4977 4.32475C17.8358 3.77139 17.1077 3.31476 16.3348 2.96638Z" fill="#10181B"/>
<path d="M20.0067 5.9248L20.4094 6.55755C20.8619 7.2687 21.2308 8.03778 21.4918 8.86436L21.7176 9.57955L20.2873 10.0312L20.0614 9.31606C19.8425 8.62263 19.5313 7.97171 19.1439 7.36286L18.7412 6.73012L20.0067 5.9248Z" fill="#10181B"/>
<path d="M20.9825 16.219L20.6052 16.8671C20.1836 17.5913 19.6644 18.2731 19.0573 18.8802L18.527 19.4105L17.4663 18.3498L17.9966 17.8195C18.5096 17.3066 18.9503 16.7284 19.3088 16.1125L19.6861 15.4644L20.9825 16.219Z" fill="#10181B"/>
<path d="M17.243 20.3553L16.5722 20.6907C15.821 21.0663 15.0191 21.3599 14.1675 21.5346L13.4328 21.6853L13.1313 20.2159L13.866 20.0652C14.5744 19.9199 15.2525 19.6735 15.9013 19.3491L16.5722 19.0137L17.243 20.3553Z" fill="#10181B"/>
<path d="M8.37668 19.4551L9.07931 19.7174C9.77754 19.9781 10.4751 20.1513 11.1835 20.2239L11.9296 20.3005L11.7766 21.7926L11.0305 21.7161C10.1789 21.6288 9.35645 21.422 8.55468 21.1227L7.85205 20.8603L8.37668 19.4551Z" fill="#10181B"/>
<path d="M4.80787 16.1333L5.24559 16.7423C5.6688 17.3311 6.16554 17.8646 6.71672 18.3239L7.29289 18.804L6.33261 19.9563L5.75644 19.4762C5.10762 18.9355 4.52437 18.309 4.02757 17.6178L3.58984 17.0088L4.80787 16.1333Z" fill="#10181B"/>
<path fill-rule="evenodd" clip-rule="evenodd" d="M14.8265 15.588C14.2464 15.588 13.7498 15.4547 13.3368 15.1881C12.9266 14.9215 12.6117 14.5391 12.3919 14.0411C12.1722 13.5401 12.0623 12.9366 12.0623 12.2305C12.0623 11.5245 12.1722 10.921 12.3919 10.42C12.6117 9.91608 12.9281 9.53083 13.3412 9.26422C13.7542 8.99762 14.2508 8.86432 14.8309 8.86432C15.411 8.86432 15.9076 8.99909 16.3206 9.26862C16.7337 9.53522 17.0501 9.91901 17.2699 10.42C17.4896 10.921 17.5995 11.5245 17.5995 12.2305C17.5995 12.9366 17.4896 13.5401 17.2699 14.0411C17.0501 14.5391 16.7337 14.9215 16.3206 15.1881C15.9105 15.4547 15.4124 15.588 14.8265 15.588ZM14.8265 14.296C15.0726 14.296 15.2806 14.2169 15.4505 14.0587C15.6204 13.8975 15.7494 13.6631 15.8372 13.3555C15.9251 13.0479 15.9691 12.6729 15.9691 12.2305C15.9691 11.7852 15.9251 11.4088 15.8372 11.1011C15.7494 10.7906 15.6204 10.5548 15.4505 10.3936C15.2806 10.2296 15.0726 10.1475 14.8265 10.1475C14.4603 10.1475 14.179 10.3292 13.9828 10.6924C13.7865 11.0528 13.6883 11.5655 13.6883 12.2305C13.6883 12.6729 13.7308 13.0479 13.8158 13.3555C13.9037 13.6631 14.0326 13.8975 14.2025 14.0587C14.3753 14.2169 14.5833 14.296 14.8265 14.296Z" fill="#10181B"/>
<path fill-rule="evenodd" clip-rule="evenodd" d="M8.83008 8.85114C9.19043 8.85114 9.5332 8.90973 9.8584 9.02692C10.1865 9.14411 10.478 9.33161 10.7329 9.58942C10.9878 9.8443 11.1885 10.1798 11.335 10.5958C11.4814 11.0118 11.5547 11.5172 11.5547 12.1119C11.5547 12.6539 11.4902 13.1402 11.3613 13.5709C11.2324 13.9986 11.0464 14.3648 10.8032 14.6695C10.563 14.9713 10.2729 15.2027 9.93311 15.3638C9.59619 15.522 9.21973 15.6011 8.80371 15.6011C8.34668 15.6011 7.94238 15.5118 7.59082 15.3331C7.23926 15.1514 6.95801 14.9097 6.74707 14.608C6.53613 14.3033 6.41016 13.9678 6.36914 13.6016H7.9248C7.97168 13.8126 8.07422 13.9737 8.23242 14.085C8.39355 14.1964 8.58398 14.252 8.80371 14.252C9.20508 14.252 9.50391 14.0777 9.7002 13.7291C9.89648 13.3775 9.99463 12.9102 9.99463 12.3272H9.95508C9.86719 12.5206 9.73828 12.6876 9.56836 12.8282C9.40137 12.9688 9.20947 13.0772 8.99268 13.1534C8.77588 13.2296 8.54443 13.2676 8.29834 13.2676C7.90869 13.2676 7.56299 13.1783 7.26123 12.9996C6.95947 12.8179 6.72363 12.5689 6.55371 12.2525C6.38379 11.9361 6.29883 11.5757 6.29883 11.1715C6.29883 10.7144 6.40576 10.3116 6.61963 9.96295C6.8335 9.61432 7.13086 9.34186 7.51172 9.14557C7.89258 8.94635 8.33203 8.84821 8.83008 8.85114ZM8.84326 10.0816C8.65283 10.0816 8.47998 10.127 8.32471 10.2178C8.16943 10.3087 8.04785 10.4332 7.95996 10.5914C7.87207 10.7466 7.82812 10.9239 7.82812 11.1231C7.82812 11.3194 7.87207 11.4966 7.95996 11.6548C8.04785 11.8131 8.16797 11.9376 8.32031 12.0284C8.47266 12.1163 8.64551 12.1602 8.83887 12.1602C9.03223 12.1602 9.20508 12.1148 9.35742 12.024C9.5127 11.9302 9.63428 11.8057 9.72217 11.6505C9.81006 11.4923 9.854 11.315 9.854 11.1187C9.854 10.9254 9.81006 10.751 9.72217 10.5958C9.63721 10.4376 9.51855 10.3131 9.36621 10.2222C9.21387 10.1285 9.03955 10.0816 8.84326 10.0816Z" fill="#10181B"/>
<path d="M21.9565 11.5906L21.9372 10.8408L20.4377 10.8793L20.457 11.629C20.4755 12.3518 20.4104 13.0775 20.2464 13.7791L20.0757 14.5094L21.5363 14.8508L21.707 14.1205C21.903 13.2821 21.9779 12.4278 21.9565 11.5906Z" fill="#10181B"/>
</svg>
