<svg width="16" height="16" viewBox="0 0 16 16" fill="none" xmlns="http://www.w3.org/2000/svg">
<path d="M4.5 4.5H5.5V5.5H4.5V4.5Z" fill="#10181B"/>
<path d="M5.5 6.5H4.5V7.5H5.5V6.5Z" fill="#10181B"/>
<path d="M4.5 8.5H5.5V9.5H4.5V8.5Z" fill="#10181B"/>
<path d="M5.5 10.5H4.5V11.5H5.5V10.5Z" fill="#10181B"/>
<path d="M8.5 4.5H9.5V5.5H8.5V4.5Z" fill="#10181B"/>
<path d="M9.5 6.5H8.5V7.5H9.5V6.5Z" fill="#10181B"/>
<path d="M8.5 8.5H9.5V9.5H8.5V8.5Z" fill="#10181B"/>
<path d="M9.5 10.5H8.5V11.5H9.5V10.5Z" fill="#10181B"/>
<path d="M6.5 4.5H7.5V5.5H6.5V4.5Z" fill="#10181B"/>
<path d="M7.5 6.5H6.5V7.5H7.5V6.5Z" fill="#10181B"/>
<path d="M6.5 8.5H7.5V9.5H6.5V8.5Z" fill="#10181B"/>
<path d="M7.5 10.5H6.5V11.5H7.5V10.5Z" fill="#10181B"/>
<path d="M10.5 4.5H11.5V5.5H10.5V4.5Z" fill="#10181B"/>
<path d="M11.5 6.5H10.5V7.5H11.5V6.5Z" fill="#10181B"/>
<path d="M10.5 8.5H11.5V9.5H10.5V8.5Z" fill="#10181B"/>
<path d="M11.5 10.5H10.5V11.5H11.5V10.5Z" fill="#10181B"/>
<path fill-rule="evenodd" clip-rule="evenodd" d="M1 1V15H15V1H1ZM13.5 2.5H2.5V13.5H13.5V2.5Z" fill="#10181B"/>
</svg>
