<svg width="16" height="16" viewBox="0 0 16 16" fill="none" xmlns="http://www.w3.org/2000/svg">
<path d="M10.0018 3.53927C9.36728 3.35746 8.6968 3.24989 8.00005 3.24989C6.16411 3.24989 4.51055 3.99683 3.21664 4.88055C2.13861 5.61683 1.2691 6.47569 0.700259 7.16484C0.634209 7.22444 0.579173 7.28682 0.538985 7.33605C0.491003 7.39483 0.445216 7.45826 0.407468 7.51865C0.389238 7.54781 0.365876 7.5874 0.34418 7.63256C0.333518 7.65476 0.317843 7.68945 0.303386 7.73224C0.293491 7.76152 0.261719 7.85718 0.261719 7.98267C0.261719 8.149 0.31683 8.27637 0.331253 8.30971L0.331795 8.31096C0.353711 8.36166 0.377936 8.40551 0.397943 8.43892L0.394043 8.44177C0.407346 8.46001 0.420937 8.47846 0.434811 8.49711C0.469661 8.54929 0.508046 8.5997 0.546561 8.64539L0.562926 8.66451C1.04783 9.2815 1.80352 10.0691 2.7542 10.7869L5.04144 8.49964C5.01418 8.33711 5 8.17016 5 7.99989C5 6.34303 6.34315 4.99989 8 4.99989C8.17027 4.99989 8.33722 5.01407 8.49975 5.04132L10.0018 3.53927Z" fill="#10181B"/>
<path fill-rule="evenodd" clip-rule="evenodd" d="M2.57324 13.0479L2.05762 13.5635L3.11828 14.6242L5.45739 12.2851C6.24747 12.5711 7.10194 12.7499 8.00005 12.7499C9.83598 12.7499 11.4895 12.0029 12.7835 11.1192C14.0785 10.2347 15.0726 9.17335 15.6061 8.44177L15.5964 8.43471C15.6133 8.40703 15.6335 8.37191 15.6524 8.33254C15.6631 8.31035 15.6787 8.27565 15.6932 8.23287C15.7031 8.20358 15.7349 8.10792 15.7349 7.98243C15.7349 7.81611 15.6798 7.68873 15.6653 7.6554L15.6648 7.65414C15.6411 7.5994 15.6148 7.55263 15.5939 7.51838C15.5514 7.44845 15.5008 7.37997 15.45 7.31972C15.4105 7.27289 15.3593 7.21715 15.2986 7.16333C14.7379 6.48438 13.8857 5.64103 12.83 4.91249L14.4671 3.27539L13.427 2.23535L2.59386 13.0685L2.57324 13.0479ZM10.806 6.93642L9.45915 8.28332C9.35042 8.87991 8.88002 9.35031 8.28343 9.45904L6.93654 10.8059C7.26708 10.9313 7.62552 10.9999 8 10.9999C9.65685 10.9999 11 9.65674 11 7.99989C11 7.62541 10.9314 7.26696 10.806 6.93642Z" fill="#10181B"/>
</svg>
