<svg width="16" height="16" viewBox="0 0 16 16" fill="none" xmlns="http://www.w3.org/2000/svg">
<path d="M7.91016 2.41992H13.6102V3.91992H7.91016V2.41992Z" fill="#10181B"/>
<path d="M7.91016 11.75H13.6102V13.25H7.91016V11.75Z" fill="#10181B"/>
<path d="M13.6102 7.08008H7.91016V8.58008H13.6102V7.08008Z" fill="#10181B"/>
<path d="M5 2.5H3C2.44772 2.5 2 2.94772 2 3.5V5.5C2 6.05228 2.44772 6.5 3 6.5H5C5.55228 6.5 6 6.05228 6 5.5V3.5C6 2.94772 5.55228 2.5 5 2.5Z" fill="#10181B"/>
<path d="M3 9.16992H5C5.55228 9.16992 6 9.61764 6 10.1699V12.1699C6 12.7222 5.55228 13.1699 5 13.1699H3C2.44772 13.1699 2 12.7222 2 12.1699V10.1699C2 9.61764 2.44772 9.16992 3 9.16992Z" fill="#10181B"/>
</svg>
