<svg width="24" height="24" viewBox="0 0 24 24" fill="none" xmlns="http://www.w3.org/2000/svg">
<path fill-rule="evenodd" clip-rule="evenodd" d="M3.5 4C3.22386 4 3 4.22386 3 4.5V9.5C3 9.77614 3.22386 10 3.5 10H8.5C8.77614 10 9 9.77614 9 9.5V4.5C9 4.22386 8.77614 4 8.5 4H3.5ZM4.5 5.5V8.5H7.5V5.5H4.5Z" fill="#10181B"/>
<path d="M11.25 4.25H20.75V5.75H11.25V4.25Z" fill="#10181B"/>
<path d="M11.25 18.25H20.75V19.75H11.25V18.25Z" fill="#10181B"/>
<path d="M20.75 11.25H11.25V12.75H20.75V11.25Z" fill="#10181B"/>
<path fill-rule="evenodd" clip-rule="evenodd" d="M3 14.5C3 14.2239 3.22386 14 3.5 14H8.5C8.77614 14 9 14.2239 9 14.5V19.5C9 19.7761 8.77614 20 8.5 20H3.5C3.22386 20 3 19.7761 3 19.5V14.5ZM4.5 18.5V15.5H7.5V18.5H4.5Z" fill="#10181B"/>
</svg>
