<svg width="16" height="16" viewBox="0 0 16 16" fill="none" xmlns="http://www.w3.org/2000/svg">
<path d="M13.9501 1.25H1.78345V2.75H13.9501V1.25Z" fill="#10181B"/>
<path d="M3.63333 4.25C3.17382 4.25 2.7288 4.3884 2.38167 4.64875C2.03406 4.90945 1.75 5.32655 1.75 5.85V10.15C1.75 10.6734 2.03406 11.0905 2.38167 11.3512C2.7288 11.6116 3.17382 11.75 3.63333 11.75H12.0333C12.4929 11.75 12.9379 11.6116 13.285 11.3512C13.6326 11.0905 13.9167 10.6734 13.9167 10.15V6C13.9167 5.43411 13.6069 4.98016 13.225 4.69375C12.8425 4.40689 12.348 4.25 11.8333 4.25H3.63333Z" fill="#10181B"/>
<path d="M1.78345 13.25H13.9501V14.75H1.78345V13.25Z" fill="#10181B"/>
</svg>
