<svg width="24" height="24" viewBox="0 0 24 24" fill="none" xmlns="http://www.w3.org/2000/svg">
<path d="M2.25 2.25H10V3.75H3.75V10H2.25V2.25Z" fill="#10181B"/>
<path fill-rule="evenodd" clip-rule="evenodd" d="M11.5413 6.81777L6.87747 8.71526C6.72834 8.77593 6.60931 8.87912 6.52867 9.00514C6.4523 9.12419 6.41001 9.26416 6.40991 9.40964V14.3902C6.40991 14.7013 6.60204 14.9802 6.89279 15.091L11.5628 16.871C11.6502 16.9043 11.7416 16.9205 11.8326 16.9202C11.9217 16.9199 12.0111 16.9037 12.0967 16.8712L16.7767 15.0912C17.0677 14.9805 17.2601 14.7015 17.2601 14.3902V9.4253C17.2662 9.12354 17.0885 8.83535 16.7922 8.71505L12.1184 6.81757C12.0951 6.80786 12.0712 6.79932 12.047 6.79199C11.9083 6.75 11.7568 6.74776 11.6103 6.79286C11.5869 6.80004 11.5639 6.80836 11.5413 6.81777ZM12.5801 11.7163V15.0825L15.7601 13.873V10.5L12.5801 11.7163Z" fill="#10181B"/>
<path d="M14 21.75H21.75V14H20.25V20.25H14V21.75Z" fill="#10181B"/>
<path d="M21.75 2.25H14V3.75H20.25V10H21.75V2.25Z" fill="#10181B"/>
<path d="M10 21.75H2.25V14H3.75L3.75 20.25H10V21.75Z" fill="#10181B"/>
</svg>
