<svg width="16" height="16" viewBox="0 0 16 16" fill="none" xmlns="http://www.w3.org/2000/svg">
<path fill-rule="evenodd" clip-rule="evenodd" d="M4 14.75C2.48122 14.75 1.25 13.5188 1.25 12V4C1.25 2.48122 2.48122 1.25 4 1.25H12C13.5188 1.25 14.75 2.48122 14.75 4V12C14.75 13.5188 13.5188 14.75 12 14.75H4ZM2.75 4C2.75 3.30964 3.30964 2.75 4 2.75H5.25V13.25H4C3.30964 13.25 2.75 12.6904 2.75 12V4ZM9.25 13.25H6.75V2.75H9.25V13.25ZM10.75 13.25H12C12.6904 13.25 13.25 12.6904 13.25 12V4C13.25 3.30964 12.6904 2.75 12 2.75H10.75V13.25Z" fill="#10181B"/>
</svg>
