<svg width="24" height="24" viewBox="0 0 24 24" fill="none" xmlns="http://www.w3.org/2000/svg">
<g clip-path="url(#clip0_44_42296)">
<path d="M7.75 6.77002H9.64C10.1923 6.77002 10.64 7.21773 10.64 7.77002V9.71002C10.64 10.2623 10.1923 10.71 9.64 10.71H7.75C7.19772 10.71 6.75 10.2623 6.75 9.71002V7.77002C6.75 7.21773 7.19772 6.77002 7.75 6.77002Z" fill="#10181B"/>
<path fill-rule="evenodd" clip-rule="evenodd" d="M6.75 3C4.67893 3 3 4.67893 3 6.75V16.75C3 18.8211 4.67893 20.5 6.75 20.5H16.54C18.6111 20.5 20.29 18.8211 20.29 16.75V6.75C20.29 4.67893 18.6111 3 16.54 3H6.75ZM4.5 6.75C4.5 5.50736 5.50736 4.5 6.75 4.5H16.54C17.7826 4.5 18.79 5.50736 18.79 6.75V16.75C18.79 17.9926 17.7826 19 16.54 19H6.75C5.50736 19 4.5 17.9926 4.5 16.75V6.75Z" fill="#10181B"/>
</g>
<defs>
<clipPath id="clip0_44_42296">
<rect width="17.29" height="17.5" fill="white" transform="translate(3 3)"/>
</clipPath>
</defs>
</svg>
