<svg width="16" height="16" viewBox="0 0 16 16" fill="none" xmlns="http://www.w3.org/2000/svg">
<path fill-rule="evenodd" clip-rule="evenodd" d="M14.4004 8.34928C14.4393 8.36895 14.5473 8.41895 14.7006 8.41895V9.04614C14.8882 9.04614 15.0288 8.98005 15.0948 8.94448C15.17 8.90391 15.2288 8.85838 15.2679 8.82523C15.3467 8.75852 15.4118 8.6853 15.4576 8.62916C15.5056 8.57039 15.5514 8.50696 15.5891 8.44657C15.6073 8.41741 15.6307 8.37782 15.6524 8.33266C15.6631 8.31046 15.6787 8.27577 15.6932 8.23298C15.7031 8.2037 15.7349 8.10804 15.7349 7.98254C15.7349 7.81622 15.6798 7.68884 15.6653 7.65551L15.6648 7.65426C15.6411 7.59951 15.6148 7.55274 15.5939 7.51849C15.5514 7.44856 15.5008 7.38009 15.45 7.31983C15.4007 7.26139 15.3331 7.18905 15.2517 7.12391C15.2111 7.09143 15.1519 7.04844 15.0771 7.01064C15.0103 6.97686 14.8765 6.91895 14.7006 6.91895V7.54614C14.5356 7.54614 14.4208 7.60373 14.3827 7.62426C14.3428 7.6458 14.316 7.66622 14.3037 7.67626C14.3081 7.66742 14.3115 7.66124 14.3133 7.65811L14.3172 7.65147C14.3171 7.65163 14.3148 7.65522 14.3103 7.66147C14.3058 7.66766 14.3007 7.67433 14.2956 7.68059C14.2889 7.6888 14.2854 7.69246 14.2854 7.69247C14.2854 7.69247 14.2895 7.68818 14.2983 7.68071C14.2996 7.67962 14.3014 7.67812 14.3037 7.67626C14.3026 7.67841 14.3015 7.68071 14.3003 7.68317C14.2951 7.69396 14.2837 7.71855 14.2721 7.7528L14.272 7.75324C14.2647 7.77477 14.2349 7.86306 14.2349 7.98254C14.2349 8.07184 14.2516 8.13967 14.2604 8.17133C14.2706 8.2075 14.2815 8.23448 14.2879 8.24944C14.2957 8.26751 14.3027 8.28094 14.3072 8.28908C14.3002 8.28312 14.297 8.27975 14.297 8.27972C14.297 8.2797 14.2992 8.28188 14.3032 8.28667C14.3099 8.29462 14.3136 8.30007 14.3136 8.30004C14.3136 8.30003 14.3132 8.29939 14.3124 8.29799L14.3123 8.29788C14.3117 8.29695 14.3099 8.29397 14.3072 8.28908C14.3093 8.29086 14.3118 8.29288 14.3145 8.29511C14.3242 8.30288 14.3535 8.32558 14.4004 8.34928Z" fill="#10181B"/>
<path d="M10.256 7.99982C10.256 9.24586 9.24586 10.256 7.99982 10.256C6.75377 10.256 5.74365 9.24586 5.74365 7.99982C5.74365 6.75377 6.75377 5.74365 7.99982 5.74365C9.24586 5.74365 10.256 6.75377 10.256 7.99982Z" fill="#10181B"/>
<path fill-rule="evenodd" clip-rule="evenodd" d="M15.606 7.55812C15.0726 6.82654 14.0784 5.76515 12.7834 4.88067C11.4895 3.99695 9.83594 3.25 8 3.25C6.16406 3.25 4.5105 3.99695 3.21659 4.88067C2.13847 5.617 1.26891 6.47594 0.700069 7.16513C0.634104 7.22468 0.579134 7.28698 0.538985 7.33617C0.491003 7.39494 0.445216 7.45837 0.407468 7.51876C0.389238 7.54792 0.365876 7.58751 0.34418 7.63268C0.333518 7.65487 0.317843 7.68957 0.303386 7.73235C0.293491 7.76163 0.261719 7.8573 0.261719 7.98279C0.261719 8.14911 0.31683 8.27649 0.331253 8.30982L0.331795 8.31107C0.353705 8.36176 0.377924 8.40561 0.397928 8.43901L0.393994 8.44188C0.407451 8.46033 0.421201 8.479 0.435242 8.49787C0.469977 8.54982 0.508205 8.60001 0.546561 8.6455C0.55165 8.65154 0.556934 8.65772 0.56241 8.66403C1.12349 9.37807 2.0474 10.3208 3.21659 11.1193C4.5105 12.0031 6.16406 12.75 8 12.75C9.83594 12.75 11.4895 12.0031 12.7834 11.1193C14.0784 10.2348 15.0726 9.17346 15.606 8.44188L15 8L15.606 7.55812ZM14.0422 8C13.5572 7.43383 12.8302 6.72905 11.9374 6.11933C10.7911 5.33639 9.43073 4.75 8 4.75C6.56927 4.75 5.20894 5.33639 4.06258 6.11933C3.16985 6.72905 2.44282 7.43383 1.95778 8C2.44281 8.56617 3.16985 9.27095 4.06258 9.88067C5.20894 10.6636 6.56927 11.25 8 11.25C9.43073 11.25 10.7911 10.6636 11.9374 9.88067C12.8302 9.27095 13.5572 8.56617 14.0422 8Z" fill="#10181B"/>
</svg>
