<svg width="24" height="24" viewBox="0 0 24 24" fill="none" xmlns="http://www.w3.org/2000/svg">
<path d="M15.8439 6.05189C14.6572 5.56215 13.3633 5.25015 12 5.25015C9.4538 5.25015 7.14949 6.33858 5.33379 7.64067C3.75939 8.76973 2.50411 10.0934 1.71575 11.1195C1.6722 11.1651 1.63318 11.2103 1.59991 11.2511C1.53417 11.3316 1.47229 11.4176 1.4229 11.4966C1.39885 11.5351 1.37077 11.583 1.34582 11.635C1.33353 11.6605 1.31659 11.6982 1.30128 11.7436C1.29052 11.7754 1.2583 11.8731 1.2583 12.0001C1.2583 12.1729 1.31651 12.3075 1.33337 12.3465C1.36029 12.4088 1.39143 12.4645 1.41808 12.5084C1.47226 12.5974 1.53893 12.6881 1.60749 12.7694C1.64612 12.8152 1.69139 12.8653 1.74192 12.9148C2.53175 13.9359 3.7767 15.243 5.33379 16.3596C5.373 16.3877 5.41244 16.4158 5.4521 16.4437L6.53035 15.3654C6.42159 15.2918 6.3141 15.2168 6.20795 15.1407C4.77725 14.1147 3.63632 12.9118 2.93078 12.0002C3.63632 11.0885 4.77725 9.88563 6.20795 8.85963C7.87836 7.66172 9.87961 6.75015 12 6.75015C12.9218 6.75015 13.821 6.92239 14.6802 7.21552L15.8439 6.05189Z" fill="#10181B"/>
<path d="M13.574 8.32173C13.0909 8.11475 12.5589 8.00015 12 8.00015C9.7909 8.00015 8.00004 9.79101 8.00004 12.0001C8.00004 12.559 8.11464 13.0911 8.32162 13.5741L13.574 8.32173Z" fill="#10181B"/>
<path fill-rule="evenodd" clip-rule="evenodd" d="M3.70681 20.2764L3.46586 20.5174L4.52652 21.578L8.15614 17.9484C9.34285 18.4381 10.6368 18.7501 12 18.7501C14.5463 18.7501 16.8506 17.6617 18.6663 16.3596C20.2538 15.2211 21.5169 13.8847 22.304 12.8552C22.3379 12.8183 22.3687 12.7823 22.3958 12.7492C22.4615 12.6687 22.5234 12.5827 22.5728 12.5037C22.5968 12.4652 22.6249 12.4173 22.6499 12.3653C22.6621 12.3398 22.6791 12.3021 22.6944 12.2567C22.7052 12.2249 22.7374 12.1272 22.7374 12.0001C22.7374 11.8274 22.6792 11.6928 22.6623 11.6538C22.6354 11.5915 22.6042 11.5358 22.5776 11.4919C22.5234 11.4029 22.4568 11.3122 22.3882 11.2309C22.3544 11.1908 22.3156 11.1475 22.2726 11.1042C21.4836 10.0804 20.2329 8.76415 18.6663 7.64067C18.6271 7.61254 18.5876 7.58451 18.5479 7.5566L21.3372 4.76735L20.2935 3.72363L3.72375 20.2933L3.70681 20.2764ZM17.4697 8.63485L15.6784 10.4261C15.8854 10.9092 16 11.4413 16 12.0001C16 14.2093 14.2092 16.0001 12 16.0001C11.4412 16.0001 10.9091 15.8855 10.426 15.6785L9.31977 16.7848C10.1791 17.0779 11.0783 17.2501 12 17.2501C14.1205 17.2501 16.1217 16.3386 17.7921 15.1407C19.2228 14.1147 20.3637 12.9118 21.0693 12.0001C20.3637 11.0885 19.2228 9.88563 17.7921 8.85963C17.686 8.78349 17.5785 8.70851 17.4697 8.63485Z" fill="#10181B"/>
</svg>
