<svg width="24" height="24" viewBox="0 0 24 24" fill="none" xmlns="http://www.w3.org/2000/svg">
<path fill-rule="evenodd" clip-rule="evenodd" d="M18.6661 7.64052C20.2324 8.76376 21.4828 10.0796 22.2719 11.1034C22.3152 11.1469 22.3542 11.1905 22.3882 11.2307C22.4567 11.312 22.5234 11.4027 22.5776 11.4918C22.6042 11.5356 22.6353 11.5912 22.6622 11.6535C22.6791 11.6925 22.7373 11.8273 22.7373 12C22.7373 12.127 22.7051 12.2248 22.6944 12.2566C22.6791 12.3019 22.6621 12.3396 22.6498 12.3652C22.6249 12.4171 22.5968 12.4651 22.5727 12.5035C22.5233 12.5826 22.4615 12.6685 22.3957 12.7491C22.3685 12.7824 22.3374 12.8188 22.3031 12.8559C21.516 13.8854 20.2532 15.2213 18.6661 16.3595C16.8504 17.6616 14.5461 18.75 11.9999 18.75C9.45362 18.75 7.14931 17.6616 5.33361 16.3595C3.77614 15.2426 2.53096 13.9352 1.74116 12.9139C1.69094 12.8647 1.64592 12.8149 1.60749 12.7693C1.53893 12.688 1.47226 12.5973 1.41808 12.5082C1.39143 12.4644 1.36036 12.4088 1.33343 12.3465C1.31657 12.3075 1.2583 12.1727 1.2583 12C1.2583 11.873 1.29052 11.7752 1.30128 11.7434C1.31659 11.6981 1.33353 11.6604 1.34582 11.6348C1.37077 11.5829 1.39885 11.5349 1.4229 11.4965C1.47229 11.4174 1.53417 11.3315 1.59991 11.2509C1.63294 11.2105 1.67163 11.1656 1.7148 11.1203C2.50312 10.0941 3.7587 8.76994 5.33361 7.64052C7.14931 6.33843 9.45362 5.25 11.9999 5.25C14.5461 5.25 16.8504 6.33843 18.6661 7.64052ZM12 16C14.2091 16 16 14.2091 16 12C16 9.79086 14.2091 8 12 8C9.79086 8 8 9.79086 8 12C8 14.2091 9.79086 16 12 16Z" fill="#10181B"/>
<path d="M13.4636 12C13.4636 12.8083 12.8083 13.4636 12 13.4636C11.1917 13.4636 10.5364 12.8083 10.5364 12C10.5364 11.1917 11.1917 10.5364 12 10.5364C12.8083 10.5364 13.4636 11.1917 13.4636 12Z" fill="#10181B"/>
</svg>
