<svg width="24" height="24" viewBox="0 0 24 24" fill="none" xmlns="http://www.w3.org/2000/svg">
<path d="M11.5299 4.89594L15.1872 3.27422L11.5299 1.54395L7.87256 3.27422L11.5299 4.89594Z" fill="#10181B"/>
<path d="M16.2784 4.38086V9.36357L12.1871 11.2987L12.1719 11.2759V6.20176L16.2784 4.38086Z" fill="#10181B"/>
<path d="M16.9201 10.6353L20.5701 12.3621L16.9201 13.9738L13.27 12.3621L13.2836 12.3553L16.9201 10.6353Z" fill="#10181B"/>
<path d="M21.657 13.4863V18.5329L17.5728 20.3439V15.2898L21.657 13.4863Z" fill="#10181B"/>
<path d="M16.2832 20.3708V15.277L12.167 13.4595V18.5456L16.2832 20.3708Z" fill="#10181B"/>
<path d="M10.8591 11.2245L10.8741 11.247L10.8591 11.2546L6.81543 9.34149V4.43506L10.8591 6.22808V11.2245Z" fill="#10181B"/>
<path d="M10.8772 18.5329V13.4863L6.79297 15.2898V20.3439L10.8772 18.5329Z" fill="#10181B"/>
<path d="M6.13981 10.6353L9.78987 12.3621L6.13981 13.9738L2.48975 12.3621L6.13981 10.6353Z" fill="#10181B"/>
<path d="M5.40646 20.2082V15.3541L1.48389 13.6221V18.4689L5.40646 20.2082Z" fill="#10181B"/>
</svg>
