<svg width="16" height="16" viewBox="0 0 16 16" fill="none" xmlns="http://www.w3.org/2000/svg">
<path d="M3.5 1.25H1.25V3.5H2.75V2.75H3.5V1.25Z" fill="#10181B"/>
<path d="M9.5 1.25H6.5V2.75H9.5V1.25Z" fill="#10181B"/>
<path d="M14.75 1.25H12.5V2.75H13.25V3.5H14.75V1.25Z" fill="#10181B"/>
<path d="M1.25 6.5V9.5H2.75V6.5H1.25Z" fill="#10181B"/>
<path d="M14.75 9.5V6.5H13.25V9.5H14.75Z" fill="#10181B"/>
<path d="M2.75 12.5H1.25V14.75H3.5V13.25H2.75V12.5Z" fill="#10181B"/>
<path d="M13.25 12.5V13.25H12.5V14.75H14.75V12.5H13.25Z" fill="#10181B"/>
<path d="M6.5 14.75H9.5V13.25H6.5V14.75Z" fill="#10181B"/>
<path d="M10 6H6V10H10V6Z" fill="#10181B"/>
</svg>
