<svg width="16" height="16" viewBox="0 0 16 16" fill="none" xmlns="http://www.w3.org/2000/svg">
<path d="M13.6102 2.41992H7.91016V3.91992H13.6102V2.41992Z" fill="#10181B"/>
<path d="M13.6102 5.08008H7.91016V6.58008H13.6102V5.08008Z" fill="#10181B"/>
<path d="M5 2.5H3C2.44772 2.5 2 2.94772 2 3.5V5.5C2 6.05228 2.44772 6.5 3 6.5H5C5.55228 6.5 6 6.05228 6 5.5V3.5C6 2.94772 5.55228 2.5 5 2.5Z" fill="#10181B"/>
<path d="M13.6102 9.08008H7.91016V10.5801H13.6102V9.08008Z" fill="#10181B"/>
<path d="M7.91016 11.7401H13.6102V13.2401H7.91016V11.7401Z" fill="#10181B"/>
<path d="M3 9.16016H5C5.55228 9.16016 6 9.60787 6 10.1602V12.1602C6 12.7124 5.55228 13.1602 5 13.1602H3C2.44772 13.1602 2 12.7124 2 12.1602V10.1602C2 9.60787 2.44772 9.16016 3 9.16016Z" fill="#10181B"/>
</svg>
