<svg width="16" height="16" viewBox="0 0 16 16" fill="none" xmlns="http://www.w3.org/2000/svg">
<path d="M3.96007 2.75C3.32808 2.75 2.81934 3.25874 2.81934 3.89073V10.3633C2.81934 10.9953 3.32808 11.5041 3.96007 11.5041H8.18595V13.0041H3.96007C2.49965 13.0041 1.31934 11.8238 1.31934 10.3633V3.89073C1.31934 2.43031 2.49965 1.25 3.96007 1.25H10.294C11.7544 1.25 12.9348 2.43031 12.9348 3.89073V8.39927H11.4348V3.89073C11.4348 3.25874 10.926 2.75 10.294 2.75H3.96007Z" fill="#10181B"/>
<path d="M12.9346 13.0039V14.7498H11.4346V13.0039H9.68896V11.5039H11.4346V9.75195H12.9346V11.5039H14.6805V13.0039H12.9346Z" fill="#10181B"/>
</svg>
