<svg width="24" height="24" viewBox="0 0 24 24" fill="none" xmlns="http://www.w3.org/2000/svg">
<path d="M5.25 2.25H2.25V5.25H3.75V3.75H5.25V2.25Z" fill="#10181B"/>
<path d="M14.25 2.25H9.75V3.75H14.25V2.25Z" fill="#10181B"/>
<path d="M21.75 2.25H18.75V3.75H20.25V5.25H21.75V2.25Z" fill="#10181B"/>
<path d="M2.25 9.75V14.25H3.75V9.75H2.25Z" fill="#10181B"/>
<path d="M21.75 14.25V9.75H20.25V14.25H21.75Z" fill="#10181B"/>
<path d="M3.75 18.75H2.25V21.75H5.25V20.25H3.75V18.75Z" fill="#10181B"/>
<path d="M18.75 20.25V21.75H21.75V18.75H20.25V20.25H18.75Z" fill="#10181B"/>
<path d="M9.75 21.75H14.25V20.25H9.75V21.75Z" fill="#10181B"/>
<path d="M16 8H8V16H16V8Z" fill="#10181B"/>
</svg>
