<svg width="16" height="16" viewBox="0 0 16 16" fill="none" xmlns="http://www.w3.org/2000/svg">
<path d="M5.66062 2.52606L6.84229 2.04945V3.31005C6.84229 3.72427 7.17807 4.06005 7.59229 4.06005C8.0065 4.06005 8.34229 3.72427 8.34229 3.31005V2.04627L9.53136 2.52586C9.91551 2.6808 10.3525 2.49499 10.5075 2.11085C10.6624 1.7267 10.4766 1.28969 10.0924 1.13475L7.93716 0.265455C7.83225 0.212652 7.71531 0.184498 7.5959 0.185067C7.47695 0.184503 7.35858 0.212229 7.25108 0.26716L5.09954 1.13495C4.7154 1.28989 4.52959 1.7269 4.68453 2.11104C4.83946 2.49519 5.27648 2.681 5.66062 2.52606Z" fill="#10181B"/>
<path d="M0.25 3.63259C0.242236 3.32947 0.420092 3.03933 0.717606 2.91843L2.81145 2.06758C3.19519 1.91165 3.63268 2.09632 3.78862 2.48006C3.94456 2.8638 3.75988 3.30129 3.37614 3.45723L2.9375 3.63548L3.51782 3.88695C3.89789 4.05165 4.07248 4.49326 3.90779 4.87333C3.74309 5.25339 3.30148 5.42798 2.92141 5.26329L1.75 4.75567V6.4544C1.75 6.86861 1.41421 7.2044 1 7.2044C0.585786 7.2044 0.25 6.86861 0.25 6.4544V3.63259Z" fill="#10181B"/>
<path d="M5.84015 4.87801C5.45985 4.71385 5.01848 4.88907 4.85433 5.26937C4.69017 5.64966 4.86539 6.09103 5.24568 6.25519L6.84976 6.94759V9.37694C6.84976 9.79115 7.18555 10.1269 7.59976 10.1269L7.60347 10.1269L7.60718 10.1269C8.02139 10.1269 8.35718 9.79115 8.35718 9.37694V6.94759L9.96126 6.25519C10.3416 6.09103 10.5168 5.64966 10.3526 5.26937C10.1885 4.88907 9.74709 4.71385 9.36679 4.87801L7.60347 5.63915L5.84015 4.87801Z" fill="#10181B"/>
<path d="M7.60348 11.4163L7.59978 11.4163C7.18557 11.4163 6.84978 11.752 6.84978 12.1663V13.8582L5.86299 13.4312C5.48284 13.2667 5.04131 13.4415 4.87681 13.8217C4.71231 14.2018 4.88713 14.6433 5.26728 14.8078L7.30193 15.6883C7.39856 15.7301 7.50127 15.7505 7.60348 15.75C7.70569 15.7505 7.8084 15.7301 7.90503 15.6883L9.93968 14.8078C10.3198 14.6433 10.4946 14.2018 10.3301 13.8217C10.1656 13.4415 9.72412 13.2667 9.34397 13.4312L8.35718 13.8582V12.1663C8.35718 11.752 8.02139 11.4163 7.60718 11.4163L7.60348 11.4163Z" fill="#10181B"/>
<path d="M1.02222 8.58984C1.43643 8.58984 1.77222 8.92563 1.77222 9.33984V10.9462L3.07492 10.3089C3.44699 10.1269 3.89618 10.2809 4.07821 10.653C4.26024 11.0251 4.10618 11.4743 3.73411 11.6563L2.80167 12.1125L3.54004 12.4324C3.9201 12.5971 4.0947 13.0387 3.93 13.4188C3.76531 13.7989 3.32369 13.9735 2.94363 13.8088L0.812126 12.8851C0.607501 12.8321 0.426406 12.6933 0.326228 12.4886C0.245393 12.3234 0.230836 12.1429 0.272217 11.9774V9.33984C0.272217 8.92563 0.608003 8.58984 1.02222 8.58984Z" fill="#10181B"/>
<path d="M14.1844 8.58984C14.5986 8.58984 14.9344 8.92563 14.9344 9.33984V12.1588C14.9344 12.4577 14.7569 12.7281 14.4826 12.8469L12.263 13.8088C11.8829 13.9735 11.4413 13.7989 11.2766 13.4188C11.1119 13.0387 11.2865 12.5971 11.6666 12.4324L12.35 12.1363L11.3688 11.6563C10.9967 11.4743 10.8427 11.0251 11.0247 10.653C11.2067 10.2809 11.6559 10.1269 12.028 10.3089L13.4344 10.997V9.33984C13.4344 8.92563 13.7702 8.58984 14.1844 8.58984Z" fill="#10181B"/>
<path d="M12.2692 3.63544L11.8306 3.45723C11.4469 3.30129 11.2622 2.8638 11.4182 2.48006C11.5741 2.09632 12.0116 1.91165 12.3953 2.06758L14.4892 2.91843C14.7885 3.04005 14.9667 3.33292 14.9566 3.63799V6.4544C14.9566 6.86861 14.6208 7.2044 14.2066 7.2044C13.7924 7.2044 13.4566 6.86861 13.4566 6.4544V4.75567L12.2852 5.26329C11.9051 5.42798 11.4635 5.25339 11.2988 4.87333C11.1341 4.49326 11.3087 4.05165 11.6888 3.88695L12.2692 3.63544Z" fill="#10181B"/>
</svg>
