<svg width="24" height="24" viewBox="0 0 24 24" fill="none" xmlns="http://www.w3.org/2000/svg">
<g clip-path="url(#clip0_44_42367)">
<path fill-rule="evenodd" clip-rule="evenodd" d="M12.5377 2.07545L17.2611 4.31234C17.5392 4.44402 17.6988 4.72458 17.69 5.0136V10.2545L21.978 12.2761C22.0086 12.2899 22.0384 12.3058 22.0673 12.3238C22.298 12.4675 22.428 12.7221 22.4199 12.9837V18.81C22.4199 19.1069 22.2447 19.3759 21.9731 19.496L17.2479 21.5838C17.226 21.5937 17.2036 21.6025 17.181 21.6102C17.021 21.6645 16.8458 21.6636 16.6845 21.6051C16.6668 21.5987 16.6493 21.5916 16.6321 21.5839L12.21 19.6299L7.78794 21.5838C7.76599 21.5937 7.74365 21.6025 7.72101 21.6102C7.56141 21.6643 7.38669 21.6636 7.22572 21.6055C7.20761 21.599 7.1897 21.5918 7.17204 21.5838L2.44688 19.496C2.17523 19.3759 2 19.1069 2 18.81V12.9607C2 12.7069 2.12839 12.4695 2.34119 12.3312C2.37556 12.3088 2.41138 12.2895 2.44827 12.2733L6.72998 10.2547V4.99107C6.72998 4.83954 6.77574 4.6933 6.8579 4.57128C6.92038 4.47829 7.00439 4.39827 7.10695 4.33958C7.126 4.32866 7.14543 4.31863 7.16518 4.30949L11.8826 2.07545C11.8953 2.06931 11.9081 2.06352 11.9211 2.0581C12.0153 2.01867 12.1134 1.99994 12.2101 2C12.3069 1.99994 12.405 2.01867 12.4992 2.0581C12.5122 2.06352 12.525 2.0693 12.5377 2.07545ZM15.1379 4.96654L12.2101 3.58003L9.28222 4.96662L12.21 6.26028L15.1379 4.96654ZM16.94 11.5802C16.926 11.5802 16.912 11.5799 16.8982 11.5791L14.0124 12.9396L16.94 14.2394L19.8676 12.9395L16.982 11.5791C16.9681 11.5798 16.9541 11.5802 16.94 11.5802ZM16.19 6.14158V10.2547L12.96 11.7775V7.56879L16.19 6.14158ZM11.46 11.7773V7.56879L8.22998 6.14158V10.2545L11.46 11.7773ZM7.47998 11.5802C7.46598 11.5802 7.45207 11.5799 7.43826 11.5791L4.55248 12.9396L7.47999 14.2394L10.4077 12.9395L7.52204 11.5791C7.50812 11.5798 7.49409 11.5802 7.47998 11.5802ZM16.1899 19.7486V15.5476L12.96 14.1135V18.3214L16.1899 19.7486ZM20.9199 18.3214L17.69 19.7486V15.5476L20.9199 14.1135V18.3214ZM8.23 15.5476L11.46 14.1135V18.3214L8.23 19.7486V15.5476ZM6.72998 19.7486V15.5476L3.5 14.1135V18.3214L6.72998 19.7486Z" fill="#10181B"/>
</g>
<defs>
<clipPath id="clip0_44_42367">
<rect width="20.42" height="19.65" fill="white" transform="translate(2 2)"/>
</clipPath>
</defs>
</svg>
