<svg width="24" height="24" viewBox="0 0 24 24" fill="none" xmlns="http://www.w3.org/2000/svg">
<path fill-rule="evenodd" clip-rule="evenodd" d="M20.706 1.96875H1.96875V20.7061H10.4089V19.8332H10.417V19.0832C10.417 13.9144 14.6112 9.72021 19.78 9.72021H20.53V9.70643L20.7064 9.70642L20.706 1.96875ZM19.2063 8.23512L19.2061 3.46875H3.46875V19.2061H8.91699V19.0832C8.91699 13.2785 13.4755 8.53365 19.2063 8.23512Z" fill="#10181B"/>
<path fill-rule="evenodd" clip-rule="evenodd" d="M21.9999 12.5498C21.9999 12.1356 21.6641 11.7998 21.2499 11.7998C21.2059 11.7998 21.1627 11.8036 21.1208 11.8109C16.4017 11.8746 12.6001 15.7157 12.6001 20.4501C12.6001 20.6599 12.6863 20.8497 12.8252 20.9858C12.9613 21.1241 13.1506 21.2098 13.3599 21.2098H18.2499C20.3241 21.2098 21.9999 19.534 21.9999 17.4598V12.5498ZM18.2499 19.7098H14.1379C14.4828 16.3557 17.1457 13.6928 20.4999 13.3479V17.4598C20.4999 18.7056 19.4957 19.7098 18.2499 19.7098Z" fill="#10181B"/>
</svg>
