<svg width="16" height="16" viewBox="0 0 16 16" fill="none" xmlns="http://www.w3.org/2000/svg">
<path d="M7.90153 3.82809L10.4188 2.7119L7.90153 1.521L5.38428 2.7119L7.90153 3.82809Z" fill="#10181B"/>
<path d="M11.1692 3.47363V6.90311L8.35326 8.23505L8.34277 8.21931V4.72691L11.1692 3.47363Z" fill="#10181B"/>
<path d="M11.6114 7.77832L14.1236 8.96686L11.6114 10.0762L9.09912 8.96686L9.10844 8.9622L11.6114 7.77832Z" fill="#10181B"/>
<path d="M14.8716 9.74072V13.2142L12.0605 14.4607V10.982L14.8716 9.74072Z" fill="#10181B"/>
<path d="M11.173 14.4791V10.9732L8.33984 9.72217V13.2228L11.173 14.4791Z" fill="#10181B"/>
<path d="M7.4399 8.18377L7.45023 8.19927L7.4399 8.20443L4.65674 6.88772V3.51074L7.4399 4.74484V8.18377Z" fill="#10181B"/>
<path d="M7.45221 13.2142V9.74072L4.64111 10.982V14.4607L7.45221 13.2142Z" fill="#10181B"/>
<path d="M4.19145 7.77832L6.70369 8.96686L4.19145 10.0762L1.6792 8.96686L4.19145 7.77832Z" fill="#10181B"/>
<path d="M3.68662 14.3671V11.0261L0.986816 9.83398V13.1699L3.68662 14.3671Z" fill="#10181B"/>
</svg>
