<svg width="24" height="24" viewBox="0 0 24 24" fill="none" xmlns="http://www.w3.org/2000/svg">
<path d="M15.1907 2.51445L12.267 1.33523C12.1593 1.27912 12.0385 1.24922 11.9151 1.25002C11.7924 1.24923 11.6703 1.27852 11.5601 1.3367L8.63958 2.51464C8.25544 2.66958 8.06963 3.10659 8.22457 3.49074C8.3795 3.87488 8.81652 4.06069 9.20066 3.90575L11.1602 3.11542V5.21C11.1602 5.62422 11.4959 5.96 11.9102 5.96C12.3244 5.96 12.6602 5.62422 12.6602 5.21V3.11121L14.6296 3.90556C15.0138 4.0605 15.4508 3.87469 15.6057 3.49054C15.7606 3.1064 15.5748 2.66939 15.1907 2.51445Z" fill="#10181B"/>
<path d="M2.25 5.63925C2.24224 5.33614 2.42009 5.046 2.71761 4.9251L5.54761 3.7751C5.93135 3.61916 6.36884 3.80384 6.52478 4.18758C6.68072 4.57132 6.49604 5.00881 6.1123 5.16475L4.93729 5.64223L6.29821 6.23196C6.67827 6.39665 6.85286 6.83826 6.68817 7.21833C6.52347 7.59839 6.08186 7.77298 5.70179 7.60829L3.75 6.76251V9.46012C3.75 9.87433 3.41421 10.2101 3 10.2101C2.58579 10.2101 2.25 9.87433 2.25 9.46012V5.63925Z" fill="#10181B"/>
<path d="M9.43732 7.57137C9.05702 7.40721 8.61565 7.58243 8.4515 7.96273C8.28734 8.34302 8.46256 8.78439 8.84285 8.94854L11.1701 9.9531V13.41C11.1701 13.8242 11.5059 14.16 11.9201 14.16L11.9251 14.1599L11.9302 14.16C12.3444 14.16 12.6802 13.8242 12.6802 13.41V9.9531L15.0074 8.94854C15.3877 8.78439 15.5629 8.34302 15.3988 7.96273C15.2346 7.58243 14.7932 7.40721 14.4129 7.57137L11.9251 8.64524L9.43732 7.57137Z" fill="#10181B"/>
<path d="M11.9251 16.4302L11.9201 16.4302C11.5059 16.4302 11.1701 16.766 11.1701 17.1802V19.8684L9.46797 19.1319C9.08782 18.9674 8.6463 19.1422 8.48179 19.5223C8.31729 19.9025 8.49211 20.344 8.87226 20.5085L11.6223 21.6985C11.7193 21.7405 11.8225 21.7609 11.9251 21.7602C12.0278 21.7609 12.131 21.7405 12.228 21.6985L14.978 20.5085C15.3582 20.344 15.533 19.9025 15.3685 19.5223C15.204 19.1422 14.7625 18.9674 14.3823 19.1319L12.6802 19.8684V17.1802C12.6802 16.766 12.3444 16.4302 11.9302 16.4302L11.9251 16.4302Z" fill="#10181B"/>
<path d="M3.03003 12.6099C3.44424 12.6099 3.78003 12.9457 3.78003 13.3599V15.9532L5.92033 14.9061C6.2924 14.724 6.74159 14.8781 6.92362 15.2502C7.10565 15.6222 6.95159 16.0714 6.57952 16.2535L4.80497 17.1216L6.32823 17.7817C6.7083 17.9464 6.88289 18.388 6.7182 18.7681C6.5535 19.1481 6.11189 19.3227 5.73182 19.158L2.82852 17.8999C2.6172 17.8502 2.42907 17.7096 2.32623 17.4994C2.24068 17.3245 2.22936 17.1326 2.28003 16.9594V13.3599C2.28003 12.9457 2.61582 12.6099 3.03003 12.6099Z" fill="#10181B"/>
<path d="M20.82 12.6099C21.2342 12.6099 21.57 12.9457 21.57 13.3599V17.1699C21.57 17.4688 21.3925 17.7392 21.1182 17.858L18.1182 19.158C17.7382 19.3227 17.2965 19.1481 17.1318 18.7681C16.9672 18.388 17.1417 17.9464 17.5218 17.7817L18.9707 17.1538L17.1303 16.2535C16.7582 16.0714 16.6042 15.6222 16.7862 15.2502C16.9682 14.8781 17.4174 14.724 17.7895 14.9061L20.07 16.0218V13.3599C20.07 12.9457 20.4058 12.6099 20.82 12.6099Z" fill="#10181B"/>
<path d="M18.9127 5.64225L17.7376 5.16475C17.3539 5.00881 17.1692 4.57132 17.3252 4.18758C17.4811 3.80384 17.9186 3.61916 18.3023 3.7751L21.1323 4.9251C21.4281 5.04528 21.6056 5.33271 21.6 5.63388V9.46012C21.6 9.87433 21.2643 10.2101 20.85 10.2101C20.4358 10.2101 20.1 9.87433 20.1 9.46012V6.76251L18.1483 7.60829C17.7682 7.77298 17.3266 7.59839 17.1619 7.21833C16.9972 6.83826 17.1718 6.39665 17.5518 6.23196L18.9127 5.64225Z" fill="#10181B"/>
</svg>
