<svg width="16" height="16" viewBox="0 0 16 16" fill="none" xmlns="http://www.w3.org/2000/svg">
<path d="M5.07886 4.26514H6.49636C6.91057 4.26514 7.24636 4.60092 7.24636 5.01514V6.47014C7.24636 6.88435 6.91057 7.22014 6.49636 7.22014H5.07886C4.66464 7.22014 4.32886 6.88435 4.32886 6.47014V5.01514C4.32886 4.60092 4.66464 4.26514 5.07886 4.26514Z" fill="#10181B"/>
<path fill-rule="evenodd" clip-rule="evenodd" d="M4.32886 1.25C2.672 1.25 1.32886 2.59315 1.32886 4.25V11.75C1.32886 13.4069 2.672 14.75 4.32886 14.75H11.6714C13.3282 14.75 14.6714 13.4069 14.6714 11.75V4.25C14.6714 2.59315 13.3282 1.25 11.6714 1.25H4.32886ZM2.82886 4.25C2.82886 3.42157 3.50043 2.75 4.32886 2.75H11.6714C12.4998 2.75 13.1714 3.42157 13.1714 4.25V11.75C13.1714 12.5784 12.4998 13.25 11.6714 13.25H4.32886C3.50043 13.25 2.82886 12.5784 2.82886 11.75V4.25Z" fill="#10181B"/>
</svg>
