<svg width="16" height="16" viewBox="0 0 16 16" fill="none" xmlns="http://www.w3.org/2000/svg">
<path fill-rule="evenodd" clip-rule="evenodd" d="M14.4092 1.25H1.25V14.4093H7.20157V14.0581H7.21094V13.3081C7.21094 9.74306 10.1039 6.8501 13.6689 6.8501H14.4189V5.3501H14.4094L14.4092 1.25ZM12.9094 5.38591L12.9093 2.75H2.75V12.9093H5.72077C5.91621 8.95401 9.00242 5.75623 12.9094 5.38591Z" fill="#10181B"/>
<path fill-rule="evenodd" clip-rule="evenodd" d="M15.2845 8.6499C15.2845 8.23569 14.9487 7.8999 14.5345 7.8999C14.498 7.8999 14.4621 7.90251 14.427 7.90755C11.1102 7.96126 8.44092 10.6638 8.44092 13.9935C8.44092 14.2052 8.52866 14.3965 8.66977 14.5329C8.8053 14.6672 8.99184 14.7502 9.19775 14.7502H12.5053C14.0424 14.7502 15.2845 13.508 15.2845 11.971V8.6499ZM10.0007 13.2502C10.3161 11.3112 11.8455 9.78188 13.7845 9.46652V11.971C13.7845 12.6796 13.2139 13.2502 12.5053 13.2502H10.0007Z" fill="#10181B"/>
</svg>
