<svg width="16" height="16" viewBox="0 0 16 16" fill="none" xmlns="http://www.w3.org/2000/svg">
<path fill-rule="evenodd" clip-rule="evenodd" d="M15.5964 8.43483L15.6061 8.44188C15.0726 9.17346 14.0785 10.2348 12.7835 11.1193C11.4895 12.0031 9.83598 12.75 8.00005 12.75C6.16411 12.75 4.51055 12.0031 3.21664 11.1193C2.04777 10.321 1.12405 9.37859 0.562926 8.66463L0.546561 8.6455C0.508046 8.59982 0.469661 8.54941 0.434811 8.49722C0.420937 8.47857 0.407346 8.46012 0.394043 8.44188L0.397943 8.43904C0.377936 8.40563 0.353711 8.36177 0.331795 8.31107L0.331253 8.30982C0.31683 8.27649 0.261719 8.14911 0.261719 7.98279C0.261719 7.8573 0.293491 7.76163 0.303386 7.73235C0.317843 7.68957 0.333518 7.65487 0.34418 7.63268C0.365876 7.58751 0.389238 7.54792 0.407468 7.51876C0.445216 7.45837 0.491003 7.39494 0.538985 7.33617C0.579173 7.28694 0.634209 7.22456 0.700259 7.16496C1.2691 6.4758 2.13861 5.61694 3.21664 4.88067C4.51055 3.99695 6.16411 3.25 8.00005 3.25C9.83598 3.25 11.4895 3.99695 12.7835 4.88067C13.8607 5.6164 14.7297 6.47454 15.2986 7.16345C15.3593 7.21726 15.4105 7.273 15.45 7.31983C15.5008 7.38009 15.5514 7.44856 15.5939 7.51849C15.6148 7.55274 15.6411 7.59951 15.6648 7.65426L15.6653 7.65551C15.6798 7.68884 15.7349 7.81622 15.7349 7.98254C15.7349 8.10804 15.7031 8.2037 15.6932 8.23298C15.6787 8.27577 15.6631 8.31046 15.6524 8.33265C15.6335 8.37202 15.6133 8.40715 15.5964 8.43483ZM8 11C9.65685 11 11 9.65685 11 8C11 6.34315 9.65685 5 8 5C6.34315 5 5 6.34315 5 8C5 9.65685 6.34315 11 8 11Z" fill="#10181B"/>
<path d="M9.48292 8.0193C9.48292 8.82764 8.82764 9.48292 8.0193 9.48292C7.21096 9.48292 6.55568 8.82764 6.55568 8.0193C6.55568 7.21096 7.21096 6.55568 8.0193 6.55568C8.82764 6.55568 9.48292 7.21096 9.48292 8.0193Z" fill="#10181B"/>
</svg>
