<svg width="16" height="16" viewBox="0 0 16 16" fill="none" xmlns="http://www.w3.org/2000/svg">
<path fill-rule="evenodd" clip-rule="evenodd" d="M8.07384 14.8086L12.1239 14.769C13.6426 14.7542 14.8617 13.511 14.8469 11.9923L14.7688 3.99268C14.7539 2.47397 13.5108 1.25483 11.9921 1.26967L3.99243 1.3478C2.47372 1.36263 1.25459 2.60581 1.26942 4.12453L1.34755 12.1241C1.36239 13.6429 2.60557 14.862 4.12428 14.8472L8.05758 14.8087C8.0578 14.8087 8.05736 14.8087 8.05758 14.8087C8.06279 14.8087 8.06865 14.8087 8.07384 14.8086ZM2.76935 4.10988C2.76261 3.41955 3.31676 2.85447 4.00708 2.84773L7.30824 2.81548V13.316L4.10963 13.3472C3.41931 13.354 2.85422 12.7998 2.84748 12.1095L2.76935 4.10988ZM8.80824 13.3013V2.80083L12.0067 2.76959C12.697 2.76285 13.2621 3.317 13.2688 4.00733L13.347 12.0069C13.3537 12.6973 12.7996 13.2624 12.1092 13.2691L8.80824 13.3013Z" fill="#10181B"/>
</svg>
