<svg width="16" height="16" viewBox="0 0 16 16" fill="none" xmlns="http://www.w3.org/2000/svg">
<path fill-rule="evenodd" clip-rule="evenodd" d="M1.25 4C1.25 2.48122 2.48122 1.25 4 1.25H12C13.5188 1.25 14.75 2.48122 14.75 4V12C14.75 13.5188 13.5188 14.75 12 14.75H4C2.48122 14.75 1.25 13.5188 1.25 12V4ZM4 2.75C3.30964 2.75 2.75 3.30964 2.75 4V7.25H7.25V2.75H4ZM7.25 8.75H2.75V12C2.75 12.6904 3.30964 13.25 4 13.25H7.25V8.75ZM13.25 8.75V12C13.25 12.6904 12.6904 13.25 12 13.25H8.75V8.75H13.25ZM13.25 7.25H8.75V2.75H12C12.6904 2.75 13.25 3.30964 13.25 4V7.25Z" fill="#10181B"/>
</svg>
