<svg width="16" height="16" viewBox="0 0 16 16" fill="none" xmlns="http://www.w3.org/2000/svg">
<path d="M10.0018 3.53928C9.36726 3.35747 8.69676 3.24989 8 3.24989C6.16406 3.24989 4.5105 3.99683 3.21659 4.88055C2.13847 5.61689 1.26891 6.47583 0.70007 7.16501C0.634104 7.22456 0.579135 7.28687 0.538985 7.33605C0.491003 7.39483 0.445216 7.45826 0.407468 7.51865C0.389238 7.54781 0.365876 7.5874 0.34418 7.63256C0.333518 7.65476 0.317843 7.68945 0.303386 7.73224C0.293491 7.76152 0.261719 7.85718 0.261719 7.98267C0.261719 8.149 0.31683 8.27637 0.331253 8.30971L0.331795 8.31096C0.353705 8.36165 0.377924 8.40549 0.397928 8.4389L0.393994 8.44177C0.407451 8.46022 0.421201 8.47889 0.435242 8.49775C0.469977 8.54971 0.508205 8.59989 0.546561 8.64539L0.56241 8.66392C1.0473 9.281 1.80319 10.0689 2.75418 10.7869L3.82659 9.71449C3.04147 9.14561 2.39934 8.51532 1.95778 7.99989C2.44282 7.43372 3.16985 6.72894 4.06258 6.11922C5.20894 5.33627 6.56927 4.74989 8 4.74989C8.24903 4.74989 8.49593 4.76765 8.73995 4.80113L10.0018 3.53928Z" fill="#10181B"/>
<path d="M5.75403 7.78704C5.85465 6.71073 6.71134 5.85405 7.78764 5.75343L5.75403 7.78704Z" fill="#10181B"/>
<path fill-rule="evenodd" clip-rule="evenodd" d="M2.57324 13.0479L2.05762 13.5635L3.11828 14.6242L5.45738 12.2851C6.24745 12.5711 7.1019 12.7499 8 12.7499C9.83594 12.7499 11.4895 12.0029 12.7834 11.1192C14.0784 10.2347 15.0726 9.17335 15.606 8.44177L15.5964 8.43474C15.6133 8.40705 15.6335 8.37192 15.6524 8.33254C15.6631 8.31035 15.6787 8.27565 15.6932 8.23287C15.7031 8.20358 15.7349 8.10792 15.7349 7.98243C15.7349 7.81611 15.6798 7.68873 15.6653 7.6554L15.6648 7.65414C15.6411 7.5994 15.6148 7.55263 15.5939 7.51838C15.5514 7.44845 15.5008 7.37997 15.45 7.31972C15.4105 7.27284 15.3592 7.21704 15.2984 7.16317C14.7378 6.48425 13.8856 5.64099 12.83 4.91251L14.4671 3.27539L13.427 2.23535L2.59386 13.0685L2.57324 13.0479ZM11.7489 5.99355L10.2084 7.5341C10.2399 7.68435 10.2565 7.84009 10.2565 7.9997C10.2565 9.24575 9.24635 10.2559 8.00031 10.2559C7.84069 10.2559 7.68495 10.2393 7.5347 10.2078L6.65855 11.0839C7.09546 11.1904 7.54416 11.2499 8 11.2499C9.43073 11.2499 10.7911 10.6635 11.9374 9.88055C12.8302 9.27083 13.5572 8.56606 14.0422 7.99989C13.5572 7.43371 12.8302 6.72894 11.9374 6.11922C11.8752 6.07673 11.8124 6.03482 11.7489 5.99355Z" fill="#10181B"/>
</svg>
