<svg width="24" height="24" viewBox="0 0 24 24" fill="none" xmlns="http://www.w3.org/2000/svg">
<path fill-rule="evenodd" clip-rule="evenodd" d="M21.2645 12.1908C21.3023 12.2092 21.3984 12.25 21.5341 12.25V13.25C21.7284 13.25 21.8767 13.1814 21.951 13.1413C22.0345 13.0963 22.1022 13.0444 22.1505 13.0034C22.2476 12.9212 22.3321 12.8269 22.3957 12.7491C22.4615 12.6685 22.5233 12.5826 22.5727 12.5035C22.5968 12.4651 22.6249 12.4171 22.6498 12.3652C22.6621 12.3396 22.6791 12.3019 22.6944 12.2566C22.7051 12.2248 22.7373 12.127 22.7373 12C22.7373 11.8273 22.6791 11.6926 22.6623 11.6536L22.6622 11.6535C22.6353 11.5912 22.6042 11.5356 22.5776 11.4918C22.5234 11.4027 22.4567 11.312 22.3882 11.2307C22.3211 11.1512 22.234 11.0589 22.1343 10.9791C22.0845 10.9392 22.0164 10.8902 21.9333 10.8482C21.8582 10.8103 21.7167 10.75 21.5341 10.75V11.75C21.4052 11.75 21.3102 11.7865 21.2633 11.8087C21.267 11.7957 21.2704 11.7848 21.2733 11.7764C21.284 11.7447 21.2942 11.7231 21.2977 11.7157C21.3022 11.7064 21.305 11.7015 21.305 11.7015C21.305 11.7015 21.3037 11.7038 21.3008 11.7084C21.2877 11.7294 21.2633 11.7643 21.2337 11.8005C21.2196 11.8178 21.2067 11.8324 21.196 11.8438C21.1859 11.8545 21.1807 11.8591 21.1807 11.8591C21.1807 11.8591 21.1807 11.859 21.1809 11.8589C21.1819 11.858 21.1866 11.8541 21.1949 11.8482C21.2029 11.8425 21.2177 11.8325 21.2389 11.8211C21.2444 11.8181 21.2526 11.8138 21.2633 11.8087C21.2599 11.8209 21.2563 11.8349 21.253 11.8505C21.2466 11.8806 21.2373 11.9332 21.2373 12C21.2373 12.0871 21.2536 12.1522 21.2616 12.1808C21.2626 12.1843 21.2635 12.1876 21.2645 12.1908ZM21.2645 12.1908C21.2615 12.1894 21.2588 12.188 21.2565 12.1869C21.2187 12.1678 21.1984 12.1514 21.1972 12.1503L21.1971 12.1503C21.1969 12.1501 21.1971 12.1503 21.1975 12.1506C21.2003 12.1532 21.2166 12.1682 21.2413 12.1976C21.2681 12.2293 21.2877 12.2576 21.296 12.2713C21.2971 12.2731 21.2976 12.274 21.2976 12.274C21.2976 12.274 21.2925 12.2652 21.2853 12.2486C21.281 12.2386 21.2728 12.2187 21.2645 12.1908Z" fill="#10181B"/>
<path d="M12 16C14.2092 16 16 14.2091 16 12C16 9.79086 14.2092 8 12 8C9.7909 8 8.00004 9.79086 8.00004 12C8.00004 14.2091 9.7909 16 12 16Z" fill="#10181B"/>
<path fill-rule="evenodd" clip-rule="evenodd" d="M22.6161 11.5722C21.8766 10.5074 20.4842 8.9442 18.6663 7.64052C16.8506 6.33843 14.5463 5.25 12 5.25C9.4538 5.25 7.14949 6.33843 5.33379 7.64052C3.75939 8.76958 2.50411 10.0933 1.71575 11.1193C1.6722 11.165 1.63318 11.2102 1.59991 11.2509C1.53417 11.3315 1.47229 11.4174 1.4229 11.4965C1.39885 11.5349 1.37077 11.5829 1.34582 11.6348C1.33353 11.6604 1.31659 11.6981 1.30128 11.7434C1.29052 11.7752 1.2583 11.873 1.2583 12C1.2583 12.1727 1.31651 12.3074 1.33337 12.3464C1.36029 12.4087 1.39143 12.4644 1.41808 12.5082C1.47226 12.5973 1.53893 12.688 1.60749 12.7693C1.64612 12.8151 1.69139 12.8652 1.74192 12.9146C2.53175 13.9358 3.7767 15.2428 5.33379 16.3595C7.14949 17.6616 9.4538 18.75 12 18.75C14.5463 18.75 16.8506 17.6616 18.6663 16.3595C20.4842 15.0558 21.8766 13.4926 22.6161 12.4278L22 12L22.6161 11.5722ZM21.0693 12C20.3637 11.0884 19.2228 9.88548 17.7921 8.85948C16.1217 7.66157 14.1205 6.75 12 6.75C9.87961 6.75 7.87836 7.66157 6.20795 8.85948C4.77725 9.88548 3.63632 11.0884 2.93078 12C3.63632 12.9116 4.77725 14.1145 6.20795 15.1405C7.87836 16.3384 9.87961 17.25 12 17.25C14.1205 17.25 16.1217 16.3384 17.7921 15.1405C19.2228 14.1145 20.3637 12.9116 21.0693 12Z" fill="#10181B"/>
</svg>
