<svg width="24" height="24" viewBox="0 0 24 24" fill="none" xmlns="http://www.w3.org/2000/svg">
<path d="M15.8438 6.05193C14.6571 5.56215 13.3632 5.25013 11.9999 5.25013C9.45362 5.25013 7.14931 6.33856 5.33361 7.64065C3.7587 8.77007 2.50312 10.0943 1.7148 11.1204C1.67163 11.1658 1.63294 11.2106 1.59991 11.2511C1.53417 11.3316 1.47229 11.4176 1.4229 11.4966C1.39885 11.5351 1.37077 11.583 1.34582 11.6349C1.33353 11.6605 1.31659 11.6982 1.30128 11.7435C1.29052 11.7754 1.2583 11.8731 1.2583 12.0001C1.2583 12.1729 1.31657 12.3077 1.33343 12.3467C1.36036 12.4089 1.39143 12.4645 1.41808 12.5083C1.47226 12.5974 1.53893 12.6881 1.60749 12.7694C1.64592 12.815 1.69094 12.8648 1.74116 12.914C2.53096 13.9353 3.77614 15.2427 5.33361 16.3596C5.37285 16.3878 5.41232 16.4158 5.45202 16.4437L8.3216 13.5742C8.11461 13.0911 8 12.559 8 12.0001C8 9.79099 9.79086 8.00013 12 8.00013C12.5588 8.00013 13.0909 8.11474 13.574 8.32173L15.8438 6.05193Z" fill="#10181B"/>
<path fill-rule="evenodd" clip-rule="evenodd" d="M3.70679 20.2764L3.46582 20.5173L4.52648 21.578L8.15606 17.9484C9.34274 18.4381 10.6366 18.7501 11.9999 18.7501C14.5461 18.7501 16.8504 17.6617 18.6661 16.3596C20.2532 15.2215 21.516 13.8855 22.3031 12.8561C22.3374 12.8189 22.3685 12.7826 22.3957 12.7492C22.4615 12.6686 22.5233 12.5827 22.5727 12.5037C22.5968 12.4652 22.6249 12.4173 22.6498 12.3653C22.6621 12.3397 22.6791 12.302 22.6944 12.2567C22.7051 12.2249 22.7373 12.1272 22.7373 12.0001C22.7373 11.8274 22.6791 11.6926 22.6622 11.6536C22.6353 11.5913 22.6042 11.5357 22.5776 11.4919C22.5234 11.4028 22.4567 11.3122 22.3882 11.2308C22.3542 11.1906 22.3152 11.1471 22.2719 11.1036C21.4828 10.0798 20.2324 8.76389 18.6661 7.64065C18.6269 7.61255 18.5875 7.58454 18.5478 7.55664L21.3371 4.76733L20.2934 3.72363L3.72375 20.2933L3.70679 20.2764ZM15.6784 10.4261L10.4259 15.6785C10.909 15.8855 11.4411 16.0001 12 16.0001C14.2091 16.0001 16 14.2093 16 12.0001C16 11.4413 15.8854 10.9092 15.6784 10.4261Z" fill="#10181B"/>
</svg>
