<svg width="24" height="24" viewBox="0 0 24 24" fill="none" xmlns="http://www.w3.org/2000/svg">
<g clip-path="url(#clip0_44_42305)">
<path d="M5.75 3.5C4.50421 3.5 3.5 4.50421 3.5 5.75V16.02C3.5 17.2658 4.50421 18.27 5.75 18.27H13.55V19.77H5.75C3.67579 19.77 2 18.0942 2 16.02V5.75C2 3.67579 3.67579 2 5.75 2H15.8C17.8742 2 19.55 3.67579 19.55 5.75V13.77H18.05V5.75C18.05 4.50421 17.0458 3.5 15.8 3.5H5.75Z" fill="#10181B"/>
<path d="M19.5498 19.77V22.5402H18.0498V19.77H15.2798V18.27H18.0498V15.4902H19.5498V18.27H22.3198V19.77H19.5498Z" fill="#10181B"/>
</g>
<defs>
<clipPath id="clip0_44_42305">
<rect width="20.32" height="20.54" fill="white" transform="translate(2 2)"/>
</clipPath>
</defs>
</svg>
