<svg width="16" height="16" viewBox="0 0 16 16" fill="none" xmlns="http://www.w3.org/2000/svg">
<path fill-rule="evenodd" clip-rule="evenodd" d="M10.4459 3.53871C10.0846 3.4311 9.71483 3.40715 9.33821 3.46207C8.97156 3.51554 8.61402 3.65416 8.30053 3.85756C7.97592 4.07169 7.71347 4.33606 7.51339 4.65158L7.50888 4.65869C7.31547 4.95624 7.18861 5.31069 7.1321 5.69815C7.07845 6.06608 7.10887 6.44461 7.21751 6.80155C7.29815 7.06653 7.22619 7.3544 7.03033 7.55025L3.75 10.8306V12.0199H5.37V11.0199C5.37 10.6057 5.70578 10.2699 6.12 10.2699H7.12V8.95992C7.12 8.7166 7.23804 8.4884 7.43663 8.3478C7.63523 8.2072 7.88969 8.17169 8.11919 8.25253L8.98823 8.55867C9.36387 8.6771 9.76769 8.7009 10.1721 8.63091C10.5771 8.5608 10.9584 8.39724 11.2846 8.15649C11.6059 7.91933 11.8719 7.60121 12.062 7.22884C12.2463 6.86798 12.34 6.46537 12.34 6.05992V6.03993C12.34 5.67352 12.2557 5.29893 12.0972 4.95028C11.9413 4.6072 11.7181 4.30922 11.4383 4.07481C11.1397 3.82464 10.8025 3.63959 10.456 3.54166L10.4459 3.53871ZM10.869 2.09964C10.2919 1.92854 9.70344 1.89294 9.12175 1.97777C8.52912 2.0642 7.96729 2.28514 7.48121 2.60109L7.47746 2.60354C6.98412 2.92843 6.5681 3.34246 6.24887 3.84472C5.92367 4.34629 5.7311 4.9105 5.6478 5.48169C5.58419 5.91791 5.5944 6.35923 5.67273 6.78653L2.62964 9.82959C2.62123 9.83801 2.61302 9.84662 2.60502 9.85542C2.39272 10.089 2.25 10.4046 2.25 10.7599V12.2099C2.25 12.5453 2.37973 12.8903 2.62964 13.1403C2.63806 13.1487 2.64667 13.1569 2.65547 13.1649C2.88897 13.3772 3.20465 13.5199 3.56 13.5199H6.12C6.53421 13.5199 6.87 13.1841 6.87 12.7699V11.7699H7.87C8.28421 11.7699 8.62 11.4341 8.62 11.0199V10.0143C9.21181 10.1865 9.82908 10.2126 10.4279 10.1089C11.0629 9.99904 11.6615 9.7426 12.1754 9.36335C12.6941 8.98051 13.1081 8.47864 13.3979 7.91101C13.6937 7.33187 13.84 6.69447 13.84 6.05992V6.03993C13.84 5.44633 13.7043 4.86091 13.4627 4.32957C13.2187 3.79264 12.8619 3.31063 12.4016 2.92503C11.9616 2.55631 11.4405 2.26201 10.869 2.09964Z" fill="#10181B"/>
</svg>
