<svg width="24" height="24" viewBox="0 0 24 24" fill="none" xmlns="http://www.w3.org/2000/svg">
<path d="M5.85851 13.3084H5.99808L12.0239 16.9932L18.0498 13.3084H18.0699V17.5814C18.0699 19.2382 16.7268 20.5814 15.0699 20.5814H8.85852C7.20166 20.5814 5.85851 19.2382 5.85851 17.5814V13.3084Z" fill="#10181B"/>
<path d="M3.07852 9.76487L12.0239 15.2349L19.4655 10.6845V14.989C19.2969 15.1707 19.1938 15.4141 19.1938 15.6815C19.1938 16.2441 19.6499 16.7002 20.2125 16.7002C20.7751 16.7002 21.2312 16.2441 21.2312 15.6815C21.2312 15.4172 21.1305 15.1764 20.9655 14.9954V9.76724L20.9693 9.76487L20.9655 9.76249V9.75977H20.961L12.0239 4.2948L3.07852 9.76487Z" fill="#10181B"/>
</svg>
