<svg width="16" height="16" viewBox="0 0 16 16" fill="none" xmlns="http://www.w3.org/2000/svg">
<path d="M8 5C8.55228 5 9 4.55228 9 4C9 3.44772 8.55228 3 8 3C7.44772 3 7 3.44772 7 4C7 4.55228 7.44772 5 8 5Z" fill="#10181B"/>
<path d="M2.74249 5.89404L3.6505 12.2501H12.3495L13.2575 5.89404L14.7424 6.10617L13.6504 13.7501H2.34956L1.25757 6.10617L2.74249 5.89404Z" fill="#10181B"/>
<path d="M6 10C6 10.5523 5.55228 11 5 11C4.44772 11 4 10.5523 4 10C4 9.44771 4.44772 9 5 9C5.55228 9 6 9.44771 6 10Z" fill="#10181B"/>
<path d="M8 11C8.55228 11 9 10.5523 9 10C9 9.44771 8.55228 9 8 9C7.44772 9 7 9.44771 7 10C7 10.5523 7.44772 11 8 11Z" fill="#10181B"/>
<path d="M12 10C12 10.5523 11.5523 11 11 11C10.4477 11 10 10.5523 10 10C10 9.44771 10.4477 9 11 9C11.5523 9 12 9.44771 12 10Z" fill="#10181B"/>
<path d="M6.5 8C7.05228 8 7.5 7.55228 7.5 7C7.5 6.44772 7.05228 6 6.5 6C5.94772 6 5.5 6.44772 5.5 7C5.5 7.55228 5.94772 8 6.5 8Z" fill="#10181B"/>
<path d="M10.5 7C10.5 7.55228 10.0523 8 9.5 8C8.94771 8 8.5 7.55228 8.5 7C8.5 6.44772 8.94771 6 9.5 6C10.0523 6 10.5 6.44772 10.5 7Z" fill="#10181B"/>
</svg>
