<svg width="24" height="24" viewBox="0 0 24 24" fill="none" xmlns="http://www.w3.org/2000/svg">
<path d="M18.29 4.09058V1.32056H16.79V4.09058H14.02V5.59058H16.79V8.37056H18.29V5.59058H21.06V4.09058H18.29Z" fill="#10181B"/>
<path d="M17.5403 10.5709V10.5607C14.3803 10.5607 11.8203 8.00071 11.8203 4.84071C11.8203 4.20071 11.9003 3.55071 12.1003 2.98071C12.1003 2.57071 11.76 2.23071 11.35 2.23071H8.77023C5.26023 2.23071 3.24023 4.25071 3.24023 7.78071V20.1807C3.24023 20.7907 3.55023 21.3207 4.05023 21.5507C4.23023 21.6307 4.42023 21.6707 4.61023 21.6707V21.6807C4.97023 21.6807 5.33026 21.5407 5.64026 21.2707C5.96712 20.9905 8.7535 18.9835 10.7902 17.5302C12.815 18.9809 15.5656 20.9625 15.8903 21.2408C16.2003 21.5008 16.5603 21.6408 16.9103 21.6408H16.9303C17.1203 21.6408 17.3103 21.6008 17.4903 21.5208C17.9903 21.2908 18.3003 20.7708 18.3003 20.1508V11.3208C18.3003 10.9108 17.9702 10.5708 17.5502 10.5708L17.5403 10.5709Z" fill="#10181B"/>
</svg>
