<svg width="24" height="24" viewBox="0 0 24 24" fill="none" xmlns="http://www.w3.org/2000/svg">
<path d="M7 5.25C6.58579 5.25 6.25 5.58579 6.25 6C6.25 6.41421 6.58579 6.75 7 6.75H8C8.41421 6.75 8.75 6.41421 8.75 6C8.75 5.58579 8.41421 5.25 8 5.25H7Z" fill="#10181B"/>
<path d="M7 17.25C6.58579 17.25 6.25 17.5858 6.25 18C6.25 18.4142 6.58579 18.75 7 18.75H8C8.41421 18.75 8.75 18.4142 8.75 18C8.75 17.5858 8.41421 17.25 8 17.25H7Z" fill="#10181B"/>
<path d="M6.25 12C6.25 11.5858 6.58579 11.25 7 11.25H8C8.41421 11.25 8.75 11.5858 8.75 12C8.75 12.4142 8.41421 12.75 8 12.75H7C6.58579 12.75 6.25 12.4142 6.25 12Z" fill="#10181B"/>
<path fill-rule="evenodd" clip-rule="evenodd" d="M3.25 5V18.78C3.25 20.2988 4.48122 21.53 6 21.53H18.38C19.8988 21.53 21.13 20.2988 21.13 18.78V5C21.13 3.48122 19.8988 2.25 18.38 2.25H6C4.48122 2.25 3.25 3.48122 3.25 5ZM6 3.75C5.30964 3.75 4.75 4.30964 4.75 5V8.25H19.63V5C19.63 4.30964 19.0704 3.75 18.38 3.75H6ZM4.75 15.75V18.78C4.75 19.4704 5.30964 20.03 6 20.03H18.38C19.0704 20.03 19.63 19.4704 19.63 18.78V15.75H4.75ZM19.63 14.25H4.75V9.75H19.63V14.25Z" fill="#10181B"/>
</svg>
