<svg width="24" height="24" viewBox="0 0 24 24" fill="none" xmlns="http://www.w3.org/2000/svg">
<path d="M12 7.5C12.6904 7.5 13.25 6.94036 13.25 6.25C13.25 5.55964 12.6904 5 12 5C11.3096 5 10.75 5.55964 10.75 6.25C10.75 6.94036 11.3096 7.5 12 7.5Z" fill="#10181B"/>
<path d="M9.95 11.25C10.6404 11.25 11.2 10.6904 11.2 10C11.2 9.30964 10.6404 8.75 9.95 8.75C9.25964 8.75 8.7 9.30964 8.7 10C8.7 10.6904 9.25964 11.25 9.95 11.25Z" fill="#10181B"/>
<path d="M3.72742 9.81714L5.84797 18.25H18.152L20.2726 9.81714L21.7273 10.1829L19.3215 19.75H4.67847L2.27271 10.1829L3.72742 9.81714Z" fill="#10181B"/>
<path d="M9.25 13.75C9.25 14.4404 8.69036 15 8 15C7.30964 15 6.75 14.4404 6.75 13.75C6.75 13.0596 7.30964 12.5 8 12.5C8.69036 12.5 9.25 13.0596 9.25 13.75Z" fill="#10181B"/>
<path d="M12 15C12.6904 15 13.25 14.4404 13.25 13.75C13.25 13.0596 12.6904 12.5 12 12.5C11.3096 12.5 10.75 13.0596 10.75 13.75C10.75 14.4404 11.3096 15 12 15Z" fill="#10181B"/>
<path d="M17.25 13.75C17.25 14.4404 16.6904 15 16 15C15.3096 15 14.75 14.4404 14.75 13.75C14.75 13.0596 15.3096 12.5 16 12.5C16.6904 12.5 17.25 13.0596 17.25 13.75Z" fill="#10181B"/>
<path d="M15.2 10C15.2 10.6904 14.6404 11.25 13.95 11.25C13.2596 11.25 12.7 10.6904 12.7 10C12.7 9.30964 13.2596 8.75 13.95 8.75C14.6404 8.75 15.2 9.30964 15.2 10Z" fill="#10181B"/>
</svg>
