<svg width="16" height="16" viewBox="0 0 16 16" fill="none" xmlns="http://www.w3.org/2000/svg">
<path fill-rule="evenodd" clip-rule="evenodd" d="M5.15002 2.5C4.45094 2.5 3.8211 2.87056 3.47619 3.45184C3.44768 3.4888 3.42239 3.52873 3.40083 3.57132L1.33082 7.66132C1.27769 7.76631 1.25 7.88233 1.25 8V11.56C1.25 12.6424 2.134 13.5 3.20001 13.5H12.8C13.8661 13.5 14.75 12.6423 14.75 11.56V8C14.75 7.88233 14.7223 7.76632 14.6692 7.66133L12.6009 3.57459L12.5999 3.57268C12.2723 2.91924 11.5929 2.5 10.86 2.5H5.15002ZM4.75084 4.24541C4.82516 4.09677 4.97714 4 5.15002 4H10.86C11.0265 4 11.1865 4.09995 11.2592 4.24542L12.8244 7.33813H10.7381C10.1338 7.33813 9.55596 7.6378 9.21531 8.14627L8.77552 8.79244L8.77155 8.7984C8.71545 8.88255 8.60971 8.94196 8.49456 8.94196H7.48541C7.37026 8.94196 7.26455 8.88253 7.20845 8.79838L6.76459 8.14624C6.42394 7.63778 5.84613 7.33813 5.24181 7.33813H3.17557L4.68905 4.34773C4.71211 4.31564 4.73281 4.28147 4.75084 4.24541ZM2.75 8.83813V11.56C2.75 11.7976 2.94602 12 3.20001 12H12.8C13.054 12 13.25 11.7977 13.25 11.56V8.83813H10.7381C10.623 8.83813 10.5172 8.89755 10.4611 8.9817L10.4572 8.98766L10.0174 9.63383C9.67672 10.1423 9.09889 10.442 8.49456 10.442H7.48541C6.88108 10.442 6.30326 10.1423 5.96261 9.63383L5.51877 8.98172C5.46267 8.89757 5.35696 8.83813 5.24181 8.83813H2.75Z" fill="#10181B"/>
</svg>
