<svg width="24" height="24" viewBox="0 0 24 24" fill="none" xmlns="http://www.w3.org/2000/svg">
<path d="M18.5001 10.9999C18.5001 11.6074 18.0076 12.0999 17.4001 12.0999C16.7926 12.0999 16.3 11.6074 16.3 10.9999C16.3 10.3924 16.7926 9.8999 17.4001 9.8999C18.0076 9.8999 18.5001 10.3924 18.5001 10.9999Z" fill="#10181B"/>
<path fill-rule="evenodd" clip-rule="evenodd" d="M5.82007 3V7.05478C4.80491 7.12449 3.93595 7.44384 3.29776 8.06299C2.56576 8.77317 2.25 9.76823 2.25 10.89V16.87C2.25 17.2843 2.58579 17.62 3 17.62H6.44995V21C6.44995 21.4142 6.78574 21.75 7.19995 21.75H16.3901C16.8043 21.75 17.1401 21.4142 17.1401 21V17.62H20.5901C21.0043 17.62 21.3401 17.2843 21.3401 16.87V10.89C21.3401 9.76823 21.0243 8.77317 20.2923 8.06299C19.6542 7.44385 18.7852 7.12451 17.7701 7.05478V3C17.7701 2.58579 17.4343 2.25 17.0201 2.25H6.57007C6.15585 2.25 5.82007 2.58579 5.82007 3ZM7.32007 3.75H16.2701V7.04004H7.32007V3.75ZM6.44995 16.12V14.74C6.44995 14.3258 6.78574 13.99 7.19995 13.99H16.3901C16.8043 13.99 17.1401 14.3258 17.1401 14.74V16.12H19.8401V10.89C19.8401 10.0419 19.6058 9.48691 19.2478 9.13958C18.8864 8.78894 18.2858 8.54004 17.3301 8.54004H6.26001C5.3043 8.54004 4.70367 8.78894 4.34225 9.13958C3.98425 9.48691 3.75 10.0419 3.75 10.89V16.12H6.44995ZM15.6401 20.25H7.94995V15.49H15.6401V20.25Z" fill="#10181B"/>
</svg>
