<svg width="24" height="24" viewBox="0 0 24 24" fill="none" xmlns="http://www.w3.org/2000/svg">
<path fill-rule="evenodd" clip-rule="evenodd" d="M18.0731 5.40936L21.2107 2.2698L20.1497 1.20947L16.3472 5.01435L16.2529 5.05846L16.2689 5.09268L3.33936 18.0305L4.40035 19.0908L7.77334 15.7157L10.5231 22.1836L11.9035 21.5968L8.91682 14.5715L8.92425 14.564L8.93098 14.589L9.65526 14.3943C10.7825 14.0912 11.6882 14.4008 12.7745 14.8923C12.8956 14.947 13.0198 15.0047 13.1472 15.0639C14.1247 15.5179 15.293 16.0604 16.6997 16.0604C18.4074 16.0604 19.6385 15.6127 20.4573 15.1399C20.8642 14.9049 21.1645 14.6665 21.3684 14.4801C21.4703 14.3869 21.5482 14.3066 21.6034 14.246C21.631 14.2157 21.653 14.1903 21.6695 14.1706L21.6842 14.1528L21.6901 14.1455L21.6974 14.1364L21.7003 14.1327L21.7016 14.1311L21.7027 14.1296C21.703 14.1292 21.7027 14.1296 21.1097 13.6704L21.7027 14.1296C21.8749 13.9073 21.9082 13.6073 21.7891 13.3526L18.0731 5.40936ZM16.9451 6.53807L10.7097 12.7775C11.7261 12.8138 12.6033 13.1684 13.3929 13.5256C13.526 13.5859 13.6562 13.6457 13.784 13.7045C14.7861 14.1655 15.6445 14.5604 16.6997 14.5604C18.1321 14.5604 19.1059 14.1881 19.7072 13.8409C19.9132 13.7219 20.0778 13.6045 20.2037 13.5035L16.9451 6.53807Z" fill="#10181B"/>
<path d="M3.5725 3.88492L7.53844 12.2775L6.18224 12.9184L1.15137 2.27222L2.50757 1.63135L2.91903 2.50208L3.06563 2.46492C5.54345 1.83681 7.09976 2.31235 8.38196 2.95301C8.64194 3.08291 8.89207 3.22015 9.12426 3.34753L9.24085 3.41144C9.51129 3.55937 9.75906 3.69188 10.0083 3.80564C10.4968 4.02863 10.971 4.16993 11.5296 4.16993C11.7389 4.16993 11.9463 4.15169 12.1797 4.12975L12.9264 4.05955L13.0668 5.55297L12.3201 5.62316C12.0911 5.64469 11.8183 5.66993 11.5296 5.66993C10.6919 5.66993 10.0011 5.45123 9.38542 5.17021C9.08257 5.03197 8.79348 4.87648 8.52098 4.72741L8.39858 4.66034C8.16552 4.53252 7.94356 4.41079 7.71151 4.29484C6.71117 3.79501 5.55425 3.4126 3.5725 3.88492Z" fill="#10181B"/>
</svg>
