<svg width="16" height="16" viewBox="0 0 16 16" fill="none" xmlns="http://www.w3.org/2000/svg">
<path d="M3.71108 11.9017V10.0811C3.70945 10.0346 3.72198 9.98879 3.74703 9.94963C3.77207 9.91048 3.80844 9.87986 3.85129 9.86187C3.89415 9.84387 3.94147 9.83933 3.98696 9.84886C4.03245 9.85839 4.07397 9.88154 4.106 9.91523L5.92657 11.7398C5.95998 11.7716 5.983 11.8127 5.99264 11.8578C6.00227 11.9029 5.99807 11.9499 5.98057 11.9925C5.96307 12.0352 5.9331 12.0716 5.89458 12.097C5.85605 12.1223 5.81077 12.1355 5.76465 12.1347H3.94013C3.90972 12.1347 3.87961 12.1286 3.85155 12.1169C3.8235 12.1051 3.79808 12.0879 3.77675 12.0662C3.75543 12.0445 3.73864 12.0188 3.72737 11.9905C3.71609 11.9623 3.71055 11.9321 3.71108 11.9017Z" fill="#10181B"/>
<path fill-rule="evenodd" clip-rule="evenodd" d="M1.28955 0.185547L15.7078 14.6038H1.4L1.28955 0.185547ZM2.88855 13.1038L2.81755 3.83487L4.60243 5.61975L3.44824 6.78153L4.51237 7.83871L5.6631 6.68042L6.87792 7.89524L5.71973 9.04587L6.7769 10.11L7.93859 8.95591L9.15376 10.1711L7.99756 11.3273L9.05822 12.3879L10.2144 11.2317L12.0864 13.1038H2.88855Z" fill="#10181B"/>
</svg>
