<svg width="24" height="24" viewBox="0 0 24 24" fill="none" xmlns="http://www.w3.org/2000/svg">
<path fill-rule="evenodd" clip-rule="evenodd" d="M4.75 8.75V18C4.75 18.6858 5.31421 19.25 6 19.25H13.75V20.75H6C4.48579 20.75 3.25 19.5142 3.25 18V8.67C3.25 8.07649 3.44332 7.50013 3.79794 7.02276L3.79973 7.02036L5.80286 4.34618C6.32129 3.66404 7.13005 3.25 8 3.25H16C16.87 3.25 17.6787 3.66405 18.1971 4.34619L18.2003 4.35035L20.2021 7.02275C20.5567 7.50013 20.75 8.07649 20.75 8.67V11.75H19.25V8.75H4.75ZM5.50187 7.25L6.99852 5.25198C7.24013 4.93523 7.6107 4.75 8 4.75H16C16.3893 4.75 16.7599 4.93523 17.0015 5.25196L18.4981 7.25H5.50187Z" fill="#10181B"/>
<path d="M16.25 14.8107V20C16.25 20.4142 16.5858 20.75 17 20.75C17.4142 20.75 17.75 20.4142 17.75 20V14.8107L19.4697 16.5303C19.7626 16.8232 20.2374 16.8232 20.5303 16.5303C20.8232 16.2374 20.8232 15.7626 20.5303 15.4697L17.5303 12.4697C17.4584 12.3978 17.3755 12.3435 17.2871 12.3069C17.1987 12.2702 17.1017 12.25 17 12.25C16.8983 12.25 16.8013 12.2702 16.7129 12.3069C16.6245 12.3435 16.5416 12.3978 16.4697 12.4697L13.4697 15.4697C13.1768 15.7626 13.1768 16.2374 13.4697 16.5303C13.7626 16.8232 14.2374 16.8232 14.5303 16.5303L16.25 14.8107Z" fill="#10181B"/>
</svg>
