<svg width="16" height="16" viewBox="0 0 16 16" fill="none" xmlns="http://www.w3.org/2000/svg">
<path d="M13.9304 2.27032C14.2233 1.97742 14.2233 1.50255 13.9304 1.20966C13.6375 0.916766 13.1626 0.916768 12.8697 1.20966L11.5393 2.54201C11.4968 2.56984 11.4565 2.60244 11.4192 2.63979C11.3817 2.67727 11.3491 2.71772 11.3212 2.76038L5.82069 8.2687C5.8136 8.27551 5.80664 8.28246 5.79983 8.28953L3.55092 10.5285C3.25738 10.8207 3.25633 11.2956 3.54857 11.5891C3.84082 11.8827 4.31569 11.8837 4.60923 11.5915L5.65389 10.5515C6.0622 11.4169 6.43463 12.2083 6.72587 12.8279C6.91704 13.2346 7.07322 13.5672 7.1816 13.7982L7.35049 14.1583C7.52625 14.5334 7.97279 14.695 8.34787 14.5192C8.72294 14.3434 8.88434 13.8965 8.70858 13.5214L8.53953 13.161C8.43103 12.9298 8.27471 12.5968 8.08338 12.1898C7.75116 11.483 7.31335 10.5528 6.83704 9.54393C7.68984 9.55297 8.36459 9.77499 9.04348 10.0371C9.13466 10.0723 9.22773 10.1092 9.32276 10.1469C10.0293 10.4268 10.8447 10.75 11.7999 10.75C12.9611 10.75 13.8068 10.448 14.3773 10.1203C14.66 9.95783 14.8703 9.79187 15.0153 9.65961C15.0877 9.59349 15.1439 9.5357 15.1849 9.49082C15.2053 9.46836 15.222 9.44911 15.235 9.43361L15.2518 9.41323L15.2581 9.40527L15.2608 9.40187L15.262 9.40032C15.262 9.40025 15.2627 9.39944 15.2578 9.3956C15.258 9.39544 15.2577 9.39577 15.2578 9.3956L15.2631 9.39887C15.3704 9.26013 15.4215 9.09568 15.4199 8.93292C15.4204 8.82467 15.3974 8.71462 15.3481 8.61018L12.8636 3.3386L13.9304 2.27032Z" fill="#10181B"/>
<path d="M6.55673 2.03786C7.02367 2.26486 7.34271 2.41996 7.96986 2.41996H8.01987C8.32543 2.41996 8.60044 2.60534 8.71508 2.88857C8.82972 3.17181 8.76107 3.49628 8.54154 3.70882L5.09154 7.04881C4.91766 7.21715 4.67323 7.29123 4.43515 7.24776C4.19708 7.20429 3.9946 7.04861 3.89143 6.82968L3.20352 5.3702C2.66714 4.23232 2.20825 3.25882 1.93106 2.66892C1.83357 2.46143 1.83633 2.22075 1.93855 2.01555C2.04077 1.81035 2.23123 1.66317 2.45558 1.61601C4.25805 1.23711 5.24638 1.44923 6.07088 1.81052C6.25564 1.89149 6.41317 1.96807 6.55673 2.03786Z" fill="#10181B"/>
</svg>
