<svg width="24" height="24" viewBox="0 0 24 24" fill="none" xmlns="http://www.w3.org/2000/svg">
<path d="M10.3652 16.0934L16.4595 9.50941L15.3587 8.49048L10.3455 13.9065L8.54116 12.0261L7.45886 13.0647L10.3652 16.0934Z" fill="#10181B"/>
<path fill-rule="evenodd" clip-rule="evenodd" d="M11.9913 22.0906C11.9913 22.0906 4.0202 17.4877 4.0202 12.2779L4.02028 5.54822C7.15637 5.54822 9.53989 4.15329 10.9804 2.95719C11.43 2.58384 11.7878 2.22986 12.0479 1.94373L12.091 1.98915C12.3635 2.27637 12.6985 2.62946 13.115 2.99954C14.4153 4.15492 16.5106 5.476 19.9797 5.47608L19.9796 12.2058C19.9796 17.5254 11.9913 22.0906 11.9913 22.0906ZM12.3939 20.0552C12.2501 20.1534 12.1162 20.2425 11.9945 20.3222C11.8726 20.2419 11.7387 20.1521 11.5946 20.0533C10.8848 19.566 9.9449 18.8691 9.01178 18.0253C8.07331 17.1767 7.17912 16.2131 6.52798 15.1987C5.87419 14.1802 5.5202 13.197 5.5202 12.2779L5.52026 6.95422C8.42302 6.58722 10.6342 5.21314 12.0259 4.03741C13.2916 5.18399 15.3088 6.55981 18.4797 6.89814L18.4796 12.2057C18.4796 14.1711 16.944 16.2536 14.9793 18.0306C14.0452 18.8753 13.1044 19.5703 12.3939 20.0552Z" fill="#10181B"/>
</svg>
