<svg width="16" height="16" viewBox="0 0 16 16" fill="none" xmlns="http://www.w3.org/2000/svg">
<path fill-rule="evenodd" clip-rule="evenodd" d="M13.6991 8.59431C12.3936 9.89981 10.4818 10.2262 8.89724 9.57344L3.95455 14.4927C3.27907 15.1691 2.18361 15.1691 1.50726 14.4927C0.830912 13.8172 0.830912 12.7217 1.50726 12.0445L6.44908 7.10242C5.79635 5.49416 6.12272 3.58228 7.42817 2.3004C8.82724 0.901264 10.9473 0.622137 12.6264 1.50677L9.24635 4.88779C9.01361 5.12054 9.01361 5.47141 9.24635 5.70329L10.2954 6.7533C10.5282 6.98605 10.8782 6.98605 11.1109 6.7533L14.4682 3.3959C15.3773 5.07504 15.1209 7.19605 13.6991 8.59431Z" fill="#10181B"/>
</svg>
