<svg width="16" height="16" viewBox="0 0 16 16" fill="none" xmlns="http://www.w3.org/2000/svg">
<path fill-rule="evenodd" clip-rule="evenodd" d="M3.52087 7.97051L0.929688 6.38602L7.81065 2.17834L14.6916 6.38602L14.6773 6.39477V8.50083C14.8013 8.66213 14.875 8.86409 14.875 9.08326C14.875 9.61153 14.4468 10.0398 13.9185 10.0398C13.3902 10.0398 12.962 9.61153 12.962 9.08326C12.962 8.85389 13.0427 8.64338 13.1773 8.47859V7.31201L12.0132 8.02387V10.9427C12.0132 12.4614 10.782 13.6927 9.26318 13.6927H6.27087C4.75209 13.6927 3.52087 12.4614 3.52087 10.9427V7.97051ZM5.02087 8.88775V10.9427C5.02087 11.633 5.58052 12.1927 6.27087 12.1927H9.26318C9.95354 12.1927 10.5132 11.633 10.5132 10.9427V8.94111L7.81065 10.5937L5.02087 8.88775ZM7.81065 8.83547L3.80497 6.38602L7.81065 3.93656L11.8163 6.38602L7.81065 8.83547Z" fill="#10181B"/>
</svg>
