<svg width="24" height="24" viewBox="0 0 24 24" fill="none" xmlns="http://www.w3.org/2000/svg">
<path fill-rule="evenodd" clip-rule="evenodd" d="M9.99998 2.27686C8.28994 2.27686 6.8779 2.75158 5.89729 3.75521C4.9196 4.75585 4.47998 6.1707 4.47998 7.82686V20.2269C4.47998 20.799 4.74729 21.3575 5.30003 21.6059C5.84913 21.8527 6.44309 21.6868 6.87633 21.3178L6.87901 21.3155C7.09631 21.1286 8.45906 20.1403 9.82486 19.1599C10.4953 18.6786 11.1503 18.2106 11.6377 17.8629C11.7723 17.7669 11.8941 17.6801 11.9999 17.6047C12.1057 17.6801 12.2275 17.7669 12.3621 17.8629C12.8495 18.2106 13.5045 18.6786 14.1749 19.1599C15.5407 20.1403 16.9035 21.1286 17.1208 21.3155L17.1234 21.3178C17.5567 21.6868 18.1506 21.8527 18.6997 21.6059C19.2525 21.3575 19.5198 20.7989 19.5198 20.2269V7.82686C19.5198 6.1707 19.0802 4.75585 18.1025 3.75521C17.1219 2.75158 15.7098 2.27686 13.9998 2.27686H9.99998ZM9.99998 3.77686C8.56003 3.77686 7.58706 4.17213 6.97018 4.8035C6.35037 5.43786 5.97998 6.42301 5.97998 7.82686V20.1133C6.39212 19.7844 7.72622 18.8199 8.9501 17.9413C9.62217 17.4589 10.2784 16.99 10.7666 16.6417C11.0107 16.4676 11.2129 16.3236 11.354 16.2231L11.4537 16.1522C11.6 16.0023 11.7991 15.9244 11.9999 15.9269C12.2007 15.9244 12.3997 16.0023 12.5461 16.1522L12.6458 16.2231C12.7869 16.3236 12.989 16.4676 13.2331 16.6417C13.7213 16.99 14.3776 17.4589 15.0497 17.9413C16.2735 18.8199 17.6076 19.7843 18.0198 20.1133V7.82686C18.0198 6.42301 17.6494 5.43786 17.0296 4.8035C16.4127 4.17213 15.4398 3.77686 13.9998 3.77686H9.99998Z" fill="#10181B"/>
</svg>
