<svg width="16" height="16" viewBox="0 0 16 16" fill="none" xmlns="http://www.w3.org/2000/svg">
<path fill-rule="evenodd" clip-rule="evenodd" d="M5.61154 2.60889C5.87417 2.56893 6.13835 2.67088 6.30604 2.87692L7.99989 4.95809L9.69374 2.87692C9.86144 2.67088 10.1256 2.56893 10.3882 2.60889C10.6509 2.64885 10.8728 2.82476 10.9716 3.07135L12.0761 5.82735L13.7953 4.71808C14.0529 4.55183 14.3858 4.55916 14.6359 4.73659C14.8859 4.91401 15.0028 5.22579 14.931 5.52389L13.5159 11.3997C13.5142 11.4065 13.5125 11.4133 13.5107 11.42C13.4883 11.5561 13.4282 11.6877 13.3293 11.7981C12.7351 12.4616 10.9898 13.3997 8.06888 13.3997C5.13067 13.3997 3.304 12.4036 2.67132 11.7427C2.57964 11.647 2.51498 11.5286 2.48393 11.3997L1.06874 5.52389C0.996943 5.22579 1.11383 4.91401 1.36391 4.73659C1.61399 4.55916 1.94688 4.55183 2.20453 4.71808L3.92366 5.82735L5.02818 3.07135C5.12701 2.82476 5.3489 2.64885 5.61154 2.60889ZM12.2274 10.3432L13.034 6.99446L12.125 7.58097C11.9368 7.7024 11.7042 7.73337 11.4908 7.66541C11.2774 7.59745 11.1055 7.43767 11.0222 7.22978L10.0531 4.81167L8.58171 6.61949C8.49248 6.72913 8.37867 6.807 8.25469 6.85161C8.08908 6.91146 7.90827 6.91034 7.74509 6.85161C7.62111 6.807 7.50731 6.72913 7.41807 6.61949L5.94669 4.81167L4.97758 7.22978C4.89427 7.43767 4.7224 7.59745 4.50899 7.66541C4.29558 7.73337 4.06297 7.7024 3.87478 7.58097L2.96582 6.99446L3.76446 10.3104C4.69877 10.0491 6.18036 9.78101 8.02853 9.78101C9.85152 9.78101 11.302 10.0622 12.2274 10.3432ZM8.06888 11.8997C6.90677 11.8997 5.98705 11.7254 5.29739 11.5053C6.02946 11.3792 6.95335 11.281 8.02853 11.281C9.12619 11.281 10.0556 11.392 10.7798 11.5319C10.1217 11.7363 9.2276 11.8997 8.06888 11.8997Z" fill="#10181B"/>
</svg>
