<svg width="24" height="24" viewBox="0 0 24 24" fill="none" xmlns="http://www.w3.org/2000/svg">
<path fill-rule="evenodd" clip-rule="evenodd" d="M7.25 3.70505C7.25 2.74021 8.01668 1.92505 9 1.92505C9.98332 1.92505 10.75 2.74021 10.75 3.70505V8.00024H13.25V3.70505C13.25 2.74021 14.0167 1.92505 15 1.92505C15.9833 1.92505 16.75 2.74021 16.75 3.70505V8.00024H17C17.8926 8.00024 18.75 8.67544 18.75 9.65595V12.3912C18.75 15.1945 16.7404 17.4941 14.0498 18.2827V22.075H12.5498V18.5549C12.3682 18.5685 12.1848 18.5754 12 18.5754C11.8185 18.5754 11.6384 18.5687 11.46 18.5556V22.075H9.95996V18.2855C7.26444 17.4996 5.25 15.1978 5.25 12.3912V9.65595C5.25 8.67544 6.1074 8.00024 7 8.00024H7.25V3.70505ZM15.25 8.00024V3.70505C15.25 3.52989 15.1167 3.42505 15 3.42505C14.8833 3.42505 14.75 3.52989 14.75 3.70505V8.00024H15.25ZM9.25 3.70505V8.00024H8.75V3.70505C8.75 3.52989 8.88332 3.42505 9 3.42505C9.11668 3.42505 9.25 3.52989 9.25 3.70505ZM6.79722 9.57219C6.75537 9.61009 6.75 9.64129 6.75 9.65595V12.3912C6.75 14.9067 9.0326 17.0754 12 17.0754C14.9674 17.0754 17.25 14.9067 17.25 12.3912V9.65595C17.25 9.64129 17.2446 9.61009 17.2028 9.57219C17.16 9.53343 17.0896 9.50024 17 9.50024H7C6.91038 9.50024 6.84002 9.53343 6.79722 9.57219Z" fill="#10181B"/>
</svg>
