<svg width="16" height="16" viewBox="0 0 16 16" fill="none" xmlns="http://www.w3.org/2000/svg">
<path d="M0.938019 5.19552L7.81069 0.99292L14.6834 5.19552L14.6774 5.19918V9.01972C14.8013 9.18099 14.8749 9.38289 14.8749 9.60199C14.8749 10.1303 14.4467 10.5585 13.9184 10.5585C13.3902 10.5585 12.9619 10.1303 12.9619 9.60199C12.9619 9.37255 13.0427 9.16198 13.1774 8.99717V6.11642L7.81069 9.39812L0.938019 5.19552Z" fill="#10181B"/>
<path d="M3.45093 8.48573V11.6256C3.45093 13.1444 4.68214 14.3756 6.20093 14.3756H9.33313C10.8519 14.3756 12.0831 13.1444 12.0831 11.6256V8.53911L7.81067 11.1517L3.45093 8.48573Z" fill="#10181B"/>
</svg>
