<svg width="16" height="16" viewBox="0 0 16 16" fill="none" xmlns="http://www.w3.org/2000/svg">
<path d="M3.47661 1.99643C4.19173 1.2662 5.20665 0.939941 6.38995 0.939941H9.04996C10.2332 0.939941 11.2498 1.26613 11.9671 1.99518C12.6823 2.72213 12.99 3.73788 12.99 4.88994V13.1699C12.99 13.6245 12.7738 14.0961 12.302 14.3119C11.8328 14.5266 11.3366 14.3851 10.9898 14.0961L10.9832 14.0906C10.8441 13.972 9.94632 13.3195 9.02952 12.66C8.5828 12.3387 8.14655 12.0264 7.8219 11.7943L7.72002 11.7215L7.6183 11.7942C7.29386 12.0262 6.85802 12.3385 6.41204 12.6598C5.96576 12.9812 5.51065 13.3106 5.1472 13.5773C4.96529 13.7108 4.8081 13.8272 4.68718 13.9185C4.62664 13.9641 4.57689 14.0022 4.53852 14.0323C4.51938 14.0472 4.50419 14.0593 4.49259 14.0688L4.47928 14.0797L4.475 14.0833L4.46009 14.0961C4.11328 14.3851 3.61709 14.5267 3.14786 14.3119C2.67614 14.096 2.45996 13.6245 2.45996 13.1699V4.88994C2.45996 3.73965 2.76414 2.72396 3.47661 1.99643Z" fill="#10181B"/>
</svg>
