<svg width="16" height="16" viewBox="0 0 16 16" fill="none" xmlns="http://www.w3.org/2000/svg">
<path d="M12.4401 7.52989C12.4401 8.02143 12.0416 8.41989 11.5501 8.41989C11.0586 8.41989 10.6602 8.02143 10.6602 7.52989C10.6602 7.03836 11.0586 6.63989 11.5501 6.63989C12.0416 6.63989 12.4401 7.03836 12.4401 7.52989Z" fill="#10181B"/>
<path fill-rule="evenodd" clip-rule="evenodd" d="M3.67993 2V4.35167C3.04152 4.43017 2.47369 4.65784 2.0376 5.07924C1.47783 5.62015 1.25 6.36888 1.25 7.17982V11.2598C1.25 11.674 1.58579 12.0098 2 12.0098H4.11011V14.0801C4.11011 14.4943 4.44589 14.8301 4.86011 14.8301H11.13C11.5442 14.8301 11.88 14.4943 11.88 14.0801V12.0098H13.99C14.4042 12.0098 14.74 11.674 14.74 11.2598V7.17982C14.74 6.36889 14.5122 5.62016 13.9524 5.07925C13.5163 4.65782 12.9485 4.43014 12.31 4.35165V2C12.31 1.58579 11.9742 1.25 11.56 1.25H4.42993C4.01572 1.25 3.67993 1.58579 3.67993 2ZM5.17993 2.75H10.81V4.31982H5.17993V2.75ZM4.42993 5.82L4.41354 5.81982H4.22003C3.60706 5.81982 3.26672 5.97741 3.07993 6.15791C2.89719 6.3345 2.75 6.64077 2.75 7.17982V10.5098H4.11011V9.81006C4.11011 9.39585 4.44589 9.06006 4.86011 9.06006H11.13C11.5442 9.06006 11.88 9.39585 11.88 9.81006V10.5098H13.24V7.17982C13.24 6.64076 13.0928 6.33449 12.9101 6.1579C12.7233 5.97741 12.383 5.81982 11.77 5.81982H11.5764L11.56 5.82L11.5436 5.81982H4.44632L4.42993 5.82ZM10.38 13.3301H5.61011V10.5601H10.38V13.3301Z" fill="#10181B"/>
</svg>
