<svg width="24" height="24" viewBox="0 0 24 24" fill="none" xmlns="http://www.w3.org/2000/svg">
<path d="M13.3098 18.08C13.3098 18.8366 12.6965 19.45 11.9398 19.45C11.1832 19.45 10.5698 18.8366 10.5698 18.08C10.5698 17.3233 11.1832 16.71 11.9398 16.71C12.6965 16.71 13.3098 17.3233 13.3098 18.08Z" fill="#10181B"/>
<path fill-rule="evenodd" clip-rule="evenodd" d="M7.93994 2.25C6.42116 2.25 5.18994 3.48122 5.18994 5V19.17C5.18994 20.6888 6.42116 21.92 7.93994 21.92H15.9399C17.4587 21.92 18.6899 20.6888 18.6899 19.17V5C18.6899 3.48122 17.4587 2.25 15.9399 2.25H7.93994ZM6.68994 5C6.68994 4.30964 7.24959 3.75 7.93994 3.75H15.9399C16.6303 3.75 17.1899 4.30964 17.1899 5V19.17C17.1899 19.8604 16.6303 20.42 15.9399 20.42H7.93994C7.24959 20.42 6.68994 19.8604 6.68994 19.17V5Z" fill="#10181B"/>
</svg>
