<svg width="16" height="16" viewBox="0 0 16 16" fill="none" xmlns="http://www.w3.org/2000/svg">
<path fill-rule="evenodd" clip-rule="evenodd" d="M7.01025 4.54883V1.24902H5.51025V4.54883H4.78015C4.01596 4.54883 3.39014 5.17459 3.39014 5.93883V7.87882C3.39014 8.57439 3.54454 9.2342 3.82091 9.82582L4.9888 8.65793C4.9244 8.40889 4.89014 8.14781 4.89014 7.87882V6.04883H7.5979L10.5 3.14673V1.24902H9V4.54883H7.01025ZM11.2192 4.54883L9.71922 6.04883H9.73351L5.75393 10.0284C5.7516 10.026 5.74927 10.0235 5.74695 10.0211L4.68607 11.082C4.68841 11.0844 4.69075 11.0868 4.6931 11.0892L1.98389 13.7985L3.04455 14.8591L5.91366 11.99C6.10521 12.0875 6.30446 12.172 6.51025 12.2423V13.2388C6.51025 14.063 7.18604 14.7388 8.01025 14.7388C8.83447 14.7388 9.51025 14.063 9.51025 13.2388V12.2354C11.3138 11.6094 12.6101 9.89424 12.6101 7.87882V5.93883C12.6101 5.74887 12.5714 5.56745 12.5016 5.40207L15.1052 2.79845L14.0445 1.73779L11.2334 4.54889L11.2202 4.54883H11.2192ZM7.98173 10.9888C7.66067 10.9869 7.35103 10.9362 7.05988 10.8438L11.1101 6.79355V7.87882C11.1101 9.58848 9.72586 10.9789 8.01851 10.9888H7.98173Z" fill="#10181B"/>
</svg>
