<svg width="16" height="16" viewBox="0 0 16 16" fill="none" xmlns="http://www.w3.org/2000/svg">
<path d="M8.84004 11.8702C8.84004 12.3673 8.4371 12.7702 7.94005 12.7702C7.44299 12.7702 7.04004 12.3673 7.04004 11.8702C7.04004 11.3732 7.44299 10.9702 7.94005 10.9702C8.4371 10.9702 8.84004 11.3732 8.84004 11.8702Z" fill="#10181B"/>
<path fill-rule="evenodd" clip-rule="evenodd" d="M6 1.20996C4.48122 1.20996 3.25 2.44118 3.25 3.95996V11.9C3.25 13.4187 4.48122 14.65 6 14.65H9.87999C11.3988 14.65 12.63 13.4187 12.63 11.9V3.95996C12.63 2.44118 11.3988 1.20996 9.87999 1.20996H6ZM4.75 3.95996C4.75 3.2696 5.30964 2.70996 6 2.70996H9.87999C10.5703 2.70996 11.13 3.2696 11.13 3.95996V11.9C11.13 12.5903 10.5703 13.15 9.87999 13.15H6C5.30964 13.15 4.75 12.5903 4.75 11.9V3.95996Z" fill="#10181B"/>
</svg>
