<svg width="16" height="16" viewBox="0 0 16 16" fill="none" xmlns="http://www.w3.org/2000/svg">
<path d="M11.7627 1.47021V3.31006H13.6026V4.81006H11.7627V6.64022H10.2627V4.81006H8.43262V3.31006H10.2627V1.47021H11.7627Z" fill="#10181B"/>
<path d="M12.1274 14.2101V9.05006C9.36744 9.05006 7.13745 6.81007 7.13745 4.06007C7.13745 3.63007 7.18745 3.22007 7.29745 2.82007H6.30746C4.22746 2.82007 3.14746 3.97007 3.14746 6.00007V14.2101C3.14746 14.6701 3.55745 14.8601 3.91745 14.5601C4.24745 14.2701 7.63745 11.8601 7.63745 11.8601C7.63745 11.8601 11.0275 14.2701 11.3575 14.5601C11.7175 14.8601 12.1274 14.6701 12.1274 14.2101Z" fill="#10181B"/>
</svg>
