<svg width="24" height="24" viewBox="0 0 24 24" fill="none" xmlns="http://www.w3.org/2000/svg">
<path d="M13.7397 8.72998C13.7397 7.90155 14.4113 7.22998 15.2397 7.22998C16.0682 7.22998 16.7397 7.90155 16.7397 8.72998C16.7397 9.55841 16.0682 10.23 15.2397 10.23C14.4113 10.23 13.7397 9.55841 13.7397 8.72998Z" fill="#10181B"/>
<path fill-rule="evenodd" clip-rule="evenodd" d="M14.3699 3.25C10.8557 3.25 8.00995 6.09579 8.00995 9.61C8.00995 10.0841 8.06081 10.5558 8.16448 11.0106L2.62324 16.476C2.48034 16.617 2.3999 16.8093 2.3999 17.01V20.83C2.3999 21.2442 2.73569 21.58 3.1499 21.58H7.8999C8.31412 21.58 8.6499 21.2442 8.6499 20.83V19.52H9.93994C10.3542 19.52 10.6899 19.1842 10.6899 18.77V17.48H11.9799C12.3941 17.48 12.7299 17.1442 12.7299 16.73V15.7565C13.2548 15.8957 13.8046 15.97 14.3699 15.97C17.8842 15.97 20.7299 13.1242 20.7299 9.61C20.7299 6.09579 17.8842 3.25 14.3699 3.25ZM9.50995 9.61C9.50995 6.92421 11.6842 4.75 14.3699 4.75C17.0557 4.75 19.2299 6.92421 19.2299 9.61C19.2299 12.2958 17.0557 14.47 14.3699 14.47C13.6328 14.47 12.9306 14.3054 12.2966 14.0101C12.0643 13.9019 11.7929 13.9198 11.5768 14.0575C11.3607 14.1953 11.2299 14.4338 11.2299 14.69V15.98H9.93994C9.52573 15.98 9.18994 16.3158 9.18994 16.73V18.02H7.8999C7.48569 18.02 7.1499 18.3558 7.1499 18.77V20.08H3.8999V17.3237L9.5266 11.774C9.6695 11.633 9.74994 11.4407 9.74994 11.24V11.23C9.74994 11.1539 9.73834 11.0782 9.71555 11.0055C9.58001 10.5735 9.50995 10.0996 9.50995 9.61Z" fill="#10181B"/>
</svg>
