<svg width="24" height="24" viewBox="0 0 24 24" fill="none" xmlns="http://www.w3.org/2000/svg">
<path fill-rule="evenodd" clip-rule="evenodd" d="M7.61011 3.16992C6.56368 3.16992 5.6155 3.7625 5.1495 4.69412L1.69949 11.5841C1.64729 11.6884 1.62012 11.8033 1.62012 11.9199V17.9199C1.62012 19.4341 2.8559 20.6699 4.37012 20.6699H20.3701C21.8843 20.6699 23.1201 19.4341 23.1201 17.9199V11.9199C23.1201 11.8033 23.0929 11.6884 23.0407 11.5841L19.5907 4.69412C19.1247 3.7625 18.1766 3.16992 17.1301 3.16992H7.61011ZM6.49095 5.36533C6.70503 4.93718 7.13668 4.66992 7.61011 4.66992H17.1301C17.6036 4.66992 18.0354 4.93757 18.2495 5.36572L21.1558 11.1699H17.4397C16.5205 11.1699 15.6641 11.6247 15.1539 12.3965L14.3439 13.6165C14.1152 13.9626 13.7223 14.1699 13.3097 14.1699H11.4496C11.0291 14.1699 10.6453 13.9643 10.4154 13.6165L9.60493 12.3957C9.09356 11.6223 8.22677 11.1699 7.3197 11.1699H3.58443L6.49095 5.36533ZM3.12012 12.6699V17.9199C3.12012 18.6057 3.68433 19.1699 4.37012 19.1699H20.3701C21.0559 19.1699 21.6201 18.6057 21.6201 17.9199V12.6699H17.4397C17.0191 12.6699 16.6352 12.8755 16.4054 13.2234L15.5954 14.4434C15.0841 15.2168 14.2168 15.6699 13.3097 15.6699H11.4496C10.5305 15.6699 9.67468 15.2158 9.16445 14.4442L8.35392 13.2234C8.12523 12.8772 7.73234 12.6699 7.3197 12.6699H3.12012Z" fill="#10181B"/>
</svg>
