<svg width="24" height="24" viewBox="0 0 24 24" fill="none" xmlns="http://www.w3.org/2000/svg">
<path fill-rule="evenodd" clip-rule="evenodd" d="M7.24989 4.14865C7.24989 3.18381 8.01656 2.36865 8.99989 2.36865C9.98321 2.36865 10.7499 3.18381 10.7499 4.14865V8.44385H13.2499V4.14865C13.2499 3.18381 14.0166 2.36865 14.9999 2.36865C15.9832 2.36865 16.7499 3.18381 16.7499 4.14865V6.18945L15.2499 7.68945V4.14865C15.2499 3.9735 15.1166 3.86865 14.9999 3.86865C14.8832 3.86865 14.7499 3.9735 14.7499 4.14865V8.18945L12.9955 9.94385H6.99989C6.91027 9.94385 6.8399 9.97703 6.79711 10.0158C6.75526 10.0537 6.74989 10.0849 6.74989 10.0996V12.8348C6.74989 13.7512 7.05283 14.6216 7.58147 15.3579L6.5075 16.4318C5.71904 15.4262 5.24989 14.1893 5.24989 12.8348V10.0996C5.24989 9.11904 6.10729 8.44385 6.99989 8.44385H7.24989V4.14865ZM3.53027 21.5304L4.53027 22.5304L8.78849 18.2722C9.1603 18.4568 9.55229 18.6103 9.95985 18.7291V22.5186H11.4598V18.9992C11.6383 19.0123 11.8184 19.019 11.9999 19.019C12.1847 19.019 12.3681 19.0121 12.5497 18.9985V22.5186H14.0497V18.7263C16.7403 17.9377 18.7499 15.6381 18.7499 12.8348V10.0996C18.7499 9.59527 18.5231 9.17174 18.1814 8.8793L22.5303 4.53039L21.5303 3.53039L3.53027 21.5304ZM11.9999 17.519C11.2558 17.519 10.5548 17.3827 9.922 17.1387L17.1015 9.95919C17.1435 9.97253 17.1777 9.99321 17.2027 10.0158C17.2445 10.0537 17.2499 10.0849 17.2499 10.0996V12.8348C17.2499 15.3503 14.9673 17.519 11.9999 17.519ZM9.24989 4.14865V8.44385H8.74989V4.14865C8.74989 3.9735 8.88321 3.86865 8.99989 3.86865C9.11656 3.86865 9.24989 3.9735 9.24989 4.14865Z" fill="#10181B"/>
</svg>
