<svg width="24" height="24" viewBox="0 0 24 24" fill="none" xmlns="http://www.w3.org/2000/svg">
<path fill-rule="evenodd" clip-rule="evenodd" d="M20.1415 12.849C18.2766 14.714 15.5454 15.1803 13.2818 14.2478L6.22078 21.2753C5.25582 22.2416 3.69088 22.2416 2.72466 21.2753C1.75845 20.3103 1.75845 18.7453 2.72466 17.7778L9.7844 10.7177C8.85194 8.42024 9.31817 5.68897 11.1831 3.85771C13.1818 1.85895 16.2104 1.4602 18.6091 2.72395L13.7805 7.55398C13.448 7.88648 13.448 8.38774 13.7805 8.71899L15.2792 10.219C15.6117 10.5515 16.1117 10.5515 16.4442 10.219L21.2402 5.42272C22.5389 7.82148 22.1727 10.8515 20.1415 12.849Z" fill="#10181B"/>
</svg>
