<svg width="24" height="24" viewBox="0 0 24 24" fill="none" xmlns="http://www.w3.org/2000/svg">
<path fill-rule="evenodd" clip-rule="evenodd" d="M11.9945 20.3222C12.1163 20.2425 12.2501 20.1534 12.394 20.0552C13.1045 19.5703 14.0453 18.8753 14.9794 18.0306C16.944 16.2536 18.4797 14.1711 18.4797 12.2057L18.4798 6.89814C15.3089 6.55981 13.2917 5.18399 12.026 4.03741C10.6342 5.21314 8.42308 6.58722 5.52032 6.95422L5.52026 12.2779V12.2779C5.52027 13.197 5.87425 14.1802 6.52805 15.1987C7.17918 16.2131 8.07337 17.1767 9.01185 18.0253C9.94496 18.8691 10.8849 19.566 11.5947 20.0533C11.7387 20.1521 11.8727 20.2419 11.9945 20.3222ZM4.02026 12.2779C4.02026 17.4877 11.9913 22.0906 11.9913 22.0906C11.9913 22.0906 19.9797 17.5254 19.9797 12.2058L19.9798 5.47608V5.47608C16.5106 5.476 14.4153 4.15492 13.115 2.99954C12.6985 2.62946 12.3635 2.27637 12.091 1.98915C12.0765 1.97382 12.0621 1.95868 12.0479 1.94373C11.7878 2.22986 11.4301 2.58384 10.9804 2.95719C9.53995 4.15329 7.15644 5.54822 4.02034 5.54822L4.02026 12.2779Z" fill="#10181B"/>
</svg>
