<svg width="16" height="16" viewBox="0 0 16 16" fill="none" xmlns="http://www.w3.org/2000/svg">
<path fill-rule="evenodd" clip-rule="evenodd" d="M6.6602 1.26099C5.47523 1.26099 4.45905 1.59063 3.74249 2.32059C3.02828 3.04815 2.72021 4.06306 2.72021 5.21099V13.491C2.72021 13.9444 2.93226 14.423 3.41291 14.6389C3.88606 14.8514 4.37981 14.701 4.72037 14.4172L4.72691 14.4116C4.86598 14.293 5.76384 13.6405 6.68064 12.9811C7.12736 12.6598 7.56361 12.3474 7.88826 12.1153L8.0001 12.0355L8.11194 12.1153C8.43659 12.3474 8.87284 12.6598 9.31956 12.9811C10.2364 13.6405 11.1342 14.293 11.2733 14.4116L11.2799 14.4172C11.6204 14.701 12.1141 14.8514 12.5873 14.6389C13.0679 14.423 13.28 13.9444 13.28 13.491V5.21099C13.28 4.06306 12.9719 3.04815 12.2577 2.32059C11.5412 1.59063 10.525 1.26099 9.34 1.26099H6.6602ZM6.6602 2.76099C5.74518 2.76099 5.16636 3.01134 4.81293 3.37138C4.45714 3.73382 4.22021 4.31891 4.22021 5.21099V12.9137C4.63377 12.6076 5.24093 12.1689 5.80477 11.7634C6.25305 11.4409 6.69055 11.1277 7.0159 10.8951L7.55431 10.5107C7.68655 10.4164 7.83902 10.3711 7.99002 10.3712C8.14732 10.3669 8.30727 10.4119 8.44529 10.5102L8.9843 10.8951C9.30965 11.1277 9.74715 11.4409 10.1954 11.7634C10.7593 12.1689 11.3664 12.6076 11.78 12.9137V5.21099C11.78 4.31891 11.5431 3.73382 11.1873 3.37138C10.8338 3.01134 10.255 2.76099 9.34 2.76099H6.6602Z" fill="#10181B"/>
</svg>
