<svg width="24" height="24" viewBox="0 0 24 24" fill="none" xmlns="http://www.w3.org/2000/svg">
<path fill-rule="evenodd" clip-rule="evenodd" d="M4.28868 4.38638C4.73013 3.06204 6.8458 1.25402 9.77873 2.42719C10.8694 2.86347 11.5601 3.50499 12 4.16215C12.4399 3.50499 13.1306 2.86347 14.2213 2.42719C17.1542 1.25402 19.2699 3.06204 19.7113 4.38638C20.0285 5.33794 19.8905 6.34953 19.2343 7.12775C20.6032 7.17797 21.5 7.67657 21.5 8.62354V10.6235H13V7.68458C12.6079 7.4968 12.2715 7.29127 12 7.09608C11.7285 7.29127 11.3921 7.4968 11 7.68458V10.6235H2.5V8.62354C2.5 7.67657 3.39675 7.17797 4.76565 7.12775C4.10952 6.34953 3.97149 5.33794 4.28868 4.38638ZM9.22165 3.81991C7.15458 2.99308 5.90271 4.2877 5.7117 4.86072C5.53664 5.38593 5.63385 5.84814 5.93575 6.18778C6.2506 6.54199 6.89018 6.87356 8.00019 6.87356C9.43115 6.87356 10.5676 6.28654 11.1528 5.85828C11.0776 5.61312 10.9726 5.34455 10.8017 5.07105C10.5286 4.63404 10.068 4.15845 9.22165 3.81991ZM18.2883 4.86072C18.0973 4.2877 16.8454 2.99308 14.7784 3.81991C13.932 4.15845 13.4714 4.63404 13.1983 5.07105C13.0274 5.34455 12.9224 5.61312 12.8472 5.85828C13.4324 6.28654 14.5688 6.87356 15.9998 6.87356C17.1098 6.87356 17.7494 6.54199 18.0643 6.18778C18.3662 5.84814 18.4634 5.38593 18.2883 4.86072Z" fill="#10181B"/>
<path d="M11 21.6235V12.6235H3V19.6235C3 20.6235 3.5 21.6235 5 21.6235H11Z" fill="#10181B"/>
<path d="M13 21.6235V12.6235H21V19.6235C21 20.6235 20.5 21.6235 19 21.6235H13Z" fill="#10181B"/>
</svg>
