<svg width="16" height="16" viewBox="0 0 16 16" fill="none" xmlns="http://www.w3.org/2000/svg">
<path d="M7.16016 4.21997C6.74594 4.21997 6.41016 4.55576 6.41016 4.96997C6.41016 5.38418 6.74594 5.71997 7.16016 5.71997H9.85016C10.2644 5.71997 10.6002 5.38418 10.6002 4.96997C10.6002 4.55576 10.2644 4.21997 9.85016 4.21997H7.16016Z" fill="#10181B"/>
<path d="M6.41016 10.98C6.41016 10.5658 6.74594 10.23 7.16016 10.23H9.85016C10.2644 10.23 10.6002 10.5658 10.6002 10.98C10.6002 11.3942 10.2644 11.73 9.85016 11.73H7.16016C6.74594 11.73 6.41016 11.3942 6.41016 10.98Z" fill="#10181B"/>
<path fill-rule="evenodd" clip-rule="evenodd" d="M2.25 4C2.25 2.48121 3.48122 1.25 5 1.25H12.01C13.5288 1.25 14.76 2.48121 14.76 4V11.95C14.76 13.4688 13.5288 14.7 12.01 14.7H5C3.48122 14.7 2.25 13.4688 2.25 11.95V4ZM3.75 4C3.75 3.30964 4.30964 2.75 5 2.75H12.01C12.7004 2.75 13.26 3.30964 13.26 4V7.22998H3.75V4ZM13.26 8.72998V11.95C13.26 12.6404 12.7004 13.2 12.01 13.2H5C4.30964 13.2 3.75 12.6404 3.75 11.95V8.72998H13.26Z" fill="#10181B"/>
</svg>
