<svg width="16" height="16" viewBox="0 0 16 16" fill="none" xmlns="http://www.w3.org/2000/svg">
<g clip-path="url(#clip0_44_47046)">
<path fill-rule="evenodd" clip-rule="evenodd" d="M2.42217 1.90091L1.97422 0.95166L0.617676 1.59181L6.96783 15.0484L8.32437 14.4082L5.88898 9.24739C7.38092 9.03936 8.32045 9.31621 9.09466 9.64697C9.29438 9.7323 9.48359 9.82154 9.68012 9.91425L9.70931 9.92801C9.9114 10.0233 10.1252 10.1237 10.342 10.2123C10.7762 10.3897 11.2613 10.5367 11.8248 10.5368C13.692 10.6166 14.6399 10.0665 15.0253 9.4317C15.1595 9.21062 15.17 8.93528 15.0536 8.7043L11.9527 2.55004C11.7887 2.22466 11.4149 2.06445 11.0666 2.16939L11.0552 2.17248C11.0414 2.1761 11.0156 2.18254 10.978 2.19059C10.9027 2.20667 10.78 2.22919 10.6114 2.24837C10.2745 2.28672 9.75248 2.31197 9.05659 2.24533C8.5796 2.19964 8.20242 2.08612 7.83551 1.94754C7.73152 1.90827 7.61509 1.86111 7.49096 1.81082C7.21878 1.70057 6.90956 1.57532 6.61337 1.48535C5.61374 1.18171 4.47345 1.15247 2.58713 1.84072L2.42217 1.90091ZM3.06498 3.26309L5.22118 7.83227L5.51995 7.78568C7.42467 7.48863 8.68371 7.84024 9.68397 8.26759C9.91005 8.36418 10.1223 8.46431 10.3141 8.55479L10.3491 8.5713C10.5549 8.66835 10.7345 8.75229 10.9093 8.82373C11.2532 8.96424 11.5378 9.03858 11.8357 9.03681C11.8484 9.03673 11.8611 9.03698 11.8737 9.03754C12.7079 9.07489 13.1842 8.96251 13.4472 8.84961L10.8668 3.72842C10.8391 3.73195 10.8105 3.7354 10.781 3.73875C10.3439 3.7885 9.71701 3.81544 8.91358 3.73849C8.26107 3.676 7.74852 3.51811 7.30552 3.35079C7.12527 3.28271 6.97442 3.22117 6.8361 3.16474C6.60768 3.07154 6.41343 2.99229 6.17741 2.9206C5.55659 2.73202 4.75594 2.64612 3.10128 3.24985L3.06498 3.26309Z" fill="#10181B"/>
</g>
<defs>
<clipPath id="clip0_44_47046">
<rect width="16" height="16" fill="white"/>
</clipPath>
</defs>
</svg>
