<svg width="24" height="24" viewBox="0 0 24 24" fill="none" xmlns="http://www.w3.org/2000/svg">
<path d="M17.6699 2.16992C18.0841 2.16992 18.4199 2.50571 18.4199 2.91992V4.93994H20.4401C20.8543 4.93994 21.1901 5.27573 21.1901 5.68994C21.1901 6.10416 20.8543 6.43994 20.4401 6.43994H18.4199V8.46992C18.4199 8.88414 18.0841 9.21992 17.6699 9.21992C17.2557 9.21992 16.9199 8.88414 16.9199 8.46992V6.43994H14.8901C14.4759 6.43994 14.1401 6.10416 14.1401 5.68994C14.1401 5.27573 14.4759 4.93994 14.8901 4.93994H16.9199V2.91992C16.9199 2.50571 17.2557 2.16992 17.6699 2.16992Z" fill="#10181B"/>
<path d="M4.78743 4.54842C5.76805 3.54479 7.1801 3.07007 8.89014 3.07007H12.3901C12.8043 3.07007 13.1401 3.40585 13.1401 3.82007C13.1401 4.23428 12.8043 4.57007 12.3901 4.57007H8.89014C7.45018 4.57007 6.47721 4.96535 5.86032 5.59671C5.24051 6.23107 4.87012 7.21623 4.87012 8.62007V20.9065C5.28225 20.5776 6.61636 19.6132 7.84024 18.7346C8.51231 18.2521 9.16858 17.7832 9.65676 17.435C9.90088 17.2608 10.103 17.1168 10.2441 17.0163L10.3813 16.9187C10.5269 16.784 10.7178 16.7153 10.9095 16.7201C11.0908 16.7225 11.2693 16.7904 11.4074 16.9174L11.5461 17.0162C11.6873 17.1167 11.8894 17.2607 12.1335 17.4348C12.6217 17.783 13.278 18.2519 13.9501 18.7344C15.1739 19.613 16.508 20.5774 16.9202 20.9063V12.1499C16.9202 11.7357 17.256 11.3999 17.6702 11.3999C18.0844 11.3999 18.4202 11.7357 18.4202 12.1499V21.0199C18.4202 21.592 18.1529 22.1506 17.6001 22.399C17.051 22.6458 16.4571 22.4799 16.0238 22.1108L16.0211 22.1085C15.8038 21.9217 14.4411 20.9334 13.0753 19.9529C12.4049 19.4716 11.7499 19.0037 11.2624 18.6559L10.8953 18.3942L10.5278 18.6561C10.0404 19.0038 9.38543 19.4718 8.71499 19.9531C7.3492 20.9336 5.98645 21.9218 5.76915 22.1087L5.76647 22.111C5.33322 22.4801 4.73927 22.6459 4.19017 22.3992C3.63743 22.1507 3.37012 21.5922 3.37012 21.0201V8.62007C3.37012 6.96391 3.80974 5.54906 4.78743 4.54842Z" fill="#10181B"/>
</svg>
