<svg width="16" height="16" viewBox="0 0 16 16" fill="none" xmlns="http://www.w3.org/2000/svg">
<path fill-rule="evenodd" clip-rule="evenodd" d="M6.04004 11.75H4C2.48122 11.75 1.25 10.5188 1.25 9V4C1.25 2.48122 2.48122 1.25 4 1.25H12C13.5188 1.25 14.75 2.48122 14.75 4V9C14.75 10.5188 13.5188 11.75 12 11.75H9.96005V12.4897C9.96005 12.8162 10.0314 13.0124 10.1013 13.1077C10.1445 13.1668 10.2189 13.2397 10.45 13.2397C10.8643 13.2397 11.2 13.5755 11.2 13.9897C11.2 14.404 10.8643 14.7397 10.45 14.7397H5.55005C5.13584 14.7397 4.80005 14.404 4.80005 13.9897C4.80005 13.5755 5.13584 13.2397 5.55005 13.2397C5.78515 13.2397 5.85849 13.1662 5.89979 13.1101C5.96802 13.0174 6.04004 12.8228 6.04004 12.4897V11.75ZM2.75 4C2.75 3.30964 3.30964 2.75 4 2.75H12C12.6904 2.75 13.25 3.30964 13.25 4V9C13.25 9.69036 12.6904 10.25 12 10.25H9.33436C9.29393 10.2433 9.2524 10.2397 9.21005 10.2397C9.16771 10.2397 9.12619 10.2433 9.08576 10.25H6.91435C6.87391 10.2433 6.83239 10.2397 6.79004 10.2397C6.74769 10.2397 6.70616 10.2433 6.66573 10.25H4C3.30964 10.25 2.75 9.69036 2.75 9V4ZM7.54004 11.75V12.4897C7.54004 12.7343 7.51607 12.9902 7.45428 13.2397H8.54685C8.48441 12.9899 8.46005 12.7339 8.46005 12.4897V11.75H7.54004Z" fill="#10181B"/>
</svg>
