<svg width="24" height="24" viewBox="0 0 24 24" fill="none" xmlns="http://www.w3.org/2000/svg">
<path fill-rule="evenodd" clip-rule="evenodd" d="M6.82971 14.3901C7.47952 14.1982 8.08261 13.9003 8.52316 13.4115C8.95053 12.9374 9.2868 12.2153 9.2868 11.0469C9.2868 9.91355 8.92921 9.19931 8.50541 8.3957L8.46399 8.31726C8.04105 7.51678 7.55083 6.58894 7.55083 5.21671C7.55083 3.73169 8.24481 2.73167 9.17373 2.13671C10.0607 1.56863 11.1246 1.3877 11.9365 1.3877C12.7498 1.3877 13.7908 1.5692 14.6521 2.15694C15.5553 2.77332 16.1912 3.79264 16.1912 5.28219C16.1912 6.71203 15.6586 7.61925 15.2047 8.39244L15.1711 8.44977C14.7254 9.20992 14.357 9.86567 14.357 10.9814C14.357 13.1611 15.9968 14.2489 17.0872 14.3901H18.6701C19.6366 14.3901 20.4201 15.1736 20.4201 16.1401V17.9601C20.4201 18.9266 19.6366 19.7101 18.6701 19.7101H5.1001C4.1336 19.7101 3.3501 18.9266 3.3501 17.9601V16.1401C3.3501 15.1736 4.1336 14.3901 5.1001 14.3901H6.82971ZM9.05083 5.21671C9.05083 4.27791 9.45411 3.73842 9.98275 3.39983C10.5534 3.03436 11.3073 2.8877 11.9365 2.8877C12.5645 2.8877 13.2758 3.03378 13.8066 3.39595C14.2954 3.7295 14.6912 4.28242 14.6912 5.28219C14.6912 6.30272 14.3359 6.90871 13.8818 7.68315L13.8772 7.69102C13.4058 8.49488 12.857 9.44409 12.857 10.9814C12.857 12.4856 13.4169 13.6075 14.1795 14.3901H9.66029C10.3569 13.6042 10.7868 12.5155 10.7868 11.0469C10.7868 9.52721 10.2764 8.53826 9.83221 7.69599L9.82081 7.67436C9.38987 6.85729 9.05083 6.21445 9.05083 5.21671ZM5.1001 15.8901C4.96203 15.8901 4.8501 16.0021 4.8501 16.1401V17.9601C4.8501 18.0982 4.96203 18.2101 5.1001 18.2101H18.6701C18.8082 18.2101 18.9201 18.0982 18.9201 17.9601V16.1401C18.9201 16.0021 18.8082 15.8901 18.6701 15.8901H5.1001Z" fill="#10181B"/>
<path d="M4.97998 21.6899C4.97998 21.2757 5.31577 20.9399 5.72998 20.9399H18.03C18.4442 20.9399 18.78 21.2757 18.78 21.6899C18.78 22.1042 18.4442 22.4399 18.03 22.4399H5.72998C5.31577 22.4399 4.97998 22.1042 4.97998 21.6899Z" fill="#10181B"/>
</svg>
