<svg width="16" height="16" viewBox="0 0 16 16" fill="none" xmlns="http://www.w3.org/2000/svg">
<path d="M11.79 1.47021C12.2043 1.47021 12.54 1.806 12.54 2.22021V3.31006H13.63C14.0442 3.31006 14.38 3.64584 14.38 4.06006C14.38 4.47427 14.0442 4.81006 13.63 4.81006H12.54V5.89022C12.54 6.30443 12.2043 6.64022 11.79 6.64022C11.3758 6.64022 11.04 6.30443 11.04 5.89022V4.81006H9.95996C9.54575 4.81006 9.20996 4.47427 9.20996 4.06006C9.20996 3.64584 9.54575 3.31006 9.95996 3.31006H11.04V2.22021C11.04 1.806 11.3758 1.47021 11.79 1.47021Z" fill="#10181B"/>
<path d="M5.97983 2.07007C4.80466 2.07007 3.7956 2.39734 3.08396 3.12409C2.37495 3.84814 2.06982 4.85796 2.06982 6.00007V14.2101C2.06982 14.6646 2.286 15.1362 2.75772 15.352C3.22695 15.5668 3.72317 15.4253 4.06997 15.1363L4.07505 15.1319C4.2102 15.0173 5.10188 14.369 6.01184 13.7137C6.45548 13.3942 6.88896 13.0834 7.2116 12.8524L7.30477 12.7857L7.39788 12.8523C7.72052 13.0833 8.15399 13.3942 8.59764 13.7136C9.50759 14.3689 10.3993 15.0172 10.5344 15.1319L10.5395 15.1362C10.8863 15.4252 11.3825 15.5667 11.8518 15.352C12.3235 15.1361 12.5397 14.6646 12.5397 14.21V9.01001C12.5397 8.5958 12.2039 8.26001 11.7897 8.26001C11.3755 8.26001 11.0397 8.5958 11.0397 9.01001V13.6335C10.6309 13.3312 10.0318 12.8979 9.47418 12.4964C9.02908 12.1759 8.59443 11.8642 8.27113 11.6327L7.81957 11.3098C7.68457 11.1846 7.51049 11.1163 7.33283 11.1107C7.13579 11.1021 6.93855 11.1714 6.78921 11.3103L6.33835 11.6328C6.01505 11.8643 5.5804 12.1759 5.13529 12.4964C4.57774 12.898 3.97856 13.3312 3.56982 13.6335V6.00007C3.56982 5.11218 3.8047 4.532 4.1557 4.17355C4.50406 3.81779 5.075 3.57007 5.97983 3.57007H7.30981C7.72403 3.57007 8.05981 3.23428 8.05981 2.82007C8.05981 2.40585 7.72403 2.07007 7.30981 2.07007H5.97983Z" fill="#10181B"/>
</svg>
