<svg width="16" height="16" viewBox="0 0 16 16" fill="none" xmlns="http://www.w3.org/2000/svg">
<path d="M1.13993 1.0616C1.51456 0.884888 1.96151 1.04533 2.13822 1.41996L2.18095 1.51054C3.6779 1.29637 4.68556 1.55995 5.53864 1.90825C5.77098 2.00311 5.9745 2.09384 6.16103 2.17699C6.75554 2.44201 7.1775 2.63011 7.81014 2.63011H7.9595C8.37371 2.63011 8.71014 2.96589 8.71014 3.38011C8.71014 3.79432 8.37436 4.13011 7.96014 4.13011H7.81044C6.82709 4.13011 6.04938 3.77841 5.40908 3.48874C5.25573 3.41937 5.11022 3.35354 4.97165 3.29696C4.41601 3.07011 3.78845 2.88245 2.85793 2.94574L4.38822 6.18996C4.56493 6.56458 4.40449 7.01153 4.02986 7.18824C3.65523 7.36495 3.20828 7.20451 3.03157 6.82988L1.1118 2.75997C1.0751 2.70374 1.04556 2.64186 1.0247 2.57532L0.78157 2.05989C0.604859 1.68526 0.765302 1.23831 1.13993 1.0616Z" fill="#10181B"/>
<path fill-rule="evenodd" clip-rule="evenodd" d="M13.07 2.2706C13.3631 1.97787 13.3633 1.50299 13.0706 1.20994C12.7778 0.916894 12.303 0.91664 12.0099 1.20938L10.6682 2.54969C10.5885 2.60369 10.5218 2.67132 10.4698 2.74786L2.67992 10.5294C2.38687 10.8221 2.38661 11.297 2.67935 11.59C2.97208 11.8831 3.44696 11.8833 3.74001 11.5906L4.78896 10.5428L6.49143 14.1595C6.66784 14.5343 7.11466 14.6951 7.48943 14.5187C7.8642 14.3422 8.025 13.8954 7.84859 13.5207L5.99154 9.57554C7.0333 9.50638 7.70085 9.74921 8.36239 10.0394C8.43856 10.0728 8.51645 10.108 8.59631 10.144C9.21976 10.425 9.96297 10.7601 10.9399 10.7601C12.0982 10.7601 12.9445 10.4546 13.5154 10.1243C13.7985 9.96062 14.0093 9.79356 14.1545 9.66074C14.2271 9.59432 14.2835 9.53635 14.3245 9.49142C14.345 9.46895 14.3616 9.4497 14.3746 9.43425L14.3913 9.41398L14.3976 9.4061L14.4002 9.40274L14.4014 9.40121C14.4015 9.40114 14.4021 9.40035 14.3973 9.39652C14.3974 9.39636 14.3972 9.39669 14.3973 9.39652L14.4025 9.39978C14.51 9.26124 14.5613 9.09691 14.5599 8.9342C14.5606 8.82542 14.5375 8.71479 14.488 8.60985L11.9994 3.34003L13.07 2.2706ZM12.8934 8.74601L10.8723 4.46596L7.20826 8.12607C7.91142 8.22995 8.46985 8.44858 8.96498 8.66578C9.05101 8.70352 9.1334 8.74019 9.21288 8.77557C9.851 9.05957 10.3016 9.2601 10.9399 9.2601C11.8217 9.2601 12.4104 9.03063 12.7644 8.82587C12.8111 8.79885 12.8541 8.77206 12.8934 8.74601Z" fill="#10181B"/>
</svg>
