<svg width="24" height="24" viewBox="0 0 24 24" fill="none" xmlns="http://www.w3.org/2000/svg">
<path d="M20.5403 2.80035C20.8331 2.50745 20.8331 2.03258 20.5403 1.73969C20.2474 1.4468 19.7725 1.4468 19.4796 1.73969L16.6185 4.60263C16.491 4.67251 16.3898 4.77641 16.3226 4.89868L3.7296 17.4997C3.4367 17.7926 3.4367 18.2675 3.7296 18.5604C4.02249 18.8532 4.49736 18.8532 4.79026 18.5604L7.45463 15.8943C8.13102 17.3277 8.74254 18.6226 9.20794 19.6078L10.1118 21.5204C10.2888 21.8949 10.7359 22.055 11.1104 21.8779C11.4849 21.7009 11.6447 21.2533 11.4676 20.8788L10.5642 18.9671C10.0467 17.8715 9.34846 16.3929 8.58129 14.7669L9.12024 14.2276C10.7214 14.1552 11.7774 14.5469 12.789 14.9925C12.9058 15.044 13.0238 15.0972 13.1434 15.1512C14.1001 15.5828 15.1579 16.0599 16.5601 16.0599C18.2722 16.0599 19.5058 15.6124 20.3259 15.1397C20.7335 14.9047 21.0342 14.6663 21.2383 14.4799C21.3403 14.3866 21.4183 14.3063 21.4736 14.2456C21.5013 14.2153 21.5233 14.1899 21.5398 14.1702C21.548 14.1603 21.5549 14.1519 21.5604 14.1451L21.5611 14.1442C21.7384 13.9265 21.7857 13.6178 21.657 13.3476L17.8953 5.44698L20.5403 2.80035Z" fill="#10181B"/>
<path d="M1.69287 1.9552C2.06559 1.77448 2.51423 1.93013 2.69494 2.30284L2.70291 2.31934L2.72543 2.3661C2.74519 2.4072 2.77433 2.46802 2.81223 2.5476L2.8921 2.71585C5.27853 2.31922 6.82976 2.72362 8.13829 3.25991C8.46509 3.39384 8.76071 3.52634 9.03887 3.65101C9.97305 4.06972 10.7102 4.40014 11.7701 4.40014H12.0301C12.3355 4.40014 12.6104 4.58533 12.7252 4.86836C12.8399 5.1514 12.7716 5.47574 12.5524 5.68841L6.50237 11.5584C6.32842 11.7272 6.08363 11.8015 5.84522 11.7579C5.6068 11.7143 5.40414 11.5582 5.30117 11.3388C3.7721 8.08076 2.44288 5.27239 1.78312 3.88289L1.69287 1.9552Z" fill="#10181B"/>
</svg>
