<svg width="24" height="24" viewBox="0 0 24 24" fill="none" xmlns="http://www.w3.org/2000/svg">
<path fill-rule="evenodd" clip-rule="evenodd" d="M5.73804 11.6847L2.59851 9.76494L12.0239 4.00134L21.4494 9.76494L21.4412 9.76995V12.9504C21.6062 13.1314 21.7069 13.3722 21.7069 13.6365C21.7069 14.1991 21.2508 14.6552 20.6882 14.6552C20.1256 14.6552 19.6696 14.1991 19.6696 13.6365C19.6696 13.3691 19.7726 13.1257 19.9412 12.944V10.6872L18.1904 11.7577V15.5349C18.1904 17.6059 16.5115 19.2849 14.4405 19.2849H9.48803C7.41697 19.2849 5.73804 17.6059 5.73804 15.5349V11.6847ZM7.23804 12.602V15.5349C7.23804 16.7775 8.24539 17.7849 9.48803 17.7849H14.4405C15.6831 17.7849 16.6904 16.7775 16.6904 15.5349V12.675L12.0239 15.5285L7.23804 12.602ZM12.0239 13.7703L5.47379 9.76494L12.0239 5.75956L18.5741 9.76494L12.0239 13.7703Z" fill="#10181B"/>
</svg>
