<svg width="24" height="24" viewBox="0 0 24 24" fill="none" xmlns="http://www.w3.org/2000/svg">
<path d="M10.1899 5.14014C9.77573 5.14014 9.43994 5.47592 9.43994 5.89014C9.43994 6.30435 9.77573 6.64014 10.1899 6.64014H14.1899C14.6042 6.64014 14.9399 6.30435 14.9399 5.89014C14.9399 5.47592 14.6042 5.14014 14.1899 5.14014H10.1899Z" fill="#10181B"/>
<path d="M9.43994 14.8301C9.43994 14.4159 9.77573 14.0801 10.1899 14.0801H14.1899C14.6042 14.0801 14.9399 14.4159 14.9399 14.8301C14.9399 15.2443 14.6042 15.5801 14.1899 15.5801H10.1899C9.77573 15.5801 9.43994 15.2443 9.43994 14.8301Z" fill="#10181B"/>
<path fill-rule="evenodd" clip-rule="evenodd" d="M3.25 5C3.25 3.48122 4.48122 2.25 6 2.25H18.38C19.8988 2.25 21.13 3.48122 21.13 5V18.78C21.13 20.2988 19.8988 21.53 18.38 21.53H6C4.48122 21.53 3.25 20.2988 3.25 18.78V5ZM4.75 5C4.75 4.30964 5.30964 3.75 6 3.75H18.38C19.0704 3.75 19.63 4.30964 19.63 5V11.1401H4.75V5ZM19.63 12.6401V18.78C19.63 19.4704 19.0704 20.03 18.38 20.03H6C5.30964 20.03 4.75 19.4704 4.75 18.78V12.6401H19.63Z" fill="#10181B"/>
</svg>
