<svg width="24" height="24" viewBox="0 0 24 24" fill="none" xmlns="http://www.w3.org/2000/svg">
<path fill-rule="evenodd" clip-rule="evenodd" d="M16.1952 4.51202C16.0964 4.26543 15.8745 4.08952 15.6119 4.04956C15.3493 4.0096 15.0851 4.11156 14.9174 4.3176L12 7.90207L9.08261 4.3176C8.91492 4.11156 8.65074 4.0096 8.38811 4.04956C8.12547 4.08952 7.90357 4.26543 7.80475 4.51202L5.92426 9.20422L2.86956 7.23317C2.61192 7.06692 2.27903 7.07425 2.02895 7.25168C1.77887 7.4291 1.66198 7.74088 1.73378 8.03898L3.91002 17.0746C3.94106 17.2035 4.00572 17.3219 4.09741 17.4177C4.1361 17.4581 4.17687 17.5024 4.22064 17.5501C4.55196 17.9105 5.05475 18.4576 6.12212 18.89C7.28685 19.362 9.08953 19.6927 12.1063 19.6927C15.0403 19.6927 16.8009 19.3812 17.9341 18.9353C19.0214 18.5075 19.4993 17.963 19.8141 17.6044C19.8423 17.5722 19.8692 17.5415 19.8952 17.5126C19.9993 17.3963 20.0604 17.2566 20.0798 17.1127C20.0835 17.1002 20.0869 17.0875 20.09 17.0746L22.2662 8.03898C22.338 7.74088 22.2211 7.4291 21.971 7.25168C21.721 7.07425 21.3881 7.06692 21.1304 7.23317L18.0757 9.20422L16.1952 4.51202ZM18.8068 15.9962L20.3691 9.50955L18.1246 10.9578C17.9364 11.0793 17.7038 11.1102 17.4904 11.0423C17.277 10.9743 17.1051 10.8145 17.0218 10.6066L15.2767 6.25234L12.5902 9.5532C12.5751 9.57233 12.5591 9.59086 12.542 9.60869C12.4736 9.6803 12.3938 9.73567 12.3078 9.77428C12.1143 9.86114 11.8894 9.86317 11.6922 9.77428C11.6062 9.73567 11.5264 9.68029 11.458 9.60867C11.4409 9.59084 11.4249 9.57233 11.4098 9.55321L8.72326 6.25234L6.97818 10.6066C6.89487 10.8145 6.723 10.9743 6.50959 11.0423C6.29618 11.1102 6.06357 11.0793 5.87538 10.9578L3.63086 9.50955L5.17516 15.9215C5.48017 15.792 5.86867 15.6536 6.37729 15.5338C7.47354 15.2755 9.1603 15.0833 12.0442 15.0833C14.7125 15.0833 16.3836 15.2923 17.5149 15.5703C18.0599 15.7042 18.477 15.8545 18.8068 15.9962ZM6.6854 17.4998C6.43236 17.3973 6.23 17.2917 6.06106 17.1839C6.24178 17.12 6.45479 17.0566 6.72122 16.9938C7.65575 16.7737 9.21167 16.5833 12.0442 16.5833C14.6434 16.5833 16.184 16.7879 17.157 17.027C17.4723 17.1045 17.7288 17.1853 17.9471 17.2667C17.7936 17.3595 17.6103 17.4508 17.3848 17.5395C16.5053 17.8856 14.9612 18.1927 12.1063 18.1927C9.17287 18.1927 7.59178 17.8671 6.6854 17.4998Z" fill="#10181B"/>
</svg>
