<svg width="16" height="16" viewBox="0 0 16 16" fill="none" xmlns="http://www.w3.org/2000/svg">
<path fill-rule="evenodd" clip-rule="evenodd" d="M10.4375 8.42915C10.7683 8.64602 11.0997 8.75771 11.3181 8.79004H12.36C12.9953 8.79004 13.51 9.30501 13.51 9.94004V11.54C13.51 12.1751 12.9953 12.69 12.36 12.69H3.40002C2.76495 12.69 2.25 12.1752 2.25 11.54V9.94004C2.25 9.30486 2.76495 8.79004 3.40002 8.79004H4.44184C4.66022 8.75771 4.99156 8.64602 5.32239 8.42915C5.71523 8.17163 5.99196 7.84158 6.08727 7.49909L6.08776 7.49732C6.26322 6.8727 6.13325 6.21854 5.6541 5.61353C5.63721 5.59483 5.62109 5.57511 5.60584 5.55437C5.26531 5.09124 5.06006 4.51679 5.06006 3.89008C5.06006 2.33586 6.31584 1.08008 7.87006 1.08008L7.87497 1.08009L7.87988 1.08008C9.4341 1.08008 10.6899 2.33586 10.6899 3.89008C10.6899 4.47972 10.5082 5.02315 10.2031 5.47116C10.1809 5.51294 10.1544 5.55322 10.1236 5.5914C9.62991 6.20259 9.49455 6.86511 9.67214 7.49732L9.67264 7.49909C9.76794 7.84158 10.0447 8.17163 10.4375 8.42915ZM6.56006 3.89008C6.56006 3.16429 7.14427 2.58008 7.87006 2.58008L7.87497 2.58006L7.87988 2.58008C8.60567 2.58008 9.18988 3.16429 9.18988 3.89008C9.18988 4.18343 9.0951 4.44898 8.93568 4.66578C8.92107 4.68565 8.90759 4.70599 8.89522 4.72674C8.17567 5.66013 7.91466 6.7852 8.22754 7.9012C8.32002 8.23354 8.47323 8.52988 8.66193 8.79004H7.09797C7.28651 8.53011 7.43961 8.23407 7.53212 7.90209C7.85413 6.75462 7.56947 5.59748 6.8033 4.64889L6.7949 4.63867C6.64719 4.42694 6.56006 4.17125 6.56006 3.89008ZM11.4401 10.3001C11.3722 10.3001 11.3028 10.2967 11.2321 10.29H4.52779C4.4571 10.2967 4.38765 10.3001 4.31982 10.3001C4.27779 10.3001 4.23657 10.2967 4.19642 10.29H3.75V11.19H12.01V10.29H11.5635C11.5233 10.2967 11.4821 10.3001 11.4401 10.3001Z" fill="#10181B"/>
<path d="M11.5898 14.5698C11.8698 14.5698 12.0998 14.3398 12.0998 14.0598H12.0898V13.5498H3.73975V14.0598C3.73975 14.3398 3.96976 14.5698 4.24976 14.5698H11.5898Z" fill="#10181B"/>
</svg>
