<svg width="16" height="16" viewBox="0 0 16 16" fill="none" xmlns="http://www.w3.org/2000/svg">
<path fill-rule="evenodd" clip-rule="evenodd" d="M2.3391 2.83982C2.68577 1.79983 4.29676 0.456795 6.48035 1.33023C7.1502 1.59817 7.6215 1.97359 7.95239 2.37712C8.28329 1.97359 8.75459 1.59817 9.42443 1.33023C11.608 0.456795 13.219 1.79983 13.5657 2.83982C13.7934 3.52283 13.718 4.25807 13.2887 4.84979C14.0933 4.93671 14.605 5.27946 14.605 5.87803V7.27856H8.65273V5.46855C8.38578 5.34739 8.15078 5.2135 7.95239 5.08154C7.75401 5.2135 7.519 5.34739 7.25206 5.46855V7.27856H1.2998V5.87803C1.2998 5.27946 1.81145 4.93671 2.61607 4.84979C2.18674 4.25807 2.11143 3.52282 2.3391 2.83982ZM5.92327 2.72295C4.60553 2.19585 3.85835 3.02549 3.76213 3.31416C3.66199 3.61456 3.72174 3.85198 3.87377 4.02302C4.03876 4.20862 4.41607 4.42779 5.15141 4.42779C5.99764 4.42779 6.68672 4.11502 7.09156 3.85299C7.04921 3.74105 6.99538 3.626 6.92257 3.5095C6.7556 3.24234 6.46988 2.94159 5.92327 2.72295ZM12.1427 3.31416C12.0464 3.02549 11.2993 2.19585 9.98152 2.72295C9.4349 2.94159 9.14919 3.24234 8.98221 3.5095C8.9094 3.626 8.85558 3.74105 8.81322 3.85299C9.21807 4.11502 9.90714 4.42779 10.7534 4.42779C11.4887 4.42779 11.866 4.20862 12.031 4.02302C12.183 3.85198 12.2428 3.61456 12.1427 3.31416Z" fill="#10181B"/>
<path d="M7.25202 14.9813V8.67896H1.6499V13.5808C1.6499 14.2811 2.00003 14.9813 3.05043 14.9813H7.25202Z" fill="#10181B"/>
<path d="M8.65276 14.9813V8.67896H14.2549V13.5808C14.2549 14.2811 13.9047 14.9813 12.8544 14.9813H8.65276Z" fill="#10181B"/>
</svg>
