<svg width="16" height="16" viewBox="0 0 16 16" fill="none" xmlns="http://www.w3.org/2000/svg">
<path d="M7.05682 10.7951L11.2678 6.43374L10.1887 5.39185L7.03754 8.65555L6.01608 7.63507L4.95593 8.69624L7.05682 10.7951Z" fill="#10181B"/>
<path fill-rule="evenodd" clip-rule="evenodd" d="M13.5932 3.41515L13.5932 8.13221C13.5932 11.8609 7.99386 15.0608 7.99386 15.0608C7.99386 15.0608 2.40668 11.8345 2.40668 8.18279L2.40673 3.46572C4.60492 3.46572 6.2756 2.48797 7.28529 1.64958C7.60046 1.38789 7.85123 1.13977 8.03353 0.939209L8.06375 0.971049C8.32471 1.24611 8.66742 1.60735 9.12593 1.96741C10.0507 2.69364 11.4469 3.4151 13.5932 3.41515ZM8.02321 13.2636L7.99687 13.2815L7.96971 13.2629C7.48335 12.9291 6.84144 12.4529 6.20632 11.8786C5.56583 11.2994 4.96962 10.6539 4.54198 9.98774C4.11167 9.3174 3.90668 8.7123 3.90667 8.18279L3.90671 4.83779C5.66312 4.53435 7.04839 3.74028 8.00822 2.99219C8.88939 3.72544 10.1948 4.52212 12.0932 4.80668L12.0932 8.13221C12.0932 9.30202 11.1548 10.6456 9.78735 11.8823C9.15194 12.457 8.50974 12.9315 8.02321 13.2636Z" fill="#10181B"/>
</svg>
