<svg width="16" height="16" viewBox="0 0 16 16" fill="none" xmlns="http://www.w3.org/2000/svg">
<g clip-path="url(#clip0_44_46783)">
<path fill-rule="evenodd" clip-rule="evenodd" d="M4.75 2.5C4.51079 2.5 4.28803 2.61272 4.15379 2.7949L4.15002 2.80002L2.64451 4.80732C2.55235 4.92713 2.5 5.08358 2.5 5.25V12.25C2.5 12.6625 2.84096 13 3.25 13H9.25V14.5H3.25C2.01904 14.5 1 13.4975 1 12.25V5.25C1 4.77801 1.14671 4.29614 1.45245 3.89674L2.9483 1.90227C3.37418 1.32621 4.05035 1 4.75 1H10.75C11.4496 1 12.1258 1.32621 12.5517 1.90227L14.0556 3.90745C14.334 4.28844 14.5 4.76191 14.5 5.25V7.75H13V5.25C13 5.09925 12.9469 4.93406 12.8468 4.79569L11.3462 2.79492C11.2119 2.61274 10.9892 2.5 10.75 2.5H4.75Z" fill="#10181B"/>
<path fill-rule="evenodd" clip-rule="evenodd" d="M1.75 4H13.75V5.5H1.75V4Z" fill="#10181B"/>
<path fill-rule="evenodd" clip-rule="evenodd" d="M11.5 7.75C11.9142 7.75 12.25 8.08579 12.25 8.5V13.75C12.25 14.1642 11.9142 14.5 11.5 14.5C11.0858 14.5 10.75 14.1642 10.75 13.75V8.5C10.75 8.08579 11.0858 7.75 11.5 7.75Z" fill="#10181B"/>
<path fill-rule="evenodd" clip-rule="evenodd" d="M11.5008 7.75C11.7 7.75022 11.891 7.82968 12.0315 7.97085L14.2715 10.2209C14.5637 10.5144 14.5627 10.9893 14.2691 11.2815C13.9756 11.5738 13.5007 11.5727 13.2085 11.2791L11.4988 9.56184L9.78033 11.2803C9.48744 11.5732 9.01256 11.5732 8.71967 11.2803C8.42678 10.9874 8.42678 10.5126 8.71967 10.2197L10.9697 7.96967C11.1105 7.82881 11.3016 7.74978 11.5008 7.75Z" fill="#10181B"/>
</g>
<defs>
<clipPath id="clip0_44_46783">
<rect width="13.5" height="13.5" fill="white" transform="translate(1 1)"/>
</clipPath>
</defs>
</svg>
