<svg width="24" height="24" viewBox="0 0 24 24" fill="none" xmlns="http://www.w3.org/2000/svg">
<path d="M5.62206 3.55386C6.60401 2.55196 8.01573 2.08008 9.7202 2.08008H13.7202C15.429 2.08008 16.8433 2.55161 17.8267 3.55344C18.8077 4.55287 19.2502 5.96832 19.2502 7.63008V20.0301C19.2502 20.6012 18.9801 21.1552 18.4333 21.404C17.8876 21.6523 17.2928 21.494 16.8556 21.1225C16.6257 20.9292 15.2596 19.9364 13.9006 18.9574C13.2306 18.4748 12.5765 18.0055 12.0898 17.6568C11.952 17.5581 11.8277 17.4691 11.7202 17.3922C11.6128 17.4691 11.4885 17.5581 11.3508 17.6567C10.8643 18.0054 10.2106 18.4746 9.54136 18.9572C8.17866 19.9398 6.81732 20.9312 6.59923 21.1187L6.59655 21.121C6.1592 21.4936 5.56354 21.6527 5.01706 21.404C4.47026 21.1552 4.2002 20.6012 4.2002 20.0301V7.63008C4.2002 5.96832 4.64264 4.55317 5.62206 3.55386Z" fill="#10181B"/>
</svg>
