<svg width="16" height="16" viewBox="0 0 16 16" fill="none" xmlns="http://www.w3.org/2000/svg">
<path fill-rule="evenodd" clip-rule="evenodd" d="M7.01025 4.55493V1.25513H5.51025V4.55493H4.78015C4.01596 4.55493 3.39014 5.18069 3.39014 5.94493V7.88493C3.39014 9.90788 4.69615 11.6284 6.51025 12.2484V13.2449C6.51025 14.0691 7.18604 14.7449 8.01025 14.7449C8.83447 14.7449 9.51025 14.0691 9.51025 13.2449V12.2415C11.3138 11.6155 12.6101 9.90034 12.6101 7.88493V5.94493C12.6101 5.18079 11.9844 4.55493 11.2202 4.55493H10.5V1.25513H9V4.55493H7.01025ZM8.01851 10.9949C9.72586 10.985 11.1101 9.59458 11.1101 7.88493V6.05493H4.89014V7.88493C4.89014 9.59458 6.27439 10.985 7.98173 10.9949H8.01851Z" fill="#10181B"/>
</svg>
