<svg width="24" height="24" viewBox="0 0 24 24" fill="none" xmlns="http://www.w3.org/2000/svg">
<path d="M6.72773 16.7855V14.2944C6.7255 14.2308 6.74265 14.1681 6.77692 14.1145C6.81119 14.0609 6.86095 14.0191 6.91959 13.9944C6.97823 13.9698 7.04298 13.9636 7.10523 13.9766C7.16748 13.9897 7.22429 14.0213 7.26811 14.0674L9.75926 16.564C9.80497 16.6075 9.83648 16.6638 9.84966 16.7255C9.86285 16.7872 9.85709 16.8515 9.83315 16.9099C9.80921 16.9683 9.7682 17.0181 9.71548 17.0528C9.66277 17.0875 9.6008 17.1055 9.5377 17.1044H7.04115C6.99953 17.1044 6.95833 17.0961 6.91995 17.08C6.88157 17.0639 6.84677 17.0403 6.8176 17.0107C6.78842 16.981 6.76545 16.9458 6.75002 16.9072C6.73459 16.8685 6.72702 16.8272 6.72773 16.7855Z" fill="#10181B"/>
<path fill-rule="evenodd" clip-rule="evenodd" d="M3.41455 0.75415L23.1434 20.483H3.56568L3.41455 0.75415ZM5.05423 18.983L4.94255 4.40347L8.41042 7.87134L6.75928 9.53334L7.82341 10.5905L9.47108 8.932L11.6479 11.1088L9.98926 12.7566L11.0464 13.8208L12.7086 12.1695L14.8842 14.3451L13.2295 15.9999L14.2902 17.0605L15.9449 15.4058L19.5221 18.983H5.05423Z" fill="#10181B"/>
</svg>
