<svg width="24" height="24" viewBox="0 0 24 24" fill="none" xmlns="http://www.w3.org/2000/svg">
<path fill-rule="evenodd" clip-rule="evenodd" d="M12.9516 3.34866C12.1288 3.26986 11.4793 3.07326 10.8644 2.84103C10.6757 2.76973 10.476 2.68879 10.2692 2.60492C9.84058 2.43116 9.38101 2.24483 8.92284 2.10566C7.47593 1.66615 5.80555 1.59147 3.00907 2.56822L2.77353 2.06909L1.41699 2.70924L10.7339 22.4525L12.0904 21.8124L8.24963 13.6734C10.5128 13.4309 12.004 13.8758 13.2372 14.4026C13.5672 14.5436 13.8792 14.6908 14.1944 14.8395L14.2436 14.8627C14.5705 15.0168 14.9048 15.1737 15.2414 15.3112C15.9152 15.5866 16.638 15.8019 17.4681 15.8004C20.4026 15.9279 21.7273 15.0606 22.2259 14.2395C22.3601 14.0184 22.3709 13.7437 22.2545 13.5127L17.2545 3.58947C17.0902 3.2633 16.7149 3.10311 16.3659 3.20959L16.3631 3.21042C16.3584 3.21176 16.3488 3.21445 16.3343 3.21826C16.3053 3.22586 16.2568 3.23789 16.1891 3.25237C16.0536 3.28131 15.8412 3.32005 15.5541 3.35273C14.9802 3.41803 14.1065 3.45927 12.9516 3.34866ZM7.57608 12.2461C10.4263 11.8409 12.313 12.3766 13.8265 13.0232C14.1829 13.1755 14.518 13.3336 14.8284 13.48L14.8834 13.506C15.214 13.6619 15.5141 13.8023 15.8088 13.9227C16.3924 14.1612 16.9145 14.3037 17.4788 14.3003C17.4915 14.3002 17.5041 14.3005 17.5168 14.3011C19.4136 14.386 20.2949 14.0078 20.6815 13.7242L16.1751 4.78073C16.0443 4.80226 15.8938 4.82375 15.7237 4.84311C15.0496 4.91982 14.071 4.96274 12.8086 4.84183C11.8103 4.74622 11.0254 4.50524 10.3345 4.24428C10.0695 4.1442 9.83529 4.04883 9.61423 3.95881C9.22975 3.80224 8.88497 3.66183 8.48688 3.54091C7.42808 3.21929 6.11949 3.0937 3.65303 3.93282L7.57608 12.2461Z" fill="#10181B"/>
</svg>
