<svg width="16" height="16" viewBox="0 0 16 16" fill="none" xmlns="http://www.w3.org/2000/svg">
<path fill-rule="evenodd" clip-rule="evenodd" d="M13.5932 8.13221L13.5933 3.41515V3.41515C11.4469 3.4151 10.0508 2.69364 9.12599 1.96741C8.66748 1.60735 8.32477 1.24611 8.06381 0.971049C8.05361 0.960303 8.04354 0.949687 8.03359 0.939209C7.85129 1.13977 7.60052 1.38789 7.28535 1.64958C6.27566 2.48797 4.60498 3.46572 2.40679 3.46572L2.40674 8.18279C2.40674 11.8345 7.99393 15.0608 7.99393 15.0608C7.99393 15.0608 13.5932 11.8609 13.5932 8.13221ZM7.99694 13.2815C8.00566 13.2756 8.01444 13.2696 8.02327 13.2636C8.5098 12.9315 9.152 12.457 9.78741 11.8823C11.1548 10.6456 12.0932 9.30202 12.0932 8.13221L12.0933 4.80668C10.1948 4.52212 8.88945 3.72544 8.00828 2.99219C7.04845 3.74028 5.66318 4.53435 3.90677 4.83779L3.90674 8.18279V8.18279C3.90674 8.7123 4.11173 9.3174 4.54204 9.98774C4.96968 10.6539 5.56589 11.2994 6.20638 11.8786C6.8415 12.4529 7.48341 12.9291 7.96977 13.2629C7.97889 13.2692 7.98794 13.2754 7.99694 13.2815Z" fill="#10181B"/>
</svg>
