<svg width="16" height="16" viewBox="0 0 16 16" fill="none" xmlns="http://www.w3.org/2000/svg">
<path d="M6 4.21997C5.58579 4.21997 5.25 4.55576 5.25 4.96997C5.25 5.38418 5.58579 5.71997 6 5.71997H7C7.41421 5.71997 7.75 5.38418 7.75 4.96997C7.75 4.55576 7.41421 4.21997 7 4.21997H6Z" fill="#10181B"/>
<path d="M5.25 10.98C5.25 10.5658 5.58579 10.23 6 10.23H7C7.41421 10.23 7.75 10.5658 7.75 10.98C7.75 11.3942 7.41421 11.73 7 11.73H6C5.58579 11.73 5.25 11.3942 5.25 10.98Z" fill="#10181B"/>
<path fill-rule="evenodd" clip-rule="evenodd" d="M2.25 4C2.25 2.48121 3.48122 1.25 5 1.25H12.01C13.5288 1.25 14.76 2.48121 14.76 4V11.95C14.76 13.4688 13.5288 14.7 12.01 14.7H5C3.48122 14.7 2.25 13.4688 2.25 11.95V4ZM3.75 4C3.75 3.30964 4.30964 2.75 5 2.75H12.01C12.7004 2.75 13.26 3.30964 13.26 4V7.22998H3.75V4ZM13.26 8.72998V11.95C13.26 12.6404 12.7004 13.2 12.01 13.2H5C4.30964 13.2 3.75 12.6404 3.75 11.95V8.72998H13.26Z" fill="#10181B"/>
</svg>
