<svg width="24" height="24" viewBox="0 0 24 24" fill="none" xmlns="http://www.w3.org/2000/svg">
<path fill-rule="evenodd" clip-rule="evenodd" d="M9.23993 17.79H4C2.48122 17.79 1.25 16.5588 1.25 15.04V5C1.25 3.48122 2.48122 2.25 4 2.25H20C21.5188 2.25 22.75 3.48122 22.75 5V15.04C22.75 16.5588 21.5188 17.79 20 17.79H14.76V19.5303C14.76 20.1382 14.8895 20.5834 15.0909 20.8577C15.2653 21.0953 15.5462 21.2803 16.08 21.2803H16.6301C17.0443 21.2803 17.3801 21.6161 17.3801 22.0303C17.3801 22.4445 17.0443 22.7803 16.6301 22.7803H7.37012C6.9559 22.7803 6.62012 22.4445 6.62012 22.0303C6.62012 21.6161 6.9559 21.2803 7.37012 21.2803H7.91992C8.4537 21.2803 8.73469 21.0953 8.90909 20.8577C9.11046 20.5834 9.23993 20.1382 9.23993 19.5303V17.79ZM2.75 5C2.75 4.30964 3.30964 3.75 4 3.75H20C20.6904 3.75 21.25 4.30964 21.25 5V15.04C21.25 15.7304 20.6904 16.29 20 16.29H14.1311C14.0917 16.2836 14.0512 16.2803 14.01 16.2803C13.9688 16.2803 13.9283 16.2836 13.8889 16.29H10.111C10.0716 16.2836 10.0312 16.2803 9.98993 16.2803C9.9487 16.2803 9.90825 16.2836 9.86883 16.29H4C3.30964 16.29 2.75 15.7304 2.75 15.04V5ZM10.7399 17.79V19.5303C10.7399 20.1302 10.6455 20.7436 10.3933 21.2803H13.6067C13.3545 20.7436 13.26 20.1302 13.26 19.5303V17.79H10.7399Z" fill="#10181B"/>
</svg>
