<svg width="16" height="16" viewBox="0 0 16 16" fill="none" xmlns="http://www.w3.org/2000/svg">
<path d="M10.2844 8.05034C10.2844 8.45143 9.95924 8.77658 9.55815 8.77658C9.15706 8.77658 8.83191 8.45143 8.83191 8.05034C8.83191 7.64925 9.15706 7.3241 9.55815 7.3241C9.95924 7.3241 10.2844 7.64925 10.2844 8.05034Z" fill="#10181B"/>
<path d="M6.44182 8.7767C6.84291 8.7767 7.16806 8.45155 7.16806 8.05046C7.16806 7.64937 6.84291 7.32422 6.44182 7.32422C6.04073 7.32422 5.71558 7.64937 5.71558 8.05046C5.71558 8.45155 6.04073 8.7767 6.44182 8.7767Z" fill="#10181B"/>
<path fill-rule="evenodd" clip-rule="evenodd" d="M9.40177 2.59889C9.40177 3.09772 9.14121 3.53568 8.74878 3.78412V4.45345C10.5289 4.5109 11.7312 4.77562 12.5106 5.28418C12.9826 5.59212 13.2919 5.98363 13.4715 6.43436C13.6161 6.79702 13.6655 7.17039 13.6776 7.51772C14.4335 7.89291 14.9955 8.71285 14.9955 9.63487C14.9955 10.5557 14.4337 11.3721 13.6809 11.7484V14.1515H2.33069V13.4015C2.33069 12.9706 2.33237 12.3881 2.33472 11.7561C1.57415 11.3834 1.00452 10.5621 1.00452 9.63487C1.00452 8.69829 1.58443 7.86705 2.3583 7.50028C2.4002 6.81835 2.61143 6.02141 3.4328 5.41306C4.20492 4.84119 5.41707 4.51823 7.24878 4.45354V3.78255C6.85772 3.53384 6.59827 3.09667 6.59827 2.59889C6.59827 1.82473 7.22585 1.19714 8.00002 1.19714C8.77418 1.19714 9.40177 1.82473 9.40177 2.59889ZM3.84939 7.80784C3.84939 7.25554 3.94343 6.90148 4.32557 6.61845C4.78774 6.27614 5.79498 5.94141 7.96483 5.94141C10.1543 5.94141 11.1987 6.21923 11.691 6.54043C11.9096 6.68304 12.0153 6.83221 12.0781 6.98973C12.1483 7.16573 12.1809 7.3941 12.1809 7.71453V12.6515H11.1612V10.082H4.83887V12.6515H3.83183C3.8335 12.0035 3.83676 11.2185 3.84003 10.4568L3.84118 10.1885C3.84544 9.19964 3.84939 8.28329 3.84939 7.80784ZM6.33887 12.6515H9.66117V11.582H6.33887V12.6515Z" fill="#10181B"/>
</svg>
