<svg width="24" height="24" viewBox="0 0 24 24" fill="none" xmlns="http://www.w3.org/2000/svg">
<path d="M16.5123 11.9832C16.5123 12.7741 15.8711 13.4153 15.0802 13.4153C14.2893 13.4153 13.6481 12.7741 13.6481 11.9832C13.6481 11.1922 14.2893 10.551 15.0802 10.551C15.8711 10.551 16.5123 11.1922 16.5123 11.9832Z" fill="#10181B"/>
<path d="M8.93506 13.4153C9.726 13.4153 10.3672 12.7741 10.3672 11.9832C10.3672 11.1922 9.726 10.551 8.93506 10.551C8.14412 10.551 7.50293 11.1922 7.50293 11.9832C7.50293 12.7741 8.14412 13.4153 8.93506 13.4153Z" fill="#10181B"/>
<path fill-rule="evenodd" clip-rule="evenodd" d="M13.8773 4.7218C13.8773 5.49288 13.4124 6.15538 12.7477 6.44433V7.3974C15.7064 7.45826 17.5914 7.86685 18.7563 8.62696C19.4174 9.05828 19.8403 9.59782 20.0864 10.2151C20.2982 10.7466 20.3663 11.3047 20.3789 11.8415C21.6676 12.213 22.7316 13.5114 22.7316 15.016C22.7316 16.5192 21.666 17.8131 20.3813 18.1878V21.5956H3.63672V20.8456C3.63672 20.1554 3.63951 19.2133 3.64335 18.1948C2.34766 17.8296 1.26843 16.5288 1.26843 15.016C1.26843 13.4909 2.3616 12.1777 3.67378 11.8269C3.72153 10.817 4.00535 9.67962 5.17611 8.8125C6.32352 7.96267 8.2145 7.46212 11.2477 7.39674V6.4423C10.5854 6.15229 10.1227 5.49108 10.1227 4.7218C10.1227 3.68499 10.9632 2.84448 12 2.84448C13.0368 2.84448 13.8773 3.68499 13.8773 4.7218ZM20.3813 16.5484V13.4803C20.8477 13.7855 21.2316 14.3486 21.2316 15.016C21.2316 15.6796 20.848 16.2421 20.3813 16.5484ZM18.8813 13.3819V12.0443C18.8813 11.5264 18.8295 11.113 18.693 10.7705C18.5638 10.4464 18.3444 10.1492 17.9367 9.88321C17.0662 9.31528 15.342 8.8894 11.9456 8.8894C8.56879 8.8894 6.89544 9.40569 6.06888 10.0179C5.32236 10.5708 5.16566 11.2831 5.16566 12.1887C5.16566 12.9235 5.15956 14.3408 5.15297 15.8717L5.15118 16.2866C5.14541 17.6315 5.13965 19.0243 5.13755 20.0956H7.52612V15.4456H16.4893V20.0956H18.8813V17.4685L18.8807 17.3512C18.8802 17.2229 18.8795 17.0373 18.8788 16.808C18.8773 16.3494 18.8759 15.7159 18.8759 15.016C18.8759 14.3935 18.8784 13.8234 18.8813 13.3819ZM14.9893 20.0956V16.9456H9.02612V20.0956H14.9893ZM3.61933 13.4799C3.1526 13.785 2.76843 14.3483 2.76843 15.016C2.76843 15.6812 3.15376 16.2447 3.62199 16.5506C3.62314 16.1251 3.62412 15.5931 3.62412 15.016C3.62412 14.4381 3.62191 13.9055 3.61933 13.4799Z" fill="#10181B"/>
</svg>
