<svg width="24" height="24" viewBox="0 0 24 24" fill="none" xmlns="http://www.w3.org/2000/svg">
<path fill-rule="evenodd" clip-rule="evenodd" d="M4.5986 4.0614H3.17505V2.5614H6.0986V4.75427H21.857L18.7582 14.2953H6.0986V16.6117C6.39471 16.4804 6.72084 16.4044 7.06384 16.397V16.3883H16.2201V16.4145C17.4692 16.5646 18.4373 17.628 18.4373 18.9175C18.4373 20.3099 17.3085 21.4386 15.9161 21.4386C14.5238 21.4386 13.395 20.3099 13.395 18.9175C13.395 18.5509 13.4733 18.2026 13.614 17.8883H9.42181C9.56251 18.2026 9.64076 18.5509 9.64076 18.9175C9.64076 20.3099 8.51201 21.4386 7.11963 21.4386C5.72726 21.4386 4.59851 20.3099 4.59851 18.9175L4.5986 18.8965V4.0614ZM6.0986 12.7953H17.6682L19.7927 6.25427H6.0986V12.7953ZM6.09858 18.9291C6.1048 19.4877 6.55956 19.9386 7.11963 19.9386C7.68358 19.9386 8.14076 19.4814 8.14076 18.9175C8.14076 18.3535 7.68358 17.8964 7.11963 17.8964C6.56013 17.8964 6.10573 18.3464 6.0986 18.9042L6.09858 18.9291ZM14.895 18.9175C14.895 18.3535 15.3522 17.8964 15.9161 17.8964C16.4801 17.8964 16.9373 18.3535 16.9373 18.9175C16.9373 19.4814 16.4801 19.9386 15.9161 19.9386C15.3522 19.9386 14.895 19.4814 14.895 18.9175Z" fill="#10181B"/>
</svg>
