<svg width="16" height="16" viewBox="0 0 16 16" fill="none" xmlns="http://www.w3.org/2000/svg">
<path fill-rule="evenodd" clip-rule="evenodd" d="M2.07913 2.71021H1.26099V1.21021H3.57913V2.79224H15.027L12.6556 10.0936H3.57913V11.261C3.73502 11.2191 3.89832 11.1953 4.06665 11.192V11.1859H10.6726V11.2034C11.6894 11.3127 12.4812 12.1736 12.4812 13.2195C12.4812 14.3394 11.5733 15.2473 10.4533 15.2473C9.33342 15.2473 8.42554 14.3394 8.42554 13.2195C8.42554 13.0348 8.45022 12.8559 8.49646 12.6859H6.0638C6.11004 12.8559 6.13472 13.0348 6.13472 13.2195C6.13472 14.3394 5.22684 15.2473 4.10691 15.2473C2.98698 15.2473 2.0791 14.3394 2.0791 13.2195L2.07913 13.2082V2.71021ZM3.57913 8.5936H11.5656L12.9627 4.29224H3.57913V8.5936ZM4.10691 12.6917C3.81733 12.6917 3.58222 12.9249 3.57913 13.2137V13.2252C3.58222 13.5141 3.81733 13.7473 4.10691 13.7473C4.39841 13.7473 4.63472 13.511 4.63472 13.2195C4.63472 12.928 4.39841 12.6917 4.10691 12.6917ZM9.92554 13.2195C9.92554 12.928 10.1618 12.6917 10.4533 12.6917C10.7448 12.6917 10.9812 12.928 10.9812 13.2195C10.9812 13.511 10.7448 13.7473 10.4533 13.7473C10.1618 13.7473 9.92554 13.511 9.92554 13.2195Z" fill="#10181B"/>
</svg>
