<svg width="16" height="16" viewBox="0 0 16 16" fill="none" xmlns="http://www.w3.org/2000/svg">
<path fill-rule="evenodd" clip-rule="evenodd" d="M11.21 5.52C10.81 5.52 10.49 5.2 10.49 4.8C10.49 4.4 10.81 4.07999 11.21 4.07999C11.61 4.07999 11.93 4.4 11.93 4.8C11.93 5.2 11.61 5.52 11.21 5.52ZM8.01 10C6.91 10 6.01 9.11 6.01 8C6.01 6.89 6.9 6 8.01 6C9.12 6 10.01 6.89 10.01 8C10.01 8.53 9.8 9.04 9.42 9.41C9.05 9.78 8.54 10 8.01 10ZM8.01 4.92C6.31 4.92 4.93 6.3 4.93 8C4.93 9.7 6.31 11.08 8.01 11.08C9.71 11.08 11.09 9.7 11.09 8C11.09 7.18 10.77 6.4 10.19 5.82C9.61 5.24 8.83 4.92 8.01 4.92ZM8.01 2C6.38 2 6.17 1.99999 5.54 2.03999C5.04 2.03999 4.55 2.14 4.08 2.32C3.27 2.63 2.63 3.26999 2.32 4.07999C2.15 4.54999 2.05 5.03999 2.04 5.53999C2 6.17999 2 6.37999 2 8.00999C2 9.63999 2 9.85 2.04 10.48C2.04 10.98 2.14 11.47 2.32 11.94C2.63 12.74 3.27 13.38 4.07 13.69C4.54 13.86 5.03 13.96 5.53 13.97C6.17 14.01 6.38 14.01 8.01 14.01C9.64 14.01 9.85 14.01 10.48 13.97C10.98 13.97 11.47 13.87 11.94 13.69C12.74 13.38 13.38 12.74 13.69 11.94C13.86 11.47 13.96 10.98 13.97 10.48C13.97 9.84 14.01 9.62999 14.01 8.00999C14.01 6.38999 14.01 6.16999 13.97 5.53999C13.97 5.03999 13.87 4.54999 13.69 4.07999C13.38 3.27999 12.74 2.63999 11.94 2.32999C11.47 2.15999 10.98 2.06 10.48 2.05C9.84 2 9.64 2 8.01 2ZM8.01 3.07999C9.61 3.07999 9.81 3.08 10.41 3.12C10.79 3.12 11.17 3.19 11.53 3.32C12.05 3.52 12.47 3.94 12.67 4.46C12.81 4.82 12.89 5.21 12.9 5.6C12.9 6.23 12.94 6.42 12.94 8C12.94 9.58 12.94 9.79999 12.9 10.4C12.9 10.78 12.83 11.16 12.7 11.52C12.5 12.04 12.08 12.46 11.56 12.66C11.2 12.79 10.82 12.86 10.44 12.86C9.81 12.86 9.62 12.9 8.04 12.9C6.46 12.9 6.24 12.9 5.64 12.86C5.24 12.86 4.85 12.81 4.48 12.68C3.96 12.48 3.54 12.06 3.34 11.54C3.21 11.17 3.14 10.79 3.14 10.4C3.14 9.76999 3.1 9.58 3.1 8C3.1 6.42 3.1 6.2 3.14 5.6C3.14 5.21 3.21 4.83 3.34 4.46C3.54 3.94 3.96 3.52 4.48 3.32C4.85 3.19 5.23 3.12 5.62 3.12C6.25 3.12 6.44 3.07999 8.02 3.07999H8.01Z" fill="#10181B"/>
</svg>
