<svg width="16" height="16" viewBox="0 0 16 16" fill="none" xmlns="http://www.w3.org/2000/svg">
<path d="M8 2.01C4.68 2.01 2 4.7 2 8.01C2 10.83 3.94 13.17 6.55 13.83C6.52 13.75 6.50999 13.65 6.50999 13.55V12.53H5.75999C5.35999 12.53 4.98 12.35 4.81 12.02C4.61 11.66 4.58 11.1 4.09 10.76C3.94 10.64 4.06 10.52 4.22 10.53C4.54 10.62 4.79 10.83 5.03 11.14C5.27 11.46 5.38 11.53 5.83 11.53C6.04 11.53 6.37 11.52 6.67 11.47C6.83 11.05 7.12 10.67 7.47 10.5C5.46 10.26 4.5 9.27001 4.5 7.92001C4.5 7.33001 4.75001 6.78 5.18001 6.3C5.05001 5.83 4.86001 4.87 5.24001 4.5C6.14001 4.5 6.68 5.09 6.81 5.23C7.26 5.08 7.75999 4.99001 8.25999 4.99001C8.75999 4.99001 9.27001 5.08 9.71001 5.23C9.84001 5.08 10.39 4.5 11.28 4.5C11.64 4.86 11.48 5.83 11.32 6.3C11.74 6.77 11.98 7.34001 11.98 7.92001C11.98 9.27001 11.03 10.26 9.04001 10.47C9.60001 10.75 9.99001 11.56 9.99001 12.16V13.53C9.99001 13.53 9.98 13.62 9.98 13.66C12.32 12.85 14 10.63 14 8C14 4.68 11.31 2 8 2V2.01Z" fill="#10181B"/>
</svg>
