<svg width="24" height="24" viewBox="0 0 24 24" fill="none" xmlns="http://www.w3.org/2000/svg">
<path d="M8.7595 12.9021C8.96347 12.9774 9.17934 13.0151 9.39674 13.0137C9.62271 13.0137 9.83512 12.9743 10.0218 12.9077L9.40185 10.9124H9.38963L8.7595 12.9021Z" fill="#10181B"/>
<path d="M13.673 11.8705H14.1116C14.696 11.8705 15.1624 11.6761 15.1628 11.0584C15.1628 10.4616 14.6962 10.2669 14.1118 10.2669H13.673V11.8705Z" fill="#10181B"/>
<path fill-rule="evenodd" clip-rule="evenodd" d="M12.215 16.9993H2V7.00073H22.2118L12.215 16.9993ZM11.9986 9.00045H13.9948C15.8958 9.00045 16.789 9.64392 16.7895 11.1213C16.7895 12.4477 15.8707 13.2387 14.3165 13.2387H13.6735L13.6661 15.0025L10.6443 14.9996L10.4337 14.2353C10.122 14.3375 9.77046 14.3944 9.39674 14.3944C9.01324 14.3944 8.65196 14.3344 8.33422 14.2259L8.03205 14.9996L6.34784 15.0049L6.42339 14.6157C6.41908 14.6194 6.41481 14.6232 6.41055 14.627C6.39102 14.6442 6.37166 14.6614 6.35051 14.6783C5.90035 15.0405 5.33376 15.2078 4.63564 15.2205L4.45522 15.2218C3.65311 15.2218 2.94721 15.032 2.2822 14.6539L2.897 13.434C3.56268 13.8275 3.9804 13.9162 4.5441 13.9042C4.83628 13.8984 5.04736 13.8451 5.18512 13.7029C5.26578 13.6192 5.3125 13.5085 5.31621 13.3923C5.32176 13.0754 4.87072 12.9266 4.31857 12.7555C3.87086 12.6168 3.36271 12.428 2.96543 12.1369C2.49528 11.7909 2.27153 11.3581 2.28264 10.7475C2.28931 10.3038 2.45373 9.90255 2.75857 9.58704C3.19584 9.13488 3.9013 8.86047 4.74851 8.86047H4.75296C5.47952 8.86114 6.36562 9.06711 7.00641 9.39329L6.3154 10.5976C5.61261 10.2581 5.25933 10.2258 4.85939 10.2043C4.26325 10.1725 3.96329 10.3856 3.95885 10.6153C3.95307 10.8953 4.5221 11.1486 5.05825 11.3208C5.87013 11.5788 6.90198 11.9231 7.05974 12.9212L8.54353 8.9989H10.2671L12.0053 13.6953L11.9986 9.00045Z" fill="#10181B"/>
</svg>
