<svg width="24" height="24" viewBox="0 0 24 24" fill="none" xmlns="http://www.w3.org/2000/svg">
<path d="M17.6052 12.62C17.6352 15.65 20.2652 16.65 20.2852 16.67C20.2652 16.74 19.8652 18.11 18.9052 19.51C18.0752 20.73 17.2052 21.94 15.8452 21.97C14.5052 21.99 14.0752 21.18 12.5452 21.18C11.0152 21.18 10.5352 21.95 9.2652 22C7.9452 22.05 6.94522 20.68 6.10522 19.47C4.38522 16.99 3.07521 12.45 4.83521 9.39C5.71521 7.87 7.27521 6.91 8.97521 6.88C10.2652 6.86 11.4852 7.75 12.2752 7.75C13.0652 7.75 14.5452 6.68 16.1052 6.83C16.7552 6.86 18.5852 7.09 19.7652 8.81C19.6752 8.87 17.5852 10.09 17.6052 12.62ZM15.0852 5.19C15.7852 4.34 16.2552 3.17 16.1252 2C15.1152 2.04 13.9052 2.67 13.1752 3.52C12.5252 4.27 11.9652 5.47 12.1152 6.61C13.2352 6.7 14.3852 6.04 15.0852 5.19Z" fill="#10181B"/>
</svg>
