<svg width="16" height="16" viewBox="0 0 16 16" fill="none" xmlns="http://www.w3.org/2000/svg">
<path d="M11.163 8.39C11.183 10.21 12.753 10.81 12.773 10.82C12.763 10.86 12.523 11.68 11.943 12.53C11.443 13.26 10.923 13.99 10.103 14C9.30297 14.01 9.04298 13.52 8.12298 13.52C7.20298 13.52 6.91298 13.98 6.15298 14.01C5.36298 14.04 4.76298 13.22 4.26298 12.49C3.23298 11 2.44298 8.27999 3.50298 6.43999C4.03298 5.52999 4.96298 4.94999 5.98298 4.93999C6.76298 4.92999 7.49297 5.46 7.96297 5.46C8.43297 5.46 9.32298 4.82 10.263 4.91C10.653 4.93 11.753 5.07 12.453 6.1C12.393 6.14 11.143 6.87 11.153 8.38M9.64298 3.92C10.063 3.41 10.343 2.71 10.263 2C9.66298 2.02 8.93297 2.4 8.49297 2.91C8.10297 3.36 7.76297 4.08 7.85297 4.77C8.52297 4.82 9.21297 4.43 9.63297 3.92" fill="#10181B"/>
</svg>
