<svg width="16" height="16" viewBox="0 0 16 16" fill="none" xmlns="http://www.w3.org/2000/svg">
<g clip-path="url(#clip0_29_31248)">
<path fill-rule="evenodd" clip-rule="evenodd" d="M12.22 12.23H10.45V9.45C10.45 8.78 10.45 7.93 9.52 7.93C8.59 7.93 8.45 8.66 8.45 9.4V12.23H6.66V6.5H8.37V7.28C8.72 6.68 9.37001 6.33 10.06 6.35C11.86 6.35 12.19 7.54 12.19 9.08L12.22 12.22V12.23ZM4.67001 5.72C4.10001 5.72 3.64 5.25999 3.64 4.68999C3.64 4.11999 4.1 3.66 4.66 3.65C5.23 3.65 5.69 4.1 5.7 4.67C5.7 4.95 5.6 5.21 5.4 5.41C5.21 5.61 4.94 5.72 4.66 5.72H4.67001ZM5.56001 12.23H3.78V6.5H5.56001V12.23ZM13.11 2H2.88C2.65 2 2.42 2.09 2.26 2.25C2.09 2.41 2 2.64 2 2.87V13.14C2 13.37 2.1 13.6 2.26 13.76C2.43 13.92 2.65 14.01 2.88 14.01H13.11C13.59 14.01 13.99 13.63 14 13.14V2.87C14 2.39 13.6 2 13.11 2Z" fill="#10181B"/>
</g>
<defs>
<clipPath id="clip0_29_31248">
<rect width="16" height="16" fill="white"/>
</clipPath>
</defs>
</svg>
