<svg width="24" height="24" viewBox="0 0 24 24" fill="none" xmlns="http://www.w3.org/2000/svg">
<path fill-rule="evenodd" clip-rule="evenodd" d="M20 7.96017V8.48017C20 11.5602 18.75 14.5102 16.55 16.6702C14.35 18.8302 11.37 20.0002 8.29 19.9402C6.06 19.9402 3.88 19.3202 2 18.1302C2.33 18.1702 2.67 18.1902 3 18.1902C4.83 18.2002 6.61 17.6102 8.07 16.5102C6.33 16.4902 4.79 15.3602 4.24 13.7102C4.85 13.8202 5.49 13.8002 6.09 13.6402C4.17 13.2702 2.79 11.5902 2.8 9.64017V9.57017C3.37 9.88017 4.01 10.0502 4.66 10.0702C3.52 9.34017 2.83 8.07017 2.83 6.72017C2.83 6.02017 3.03 5.33017 3.39 4.72017C5.49 7.24017 8.56 8.77017 11.84 8.92017C11.77 8.62017 11.73 8.31017 11.73 8.00017C11.77 5.77017 13.6 3.98017 15.83 4.00017C16.96 4.00017 18.05 4.45017 18.83 5.27017C19.75 5.09017 20.63 4.75017 21.44 4.27017C21.13 5.21017 20.49 6.00017 19.64 6.50017C20.45 6.41017 21.25 6.19017 22 5.87017C21.46 6.68017 20.78 7.39017 20 7.96017Z" fill="#10181B"/>
</svg>
