<svg width="24" height="24" viewBox="0 0 24 24" fill="none" xmlns="http://www.w3.org/2000/svg">
<path fill-rule="evenodd" clip-rule="evenodd" d="M17.34 7.86C16.68 7.86 16.14 7.32 16.14 6.66C16.14 6 16.68 5.46 17.34 5.46C18 5.46 18.54 6 18.54 6.66C18.54 7.32 18 7.86 17.34 7.86ZM12 15.33C10.16 15.33 8.67 13.84 8.67 12C8.67 10.16 10.16 8.67 12 8.67C13.84 8.67 15.33 10.16 15.33 12C15.33 12.88 14.98 13.73 14.35 14.35C13.73 14.97 12.88 15.33 12 15.33ZM12 6.86C9.16 6.86 6.86 9.16 6.86 12C6.86 14.84 9.16 17.14 12 17.14C14.84 17.14 17.14 14.84 17.14 12C17.14 10.64 16.6 9.33 15.63 8.37C14.66 7.41 13.36 6.86 12 6.86ZM12 2C9.28 2 8.94 2 7.88 2.06C7.05 2.07 6.23 2.23 5.45 2.52C4.1 3.04 3.04 4.1 2.52 5.45C2.23 6.23 2.07 7.05 2.06 7.88C2 8.94 2 9.28 2 12C2 14.72 2 15.06 2.06 16.12C2.07 16.95 2.23 17.77 2.52 18.55C3.04 19.89 4.1 20.95 5.44 21.47C6.22 21.76 7.04 21.92 7.87 21.93C8.94 22 9.28 22 12 22C14.72 22 15.06 22 16.12 21.94C16.95 21.93 17.77 21.77 18.55 21.48C19.89 20.96 20.95 19.9 21.47 18.56C21.76 17.78 21.92 16.96 21.93 16.13C21.93 15.06 21.99 14.72 21.99 12.01C21.99 9.3 21.99 8.95 21.93 7.89C21.92 7.06 21.76 6.24 21.47 5.46C20.95 4.12 19.89 3.06 18.55 2.54C17.77 2.25 16.95 2.09 16.12 2.08C15.06 2 14.72 2 12 2ZM12 3.8C14.67 3.8 15 3.8 16 3.86C16.63 3.86 17.26 3.98 17.86 4.2C18.73 4.54 19.42 5.23 19.76 6.1C20 6.71 20.13 7.35 20.14 8C20.14 9.05 20.2 9.37 20.2 12C20.2 14.63 20.2 15 20.14 16C20.14 16.63 20.02 17.26 19.8 17.86C19.46 18.73 18.77 19.42 17.9 19.76C17.3 19.98 16.67 20.09 16.04 20.1C14.99 20.1 14.67 20.16 12.04 20.16C9.41 20.16 9.04 20.16 8.04 20.1C7.38 20.12 6.72 20.01 6.1 19.8C5.23 19.46 4.54 18.77 4.2 17.9C3.98 17.29 3.86 16.65 3.86 16C3.86 14.95 3.8 14.63 3.8 12C3.8 9.37 3.8 9 3.86 8C3.86 7.35 3.98 6.71 4.2 6.1C4.54 5.23 5.23 4.54 6.1 4.2C6.71 3.98 7.35 3.86 8 3.86C9.05 3.86 9.37 3.8 12 3.8Z" fill="#10181B"/>
</svg>
