<svg width="16" height="16" viewBox="0 0 16 16" fill="none" xmlns="http://www.w3.org/2000/svg">
<path fill-rule="evenodd" clip-rule="evenodd" d="M14.01 3.09V12.92C14.01 13.52 13.52 14.01 12.92 14.01H10.41V9.21H11.96L12.19 7.41H10.41V6.49C10.41 5.97 10.56 5.60999 11.28 5.60999H12.19V3.75999C11.75 3.70999 11.3 3.68999 10.86 3.68999C9.52 3.68999 8.61 4.53999 8.61 6.07999V7.41H6.81V9.21H8.61V14.01H3.09C2.49 14.01 2 13.52 2 12.92V3.09C2 2.49 2.49 2 3.09 2H12.92C13.52 2 14.01 2.49 14.01 3.09Z" fill="#10181B"/>
</svg>
