<svg width="24" height="24" viewBox="0 0 24 24" fill="none" xmlns="http://www.w3.org/2000/svg">
<path d="M12 2C6.47 2 2 6.47 2 12C2 16.7 5.22 20.6 9.58 21.7C9.53 21.57 9.50999 21.4 9.50999 21.23V19.53H8.25999C7.58999 19.53 6.96001 19.23 6.68001 18.68C6.35001 18.08 6.3 17.15 5.48 16.58C5.23 16.38 5.43 16.18 5.7 16.2C6.23 16.35 6.65 16.7 7.05 17.22C7.45 17.75 7.63 17.87 8.38 17.87C8.73 17.87 9.28 17.85 9.78 17.77C10.05 17.07 10.53 16.44 11.11 16.15C7.76 15.75 6.16 14.1 6.16 11.85C6.16 10.87 6.58001 9.95 7.29001 9.15C7.07001 8.37 6.76 6.77 7.39 6.15C8.89 6.15 9.78999 7.13 10.01 7.37C10.76 7.12 11.59 6.97 12.43 6.97C13.27 6.97 14.1 7.12 14.85 7.37C15.07 7.12 15.98 6.15 17.47 6.15C18.07 6.75 17.8 8.37 17.54 9.15C18.24 9.93 18.64 10.88 18.64 11.85C18.64 14.1 17.06 15.75 13.74 16.1C14.67 16.57 15.32 17.92 15.32 18.92V21.2C15.32 21.27 15.3 21.35 15.3 21.42C19.2 20.07 22 16.37 22 12C22 6.47 17.53 2 12 2Z" fill="#10181B"/>
</svg>
