<svg width="16" height="16" viewBox="0 0 16 16" fill="none" xmlns="http://www.w3.org/2000/svg">
<path d="M8.56995 12.6862L5.98995 12.6362C5.14995 12.6162 4.31995 12.6562 3.49995 12.4862C2.24995 12.2362 2.15995 10.9862 2.06995 9.93623C1.93995 8.46623 1.98995 6.96623 2.22995 5.50623C2.36995 4.68623 2.89995 4.19623 3.72995 4.14623C6.51995 3.95623 9.31995 3.97623 12.1099 4.06623C12.3999 4.06623 12.7 4.11623 12.99 4.16623C14.42 4.41623 14.4499 5.83623 14.5499 7.02623C14.6399 8.22623 14.5999 9.43623 14.4299 10.6362C14.2899 11.6262 14.0199 12.4562 12.8699 12.5362C11.4399 12.6362 10.03 12.7262 8.59995 12.6962C8.59995 12.6962 8.59995 12.6962 8.58995 12.6962L8.56995 12.6862ZM7.04995 10.1762C8.12995 9.55623 9.18995 8.94623 10.27 8.32623C9.18995 7.70623 8.12995 7.09623 7.04995 6.47623V10.1662V10.1762Z" fill="#10181B"/>
</svg>
