<svg width="24" height="24" viewBox="0 0 24 24" fill="none" xmlns="http://www.w3.org/2000/svg">
<path fill-rule="evenodd" clip-rule="evenodd" d="M18.33 18.3301H15.67V14.1601C15.67 13.1601 15.67 11.8801 14.28 11.8801C12.89 11.8801 12.68 12.9701 12.68 14.0901V18.3401H10V9.75013H12.56V10.9201C13.08 10.0201 14.05 9.49013 15.09 9.53013C17.79 9.53013 18.29 11.3101 18.29 13.6201L18.33 18.3301ZM7 8.57013C6.15 8.57013 5.45 7.88013 5.45 7.03013C5.45 6.18013 6.13001 5.48013 6.99001 5.47013C7.84001 5.47013 8.54 6.15013 8.55 7.00013C8.55 7.41013 8.39001 7.81013 8.10001 8.11013C7.81001 8.41013 7.41 8.57013 7 8.57013ZM8.34 18.3401H5.67001V9.75013H8.34V18.3401ZM19.67 3.00013H4.33C3.98 3.00013 3.64 3.13013 3.39 3.37013C3.14 3.61013 3 3.95013 3 4.30013V19.7001C3 20.0501 3.14 20.3801 3.39 20.6301C3.64 20.8701 3.98 21.0101 4.33 21.0001H19.67C20.4 21.0001 20.99 20.4301 21 19.7001V4.30013C20.99 3.57013 20.4 2.99013 19.67 3.00013Z" fill="#10181B"/>
</svg>
