<svg width="24" height="24" viewBox="0 0 24 24" fill="none" xmlns="http://www.w3.org/2000/svg">
<path d="M7 15.0801H9V17.0801H7V15.0801Z" fill="#10181B"/>
<path d="M9 10.9297H7V12.9297H9V10.9297Z" fill="#10181B"/>
<path d="M7 6.79004H9V8.79004H7V6.79004Z" fill="#10181B"/>
<path d="M15 15.0801H17V17.0801H15V15.0801Z" fill="#10181B"/>
<path d="M17 10.9297H15V12.9297H17V10.9297Z" fill="#10181B"/>
<path fill-rule="evenodd" clip-rule="evenodd" d="M12.75 6V7.26H18C19.5142 7.26 20.75 8.49579 20.75 10.01V18.01C20.75 19.5242 19.5142 20.76 18 20.76H6C4.48579 20.76 3.25 19.5242 3.25 18.01V6C3.25 4.48579 4.48579 3.25 6 3.25H10C11.5142 3.25 12.75 4.48579 12.75 6ZM4.75 6C4.75 5.31421 5.31421 4.75 6 4.75H10C10.6858 4.75 11.25 5.31421 11.25 6V19.26H6C5.31421 19.26 4.75 18.6958 4.75 18.01V6ZM12.75 19.26V8.76H18C18.6858 8.76 19.25 9.32421 19.25 10.01V18.01C19.25 18.6958 18.6858 19.26 18 19.26H12.75Z" fill="#10181B"/>
</svg>
