<svg width="16" height="16" viewBox="0 0 16 16" fill="none" xmlns="http://www.w3.org/2000/svg">
<path d="M3.9502 10.1797H5.25019V11.4797H3.9502V10.1797Z" fill="#10181B"/>
<path d="M5.25019 7.49023H3.9502V8.79023H5.25019V7.49023Z" fill="#10181B"/>
<path d="M3.9502 4.81006H5.25019V6.11006H3.9502V4.81006Z" fill="#10181B"/>
<path fill-rule="evenodd" clip-rule="evenodd" d="M7.94 6.34961V12.63H9.15V14.13H3.3C2.17955 14.13 1.25 13.218 1.25 12.08V4.3C1.25 3.17954 2.16205 2.25 3.3 2.25H5.89C7.01045 2.25 7.94 3.16204 7.94 4.3V4.84961H11.0799C12.2004 4.84961 13.1299 5.76165 13.1299 6.89961V8.24961H11.6299V6.89961C11.6299 6.59757 11.3795 6.34961 11.0799 6.34961H7.94ZM2.75 4.3C2.75 4.00046 2.99796 3.75 3.3 3.75H5.89C6.18954 3.75 6.44 3.99796 6.44 4.3V12.63H3.3C3.00046 12.63 2.75 12.382 2.75 12.08V4.3Z" fill="#10181B"/>
<path d="M10.4401 7.49023H9.14014V8.79023H10.4401V7.49023Z" fill="#10181B"/>
<path d="M13.1299 12.6201V14.5202H11.6299V12.6201H9.74023V11.1201H11.6299V9.24023H13.1299V11.1201H15.0202V12.6201H13.1299Z" fill="#10181B"/>
</svg>
