<svg width="24" height="24" viewBox="0 0 24 24" fill="none" xmlns="http://www.w3.org/2000/svg">
<path d="M5.99023 15.0801H7.99023V17.0801H5.99023V15.0801Z" fill="#10181B"/>
<path d="M7.99023 10.9297H5.99023V12.9297H7.99023V10.9297Z" fill="#10181B"/>
<path d="M5.99023 6.79004H7.99023V8.79004H5.99023V6.79004Z" fill="#10181B"/>
<path fill-rule="evenodd" clip-rule="evenodd" d="M11.75 8.75977V19.25H15.21V20.75H5C3.48579 20.75 2.25 19.5142 2.25 18V6C2.25 4.48579 3.48579 3.25 5 3.25H9C10.5142 3.25 11.75 4.48579 11.75 6V7.25977H16.9902C18.5044 7.25977 19.7402 8.49555 19.7402 10.0098V12.6798H18.2402V10.0098C18.2402 9.32398 17.676 8.75977 16.9902 8.75977H11.75ZM3.75 6C3.75 5.31421 4.31421 4.75 5 4.75H9C9.68579 4.75 10.25 5.31421 10.25 6V7.25977H10.2402V8.75977H10.25V19.25H5C4.31421 19.25 3.75 18.6858 3.75 18V6Z" fill="#10181B"/>
<path d="M15.9902 10.9297H13.9902V12.9297H15.9902V10.9297Z" fill="#10181B"/>
<path d="M13.9902 15.0801H15.9902V16.0801H14.9902V17.0801H13.9902V15.0801Z" fill="#10181B"/>
<path d="M19.6802 18.6396V21.3197H18.1802V18.6396H15.5098V17.1396H18.1802V14.4697H19.6802V17.1396H22.3598V18.6396H19.6802Z" fill="#10181B"/>
</svg>
