<svg width="16" height="16" viewBox="0 0 16 16" fill="none" xmlns="http://www.w3.org/2000/svg">
<path fill-rule="evenodd" clip-rule="evenodd" d="M2.25 4.3C2.25 3.17954 3.16205 2.25 4.3 2.25H5.82C6.94045 2.25 7.87 3.16204 7.87 4.3V13.38C7.87 13.7942 7.53422 14.13 7.12 14.13H4.3C3.17955 14.13 2.25 13.218 2.25 12.08V4.3ZM5.71015 4.81006H4.41016V6.11006H5.71015V4.81006ZM5.71015 10.1899H4.41016V11.4899H5.71015V10.1899ZM4.41016 7.49023H5.71015V8.79023H4.41016V7.49023Z" fill="#10181B"/>
<path fill-rule="evenodd" clip-rule="evenodd" d="M8.49023 5.58984C8.49023 5.17563 8.82602 4.83984 9.24023 4.83984H12.0802C13.2182 4.83984 14.1302 5.76938 14.1302 6.88984V12.0798C14.1302 13.2178 13.2007 14.1298 12.0802 14.1298C12.0384 14.1298 11.9974 14.1264 11.9575 14.1198H9.24023C8.82602 14.1198 8.49023 13.7841 8.49023 13.3698V5.58984ZM10.6299 7.49023H11.9299V8.79023H10.6299V7.49023ZM10.6299 10.1899H11.9299V11.4899H10.6299V10.1899Z" fill="#10181B"/>
</svg>
