<svg width="24" height="24" viewBox="0 0 24 24" fill="none" xmlns="http://www.w3.org/2000/svg">
<path d="M14.75 16.3301V18.3301H16.75V16.3301H14.75Z" fill="#10181B"/>
<path d="M6.75 16.3301H8.75V18.3301H6.75V16.3301Z" fill="#10181B"/>
<path d="M6.75 12.1699V14.1699H8.75V12.1699H6.75Z" fill="#10181B"/>
<path d="M10.75 16.3301H12.75V18.3301H10.75V16.3301Z" fill="#10181B"/>
<path d="M12.75 12.1699H10.75V14.1699H12.75V12.1699Z" fill="#10181B"/>
<path d="M10.75 8.04004H12.75V10.04H10.75V8.04004Z" fill="#10181B"/>
<path fill-rule="evenodd" clip-rule="evenodd" d="M11.2626 2.17995C11.5342 1.94771 11.932 1.93939 12.2131 2.16006L16.2131 5.30006C16.3942 5.44224 16.5 5.65974 16.5 5.89V12.5H19.75C20.1642 12.5 20.5 12.8358 20.5 13.25V21.25C20.5 21.6642 20.1642 22 19.75 22H3.75C3.33579 22 3 21.6642 3 21.25V9.04C3 8.62579 3.33579 8.29 3.75 8.29H7V6.17C7 5.95073 7.09595 5.74245 7.26261 5.59996L11.2626 2.17995ZM11.7703 3.71941L8.5 6.51551V9.04C8.5 9.45421 8.16421 9.79 7.75 9.79H4.5V20.5H19V14H15.75C15.3358 14 15 13.6642 15 13.25V6.25473L11.7703 3.71941Z" fill="#10181B"/>
</svg>
