<svg width="16" height="16" viewBox="0 0 16 16" fill="none" xmlns="http://www.w3.org/2000/svg">
<path d="M4.9502 10.1797H6.25019V11.4797H4.9502V10.1797Z" fill="#10181B"/>
<path d="M6.25019 7.49023H4.9502V8.79023H6.25019V7.49023Z" fill="#10181B"/>
<path d="M4.9502 4.81006H6.25019V6.11006H4.9502V4.81006Z" fill="#10181B"/>
<path d="M10.1401 10.1797H11.4401V11.4797H10.1401V10.1797Z" fill="#10181B"/>
<path d="M11.4401 7.49023H10.1401V8.79023H11.4401V7.49023Z" fill="#10181B"/>
<path fill-rule="evenodd" clip-rule="evenodd" d="M8.94 4.3V4.85H12.08C13.2005 4.85 14.13 5.76204 14.13 6.9V12.09C14.13 13.2105 13.218 14.14 12.08 14.14H4.3C3.17954 14.14 2.25 13.228 2.25 12.09V4.3C2.25 3.17954 3.16204 2.25 4.3 2.25H6.89C8.01045 2.25 8.94 3.16204 8.94 4.3ZM3.75 4.3C3.75 4.00046 3.99796 3.75 4.3 3.75H6.89C7.18954 3.75 7.44 3.99796 7.44 4.3V12.64H4.3C4.00046 12.64 3.75 12.392 3.75 12.09V4.3ZM8.94 12.64V6.35H12.08C12.3795 6.35 12.63 6.59796 12.63 6.9V12.09C12.63 12.3895 12.382 12.64 12.08 12.64H8.94Z" fill="#10181B"/>
</svg>
