<svg width="16" height="16" viewBox="0 0 16 16" fill="none" xmlns="http://www.w3.org/2000/svg">
<path fill-rule="evenodd" clip-rule="evenodd" d="M8.65407 1.41081C8.37311 1.18952 7.97498 1.19739 7.70299 1.42963L5.10299 3.64963C4.9361 3.79212 4.84 4.00056 4.84 4.22V5.33H3C2.58579 5.33 2.25 5.66579 2.25 6.08V14C2.25 14.4142 2.58579 14.75 3 14.75H13.38C13.7942 14.75 14.13 14.4142 14.13 14V8.81C14.13 8.39579 13.7942 8.06 13.38 8.06H11.53V4.04C11.53 3.81017 11.4246 3.59303 11.2441 3.45081L8.65407 1.41081ZM11.4299 10.7998H10.1299V12.0998H11.4299V10.7998ZM4.9502 10.7998H6.2502V12.0998H4.9502V10.7998ZM6.2502 8.10986H4.9502V9.40986H6.2502V8.10986ZM7.54004 10.7998H8.84004V12.0998H7.54004V10.7998ZM8.84004 8.10986H7.54004V9.40986H8.84004V8.10986ZM7.54004 5.42969H8.84004V6.72969H7.54004V5.42969Z" fill="#10181B"/>
</svg>
