<svg width="16" height="16" viewBox="0 0 16 16" fill="none" xmlns="http://www.w3.org/2000/svg">
<path d="M11.4299 10.7998H10.1299V12.0998H11.4299V10.7998Z" fill="#10181B"/>
<path d="M4.9502 10.7998H6.2502V12.0998H4.9502V10.7998Z" fill="#10181B"/>
<path d="M6.2502 8.10986H4.9502V9.40986H6.2502V8.10986Z" fill="#10181B"/>
<path d="M7.54004 10.7998H8.84004V12.0998H7.54004V10.7998Z" fill="#10181B"/>
<path d="M8.84004 8.10986H7.54004V9.40986H8.84004V8.10986Z" fill="#10181B"/>
<path d="M7.54004 5.42969H8.84004V6.72969H7.54004V5.42969Z" fill="#10181B"/>
<path fill-rule="evenodd" clip-rule="evenodd" d="M7.70299 1.42963C7.97498 1.19739 8.37311 1.18952 8.65407 1.41081L11.2441 3.45081C11.4246 3.59303 11.53 3.81017 11.53 4.04V8.06H13.38C13.7942 8.06 14.13 8.39579 14.13 8.81V14C14.13 14.4142 13.7942 14.75 13.38 14.75H3C2.58579 14.75 2.25 14.4142 2.25 14V6.08C2.25 5.66579 2.58579 5.33 3 5.33H4.84V4.22C4.84 4.00056 4.93611 3.79212 5.10299 3.64963L7.70299 1.42963ZM8.20919 2.96982L6.34 4.56582V6.08C6.34 6.49421 6.00421 6.83 5.59 6.83H3.75V13.25H12.63V9.56H10.78C10.3658 9.56 10.03 9.22421 10.03 8.81V4.40397L8.20919 2.96982Z" fill="#10181B"/>
</svg>
