<svg width="24" height="24" viewBox="0 0 24 24" fill="none" xmlns="http://www.w3.org/2000/svg">
<path fill-rule="evenodd" clip-rule="evenodd" d="M12.4631 2.41006C12.182 2.18939 11.7842 2.19771 11.5126 2.42996L7.51261 5.84996C7.34595 5.99245 7.25 6.20073 7.25 6.42V8.54H4C3.58579 8.54 3.25 8.87579 3.25 9.29V21.5C3.25 21.9142 3.58579 22.25 4 22.25H20C20.4142 22.25 20.75 21.9142 20.75 21.5V13.5C20.75 13.0858 20.4142 12.75 20 12.75H16.75V6.14C16.75 5.90974 16.6442 5.69224 16.4631 5.55006L12.4631 2.41006ZM17 16.5801H15V18.5801H17V16.5801ZM7 16.5801H9V18.5801H7V16.5801ZM9 12.4199H7V14.4199H9V12.4199ZM11 16.5801H13V18.5801H11V16.5801ZM13 12.4199H11V14.4199H13V12.4199ZM11 8.29004H13V10.29H11V8.29004Z" fill="#10181B"/>
</svg>
