<svg width="24" height="24" viewBox="0 0 24 24" fill="none" xmlns="http://www.w3.org/2000/svg">
<path fill-rule="evenodd" clip-rule="evenodd" d="M3.25 6C3.25 4.48579 4.48579 3.25 6 3.25H8.34C9.85422 3.25 11.09 4.48579 11.09 6V20C11.09 20.4142 10.7542 20.75 10.34 20.75H6C4.48579 20.75 3.25 19.5142 3.25 18V6ZM8.16992 6.79004H6.16992V8.79004H8.16992V6.79004ZM8.16992 15.0801H6.16992V17.0801H8.16992V15.0801ZM6.16992 10.9297H8.16992V12.9297H6.16992V10.9297Z" fill="#10181B"/>
<path fill-rule="evenodd" clip-rule="evenodd" d="M12.8701 8C12.8701 7.58579 13.2059 7.25 13.6201 7.25H18.0001C19.5143 7.25 20.7501 8.48579 20.7501 10V18C20.7501 19.5142 19.5143 20.75 18.0001 20.75H13.6201C13.2059 20.75 12.8701 20.4142 12.8701 20V8ZM15.7598 10.9297H17.7598V12.9297H15.7598V10.9297ZM15.7598 15.0801H17.7598V17.0801H15.7598V15.0801Z" fill="#10181B"/>
</svg>
