<svg width="24" height="24" viewBox="0 0 24 24" fill="none" xmlns="http://www.w3.org/2000/svg">
<g clip-path="url(#clip0_44_41494)">
<path fill-rule="evenodd" clip-rule="evenodd" d="M6.87012 16.7101L9.96012 9.96012L16.7101 6.87012L13.6201 13.6201L6.87012 16.7101ZM11.1001 12.4801C11.4801 12.8601 12.1001 12.8601 12.4801 12.4801C12.8601 12.1001 12.8601 11.4801 12.4801 11.1001C12.1001 10.7201 11.4801 10.7201 11.1001 11.1001C10.7201 11.4801 10.7201 12.1001 11.1001 12.4801Z" fill="#10181B"/>
<path fill-rule="evenodd" clip-rule="evenodd" d="M11.79 2C6.38313 2 2 6.38313 2 11.79C2 17.1969 6.38313 21.58 11.79 21.58C17.1969 21.58 21.58 17.1969 21.58 11.79C21.58 6.38313 17.1969 2 11.79 2ZM3.5 11.79C3.5 7.21156 7.21156 3.5 11.79 3.5C16.3684 3.5 20.08 7.21156 20.08 11.79C20.08 16.3684 16.3684 20.08 11.79 20.08C7.21156 20.08 3.5 16.3684 3.5 11.79Z" fill="#10181B"/>
</g>
<defs>
<clipPath id="clip0_44_41494">
<rect width="19.58" height="19.58" fill="white" transform="translate(2 2)"/>
</clipPath>
</defs>
</svg>
