<svg width="16" height="16" viewBox="0 0 16 16" fill="none" xmlns="http://www.w3.org/2000/svg">
<path d="M10.1501 7.7501C10.1501 9.07558 9.07558 10.1501 7.7501 10.1501C6.42461 10.1501 5.3501 9.07558 5.3501 7.7501C5.3501 6.42461 6.42461 5.3501 7.7501 5.3501C9.07558 5.3501 10.1501 6.42461 10.1501 7.7501Z" fill="#10181B"/>
<path fill-rule="evenodd" clip-rule="evenodd" d="M8.5 2.73528C10.6996 3.06146 12.4386 4.8004 12.7648 7H13.7501V8.5H12.7649C12.4388 10.6998 10.6997 12.4389 8.5 12.7651V13.7498H7V12.7651C4.8002 12.4389 3.0611 10.6998 2.73499 8.5H1.75V7H2.73505C3.06129 4.80035 4.80032 3.06139 7 2.73525V1.75H8.5V2.73528ZM4.17993 7.75018C4.17993 5.77852 5.77827 4.18018 7.74993 4.18018C9.72159 4.18018 11.3199 5.77852 11.3199 7.75018C11.3199 9.72183 9.72159 11.3202 7.74993 11.3202C5.77827 11.3202 4.17993 9.72183 4.17993 7.75018Z" fill="#10181B"/>
</svg>
