<svg width="16" height="16" viewBox="0 0 16 16" fill="none" xmlns="http://www.w3.org/2000/svg">
<g clip-path="url(#clip0_44_41501)">
<path fill-rule="evenodd" clip-rule="evenodd" d="M4.47998 11.02L5.75998 5.74998L11.01 4.47998L9.75998 9.74998L4.47998 11.02ZM6.91998 8.56998C7.36998 9.01998 8.11998 9.01998 8.56998 8.56998C9.01998 8.11998 9.01998 7.36998 8.56998 6.91998C8.11998 6.46998 7.36998 6.46998 6.91998 6.91998C6.46998 7.36998 6.46998 8.11998 6.91998 8.56998Z" fill="#10181B"/>
<path fill-rule="evenodd" clip-rule="evenodd" d="M7.75 1C4.02208 1 1 4.02208 1 7.75C1 11.4779 4.02208 14.5 7.75 14.5C11.4779 14.5 14.5 11.4779 14.5 7.75C14.5 4.02208 11.4779 1 7.75 1ZM2.5 7.75C2.5 4.85051 4.85051 2.5 7.75 2.5C10.6495 2.5 13 4.85051 13 7.75C13 10.6495 10.6495 13 7.75 13C4.85051 13 2.5 10.6495 2.5 7.75Z" fill="#10181B"/>
</g>
<defs>
<clipPath id="clip0_44_41501">
<rect width="13.5" height="13.5" fill="white" transform="translate(1 1)"/>
</clipPath>
</defs>
</svg>
