<svg width="24" height="24" viewBox="0 0 24 24" fill="none" xmlns="http://www.w3.org/2000/svg">
<path d="M15.75 11.75C15.75 13.9591 13.9591 15.75 11.75 15.75C9.54086 15.75 7.75 13.9591 7.75 11.75C7.75 9.54086 9.54086 7.75 11.75 7.75C13.9591 7.75 15.75 9.54086 15.75 11.75Z" fill="#10181B"/>
<path fill-rule="evenodd" clip-rule="evenodd" d="M12.5 3.83471V1H11V3.83472C7.20791 4.18958 4.18968 7.20788 3.83494 11H1V12.5H3.83498C4.18989 16.2919 7.20804 19.31 11 19.6649V22.5002H12.5V19.6649C16.292 19.3101 19.3102 16.292 19.6651 12.5H22.5V11H19.6652C19.3104 7.20785 16.2921 4.18953 12.5 3.83471ZM11.6993 5.3H11.8008C15.3277 5.32718 18.1807 8.18506 18.2 11.7138V11.7858C18.1806 15.3315 15.3003 18.1998 11.75 18.1998C8.18781 18.1998 5.30005 15.312 5.30005 11.7498C5.30005 8.2045 8.16042 5.32727 11.6993 5.3Z" fill="#10181B"/>
</svg>
