<svg width="16" height="16" viewBox="0 0 16 16" fill="none" xmlns="http://www.w3.org/2000/svg">
<path fill-rule="evenodd" clip-rule="evenodd" d="M8 15C11.866 15 15 11.866 15 8C15 4.13401 11.866 1 8 1C4.13401 1 1 4.13401 1 8C1 11.866 4.13401 15 8 15ZM5.87427 12.4798C5.95613 12.7254 6.04742 12.9608 6.14888 13.1807C4.91421 12.7395 3.88338 11.8695 3.2358 10.75H5.46153C5.56522 11.3869 5.7046 11.9708 5.87427 12.4798ZM5.29168 9.25H2.64267C2.54934 8.84843 2.5 8.42998 2.5 8C2.5 7.57002 2.54934 7.15157 2.64267 6.75H5.29168C5.26424 7.15579 5.25 7.57384 5.25 8C5.25 8.42616 5.26424 8.84421 5.29168 9.25ZM5.46153 5.25H3.2358C3.88338 4.13053 4.91421 3.26049 6.14887 2.81928C6.04741 3.0392 5.95613 3.27463 5.87427 3.52019C5.7046 4.02921 5.56522 4.61306 5.46153 5.25ZM6.79542 6.75C6.76582 7.15018 6.75 7.56844 6.75 8C6.75 8.43156 6.76582 8.84982 6.79542 9.25H9.20458C9.23418 8.84982 9.25 8.43156 9.25 8C9.25 7.56844 9.23418 7.15018 9.20458 6.75H6.79542ZM9.0163 5.25H6.9837C7.06943 4.78188 7.17569 4.35934 7.2973 3.99453C7.4637 3.49531 7.64532 3.14542 7.81057 2.93574C7.90711 2.81324 7.97141 2.76975 8 2.75516C8.02859 2.76975 8.09289 2.81324 8.18943 2.93574C8.35468 3.14542 8.5363 3.49531 8.7027 3.99453C8.82431 4.35934 8.93057 4.78188 9.0163 5.25ZM10.7083 6.75C10.7358 7.15579 10.75 7.57384 10.75 8C10.75 8.42616 10.7358 8.84421 10.7083 9.25H13.3573C13.4507 8.84843 13.5 8.42998 13.5 8C13.5 7.57002 13.4507 7.15157 13.3573 6.75H10.7083ZM12.7642 5.25H10.5385C10.4348 4.61306 10.2954 4.02921 10.1257 3.52019C10.0439 3.27463 9.95259 3.0392 9.85113 2.81928C11.0858 3.26049 12.1166 4.13053 12.7642 5.25ZM7.2973 12.0055C7.17569 11.6407 7.06943 11.2181 6.9837 10.75H9.0163C8.93057 11.2181 8.82431 11.6407 8.7027 12.0055C8.5363 12.5047 8.35468 12.8546 8.18943 13.0643C8.09289 13.1868 8.02859 13.2303 8 13.2448C7.97141 13.2303 7.90711 13.1868 7.81057 13.0643C7.64532 12.8546 7.4637 12.5047 7.2973 12.0055ZM10.1257 12.4798C10.2954 11.9708 10.4348 11.3869 10.5385 10.75H12.7642C12.1166 11.8695 11.0858 12.7395 9.85113 13.1807C9.95259 12.9608 10.0439 12.7254 10.1257 12.4798Z" fill="#10181B"/>
</svg>
