<svg width="24" height="24" viewBox="0 0 24 24" fill="none" xmlns="http://www.w3.org/2000/svg">
<path fill-rule="evenodd" clip-rule="evenodd" d="M22 12C22 17.5228 17.5228 22 12 22C6.47715 22 2 17.5228 2 12C2 6.47715 6.47715 2 12 2C17.5228 2 22 6.47715 22 12ZM11.25 20.1112V15.75H8.2289C8.4586 16.596 8.76214 17.3554 9.12008 17.9997C9.75366 19.1402 10.5011 19.8344 11.25 20.1112ZM12.75 15.75V20.1112C13.4989 19.8344 14.2463 19.1402 14.8799 17.9997C15.2379 17.3554 15.5414 16.596 15.7711 15.75H12.75ZM12.75 14.25L12.75 9.75H16.0845C16.1919 10.4632 16.25 11.2174 16.25 12C16.25 12.7826 16.1919 13.5368 16.0845 14.25H12.75ZM11.25 8.25V3.88876C10.5011 4.16558 9.75366 4.85983 9.12008 6.00027C8.76214 6.64457 8.4586 7.40403 8.2289 8.25H11.25ZM12.75 8.25H15.7711C15.5414 7.40403 15.2379 6.64457 14.8799 6.00027C14.2463 4.85983 13.4989 4.16558 12.75 3.88876V8.25ZM11.25 14.25L11.25 9.75H7.91553C7.80806 10.4632 7.75 11.2174 7.75 12C7.75 12.7826 7.80806 13.5368 7.91553 14.25H11.25ZM17.75 12C17.75 11.2278 17.6983 10.4742 17.5997 9.75H20.199C20.3952 10.4666 20.5 11.2211 20.5 12C20.5 12.7789 20.3952 13.5334 20.199 14.25H17.5997C17.6983 13.5258 17.75 12.7722 17.75 12ZM17.3193 8.25H19.6302C18.7673 6.4975 17.3183 5.08545 15.5391 4.26957C15.776 4.58009 15.9938 4.91657 16.1912 5.27181C16.6692 6.13226 17.0524 7.14107 17.3193 8.25ZM4.36981 8.25H6.6807C6.94757 7.14107 7.33082 6.13226 7.80885 5.27181C8.0062 4.91657 8.224 4.58008 8.46086 4.26957C6.68166 5.08545 5.23274 6.4975 4.36981 8.25ZM6.40029 9.75H3.80098C3.60477 10.4666 3.5 11.2211 3.5 12C3.5 12.7789 3.60477 13.5334 3.80098 14.25H6.40029C6.30173 13.5258 6.25 12.7722 6.25 12C6.25 11.2278 6.30173 10.4742 6.40029 9.75ZM17.3193 15.75C17.0524 16.8589 16.6692 17.8677 16.1912 18.7282C15.9938 19.0834 15.776 19.4199 15.5391 19.7304C17.3183 18.9145 18.7673 17.5025 19.6302 15.75H17.3193ZM4.36981 15.75C5.23274 17.5025 6.68166 18.9145 8.46086 19.7304C8.224 19.4199 8.0062 19.0834 7.80885 18.7282C7.33082 17.8677 6.94757 16.8589 6.6807 15.75H4.36981Z" fill="#10181B"/>
</svg>
