<svg width="16" height="16" viewBox="0 0 16 16" fill="none" xmlns="http://www.w3.org/2000/svg">
<path fill-rule="evenodd" clip-rule="evenodd" d="M10.4377 15C10.4359 14.8836 10.326 14.8198 10.2882 14.5293C10.2521 13.9798 9.39255 13.2097 9.1682 13.2474C8.94386 13.285 8.86186 13.2981 8.87087 13.2334C8.87988 13.1686 8.97539 12.8169 8.52489 12.8414C8.07439 12.8659 7.87436 12.7364 7.68966 12.4336C7.50495 12.1309 7.2752 12.3846 7.15807 12.2761C7.04094 12.1676 6.6499 12.1886 6.37239 12.2096C6.09488 12.2306 6.1093 11.9585 6.12462 11.8596C6.13993 11.7607 6.02551 11.7485 6.07957 11.5472C6.13363 11.346 6.11831 11.1491 6.04353 11.1447C5.96874 11.1404 5.74169 11.1535 5.8408 10.9698C5.93991 10.786 5.59573 10.6128 5.54347 10.5515C5.49121 10.4903 5.26146 10.3275 5.22452 10.163C5.18758 9.9985 5.06594 10.0956 5.00828 9.82613C4.95061 9.55663 4.67671 9.65113 4.63886 9.42013C4.60102 9.18913 4.36496 9.06837 4.6749 9.04737C4.98485 9.02637 4.50191 8.525 4.26044 8.31675C4.01897 8.1085 4.1316 8.00438 4.00996 7.6605C3.88833 7.31663 3.90184 7.29475 4.09376 7.52663C4.28567 7.7585 3.80544 7.04888 3.51712 6.85288C3.2288 6.65688 3.62524 6.76537 3.57388 6.69537C3.52252 6.62537 3.43332 6.48975 3.4117 6.40225C3.39007 6.31475 3.22249 6.1695 3.22249 6.1695C2.97922 5.99975 3.31799 6.22637 2.86209 5.75562C2.40618 5.28487 2.81974 5.45113 2.72153 5.25863C2.52331 4.8955 2.61701 4.71613 2.61701 4.71613C2.86209 4.30663 2.26202 3.70725 2.11876 3.57862C1.9755 3.45 2.02866 3.33013 2.00163 3.23913C1.9746 3.14813 2.29175 2.62925 2.36203 2.45863C2.43231 2.288 2.29626 2.29412 2.3323 2.2425C2.54854 1.8225 2.41068 1.546 2.39176 1.39725C2.37284 1.2485 2.23589 1.42 2.28004 1.315C2.32419 1.21 2.34942 1 2.34942 1L6.99138 1.1925L6.94633 5.536L13.3822 11.3547C13.3822 11.3547 13.3462 11.5122 13.393 11.5472C13.4399 11.5822 13.4381 11.6785 13.5678 11.7441C13.6975 11.8098 13.584 11.9629 13.712 12.0836C13.8399 12.2044 13.9597 12.27 13.9823 12.3059C14.0048 12.3417 14.0327 12.4424 13.8786 12.5334C13.7246 12.6244 13.6228 12.5728 13.6624 12.7303C13.7021 12.8878 13.5858 12.9682 13.575 13.1152C13.5642 13.2622 13.5705 13.6437 13.4056 13.6516C13.2407 13.6595 13.3588 13.838 13.3786 13.8529C13.3984 13.8677 13.4308 14.0226 13.3696 14.1259C13.3083 14.2291 13.4417 14.2274 13.5047 14.2169C13.5678 14.2064 13.6489 14.2221 13.6597 14.293C13.6705 14.3639 13.7228 14.5292 13.6147 14.5905C13.5065 14.6517 13.3822 14.6658 13.3822 14.6658L10.4377 15Z" fill="#10181B"/>
</svg>
