<svg width="24" height="24" viewBox="0 0 24 24" fill="none" xmlns="http://www.w3.org/2000/svg">
<path fill-rule="evenodd" clip-rule="evenodd" d="M14.9534 22C14.9509 21.8337 14.7952 21.7425 14.7415 21.3275C14.6905 20.5425 13.4728 19.4425 13.155 19.4963C12.8371 19.55 12.721 19.5687 12.7337 19.4762C12.7465 19.3837 12.8818 18.8813 12.2436 18.9163C11.6054 18.9513 11.322 18.7662 11.0604 18.3337C10.7987 17.9012 10.4732 18.2637 10.3073 18.1087C10.1413 17.9537 9.58736 17.9838 9.19422 18.0138C8.80109 18.0438 8.82151 17.655 8.84321 17.5138C8.86491 17.3725 8.7028 17.355 8.77939 17.0675C8.85597 16.78 8.83427 16.4988 8.72833 16.4925C8.62239 16.4863 8.30073 16.505 8.44114 16.2425C8.58154 15.98 8.09395 15.7325 8.01992 15.645C7.94589 15.5575 7.6204 15.325 7.56806 15.09C7.51573 14.855 7.34341 14.9937 7.26172 14.6087C7.18003 14.2237 6.792 14.3588 6.73839 14.0288C6.68478 13.6988 6.35036 13.5262 6.78945 13.4962C7.22854 13.4662 6.54438 12.75 6.2023 12.4525C5.86021 12.155 6.01977 12.0063 5.84745 11.515C5.67513 11.0238 5.69428 10.9925 5.96616 11.3238C6.23803 11.655 5.5577 10.6412 5.14925 10.3612C4.74079 10.0812 5.30242 10.2362 5.22966 10.1362C5.15691 10.0362 5.03054 9.8425 4.99991 9.7175C4.96927 9.5925 4.73186 9.385 4.73186 9.385C4.38722 9.1425 4.86716 9.46625 4.22129 8.79375C3.57542 8.12125 4.1613 8.35875 4.02217 8.08375C3.74136 7.565 3.8741 7.30875 3.8741 7.30875C4.22129 6.72375 3.37119 5.8675 3.16824 5.68375C2.96529 5.5 3.0406 5.32875 3.00231 5.19875C2.96402 5.06875 3.41332 4.3275 3.51288 4.08375C3.61244 3.84 3.4197 3.84875 3.47076 3.775C3.7771 3.175 3.5818 2.78 3.555 2.5675C3.52819 2.355 3.33418 2.6 3.39672 2.45C3.45927 2.3 3.49501 2 3.49501 2L10.0711 2.275L10.0073 8.48L19.1248 16.7925C19.1248 16.7925 19.0737 17.0175 19.1401 17.0675C19.2065 17.1175 19.2039 17.255 19.3877 17.3488C19.5715 17.4425 19.4107 17.6612 19.5919 17.8337C19.7732 18.0062 19.943 18.1 19.9749 18.1512C20.0068 18.2025 20.0464 18.3462 19.8281 18.4762C19.6098 18.6062 19.4656 18.5325 19.5217 18.7575C19.5779 18.9825 19.4132 19.0975 19.3979 19.3075C19.3826 19.5175 19.3915 20.0625 19.158 20.0737C18.9244 20.085 19.0916 20.34 19.1197 20.3612C19.1478 20.3825 19.1937 20.6038 19.1069 20.7513C19.0201 20.8988 19.209 20.8962 19.2984 20.8812C19.3877 20.8662 19.5026 20.8887 19.5179 20.99C19.5332 21.0912 19.6073 21.3275 19.4541 21.415C19.3009 21.5025 19.1248 21.5225 19.1248 21.5225L14.9534 22Z" fill="#10181B"/>
</svg>
