<svg width="16" height="16" viewBox="0 0 16 16" fill="none" xmlns="http://www.w3.org/2000/svg">
<path fill-rule="evenodd" clip-rule="evenodd" d="M4.3797 5.62835C4.91112 3.94882 6.4838 2.72949 8.33928 2.72949C10.4922 2.72949 12.2675 4.37958 12.4788 6.47591H12.4997L12.4997 6.86179C12.4998 6.87308 12.4998 6.88437 12.4998 6.89568V7.05834C13.8642 7.25919 14.9061 8.43593 14.9061 9.84913C14.9061 11.4039 13.6398 12.6702 12.085 12.6702H4.79139C2.83441 12.6702 1.25 11.0858 1.25 9.12877C1.25 7.30195 2.58173 5.80088 4.3797 5.62835ZM5.71875 6.46979C5.91507 5.20309 7.01572 4.22949 8.33928 4.22949C9.79338 4.22949 10.985 5.41461 10.9997 6.86863V7.22155C10.9996 7.22155 10.9996 7.22217 10.9995 7.22348C10.9991 7.22845 10.9979 7.24312 10.9944 7.26956C10.9894 7.30777 10.9819 7.35452 10.9727 7.40465C10.9636 7.45426 10.9536 7.5027 10.9445 7.54325C10.94 7.56345 10.936 7.58051 10.9327 7.59388L10.9286 7.60954L10.9273 7.61462L10.5706 8.8276L11.8061 8.559C11.8966 8.53933 11.9932 8.5281 12.085 8.5281C12.816 8.5281 13.4061 9.12136 13.4061 9.84913C13.4061 10.5755 12.8114 11.1702 12.085 11.1702H4.79139C3.66284 11.1702 2.75 10.2573 2.75 9.12877C2.75 7.98589 3.61276 7.11182 4.72714 7.11182C4.77358 7.11182 4.83673 7.11449 4.87732 7.11818L5.18701 7.14634L5.60389 7.21094L5.60797 7.1846L5.62424 7.18608L5.64765 6.92857L5.71875 6.46979Z" fill="#10181B"/>
</svg>
