<svg width="16" height="16" viewBox="0 0 16 16" fill="none" xmlns="http://www.w3.org/2000/svg">
<path d="M8.25017 4.75C6.97964 4.75 5.92655 5.64481 5.68999 6.83916V7.56982H5.57428L5.55621 7.6862L4.80675 7.56982H4.75C3.64421 7.56982 2.75 8.46404 2.75 9.56982C2.75 10.6756 3.64421 11.5698 4.75 11.5698H11.94C12.6482 11.5698 13.23 10.9932 13.23 10.2798C13.23 9.96606 13.122 9.68497 12.9425 9.46834L12.464 8.89082L13.619 7.9338L14.0975 8.51131C14.498 8.99469 14.73 9.61358 14.73 10.2798C14.73 11.8264 13.4718 13.0698 11.94 13.0698H4.75C2.81579 13.0698 1.25 11.504 1.25 9.56982C1.25 7.77577 2.59708 6.29869 4.33577 6.09404C4.86709 4.43718 6.41953 3.25 8.25017 3.25C9.03922 3.25 9.78769 3.46872 10.4188 3.8647L11.0541 4.26332L10.2568 5.53392L9.62155 5.1353C9.23265 4.89128 8.76112 4.75 8.25017 4.75Z" fill="#10181B"/>
<path d="M9.08013 10.6204L15.0408 4.65978L13.9801 3.59912L9.08013 8.49912L7.27013 6.68912L6.20947 7.74978L9.08013 10.6204Z" fill="#10181B"/>
</svg>
