<svg width="16" height="16" viewBox="0 0 16 16" fill="none" xmlns="http://www.w3.org/2000/svg">
<path d="M4.92881 5.39825C5.66606 3.55234 7.47529 2.25 9.58007 2.25C12.3431 2.25 14.5901 4.48464 14.5901 7.26C14.5901 9.07842 13.6828 10.5194 12.5887 11.3317L11.9865 11.7788L11.0923 10.5744L11.6945 10.1273C12.4426 9.57191 13.0901 8.56159 13.0901 7.26C13.0901 5.31536 11.517 3.75 9.58007 3.75C7.94101 3.75 6.55634 4.87903 6.17791 6.40098L5.99693 7.12881L5.90831 7.10678L5.89624 7.15105L5.17266 6.95371C5.01753 6.9114 4.86392 6.89014 4.69 6.89014C3.61603 6.89014 2.75 7.76254 2.75 8.83014C2.75 9.75594 3.36166 10.3578 3.86091 10.5427L4.56422 10.8032L4.04325 12.2098L3.33994 11.9493C2.33192 11.576 1.25 10.4643 1.25 8.83014C1.25 6.93774 2.78397 5.39014 4.69 5.39014C4.77087 5.39014 4.85036 5.39284 4.92881 5.39825Z" fill="#10181B"/>
<path d="M8.66992 11.0275H10.8335L7.91996 14.1865L5.00643 11.0275H7.16992V7.43713H8.66992V11.0275Z" fill="#10181B"/>
</svg>
