<svg width="24" height="24" viewBox="0 0 24 24" fill="none" xmlns="http://www.w3.org/2000/svg">
<path fill-rule="evenodd" clip-rule="evenodd" d="M6.34703 9.0542C7.06204 6.29313 9.57451 4.25 12.56 4.25C16.0387 4.25 18.8819 7.03946 18.9883 10.4902H18.9913V10.6626C18.9914 10.672 18.9914 10.6814 18.9914 10.6908V11.4144C21.2276 11.5145 23 13.3611 23 15.6101C23 17.9243 21.1142 19.8101 18.8 19.8101H6.65C3.66579 19.8101 1.25 17.3943 1.25 14.4101C1.25 11.5052 3.44519 9.1557 6.34703 9.0542ZM7.70117 9.90486C8.06536 7.55497 10.1053 5.75 12.56 5.75C15.266 5.75 17.478 7.95994 17.4913 10.6661V11.2402C17.4913 11.287 17.4746 11.4302 17.4381 11.6283C17.4039 11.8147 17.3665 11.9739 17.3505 12.0285L16.9938 13.2415L18.2293 12.973C18.4117 12.9333 18.6082 12.9101 18.8 12.9101C20.2944 12.9101 21.5 14.1229 21.5 15.6101C21.5 17.0959 20.2858 18.3101 18.8 18.3101H6.65C4.49421 18.3101 2.75 16.5659 2.75 14.4101C2.75 12.24 4.40136 10.5508 6.54297 10.5508C6.63337 10.5508 6.75379 10.5557 6.83835 10.5634L7.35869 10.6107L7.58631 10.646L7.70117 9.90486Z" fill="#10181B"/>
</svg>
