<svg width="24" height="24" viewBox="0 0 24 24" fill="none" xmlns="http://www.w3.org/2000/svg">
<path d="M12.6501 5.41992C10.2767 5.41992 8.29096 7.10737 7.83289 9.34326L7.74912 10.2648L7.68523 10.259L7.6764 10.3159L6.86709 10.1905C6.83338 10.19 6.79546 10.1899 6.7501 10.1899C4.59431 10.1899 2.8501 11.9342 2.8501 14.0899C2.8501 16.2457 4.59431 17.9899 6.7501 17.9899H18.9001C20.3873 17.9899 21.6001 16.7843 21.6001 15.2899C21.6001 14.2769 21.0309 13.3815 20.188 12.9167L19.5312 12.5546L20.2555 11.241L20.9122 11.6032C22.2093 12.3184 23.1001 13.703 23.1001 15.2899C23.1001 17.6156 21.2129 19.4899 18.9001 19.4899H6.7501C3.76589 19.4899 1.3501 17.0742 1.3501 14.0899C1.3501 11.2085 3.60232 8.85705 6.44382 8.69847C7.16771 5.95041 9.67385 3.91992 12.6501 3.91992C14.2781 3.91992 15.7629 4.52015 16.8956 5.51689L17.4586 6.01236L16.4677 7.13843L15.9046 6.64296C15.0373 5.87969 13.9021 5.41992 12.6501 5.41992Z" fill="#10181B"/>
<path d="M12.7908 16.0096L22.3507 6.44982L21.29 5.38916L12.7892 13.89L9.63832 10.7492L8.57935 11.8115L12.7908 16.0096Z" fill="#10181B"/>
</svg>
