<svg width="16" height="16" viewBox="0 0 16 16" fill="none" xmlns="http://www.w3.org/2000/svg">
<path fill-rule="evenodd" clip-rule="evenodd" d="M3.92537 12.1818L4.45776 12.3016V15.3521H11.5421V11.9247L12.1321 11.5754C13.6018 10.7054 14.5901 9.09469 14.5901 7.26C14.5901 4.48464 12.3431 2.25 9.58007 2.25C7.47529 2.25 5.66606 3.55234 4.92881 5.39825C4.85036 5.39284 4.77087 5.39014 4.69 5.39014C2.78397 5.39014 1.25 6.93774 1.25 8.83014C1.25 10.4668 2.38892 11.8361 3.92537 12.1818ZM5.90831 7.10678L5.89624 7.15105L5.17266 6.95371C5.01753 6.9114 4.86392 6.89014 4.69 6.89014C3.61603 6.89014 2.75 7.76254 2.75 8.83014C2.75 9.75347 3.39108 10.5241 4.25463 10.7184L4.45776 10.7641V7.64795H11.5421V10.1745C12.4755 9.54445 13.0901 8.47153 13.0901 7.26C13.0901 5.31536 11.517 3.75 9.58007 3.75C7.94101 3.75 6.55634 4.87903 6.17791 6.40098L5.99693 7.12881L5.90831 7.10678ZM10.0421 9.14795H5.95776V10.6128H10.0421V9.14795ZM10.0421 12.1128H5.95776V13.8521H10.0421V12.1128Z" fill="#10181B"/>
</svg>
