<svg width="16" height="16" viewBox="0 0 16 16" fill="none" xmlns="http://www.w3.org/2000/svg">
<path d="M4.92881 5.39825C5.66606 3.55234 7.47529 2.25 9.58007 2.25C12.3431 2.25 14.5901 4.48464 14.5901 7.26C14.5901 9.09469 13.6018 10.7054 12.1321 11.5754L11.4868 11.9575L10.7226 10.6667L11.368 10.2846C12.3984 9.67463 13.0901 8.54532 13.0901 7.26C13.0901 5.31536 11.517 3.75 9.58007 3.75C7.94101 3.75 6.55634 4.87903 6.17791 6.40098L5.99693 7.12881L5.90831 7.10678L5.89624 7.15105L5.17266 6.95371C5.01753 6.9114 4.86392 6.89014 4.69 6.89014C3.61603 6.89014 2.75 7.76254 2.75 8.83014C2.75 9.75347 3.39108 10.5241 4.25463 10.7184L4.98634 10.8831L4.65707 12.3465L3.92537 12.1818C2.38892 11.8361 1.25 10.4668 1.25 8.83014C1.25 6.93774 2.78397 5.39014 4.69 5.39014C4.77087 5.39014 4.85036 5.39284 4.92881 5.39825Z" fill="#10181B"/>
<path d="M10.8337 10.2396L7.92012 7.08057L5.00659 10.2396H7.16992V13.83H8.66992V10.2396H10.8337Z" fill="#10181B"/>
</svg>
