<svg width="24" height="24" viewBox="0 0 24 24" fill="none" xmlns="http://www.w3.org/2000/svg">
<path d="M15.2701 4.85152C14.446 4.4657 13.5276 4.24989 12.56 4.24989C9.57451 4.24989 7.06204 6.29302 6.34703 9.05409C3.44519 9.15559 1.25 11.5051 1.25 14.41C1.25 15.6627 1.67573 16.8153 2.39053 17.7311L3.46243 16.6592C3.01357 16.0238 2.75 15.248 2.75 14.41C2.75 12.2399 4.40136 10.5507 6.54297 10.5507C6.63337 10.5507 6.75379 10.5556 6.83835 10.5633L7.35869 10.6106L7.58631 10.6459L7.70117 9.90475C8.06536 7.55486 10.1053 5.74989 12.56 5.74989C13.1039 5.74989 13.6277 5.83915 14.1178 6.00376L15.2701 4.85152Z" fill="#10181B"/>
<path fill-rule="evenodd" clip-rule="evenodd" d="M2.7002 19.5093L2.45947 19.75L3.52013 20.8107L4.8335 19.4973C5.40106 19.6997 6.01256 19.81 6.65 19.81H18.8C21.1142 19.81 23 17.9242 23 15.61C23 13.361 21.2276 11.5144 18.9914 11.4142V10.6907L18.9913 10.6625V10.4901H18.9883C18.9445 9.07097 18.4379 7.76367 17.6145 6.71625L20.3308 4L19.2868 2.95605L2.71691 19.526L2.7002 19.5093ZM16.544 7.78682L6.0644 18.2664C6.25539 18.2951 6.45094 18.31 6.65 18.31H18.8C20.2858 18.31 21.5 17.0957 21.5 15.61C21.5 14.1228 20.2944 12.91 18.8 12.91C18.6082 12.91 18.4117 12.9332 18.2293 12.9728L16.9938 13.2414L17.3505 12.0284C17.3665 11.9738 17.4039 11.8146 17.4381 11.6282C17.4746 11.4301 17.4913 11.2869 17.4913 11.2401V10.666C17.486 9.59254 17.1348 8.59716 16.544 7.78682Z" fill="#10181B"/>
</svg>
