<svg width="16" height="16" viewBox="0 0 16 16" fill="none" xmlns="http://www.w3.org/2000/svg">
<path fill-rule="evenodd" clip-rule="evenodd" d="M2.54967 12.8297L12.9457 2.43371L12.9409 2.42895L13.0603 2.30957L14.121 3.37023L12.1843 5.30687C12.3363 5.67351 12.4374 6.06618 12.4787 6.47591H12.4997L12.4997 6.86228L12.4998 6.89616V7.05834C13.8642 7.25919 14.9061 8.43593 14.9061 9.84913C14.9061 11.4039 13.6398 12.6702 12.085 12.6702H4.82103L3.60558 13.8856L2.54967 12.8297ZM10.973 6.51823L6.32103 11.1702H12.085C12.8114 11.1702 13.4061 10.5755 13.4061 9.84913C13.4061 9.12136 12.816 8.5281 12.085 8.5281C11.9932 8.5281 11.8966 8.53933 11.8061 8.559L10.5706 8.8276L10.9272 7.61464L10.9286 7.60954L10.9327 7.59388C10.936 7.58051 10.94 7.56345 10.9445 7.54325C10.9536 7.5027 10.9636 7.45426 10.9727 7.40465C10.9819 7.35452 10.9894 7.30777 10.9944 7.26956C10.9979 7.24312 10.9991 7.22845 10.9995 7.22348L10.9997 7.22153L10.9997 6.86911C10.9985 6.75019 10.9894 6.63306 10.973 6.51823Z" fill="#10181B"/>
<path d="M1.97764 11.2804C1.52115 10.6842 1.25 9.93834 1.25 9.12877C1.25 7.3019 2.58181 5.80079 4.37986 5.62834C4.91144 3.94907 6.48398 2.72998 8.33928 2.72998C8.97775 2.72998 9.58301 2.8751 10.1241 3.13394L8.95541 4.30264C8.75749 4.25515 8.55117 4.22998 8.33928 4.22998C7.01572 4.22998 5.91507 5.20358 5.71875 6.47028L5.64754 6.92975L5.62424 7.18608L5.60804 7.18461L5.60389 7.21143L5.17939 7.14564L4.87732 7.11818C4.83673 7.11449 4.77358 7.11182 4.72714 7.11182C3.61276 7.11182 2.75 7.98589 2.75 9.12877C2.75 9.52322 2.86151 9.89131 3.05477 10.2033L1.97764 11.2804Z" fill="#10181B"/>
</svg>
