<svg width="24" height="24" viewBox="0 0 24 24" fill="none" xmlns="http://www.w3.org/2000/svg">
<path d="M7.26019 8.61697C8.33402 5.49471 11.2991 3.25 14.7898 3.25C19.184 3.25 22.7498 6.81579 22.7498 11.21C22.7498 14.7657 20.4195 17.7795 17.1952 18.7953L16.4799 19.0207L16.0291 17.59L16.7444 17.3647C19.3601 16.5405 21.2498 14.0943 21.2498 11.21C21.2498 7.64421 18.3556 4.75 14.7898 4.75C11.7708 4.75 9.23451 6.81938 8.52688 9.61409L8.34278 10.3411L8.25302 10.3184L8.24149 10.3658L7.51273 10.1886C7.19572 10.1115 6.8753 10.0698 6.55 10.0698C4.45421 10.0698 2.75 11.774 2.75 13.8698C2.75 15.9656 4.45421 17.6698 6.55 17.6698H7.3V19.1698H6.55C3.62579 19.1698 1.25 16.794 1.25 13.8698C1.25 10.9456 3.62579 8.56982 6.55 8.56982C6.79105 8.56982 7.02786 8.58623 7.26019 8.61697Z" fill="#10181B"/>
<path d="M16.0599 15.1107L11.99 10.7163L7.92017 15.1107L9.02068 16.1299L11.24 13.7337V20.1599L12.74 20.1599V13.7336L14.9594 16.1299L16.0599 15.1107Z" fill="#10181B"/>
</svg>
