<svg width="16" height="16" viewBox="0 0 16 16" fill="none" xmlns="http://www.w3.org/2000/svg">
<path fill-rule="evenodd" clip-rule="evenodd" d="M14.8536 3.76203C11.2609 1.60061 7.65695 1.43074 4.42832 3.23561C2.58127 4.26014 1.28282 5.95707 1.0422 7.70001C0.883832 8.78735 1.1752 9.89239 1.84892 10.7559C2.85513 8.8661 4.38808 7.31692 6.25876 6.303C6.28978 6.283 6.32439 6.26938 6.36062 6.26292C6.39684 6.25645 6.43398 6.25727 6.46989 6.26532C6.50581 6.27337 6.5398 6.2885 6.56993 6.30984C6.60006 6.33119 6.62574 6.35833 6.64549 6.38971C6.66527 6.42107 6.67874 6.45607 6.68514 6.49271C6.69153 6.52934 6.69072 6.56689 6.68276 6.6032C6.6748 6.63952 6.65983 6.67389 6.63873 6.70436C6.61762 6.73483 6.59078 6.76079 6.55974 6.78076C6.551 6.78607 6.54225 6.79138 6.5335 6.7958C2.87788 8.85371 1.68618 11.9503 1.00895 14.7169C1.00895 14.7788 1.0282 14.8381 1.06495 14.8868C1.1717 15.0221 1.35631 14.9947 1.69755 15H2.30128C2.91113 15 2.91726 14.9602 2.95575 14.7611C3.12462 13.9082 3.38799 13.0766 3.73885 12.2838C6.45825 13.4959 10.1909 11.7176 11.7536 9.81542C12.3761 9.00145 12.8412 8.07606 13.1246 7.08777C13.5052 6.02608 13.8683 5.01748 14.8763 4.25837C14.9144 4.23246 14.9456 4.19749 14.9672 4.15653C14.9887 4.11557 15 4.06988 15 4.02347C15 3.97707 14.9887 3.93137 14.9672 3.89041C14.9456 3.84945 14.9144 3.81448 14.8763 3.78857L14.8536 3.76026V3.76203Z" fill="#10181B"/>
</svg>
