<svg width="24" height="24" viewBox="0 0 24 24" fill="none" xmlns="http://www.w3.org/2000/svg">
<path fill-rule="evenodd" clip-rule="evenodd" d="M2.25 12C2.25 6.61522 6.61522 2.25 12 2.25C17.3848 2.25 21.75 6.61522 21.75 12C21.75 17.3848 17.3848 21.75 12 21.75C6.61522 21.75 2.25 17.3848 2.25 12ZM13.0799 15.6799L5.12988 10.3199L10.2399 11.7299C10.4299 11.7799 10.6199 11.6399 10.6199 11.4399V8.55991C10.6199 8.30991 10.8899 8.16991 11.0899 8.30991L18.9399 13.6699L13.9299 12.2899C13.7399 12.2399 13.5499 12.3799 13.5499 12.5799V15.4299C13.5499 15.6799 13.2799 15.8099 13.0799 15.6799Z" fill="#10181B"/>
</svg>
