<svg width="24" height="24" viewBox="0 0 24 24" fill="none" xmlns="http://www.w3.org/2000/svg">
<path fill-rule="evenodd" clip-rule="evenodd" d="M9.13752 23.1712L10.2396 14.9059H3.49823L7.65254 9.71299L2.46973 4.53018L3.53039 3.46952L3.53043 3.46957L3.46961 3.53039L19.4696 19.5303L18.4697 20.5302L14.4933 16.5538L9.13752 23.1712ZM16.3367 14.2761L20.5133 9.11563H13.6434L14.8018 0.776367L9.48409 7.42355L10.5513 8.49073L12.5656 5.97289L12.0128 9.95222L12.6762 10.6156H17.3696L15.2701 13.2096L16.3367 14.2761ZM6.61917 13.4059L8.71972 10.7802L11.3454 13.4059H6.61917ZM11.3299 18.0781L11.8814 13.9418L13.4268 15.4872L11.3299 18.0781Z" fill="#10181B"/>
</svg>
