<svg width="16" height="16" viewBox="0 0 16 16" fill="none" xmlns="http://www.w3.org/2000/svg">
<path fill-rule="evenodd" clip-rule="evenodd" d="M7.71943 15.0016L6.36063 14.4919L6.78501 10.3925H1.78092L4.52068 6.58144L1.46973 3.53049L2.46972 2.53049L13.4696 13.5304L13.5303 13.4697L12.4697 14.5305L9.87963 11.9404L7.71943 15.0016ZM4.70665 8.8925L5.59543 7.65619L6.83174 8.8925H4.70665ZM8.29665 10.3574L8.8033 10.8641L8.14809 11.7925L8.29665 10.3574Z" fill="#10181B"/>
<path d="M11.5847 9.52417L14.2037 5.81285H9.44546L9.89268 1.50895L8.53772 0.993652L6.24434 4.18379L7.31909 5.25854L8.10918 4.15951L7.93136 5.87082L9.3734 7.31285H11.3093L10.5084 8.44784L11.5847 9.52417Z" fill="#10181B"/>
</svg>
