<svg width="24" height="24" viewBox="0 0 24 24" fill="none" xmlns="http://www.w3.org/2000/svg">
<path fill-rule="evenodd" clip-rule="evenodd" d="M21.7908 4.57527C16.6585 1.41628 11.5099 1.168 6.89761 3.80589C4.25896 5.30328 2.40402 7.78341 2.06029 10.3308C1.83405 11.92 2.25028 13.535 3.21274 14.7971C4.65019 12.0351 6.84011 9.77088 9.51251 8.28901C9.55682 8.25978 9.60627 8.23987 9.65802 8.23042C9.70978 8.22097 9.76282 8.22216 9.81413 8.23393C9.86544 8.2457 9.914 8.26781 9.95705 8.299C10.0001 8.3302 10.0368 8.36986 10.065 8.41573C10.0932 8.46157 10.1125 8.51272 10.1216 8.56626C10.1308 8.6198 10.1296 8.67468 10.1182 8.72776C10.1069 8.78084 10.0855 8.83108 10.0553 8.8756C10.0252 8.92013 9.98683 8.95808 9.94249 8.98727C9.92999 8.99503 9.91749 9.00279 9.90499 9.00925C4.68269 12.017 2.98025 16.5427 2.01279 20.5862C2.01279 20.6767 2.04029 20.7634 2.09279 20.8345C2.24528 21.0323 2.50902 20.9922 2.9965 21H3.85897C4.73019 21 4.73894 20.9418 4.79394 20.6509C5.03518 19.4043 5.41141 18.1888 5.91264 17.0302C9.7975 18.8018 15.1298 16.2027 17.3622 13.4225C18.2516 12.2329 18.9161 10.8804 19.3209 9.43597C19.8646 7.88427 20.3834 6.41016 21.8233 5.30069C21.8777 5.26283 21.9223 5.21172 21.9531 5.15185C21.9839 5.09199 22 5.0252 22 4.95738C22 4.88956 21.9839 4.82277 21.9531 4.76291C21.9223 4.70304 21.8777 4.65193 21.8233 4.61407L21.7908 4.57269V4.57527Z" fill="#10181B"/>
</svg>
