<svg width="24" height="24" viewBox="0 0 24 24" fill="none" xmlns="http://www.w3.org/2000/svg">
<path d="M13.0701 15.6799L5.12012 10.3199L10.2301 11.7299C10.4201 11.7799 10.6101 11.6399 10.6101 11.4399V8.55991C10.6101 8.30991 10.8801 8.16991 11.0801 8.30991L18.9301 13.6699L13.9201 12.2899C13.7301 12.2399 13.5401 12.3799 13.5401 12.5799V15.4299C13.5401 15.6799 13.2701 15.8099 13.0701 15.6799Z" fill="#10181B"/>
<path fill-rule="evenodd" clip-rule="evenodd" d="M12 2.25C6.61522 2.25 2.25 6.61522 2.25 12C2.25 17.3848 6.61522 21.75 12 21.75C17.3848 21.75 21.75 17.3848 21.75 12C21.75 6.61522 17.3848 2.25 12 2.25ZM3.75 12C3.75 7.44365 7.44365 3.75 12 3.75C16.5563 3.75 20.25 7.44365 20.25 12C20.25 16.5563 16.5563 20.25 12 20.25C7.44365 20.25 3.75 16.5563 3.75 12Z" fill="#10181B"/>
</svg>
