<svg width="16" height="16" viewBox="0 0 16 16" fill="none" xmlns="http://www.w3.org/2000/svg">
<path fill-rule="evenodd" clip-rule="evenodd" d="M1.25 8C1.25 4.27208 4.27208 1.25 8 1.25C11.7279 1.25 14.75 4.27208 14.75 8C14.75 11.7279 11.7279 14.75 8 14.75C4.27208 14.75 1.25 11.7279 1.25 8ZM8.71992 10.4499L3.41992 6.8799L6.82992 7.8199C6.94992 7.8599 7.07992 7.7599 7.07992 7.6299V5.7099C7.07992 5.5399 7.25992 5.4499 7.38992 5.5399L12.6199 9.1099L9.27992 8.1899C9.15992 8.1499 9.02992 8.2499 9.02992 8.3799V10.2799C9.02992 10.4499 8.84992 10.5399 8.71992 10.4499Z" fill="#10181B"/>
</svg>
