<svg width="16" height="16" viewBox="0 0 16 16" fill="none" xmlns="http://www.w3.org/2000/svg">
<path d="M7.41003 2.43362L8.63996 0.697266L6.59309 1.27864C5.87795 1.48176 5.17289 1.79517 4.50969 2.24085C1.32231 4.38661 0.259438 8.64208 2.27353 11.7906L2.27419 11.7917L2.90591 11.3874L2.27353 11.7906C4.28985 14.9527 8.56118 15.6659 11.7655 13.5135L11.7675 13.5122C12.497 13.0188 13.1144 12.4157 13.605 11.7454L14.7677 10.1572L12.8429 10.569C12.1031 10.7273 10.8504 10.8784 9.62928 10.6731C8.41852 10.4695 7.33533 9.93719 6.72109 8.81448L6.64264 8.661L6.62795 8.63691C5.96869 7.5562 5.94667 6.30762 6.22113 5.13286C6.49618 3.95558 7.0511 2.94034 7.41003 2.43362Z" fill="#10181B"/>
</svg>
