<svg width="24" height="24" viewBox="0 0 24 24" fill="none" xmlns="http://www.w3.org/2000/svg">
<path fill-rule="evenodd" clip-rule="evenodd" d="M13.1374 1.4541L11.8772 3.19054C11.2895 4.0004 10.3953 5.59905 9.95083 7.45586C9.50721 9.30918 9.52962 11.332 10.6362 13.1025L10.6513 13.1268L10.7699 13.3532C11.8133 15.2188 13.6537 16.0837 15.6341 16.4087C17.6219 16.7349 19.6453 16.4947 20.8369 16.2459L22.7832 15.8394L21.5902 17.43C20.8487 18.4187 19.9155 19.3083 18.8134 20.0359L18.8114 20.0372C13.9755 23.2078 7.56533 22.1468 4.54266 17.5207C1.50985 12.8945 3.10411 6.61313 7.92835 3.44322C8.92795 2.78757 9.99055 2.32649 11.0698 2.02728L13.1374 1.4541ZM8.75184 4.69696C4.53643 7.46698 3.27072 12.8451 5.79741 16.6988L5.79809 16.6998C8.31539 20.553 13.7644 21.552 17.9882 18.7833C18.3481 18.5456 18.6867 18.2885 19.003 18.0148C17.9125 18.0997 16.6536 18.096 15.3912 17.8889C13.1546 17.5218 10.8025 16.4938 9.45498 14.075L9.45026 14.0666L9.3487 13.8726C7.97092 11.6496 7.99501 9.18312 8.49204 7.10668C8.7452 6.04904 9.1257 5.07004 9.52827 4.23952C9.26504 4.37806 9.00593 4.53031 8.75184 4.69696Z" fill="#10181B"/>
</svg>
