<svg width="16" height="16" viewBox="0 0 16 16" fill="none" xmlns="http://www.w3.org/2000/svg">
<path fill-rule="evenodd" clip-rule="evenodd" d="M8.63996 0.697266L7.41003 2.43362C7.0511 2.94034 6.49618 3.95558 6.22113 5.13286C5.94667 6.30762 5.96869 7.5562 6.62795 8.63691L6.64264 8.661L6.72109 8.81448C7.33533 9.93719 8.41852 10.4695 9.62928 10.6731C10.8504 10.8784 12.1031 10.7273 12.8429 10.569L14.7677 10.1572L13.605 11.7454C13.1144 12.4157 12.497 13.0188 11.7675 13.5122L11.7655 13.5135C8.56118 15.6659 4.28985 14.9527 2.27353 11.7906L2.90591 11.3874L2.27419 11.7917L2.27353 11.7906C0.259438 8.64208 1.32231 4.38661 4.50969 2.24085C5.17289 1.79517 5.87795 1.48176 6.59309 1.27864L8.63996 0.697266ZM5.10539 3.65673C2.72072 5.43652 2.05406 8.66489 3.53762 10.9831L3.53828 10.9842C5.05552 13.3636 8.34731 13.9979 10.9228 12.2726C10.4286 12.2742 9.90559 12.2406 9.38058 12.1523C7.90163 11.9037 6.31045 11.1993 5.39896 9.52305L5.39439 9.51465L5.33223 9.39304C4.41179 7.86554 4.43534 6.18322 4.76046 4.7916C4.85336 4.39396 4.97232 4.013 5.10539 3.65673Z" fill="#10181B"/>
</svg>
