<svg width="24" height="24" viewBox="0 0 24 24" fill="none" xmlns="http://www.w3.org/2000/svg">
<path d="M11.8772 3.19054L13.1374 1.4541L11.0698 2.02728C9.99055 2.32649 8.92795 2.78757 7.92835 3.44322C3.10411 6.61313 1.50985 12.8945 4.54266 17.5207C7.56533 22.1468 13.9755 23.2078 18.8114 20.0372L18.8134 20.0359C19.9155 19.3083 20.8487 18.4188 21.5902 17.43L22.7832 15.8394L20.8369 16.2459C19.6453 16.4947 17.6219 16.7349 15.6341 16.4087C13.6537 16.0837 11.8133 15.2188 10.7699 13.3532L10.6513 13.1268L10.6362 13.1025C9.52962 11.332 9.50721 9.30918 9.95083 7.45586C10.3953 5.59905 11.2895 4.0004 11.8772 3.19054Z" fill="#10181B"/>
</svg>
