<svg width="16" height="16" viewBox="0 0 16 16" fill="none" xmlns="http://www.w3.org/2000/svg">
<path d="M8.75002 4.31043V6.70109L10.8198 5.5061L11.5741 2.69082L12.6046 4.47564L13.4707 3.97559L14.2207 5.27462L13.3546 5.77467L14.3848 7.55903L11.5703 6.80487L9.50002 8.00012L11.5701 9.1953L14.3853 8.44097L13.3549 10.2257L14.2207 10.7256L13.4707 12.0246L12.6049 11.5248L11.5746 13.3092L10.8204 10.4945L8.75002 9.29916V11.6893L10.8108 13.7501H8.75002V14.75H7.25002V13.7501H5.18947L7.25002 11.6896V9.29916L5.18017 10.4942L4.42589 13.3092L3.39554 11.5245L2.52938 12.0246L1.77938 10.7256L2.64554 10.2255L1.61523 8.44097L4.43007 9.19521L6.50002 8.00012L4.42978 6.80487L1.61523 7.55903L2.64543 5.77467L1.77932 5.27462L2.52932 3.97559L3.39543 4.47564L4.42589 2.69082L5.18025 5.5061L7.25002 6.70109V4.31066L5.18925 2.24989L7.25002 2.24989V1.25H8.75002V2.24989L10.8106 2.24989L8.75002 4.31043Z" fill="#10181B"/>
</svg>
