<svg width="24" height="24" viewBox="0 0 24 24" fill="none" xmlns="http://www.w3.org/2000/svg">
<path d="M18.4276 14.8683L21.3003 16.5379L20.5465 17.8347L17.5977 16.1209L18.0068 18.8053L16.5239 19.0313L15.9329 15.1533L12.75 13.3035V16.829L15.8862 19.3216L14.9529 20.4959L12.75 18.745V22.0524H11.25V18.745L9.04707 20.4959L8.11377 19.3216L11.25 16.829V13.3035L8.06681 15.1535L7.47577 19.0313L5.9929 18.8053L6.40202 16.1211L3.45344 17.8347L2.69971 16.5379L5.57222 14.8684L2.96729 13.9862L3.44845 12.5654L7.29388 13.8678L10.5074 12.0001L7.29363 10.1323L3.44845 11.4346L2.96729 10.0139L5.57198 9.13173L2.69971 7.46241L3.45344 6.16553L6.40206 7.87923L5.9929 5.19477L7.47577 4.96875L8.06685 8.84678L11.25 10.6968V7.17129L8.11377 4.67868L9.04707 3.50439L11.25 5.25524V1.94775H12.75V5.25524L14.9529 3.50439L15.8862 4.67868L12.75 7.1713V10.6968L15.9328 8.84695L16.5239 4.96875L18.0068 5.19477L17.5976 7.8794L20.5465 6.16553L21.3003 7.46241L18.4279 9.13179L21.0324 10.0139L20.5512 11.4346L16.7062 10.1324L13.4926 12.0001L16.706 13.8677L20.5512 12.5654L21.0324 13.9862L18.4276 14.8683Z" fill="#10181B"/>
</svg>
