<svg width="16" height="16" viewBox="0 0 16 16" fill="none" xmlns="http://www.w3.org/2000/svg">
<path d="M8.7499 1V3.1H7.2499V1H8.7499Z" fill="#10181B"/>
<path d="M11.4999 8C11.4999 9.933 9.9329 11.5 7.9999 11.5C6.06691 11.5 4.4999 9.933 4.4999 8C4.4999 6.067 6.06691 4.5 7.9999 4.5C9.9329 4.5 11.4999 6.067 11.4999 8Z" fill="#10181B"/>
<path d="M12.8999 8.75H14.9999V7.25H12.8999V8.75Z" fill="#10181B"/>
<path d="M12.469 13.5299L10.9841 12.045L12.0448 10.9843L13.5297 12.4692L12.469 13.5299Z" fill="#10181B"/>
<path d="M5.11531 12.045L3.63039 13.5299L2.56973 12.4692L4.05465 10.9843L5.11531 12.045Z" fill="#10181B"/>
<path d="M8.7499 12.8999V14.9999H7.2499V12.8999H8.7499Z" fill="#10181B"/>
<path d="M1 8.75H3.1V7.25H1V8.75Z" fill="#10181B"/>
<path d="M4.05448 5.11535L2.56955 3.63042L3.63021 2.56976L5.11514 4.05469L4.05448 5.11535Z" fill="#10181B"/>
<path d="M13.5299 3.63042L12.0449 5.11535L10.9843 4.05469L12.4692 2.56976L13.5299 3.63042Z" fill="#10181B"/>
</svg>
