<svg width="24" height="24" viewBox="0 0 24 24" fill="none" xmlns="http://www.w3.org/2000/svg">
<path d="M12.75 2V5H11.25V2H12.75Z" fill="#10181B"/>
<path fill-rule="evenodd" clip-rule="evenodd" d="M12 17C14.7614 17 17 14.7614 17 12C17 9.23858 14.7614 7 12 7C9.23858 7 7 9.23858 7 12C7 14.7614 9.23858 17 12 17ZM12 15.5C13.933 15.5 15.5 13.933 15.5 12C15.5 10.067 13.933 8.5 12 8.5C10.067 8.5 8.5 10.067 8.5 12C8.5 13.933 10.067 15.5 12 15.5Z" fill="#10181B"/>
<path d="M19 12.75H22V11.25H19V12.75Z" fill="#10181B"/>
<path d="M16.4904 17.5512L17.551 16.4905L19.6724 18.6118L18.6117 19.6725L16.4904 17.5512Z" fill="#10181B"/>
<path d="M6.59105 16.4905L7.65171 17.5512L5.53039 19.6725L4.46973 18.6118L6.59105 16.4905Z" fill="#10181B"/>
<path d="M12.75 19V22H11.25V19H12.75Z" fill="#10181B"/>
<path d="M2 12.75H5V11.25H2V12.75Z" fill="#10181B"/>
<path d="M4.46988 5.53016L5.53054 4.4695L7.65186 6.59082L6.5912 7.65148L4.46988 5.53016Z" fill="#10181B"/>
<path d="M19.6722 5.53016L17.5509 7.65148L16.4902 6.59082L18.6116 4.4695L19.6722 5.53016Z" fill="#10181B"/>
</svg>
