<svg width="16" height="16" viewBox="0 0 16 16" fill="none" xmlns="http://www.w3.org/2000/svg">
<path fill-rule="evenodd" clip-rule="evenodd" d="M8 12.8333C9.32344 12.8333 10.5 11.698 10.5 10.1667C10.5 9.90124 10.3526 9.2763 9.97644 8.30594C9.62526 7.40017 9.14805 6.37271 8.65782 5.39025C8.43499 4.94369 8.21182 4.5111 8 4.10925C7.78818 4.5111 7.56501 4.94369 7.34218 5.39025C6.85195 6.37271 6.37474 7.40017 6.02356 8.30594C5.64735 9.2763 5.5 9.90124 5.5 10.1667C5.5 11.698 6.67656 12.8333 8 12.8333ZM7.14379 2.53081C5.96868 4.69162 4 8.55252 4 10.1667C4 12.4683 5.7912 14.3333 8 14.3333C10.2088 14.3333 12 12.4683 12 10.1667C12 8.55252 10.0313 4.69162 8.85621 2.53081C8.35629 1.61156 8 1 8 1C8 1 7.64371 1.61156 7.14379 2.53081Z" fill="#10181B"/>
</svg>
