<svg width="24" height="24" viewBox="0 0 24 24" fill="none" xmlns="http://www.w3.org/2000/svg">
<path fill-rule="evenodd" clip-rule="evenodd" d="M12 20.5C14.4278 20.5 16.5 18.4322 16.5 15.75C16.5 15.197 16.2276 14.1418 15.6639 12.6878C15.1253 11.2984 14.3981 9.73399 13.6578 8.25051C13.076 7.08443 12.4931 5.98235 12 5.07436C11.5069 5.98235 10.924 7.08443 10.3422 8.25051C9.60195 9.73399 8.87474 11.2984 8.33606 12.6878C7.77235 14.1418 7.5 15.197 7.5 15.75C7.5 18.4322 9.57216 20.5 12 20.5ZM11.141 3.52113C9.48216 6.51757 6 13.1208 6 15.75C6 19.2025 8.6868 22 12 22C15.3132 22 18 19.2025 18 15.75C18 13.1208 14.5178 6.51757 12.859 3.52113C12.3404 2.58428 12 2 12 2C12 2 11.6596 2.58428 11.141 3.52113Z" fill="#10181B"/>
</svg>
