<svg width="16" height="16" viewBox="0 0 16 16" fill="none" xmlns="http://www.w3.org/2000/svg">
<path d="M11.5685 8.10226C11.7909 8.15566 12.0223 8.18235 12.2537 8.18235C12.4806 8.18235 12.6897 8.15121 12.8899 8.08892C13.0812 8.03108 13.2459 7.95099 13.3838 7.83976C13.5217 7.73297 13.6285 7.59949 13.7086 7.44822C13.7842 7.29694 13.8243 7.12342 13.8243 6.9321C13.8243 6.70073 13.7575 6.49161 13.6196 6.30919C13.4817 6.12677 13.2503 5.98439 12.93 5.88206L12.2982 5.68184C12.0624 5.6062 11.8977 5.52166 11.8087 5.43713C11.7198 5.35259 11.6753 5.24581 11.6753 5.12123C11.6753 4.9388 11.7465 4.80977 11.8844 4.72524C12.0223 4.6407 12.2225 4.60066 12.4761 4.60066C12.792 4.60066 13.0768 4.6585 13.3304 4.77418C13.406 4.80977 13.4639 4.82757 13.4995 4.82757C13.5662 4.82757 13.6018 4.77863 13.6018 4.68519V4.47608C13.6018 4.41379 13.5885 4.36484 13.5618 4.32925C13.5351 4.28921 13.4906 4.25361 13.4283 4.21802C13.3838 4.19132 13.3215 4.16462 13.2414 4.13793C13.1613 4.11123 13.0768 4.08899 12.9878 4.06674C12.8944 4.04894 12.8009 4.03115 12.6986 4.0178C12.6007 4.00445 12.4984 4 12.4005 4C12.2047 4 12.0179 4.02225 11.8399 4.07564C11.6619 4.12903 11.5106 4.20467 11.3772 4.307C11.2437 4.40489 11.1369 4.52947 11.0568 4.67185C10.9767 4.81422 10.9367 4.97885 10.9367 5.16572C10.9367 5.39708 11.0123 5.6151 11.1591 5.81087C11.306 6.01109 11.5462 6.16236 11.871 6.2647L12.5162 6.46492C12.7342 6.53611 12.8855 6.61175 12.9656 6.69628C13.0457 6.78082 13.0857 6.88315 13.0857 7.00773C13.0857 7.19016 13.0056 7.33253 12.8543 7.43042C12.7031 7.5283 12.485 7.57725 12.2047 7.57725C12.0268 7.57725 11.8532 7.55945 11.6753 7.52385C11.5017 7.48826 11.3371 7.43487 11.1858 7.36813C11.1829 7.36695 11.1799 7.36576 11.177 7.36458C11.1644 7.35947 11.1522 7.35441 11.1406 7.34961C11.1374 7.34826 11.1342 7.34694 11.131 7.34563C11.109 7.33653 11.0897 7.32866 11.0746 7.32364C11.0479 7.31474 11.0212 7.31029 10.9945 7.31029C10.9278 7.31029 10.8922 7.35478 10.8922 7.44822V7.67513C10.8922 7.71517 10.9011 7.75967 10.9189 7.79971C10.9367 7.83976 10.9856 7.88425 11.0568 7.92429C11.1725 7.99103 11.346 8.04887 11.5685 8.10226Z" fill="#10181B"/>
<path fill-rule="evenodd" clip-rule="evenodd" d="M4.76994 6.9054C4.76994 7.07002 4.78773 7.2035 4.81888 7.30139C4.85447 7.39927 4.89896 7.50606 4.96126 7.62174C4.9835 7.65733 4.9924 7.69293 4.9924 7.72407C4.9924 7.76857 4.9657 7.81306 4.90786 7.85755L4.62756 8.04442C4.58751 8.07112 4.54747 8.08447 4.51187 8.08447C4.46738 8.08447 4.42289 8.06222 4.3784 8.02218C4.31611 7.95544 4.26271 7.88425 4.21822 7.81306C4.17373 7.73742 4.12923 7.65288 4.08029 7.55055C3.73325 7.95989 3.29721 8.16455 2.77219 8.16455C2.39845 8.16455 2.10035 8.05777 1.88233 7.8442C1.66432 7.63064 1.55308 7.34588 1.55308 6.98994C1.55308 6.61175 1.68656 6.30474 1.95797 6.07338C2.22938 5.84201 2.58977 5.72633 3.04805 5.72633C3.19933 5.72633 3.35505 5.73968 3.51968 5.76193C3.6843 5.78417 3.85338 5.81977 4.03135 5.85981V5.53501C4.03135 5.19686 3.96016 4.96105 3.82223 4.82312C3.67985 4.68519 3.43959 4.61845 3.09699 4.61845C2.94127 4.61845 2.78109 4.63625 2.61647 4.6763C2.45184 4.71634 2.29167 4.76528 2.13594 4.82757C2.06475 4.85872 2.01136 4.87651 1.98022 4.88541C1.94907 4.89431 1.92683 4.89876 1.90903 4.89876C1.84674 4.89876 1.81559 4.85427 1.81559 4.76083V4.54282C1.81559 4.47163 1.82449 4.41824 1.84674 4.38709C1.86898 4.35594 1.90903 4.3248 1.97132 4.29365C2.12704 4.21357 2.31392 4.14683 2.53193 4.09344C2.74995 4.03559 2.98131 4.0089 3.22602 4.0089C3.75549 4.0089 4.14258 4.12903 4.39174 4.36929C4.63646 4.60956 4.76104 4.9744 4.76104 5.46382V6.9054H4.76994ZM2.96351 7.5817C3.11034 7.5817 3.26162 7.555 3.42179 7.50161C3.58197 7.44822 3.72435 7.35033 3.84448 7.21685C3.91567 7.13231 3.96906 7.03888 3.99575 6.9321C4.02245 6.82531 4.04025 6.69628 4.04025 6.54501V6.35813C3.91122 6.32699 3.77329 6.30029 3.63091 6.2825C3.48853 6.2647 3.3506 6.2558 3.21268 6.2558C2.91457 6.2558 2.69656 6.31364 2.54973 6.43377C2.4029 6.5539 2.33171 6.72298 2.33171 6.94544C2.33171 7.15456 2.3851 7.31029 2.49634 7.41707C2.60312 7.5283 2.75885 7.5817 2.96351 7.5817Z" fill="#10181B"/>
<path d="M6.53631 8.06222C6.45622 8.06222 6.40283 8.04887 6.36724 8.01773C6.33164 7.99103 6.3005 7.92874 6.2738 7.8442L5.22821 4.40489C5.20152 4.3159 5.18817 4.25806 5.18817 4.22691C5.18817 4.15573 5.22376 4.11568 5.29495 4.11568H5.73099C5.81552 4.11568 5.87336 4.12903 5.90451 4.16018C5.9401 4.18687 5.9668 4.24916 5.9935 4.3337L6.74098 7.27914L7.43507 4.3337C7.45732 4.24471 7.48401 4.18687 7.51961 4.16018C7.5552 4.13348 7.61749 4.11568 7.69758 4.11568H8.05353C8.13806 4.11568 8.1959 4.12903 8.2315 4.16018C8.26709 4.18687 8.29824 4.24916 8.31604 4.3337L9.01903 7.31474L9.78876 4.3337C9.81545 4.24471 9.8466 4.18687 9.87774 4.16018C9.91334 4.13348 9.97118 4.11568 10.0513 4.11568H10.4651C10.5362 4.11568 10.5763 4.15128 10.5763 4.22691C10.5763 4.24591 10.573 4.26491 10.5693 4.28668L10.5674 4.2981C10.5629 4.3248 10.554 4.36039 10.5362 4.40934L9.46396 7.84865C9.43726 7.93764 9.40612 7.99548 9.37052 8.02218C9.33493 8.04887 9.27709 8.06667 9.20145 8.06667H8.81881C8.73427 8.06667 8.67643 8.05332 8.64083 8.02218C8.60524 7.99103 8.5741 7.93319 8.5563 7.8442L7.86665 4.9744L7.18146 7.83976C7.15921 7.92874 7.13252 7.98658 7.09692 8.01773C7.06133 8.04887 6.99904 8.06222 6.91895 8.06222H6.53631Z" fill="#10181B"/>
<path d="M13.0947 10.3451C11.6308 11.4263 9.50406 12.0003 7.67539 12.0003C5.11259 12.0003 2.8034 11.0526 1.05927 9.47753C0.921337 9.35295 1.04592 9.18388 1.21054 9.28176C3.09705 10.3763 5.42404 11.0392 7.83112 11.0392C9.45512 11.0392 11.2393 10.7011 12.8811 10.007C13.1258 9.89577 13.3349 10.1672 13.0947 10.3451Z" fill="#10181B"/>
<path d="M13.7042 9.65075C13.5173 9.41049 12.4673 9.53507 11.9912 9.59291C11.8488 9.61071 11.8266 9.48613 11.9556 9.39269C12.7921 8.80539 14.1669 8.97446 14.3271 9.17023C14.4873 9.37045 14.2826 10.7453 13.4995 11.4038C13.3794 11.5061 13.2637 11.4527 13.3171 11.3192C13.4951 10.8788 13.8911 9.88657 13.7042 9.65075Z" fill="#10181B"/>
</svg>
