<svg width="24" height="24" viewBox="0 0 24 24" fill="none" xmlns="http://www.w3.org/2000/svg">
<path d="M12.6703 18.7956L8.87028 18.7256C7.64028 18.7056 6.41028 18.7456 5.20028 18.4956C3.36028 18.1256 3.23028 16.2856 3.10028 14.7356C2.91028 12.5656 2.99028 10.3656 3.34028 8.21564C3.54028 7.00564 4.33028 6.28564 5.54028 6.21564C9.64028 5.93564 13.7703 5.96564 17.8703 6.09564C18.3003 6.10564 18.7403 6.17564 19.1603 6.24564C21.2603 6.61564 21.3203 8.69564 21.4503 10.4556C21.5903 12.2256 21.5303 14.0056 21.2703 15.7656C21.0603 17.2256 20.6603 18.4456 18.9803 18.5656C16.8703 18.7156 14.8103 18.8456 12.6903 18.8056C12.6903 18.8056 12.6803 18.8056 12.6703 18.8056V18.7956ZM10.4403 15.1056C12.0303 14.1956 13.5903 13.2956 15.1703 12.3856C13.5803 11.4756 12.0203 10.5756 10.4403 9.66564V15.1056Z" fill="#10181B"/>
</svg>
