<svg width="16" height="16" viewBox="0 0 16 16" fill="none" xmlns="http://www.w3.org/2000/svg">
<path fill-rule="evenodd" clip-rule="evenodd" d="M12.8 5.38007V5.69007C12.8 7.54007 12.05 9.31008 10.73 10.6001C9.41 11.8901 7.62 12.6001 5.77 12.5601C4.43 12.5601 3.13 12.1901 2 11.4701C2.2 11.4901 2.4 11.5101 2.6 11.5101C3.7 11.5101 4.77 11.1601 5.64 10.5001C4.59 10.4901 3.67 9.81007 3.34 8.82007C3.71 8.89007 4.09 8.87008 4.45 8.78008C3.3 8.56008 2.47 7.55007 2.48 6.38007V6.34007C2.82 6.53007 3.21 6.63007 3.6 6.64007C2.92 6.20007 2.5 5.44007 2.5 4.63007C2.5 4.21007 2.62 3.79007 2.84 3.43007C4.1 4.94007 5.94 5.86007 7.91 5.95007C7.87 5.77007 7.84 5.58007 7.84 5.40007C7.86 4.06007 8.96 2.99007 10.3 3.00007C10.98 3.00007 11.63 3.27007 12.1 3.76007C12.65 3.65007 13.18 3.45007 13.67 3.16007C13.48 3.72007 13.1 4.20007 12.59 4.50007C13.08 4.44007 13.56 4.32007 14.01 4.12007C13.69 4.61007 13.28 5.03007 12.81 5.37007L12.8 5.38007Z" fill="#10181B"/>
</svg>
