<svg width="24" height="24" viewBox="0 0 24 24" fill="none" xmlns="http://www.w3.org/2000/svg">
<path d="M16.16 8.08C15.4707 7.44061 14.2723 6.67147 12.4951 6.67C9.98724 6.67215 7.85953 8.32149 7.09003 10.61L7.08 10.6022V10.6099C6.89 11.1999 6.77 11.8299 6.77 12.4899C6.77 13.1499 6.89001 13.7799 7.09001 14.3699C7.85001 16.66 9.98001 18.31 12.49 18.31C13.8934 18.31 14.9699 17.9236 15.7687 17.3679L15.77 17.36C17.04 16.47 17.6 15.15 17.71 14.28H12.48V10.76H21.39C21.53 11.35 21.59 11.92 21.59 12.7C21.59 15.59 20.56 18.03 18.77 19.68C17.2 21.14 15.05 21.98 12.49 21.98L12.48 21.99C8.77001 21.99 5.57001 19.86 4.01001 16.76L4.0151 16.746L4.01001 16.7499C3.37001 15.4599 3 14.0199 3 12.4899C3 10.9599 3.37001 9.51993 4.01001 8.22993L4.02344 8.22322C5.58469 5.12689 8.78273 3 12.49 3C15.06 3 17.2 3.94 18.84 5.47L16.16 8.08Z" fill="#10181B"/>
</svg>
