<svg width="16" height="16" viewBox="0 0 16 16" fill="none" xmlns="http://www.w3.org/2000/svg">
<path d="M10.48 5.28C10.04 4.87 9.26002 4.37 8.11002 4.37C6.50067 4.37 5.13806 5.4161 4.63 6.88085V6.91C4.5 7.29 4.43001 7.7 4.43001 8.12C4.43001 8.54 4.5 8.95 4.63 9.33H4.64L4.62708 9.34H4.63002C5.12002 10.81 6.49002 11.88 8.11002 11.88C9.02 11.88 9.71 11.63 10.23 11.27C11.04 10.69 11.41 9.84001 11.48 9.28001H8.10999V7.01001H13.86C13.95 7.39001 13.99 7.76001 13.99 8.26001V8.27C13.99 10.13 13.33 11.7 12.17 12.76H12.1472L12.16 12.77C11.1511 13.709 9.76295 14.2489 8.11525 14.25C5.71729 14.2482 3.65935 12.8787 2.65002 10.88L2.6537 10.8671L2.65001 10.87C2.24001 10.04 2 9.11 2 8.12C2 7.13224 2.23893 6.2042 2.64724 5.37562L2.64001 5.37C3.65001 3.37 5.72002 2 8.11002 2C9.77002 2 11.15 2.6 12.21 3.59L10.48 5.28Z" fill="#10181B"/>
<path d="M8.11525 14.25L8.11002 14.25H8.12003L8.11525 14.25Z" fill="#10181B"/>
</svg>
