<svg width="16" height="16" viewBox="0 0 16 16" fill="none" xmlns="http://www.w3.org/2000/svg">
<path d="M5.7323 9.1315C5.8751 9.18417 6.02624 9.21062 6.17844 9.20959C6.33664 9.20959 6.48535 9.18205 6.61601 9.13539L6.18201 7.7385H6.17346L5.7323 9.1315Z" fill="#10181B"/>
<path d="M9.17226 8.40925H9.47933C9.88844 8.40925 10.2149 8.27314 10.2153 7.8407C10.2153 7.42287 9.88859 7.28661 9.47948 7.28661H9.17226V8.40925Z" fill="#10181B"/>
<path fill-rule="evenodd" clip-rule="evenodd" d="M8.15151 12H1V5H15.1503L8.15151 12ZM7.99999 6.39994H9.3975C10.7284 6.39994 11.3538 6.85043 11.3541 7.88472C11.3541 8.81339 10.7109 9.36716 9.62275 9.36716H9.17257L9.16744 10.602L7.05188 10.5999L6.90441 10.0648C6.68617 10.1364 6.44008 10.1762 6.17844 10.1762C5.90995 10.1762 5.65701 10.1342 5.43457 10.0583L5.22301 10.5999L4.0439 10.6037L4.09679 10.3311C4.09378 10.3338 4.09079 10.3364 4.0878 10.3391C4.07413 10.3512 4.06058 10.3631 4.04577 10.375C3.73061 10.6286 3.33395 10.7457 2.84519 10.7546L2.71888 10.7555C2.15733 10.7555 1.66313 10.6227 1.19755 10.3579L1.62797 9.5039C2.09401 9.77938 2.38646 9.84145 2.7811 9.83305C2.98566 9.82901 3.13344 9.79167 3.22988 9.69212C3.28636 9.6335 3.31906 9.55601 3.32166 9.47465C3.32555 9.25283 3.00977 9.14861 2.62321 9.02883C2.30977 8.93176 1.95401 8.79954 1.67588 8.59576C1.34673 8.35356 1.19008 8.05054 1.19786 7.62307C1.20253 7.31243 1.31764 7.0315 1.53106 6.81061C1.83719 6.49405 2.33108 6.30194 2.92421 6.30194H2.92733C3.43599 6.30241 4.05635 6.44661 4.50497 6.67496L4.02119 7.51807C3.52917 7.28039 3.28184 7.25783 3.00184 7.24274C2.58448 7.2205 2.37448 7.36967 2.37137 7.53052C2.36733 7.72652 2.7657 7.90385 3.14106 8.02441C3.70946 8.20501 4.43186 8.44612 4.5423 9.14487L5.5811 6.39885H6.78775L8.00466 9.68683L7.99999 6.39994Z" fill="#10181B"/>
</svg>
