<svg width="24" height="24" viewBox="0 0 24 24" fill="none" xmlns="http://www.w3.org/2000/svg">
<path fill-rule="evenodd" clip-rule="evenodd" d="M7.65504 10.3582C7.65504 10.6051 7.68174 10.8053 7.72846 10.9522C7.78185 11.099 7.84859 11.2592 7.94203 11.4327C7.9754 11.4861 7.98875 11.5395 7.98875 11.5862C7.98875 11.6529 7.9487 11.7197 7.86194 11.7864L7.44147 12.0667C7.38141 12.1068 7.32134 12.1268 7.26795 12.1268C7.20121 12.1268 7.13447 12.0934 7.06772 12.0334C6.97429 11.9333 6.8942 11.8265 6.82746 11.7197C6.76072 11.6062 6.69398 11.4794 6.62056 11.3259C6.09998 11.9399 5.44592 12.2469 4.65838 12.2469C4.09776 12.2469 3.65059 12.0868 3.32356 11.7664C2.99653 11.4461 2.82968 11.0189 2.82968 10.485C2.82968 9.91769 3.0299 9.45717 3.43702 9.11012C3.84414 8.76307 4.38474 8.58954 5.07217 8.58954C5.29909 8.58954 5.53269 8.60957 5.77963 8.64294C6.02657 8.67631 6.28018 8.7297 6.54715 8.78977V8.30256C6.54715 7.79533 6.44036 7.4416 6.23346 7.23471C6.01989 7.02781 5.65949 6.9277 5.14559 6.9277C4.912 6.9277 4.67173 6.95439 4.42479 7.01446C4.17785 7.07453 3.93758 7.14794 3.70399 7.24138C3.5972 7.2881 3.51711 7.31479 3.47039 7.32814C3.42367 7.34149 3.3903 7.34816 3.36361 7.34816C3.27017 7.34816 3.22345 7.28142 3.22345 7.14127V6.81424C3.22345 6.70745 3.2368 6.62736 3.27017 6.58065C3.30354 6.53393 3.36361 6.48721 3.45705 6.44049C3.69064 6.32036 3.97095 6.22024 4.29798 6.14016C4.62501 6.05339 4.97206 6.01335 5.33914 6.01335C6.13335 6.01335 6.714 6.19355 7.08775 6.55395C7.45482 6.91435 7.6417 7.46162 7.6417 8.19577V10.3582H7.65504ZM4.94537 11.3726C5.16561 11.3726 5.39253 11.3326 5.6328 11.2525C5.87306 11.1724 6.08663 11.0256 6.26683 10.8254C6.37362 10.6986 6.45371 10.5584 6.49375 10.3982C6.5338 10.238 6.56049 10.0445 6.56049 9.81757V9.53726C6.36695 9.49054 6.16005 9.4505 5.94648 9.4238C5.73291 9.39711 5.52601 9.38376 5.31911 9.38376C4.87195 9.38376 4.54492 9.47052 4.32468 9.65072C4.10443 9.83092 3.99765 10.0845 3.99765 10.4182C3.99765 10.7319 4.07774 10.9655 4.24459 11.1257C4.40477 11.2925 4.63836 11.3726 4.94537 11.3726Z" fill="#10181B"/>
<path d="M10.3047 12.0934C10.1845 12.0934 10.1044 12.0734 10.051 12.0267C9.99765 11.9867 9.95093 11.8932 9.91088 11.7664L8.34247 6.60734C8.30243 6.47386 8.28241 6.3871 8.28241 6.34038C8.28241 6.23359 8.3358 6.17353 8.44259 6.17353H9.09665C9.22345 6.17353 9.31022 6.19355 9.35694 6.24027C9.41033 6.28031 9.45037 6.37375 9.49042 6.50056L10.6117 10.9188L11.6528 6.50056C11.6862 6.36707 11.7262 6.28031 11.7796 6.24027C11.833 6.20022 11.9265 6.17353 12.0466 6.17353H12.5805C12.7073 6.17353 12.7941 6.19355 12.8475 6.24027C12.9009 6.28031 12.9476 6.37375 12.9743 6.50056L14.0288 10.9722L15.1834 6.50056C15.2235 6.36707 15.2702 6.28031 15.3169 6.24027C15.3703 6.20022 15.457 6.17353 15.5772 6.17353H16.1979C16.3047 6.17353 16.3647 6.22692 16.3647 6.34038C16.3647 6.36888 16.3599 6.39738 16.3543 6.43004L16.3514 6.44716C16.3447 6.48721 16.3314 6.5406 16.3047 6.61402L14.6962 11.7731C14.6562 11.9066 14.6094 11.9933 14.556 12.0334C14.5027 12.0734 14.4159 12.1001 14.3024 12.1001H13.7285C13.6017 12.1001 13.5149 12.0801 13.4615 12.0334C13.4081 11.9867 13.3614 11.8999 13.3347 11.7664L12.3002 7.46162L11.2724 11.7597C11.239 11.8932 11.199 11.98 11.1456 12.0267C11.0922 12.0734 10.9988 12.0934 10.8786 12.0934H10.3047Z" fill="#10181B"/>
<path d="M18.8809 12.2736C18.5338 12.2736 18.1867 12.2336 17.853 12.1535C17.5193 12.0734 17.2591 11.9867 17.0855 11.8865C16.9787 11.8265 16.9053 11.7597 16.8786 11.6997C16.8519 11.6396 16.8386 11.5729 16.8386 11.5128V11.1724C16.8386 11.0323 16.892 10.9655 16.9921 10.9655C17.0321 10.9655 17.0722 10.9722 17.1122 10.9855C17.1381 10.9942 17.1723 11.0083 17.2112 11.0245C17.2326 11.0334 17.2554 11.0428 17.2791 11.0523C17.506 11.1524 17.7529 11.2325 18.0132 11.2859C18.2802 11.3393 18.5405 11.366 18.8074 11.366C19.2279 11.366 19.5549 11.2925 19.7819 11.1457C20.0088 10.9989 20.1289 10.7853 20.1289 10.5117C20.1289 10.3248 20.0688 10.1713 19.9487 10.0445C19.8286 9.91769 19.6017 9.80423 19.2746 9.69744L18.3069 9.39711C17.8197 9.2436 17.4593 9.01669 17.239 8.71635C17.0188 8.42269 16.9053 8.09566 16.9053 7.74861C16.9053 7.4683 16.9654 7.22136 17.0855 7.00779C17.2057 6.79422 17.3658 6.60734 17.5661 6.46051C17.7663 6.30701 17.9932 6.19355 18.2602 6.11346C18.5271 6.03337 18.8074 6 19.1011 6C19.2479 6 19.4014 6.00667 19.5483 6.0267C19.7018 6.04672 19.8419 6.07341 19.9821 6.10011C20.1156 6.13348 20.2424 6.16685 20.3625 6.2069C20.4826 6.24694 20.5761 6.28699 20.6428 6.32703C20.7362 6.38042 20.803 6.43382 20.843 6.49388C20.8831 6.54727 20.9031 6.62069 20.9031 6.71413V7.02781C20.9031 7.16796 20.8497 7.24138 20.7496 7.24138C20.6962 7.24138 20.6094 7.21468 20.496 7.16129C20.1156 6.98776 19.6884 6.901 19.2146 6.901C18.8341 6.901 18.5338 6.96107 18.3269 7.08788C18.12 7.21468 18.0132 7.40823 18.0132 7.68187C18.0132 7.86874 18.08 8.02892 18.2134 8.15573C18.3469 8.28254 18.5939 8.40934 18.9476 8.5228L19.8953 8.82314C20.3758 8.97664 20.7229 9.19021 20.9298 9.46385C21.1367 9.73749 21.2368 10.0512 21.2368 10.3982C21.2368 10.6852 21.1767 10.9455 21.0633 11.1724C20.9431 11.3993 20.783 11.5996 20.5761 11.7597C20.3692 11.9266 20.1222 12.0467 19.8352 12.1335C19.5349 12.2269 19.2212 12.2736 18.8809 12.2736Z" fill="#10181B"/>
<path d="M20.1423 15.5175C17.9465 17.1393 14.7563 18.0002 12.0133 18.0002C8.16899 18.0002 4.70514 16.5786 2.0889 14.216C1.882 14.0291 2.06888 13.7755 2.31582 13.9223C5.14563 15.5642 8.63618 16.5586 12.2469 16.5586C14.6829 16.5586 17.3592 16.0514 19.8219 15.0102C20.189 14.8434 20.5027 15.2505 20.1423 15.5175Z" fill="#10181B"/>
<path d="M18.4872 14.3894C19.2013 14.3026 20.7764 14.1157 21.0567 14.4761C21.337 14.8299 20.743 16.3182 20.476 16.9789C20.396 17.1791 20.5695 17.2592 20.7497 17.1057C21.9243 16.118 22.2313 14.0557 21.9911 13.7553C21.7508 13.4617 19.6885 13.2081 18.4338 14.089C18.2402 14.2292 18.2736 14.4161 18.4872 14.3894Z" fill="#10181B"/>
</svg>
