<svg width="16" height="16" viewBox="0 0 16 16" fill="none" xmlns="http://www.w3.org/2000/svg">
<path fill-rule="evenodd" clip-rule="evenodd" d="M7.99675 2C4.68555 2 2 4.68499 2 7.99775C2 10.4528 3.4767 12.5635 5.59006 13.4957C5.57306 13.0773 5.58706 12.574 5.6935 12.1182L6.46508 8.85043C6.46508 8.85043 6.27418 8.46757 6.27418 7.90079C6.27418 7.01212 6.78991 6.34837 7.43056 6.34837C7.97526 6.34837 8.24012 6.75822 8.24012 7.24903C8.24012 7.79683 7.89031 8.61752 7.71041 9.37723C7.56049 10.014 8.02923 10.5328 8.65689 10.5328C9.79278 10.5328 10.5584 9.07335 10.5584 7.344C10.5584 6.02949 9.67384 5.04586 8.06322 5.04586C6.2442 5.04586 5.11131 6.40235 5.11131 7.91728C5.11131 8.44058 5.26523 8.80895 5.5111 9.09384C5.62254 9.22579 5.63753 9.27777 5.59705 9.42871L5.47512 9.90953C5.4703 9.94209 5.45772 9.97301 5.43843 9.99967C5.41914 10.0263 5.39372 10.048 5.36431 10.0627C5.33489 10.0775 5.30236 10.0849 5.26946 10.0845C5.23656 10.084 5.20425 10.0756 5.17528 10.06C4.33673 9.71811 3.94695 8.80045 3.94695 7.76834C3.94695 6.06498 5.38367 4.02074 8.23262 4.02074C10.5224 4.02074 12.0296 5.67912 12.0296 7.45695C12.0296 9.81007 10.7223 11.5674 8.79332 11.5674C8.14667 11.5674 7.5375 11.2175 7.32911 10.8207L6.90734 12.4691C6.78041 12.9309 6.53155 13.3937 6.30367 13.7536C6.85541 13.917 7.42783 14 8.00325 14C11.315 14 14 11.315 14 8.00225C14 4.68949 11.309 2 7.99675 2Z" fill="#10181B"/>
</svg>
