<svg width="24" height="24" viewBox="0 0 24 24" fill="none" xmlns="http://www.w3.org/2000/svg">
<path fill-rule="evenodd" clip-rule="evenodd" d="M11.9951 3C7.02832 3 3 7.02749 3 11.9966C3 15.6792 5.21505 18.8453 8.38508 20.2435C8.3596 19.616 8.38059 18.8611 8.54025 18.1773L9.69762 13.2756C9.69762 13.2756 9.41128 12.7014 9.41128 11.8512C9.41128 10.5182 10.1849 9.52255 11.1458 9.52255C11.9629 9.52255 12.3602 10.1373 12.3602 10.8735C12.3602 11.6952 11.8355 12.9263 11.5656 14.0659C11.3407 15.021 12.0439 15.7992 12.9853 15.7992C14.6892 15.7992 15.8375 13.61 15.8375 11.016C15.8375 9.04423 14.5108 7.56879 12.0948 7.56879C9.3663 7.56879 7.66697 9.60352 7.66697 11.8759C7.66697 12.6609 7.89785 13.2134 8.26665 13.6408C8.43381 13.8387 8.45629 13.9167 8.39558 14.1431L8.21268 14.8643C8.20546 14.9131 8.18658 14.9595 8.15765 14.9995C8.12872 15.0395 8.09058 15.0719 8.04646 15.0941C8.00234 15.1162 7.95354 15.1274 7.90419 15.1267C7.85483 15.126 7.80638 15.1134 7.76292 15.09C6.5051 14.5772 5.92042 13.2007 5.92042 11.6525C5.92042 9.09746 8.0755 6.03111 12.3489 6.03111C15.7836 6.03111 18.0444 8.51868 18.0444 11.1854C18.0444 14.7151 16.0834 17.3511 13.19 17.3511C12.22 17.3511 11.3063 16.8263 10.9937 16.231L10.361 18.7036C10.1706 19.3964 9.79732 20.0906 9.4555 20.6304C10.2831 20.8755 11.1417 21 12.0049 21C16.9724 21 21 16.9725 21 12.0034C21 7.03424 16.9634 3 11.9951 3Z" fill="#10181B"/>
</svg>
