<svg width="24" height="24" viewBox="0 0 24 24" fill="none" xmlns="http://www.w3.org/2000/svg">
<path fill-rule="evenodd" clip-rule="evenodd" d="M2.70996 7.76831V18.3301C2.70996 19.8489 3.94118 21.0801 5.45996 21.0801H19.3699C20.8887 21.0801 22.1199 19.8489 22.1199 18.3301V6.33008C22.1199 4.8113 20.8887 3.58008 19.3699 3.58008H5.45996C3.94118 3.58008 2.70996 4.8113 2.70996 6.33008V7.73006C2.70963 7.74283 2.70964 7.75558 2.70996 7.76831ZM4.20996 6.33008C4.20996 5.63972 4.7696 5.08008 5.45996 5.08008H19.3699C20.0603 5.08008 20.6199 5.63972 20.6199 6.33008V7.31073L12.4098 12.0442L4.20996 7.31663V6.33008ZM4.20996 9.04807L12.0352 13.5596C12.2671 13.6933 12.5526 13.6933 12.7844 13.5596L20.6199 9.04217V18.3301C20.6199 19.0204 20.0603 19.5801 19.3699 19.5801H5.45996C4.7696 19.5801 4.20996 19.0204 4.20996 18.3301V9.04807Z" fill="#10181B"/>
</svg>
