<svg width="24" height="24" viewBox="0 0 24 24" fill="none" xmlns="http://www.w3.org/2000/svg">
<path d="M13.43 2.76335C13.0176 2.72461 12.6519 3.02753 12.6132 3.43993C12.5745 3.85233 12.8774 4.21804 13.2898 4.25677C14.902 4.4082 16.4662 5.08255 17.7054 6.2872C17.725 6.31263 17.7464 6.3371 17.7697 6.36041C19.0203 7.61097 19.7189 9.2056 19.8733 10.8502C19.9121 11.2626 20.2778 11.5655 20.6902 11.5268C21.1026 11.4881 21.4055 11.1223 21.3668 10.7099C21.1846 8.77009 20.3699 6.87848 18.9112 5.38161C18.8898 5.35306 18.8662 5.32568 18.8402 5.29973C17.3308 3.79029 15.4054 2.94888 13.43 2.76335Z" fill="#10181B"/>
<path fill-rule="evenodd" clip-rule="evenodd" d="M8.69029 4.33944C8.56269 4.21184 8.40556 4.06515 8.19785 3.94829C7.98136 3.8265 7.75355 3.76058 7.50192 3.72475C7.04945 3.66033 6.3936 3.68156 5.38127 3.72031C4.27641 3.76261 3.37024 4.00702 2.80305 4.64535C2.22473 5.29621 2.17772 6.1523 2.27551 6.95092C2.4648 8.4968 3.22759 12.8778 7.19634 16.8766L7.21035 16.891C11.218 20.8882 15.6187 21.6546 17.1688 21.8444C17.9674 21.9422 18.8235 21.8952 19.4744 21.3169C20.1127 20.7497 20.3571 19.8435 20.3994 18.7387C20.4382 17.7263 20.4594 17.0705 20.395 16.618C20.3592 16.3664 20.2933 16.1386 20.1715 15.9221C20.0546 15.7144 19.9079 15.5572 19.7803 15.4296C19.1353 14.7846 18.1876 14.5763 17.3233 14.3958C17.0625 14.3413 16.8389 14.2668 16.5826 14.1814C16.421 14.1275 16.2464 14.0693 16.0413 14.0091C15.5996 13.8794 14.9938 13.7387 14.3998 13.9395C14.0936 14.043 13.8378 14.2258 13.6402 14.3955C13.4393 14.5682 13.2594 14.7622 13.1141 14.9242C13.0679 14.9758 13.0266 15.0224 12.9889 15.0649L12.988 15.0659C12.9438 15.1158 12.9045 15.1601 12.8683 15.2C12.7011 15.1017 12.4872 14.9583 12.2453 14.7806C11.7268 14.3996 11.1355 13.9023 10.6882 13.4575L10.6803 13.4494C10.231 13.0001 9.72538 12.3999 9.33936 11.8745C9.16164 11.6325 9.01822 11.4186 8.9199 11.2515C8.9598 11.2153 9.00402 11.1761 9.05392 11.1318L9.05498 11.1309C9.09749 11.0932 9.14411 11.0519 9.1957 11.0056C9.3577 10.8603 9.55172 10.6805 9.7244 10.4795C9.89415 10.282 10.0769 10.0262 10.1805 9.71994C10.3813 9.12592 10.2405 8.52017 10.1108 8.07848C10.0506 7.87336 9.9924 7.69876 9.93853 7.53714C9.85311 7.28089 9.77857 7.05728 9.72412 6.79648C9.54366 5.93216 9.33532 4.98447 8.69029 4.33944ZM9.59872 14.4891C9.09382 13.9814 8.54875 13.3318 8.13054 12.7626C7.91892 12.4745 7.72917 12.1927 7.59117 11.9501C7.52288 11.8301 7.45801 11.7036 7.40998 11.5808C7.37476 11.4907 7.29634 11.2793 7.3254 11.0395C7.35219 10.8185 7.45483 10.652 7.5183 10.5618C7.58876 10.4616 7.67065 10.3733 7.74077 10.303C7.84333 10.2001 7.97469 10.0837 8.09172 9.98006C8.12765 9.94823 8.16223 9.91759 8.19421 9.88891C8.34721 9.7517 8.48069 9.62532 8.58676 9.50189C8.69576 9.37505 8.74296 9.28837 8.75945 9.23959C8.79865 9.12361 8.7944 8.91936 8.67158 8.50105C8.64171 8.39932 8.60032 8.27341 8.55439 8.13369C8.45147 7.82062 8.32576 7.43819 8.25578 7.10305C8.05624 6.14737 7.90459 5.67506 7.62963 5.4001C7.52722 5.29769 7.48685 5.26938 7.46237 5.25561C7.44667 5.24678 7.40761 5.22645 7.29049 5.20978C7.00546 5.1692 6.51631 5.17797 5.43864 5.21922C4.4535 5.25693 4.07467 5.47251 3.92435 5.64168C3.78517 5.79832 3.68218 6.09723 3.76439 6.76861C3.93458 8.15851 4.62815 12.1777 8.29098 15.8501L8.29537 15.8546C11.9608 19.495 15.9645 20.1857 17.3511 20.3555C18.0225 20.4377 18.3214 20.3347 18.4781 20.1956C18.6472 20.0452 18.8628 19.6664 18.9005 18.6813C18.9418 17.6036 18.9506 17.1145 18.91 16.8294C18.8933 16.7123 18.873 16.6733 18.8641 16.6575C18.8504 16.6331 18.8221 16.5927 18.7197 16.4903C18.4447 16.2153 17.9724 16.0637 17.0167 15.8641C16.6816 15.7942 16.2991 15.6685 15.9861 15.5655C15.8463 15.5196 15.7204 15.4782 15.6187 15.4483C15.2004 15.3255 14.9961 15.3213 14.8802 15.3605C14.8314 15.377 14.7447 15.4242 14.6179 15.5332C14.4944 15.6392 14.3681 15.7727 14.2308 15.9257C14.2022 15.9577 14.1715 15.9923 14.1397 16.0282C14.036 16.1452 13.9196 16.2766 13.8168 16.3791C13.7465 16.4493 13.6582 16.5312 13.558 16.6016C13.4678 16.6651 13.3013 16.7677 13.0802 16.7945C12.8405 16.8236 12.6291 16.7452 12.539 16.7099C12.4162 16.6619 12.2897 16.597 12.1696 16.5288C11.927 16.3908 11.6452 16.201 11.3572 15.9894C10.7801 15.5654 10.1204 15.011 9.60966 14.5003L9.59872 14.4891ZM8.80029 11.0147C8.80065 11.0149 8.80265 11.0202 8.80522 11.0299C8.80122 11.0193 8.79993 11.0144 8.80029 11.0147ZM13.1051 15.3196C13.1053 15.32 13.1004 15.3187 13.0898 15.3147C13.0996 15.3173 13.1049 15.3193 13.1051 15.3196Z" fill="#10181B"/>
<path d="M12.6292 6.7144C12.6932 6.30516 13.0768 6.02523 13.486 6.08918C14.5653 6.25781 15.5853 6.75219 16.4206 7.54286C16.4533 7.56667 16.4846 7.59345 16.5139 7.62319C17.3533 8.47405 17.8765 9.5274 18.051 10.6441C18.1149 11.0534 17.835 11.437 17.4258 11.5009C17.0165 11.5649 16.6329 11.2849 16.569 10.8757C16.4483 10.1033 16.0953 9.36473 15.5165 8.74975C15.4948 8.73258 15.4737 8.71404 15.4535 8.69411C14.8244 8.07347 14.0577 7.69671 13.2544 7.57119C12.8452 7.50725 12.5653 7.12365 12.6292 6.7144Z" fill="#10181B"/>
</svg>
