<svg width="16" height="16" viewBox="0 0 16 16" fill="none" xmlns="http://www.w3.org/2000/svg">
<g clip-path="url(#clip0_29_31574)">
<path fill-rule="evenodd" clip-rule="evenodd" d="M13.0881 11.2304C13.1705 10.8981 13.0175 10.5526 12.7169 10.3901C12.7148 10.389 12.7088 10.3855 12.6996 10.3799C12.681 10.3684 12.6494 10.3481 12.6092 10.3189C12.5279 10.2597 12.4167 10.1679 12.3059 10.0431C12.0875 9.79715 11.8801 9.43725 11.8801 8.92986V6.10986C11.8801 3.53187 9.79036 1.60986 7.70011 1.60986C5.61254 1.60986 3.51011 3.52913 3.51011 6.10986V8.92986C3.51011 9.43923 3.30359 9.79985 3.08732 10.0454C2.97753 10.17 2.86746 10.2617 2.78711 10.3206C2.74736 10.3498 2.7162 10.37 2.69786 10.3813C2.68886 10.3869 2.68309 10.3902 2.68105 10.3914C2.3815 10.5547 2.22964 10.9 2.31247 11.2316C2.39588 11.5656 2.6959 11.7999 3.04011 11.7999H12.3601C12.7048 11.7999 13.0051 11.5649 13.0881 11.2304ZM12.3601 11.0499C12.7105 10.3868 12.7108 10.3869 12.7111 10.3871L12.3601 11.0499ZM12.7169 10.3901C12.7179 10.3907 12.7179 10.3907 12.7169 10.3901Z" fill="#10181B"/>
<path d="M7.70004 13.8398C9.08004 13.8398 8.95004 12.5898 8.95004 12.5898H6.45004C6.45004 12.5898 6.32004 13.8398 7.70004 13.8398Z" fill="#10181B"/>
</g>
<defs>
<clipPath id="clip0_29_31574">
<rect width="16" height="16" fill="white"/>
</clipPath>
</defs>
</svg>
