<svg width="24" height="24" viewBox="0 0 24 24" fill="none" xmlns="http://www.w3.org/2000/svg">
<path fill-rule="evenodd" clip-rule="evenodd" d="M12.3819 4.18497C12.7655 3.99858 13.0299 3.60517 13.0299 3.15C13.0299 2.51487 12.5151 2 11.8799 2C11.2448 2 10.7299 2.51487 10.7299 3.15C10.7299 3.60517 10.9944 3.99858 11.378 4.18497C8.44807 4.4732 5.62005 7.24237 5.62005 10.9302V15.4402C5.62005 16.3943 5.22876 17.0747 4.82782 17.5288C4.62567 17.7577 4.42323 17.926 4.27358 18.0354C4.1992 18.0898 4.13918 18.1287 4.10063 18.1525C4.0814 18.1643 4.06765 18.1723 4.0603 18.1765L4.05509 18.1795C3.75348 18.3418 3.59944 18.6885 3.68225 19.0213C3.76544 19.3555 4.06561 19.5902 4.41005 19.5902H19.3498C19.6943 19.5902 19.9944 19.3555 20.0776 19.0213C20.1604 18.6885 20.007 18.3422 19.7054 18.1798L19.6996 18.1765C19.6922 18.1723 19.6785 18.1643 19.6593 18.1525C19.6207 18.1287 19.5607 18.0898 19.4863 18.0354C19.3367 17.926 19.1342 17.7577 18.9321 17.5288C18.5311 17.0747 18.1398 16.3943 18.1398 15.4402V10.9302C18.1398 7.24236 15.3118 4.47318 12.3819 4.18497ZM7.12005 10.9302C7.12005 7.82847 9.63992 5.6603 11.8798 5.66016C14.1198 5.66016 16.6398 7.82837 16.6398 10.9302V15.4402C16.6398 16.5684 17.0189 17.4478 17.468 18.0902H6.29193C6.74094 17.4478 7.12005 16.5684 7.12005 15.4402V10.9302ZM4.41005 18.8402C4.05852 18.1776 4.05822 18.1778 4.05793 18.178L4.41005 18.8402ZM19.702 18.178C19.7017 18.1778 19.7014 18.1776 19.3498 18.8402L19.702 18.178Z" fill="#10181B"/>
<path d="M13.8798 20.7C13.8798 20.7 14.0898 22.7 11.8798 22.7C9.66982 22.7 9.87982 20.7 9.87982 20.7H13.8798Z" fill="#10181B"/>
</svg>
