<svg width="16" height="16" viewBox="0 0 16 16" fill="none" xmlns="http://www.w3.org/2000/svg">
<path fill-rule="evenodd" clip-rule="evenodd" d="M6.25885 2.4684C6.16743 2.37394 6.04194 2.2534 5.86894 2.1567C5.68899 2.05612 5.50434 2.00651 5.31724 1.98074C5.00383 1.93756 4.56051 1.95045 3.93881 1.96852L3.87816 1.97028C3.12371 1.99215 2.43378 2.15862 1.98894 2.66497C1.53649 3.17999 1.51781 3.83996 1.58569 4.38299C1.71526 5.41963 2.23107 8.40248 4.93061 11.0913C4.93144 11.0922 4.93227 11.093 4.9331 11.0938C7.62079 13.7894 10.6009 14.3047 11.6369 14.4342C12.18 14.5021 12.8399 14.4834 13.355 14.031C13.8613 13.5861 14.0278 12.8962 14.0497 12.1417L14.0514 12.0811C14.0695 11.4594 14.0824 11.0161 14.0392 10.7026C14.0134 10.5156 13.9638 10.3309 13.8632 10.1509C13.7665 9.97795 13.646 9.85247 13.5515 9.76105C13.0603 9.28565 12.3894 9.13911 11.8047 9.0241C11.6415 8.99198 11.5115 8.94907 11.3489 8.89539C11.2456 8.86129 11.1292 8.82284 10.9827 8.78007C10.6884 8.69413 10.2224 8.57862 9.74826 8.74001C9.50248 8.82369 9.3051 8.96765 9.16285 9.09017C9.01732 9.21552 8.88975 9.35381 8.79307 9.46152L8.77763 9.47875C8.7107 9.43396 8.63654 9.38199 8.55669 9.32355C8.21843 9.07596 7.8337 8.75309 7.55029 8.46967C7.54888 8.46826 7.54747 8.46687 7.54606 8.46547C7.26365 8.18246 6.94272 7.79984 6.69634 7.46324C6.6379 7.38339 6.58593 7.30923 6.54114 7.2423L6.55837 7.22685C6.66608 7.13018 6.80438 7.00261 6.92972 6.85708C7.05225 6.71483 7.19621 6.51745 7.27988 6.27166C7.44127 5.79757 7.32577 5.33152 7.23982 5.03722C7.19705 4.89075 7.1586 4.77431 7.1245 4.67103C7.07083 4.50845 7.02791 4.37847 6.99579 4.2152C6.88078 3.63057 6.73425 2.95965 6.25885 2.4684ZM6.49433 9.53503C6.49273 9.53346 6.49114 9.53188 6.48956 9.5303C6.14298 9.18371 5.77085 8.73844 5.48594 8.3492C5.3437 8.15487 5.21295 7.96059 5.11533 7.78932C5.06718 7.70484 5.01833 7.61076 4.98043 7.51564C4.95486 7.45145 4.88328 7.26873 4.90297 7.05206C4.9223 6.83948 5.01666 6.68333 5.06913 6.60646C5.12802 6.52017 5.19445 6.44818 5.24541 6.39647C5.32165 6.31912 5.4203 6.23156 5.4993 6.16144L5.55641 6.11058C5.65621 6.02101 5.73416 5.9467 5.79318 5.87816C5.84057 5.82315 5.85667 5.79333 5.85995 5.78725C5.86167 5.77634 5.87047 5.69916 5.79996 5.45771C5.785 5.40646 5.76269 5.33782 5.7368 5.25811C5.66772 5.0455 5.57308 4.75422 5.524 4.50473C5.39901 3.86937 5.30554 3.64029 5.18094 3.51154C5.16197 3.49193 5.14867 3.47912 5.14001 3.47113C5.13324 3.46984 5.12422 3.46831 5.11254 3.4667C4.94606 3.44377 4.64798 3.4486 3.92162 3.46965C3.29608 3.48779 3.14101 3.62632 3.11585 3.65496C3.0983 3.67494 3.02198 3.77997 3.0741 4.19694C3.18446 5.07977 3.62816 7.67428 5.98483 10.0243C5.98701 10.0264 5.98918 10.0286 5.99134 10.0307C8.34247 12.3912 10.9396 12.8354 11.823 12.9458C12.24 12.9979 12.345 12.9216 12.365 12.904C12.3936 12.8789 12.5321 12.7238 12.5503 12.0983C12.5713 11.3719 12.5762 11.0738 12.5532 10.9074C12.5516 10.8957 12.5501 10.8867 12.5488 10.8799C12.5408 10.8712 12.528 10.8579 12.5084 10.839C12.3796 10.7144 12.1506 10.6209 11.5152 10.4959C11.2657 10.4468 10.9744 10.3522 10.7618 10.2831C10.6821 10.2572 10.6135 10.2349 10.5622 10.2199C10.3208 10.1494 10.2438 10.1581 10.2329 10.1598C10.2268 10.1631 10.1968 10.1793 10.1418 10.2267C10.0732 10.2857 9.99892 10.3637 9.90935 10.4635L9.85849 10.5206C9.78837 10.5996 9.70081 10.6982 9.62346 10.7745C9.57175 10.8254 9.49976 10.8919 9.41347 10.9508C9.3366 11.0032 9.18045 11.0976 8.96787 11.1169C8.7512 11.1366 8.56848 11.065 8.50429 11.0395C8.40916 11.0016 8.31509 10.9527 8.23061 10.9046C8.05934 10.8069 7.86506 10.6762 7.67073 10.534C7.28325 10.2503 6.84023 9.88027 6.49433 9.53503ZM6.37393 6.96051C6.36922 6.9487 6.37143 6.95128 6.3761 6.96559L6.37393 6.96051ZM9.05942 9.64597L9.05434 9.64379C9.06865 9.64846 9.07123 9.65067 9.05942 9.64597Z" fill="#10181B"/>
</svg>
