<svg width="16" height="16" viewBox="0 0 16 16" fill="none" xmlns="http://www.w3.org/2000/svg">
<path fill-rule="evenodd" clip-rule="evenodd" d="M3.10005 11.8001H12.42C12.7642 11.8001 13.0642 11.5658 13.1477 11.2319C13.2305 10.9003 13.0786 10.555 12.7791 10.3917C12.777 10.3905 12.7713 10.3871 12.7623 10.3816C12.7439 10.3702 12.7128 10.35 12.673 10.3209C12.5927 10.2619 12.4826 10.1703 12.3728 10.0456C12.1565 9.80011 11.95 9.43949 11.95 8.93012V6.12012C11.95 3.54213 9.86026 1.62012 7.77001 1.62012L7.76003 1.62018L7.75005 1.62012C5.6598 1.62012 3.57005 3.54213 3.57005 6.12012V8.93012C3.57005 9.43949 3.36352 9.80011 3.14725 10.0456C3.03747 10.1703 2.9274 10.2619 2.84704 10.3209C2.8073 10.35 2.77614 10.3702 2.75779 10.3816C2.7488 10.3871 2.74303 10.3905 2.74099 10.3917C2.44144 10.555 2.28958 10.9003 2.3724 11.2319C2.45581 11.5658 2.75584 11.8001 3.10005 11.8001ZM7.75005 3.12012C6.5203 3.12012 5.07005 4.33811 5.07005 6.12012V8.93012C5.07005 9.46825 4.94344 9.9244 4.76285 10.3001H10.7572C10.5766 9.9244 10.45 9.46825 10.45 8.93012V6.12012C10.45 4.33811 8.99976 3.12012 7.77001 3.12012L7.76003 3.12005L7.75005 3.12012Z" fill="#10181B"/>
<path d="M7.7601 13.8398C9.1401 13.8398 9.0101 12.5898 9.0101 12.5898H6.5101C6.5101 12.5898 6.3801 13.8398 7.7601 13.8398Z" fill="#10181B"/>
</svg>
