<svg width="16" height="16" viewBox="0 0 16 16" fill="none" xmlns="http://www.w3.org/2000/svg">
<path fill-rule="evenodd" clip-rule="evenodd" d="M2.1001 5.42C2.09977 5.43277 2.09977 5.44552 2.1001 5.45825V11.27C2.1001 12.7888 3.33131 14.02 4.8501 14.02H12.0101C13.5289 14.02 14.7601 12.7888 14.7601 11.27V5.44265C14.7601 5.4403 14.7601 5.43795 14.7601 5.4356V5.30005C14.7601 3.78127 13.5289 2.55005 12.0101 2.55005H4.8501C3.33131 2.55005 2.1001 3.78127 2.1001 5.30005V5.42ZM3.63074 5.02373C3.75652 4.46633 4.25469 4.05005 4.8501 4.05005H12.0101C12.6054 4.05005 13.1036 4.46627 13.2294 5.02361L8.42997 7.78458L3.63074 5.02373ZM13.2601 6.73645V11.27C13.2601 11.9604 12.7004 12.52 12.0101 12.52H4.8501C4.15974 12.52 3.6001 11.9604 3.6001 11.27V6.73659L8.05598 9.29993C8.28752 9.43313 8.57242 9.43313 8.80395 9.29993L13.2601 6.73645Z" fill="#10181B"/>
</svg>
