<svg width="24" height="24" viewBox="0 0 24 24" fill="none" xmlns="http://www.w3.org/2000/svg">
<path d="M12.0717 4.18507C12.4554 3.99871 12.7199 3.60525 12.7199 3.15C12.7199 2.51487 12.2051 2 11.5699 2C10.9348 2 10.4199 2.51487 10.4199 3.15C10.4199 3.60528 10.6845 3.99877 11.0683 4.18511C8.14762 4.47396 5.31017 7.24087 5.31017 10.9202V15.4402C5.31017 15.5258 5.30698 15.6093 5.30088 15.6907C5.23947 16.5098 4.88305 17.1105 4.51738 17.5257C4.31488 17.7555 4.11204 17.9249 3.96203 18.0352C3.88746 18.0901 3.82727 18.1294 3.78856 18.1534C3.76925 18.1654 3.75542 18.1735 3.74799 18.1778L3.74549 18.1792L3.74207 18.1812C3.44154 18.3445 3.28938 18.6906 3.37273 19.0227C3.45645 19.3563 3.75628 19.5902 4.10017 19.5902H19.0402C19.3844 19.5902 19.6844 19.3559 19.7678 19.022C19.8509 18.6895 19.698 18.3432 19.3969 18.1804L19.3908 18.177C19.3833 18.1727 19.3694 18.1645 19.3499 18.1525C19.3109 18.1284 19.2503 18.089 19.1753 18.0341C19.0243 17.9237 18.8203 17.7542 18.6167 17.5242C18.2124 17.0676 17.8202 16.3874 17.8202 15.4402V10.9202C17.8202 7.24226 14.9928 4.47378 12.0717 4.18507Z" fill="#10181B"/>
<path d="M13.5701 20.7C13.5701 20.7 13.7801 22.7 11.5701 22.7C9.36005 22.7 9.57005 20.7 9.57005 20.7H13.5701Z" fill="#10181B"/>
</svg>
