<svg width="16" height="16" viewBox="0 0 16 16" fill="none" xmlns="http://www.w3.org/2000/svg">
<path d="M7.86987 6.25C8.28409 6.25 8.61987 6.58579 8.61987 7V9.21C8.61987 9.62421 8.28409 9.96 7.86987 9.96C7.45566 9.96 7.11987 9.62421 7.11987 9.21V7C7.11987 6.58579 7.45566 6.25 7.86987 6.25Z" fill="#10181B"/>
<path d="M8.74 4.87C8.74 5.35049 8.35049 5.74 7.87 5.74C7.38951 5.74 7 5.35049 7 4.87C7 4.38951 7.38951 4 7.87 4C8.35049 4 8.74 4.38951 8.74 4.87Z" fill="#10181B"/>
<path fill-rule="evenodd" clip-rule="evenodd" d="M1.44995 4.43304C1.44995 3.23065 2.43061 2.25 3.63299 2.25H12.2312C13.4336 2.25 14.4143 3.23065 14.4143 4.43304V9.72096C14.4143 10.9233 13.4336 11.904 12.2312 11.904H5.54615L1.44995 14.4628V4.43304ZM3.63299 3.75C3.25903 3.75 2.94995 4.05908 2.94995 4.43304V11.7572L5.11614 10.404H12.2312C12.6052 10.404 12.9143 10.0949 12.9143 9.72096V4.43304C12.9143 4.05908 12.6052 3.75 12.2312 3.75H3.63299Z" fill="#10181B"/>
</svg>
