<svg width="16" height="16" viewBox="0 0 16 16" fill="none" xmlns="http://www.w3.org/2000/svg">
<path d="M2.03032 6.68274C5.27398 3.43909 10.5274 3.43909 13.7711 6.68274L14.3014 7.21307L15.3621 6.15241L14.8318 5.62208C11.0023 1.79264 4.79911 1.79264 0.969661 5.62208L0.439331 6.15241L1.49999 7.21307L2.03032 6.68274Z" fill="#10181B"/>
<path d="M11.6383 8.81685C9.57077 6.75498 6.22409 6.75603 4.16399 8.81613L3.63366 9.34646L2.573 8.2858L3.10333 7.75547C5.75001 5.10878 10.0453 5.10982 12.6975 7.75474L13.2286 8.28434L12.1694 9.34645L11.6383 8.81685Z" fill="#10181B"/>
<path d="M7.90063 10.1609C7.21909 10.1609 6.56323 10.4318 6.08403 10.911L5.5537 11.4414L4.49304 10.3807L5.02337 9.85036C5.78552 9.08821 6.8236 8.66089 7.90063 8.66089C8.97767 8.66089 10.0157 9.08821 10.7779 9.85036L11.3082 10.3807L10.2476 11.4414L9.71723 10.911C9.23803 10.4318 8.58217 10.1609 7.90063 10.1609Z" fill="#10181B"/>
<path d="M7.91398 11.9302C7.23196 11.9302 6.67908 12.4831 6.67908 13.1651C6.67908 13.8471 7.23196 14.4 7.91398 14.4C8.596 14.4 9.14888 13.8471 9.14888 13.1651C9.14888 12.4831 8.596 11.9302 7.91398 11.9302Z" fill="#10181B"/>
</svg>
