<svg width="16" height="16" viewBox="0 0 16 16" fill="none" xmlns="http://www.w3.org/2000/svg">
<path d="M10.8738 3.06558C7.62089 2.22031 4.01919 3.07244 1.46966 5.62197L0.939331 6.1523L1.99999 7.21296L2.53032 6.68263C4.45885 4.7541 7.09783 3.97219 9.60246 4.33688L10.8738 3.06558Z" fill="#10181B"/>
<path d="M8.16471 5.77463C6.50727 5.83128 4.8673 6.49138 3.60333 7.75535L3.073 8.28568L4.13366 9.34634L4.66399 8.81601C5.11763 8.36237 5.63367 8.00857 6.18469 7.75465L8.16471 5.77463Z" fill="#10181B"/>
<path d="M1.53039 14.5303L2.53039 15.5303L7.83755 10.2231C8.02102 10.182 8.20982 10.1608 8.40063 10.1608C9.08217 10.1608 9.73803 10.4317 10.2172 10.9109L10.7476 11.4412L11.8082 10.3806L11.2779 9.85025C10.7312 9.30359 10.0426 8.92918 9.29949 8.76117L10.3991 7.6616C11.0316 7.91926 11.6244 8.30428 12.1383 8.81674L12.6694 9.34634L13.7286 8.28423L13.1975 7.75462C12.693 7.25152 12.1291 6.84407 11.5283 6.53232L12.6452 5.41544C13.225 5.761 13.7719 6.18339 14.2711 6.68263L14.8014 7.21296L15.8621 6.1523L15.3318 5.62197C14.8357 5.12585 14.2997 4.69401 13.7342 4.32644L15.5304 2.53027L14.5304 1.53027L1.53039 14.5303Z" fill="#10181B"/>
<path d="M8.41398 11.9301C7.73196 11.9301 7.17908 12.4829 7.17908 13.165C7.17908 13.847 7.73196 14.3999 8.41398 14.3999C9.096 14.3999 9.64888 13.847 9.64888 13.165C9.64888 12.4829 9.096 11.9301 8.41398 11.9301Z" fill="#10181B"/>
</svg>
