<svg width="24" height="24" viewBox="0 0 24 24" fill="none" xmlns="http://www.w3.org/2000/svg">
<path d="M21.5304 2.53027L3.53039 20.5303L4.53039 21.5303L10.3489 15.7118C10.8683 15.5014 11.4288 15.39 11.9996 15.39C13.1619 15.39 14.2808 15.8518 15.0993 16.6704L15.6296 17.2007L16.6903 16.14L16.16 15.6097C15.0983 14.548 13.6653 13.9353 12.1682 13.8924L14.7051 11.3556C15.9347 11.7624 17.0908 12.4542 18.0702 13.4309L18.6013 13.9605L19.6605 12.8984L19.1294 12.3688C18.1654 11.4074 17.0554 10.681 15.8709 10.1898L18.2496 7.8111C19.3705 8.41134 20.4234 9.1844 21.3693 10.1303L21.8996 10.6606L22.9603 9.59995L22.43 9.06961C21.4891 8.12875 20.453 7.34149 19.3528 6.70784L22.5304 3.53027L21.5304 2.53027Z" fill="#10181B"/>
<path d="M5.93022 13.4301C7.33916 12.0212 9.11834 11.2052 10.9568 10.9825L12.5067 9.43265C9.7586 9.29434 6.96596 10.2731 4.86956 12.3695L4.33923 12.8998L5.39989 13.9605L5.93022 13.4301Z" fill="#10181B"/>
<path d="M16.4935 5.44588L15.281 6.65835C10.8999 5.54233 6.06057 6.69964 2.62993 10.1303L2.0996 10.6606L1.03894 9.59995L1.56927 9.06961C5.60902 5.02986 11.404 3.82195 16.4935 5.44588Z" fill="#10181B"/>
<path d="M10.52 18.8998C10.52 18.0714 11.1916 17.3998 12.02 17.3998C12.8484 17.3998 13.52 18.0714 13.52 18.8998C13.52 19.7282 12.8484 20.3998 12.02 20.3998C11.1916 20.3998 10.52 19.7282 10.52 18.8998Z" fill="#10181B"/>
</svg>
