<svg width="16" height="16" viewBox="0 0 16 16" fill="none" xmlns="http://www.w3.org/2000/svg">
<g clip-path="url(#clip0_29_33316)">
<path d="M4.49005 3.87012H4.01004C3.89958 3.87012 3.81006 3.95966 3.81006 4.07011V4.55012C3.81006 4.66057 3.89958 4.75011 4.01004 4.75011H4.49005C4.60051 4.75011 4.69003 4.66057 4.69003 4.55012V4.07011C4.69003 3.95966 4.60051 3.87012 4.49005 3.87012Z" fill="#10181B"/>
<path fill-rule="evenodd" clip-rule="evenodd" d="M1.25 3C1.25 2.0335 2.0335 1.25 3 1.25H5.5C6.4665 1.25 7.25 2.0335 7.25 3V5.5C7.25 6.4665 6.4665 7.25 5.5 7.25H3C2.0335 7.25 1.25 6.4665 1.25 5.5V3ZM3 2.75C2.86193 2.75 2.75 2.86193 2.75 3V5.5C2.75 5.63807 2.86193 5.75 3 5.75H5.5C5.63807 5.75 5.75 5.63807 5.75 5.5V3C5.75 2.86193 5.63807 2.75 5.5 2.75H3Z" fill="#10181B"/>
<path d="M10.97 3.87012H11.45C11.5605 3.87012 11.65 3.95966 11.65 4.07011V4.55012C11.65 4.66057 11.5605 4.75011 11.45 4.75011H10.97C10.8596 4.75011 10.77 4.66057 10.77 4.55012V4.07011C10.77 3.95966 10.8596 3.87012 10.97 3.87012Z" fill="#10181B"/>
<path fill-rule="evenodd" clip-rule="evenodd" d="M8.20996 3C8.20996 2.0335 8.99346 1.25 9.95996 1.25H12.46C13.4265 1.25 14.21 2.0335 14.21 3V5.5C14.21 6.4665 13.4265 7.25 12.46 7.25H9.95996C8.99346 7.25 8.20996 6.4665 8.20996 5.5V3ZM9.95996 2.75C9.82189 2.75 9.70996 2.86193 9.70996 3V5.5C9.70996 5.63807 9.82189 5.75 9.95996 5.75H12.46C12.598 5.75 12.71 5.63807 12.71 5.5V3C12.71 2.86193 12.598 2.75 12.46 2.75H9.95996Z" fill="#10181B"/>
<path d="M4.01004 10.8398H4.49005C4.60051 10.8398 4.69003 10.9294 4.69003 11.0398V11.5198C4.69003 11.6303 4.60051 11.7198 4.49005 11.7198H4.01004C3.89958 11.7198 3.81006 11.6303 3.81006 11.5198V11.0398C3.81006 10.9294 3.89958 10.8398 4.01004 10.8398Z" fill="#10181B"/>
<path fill-rule="evenodd" clip-rule="evenodd" d="M3 8.22998C2.0335 8.22998 1.25 9.01348 1.25 9.97998V12.48C1.25 13.4465 2.0335 14.23 3 14.23H5.5C6.4665 14.23 7.25 13.4465 7.25 12.48V9.97998C7.25 9.01348 6.4665 8.22998 5.5 8.22998H3ZM2.75 9.97998C2.75 9.84191 2.86193 9.72998 3 9.72998H5.5C5.63807 9.72998 5.75 9.84191 5.75 9.97998V12.48C5.75 12.6181 5.63807 12.73 5.5 12.73H3C2.86193 12.73 2.75 12.6181 2.75 12.48V9.97998Z" fill="#10181B"/>
<path d="M11.5702 10.3999H10.9102C10.634 10.3999 10.4102 10.6238 10.4102 10.8999V11.5599C10.4102 11.836 10.634 12.0599 10.9102 12.0599H11.5702C11.8463 12.0599 12.0702 11.836 12.0702 11.5599V10.8999C12.0702 10.6238 11.8463 10.3999 11.5702 10.3999Z" fill="#10181B"/>
<path d="M12.98 12.4702H13.64C13.9161 12.4702 14.14 12.6941 14.14 12.9702V13.6302C14.14 13.9064 13.9161 14.1302 13.64 14.1302H12.98C12.7038 14.1302 12.48 13.9064 12.48 13.6302V12.9702C12.48 12.6941 12.7038 12.4702 12.98 12.4702Z" fill="#10181B"/>
<path d="M9.55991 12.4897H8.8999C8.62376 12.4897 8.3999 12.7136 8.3999 12.9897V13.6497C8.3999 13.9259 8.62376 14.1497 8.8999 14.1497H9.55991C9.83605 14.1497 10.0599 13.9259 10.0599 13.6497V12.9897C10.0599 12.7136 9.83605 12.4897 9.55991 12.4897Z" fill="#10181B"/>
<path d="M12.98 8.30029H13.64C13.9161 8.30029 14.14 8.52415 14.14 8.80029V9.46029C14.14 9.73643 13.9161 9.96029 13.64 9.96029H12.98C12.7038 9.96029 12.48 9.73643 12.48 9.46029V8.80029C12.48 8.52415 12.7038 8.30029 12.98 8.30029Z" fill="#10181B"/>
<path d="M9.55991 8.31006H8.8999C8.62376 8.31006 8.3999 8.53392 8.3999 8.81006V9.47006C8.3999 9.7462 8.62376 9.97006 8.8999 9.97006H9.55991C9.83605 9.97006 10.0599 9.7462 10.0599 9.47006V8.81006C10.0599 8.53392 9.83605 8.31006 9.55991 8.31006Z" fill="#10181B"/>
</g>
<defs>
<clipPath id="clip0_29_33316">
<rect width="16" height="16" fill="white"/>
</clipPath>
</defs>
</svg>
