<svg width="16" height="16" viewBox="0 0 16 16" fill="none" xmlns="http://www.w3.org/2000/svg">
<path fill-rule="evenodd" clip-rule="evenodd" d="M6 3C3.23858 3 1 5.23858 1 8C1 10.7614 3.23858 13 6 13H10C12.7614 13 15 10.7614 15 8C15 5.23858 12.7614 3 10 3H6ZM4.5727 11.1038C4.5727 10.9953 4.55099 10.9083 4.46417 10.8217C2.9016 9.25889 2.9016 6.71937 4.46417 5.17829C4.61611 5.02635 4.61611 4.76589 4.46417 4.61395C4.31245 4.46202 4.05199 4.46202 3.89983 4.61395C2.03339 6.48061 2.03339 9.51936 3.89983 11.386C4.05199 11.538 4.31245 11.538 4.46417 11.386C4.5295 11.2992 4.5727 11.2124 4.5727 11.1038ZM11.324 11.1038C11.324 10.9953 11.3457 10.9083 11.4326 10.8217C12.9951 9.25889 12.9951 6.71937 11.4326 5.17829C11.2806 5.02635 11.2806 4.76589 11.4326 4.61395C11.5843 4.46202 11.8447 4.46202 11.9969 4.61395C13.8633 6.48061 13.8633 9.51936 11.9969 11.386C11.8447 11.538 11.5843 11.538 11.4326 11.386C11.3672 11.2992 11.324 11.2124 11.324 11.1038ZM5.74486 9.93174C5.74486 10.0403 5.70145 10.1271 5.63634 10.2139C5.4844 10.3658 5.22394 10.3658 5.072 10.2139C3.8565 8.99841 3.8565 7.00152 5.072 5.76431C5.22394 5.61238 5.4844 5.61238 5.63634 5.76431C5.78827 5.91625 5.78827 6.17672 5.63634 6.32865C4.72471 7.24028 4.72471 8.73794 5.63634 9.64957C5.70145 9.71468 5.74486 9.82321 5.74486 9.93174ZM6.78668 9.04188C6.8518 8.95506 6.89521 8.86824 6.89521 8.75971C6.89521 8.65119 6.8735 8.56436 6.78668 8.49925C6.50451 8.21708 6.50451 7.78297 6.78668 7.5008C6.93862 7.34887 6.93862 7.0884 6.78668 6.93646C6.63474 6.78453 6.3745 6.78453 6.22234 6.93646C5.6363 7.5008 5.6363 8.45584 6.22234 9.04188C6.3745 9.19382 6.63474 9.19382 6.78668 9.04188ZM10.1519 9.93174C10.1519 10.0403 10.1953 10.1271 10.2604 10.2139C10.4123 10.3658 10.6728 10.3658 10.8247 10.2139C12.0402 8.99841 12.0402 7.00152 10.8247 5.76431C10.6728 5.61238 10.4123 5.61238 10.2604 5.76431C10.1085 5.91625 10.1085 6.17672 10.2604 6.32865C11.172 7.24028 11.172 8.73794 10.2604 9.64957C10.1953 9.71468 10.1519 9.82321 10.1519 9.93174ZM9.11005 9.04188C9.04494 8.95506 9.00153 8.86824 9.00153 8.75971C9.00153 8.65119 9.02323 8.56436 9.11005 8.49925C9.39222 8.21708 9.39222 7.78297 9.11005 7.5008C8.95811 7.34887 8.95811 7.0884 9.11005 6.93646C9.26199 6.78453 9.52224 6.78453 9.67439 6.93646C10.2604 7.5008 10.2604 8.45584 9.67439 9.04188C9.52224 9.19382 9.26199 9.19382 9.11005 9.04188ZM7.38082 7.99994C7.38082 7.6865 7.63492 7.43241 7.94836 7.43241C8.26181 7.43241 8.5159 7.6865 8.5159 7.99994C8.5159 8.31339 8.26181 8.56748 7.94836 8.56748C7.63492 8.56748 7.38082 8.31339 7.38082 7.99994Z" fill="#10181B"/>
</svg>
