<svg width="24" height="24" viewBox="0 0 24 24" fill="none" xmlns="http://www.w3.org/2000/svg">
<path d="M7.03003 4.41016H5.52002C5.24388 4.41016 5.02002 4.63401 5.02002 4.91016V6.42016C5.02002 6.6963 5.24388 6.92016 5.52002 6.92016H7.03003C7.30617 6.92016 7.53003 6.6963 7.53003 6.42016V4.91016C7.53003 4.63401 7.30617 4.41016 7.03003 4.41016Z" fill="#10181B"/>
<path fill-rule="evenodd" clip-rule="evenodd" d="M4.62988 1.25C3.1111 1.25 1.87988 2.48122 1.87988 4V7.28C1.87988 8.79878 3.1111 10.03 4.62988 10.03H7.90988C9.42867 10.03 10.6599 8.79878 10.6599 7.28V4C10.6599 2.48122 9.42867 1.25 7.90988 1.25H4.62988ZM3.37988 4C3.37988 3.30964 3.93953 2.75 4.62988 2.75H7.90988C8.60024 2.75 9.15988 3.30964 9.15988 4V7.28C9.15988 7.97036 8.60024 8.53 7.90988 8.53H4.62988C3.93953 8.53 3.37988 7.97036 3.37988 7.28V4Z" fill="#10181B"/>
<path d="M18.3 4.41016H16.79C16.5139 4.41016 16.29 4.63401 16.29 4.91016V6.42016C16.29 6.6963 16.5139 6.92016 16.79 6.92016H18.3C18.5762 6.92016 18.8 6.6963 18.8 6.42016V4.91016C18.8 4.63401 18.5762 4.41016 18.3 4.41016Z" fill="#10181B"/>
<path fill-rule="evenodd" clip-rule="evenodd" d="M13.1499 4C13.1499 2.48122 14.3811 1.25 15.8999 1.25H19.1799C20.6987 1.25 21.9299 2.48122 21.9299 4V7.28C21.9299 8.79878 20.6987 10.03 19.1799 10.03H15.8999C14.3811 10.03 13.1499 8.79878 13.1499 7.28V4ZM15.8999 2.75C15.2095 2.75 14.6499 3.30964 14.6499 4V7.28C14.6499 7.97036 15.2095 8.53 15.8999 8.53H19.1799C19.8703 8.53 20.4299 7.97036 20.4299 7.28V4C20.4299 3.30964 19.8703 2.75 19.1799 2.75H15.8999Z" fill="#10181B"/>
<path d="M7.03003 15.7197H5.52002C5.24388 15.7197 5.02002 15.9436 5.02002 16.2197V17.7297C5.02002 18.0059 5.24388 18.2297 5.52002 18.2297H7.03003C7.30617 18.2297 7.53003 18.0059 7.53003 17.7297V16.2197C7.53003 15.9436 7.30617 15.7197 7.03003 15.7197Z" fill="#10181B"/>
<path fill-rule="evenodd" clip-rule="evenodd" d="M4.62988 12.5601C3.1111 12.5601 1.87988 13.7913 1.87988 15.3101V18.5901C1.87988 20.1088 3.1111 21.3401 4.62988 21.3401H7.90988C9.42867 21.3401 10.6599 20.1088 10.6599 18.5901V15.3101C10.6599 13.7913 9.42867 12.5601 7.90988 12.5601H4.62988ZM3.37988 15.3101C3.37988 14.6197 3.93953 14.0601 4.62988 14.0601H7.90988C8.60024 14.0601 9.15988 14.6197 9.15988 15.3101V18.5901C9.15988 19.2804 8.60024 19.8401 7.90988 19.8401H4.62988C3.93953 19.8401 3.37988 19.2804 3.37988 18.5901V15.3101Z" fill="#10181B"/>
<path d="M16.79 15.6499H18.3C18.5762 15.6499 18.8 15.8738 18.8 16.1499V17.6599C18.8 17.936 18.5762 18.1599 18.3 18.1599H16.79C16.5139 18.1599 16.29 17.936 16.29 17.6599V16.1499C16.29 15.8738 16.5139 15.6499 16.79 15.6499Z" fill="#10181B"/>
<path d="M21.4202 18.77H19.9102C19.634 18.77 19.4102 18.9939 19.4102 19.27V20.78C19.4102 21.0562 19.634 21.28 19.9102 21.28H21.4202C21.6963 21.28 21.9202 21.0562 21.9202 20.78V19.27C21.9202 18.9939 21.6963 18.77 21.4202 18.77Z" fill="#10181B"/>
<path d="M13.75 18.79H15.26C15.5361 18.79 15.76 19.0139 15.76 19.29V20.8C15.76 21.0762 15.5361 21.3 15.26 21.3H13.75C13.4739 21.3 13.25 21.0762 13.25 20.8V19.29C13.25 19.0139 13.4739 18.79 13.75 18.79Z" fill="#10181B"/>
<path d="M21.4202 12.48H19.9102C19.634 12.48 19.4102 12.7038 19.4102 12.98V14.49C19.4102 14.7661 19.634 14.99 19.9102 14.99H21.4202C21.6963 14.99 21.9202 14.7661 21.9202 14.49V12.98C21.9202 12.7038 21.6963 12.48 21.4202 12.48Z" fill="#10181B"/>
<path d="M13.75 12.4902H15.26C15.5361 12.4902 15.76 12.7141 15.76 12.9902V14.5002C15.76 14.7764 15.5361 15.0002 15.26 15.0002H13.75C13.4739 15.0002 13.25 14.7764 13.25 14.5002V12.9902C13.25 12.7141 13.4739 12.4902 13.75 12.4902Z" fill="#10181B"/>
</svg>
