<svg width="24" height="24" viewBox="0 0 24 24" fill="none" xmlns="http://www.w3.org/2000/svg">
<path fill-rule="evenodd" clip-rule="evenodd" d="M9 5C5.13401 5 2 8.13401 2 12C2 15.866 5.13401 19 9 19H15C18.866 19 22 15.866 22 12C22 8.13401 18.866 5 15 5H9ZM7.10382 16.4341C7.10382 16.279 7.07281 16.1547 6.94878 16.031C4.71654 13.7984 4.71654 10.1705 6.94878 7.96899C7.16583 7.75193 7.16583 7.37984 6.94878 7.16279C6.73204 6.94574 6.35994 6.94574 6.14258 7.16279C3.47624 9.82944 3.47624 14.1705 6.14258 16.8372C6.35994 17.0542 6.73204 17.0542 6.94878 16.8372C7.04211 16.7131 7.10382 16.5891 7.10382 16.4341ZM16.7486 16.4341C16.7486 16.279 16.7796 16.1547 16.9036 16.031C19.1358 13.7984 19.1358 10.1705 16.9036 7.96899C16.6866 7.75193 16.6866 7.37984 16.9036 7.16279C17.1204 6.94574 17.4924 6.94574 17.7098 7.16279C20.3762 9.82944 20.3762 14.1705 17.7098 16.8372C17.4924 17.0542 17.1204 17.0542 16.9036 16.8372C16.8103 16.7131 16.7486 16.5891 16.7486 16.4341ZM8.77834 14.7596C8.77834 14.9147 8.71632 15.0387 8.6233 15.1627C8.40625 15.3798 8.03415 15.3798 7.8171 15.1627C6.08068 13.4263 6.08068 10.5736 7.8171 8.80616C8.03415 8.58911 8.40625 8.58911 8.6233 8.80616C8.84035 9.02321 8.84035 9.39531 8.6233 9.61236C7.32098 10.9147 7.32098 13.0542 8.6233 14.3565C8.71632 14.4495 8.77834 14.6046 8.77834 14.7596ZM10.2666 13.4884C10.3597 13.3644 10.4217 13.2403 10.4217 13.0853C10.4217 12.9303 10.3907 12.8062 10.2666 12.7132C9.86355 12.3101 9.86355 11.69 10.2666 11.2869C10.4837 11.0698 10.4837 10.6977 10.2666 10.4807C10.0496 10.2636 9.67781 10.2636 9.46045 10.4807C8.62325 11.2869 8.62325 12.6512 9.46045 13.4884C9.67781 13.7055 10.0496 13.7055 10.2666 13.4884ZM15.0741 14.7596C15.0741 14.9147 15.1361 15.0387 15.2291 15.1627C15.4461 15.3798 15.8182 15.3798 16.0353 15.1627C17.7717 13.4263 17.7717 10.5736 16.0353 8.80616C15.8182 8.58911 15.4461 8.58911 15.2291 8.80616C15.012 9.02321 15.012 9.39531 15.2291 9.61236C16.5314 10.9147 16.5314 13.0542 15.2291 14.3565C15.1361 14.4495 15.0741 14.6046 15.0741 14.7596ZM13.5857 13.4884C13.4927 13.3644 13.4307 13.2403 13.4307 13.0853C13.4307 12.9303 13.4617 12.8062 13.5857 12.7132C13.9888 12.3101 13.9888 11.69 13.5857 11.2869C13.3687 11.0698 13.3687 10.6977 13.5857 10.4807C13.8028 10.2636 14.1746 10.2636 14.3919 10.4807C15.2291 11.2869 15.2291 12.6512 14.3919 13.4884C14.1746 13.7055 13.8028 13.7055 13.5857 13.4884ZM11.1154 12C11.1154 11.5522 11.4784 11.1892 11.9262 11.1892C12.374 11.1892 12.737 11.5522 12.737 12C12.737 12.4477 12.374 12.8107 11.9262 12.8107C11.4784 12.8107 11.1154 12.4477 11.1154 12Z" fill="#10181B"/>
</svg>
