<svg width="24" height="24" viewBox="0 0 24 24" fill="none" xmlns="http://www.w3.org/2000/svg">
<path d="M2.62993 10.1304C7.80704 4.95328 16.1922 4.95328 21.3693 10.1304L21.8996 10.6607L22.9603 9.60006L22.43 9.06973C16.6671 3.30684 7.33216 3.30684 1.56927 9.06973L1.03894 9.60006L2.0996 10.6607L2.62993 10.1304Z" fill="#10181B"/>
<path d="M18.0702 13.431C14.7126 10.0825 9.27693 10.0835 5.93022 13.4303L5.39989 13.9606L4.33923 12.8999L4.86956 12.3696C8.80286 8.4363 15.1871 8.43734 19.1294 12.3689L19.6605 12.8985L18.6013 13.9606L18.0702 13.431Z" fill="#10181B"/>
<path d="M11.9996 15.3901C10.8374 15.3901 9.71848 15.8519 8.89995 16.6705L8.36962 17.2008L7.30896 16.1401L7.83929 15.6098C8.94076 14.5083 10.4419 13.8901 11.9996 13.8901C13.5574 13.8901 15.0585 14.5083 16.16 15.6098L16.6903 16.1401L15.6296 17.2008L15.0993 16.6705C14.2808 15.8519 13.1619 15.3901 11.9996 15.3901Z" fill="#10181B"/>
<path d="M12.02 17.3999C11.1916 17.3999 10.52 18.0715 10.52 18.8999C10.52 19.7283 11.1916 20.3999 12.02 20.3999C12.8484 20.3999 13.52 19.7283 13.52 18.8999C13.52 18.0715 12.8484 17.3999 12.02 17.3999Z" fill="#10181B"/>
</svg>
