<svg width="16" height="16" viewBox="0 0 16 16" fill="none" xmlns="http://www.w3.org/2000/svg">
<path d="M9.11664 5.33887H6.94226L7.30027 9.41165H8.66347L9.11664 5.33887Z" fill="#10181B"/>
<path d="M7.96835 12.3665C8.54272 12.3665 9.00835 11.9009 9.00835 11.3265C9.00835 10.7521 8.54272 10.2865 7.96835 10.2865C7.39397 10.2865 6.92834 10.7521 6.92834 11.3265C6.92834 11.9009 7.39397 12.3665 7.96835 12.3665Z" fill="#10181B"/>
<path fill-rule="evenodd" clip-rule="evenodd" d="M8.03102 1.23706C6.9562 1.23706 6.42448 2.12387 6.23784 2.43514C6.22545 2.4558 6.21459 2.47392 6.20518 2.48908C6.19828 2.50021 6.19167 2.51152 6.18536 2.523C6.04495 2.77827 5.25437 4.18996 4.33402 5.83335C3.01006 8.19743 1.4174 11.0413 1.10569 11.6115C0.739934 12.2806 0.678631 13.0548 1.0272 13.6993C1.38475 14.3605 2.08619 14.7247 2.90592 14.7247H8.00431C9.2264 14.7288 12.1027 14.7371 13.0131 14.7371C13.817 14.7371 14.5211 14.3622 14.9076 13.734C15.2982 13.0992 15.3082 12.2958 14.9034 11.5733C14.7604 11.3182 14.4879 10.8265 14.1389 10.1967L14.1337 10.1874C12.8229 7.82217 10.4412 3.52484 9.77948 2.48075L9.7729 2.47073C9.75788 2.44785 9.74117 2.4218 9.72285 2.39325C9.61261 2.22141 9.44424 1.95898 9.23659 1.75102C8.95992 1.47395 8.56732 1.23706 8.03102 1.23706ZM5.58335 6.67249C6.50449 5.0279 7.31001 3.58973 7.4901 3.26327L7.49272 3.25904C7.60451 3.07873 7.6842 2.9502 7.78827 2.84945C7.87513 2.76537 7.94259 2.73706 8.03102 2.73706C8.07688 2.73706 8.10718 2.74284 8.17515 2.8109C8.21711 2.85292 8.26474 2.91193 8.32411 2.99739C8.3661 3.05783 8.40183 3.11319 8.44372 3.17808C8.46542 3.2117 8.48878 3.24789 8.51552 3.28867C9.15489 4.29914 11.4744 8.48392 12.7902 10.8579C13.1539 11.5142 13.4412 12.0326 13.5948 12.3066C13.7541 12.5908 13.7144 12.811 13.63 12.948C13.5416 13.0917 13.3457 13.2371 13.0131 13.2371C12.1054 13.2371 9.22992 13.2288 8.00795 13.2247H2.90592C2.53656 13.2247 2.39756 13.08 2.34662 12.9858C2.2867 12.875 2.24887 12.6475 2.42186 12.331C2.74117 11.7469 4.27783 9.00337 5.58273 6.67361L5.58335 6.67249Z" fill="#10181B"/>
</svg>
