<svg width="24" height="24" viewBox="0 0 24 24" fill="none" xmlns="http://www.w3.org/2000/svg">
<path d="M13.4306 8.00024H10.715L11.1968 14.9565H12.8207L13.4306 8.00024Z" fill="#10181B"/>
<path d="M12 18.4502C12.5523 18.4502 13 18.0025 13 17.4502C13 16.8979 12.5523 16.4502 12 16.4502C11.4477 16.4502 11 16.8979 11 17.4502C11 18.0025 11.4477 18.4502 12 18.4502Z" fill="#10181B"/>
<path fill-rule="evenodd" clip-rule="evenodd" d="M12.0473 2.11768C10.6444 2.11768 9.94531 3.27083 9.65166 3.75522C9.63321 3.78567 9.61635 3.81347 9.60103 3.83818C9.59412 3.84931 9.58751 3.86062 9.5812 3.87209C9.36263 4.26949 8.15144 6.43217 6.74531 8.94293C4.73519 12.5322 2.32654 16.833 1.85014 17.7044C1.34376 18.6308 1.27633 19.6664 1.73153 20.5081C2.1957 21.3664 3.11653 21.8635 4.24664 21.8635H12.007C13.8667 21.8698 18.2452 21.8823 19.6303 21.8823C20.7309 21.8823 21.67 21.3717 22.1804 20.542C22.6949 19.7057 22.7179 18.6351 22.1659 17.6499C21.9455 17.2567 21.527 16.5015 20.9919 15.5361L20.9866 15.5265C18.9897 11.9235 15.3782 5.40717 14.3778 3.82874L14.3713 3.81872C14.3453 3.77921 14.3176 3.73608 14.2881 3.6902C14.1177 3.42533 13.8882 3.0685 13.6052 2.78507C13.2386 2.4179 12.7356 2.11768 12.0473 2.11768ZM7.99413 9.78299C9.40049 7.27202 10.6264 5.08321 10.8859 4.61243C11.2519 4.02316 11.5317 3.61768 12.0473 3.61768C12.2451 3.61768 12.3858 3.68679 12.5438 3.84495C12.7039 4.00528 12.8326 4.20378 13.0061 4.47112C13.0401 4.52359 13.0759 4.57871 13.1139 4.63671C14.092 6.18164 17.6413 12.5854 19.6432 16.1973C20.1931 17.1893 20.6263 17.9711 20.8573 18.3832C21.1638 18.9302 21.1111 19.4175 20.9028 19.756C20.6905 20.1012 20.2596 20.3823 19.6303 20.3823C18.2479 20.3823 13.8706 20.3698 12.0109 20.3635H4.24664C3.5669 20.3635 3.20852 20.086 3.05095 19.7946C2.8844 19.4866 2.85269 18.9977 3.16631 18.424C3.65032 17.5386 6.00306 13.3379 7.99413 9.78299Z" fill="#10181B"/>
</svg>
