<svg width="24" height="24" viewBox="0 0 24 24" fill="none" xmlns="http://www.w3.org/2000/svg">
<path fill-rule="evenodd" clip-rule="evenodd" d="M2.25 12C2.25 6.61522 6.61522 2.25 12 2.25C17.3848 2.25 21.75 6.61522 21.75 12C21.75 17.3848 17.3848 21.75 12 21.75C6.61522 21.75 2.25 17.3848 2.25 12ZM11.895 6.86682C10.8773 6.86682 9.86719 7.75368 9.86719 9.02597V9.77597H8.36719V9.02597C8.36719 6.92946 10.0446 5.36682 11.895 5.36682C13.591 5.36682 15.5783 6.46252 15.6315 8.79634C15.653 9.74108 15.4003 10.4482 14.9065 11.0561C14.4948 11.5629 13.9185 11.9879 13.3324 12.42L13.1754 12.5359C12.7367 12.8622 12.6344 13.4602 12.6344 13.8928V14.6428H11.1344V13.8928C11.1344 13.3694 11.2332 12.1101 12.2814 11.3315L12.3765 11.2611C13.0326 10.7758 13.4562 10.4625 13.7423 10.1103C13.9966 9.79721 14.1459 9.44351 14.1319 8.8305C14.1033 7.5747 13.0673 6.86682 11.895 6.86682ZM11.8597 18.6496C12.5483 18.6496 13.1065 18.0914 13.1065 17.4029C13.1065 16.7143 12.5483 16.1561 11.8597 16.1561C11.1712 16.1561 10.613 16.7143 10.613 17.4029C10.613 18.0914 11.1712 18.6496 11.8597 18.6496Z" fill="#10181B"/>
</svg>
