<svg width="16" height="16" viewBox="0 0 16 16" fill="none" xmlns="http://www.w3.org/2000/svg">
<path fill-rule="evenodd" clip-rule="evenodd" d="M3.04721 13.2181C4.2607 14.3954 5.91571 15.1201 7.74 15.1201C11.4624 15.1201 14.48 12.1025 14.48 8.38014C14.48 4.65774 11.4624 1.64014 7.74 1.64014C4.0176 1.64014 1 4.65774 1 8.38014C1 10.2044 1.72473 11.8593 2.90198 13.0728C2.92247 13.0998 2.94503 13.1257 2.96967 13.1504C2.9943 13.175 3.02022 13.1976 3.04721 13.2181ZM2.5 8.38014C2.5 5.48617 4.84603 3.14014 7.74 3.14014C8.91646 3.14014 10.0024 3.52784 10.8769 4.18245L3.54231 11.5171C2.8877 10.6425 2.5 9.5566 2.5 8.38014ZM4.60296 12.5777L11.9376 5.2431C12.5923 6.11767 12.98 7.20363 12.98 8.38014C12.98 11.2741 10.634 13.6201 7.74 13.6201C6.56349 13.6201 5.47754 13.2324 4.60296 12.5777Z" fill="#10181B"/>
</svg>
