<svg width="16" height="16" viewBox="0 0 16 16" fill="none" xmlns="http://www.w3.org/2000/svg">
<path d="M7.60001 12.49C8.06945 12.49 8.45 12.1095 8.45 11.64C8.45 11.1706 8.06945 10.79 7.60001 10.79C7.13056 10.79 6.75 11.1706 6.75 11.64C6.75 12.1095 7.13056 12.49 7.60001 12.49Z" fill="#10181B"/>
<path d="M6.65234 6.66797C6.65234 6.54177 6.71426 6.4009 6.88518 6.26731C7.06329 6.1281 7.29968 6.05005 7.49456 6.05005C7.94513 6.05005 8.31531 6.38852 8.32868 6.73588C8.32912 6.74739 8.32983 6.75889 8.3308 6.77036C8.3518 7.01815 8.30566 7.15896 8.23079 7.27534C8.1401 7.41633 7.9655 7.58443 7.61987 7.80564C7.60522 7.81502 7.59089 7.8249 7.57692 7.83528C7.07571 8.20761 6.73913 8.72131 6.73913 9.27831V10.0283H8.23913V9.29611C8.24433 9.28153 8.27763 9.188 8.45334 9.05304C8.85999 8.79033 9.23524 8.48649 9.49232 8.08686C9.76753 7.65904 9.86825 7.18404 9.82682 6.66044C9.76383 5.29919 8.507 4.55005 7.49456 4.55005C6.95575 4.55005 6.39604 4.7458 5.96145 5.08548C5.51969 5.43076 5.15234 5.97385 5.15234 6.66797V7.41797H6.65234V6.66797Z" fill="#10181B"/>
<path fill-rule="evenodd" clip-rule="evenodd" d="M0.859863 8.38014C0.859863 4.65774 3.87747 1.64014 7.59987 1.64014C11.3223 1.64014 14.3399 4.65774 14.3399 8.38014C14.3399 12.1025 11.3223 15.1201 7.59987 15.1201C3.87747 15.1201 0.859863 12.1025 0.859863 8.38014ZM7.59987 3.14014C4.7059 3.14014 2.35986 5.48617 2.35986 8.38014C2.35986 11.2741 4.7059 13.6201 7.59987 13.6201C10.4938 13.6201 12.8399 11.2741 12.8399 8.38014C12.8399 5.48616 10.4938 3.14014 7.59987 3.14014Z" fill="#10181B"/>
</svg>
