<svg width="24" height="24" viewBox="0 0 24 24" fill="none" xmlns="http://www.w3.org/2000/svg">
<path fill-rule="evenodd" clip-rule="evenodd" d="M9.65154 3.75523C9.94519 3.27084 10.6443 2.11768 12.0472 2.11768C12.7355 2.11768 13.2385 2.4179 13.6051 2.78507C13.8881 3.0685 14.1175 3.42516 14.2878 3.69004C14.3173 3.73588 14.3452 3.77923 14.3711 3.81872L14.3777 3.82874C15.3781 5.40715 18.9895 11.9233 20.9864 15.5264L20.9918 15.5361C21.5268 16.5015 21.9454 17.2567 22.1657 17.6499C22.7178 18.6351 22.6948 19.7057 22.1803 20.542C21.6698 21.3717 20.7307 21.8823 19.6302 21.8823C18.245 21.8823 13.8665 21.8698 12.0068 21.8635H4.24652C3.11641 21.8635 2.19558 21.3664 1.73141 20.5081C1.27621 19.6664 1.34364 18.6308 1.85002 17.7044C2.32642 16.833 4.73482 12.5326 6.74495 8.94334C8.15118 6.43241 9.3625 4.26951 9.58108 3.87209C9.58739 3.86062 9.594 3.84931 9.6009 3.83818C9.61623 3.81347 9.63308 3.78567 9.65154 3.75523ZM10.715 7.76172H13.4306L12.8207 14.718H11.1968L10.715 7.76172ZM13.3201 17.8097C13.3201 18.5498 12.7202 19.1497 11.9801 19.1497C11.2401 19.1497 10.6401 18.5498 10.6401 17.8097C10.6401 17.0697 11.2401 16.4697 11.9801 16.4697C12.7202 16.4697 13.3201 17.0697 13.3201 17.8097Z" fill="#10181B"/>
</svg>
