<svg width="16" height="16" viewBox="0 0 16 16" fill="none" xmlns="http://www.w3.org/2000/svg">
<path fill-rule="evenodd" clip-rule="evenodd" d="M6.23784 2.43514C6.42448 2.12387 6.9562 1.23706 8.03102 1.23706C8.56732 1.23706 8.95992 1.47395 9.23659 1.75102C9.44424 1.95898 9.61261 2.22141 9.72285 2.39325C9.74117 2.4218 9.75788 2.44785 9.7729 2.47073L9.77948 2.48075C10.4412 3.52483 12.8228 7.82208 14.1337 10.1873L14.1388 10.1967C14.4879 10.8264 14.7604 11.3182 14.9034 11.5733C15.3082 12.2958 15.2982 13.0992 14.9076 13.734C14.5211 14.3622 13.817 14.7371 13.0131 14.7371C12.1026 14.7371 9.22596 14.7288 8.00402 14.7247H2.90592C2.08619 14.7247 1.38475 14.3605 1.0272 13.6993C0.678631 13.0548 0.739934 12.2806 1.10569 11.6115C1.4174 11.0413 3.00975 8.19798 4.33371 5.83391L4.33574 5.83027C5.25536 4.18819 6.04504 2.77811 6.18536 2.523C6.19167 2.51152 6.19828 2.50021 6.20518 2.48908C6.21459 2.47392 6.22545 2.4558 6.23784 2.43514ZM9.1082 5.09521H6.94873L7.29471 9.65531H8.67027L9.1082 5.09521ZM7.96835 12.938C8.54272 12.938 9.00835 12.4724 9.00835 11.898C9.00835 11.3237 8.54272 10.858 7.96835 10.858C7.39397 10.858 6.92834 11.3237 6.92834 11.898C6.92834 12.4724 7.39397 12.938 7.96835 12.938Z" fill="#10181B"/>
</svg>
