<svg width="24" height="24" viewBox="0 0 24 24" fill="none" xmlns="http://www.w3.org/2000/svg">
<path fill-rule="evenodd" clip-rule="evenodd" d="M2.25 12C2.25 6.61522 6.61522 2.25 12 2.25C17.3848 2.25 21.75 6.61522 21.75 12C21.75 17.3848 17.3848 21.75 12 21.75C6.61522 21.75 2.25 17.3848 2.25 12ZM11.9999 9.22004C12.74 9.22004 13.3399 8.6201 13.3399 7.88004C13.3399 7.13998 12.74 6.54004 11.9999 6.54004C11.2599 6.54004 10.6599 7.13998 10.6599 7.88004C10.6599 8.6201 11.2599 9.22004 11.9999 9.22004ZM13 11.5V18.13H11V11.5H13Z" fill="#10181B"/>
</svg>
