<svg width="24" height="24" viewBox="0 0 24 24" fill="none" xmlns="http://www.w3.org/2000/svg">
<path d="M11.9012 18.2332C12.4535 18.2332 12.9012 17.7854 12.9012 17.2332C12.9012 16.6809 12.4535 16.2332 11.9012 16.2332C11.349 16.2332 10.9012 16.6809 10.9012 17.2332C10.9012 17.7854 11.349 18.2332 11.9012 18.2332Z" fill="#10181B"/>
<path d="M10.0363 9.59183C10.0363 8.41831 10.9675 7.60327 11.9012 7.60327C12.9894 7.60327 13.9367 8.25828 13.9629 9.40883C13.9759 9.97616 13.8384 10.2988 13.606 10.5849C13.3403 10.9119 12.9458 11.2037 12.3246 11.6633L12.2397 11.7261L12.2387 11.7269C11.2342 12.4731 11.1412 13.6779 11.1412 14.1733V14.9233H12.6412V14.1733C12.6412 13.7688 12.7376 13.2252 13.1327 12.9313L13.2813 12.8216C13.8318 12.4158 14.379 12.0123 14.7703 11.5306C15.2421 10.9497 15.483 10.2737 15.4626 9.37466C15.4118 7.1461 13.5131 6.10327 11.9012 6.10327C10.1349 6.10327 8.53625 7.5941 8.53625 9.59183V10.3418H10.0363V9.59183Z" fill="#10181B"/>
<path fill-rule="evenodd" clip-rule="evenodd" d="M2.25 12C2.25 6.61522 6.61522 2.25 12 2.25C17.3848 2.25 21.75 6.61522 21.75 12C21.75 17.3848 17.3848 21.75 12 21.75C6.61522 21.75 2.25 17.3848 2.25 12ZM12 3.75C7.44365 3.75 3.75 7.44365 3.75 12C3.75 16.5563 7.44365 20.25 12 20.25C16.5563 20.25 20.25 16.5563 20.25 12C20.25 7.44365 16.5563 3.75 12 3.75Z" fill="#10181B"/>
</svg>
