<svg width="24" height="24" viewBox="0 0 24 24" fill="none" xmlns="http://www.w3.org/2000/svg">
<path d="M12.75 11.25V17.75H11.25V11.25H12.75Z" fill="#10181B"/>
<path d="M13.25 8C13.25 8.69036 12.6904 9.25 12 9.25C11.3096 9.25 10.75 8.69036 10.75 8C10.75 7.30964 11.3096 6.75 12 6.75C12.6904 6.75 13.25 7.30964 13.25 8Z" fill="#10181B"/>
<path fill-rule="evenodd" clip-rule="evenodd" d="M2.25 12C2.25 6.61522 6.61522 2.25 12 2.25C17.3848 2.25 21.75 6.61522 21.75 12C21.75 17.3848 17.3848 21.75 12 21.75C6.61522 21.75 2.25 17.3848 2.25 12ZM12 3.75C7.44365 3.75 3.75 7.44365 3.75 12C3.75 16.5563 7.44365 20.25 12 20.25C16.5563 20.25 20.25 16.5563 20.25 12C20.25 7.44365 16.5563 3.75 12 3.75Z" fill="#10181B"/>
</svg>
