<svg width="16" height="16" viewBox="0 0 16 16" fill="none" xmlns="http://www.w3.org/2000/svg">
<path d="M8.75562 7.66797V11.9817H7.25562V7.66797H8.75562Z" fill="#10181B"/>
<path d="M9.03519 5.3954C9.03519 5.97264 8.56725 6.44059 7.99001 6.44059C7.41277 6.44059 6.94482 5.97264 6.94482 5.3954C6.94482 4.81816 7.41277 4.35022 7.99001 4.35022C8.56725 4.35022 9.03519 4.81816 9.03519 5.3954Z" fill="#10181B"/>
<path fill-rule="evenodd" clip-rule="evenodd" d="M1.25 7.99C1.25 4.2676 4.2676 1.25 7.99 1.25C11.7124 1.25 14.73 4.2676 14.73 7.99C14.73 11.7124 11.7124 14.73 7.99 14.73C4.2676 14.73 1.25 11.7124 1.25 7.99ZM7.99 2.75C5.09603 2.75 2.75 5.09603 2.75 7.99C2.75 10.884 5.09603 13.23 7.99 13.23C10.884 13.23 13.23 10.884 13.23 7.99C13.23 5.09603 10.884 2.75 7.99 2.75Z" fill="#10181B"/>
</svg>
