<svg width="16" height="16" viewBox="0 0 16 16" fill="none" xmlns="http://www.w3.org/2000/svg">
<path fill-rule="evenodd" clip-rule="evenodd" d="M1.26001 8.00001C1.26001 4.27761 4.27761 1.26001 8.00001 1.26001C11.7224 1.26001 14.74 4.27761 14.74 8.00001C14.74 11.7224 11.7224 14.74 8.00001 14.74C4.27761 14.74 1.26001 11.7224 1.26001 8.00001ZM7.99988 6.00001C8.61844 6.00001 9.11988 5.49857 9.11988 4.88001C9.11988 4.26145 8.61844 3.76001 7.99988 3.76001C7.38132 3.76001 6.87988 4.26145 6.87988 4.88001C6.87988 5.49857 7.38132 6.00001 7.99988 6.00001ZM8.75 7.87964V12.1596H7.25V7.87964H8.75Z" fill="#10181B"/>
</svg>
