<svg width="16" height="16" viewBox="0 0 16 16" fill="none" xmlns="http://www.w3.org/2000/svg">
<path fill-rule="evenodd" clip-rule="evenodd" d="M1.26001 8.00001C1.26001 4.27761 4.27762 1.26001 8.00002 1.26001C11.7224 1.26001 14.74 4.27761 14.74 8.00001C14.74 11.7224 11.7224 14.74 8.00002 14.74C4.27762 14.74 1.26001 11.7224 1.26001 8.00001ZM7.26608 5.51628C7.06628 5.67245 6.98413 5.84556 6.98413 6.01041V6.76041H5.48413V6.01041C5.48413 5.27763 5.87171 4.70231 6.34235 4.33445C6.80581 3.97221 7.40305 3.76355 7.97644 3.76355C9.058 3.76355 10.3918 4.56421 10.458 6.00658C10.5025 6.56677 10.3949 7.07109 10.103 7.52481C9.82917 7.95056 9.42728 8.27688 8.98486 8.56245C8.76293 8.73228 8.72694 8.85374 8.72138 8.87248C8.72088 8.87417 8.72063 8.87503 8.72051 8.87501L8.72049 9.61681H7.22049V8.86681C7.22049 8.28675 7.57164 7.74348 8.10872 7.34451C8.12269 7.33413 8.13701 7.32425 8.15167 7.31487C8.53321 7.07068 8.73419 6.88014 8.84152 6.71329C8.93303 6.57104 8.98605 6.40095 8.96195 6.11649C8.96097 6.10501 8.96027 6.09352 8.95982 6.08201C8.94333 5.65359 8.49616 5.26355 7.97644 5.26355C7.74697 5.26355 7.47306 5.35451 7.26608 5.51628ZM8.01009 12.7898C8.55142 12.7898 8.99026 12.351 8.99026 11.8096C8.99026 11.2683 8.55142 10.8295 8.01009 10.8295C7.46875 10.8295 7.02991 11.2683 7.02991 11.8096C7.02991 12.351 7.46875 12.7898 8.01009 12.7898Z" fill="#10181B"/>
</svg>
