<svg width="24" height="24" viewBox="0 0 24 24" fill="none" xmlns="http://www.w3.org/2000/svg">
<path fill-rule="evenodd" clip-rule="evenodd" d="M4.96374 19.3307C6.71895 21.0325 9.11214 22.0801 11.75 22.0801C17.1348 22.0801 21.5 17.7149 21.5 12.3301C21.5 6.9453 17.1348 2.58008 11.75 2.58008C6.36522 2.58008 2 6.9453 2 12.3301C2 14.9626 3.04329 17.3514 4.73895 19.1056C4.76744 19.1499 4.80105 19.1918 4.83979 19.2305C4.87824 19.269 4.91984 19.3024 4.96374 19.3307ZM3.5 12.3301C3.5 7.77373 7.19365 4.08008 11.75 4.08008C13.7556 4.08008 15.5941 4.79577 17.024 5.98569L5.40561 17.604C4.21569 16.1742 3.5 14.3357 3.5 12.3301ZM6.46538 18.6656L18.0855 7.04546C19.2808 8.47684 20 10.3195 20 12.3301C20 16.8864 16.3063 20.5801 11.75 20.5801C9.73939 20.5801 7.89676 19.8608 6.46538 18.6656Z" fill="#10181B"/>
</svg>
