<svg width="16" height="16" viewBox="0 0 16 16" fill="none" xmlns="http://www.w3.org/2000/svg">
<path fill-rule="evenodd" clip-rule="evenodd" d="M5.92191 2.75377C4.97583 2.71897 4.29184 2.92027 3.84891 3.3632C3.55602 3.65609 3.08114 3.65609 2.78825 3.3632C2.49536 3.0703 2.49536 2.59543 2.78825 2.30254C3.64957 1.44122 4.82879 1.21254 5.97705 1.25478C7.12858 1.29714 8.36963 1.61454 9.50537 1.98338C9.58935 2.01066 9.67616 2.03869 9.7654 2.0675C10.8276 2.41046 12.2347 2.8648 13.3193 3.48038C13.907 3.81392 14.4782 4.23649 14.8426 4.78273C15.2337 5.36893 15.3665 6.07343 15.0871 6.83269L15.0866 6.83397C14.8224 7.54779 14.3951 8.0179 13.8494 8.30666C13.3423 8.57499 12.7799 8.65857 12.3142 8.71475C12.2345 8.72437 12.1565 8.73349 12.0802 8.7424C11.1857 8.84688 10.523 8.92429 9.96055 9.48429C9.66702 9.77655 9.19215 9.77553 8.89989 9.482C8.60763 9.18848 8.60866 8.7136 8.90218 8.42134C9.85403 7.4736 11.0406 7.34505 11.8811 7.254C11.9696 7.24441 12.0544 7.23523 12.1346 7.22555C12.5969 7.16976 12.9097 7.10688 13.1479 6.98084C13.3473 6.87529 13.5354 6.70325 13.6796 6.31392C13.7797 6.04157 13.7422 5.83611 13.5948 5.61518C13.4207 5.35409 13.085 5.07214 12.5789 4.7849C11.6354 4.2494 10.3718 3.84047 9.27689 3.48612C9.19766 3.46048 9.11932 3.43513 9.04205 3.41003C7.94909 3.05509 6.86471 2.78845 5.92191 2.75377Z" fill="#10181B"/>
<path fill-rule="evenodd" clip-rule="evenodd" d="M3.84892 2.3026C4.14181 2.59549 4.1418 3.0703 3.84891 3.3632C3.40598 3.80613 3.20468 4.49018 3.23948 5.43626C3.27416 6.37906 3.5408 7.46344 3.89575 8.5564C3.92085 8.63367 3.9462 8.71201 3.97184 8.79123C4.32618 9.88614 4.73512 11.1497 5.27062 12.0932C5.55786 12.5993 5.83981 12.935 6.10089 13.1092C6.32183 13.2566 6.52729 13.294 6.79964 13.194C7.18897 13.0497 7.36101 12.8617 7.46656 12.6622C7.5926 12.424 7.65548 12.1113 7.71127 11.6489C7.72095 11.5687 7.73013 11.484 7.73972 11.3954C7.83078 10.5549 7.95932 9.36838 8.90707 8.41653C9.19933 8.12301 9.6742 8.12198 9.96773 8.41424C10.2613 8.7065 10.2623 9.18137 9.97002 9.4749C9.41002 10.0373 9.33261 10.7 9.22812 11.5945C9.21921 11.6708 9.2101 11.7488 9.20047 11.8286C9.14429 12.2942 9.06071 12.8567 8.79238 13.3638C8.50362 13.9095 8.03351 14.3367 7.31969 14.6009L7.3184 14.6014C6.55915 14.8809 5.85465 14.7481 5.26845 14.357C4.72221 13.9926 4.29963 13.4213 3.96609 12.8336C3.35052 11.749 2.89618 10.3419 2.55321 9.27974C2.5244 9.1905 2.49637 9.10369 2.4691 9.01972C2.10026 7.88398 1.78285 6.64293 1.7405 5.4914C1.69826 4.34314 1.92693 3.16386 2.78825 2.30254C3.08114 2.00964 3.55602 2.00971 3.84892 2.3026Z" fill="#10181B"/>
<path d="M2.53747 6.83873C2.8343 6.83873 3.07493 6.5981 3.07493 6.30127C3.07493 6.00443 2.8343 5.7638 2.53747 5.7638C2.24063 5.7638 2 6.00443 2 6.30127C2 6.5981 2.24063 6.83873 2.53747 6.83873Z" fill="#10181B"/>
<path d="M4.68733 4.68887C4.98417 4.68887 5.2248 4.44824 5.2248 4.1514C5.2248 3.85457 4.98417 3.61393 4.68733 3.61393C4.3905 3.61393 4.14986 3.85457 4.14986 4.1514C4.14986 4.44824 4.3905 4.68887 4.68733 4.68887Z" fill="#10181B"/>
<path d="M4.68733 8.9886C4.98417 8.9886 5.2248 8.74797 5.2248 8.45113C5.2248 8.1543 4.98417 7.91367 4.68733 7.91367C4.3905 7.91367 4.14986 8.1543 4.14986 8.45113C4.14986 8.74797 4.3905 8.9886 4.68733 8.9886Z" fill="#10181B"/>
<path d="M6.8372 6.83873C7.13403 6.83873 7.37466 6.5981 7.37466 6.30127C7.37466 6.00443 7.13403 5.7638 6.8372 5.7638C6.54036 5.7638 6.29973 6.00443 6.29973 6.30127C6.29973 6.5981 6.54036 6.83873 6.8372 6.83873Z" fill="#10181B"/>
<path d="M8.98706 4.68887C9.2839 4.68887 9.52453 4.44824 9.52453 4.1514C9.52453 3.85457 9.2839 3.61393 8.98706 3.61393C8.69023 3.61393 8.4496 3.85457 8.4496 4.1514C8.4496 4.44824 8.69023 4.68887 8.98706 4.68887Z" fill="#10181B"/>
<path d="M8.98706 8.9886C9.2839 8.9886 9.52453 8.74797 9.52453 8.45113C9.52453 8.1543 9.2839 7.91367 8.98706 7.91367C8.69023 7.91367 8.4496 8.1543 8.4496 8.45113C8.4496 8.74797 8.69023 8.9886 8.98706 8.9886Z" fill="#10181B"/>
<path d="M6.8372 11.1385C7.13403 11.1385 7.37466 10.8978 7.37466 10.601C7.37466 10.3042 7.13403 10.0635 6.8372 10.0635C6.54036 10.0635 6.29973 10.3042 6.29973 10.601C6.29973 10.8978 6.54036 11.1385 6.8372 11.1385Z" fill="#10181B"/>
<path d="M11.1369 6.83873C11.4338 6.83873 11.6744 6.5981 11.6744 6.30127C11.6744 6.00443 11.4338 5.7638 11.1369 5.7638C10.8401 5.7638 10.5995 6.00443 10.5995 6.30127C10.5995 6.5981 10.8401 6.83873 11.1369 6.83873Z" fill="#10181B"/>
</svg>
