<svg width="16" height="16" viewBox="0 0 16 16" fill="none" xmlns="http://www.w3.org/2000/svg">
<path fill-rule="evenodd" clip-rule="evenodd" d="M5.64642 4.83594C6.24245 2.76498 8.15133 1.25 10.4141 1.25C13.1537 1.25 15.3746 3.47092 15.3746 6.21056C15.3746 8.69523 13.5478 10.7532 11.1641 11.1148V11.8948C11.1641 13.4717 9.88575 14.75 8.30882 14.75H4.10528C2.52835 14.75 1.25 13.4717 1.25 11.8948V7.69122C1.25 6.11429 2.52835 4.83594 4.10528 4.83594H5.64642ZM7.23726 4.83594C7.76906 3.60861 8.99129 2.75 10.4141 2.75C12.3253 2.75 13.8746 4.29935 13.8746 6.21056C13.8746 7.86422 12.7147 9.24696 11.1641 9.58961V7.69122C11.1641 6.11429 9.88575 4.83594 8.30882 4.83594H7.23726ZM9.6641 11.1148V11.8948C9.6641 12.6433 9.05732 13.25 8.30882 13.25H4.10528C3.35678 13.25 2.75 12.6433 2.75 11.8948V7.69122C2.75 6.94272 3.35678 6.33594 4.10528 6.33594H5.45504C5.51529 8.76422 7.32053 10.7594 9.6641 11.1148ZM9.6641 9.58964C8.1528 9.25572 7.01262 7.93377 6.95572 6.33594H8.30882C9.05732 6.33594 9.6641 6.94272 9.6641 7.69122V9.58964Z" fill="#10181B"/>
</svg>
