<svg width="24" height="24" viewBox="0 0 24 24" fill="none" xmlns="http://www.w3.org/2000/svg">
<path fill-rule="evenodd" clip-rule="evenodd" d="M3.23753 11.8231C3.1399 11.9208 3.1399 12.079 3.23753 12.1767L11.744 20.6832C11.8417 20.7808 11.9999 20.7808 12.0976 20.6832L20.6041 12.1767C20.7017 12.079 20.7017 11.9208 20.6041 11.8231L12.0976 3.31663C11.9999 3.219 11.8417 3.219 11.744 3.31663L3.23753 11.8231ZM2.17687 13.2373C1.49345 12.5539 1.49345 11.4459 2.17687 10.7625L10.6834 2.25597C11.3668 1.57255 12.4748 1.57255 13.1582 2.25597L21.6647 10.7625C22.3481 11.4459 22.3481 12.5539 21.6647 13.2373L13.1582 21.7438C12.4748 22.4273 11.3668 22.4273 10.6834 21.7438L2.17687 13.2373Z" fill="#10181B"/>
</svg>
