<svg width="24" height="24" viewBox="0 0 24 24" fill="none" xmlns="http://www.w3.org/2000/svg">
<path fill-rule="evenodd" clip-rule="evenodd" d="M8.44064 7.35986C9.17336 4.42454 11.8277 2.25 14.99 2.25C18.7179 2.25 21.74 5.27208 21.74 9C21.74 12.4744 19.115 15.3357 15.74 15.7088V17.0999C15.74 19.1709 14.0611 20.8499 11.99 20.8499H6C3.92893 20.8499 2.25 19.1709 2.25 17.0999V11.1099C2.25 9.0388 3.92893 7.35986 6 7.35986H8.44064ZM10.0013 7.35986C10.69 5.26359 12.6633 3.75 14.99 3.75C17.8895 3.75 20.24 6.10051 20.24 9C20.24 11.6449 18.2842 13.8329 15.74 14.1968V11.1099C15.74 9.0388 14.0611 7.35986 11.99 7.35986H10.0013ZM14.24 15.7088V17.0999C14.24 18.3425 13.2326 19.3499 11.99 19.3499H6C4.75736 19.3499 3.75 18.3425 3.75 17.0999V11.1099C3.75 9.86722 4.75736 8.85986 6 8.85986H8.24142C8.24047 8.90646 8.23999 8.95318 8.23999 9C8.23999 12.4744 10.865 15.3357 14.24 15.7088ZM14.24 14.1968C11.6958 13.8329 9.73999 11.6449 9.73999 9C9.73999 8.95314 9.7406 8.90643 9.74182 8.85986H11.99C13.2326 8.85986 14.24 9.86722 14.24 11.1099V14.1968Z" fill="#10181B"/>
</svg>
