<svg width="24" height="24" viewBox="0 0 24 24" fill="none" xmlns="http://www.w3.org/2000/svg">
<path d="M5.54001 13.0298C5.95422 13.0298 6.29001 12.6941 6.29001 12.2798C6.29001 11.8656 5.95422 11.5298 5.54001 11.5298C5.12579 11.5298 4.79001 11.8656 4.79001 12.2798C4.79001 12.6941 5.12579 13.0298 5.54001 13.0298Z" fill="#10181B"/>
<path d="M8.54001 10.0298C8.95422 10.0298 9.29001 9.69406 9.29001 9.27985C9.29001 8.86563 8.95422 8.52985 8.54001 8.52985C8.12579 8.52985 7.79001 8.86563 7.79001 9.27985C7.79001 9.69406 8.12579 10.0298 8.54001 10.0298Z" fill="#10181B"/>
<path d="M11.54 7.02985C11.9542 7.02985 12.29 6.69406 12.29 6.27985C12.29 5.86563 11.9542 5.52985 11.54 5.52985C11.1258 5.52985 10.79 5.86563 10.79 6.27985C10.79 6.69406 11.1258 7.02985 11.54 7.02985Z" fill="#10181B"/>
<path d="M8.54001 16.0298C8.95422 16.0298 9.29001 15.6941 9.29001 15.2798C9.29001 14.8656 8.95422 14.5298 8.54001 14.5298C8.12579 14.5298 7.79001 14.8656 7.79001 15.2798C7.79001 15.6941 8.12579 16.0298 8.54001 16.0298Z" fill="#10181B"/>
<path d="M11.54 13.0298C11.9542 13.0298 12.29 12.6941 12.29 12.2798C12.29 11.8656 11.9542 11.5298 11.54 11.5298C11.1258 11.5298 10.79 11.8656 10.79 12.2798C10.79 12.6941 11.1258 13.0298 11.54 13.0298Z" fill="#10181B"/>
<path d="M14.54 10.0298C14.9542 10.0298 15.29 9.69406 15.29 9.27985C15.29 8.86563 14.9542 8.52985 14.54 8.52985C14.1258 8.52985 13.79 8.86563 13.79 9.27985C13.79 9.69406 14.1258 10.0298 14.54 10.0298Z" fill="#10181B"/>
<path d="M14.54 16.0298C14.9542 16.0298 15.29 15.6941 15.29 15.2798C15.29 14.8656 14.9542 14.5298 14.54 14.5298C14.1258 14.5298 13.79 14.8656 13.79 15.2798C13.79 15.6941 14.1258 16.0298 14.54 16.0298Z" fill="#10181B"/>
<path d="M11.54 19.0298C11.9542 19.0298 12.29 18.6941 12.29 18.2798C12.29 17.8656 11.9542 17.5298 11.54 17.5298C11.1258 17.5298 10.79 17.8656 10.79 18.2798C10.79 18.6941 11.1258 19.0298 11.54 19.0298Z" fill="#10181B"/>
<path d="M17.54 13.0298C17.9542 13.0298 18.29 12.6941 18.29 12.2798C18.29 11.8656 17.9542 11.5298 17.54 11.5298C17.1258 11.5298 16.79 11.8656 16.79 12.2798C16.79 12.6941 17.1258 13.0298 17.54 13.0298Z" fill="#10181B"/>
<path fill-rule="evenodd" clip-rule="evenodd" d="M11.54 3.42993C10.8396 3.42993 10.2973 3.72214 9.75447 4.1519C9.51837 4.33882 8.08594 5.4499 6.66288 6.55352L6.4304 6.73382C5.11007 7.75776 3.85499 8.7311 3.66911 8.87822C3.02071 9.37626 2.65042 10.2764 2.91887 11.216C3.09968 11.8488 5.33627 19.0124 5.50708 19.4715L5.51121 19.4823C5.66507 19.877 5.90964 20.2522 6.29003 20.5254C6.6742 20.8012 7.137 20.9299 7.64999 20.9299H15.43C15.943 20.9299 16.4058 20.8012 16.79 20.5254C17.1704 20.2522 17.415 19.877 17.5688 19.4823L17.5729 19.4715C17.7437 19.0124 19.9804 11.8488 20.1612 11.216C20.4296 10.2764 20.0593 9.37625 19.4109 8.87822C19.225 8.73107 17.9699 7.75767 16.6495 6.73371L16.4172 6.55352C14.9941 5.4499 13.5616 4.33881 13.3255 4.1519C12.7827 3.72215 12.2404 3.42993 11.54 3.42993C11.54 3.42993 11.54 3.42993 11.54 3.42993ZM11.54 4.92993C11.3204 4.92993 11.1027 4.99772 10.6855 5.32797C10.4416 5.52105 8.99907 6.63996 7.58213 7.73884L7.38376 7.89268C6.03099 8.94179 4.75423 9.93195 4.59642 10.0573L4.58454 10.0665C4.39688 10.2095 4.27049 10.4865 4.36116 10.8039C4.53963 11.4286 6.74604 18.4909 6.91103 18.9433C6.9867 19.135 7.07623 19.2433 7.16495 19.307C7.25079 19.3686 7.39298 19.4299 7.64999 19.4299H15.43C15.687 19.4299 15.8292 19.3686 15.9151 19.307C16.0038 19.2433 16.0933 19.135 16.169 18.9433C16.334 18.4909 18.5404 11.4286 18.7189 10.8039C18.8096 10.4865 18.6832 10.2095 18.4955 10.0665L18.4836 10.0573C18.3258 9.93197 17.0494 8.94209 15.6969 7.89317L15.4979 7.73884C14.081 6.63996 12.6384 5.52105 12.3945 5.32797C11.9773 4.99771 11.7596 4.92993 11.54 4.92993C11.54 4.92993 11.54 4.92993 11.54 4.92993Z" fill="#10181B"/>
</svg>
