<svg width="16" height="16" viewBox="0 0 16 16" fill="none" xmlns="http://www.w3.org/2000/svg">
<path d="M5.30363 5.97977C5.67614 5.97977 5.97813 5.67779 5.97813 5.30527C5.97813 4.93276 5.67614 4.63077 5.30363 4.63077C4.93111 4.63077 4.62913 4.93276 4.62913 5.30527C4.62913 5.67779 4.93111 5.97977 5.30363 5.97977Z" fill="#10181B"/>
<path d="M5.30363 11.3758C5.67614 11.3758 5.97813 11.0738 5.97813 10.7013C5.97813 10.3288 5.67614 10.0268 5.30363 10.0268C4.93111 10.0268 4.62913 10.3288 4.62913 10.7013C4.62913 11.0738 4.93111 11.3758 5.30363 11.3758Z" fill="#10181B"/>
<path d="M8.00161 8.67765C8.37412 8.67765 8.6761 8.37566 8.6761 8.00315C8.6761 7.63063 8.37412 7.32865 8.00161 7.32865C7.62909 7.32865 7.32711 7.63063 7.32711 8.00315C7.32711 8.37566 7.62909 8.67765 8.00161 8.67765Z" fill="#10181B"/>
<path d="M11.3741 5.30527C11.3741 5.67779 11.0722 5.97977 10.6996 5.97977C10.3271 5.97977 10.0252 5.67779 10.0252 5.30527C10.0252 4.93276 10.3271 4.63077 10.6996 4.63077C11.0722 4.63077 11.3741 4.93276 11.3741 5.30527Z" fill="#10181B"/>
<path d="M10.6996 11.3758C11.0722 11.3758 11.3741 11.0738 11.3741 10.7013C11.3741 10.3288 11.0722 10.0268 10.6996 10.0268C10.3271 10.0268 10.0252 10.3288 10.0252 10.7013C10.0252 11.0738 10.3271 11.3758 10.6996 11.3758Z" fill="#10181B"/>
<path fill-rule="evenodd" clip-rule="evenodd" d="M2.0605 2.20081C1.55779 2.73767 1.25 3.4593 1.25 4.25282V11.7472C1.25 12.546 1.56192 13.272 2.07061 13.8099C2.10686 13.8571 2.1492 13.8993 2.19646 13.9354C2.73377 14.4405 3.45715 14.75 4.25282 14.75H11.7472C12.5367 14.75 13.255 14.4453 13.791 13.9471C13.8504 13.9045 13.9025 13.8524 13.9452 13.7931C14.4445 13.2569 14.75 12.5377 14.75 11.7472V4.25282C14.75 3.46658 14.4478 2.75092 13.9533 2.21563C13.9063 2.14742 13.847 2.08829 13.7786 2.04142C13.244 1.55002 12.5306 1.25 11.7472 1.25H4.25282C3.46425 1.25 2.74668 1.55397 2.21088 2.05112C2.15323 2.0928 2.10244 2.14336 2.0605 2.20081ZM2.75 4.25282C2.75 3.42283 3.42283 2.75 4.25282 2.75H7.34428C7.41319 3.04936 7.68133 3.27258 8.00161 3.27258C8.32188 3.27258 8.59002 3.04936 8.65893 2.75H11.7472C12.5772 2.75 13.25 3.42283 13.25 4.25282V7.34485C12.9485 7.41217 12.7231 7.68134 12.7231 8.00315C12.7231 8.32496 12.9485 8.59413 13.25 8.66144V11.7472C13.25 12.5772 12.5772 13.25 11.7472 13.25H8.65955C8.59166 12.9493 8.32286 12.7247 8.00161 12.7247C7.68035 12.7247 7.41155 12.9493 7.34366 13.25H4.25282C3.42283 13.25 2.75 12.5772 2.75 11.7472V8.66217C3.05315 8.59607 3.28015 8.32612 3.28015 8.00315C3.28015 7.68018 3.05315 7.41023 2.75 7.34413V4.25282Z" fill="#10181B"/>
</svg>
