<svg width="16" height="16" viewBox="0 0 16 16" fill="none" xmlns="http://www.w3.org/2000/svg">
<path fill-rule="evenodd" clip-rule="evenodd" d="M8.85246 3.70173C8.97133 3.42748 9.24169 3.25 9.5406 3.25H14.0119C14.2594 3.25 14.491 3.37213 14.6308 3.5764C14.7706 3.78067 14.8006 4.04077 14.711 4.27151L11.3828 12.8415C11.2708 13.13 10.9931 13.32 10.6837 13.32H2C1.75379 13.32 1.52327 13.1992 1.3832 12.9967C1.24313 12.7942 1.21136 12.5359 1.2982 12.3055L2.99074 7.81522C3.10084 7.52311 3.38037 7.32975 3.69254 7.32975H7.27994L8.85246 3.70173ZM10.0329 4.75L8.46042 8.37802C8.34155 8.65227 8.07119 8.82975 7.77228 8.82975H4.21135L3.08422 11.82H10.1704L12.9161 4.75H10.0329Z" fill="#10181B"/>
</svg>
