<svg width="16" height="16" viewBox="0 0 16 16" fill="none" xmlns="http://www.w3.org/2000/svg">
<path d="M7.96924 4.13745C8.2799 4.13745 8.53174 3.88561 8.53174 3.57495C8.53174 3.26429 8.2799 3.01245 7.96924 3.01245C7.65858 3.01245 7.40674 3.26429 7.40674 3.57495C7.40674 3.88561 7.65858 4.13745 7.96924 4.13745Z" fill="#10181B"/>
<path d="M6.28174 5.82495C6.28174 6.13561 6.0299 6.38745 5.71924 6.38745C5.40858 6.38745 5.15674 6.13561 5.15674 5.82495C5.15674 5.51429 5.40858 5.26245 5.71924 5.26245C6.0299 5.26245 6.28174 5.51429 6.28174 5.82495Z" fill="#10181B"/>
<path d="M6.28174 10.325C6.28174 10.6356 6.0299 10.8875 5.71924 10.8875C5.40858 10.8875 5.15674 10.6356 5.15674 10.325C5.15674 10.0143 5.40858 9.76245 5.71924 9.76245C6.0299 9.76245 6.28174 10.0143 6.28174 10.325Z" fill="#10181B"/>
<path d="M7.96924 8.63745C8.2799 8.63745 8.53174 8.38561 8.53174 8.07495C8.53174 7.76429 8.2799 7.51245 7.96924 7.51245C7.65858 7.51245 7.40674 7.76429 7.40674 8.07495C7.40674 8.38561 7.65858 8.63745 7.96924 8.63745Z" fill="#10181B"/>
<path d="M10.7817 5.82495C10.7817 6.13561 10.5299 6.38745 10.2192 6.38745C9.90858 6.38745 9.65674 6.13561 9.65674 5.82495C9.65674 5.51429 9.90858 5.26245 10.2192 5.26245C10.5299 5.26245 10.7817 5.51429 10.7817 5.82495Z" fill="#10181B"/>
<path d="M10.2192 10.8875C10.5299 10.8875 10.7817 10.6356 10.7817 10.325C10.7817 10.0143 10.5299 9.76245 10.2192 9.76245C9.90858 9.76245 9.65674 10.0143 9.65674 10.325C9.65674 10.6356 9.90858 10.8875 10.2192 10.8875Z" fill="#10181B"/>
<path d="M8.53174 12.575C8.53174 12.8856 8.2799 13.1375 7.96924 13.1375C7.65858 13.1375 7.40674 12.8856 7.40674 12.575C7.40674 12.2643 7.65858 12.0125 7.96924 12.0125C8.2799 12.0125 8.53174 12.2643 8.53174 12.575Z" fill="#10181B"/>
<path fill-rule="evenodd" clip-rule="evenodd" d="M6.51388 1.83197C6.93672 1.49721 7.38403 1.25 7.96941 1.25C8.5548 1.25 9.0021 1.49722 9.42493 1.83197C9.60104 1.97138 10.6741 2.80372 11.7422 3.63203L11.923 3.77225C12.9075 4.53579 13.844 5.26207 13.988 5.37596C14.5313 5.79401 14.839 6.54654 14.6156 7.32854C14.4797 7.80388 12.8006 13.1825 12.6698 13.5341L12.6658 13.5449C12.5407 13.8659 12.3379 14.1804 12.0162 14.4114C11.6908 14.6451 11.3036 14.75 10.8869 14.75H5.0519C4.63516 14.75 4.24798 14.6451 3.92256 14.4114C3.60092 14.1804 3.39822 13.8658 3.27312 13.5449L3.2689 13.5341C3.13809 13.1825 1.45908 7.80387 1.32327 7.32854C1.09983 6.5465 1.40758 5.79393 1.95089 5.3759C2.09525 5.26171 3.03264 4.53475 4.01767 3.77083L4.19666 3.63203C5.26471 2.80372 6.33777 1.97138 6.51388 1.83197ZM7.44493 3.00803C7.74208 2.77279 7.86479 2.75 7.96941 2.75C8.07402 2.75 8.19671 2.77278 8.49388 3.00803C8.67777 3.15362 9.76097 3.99378 10.8229 4.81735L10.9676 4.92955C11.9843 5.71806 12.9431 6.46158 13.0605 6.55483L13.0724 6.56407C13.155 6.62705 13.2189 6.75661 13.1733 6.91646C13.1466 7.00979 13.0537 7.3137 12.9218 7.74077C12.8193 7.60226 12.6548 7.51245 12.4692 7.51245C12.1586 7.51245 11.9067 7.76429 11.9067 8.07495C11.9067 8.38561 12.1586 8.63745 12.4692 8.63745C12.5337 8.63745 12.5956 8.62662 12.6532 8.60667C12.5156 9.04917 12.3627 9.53942 12.2093 10.0298C11.9844 10.7484 11.7602 11.4618 11.5848 12.0154C11.497 12.2923 11.4218 12.5284 11.3649 12.7048C11.3364 12.7931 11.3128 12.8654 11.2948 12.9199C11.2858 12.9472 11.2785 12.969 11.2728 12.9857L11.2661 13.0051L11.2654 13.007C11.2189 13.1236 11.1716 13.1713 11.1413 13.193C11.1142 13.2124 11.0477 13.25 10.8869 13.25H5.0519C4.89114 13.25 4.82457 13.2124 4.79748 13.193C4.76722 13.1713 4.71994 13.1236 4.67342 13.0071L4.67272 13.0051L4.66603 12.9857C4.66035 12.969 4.65303 12.9472 4.644 12.9199C4.62597 12.8654 4.60243 12.7931 4.57395 12.7048C4.51705 12.5284 4.4418 12.2923 4.35406 12.0154C4.17865 11.4618 3.95442 10.7484 3.72956 10.0298C3.57614 9.53947 3.42322 9.04927 3.28563 8.6068C3.34317 8.62666 3.40495 8.63745 3.46924 8.63745C3.7799 8.63745 4.03174 8.38561 4.03174 8.07495C4.03174 7.76429 3.7799 7.51245 3.46924 7.51245C3.28387 7.51245 3.11945 7.60211 3.01697 7.74043C2.88509 7.31355 2.79222 7.00976 2.76556 6.91646C2.71989 6.75661 2.78378 6.62705 2.86644 6.56407L2.87832 6.55483C2.99574 6.46159 3.95387 5.71853 4.97044 4.93016L5.11591 4.81735C6.17785 3.99378 7.26104 3.15362 7.44493 3.00803Z" fill="#10181B"/>
</svg>
