<svg width="24" height="24" viewBox="0 0 24 24" fill="none" xmlns="http://www.w3.org/2000/svg">
<path fill-rule="evenodd" clip-rule="evenodd" d="M17.3923 2.72789L16.6427 2.74962C16.12 2.76476 15.4099 3.02162 14.9713 3.46026C14.7716 3.65989 14.5141 4.0436 14.468 4.56258C14.4238 5.0599 14.5637 5.79147 15.3466 6.72926C15.919 7.41536 16.6716 8.01067 17.5264 8.6867C17.7059 8.82868 17.89 8.97424 18.0778 9.12497C19.1232 9.96377 20.2425 10.9343 21.0402 12.2377C22.2022 14.1307 21.6419 16.2696 20.6313 17.2803C19.4905 18.4211 17.0433 18.7738 14.4152 16.3737C12.1793 14.3319 11.3094 12.8806 10.441 11.4318C10.335 11.255 10.229 11.0782 10.1206 10.9004C9.16104 9.32675 7.8429 8.07091 6.94097 7.67734C6.031 7.28026 5.00946 7.35205 4.35126 8.01026C3.99967 8.36185 3.78684 8.79663 3.75439 9.30404C3.72159 9.8171 3.86992 10.4677 4.3559 11.2408C5.2515 12.6656 6.44905 13.5827 7.55179 14.4272C7.69648 14.538 7.83954 14.6476 7.98007 14.7569C8.02753 14.7935 8.07947 14.833 8.13513 14.8754C8.5375 15.1819 9.13467 15.6366 9.64222 16.1908C10.2181 16.8195 10.7835 17.6857 10.7709 18.7488C10.7576 19.8658 10.2633 20.7728 9.4522 21.3803C8.66186 21.9721 7.61539 22.2499 6.50002 22.2499H5.75002V20.7499H6.50002C7.38466 20.7499 8.08819 20.5277 8.55307 20.1796C8.99719 19.847 9.26334 19.3741 9.27098 18.731C9.27696 18.2273 9.00736 17.7185 8.53608 17.2039C8.12623 16.7565 7.64317 16.3875 7.23434 16.0752C7.17553 16.0303 7.11825 15.9865 7.06295 15.9439L7.06047 15.9419C6.92999 15.8405 6.79241 15.7355 6.64926 15.6263C5.55472 14.7913 4.13524 13.7084 3.08594 12.0391C2.47192 11.0622 2.20026 10.1028 2.25745 9.20832C2.31501 8.30823 2.70218 7.53801 3.2906 6.9496C4.51239 5.72781 6.25084 5.7396 7.54088 6.30253C8.83895 6.86895 10.3608 8.41311 11.4013 10.1195C11.5129 10.3026 11.6207 10.4824 11.7274 10.6602C12.5786 12.0797 13.355 13.3742 15.4267 15.2661C17.6385 17.286 19.1514 16.6388 19.5706 16.2196C20.1199 15.6703 20.5396 14.2893 19.7618 13.0223L19.7612 13.0213C19.1089 11.9552 18.1685 11.1209 17.139 10.2949C16.9743 10.1627 16.8058 10.0297 16.6354 9.89529C15.7788 9.21939 14.877 8.50777 14.1952 7.6906C13.2082 6.50839 12.8881 5.39496 12.9739 4.42978C13.0577 3.48626 13.5202 2.78997 13.9106 2.3996C14.652 1.65824 15.7418 1.2751 16.5992 1.25025L17.3489 1.22852L17.3923 2.72789Z" fill="#10181B"/>
</svg>
