<svg width="24" height="24" viewBox="0 0 24 24" fill="none" xmlns="http://www.w3.org/2000/svg">
<path d="M6.51001 12.1799C6.51001 12.5941 6.17422 12.9299 5.76001 12.9299C5.3458 12.9299 5.01001 12.5941 5.01001 12.1799C5.01001 11.7657 5.3458 11.4299 5.76001 11.4299C6.17422 11.4299 6.51001 11.7657 6.51001 12.1799Z" fill="#10181B"/>
<path d="M8.76001 9.92993C9.17422 9.92993 9.51001 9.59414 9.51001 9.17993C9.51001 8.76572 9.17422 8.42993 8.76001 8.42993C8.3458 8.42993 8.01001 8.76572 8.01001 9.17993C8.01001 9.59414 8.3458 9.92993 8.76001 9.92993Z" fill="#10181B"/>
<path d="M12.51 6.16992C12.51 6.58414 12.1742 6.91992 11.76 6.91992C11.3458 6.91992 11.01 6.58414 11.01 6.16992C11.01 5.75571 11.3458 5.41992 11.76 5.41992C12.1742 5.41992 12.51 5.75571 12.51 6.16992Z" fill="#10181B"/>
<path d="M8.76001 15.9299C9.17422 15.9299 9.51001 15.5941 9.51001 15.1799C9.51001 14.7657 9.17422 14.4299 8.76001 14.4299C8.3458 14.4299 8.01001 14.7657 8.01001 15.1799C8.01001 15.5941 8.3458 15.9299 8.76001 15.9299Z" fill="#10181B"/>
<path d="M6.51001 18.1799C6.51001 18.5941 6.17422 18.9299 5.76001 18.9299C5.3458 18.9299 5.01001 18.5941 5.01001 18.1799C5.01001 17.7657 5.3458 17.4299 5.76001 17.4299C6.17422 17.4299 6.51001 17.7657 6.51001 18.1799Z" fill="#10181B"/>
<path d="M11.76 12.9299C12.1742 12.9299 12.51 12.5941 12.51 12.1799C12.51 11.7657 12.1742 11.4299 11.76 11.4299C11.3458 11.4299 11.01 11.7657 11.01 12.1799C11.01 12.5941 11.3458 12.9299 11.76 12.9299Z" fill="#10181B"/>
<path d="M15.51 9.17993C15.51 9.59414 15.1742 9.92993 14.76 9.92993C14.3458 9.92993 14.01 9.59414 14.01 9.17993C14.01 8.76572 14.3458 8.42993 14.76 8.42993C15.1742 8.42993 15.51 8.76572 15.51 9.17993Z" fill="#10181B"/>
<path d="M17.76 6.91992C18.1742 6.91992 18.51 6.58414 18.51 6.16992C18.51 5.75571 18.1742 5.41992 17.76 5.41992C17.3458 5.41992 17.01 5.75571 17.01 6.16992C17.01 6.58414 17.3458 6.91992 17.76 6.91992Z" fill="#10181B"/>
<path d="M6.51001 6.16992C6.51001 6.58414 6.17422 6.91992 5.76001 6.91992C5.3458 6.91992 5.01001 6.58414 5.01001 6.16992C5.01001 5.75571 5.3458 5.41992 5.76001 5.41992C6.17422 5.41992 6.51001 5.75571 6.51001 6.16992Z" fill="#10181B"/>
<path d="M14.76 15.9299C15.1742 15.9299 15.51 15.5941 15.51 15.1799C15.51 14.7657 15.1742 14.4299 14.76 14.4299C14.3458 14.4299 14.01 14.7657 14.01 15.1799C14.01 15.5941 14.3458 15.9299 14.76 15.9299Z" fill="#10181B"/>
<path d="M12.51 18.1799C12.51 18.5941 12.1742 18.9299 11.76 18.9299C11.3458 18.9299 11.01 18.5941 11.01 18.1799C11.01 17.7657 11.3458 17.4299 11.76 17.4299C12.1742 17.4299 12.51 17.7657 12.51 18.1799Z" fill="#10181B"/>
<path d="M17.76 12.9299C18.1742 12.9299 18.51 12.5941 18.51 12.1799C18.51 11.7657 18.1742 11.4299 17.76 11.4299C17.3458 11.4299 17.01 11.7657 17.01 12.1799C17.01 12.5941 17.3458 12.9299 17.76 12.9299Z" fill="#10181B"/>
<path d="M18.51 18.1799C18.51 18.5941 18.1742 18.9299 17.76 18.9299C17.3458 18.9299 17.01 18.5941 17.01 18.1799C17.01 17.7657 17.3458 17.4299 17.76 17.4299C18.1742 17.4299 18.51 17.7657 18.51 18.1799Z" fill="#10181B"/>
<path fill-rule="evenodd" clip-rule="evenodd" d="M6.77002 3.43994C4.69895 3.43994 3.02002 5.11887 3.02002 7.18994V17.1699C3.02002 19.241 4.69895 20.9199 6.77002 20.9199H16.75C18.8211 20.9199 20.5 19.241 20.5 17.1699V7.18994C20.5 5.11887 18.8211 3.43994 16.75 3.43994H6.77002ZM4.52002 7.18994C4.52002 5.9473 5.52738 4.93994 6.77002 4.93994H16.75C17.9927 4.93994 19 5.9473 19 7.18994V17.1699C19 18.4126 17.9927 19.4199 16.75 19.4199H6.77002C5.52738 19.4199 4.52002 18.4126 4.52002 17.1699V7.18994Z" fill="#10181B"/>
</svg>
