<svg width="24" height="24" viewBox="0 0 24 24" fill="none" xmlns="http://www.w3.org/2000/svg">
<path fill-rule="evenodd" clip-rule="evenodd" d="M13.6718 4.44148C13.7907 4.16723 14.061 3.98975 14.3599 3.98975H21.4399C21.6875 3.98975 21.9191 4.11188 22.0589 4.31615C22.1987 4.52042 22.2287 4.78052 22.1391 5.01126L16.8691 18.5813C16.757 18.8697 16.4794 19.0597 16.1699 19.0597H2.41993C2.17372 19.0597 1.94319 18.9389 1.80312 18.7364C1.66305 18.5339 1.63129 18.2756 1.71813 18.0452L4.39813 10.9352C4.50824 10.6431 4.78777 10.4497 5.09993 10.4497H11.0676L13.6718 4.44148ZM14.8523 5.48975L12.2481 11.498C12.1292 11.7723 11.8588 11.9497 11.5599 11.9497H5.61874L3.50414 17.5597H15.6566L20.3441 5.48975H14.8523Z" fill="#10181B"/>
</svg>
