<svg width="24" height="24" viewBox="0 0 24 24" fill="none" xmlns="http://www.w3.org/2000/svg">
<path fill-rule="evenodd" clip-rule="evenodd" d="M8.29369 4.93321C6.93354 4.88317 5.88115 5.16949 5.18035 5.87029C4.88745 6.16319 4.41258 6.16319 4.11969 5.87029C3.82679 5.5774 3.82679 5.10253 4.11969 4.80963C5.23888 3.69044 6.78649 3.37675 8.34883 3.43422C9.91445 3.49181 11.6153 3.92469 13.1917 4.43664C13.308 4.47443 13.428 4.51317 13.551 4.55289C15.0388 5.03344 16.9735 5.65837 18.459 6.50145C19.2629 6.95773 20.0135 7.5196 20.4844 8.22546C20.9819 8.97128 21.1484 9.85573 20.7939 10.819L20.7934 10.8203C20.4484 11.7523 19.8995 12.3494 19.2064 12.7162C18.552 13.0625 17.8165 13.175 17.1674 13.2533C17.052 13.2672 16.9384 13.2804 16.8265 13.2933C15.5972 13.4355 14.5699 13.5544 13.7092 14.4114C13.4157 14.7037 12.9408 14.7027 12.6485 14.4091C12.3563 14.1156 12.3573 13.6407 12.6508 13.3485C13.901 12.1037 15.452 11.9337 16.631 11.8045C16.7542 11.791 16.8734 11.7779 16.9877 11.7641C17.6335 11.6862 18.1193 11.5943 18.5049 11.3903C18.8516 11.2069 19.1613 10.9079 19.3863 10.3006C19.5616 9.82402 19.4905 9.43856 19.2366 9.05791C18.9559 8.6372 18.4409 8.21595 17.7186 7.80598C16.3742 7.04297 14.583 6.46346 13.0626 5.97158C12.9496 5.93501 12.8381 5.89893 12.7284 5.86329C11.1947 5.36523 9.65058 4.98312 8.29369 4.93321Z" fill="#10181B"/>
<path fill-rule="evenodd" clip-rule="evenodd" d="M5.18035 4.80963C5.47325 5.10252 5.47324 5.5774 5.18035 5.87029C4.47954 6.5711 4.19323 7.62348 4.24326 8.98364C4.29317 10.3405 4.67529 11.8847 5.17335 13.4183C5.20898 13.528 5.24506 13.6396 5.28163 13.7526C5.77351 15.2729 6.35303 17.0642 7.11604 18.4085C7.52601 19.1308 7.94726 19.6459 8.36797 19.9265C8.74862 20.1805 9.13408 20.2515 9.61065 20.0762C10.218 19.8512 10.5169 19.5415 10.7004 19.1948C10.9044 18.8093 10.9962 18.3235 11.0742 17.6776C11.088 17.5633 11.101 17.4441 11.1145 17.3209C11.2438 16.1419 11.4137 14.591 12.6586 13.3408C12.9508 13.0472 13.4257 13.0462 13.7192 13.3385C14.0127 13.6307 14.0138 14.1056 13.7215 14.3991C12.8645 15.2599 12.7456 16.2871 12.6034 17.5164C12.5904 17.6284 12.5773 17.742 12.5634 17.8573C12.4851 18.5064 12.3725 19.2419 12.0262 19.8964C11.6595 20.5894 11.0624 21.1384 10.1304 21.4833L10.1291 21.4838C9.16579 21.8383 8.28134 21.6719 7.53552 21.1743C6.82966 20.7034 6.26779 19.9528 5.81151 19.1489C4.96842 17.6635 4.3435 15.7287 3.86295 14.2409C3.82322 14.1179 3.78449 13.998 3.74669 13.8816C3.23475 12.3052 2.80187 10.6044 2.74428 9.03878C2.68681 7.47644 3.00049 5.92883 4.11969 4.80963C4.41258 4.51674 4.88746 4.51673 5.18035 4.80963Z" fill="#10181B"/>
<path d="M3.56002 10.93C3.97423 10.93 4.31002 10.5942 4.31002 10.18C4.31002 9.76574 3.97423 9.42995 3.56002 9.42995C3.14581 9.42995 2.81002 9.76574 2.81002 10.18C2.81002 10.5942 3.14581 10.93 3.56002 10.93Z" fill="#10181B"/>
<path d="M6.56002 7.92995C6.97423 7.92995 7.31002 7.59417 7.31002 7.17995C7.31002 6.76574 6.97423 6.42995 6.56002 6.42995C6.14581 6.42995 5.81002 6.76574 5.81002 7.17995C5.81002 7.59417 6.14581 7.92995 6.56002 7.92995Z" fill="#10181B"/>
<path d="M6.56002 13.93C6.97423 13.93 7.31002 13.5942 7.31002 13.18C7.31002 12.7657 6.97423 12.43 6.56002 12.43C6.14581 12.43 5.81002 12.7657 5.81002 13.18C5.81002 13.5942 6.14581 13.93 6.56002 13.93Z" fill="#10181B"/>
<path d="M9.56002 10.93C9.97423 10.93 10.31 10.5942 10.31 10.18C10.31 9.76574 9.97423 9.42995 9.56002 9.42995C9.14581 9.42995 8.81002 9.76574 8.81002 10.18C8.81002 10.5942 9.14581 10.93 9.56002 10.93Z" fill="#10181B"/>
<path d="M12.56 7.92995C12.9742 7.92995 13.31 7.59417 13.31 7.17995C13.31 6.76574 12.9742 6.42995 12.56 6.42995C12.1458 6.42995 11.81 6.76574 11.81 7.17995C11.81 7.59417 12.1458 7.92995 12.56 7.92995Z" fill="#10181B"/>
<path d="M12.56 13.93C12.9742 13.93 13.31 13.5942 13.31 13.18C13.31 12.7657 12.9742 12.43 12.56 12.43C12.1458 12.43 11.81 12.7657 11.81 13.18C11.81 13.5942 12.1458 13.93 12.56 13.93Z" fill="#10181B"/>
<path d="M9.56002 16.93C9.97423 16.93 10.31 16.5942 10.31 16.18C10.31 15.7657 9.97423 15.43 9.56002 15.43C9.14581 15.43 8.81002 15.7657 8.81002 16.18C8.81002 16.5942 9.14581 16.93 9.56002 16.93Z" fill="#10181B"/>
<path d="M15.56 10.93C15.9742 10.93 16.31 10.5942 16.31 10.18C16.31 9.76574 15.9742 9.42995 15.56 9.42995C15.1458 9.42995 14.81 9.76574 14.81 10.18C14.81 10.5942 15.1458 10.93 15.56 10.93Z" fill="#10181B"/>
</svg>
