<svg width="16" height="16" viewBox="0 0 16 16" fill="none" xmlns="http://www.w3.org/2000/svg">
<g clip-path="url(#clip0_29_33543)">
<path fill-rule="evenodd" clip-rule="evenodd" d="M10.4751 2.52701C10.1178 2.60638 9.81301 2.84578 9.67089 3.13012C9.56099 3.34999 9.49972 3.56401 9.53607 3.80718C9.57261 4.05168 9.72519 4.43836 10.2658 4.96263C10.2847 4.98098 10.3027 5.00033 10.3196 5.02058C10.6509 5.41779 11.0855 5.76174 11.6103 6.17711C11.7225 6.26591 11.8389 6.35798 11.9592 6.45452C12.6056 6.97318 13.3288 7.59658 13.8476 8.44433C14.6365 9.72963 14.2646 11.1915 13.554 11.9021C12.7132 12.7429 11.0276 12.9034 9.33021 11.3533C7.92268 10.0679 7.36929 9.14455 6.83174 8.24761C6.76663 8.13897 6.70175 8.03071 6.63561 7.92225C6.06069 6.97938 5.28871 6.262 4.80985 6.05305C4.32297 5.84059 3.83219 5.90084 3.53552 6.19751C3.36471 6.36833 3.26726 6.57138 3.25213 6.80812C3.23663 7.0505 3.30419 7.39145 3.57863 7.82805C4.10042 8.65817 4.79504 9.19076 5.47536 9.71239C5.56438 9.78064 5.65314 9.8487 5.74125 9.91721C5.76887 9.9385 5.79964 9.96192 5.83307 9.98735C6.07918 10.1746 6.46891 10.4711 6.80025 10.8329C7.17475 11.2418 7.57957 11.8435 7.57052 12.6053C7.56128 13.3838 7.21322 14.0255 6.64351 14.4521C6.09455 14.8632 5.38462 15.0449 4.65387 15.0449H3.90387V13.5449H4.65387C5.15389 13.5449 5.52088 13.4188 5.74437 13.2515C5.9471 13.0997 6.06701 12.8921 6.07063 12.5875C6.07303 12.3851 5.96401 12.1407 5.69411 11.846C5.46047 11.5909 5.18487 11.3802 4.93217 11.187C4.89562 11.1591 4.85954 11.1315 4.82414 11.1042L4.82166 11.1023C4.74353 11.0415 4.66018 10.978 4.57268 10.9113C3.90073 10.3993 2.98416 9.70094 2.30867 8.62631C1.90619 7.98599 1.7153 7.33616 1.75518 6.7124C1.79543 6.08298 2.06722 5.54449 2.47486 5.13685C3.33512 4.27659 4.54281 4.29993 5.40977 4.67824C6.28476 5.06005 7.26046 6.06575 7.91631 7.14134C7.98569 7.25513 8.05241 7.36636 8.11816 7.47598C8.63859 8.34366 9.09835 9.1102 10.3417 10.2457C11.6228 11.4156 12.3741 10.9607 12.4933 10.8415C12.7427 10.5921 12.9738 9.88804 12.5691 9.22881L12.5685 9.22783C12.1951 8.61745 11.6508 8.13028 11.0204 7.62445C10.9233 7.54651 10.8225 7.46701 10.7194 7.38577C10.2029 6.97847 9.63118 6.52769 9.19355 6.01213C8.50872 5.33975 8.14971 4.67895 8.05255 4.02892C7.95388 3.36877 8.14261 2.83271 8.32916 2.45948C8.68691 1.74375 9.38211 1.23324 10.1498 1.0627C10.9407 0.887033 11.8337 1.06797 12.5304 1.76463L13.0607 2.29496L12 3.35562L11.4697 2.82529C11.1664 2.52196 10.8093 2.45278 10.4751 2.52701Z" fill="#10181B"/>
</g>
<defs>
<clipPath id="clip0_29_33543">
<rect width="16" height="16" fill="white"/>
</clipPath>
</defs>
</svg>
