<svg width="24" height="24" viewBox="0 0 24 24" fill="none" xmlns="http://www.w3.org/2000/svg">
<path fill-rule="evenodd" clip-rule="evenodd" d="M2.5 10V2H10.5V10H2.5ZM4 3.5H9V8.5H4V3.5Z" fill="#10181B"/>
<path fill-rule="evenodd" clip-rule="evenodd" d="M17.0052 2.25C14.7755 2.25 12.968 4.05752 12.968 6.2872C12.968 8.51689 14.7755 10.3244 17.0052 10.3244C19.2349 10.3244 21.0424 8.51689 21.0424 6.2872C21.0424 4.05752 19.2349 2.25 17.0052 2.25ZM14.468 6.2872C14.468 4.88594 15.604 3.75 17.0052 3.75C18.4065 3.75 19.5424 4.88594 19.5424 6.2872C19.5424 7.68846 18.4065 8.8244 17.0052 8.8244C15.604 8.8244 14.468 7.68846 14.468 6.2872Z" fill="#10181B"/>
<path fill-rule="evenodd" clip-rule="evenodd" d="M17.1567 12.3433L12.1715 17.3285L17.1567 22.3138L22.142 17.3285L17.1567 12.3433ZM20.0207 17.3285L17.1567 14.4646L14.2928 17.3285L17.1567 20.1925L20.0207 17.3285Z" fill="#10181B"/>
<path fill-rule="evenodd" clip-rule="evenodd" d="M7.15349 13.6281C7.02001 13.3943 6.77154 13.2501 6.50239 13.25C6.23325 13.2499 5.98471 13.3941 5.85112 13.6277L1.84891 20.6277C1.71619 20.8599 1.71709 21.1451 1.85127 21.3764C1.98545 21.6076 2.23262 21.75 2.5 21.75H10.5C10.7673 21.75 11.0144 21.6077 11.1486 21.3765C11.2828 21.1453 11.2838 20.8602 11.1513 20.6281L7.15349 13.6281ZM9.20797 20.25H3.79274L6.50185 15.5117L9.20797 20.25Z" fill="#10181B"/>
</svg>
