<svg width="16" height="16" viewBox="0 0 16 16" fill="none" xmlns="http://www.w3.org/2000/svg">
<path d="M12.1601 1.91016C10.8733 1.91016 9.83008 2.95332 9.83008 4.24015C9.83008 4.32454 9.83456 4.40788 9.84331 4.48994C9.13955 4.82026 8.28538 5.21347 7.42657 5.60879L7.42186 5.61096C6.57028 6.00295 5.71441 6.39692 5.00474 6.72999C4.58052 6.28619 3.98267 6.00977 3.32025 6.00977C2.03344 6.00977 0.990234 7.05293 0.990234 8.33977C0.990234 9.6266 2.03344 10.6698 3.32025 10.6698C3.9828 10.6698 4.58075 10.3932 5.00499 9.94929C5.67954 10.265 6.47702 10.6323 7.27777 11.0012L7.43013 11.0714C8.28602 11.4656 9.13694 11.858 9.84438 12.1905C9.83493 12.2758 9.83008 12.3624 9.83008 12.4501C9.83008 13.737 10.8733 14.7801 12.1601 14.7801C13.4469 14.7801 14.4901 13.7369 14.4901 12.4501C14.4901 11.1633 13.4469 10.1201 12.1601 10.1201C11.5013 10.1201 10.9064 10.3935 10.4826 10.8331C9.76711 10.4968 8.9107 10.1019 8.05773 9.70898L7.90996 9.64091C7.1036 9.26947 6.3073 8.90266 5.63707 8.58896C5.64577 8.50709 5.65024 8.42395 5.65024 8.33977C5.65024 8.25546 5.64576 8.17221 5.63703 8.09022C6.34079 7.75989 7.19497 7.36669 8.05379 6.97136L8.0585 6.96919C8.91013 6.57717 9.76605 6.18318 10.4757 5.8501C10.9 6.2938 11.4978 6.57016 12.1601 6.57016C13.4469 6.57016 14.4901 5.52697 14.4901 4.24015C14.4901 2.95334 13.4469 1.91016 12.1601 1.91016Z" fill="#10181B"/>
</svg>
