<svg width="24" height="24" viewBox="0 0 24 24" fill="none" xmlns="http://www.w3.org/2000/svg">
<path fill-rule="evenodd" clip-rule="evenodd" d="M16.681 7.43631C17.2762 8.18782 18.1968 8.66992 19.23 8.66992C21.0249 8.66992 22.48 7.21485 22.48 5.41992C22.48 3.625 21.0249 2.16992 19.23 2.16992C17.4351 2.16992 15.98 3.625 15.98 5.41992C15.98 5.64507 16.0029 5.86486 16.0465 6.07711C14.9105 6.61138 13.4911 7.26459 12.0587 7.92376L11.9179 7.98859C10.4412 8.66817 8.96016 9.35017 7.78123 9.90634C7.18601 9.15322 6.26444 8.66992 5.22998 8.66992C3.43506 8.66992 1.97998 10.125 1.97998 11.9199C1.97998 13.7148 3.43506 15.1699 5.22998 15.1699C6.26041 15.1699 7.17884 14.6904 7.77426 13.9423C8.89508 14.4667 10.2465 15.0878 11.6111 15.7148C13.1825 16.4369 14.7717 17.1672 16.0456 17.7669C16.0026 17.9779 15.98 18.1963 15.98 18.4199C15.98 20.2148 17.4351 21.6699 19.23 21.6699C21.0249 21.6699 22.48 20.2148 22.48 18.4199C22.48 16.625 21.0249 15.1699 19.23 15.1699C18.1952 15.1699 17.2735 15.6535 16.6783 16.4069C15.4146 15.8123 13.7977 15.069 12.208 14.3382C10.8423 13.7105 9.49643 13.0917 8.41197 12.5845C8.45655 12.37 8.47998 12.1477 8.47998 11.9199C8.47998 11.696 8.45734 11.4774 8.41422 11.2663C9.58479 10.714 11.0618 10.0338 12.545 9.35121L12.6925 9.28334C14.1177 8.62745 15.5391 7.97331 16.681 7.43631ZM19.23 3.66992C18.2635 3.66992 17.48 4.45342 17.48 5.41992C17.48 5.64956 17.5242 5.86886 17.6046 6.06978C17.6202 6.09455 17.6345 6.12049 17.6474 6.14756C17.6622 6.17876 17.6747 6.21048 17.685 6.2425C17.9794 6.79435 18.5608 7.16992 19.23 7.16992C20.1965 7.16992 20.98 6.38642 20.98 5.41992C20.98 4.45342 20.1965 3.66992 19.23 3.66992ZM19.23 16.6699C18.2635 16.6699 17.48 17.4534 17.48 18.4199C17.48 19.3864 18.2635 20.1699 19.23 20.1699C20.1965 20.1699 20.98 19.3864 20.98 18.4199C20.98 17.4534 20.1965 16.6699 19.23 16.6699ZM6.81228 12.6598C6.82102 12.6413 6.83041 12.6233 6.84042 12.6059C6.93026 12.3952 6.97998 12.1634 6.97998 11.9199C6.97998 10.9534 6.19648 10.1699 5.22998 10.1699C4.26348 10.1699 3.47998 10.9534 3.47998 11.9199C3.47998 12.8864 4.26348 13.6699 5.22998 13.6699C5.90858 13.6699 6.49697 13.2837 6.78729 12.719C6.79471 12.6991 6.80304 12.6793 6.81228 12.6598Z" fill="#10181B"/>
</svg>
