<svg width="16" height="16" viewBox="0 0 16 16" fill="none" xmlns="http://www.w3.org/2000/svg">
<path d="M10 5.5C10 6.60457 9.10457 7.5 8 7.5C6.89543 7.5 6 6.60457 6 5.5C6 4.39543 6.89543 3.5 8 3.5C9.10457 3.5 10 4.39543 10 5.5Z" fill="#10181B"/>
<path d="M6.5 10.5C6.5 11.6046 5.60457 12.5 4.5 12.5C3.39543 12.5 2.5 11.6046 2.5 10.5C2.5 9.39543 3.39543 8.5 4.5 8.5C5.60457 8.5 6.5 9.39543 6.5 10.5Z" fill="#10181B"/>
<path d="M11.5 12.5C12.6046 12.5 13.5 11.6046 13.5 10.5C13.5 9.39543 12.6046 8.5 11.5 8.5C10.3954 8.5 9.5 9.39543 9.5 10.5C9.5 11.6046 10.3954 12.5 11.5 12.5Z" fill="#10181B"/>
</svg>
