<svg width="24" height="24" viewBox="0 0 24 24" fill="none" xmlns="http://www.w3.org/2000/svg">
<path d="M15.25 8C15.25 9.65685 13.9069 11 12.25 11C10.5931 11 9.25 9.65685 9.25 8C9.25 6.34315 10.5931 5 12.25 5C13.9069 5 15.25 6.34315 15.25 8Z" fill="#10181B"/>
<path d="M10 15.5C10 17.1569 8.65685 18.5 7 18.5C5.34315 18.5 4 17.1569 4 15.5C4 13.8431 5.34315 12.5 7 12.5C8.65685 12.5 10 13.8431 10 15.5Z" fill="#10181B"/>
<path d="M17.5 18.5C19.1569 18.5 20.5 17.1569 20.5 15.5C20.5 13.8431 19.1569 12.5 17.5 12.5C15.8431 12.5 14.5 13.8431 14.5 15.5C14.5 17.1569 15.8431 18.5 17.5 18.5Z" fill="#10181B"/>
</svg>
