<svg width="16" height="16" viewBox="0 0 16 16" fill="none" xmlns="http://www.w3.org/2000/svg">
<path d="M4 3.5C4 4.32843 4.67157 5 5.5 5C6.32843 5 7 4.32843 7 3.5C7 2.67157 6.32843 2 5.5 2C4.67157 2 4 2.67157 4 3.5Z" fill="#10181B"/>
<path d="M9 3.5C9 4.32843 9.67157 5 10.5 5C11.3284 5 12 4.32843 12 3.5C12 2.67157 11.3284 2 10.5 2C9.67157 2 9 2.67157 9 3.5Z" fill="#10181B"/>
<path d="M9 8C9 8.82843 9.67157 9.5 10.5 9.5C11.3284 9.5 12 8.82843 12 8C12 7.17157 11.3284 6.5 10.5 6.5C9.67157 6.5 9 7.17157 9 8Z" fill="#10181B"/>
<path d="M10.5 14C9.67157 14 9 13.3284 9 12.5C9 11.6716 9.67157 11 10.5 11C11.3284 11 12 11.6716 12 12.5C12 13.3284 11.3284 14 10.5 14Z" fill="#10181B"/>
<path d="M5.5 9.5C4.67157 9.5 4 8.82843 4 8C4 7.17157 4.67157 6.5 5.5 6.5C6.32843 6.5 7 7.17157 7 8C7 8.82843 6.32843 9.5 5.5 9.5Z" fill="#10181B"/>
<path d="M4 12.5C4 13.3284 4.67157 14 5.5 14C6.32843 14 7 13.3284 7 12.5C7 11.6716 6.32843 11 5.5 11C4.67157 11 4 11.6716 4 12.5Z" fill="#10181B"/>
</svg>
