<svg width="16" height="16" viewBox="0 0 16 16" fill="none" xmlns="http://www.w3.org/2000/svg">
<path fill-rule="evenodd" clip-rule="evenodd" d="M9.97206 8.00031C9.97206 9.08941 9.08917 9.9723 8.00007 9.9723C6.91097 9.9723 6.02808 9.08941 6.02808 8.00031C6.02808 6.91121 6.91097 6.02832 8.00007 6.02832C9.08917 6.02832 9.97206 6.91121 9.97206 8.00031ZM8.47206 8.00031C8.47206 8.26098 8.26074 8.4723 8.00007 8.4723C7.73939 8.4723 7.52808 8.26098 7.52808 8.00031C7.52808 7.73964 7.73939 7.52832 8.00007 7.52832C8.26074 7.52832 8.47206 7.73964 8.47206 8.00031Z" fill="black"/>
<path fill-rule="evenodd" clip-rule="evenodd" d="M12.4905 12.2408C12.3244 12.2892 12.1453 12.2718 11.9925 12.1923L11.5936 12.0631C11.1841 11.9888 10.7609 12.0722 10.4135 12.2955C10.0662 12.5188 9.82186 12.8646 9.73228 13.2597C9.72838 13.3141 9.72838 13.3688 9.73228 13.4232C9.71285 13.5815 9.63458 13.7275 9.51217 13.8337C9.38977 13.9399 9.23165 13.999 9.06752 14H6.93144C6.76594 13.9988 6.60671 13.9384 6.4841 13.8305C6.36149 13.7225 6.2841 13.5745 6.26668 13.4146C6.23221 13.0909 6.0925 12.7862 5.86781 12.5448C5.64311 12.3034 5.34509 12.1377 5.01694 12.0717C4.67856 12.003 4.32625 12.0454 4.01537 12.1923C3.86204 12.2695 3.68378 12.2857 3.51834 12.2375C3.3529 12.1893 3.21327 12.0804 3.12903 11.934L2.08314 10.2123C2.00061 10.0675 1.9785 9.89744 2.02139 9.73723C2.06428 9.57703 2.16888 9.43895 2.31359 9.35151C2.54456 9.21364 2.73531 9.02059 2.86762 8.79077C2.99993 8.56095 3.0694 8.30204 3.0694 8.03874C3.0694 7.77544 2.99993 7.51652 2.86762 7.28671C2.73531 7.05689 2.54456 6.86384 2.31359 6.72597C2.17053 6.63711 2.06731 6.49906 2.02458 6.33944C1.98185 6.17982 2.00276 6.01042 2.08314 5.86514L3.13789 4.14347C3.22378 3.99867 3.36283 3.89072 3.52718 3.84123C3.69153 3.79175 3.86907 3.80439 4.02423 3.87662C4.1377 3.92675 4.25663 3.96429 4.37877 3.98852C4.58488 4.03548 4.79855 4.04213 5.00734 4.00808C5.21612 3.97404 5.41584 3.89997 5.59485 3.79021C5.77386 3.68044 5.92859 3.53717 6.05002 3.36874C6.17145 3.20032 6.25716 3.0101 6.30213 2.80919V2.59398C6.31553 2.43185 6.39144 2.28061 6.51468 2.17049C6.63793 2.06037 6.79943 1.99948 6.96689 2H9.05866C9.22613 1.99948 9.38763 2.06037 9.51087 2.17049C9.63411 2.28061 9.71002 2.43185 9.72342 2.59398C9.73024 2.9354 9.8543 3.26482 10.0759 3.52995C10.2975 3.79508 10.6039 3.98072 10.9466 4.05739C11.2896 4.13344 11.649 4.09398 11.9659 3.94548C12.12 3.87253 12.2968 3.85859 12.461 3.90644C12.6252 3.95429 12.7649 4.06042 12.8522 4.20373L13.907 5.9254C13.9903 6.06921 14.0138 6.23855 13.9726 6.39864C13.9313 6.55874 13.8286 6.69743 13.6854 6.78623C13.4621 6.92476 13.2784 7.11567 13.1511 7.34133C13.0238 7.567 12.9571 7.82017 12.9571 8.07748C12.9571 8.33478 13.0238 8.58795 13.1511 8.81362C13.2784 9.03929 13.4621 9.23019 13.6854 9.36872C13.8255 9.45581 13.928 9.5896 13.9737 9.74495C14.0194 9.90029 14.0051 10.0665 13.9335 10.2123L12.8788 11.934C12.7962 12.0821 12.6566 12.1924 12.4905 12.2408ZM9.60242 11.0337C9.05663 11.3846 8.63481 11.8974 8.40039 12.5H7.57625C7.43803 12.1397 7.23106 11.8079 6.96587 11.5229C6.52455 11.0487 5.94546 10.729 5.31548 10.6017C4.90441 10.5183 4.48235 10.5194 4.07534 10.6027L3.76297 10.0884C3.91712 9.922 4.05309 9.73803 4.16756 9.5392C4.42996 9.08344 4.5694 8.5667 4.5694 8.03874C4.5694 7.51078 4.42996 6.99404 4.16756 6.53828C4.05359 6.34033 3.91831 6.1571 3.765 5.99124L4.08995 5.46082C4.47099 5.54185 4.86417 5.55125 5.24877 5.48853C5.64835 5.42336 6.03259 5.28132 6.37894 5.06896C6.72537 4.85654 7.02779 4.57744 7.26677 4.24598C7.43213 4.01662 7.56463 3.76558 7.6603 3.5H8.3733C8.49204 3.86059 8.67879 4.19737 8.92498 4.49192C9.36198 5.01475 9.95978 5.37366 10.619 5.52119L10.6219 5.52183C11.0469 5.61607 11.4853 5.61906 11.9076 5.53331L12.233 6.06444C12.085 6.22879 11.9544 6.40963 11.8446 6.60444C11.5914 7.05336 11.4571 7.56011 11.4571 8.07748C11.4571 8.59484 11.5914 9.10159 11.8446 9.55051C11.9568 9.7495 12.0906 9.93393 12.2426 10.1011L11.9364 10.6008L11.8614 10.5872C11.0813 10.4457 10.2721 10.6032 9.60242 11.0337Z" fill="black"/>
</svg>
