<svg width="16" height="16" viewBox="0 0 16 16" fill="none" xmlns="http://www.w3.org/2000/svg">
<path d="M13.6854 9.36872C13.4621 9.23019 13.2784 9.03929 13.1511 8.81362C13.0238 8.58795 12.9571 8.33479 12.9571 8.07748C12.9571 7.82017 13.0238 7.567 13.1511 7.34133C13.2784 7.11567 13.4621 6.92476 13.6854 6.78623C13.8286 6.69743 13.9313 6.55874 13.9726 6.39864C14.0138 6.23855 13.9903 6.06921 13.907 5.9254L12.8522 4.20373C12.7649 4.06042 12.6252 3.95429 12.461 3.90644C12.2968 3.85859 12.12 3.87253 11.9659 3.94548C11.649 4.09398 11.2896 4.13344 10.9466 4.05739C10.6039 3.98072 10.2975 3.79508 10.0759 3.52995C9.8543 3.26482 9.73024 2.9354 9.72342 2.59398C9.71002 2.43185 9.63411 2.28061 9.51087 2.17049C9.38763 2.06037 9.22613 1.99948 9.05866 2H6.96689C6.79943 1.99948 6.63793 2.06037 6.51468 2.17049C6.39144 2.28061 6.31553 2.43185 6.30213 2.59398C6.30213 2.65424 6.30213 2.71449 6.30213 2.80919C6.25716 3.0101 6.17145 3.20032 6.05002 3.36874C5.92859 3.53717 5.77386 3.68044 5.59485 3.79021C5.41584 3.89997 5.21612 3.97404 5.00734 4.00808C4.79855 4.04213 4.58488 4.03548 4.37877 3.98852C4.25664 3.96429 4.1377 3.92675 4.02423 3.87662C3.86907 3.80439 3.69153 3.79175 3.52718 3.84123C3.36283 3.89072 3.22378 3.99867 3.13789 4.14347L2.08314 5.86514C2.00276 6.01042 1.98185 6.17982 2.02458 6.33944C2.06731 6.49906 2.17053 6.63711 2.31359 6.72597C2.54456 6.86384 2.73531 7.05689 2.86762 7.28671C2.99993 7.51652 3.0694 7.77544 3.0694 8.03874C3.0694 8.30204 2.99993 8.56095 2.86762 8.79077C2.73531 9.02059 2.54456 9.21364 2.31359 9.35151C2.16888 9.43895 2.06428 9.57703 2.02139 9.73723C1.9785 9.89744 2.00061 10.0675 2.08314 10.2123L3.12903 11.934C3.21327 12.0804 3.3529 12.1893 3.51834 12.2375C3.68378 12.2857 3.86204 12.2695 4.01537 12.1923C4.32625 12.0454 4.67856 12.003 5.01694 12.0717C5.34509 12.1377 5.64311 12.3034 5.86781 12.5448C6.09251 12.7862 6.23221 13.0909 6.26668 13.4146C6.2841 13.5745 6.36149 13.7225 6.4841 13.8305C6.60671 13.9384 6.76594 13.9988 6.93144 14H9.06752C9.23165 13.999 9.38977 13.9399 9.51218 13.8337C9.63458 13.7275 9.71285 13.5815 9.73228 13.4232C9.72838 13.3688 9.72838 13.3141 9.73228 13.2597C9.82186 12.8646 10.0662 12.5188 10.4136 12.2955C10.7609 12.0722 11.1841 11.9888 11.5936 12.0631L11.9925 12.1923C12.1453 12.2718 12.3244 12.2892 12.4905 12.2408C12.6566 12.1924 12.7962 12.0821 12.8788 11.934L13.9335 10.2123C14.0051 10.0665 14.0194 9.90029 13.9737 9.74495C13.928 9.5896 13.8255 9.45581 13.6854 9.36872ZM9.90955 8.06887C9.90955 8.43529 9.79756 8.79346 9.58777 9.098C9.37798 9.40254 9.07983 9.63976 8.73111 9.77958C8.38238 9.91941 7.99877 9.95555 7.62887 9.88344C7.25897 9.81133 6.91944 9.6342 6.65329 9.3745C6.38714 9.1148 6.20634 8.78422 6.13382 8.42463C6.06129 8.06505 6.1003 7.69265 6.24589 7.35462C6.39148 7.01658 6.63711 6.72813 6.95166 6.5258C7.2662 6.32347 7.6355 6.21638 8.01278 6.21808C8.26261 6.21808 8.50999 6.26601 8.74069 6.35913C8.9714 6.45224 9.18089 6.58871 9.35714 6.76068C9.53339 6.93266 9.67292 7.13675 9.76772 7.36125C9.86252 7.58575 9.91072 7.82623 9.90955 8.06887Z" fill="#10181B"/>
</svg>
