<svg width="24" height="24" viewBox="0 0 24 24" fill="none" xmlns="http://www.w3.org/2000/svg">
<path fill-rule="evenodd" clip-rule="evenodd" d="M15.5266 12C15.5266 13.9477 13.9477 15.5265 12.0001 15.5265C10.0525 15.5265 8.47364 13.9477 8.47364 12C8.47364 10.0524 10.0525 8.47355 12.0001 8.47355C13.9477 8.47355 15.5266 10.0524 15.5266 12ZM14.0266 12C14.0266 13.1192 13.1193 14.0265 12.0001 14.0265C10.8809 14.0265 9.97364 13.1192 9.97364 12C9.97364 10.8808 10.8809 9.97355 12.0001 9.97355C13.1193 9.97355 14.0266 10.8808 14.0266 12Z" fill="black"/>
<path fill-rule="evenodd" clip-rule="evenodd" d="M19.4968 18.4303L21.5358 14.8165C20.1033 13.5414 19.7105 11.3956 20.7048 9.66777C20.9456 9.24932 21.2485 8.88888 21.5951 8.5914L19.574 5.16949C18.5307 5.47383 17.3697 5.36891 16.3534 4.78405C15.2462 4.14696 14.5453 3.07532 14.3418 1.9082L9.6636 1.95453C9.44995 3.10381 8.7529 4.15578 7.6603 4.78452C6.67794 5.34982 5.56046 5.46674 4.54471 5.19913L2.55915 8.71823C2.84741 8.98964 3.10125 9.30736 3.30891 9.66823C4.28505 11.3645 3.92425 13.4638 2.55518 14.7463L4.70368 18.384C6.4248 17.9961 8.26926 18.7473 9.1954 20.3567C9.40262 20.7168 9.54959 21.0951 9.63946 21.4798L14.3854 21.4328C14.4761 21.0641 14.6194 20.7018 14.8183 20.3562C15.778 18.6884 17.724 17.9423 19.4968 18.4303ZM18.8078 6.82175L19.7411 8.402C19.6209 8.56669 19.5084 8.73932 19.4047 8.91963C18.2679 10.8951 18.4618 13.2691 19.7049 15.009L18.6995 16.7908C16.6489 16.684 14.6134 17.7049 13.5182 19.6081C13.4547 19.7184 13.3953 19.8302 13.34 19.9431L10.6863 19.9694C10.6274 19.8477 10.5638 19.7273 10.4955 19.6086C9.43345 17.7629 7.48722 16.7474 5.50116 16.7846L4.38664 14.8976C5.55941 13.1689 5.7217 10.8537 4.60902 8.92008C4.53576 8.79278 4.45817 8.66928 4.37653 8.5497L5.34661 6.83038C6.38194 6.87732 7.44381 6.63973 8.40844 6.08463C9.50047 5.45622 10.3026 4.51642 10.7673 3.44367L13.236 3.41923C13.6992 4.50194 14.505 5.45104 15.6052 6.08416C16.6138 6.66454 17.7284 6.89776 18.8078 6.82175Z" fill="black"/>
</svg>
