<svg width="24" height="24" viewBox="0 0 24 24" fill="none" xmlns="http://www.w3.org/2000/svg">
<path d="M20.6831 14.0243C20.1898 13.7079 19.8029 13.2469 19.5736 12.7024C19.3443 12.1579 19.2835 11.5556 19.3991 10.9752C19.478 10.5927 19.6325 10.2304 19.8532 9.91007C20.0739 9.58975 20.3562 9.31808 20.6831 9.11144C20.8272 9.0181 20.9306 8.87233 20.972 8.70407C21.0135 8.53581 20.9899 8.35782 20.906 8.20667L19.2564 5.32953C19.17 5.17729 19.0295 5.06435 18.8637 5.01388C18.6979 4.9634 18.5193 4.97923 18.3647 5.0581C17.9436 5.26351 17.4792 5.36086 17.0123 5.3416C16.5455 5.32233 16.0904 5.18704 15.6872 4.94761C15.2839 4.70819 14.9447 4.37194 14.6995 3.96843C14.4543 3.56491 14.3104 3.10645 14.2806 2.63334C14.2693 2.46133 14.1939 2.30014 14.0697 2.18251C13.9454 2.06488 13.7818 1.99963 13.6118 2.00001H10.366C10.2003 1.99905 10.0402 2.06053 9.91665 2.17252C9.79309 2.28451 9.7149 2.43905 9.69723 2.6062C9.68518 2.75511 9.66433 2.90316 9.63481 3.04953C9.4742 3.79805 9.02948 4.45226 8.39695 4.87052C7.76442 5.28878 6.99498 5.43743 6.25522 5.28429C6.03628 5.23825 5.82368 5.16533 5.62211 5.06715C5.46743 4.98828 5.28886 4.97245 5.12305 5.02292C4.95723 5.0734 4.81674 5.18634 4.7304 5.33858L3.08073 8.17953C2.99986 8.33222 2.97882 8.51027 3.02181 8.67804C3.0648 8.8458 3.16865 8.9909 3.31257 9.08429C3.81428 9.39932 4.20779 9.86395 4.43924 10.4146C4.67069 10.9653 4.72878 11.575 4.60556 12.1605C4.51896 12.534 4.36007 12.8863 4.1381 13.1969C3.91613 13.5076 3.63552 13.7704 3.31257 13.97C3.16849 14.0633 3.06511 14.2091 3.02365 14.3774C2.98219 14.5456 3.00581 14.7236 3.08965 14.8748L4.74823 17.8514C4.83298 18.0053 4.97346 18.1198 5.1399 18.1704C5.30634 18.2211 5.48568 18.204 5.63994 18.1229C6.04789 17.9274 6.49579 17.8332 6.94669 17.8481C7.39759 17.8629 7.83855 17.9863 8.23316 18.2082C8.62777 18.43 8.96471 18.7439 9.21618 19.1239C9.46765 19.504 9.62642 19.9392 9.67939 20.3938C9.69895 20.5602 9.77769 20.7136 9.90084 20.8252C10.024 20.9368 10.1831 20.999 10.3482 21H13.6564C13.8263 21.0004 13.99 20.9351 14.1142 20.8175C14.2385 20.6999 14.3139 20.5387 14.3252 20.3667C14.3166 20.2794 14.3166 20.1915 14.3252 20.1043C14.4012 19.7248 14.5513 19.3646 14.7665 19.0449C14.9818 18.7251 15.2579 18.4522 15.5786 18.2423C15.8993 18.0324 16.2581 17.8897 16.634 17.8226C17.0099 17.7554 17.3951 17.7653 17.7672 17.8514C17.9807 17.892 18.1877 17.962 18.3825 18.0595C18.5368 18.1407 18.7161 18.1577 18.8825 18.1071C19.049 18.0564 19.1895 17.942 19.2742 17.7881L20.915 14.9471C20.999 14.7922 21.0218 14.6106 20.9787 14.4392C20.9357 14.2679 20.83 14.1195 20.6831 14.0243ZM14.8959 11.5724C14.8959 12.154 14.7259 12.7225 14.4075 13.206C14.0891 13.6896 13.6364 14.0665 13.1069 14.289C12.5773 14.5116 11.9946 14.5698 11.4325 14.4564C10.8703 14.3429 10.3539 14.0628 9.94861 13.6516C9.5433 13.2404 9.26729 12.7164 9.15547 12.146C9.04365 11.5756 9.10104 10.9844 9.32038 10.4471C9.53973 9.90981 9.91118 9.45057 10.3878 9.12747C10.8644 8.80437 11.4247 8.63191 11.9978 8.63191C12.7657 8.6343 13.5015 8.94486 14.0445 9.49579C14.5875 10.0467 14.8936 10.7933 14.8959 11.5724Z" fill="#10181B"/>
</svg>
