<svg width="16" height="16" viewBox="0 0 16 16" fill="none" xmlns="http://www.w3.org/2000/svg">
<g clip-path="url(#clip0_44_41029)">
<path d="M5.3 5.6C6.02653 5.6 6.65252 5.16957 6.93688 4.5498H14.49V3.0498H6.9367C6.65225 2.43025 6.02637 2 5.3 2C4.57363 2 3.94775 2.43025 3.6633 3.0498H1V4.5498H3.66312C3.94748 5.16957 4.57348 5.6 5.3 5.6Z" fill="#10181B"/>
<path d="M14.49 12.3701H6.93692C6.65258 11.7503 6.02656 11.3198 5.3 11.3198C4.57344 11.3198 3.94742 11.7503 3.66308 12.3701H1V13.8701H3.66335C3.94781 14.4896 4.57367 14.9198 5.3 14.9198C6.02633 14.9198 6.65219 14.4896 6.93665 13.8701H14.49V12.3701Z" fill="#10181B"/>
<path d="M11.8274 9.22998C11.5389 9.83897 10.9186 10.2602 10.1999 10.2602C9.48123 10.2602 8.86092 9.83897 8.57236 9.22998H1V7.72998H8.55416C8.83422 7.09969 9.46573 6.66016 10.1999 6.66016C10.9341 6.66016 11.5656 7.09969 11.8456 7.72998H14.49V9.22998H11.8274Z" fill="#10181B"/>
</g>
<defs>
<clipPath id="clip0_44_41029">
<rect width="13.49" height="12.92" fill="white" transform="translate(1 2)"/>
</clipPath>
</defs>
</svg>
