<svg width="24" height="24" viewBox="0 0 24 24" fill="none" xmlns="http://www.w3.org/2000/svg">
<g clip-path="url(#clip0_44_41020)">
<path d="M10.2855 6.06006C9.97413 6.96766 9.11326 7.62 8.10004 7.62C7.08681 7.62 6.22595 6.96766 5.91454 6.06006H2V4.56006H5.9145C6.22588 3.6524 7.08677 3 8.10004 3C9.11331 3 9.9742 3.6524 10.2856 4.56006H21.58V6.06006H10.2855Z" fill="#10181B"/>
<path d="M10.2855 20.1099C9.97413 21.0175 9.11326 21.6698 8.10004 21.6698C7.08681 21.6698 6.22595 21.0175 5.91454 20.1099H2V18.6099H5.9145C6.22588 17.7022 7.08677 17.0498 8.10004 17.0498C9.11331 17.0498 9.9742 17.7022 10.2856 18.6099H21.58V20.1099H10.2855Z" fill="#10181B"/>
<path d="M17.6655 11.6099H21.58V13.1099H17.6654C17.354 14.0175 16.4931 14.6698 15.4799 14.6698C14.4667 14.6698 13.6058 14.0175 13.2944 13.1099H2V11.6099H13.2944C13.6058 10.7022 14.4667 10.0498 15.4799 10.0498C16.4932 10.0498 17.3541 10.7022 17.6655 11.6099Z" fill="#10181B"/>
</g>
<defs>
<clipPath id="clip0_44_41020">
<rect width="19.58" height="18.67" fill="white" transform="translate(2 3)"/>
</clipPath>
</defs>
</svg>
