<svg width="16" height="16" viewBox="0 0 16 16" fill="none" xmlns="http://www.w3.org/2000/svg">
<path d="M13.2215 7.5756C13.9459 6.85118 14.2513 5.99196 14.2018 5.15083C14.1534 4.32815 13.7699 3.58023 13.2215 3.03184C12.6731 2.48346 11.9252 2.09993 11.1025 2.05154C10.2614 2.00206 9.40214 2.30742 8.67772 3.03184L7.9146 3.79496L8.97593 4.85496L9.73838 4.0925C10.175 3.6559 10.6219 3.52586 11.0144 3.54895C11.4253 3.57312 11.8384 3.77011 12.1608 4.0925C12.4832 4.41489 12.6802 4.82801 12.7044 5.23892C12.7275 5.63139 12.5974 6.07834 12.1608 6.51494L10.4193 8.25649C9.95658 8.71919 9.13609 9.07335 8.38243 8.69652C8.14463 8.57762 7.95003 8.4185 7.80821 8.26449C7.73772 8.18793 7.68427 8.11695 7.6472 8.05914C7.61241 8.00489 7.59937 7.97363 7.5975 7.96914L6.17447 8.44348C6.26736 8.72215 6.46492 9.02008 6.70477 9.28056C6.95509 9.55241 7.29263 9.82867 7.71161 10.0382C9.28002 10.8224 10.7816 10.0155 11.4799 9.31715L13.2215 7.5756Z" fill="#10181B"/>
<path d="M3.2855 8.42442C2.56108 9.14885 2.25572 10.0081 2.3052 10.8492C2.3536 11.6719 2.73712 12.4198 3.28551 12.9682C3.83389 13.5166 4.58181 13.9001 5.4045 13.9485C6.24562 13.998 7.10484 13.6926 7.82927 12.9682L8.59238 12.2051L7.53106 11.1451L6.76861 11.9075C6.332 12.3441 5.88506 12.4742 5.49258 12.4511C5.08167 12.4269 4.66856 12.2299 4.34617 11.9075C4.02378 11.5851 3.82678 11.172 3.80261 10.7611C3.77953 10.3686 3.90956 9.92169 4.34617 9.48508L6.08772 7.74353C6.55041 7.28084 7.3709 6.92667 8.12456 7.3035C8.36236 7.4224 8.55696 7.58153 8.69877 7.73553C8.76927 7.8121 8.82272 7.88307 8.85979 7.94088C8.89458 7.99513 8.90762 8.02639 8.90949 8.03089L10.3325 7.55654C10.2396 7.27787 10.0421 6.97994 9.80222 6.71946C9.5519 6.44761 9.21436 6.17135 8.79538 5.96186C7.22697 5.17766 5.7254 5.98453 5.02705 6.68287L3.2855 8.42442Z" fill="#10181B"/>
</svg>
