<svg width="16" height="16" viewBox="0 0 16 16" fill="none" xmlns="http://www.w3.org/2000/svg">
<path fill-rule="evenodd" clip-rule="evenodd" d="M7.99989 5.60001C7.56428 5.60001 7.16108 5.72482 6.80888 5.92822L4.25046 3.31941C5.27827 2.4956 6.58088 2 7.99989 2C9.4201 2 10.7221 2.4956 11.7493 3.31941L9.19149 5.92822C8.83929 5.72482 8.43609 5.60001 7.99989 5.60001ZM5.95103 6.76707C5.73323 7.12888 5.60002 7.54708 5.60002 8.00008C5.60002 8.45248 5.73323 8.87128 5.95043 9.23248L3.39261 11.8407C2.5238 10.8003 2 9.46169 2 8.00008C2 6.53787 2.5238 5.19927 3.39261 4.15886L5.95103 6.76707ZM10.0496 9.23308C10.2674 8.87128 10.4 8.45248 10.4 8.00008C10.4 7.54708 10.2674 7.12828 10.0496 6.76707L12.6075 4.15886C13.4763 5.19927 14.0001 6.53787 14.0001 8.00008C14.0001 9.46229 13.4763 10.8003 12.6075 11.8413L10.0496 9.23308ZM9.19158 10.072C8.83937 10.2748 8.43617 10.4002 7.99997 10.4002C7.56437 10.4002 7.16116 10.2748 6.80836 10.0714L4.25054 12.6802C5.27835 13.5046 6.58036 14.0002 7.99997 14.0002C9.41958 14.0002 10.7222 13.5046 11.75 12.6802L9.19158 10.072Z" fill="#10181B"/>
</svg>
