<svg width="24" height="24" viewBox="0 0 24 24" fill="none" xmlns="http://www.w3.org/2000/svg">
<path d="M19.6277 11.2383C20.7391 10.1268 21.1896 8.83222 21.116 7.5799C21.0434 6.34601 20.4664 5.21108 19.6277 4.37244C18.7891 3.53379 17.6541 2.95676 16.4203 2.88418C15.1679 2.81052 13.8733 3.261 12.7619 4.37244L10.8268 6.30749L11.8875 7.36811L13.8225 5.4331C14.6462 4.60948 15.5285 4.33432 16.3322 4.38159C17.1543 4.42995 17.9544 4.82045 18.567 5.4331C19.1797 6.04574 19.5702 6.84587 19.6186 7.66798C19.6658 8.47165 19.3907 9.35398 18.5671 10.1776L15.6645 13.0802C14.8148 13.9299 13.2203 14.6711 11.6926 13.9072C11.2358 13.6789 10.8639 13.3746 10.5913 13.0786C10.3084 12.7713 10.1697 12.5142 10.1336 12.4058L8.7106 12.8802C8.83574 13.2556 9.11734 13.6923 9.4879 14.0947C9.86893 14.5085 10.3839 14.9299 11.0218 15.2489C13.3642 16.4201 15.6398 15.2262 16.7251 14.1408L19.6277 11.2383Z" fill="#10181B"/>
<path d="M4.37244 12.7621C3.261 13.8735 2.81052 15.1681 2.88418 16.4204C2.95676 17.6543 3.5338 18.7893 4.37244 19.6279C5.21108 20.4665 6.34601 21.0436 7.5799 21.1162C8.83222 21.1898 10.1268 20.7393 11.2383 19.6279L13.1733 17.6929L12.1126 16.6322L10.1776 18.5672C9.35398 19.3909 8.47165 19.666 7.66798 19.6187C6.84587 19.5704 6.04575 19.1799 5.4331 18.5672C4.82045 17.9546 4.42995 17.1545 4.38159 16.3324C4.33432 15.5287 4.60948 14.6464 5.4331 13.8227L8.33568 10.9202C9.18538 10.0705 10.7799 9.32929 12.3076 10.0931C12.7643 10.3215 13.1363 10.6257 13.4088 10.9217C13.6918 11.229 13.8304 11.4862 13.8665 11.5945L15.2895 11.1202C15.1644 10.7448 14.8828 10.3081 14.5122 9.90563C14.1312 9.49183 13.6163 9.07044 12.9784 8.75148C10.636 7.58027 8.36037 8.77415 7.27502 9.8595L4.37244 12.7621Z" fill="#10181B"/>
</svg>
