<svg width="24" height="24" viewBox="0 0 24 24" fill="none" xmlns="http://www.w3.org/2000/svg">
<path fill-rule="evenodd" clip-rule="evenodd" d="M11.9998 8.4C11.3464 8.4 10.7416 8.5872 10.2133 8.8923L6.37566 4.9791C7.91736 3.7434 9.87126 3 11.9998 3C14.1301 3 16.0831 3.7434 17.6239 4.9791L13.7872 8.8923C13.2589 8.5872 12.6541 8.4 11.9998 8.4ZM8.9265 10.1506C8.5998 10.6933 8.4 11.3206 8.4 12.0001C8.4 12.6787 8.5998 13.3069 8.9256 13.8487L5.0889 17.761C3.7857 16.2004 3 14.1925 3 12.0001C3 9.80679 3.7857 7.79889 5.0889 6.23829L8.9265 10.1506ZM15.0744 13.8496C15.4011 13.3069 15.6 12.6787 15.6 12.0001C15.6 11.3206 15.4011 10.6924 15.0744 10.1506L18.9111 6.23829C20.2143 7.79889 21 9.80679 21 12.0001C21 14.1934 20.2143 16.2004 18.9111 17.7619L15.0744 13.8496ZM13.7873 15.1079C13.259 15.4121 12.6542 15.6002 11.9999 15.6002C11.3465 15.6002 10.7417 15.4121 10.2125 15.107L6.37579 19.0202C7.9175 20.2568 9.8705 21.0002 11.9999 21.0002C14.1293 21.0002 16.0832 20.2568 17.6249 19.0202L13.7873 15.1079Z" fill="#10181B"/>
</svg>
