<svg width="24" height="24" viewBox="0 0 24 24" fill="none" xmlns="http://www.w3.org/2000/svg">
<path fill-rule="evenodd" clip-rule="evenodd" d="M11.4156 2.46094C10.0965 2.46094 8.98705 3.40804 8.76628 4.70509L8.02563 9.14886V20.9609H17.9656C19.3804 20.9609 20.5644 19.8893 20.7021 18.4841L21.3024 11.4806C21.3779 10.7244 21.1887 9.97926 20.7455 9.40849C20.2926 8.8251 19.6 8.46094 18.7756 8.46094H13.6606L14.1258 5.66227C14.4001 3.98881 13.1114 2.46094 11.4156 2.46094ZM10.245 4.95679L10.2452 4.95569C10.3449 4.37332 10.8351 3.96094 11.4156 3.96094C12.1796 3.96094 12.7707 4.65337 12.6455 5.41961L11.8907 9.96094H18.7756C19.1313 9.96094 19.3887 10.1068 19.5607 10.3284C19.7414 10.561 19.8523 10.9134 19.8094 11.335L19.2088 18.3418C19.1447 18.9747 18.6095 19.4609 17.9656 19.4609H9.52563V9.27301L10.245 4.95679Z" fill="#10181B"/>
<path d="M3.28296 9.13184H6.25586V20.8698H3.28296V9.13184Z" fill="#10181B"/>
</svg>
