<svg width="24" height="24" viewBox="0 0 24 24" fill="none" xmlns="http://www.w3.org/2000/svg">
<path d="M9.84346 16.5534L9.62793 11.5534L11.1265 11.4888L11.3421 16.4888L9.84346 16.5534Z" fill="#10181B"/>
<path d="M15.166 11.5397L15.0418 16.5397L13.5422 16.5024L13.6665 11.5024L15.166 11.5397Z" fill="#10181B"/>
<path fill-rule="evenodd" clip-rule="evenodd" d="M12.3461 3.25C10.0718 3.25 8.16787 4.83548 7.67923 6.96143H2.92285V8.46143H4.98977L7.52872 21.3572H17.6101L19.8669 8.46143H21.769V6.96143H17.0129C16.5243 4.83548 14.6203 3.25 12.3461 3.25ZM12.3461 4.75C10.9071 4.75 9.68404 5.67422 9.23805 6.96143H15.4541C15.0081 5.67422 13.785 4.75 12.3461 4.75ZM8.76219 19.8572L6.53896 8.56499L18.326 8.56495L16.3498 19.8572H8.76219Z" fill="#10181B"/>
</svg>
