<svg width="16" height="16" viewBox="0 0 16 16" fill="none" xmlns="http://www.w3.org/2000/svg">
<path fill-rule="evenodd" clip-rule="evenodd" d="M7.97195 0.751465C6.96486 0.751465 6.11876 1.47506 5.94429 2.45584L5.31949 5.72181L5.26196 6.00643V14.2515H12.2119C13.2893 14.2515 14.189 13.4279 14.298 12.3683L14.302 12.33V12.3132L14.6988 7.63035C14.754 7.07009 14.6152 6.50554 14.275 6.06608C13.9243 5.61316 13.3862 5.33147 12.752 5.33147H9.63732L10.039 3.21104L10.0413 3.19769C10.2603 1.91484 9.26171 0.751465 7.97195 0.751465ZM7.42077 2.72047C7.46893 2.44461 7.70132 2.25146 7.97195 2.25146C8.34036 2.25146 8.62085 2.58475 8.56355 2.93992L7.82661 6.83147H12.752C12.9177 6.83147 13.0196 6.89477 13.0889 6.98435C13.1673 7.08564 13.2287 7.25833 13.2057 7.48589L12.8029 12.2391C12.7607 12.5278 12.5063 12.7515 12.2119 12.7515H6.76196V6.15651L6.79057 6.01518L7.41868 2.73241L7.42077 2.72047Z" fill="#10181B"/>
<path d="M2.08911 6.08154H3.80444V14.2402H2.08911V6.08154Z" fill="#10181B"/>
</svg>
