<svg width="16" height="16" viewBox="0 0 16 16" fill="none" xmlns="http://www.w3.org/2000/svg">
<path fill-rule="evenodd" clip-rule="evenodd" d="M7.97171 14.9902C6.96461 14.9902 6.11852 14.2666 5.94405 13.2859L5.31925 10.0199L5.26172 9.73527V1.49023H12.2117C13.2891 1.49023 14.1887 2.31384 14.2978 3.37343L14.3017 3.41173V3.42852L14.6986 8.11135C14.7538 8.67161 14.615 9.23616 14.2748 9.67562C13.9241 10.1285 13.386 10.4102 12.7517 10.4102H9.63708L10.0388 12.5307L10.041 12.544C10.2601 13.8269 9.26147 14.9902 7.97171 14.9902ZM7.42052 13.0212C7.46869 13.2971 7.70107 13.4902 7.97171 13.4902C8.34011 13.4902 8.6206 13.157 8.56331 12.8018L7.82636 8.91023H12.7517C12.9174 8.91023 13.0193 8.84693 13.0887 8.75735C13.1671 8.65606 13.2285 8.48337 13.2054 8.25581L12.8026 3.50257C12.7605 3.21389 12.5061 2.99023 12.2117 2.99023H6.76172V9.58519L6.79033 9.72652L7.41844 13.0093L7.42052 13.0212Z" fill="#10181B"/>
<path d="M2.08887 9.66016H3.8042V1.50146H2.08887V9.66016Z" fill="#10181B"/>
</svg>
