<svg width="24" height="24" viewBox="0 0 24 24" fill="none" xmlns="http://www.w3.org/2000/svg">
<path d="M8.94406 5.60889C8.97599 5.22587 9.07116 4.86082 9.21908 4.5242C9.23802 4.48111 9.25782 4.43849 9.27846 4.39635C9.83375 3.26288 10.9988 2.48242 12.3461 2.48242C13.6875 2.48242 14.8483 3.25616 15.4064 4.3817L15.4137 4.39635C15.5956 4.76766 15.712 5.17684 15.7481 5.60889H21.769V7.10889H2.92285V5.60889H8.94406Z" fill="#10181B"/>
<path fill-rule="evenodd" clip-rule="evenodd" d="M19.8234 8.43408L17.393 21.1071H7.74164L5.00732 8.43413L19.8234 8.43408ZM9.62793 11.5534L9.84346 16.5534L11.3421 16.4888L11.1265 11.4888L9.62793 11.5534ZM15.0418 16.5397L15.166 11.5397L13.6665 11.5024L13.5422 16.5024L15.0418 16.5397Z" fill="#10181B"/>
</svg>
