<svg width="24" height="24" viewBox="0 0 24 24" fill="none" xmlns="http://www.w3.org/2000/svg">
<path fill-rule="evenodd" clip-rule="evenodd" d="M11.4154 21.6196C10.0963 21.6196 8.98681 20.6725 8.76604 19.3755L8.02539 14.9317V3.11963H17.9654C19.3801 3.11963 20.5641 4.1913 20.7019 5.59644L21.3022 12.6C21.3776 13.3562 21.1884 14.1013 20.7453 14.6721C20.2924 15.2555 19.5997 15.6196 18.7754 15.6196H13.6603L14.1255 18.4183C14.3999 20.0918 13.1112 21.6196 11.4154 21.6196ZM10.2448 19.1238L10.245 19.1249C10.3446 19.7072 10.8349 20.1196 11.4154 20.1196C12.1794 20.1196 12.7704 19.4272 12.6453 18.661L11.8904 14.1196H18.7754C19.1311 14.1196 19.3884 13.9738 19.5605 13.7522C19.7411 13.5195 19.852 13.1672 19.8091 12.7455L19.2086 5.73881C19.1445 5.1059 18.6093 4.61963 17.9654 4.61963H9.52539V14.8076L10.2448 19.1238Z" fill="#10181B"/>
<path d="M3.28271 14.9487H6.25562V3.21082H3.28271V14.9487Z" fill="#10181B"/>
</svg>
