<svg width="24" height="24" viewBox="0 0 24 24" fill="none" xmlns="http://www.w3.org/2000/svg">
<path d="M8.00011 6.93934L12.0001 10.9393L16 6.93945L17.0607 8.00011L13.0608 12L17.0608 16L16.0001 17.0607L12.0001 13.0607L8 17.0608L6.93934 16.0001L10.9395 12L6.93945 8L8.00011 6.93934Z" fill="#10181B"/>
<path fill-rule="evenodd" clip-rule="evenodd" d="M22 12C22 17.5228 17.5228 22 12 22C6.47715 22 2 17.5228 2 12C2 6.47715 6.47715 2 12 2C17.5228 2 22 6.47715 22 12ZM20.5 12C20.5 16.6944 16.6944 20.5 12 20.5C7.30558 20.5 3.5 16.6944 3.5 12C3.5 7.30558 7.30558 3.5 12 3.5C16.6944 3.5 20.5 7.30558 20.5 12Z" fill="#10181B"/>
</svg>
