<svg width="16" height="16" viewBox="0 0 16 16" fill="none" xmlns="http://www.w3.org/2000/svg">
<path d="M6.00011 4.93934L8.00011 6.93934L10 4.93945L11.0607 6.00011L9.06077 8L11.0608 10L10.0001 11.0607L8.00011 9.06066L5.99998 11.0608L4.93932 10.0001L6.93945 8L4.93945 6L6.00011 4.93934Z" fill="#10181B"/>
<path fill-rule="evenodd" clip-rule="evenodd" d="M15 8C15 11.866 11.866 15 8 15C4.13401 15 1 11.866 1 8C1 4.13401 4.13401 1 8 1C11.866 1 15 4.13401 15 8ZM13.5 8C13.5 11.0376 11.0376 13.5 8 13.5C4.96243 13.5 2.5 11.0376 2.5 8C2.5 4.96243 4.96243 2.5 8 2.5C11.0376 2.5 13.5 4.96243 13.5 8Z" fill="#10181B"/>
</svg>
