<svg width="24" height="24" viewBox="0 0 24 24" fill="none" xmlns="http://www.w3.org/2000/svg">
<path d="M4.53003 8.44503C4.53003 10.465 6.17003 12.105 8.19003 12.105C10.21 12.105 11.85 10.465 11.85 8.44503C11.85 6.42503 10.21 4.78503 8.19003 4.78503C6.17003 4.78503 4.53003 6.42503 4.53003 8.44503Z" fill="#10181B"/>
<path d="M2 19.2151H14.32C14.73 19.2151 15.07 18.8751 15.07 18.4651C15.07 15.9651 13.04 13.9351 10.54 13.9351H5.78C3.28 13.9351 1.25 15.9651 1.25 18.4651C1.25 18.8751 1.59 19.2151 2 19.2151Z" fill="#10181B"/>
<path d="M17.0001 12.105C14.9801 12.105 13.3401 10.465 13.3401 8.44503C13.3401 6.42503 14.9801 4.78503 17.0001 4.78503C19.0201 4.78503 20.6601 6.42503 20.6601 8.44503C20.6601 10.465 19.0201 12.105 17.0001 12.105Z" fill="#10181B"/>
<path d="M18.31 19.2151H21.9201C22.3301 19.2151 22.6701 18.8751 22.6701 18.4651C22.6701 15.9651 20.6401 13.9351 18.1401 13.9351H16.33C15.98 13.9351 15.75 14.0851 15.69 14.4351C15.64 14.7251 15.82 15.0151 16.05 15.3851C16.05 15.3851 16.26 15.6551 16.75 16.5751C17.32 17.6451 17.56 18.4651 17.56 18.4651C17.71 18.9151 17.9 19.2151 18.31 19.2151Z" fill="#10181B"/>
</svg>
