<svg width="24" height="24" viewBox="0 0 24 24" fill="none" xmlns="http://www.w3.org/2000/svg">
<path fill-rule="evenodd" clip-rule="evenodd" d="M5.54932 7.57685C5.54932 4.79112 7.8076 2.53284 10.5933 2.53284C13.3791 2.53284 15.6373 4.79112 15.6373 7.57685C15.6373 10.3626 13.3791 12.6209 10.5933 12.6209C7.8076 12.6209 5.54932 10.3626 5.54932 7.57685ZM10.5933 4.03284C8.63603 4.03284 7.04932 5.61955 7.04932 7.57685C7.04932 9.53416 8.63603 11.1209 10.5933 11.1209C12.5506 11.1209 14.1373 9.53416 14.1373 7.57685C14.1373 5.61955 12.5506 4.03284 10.5933 4.03284Z" fill="#10181B"/>
<path fill-rule="evenodd" clip-rule="evenodd" d="M21.8925 15.3042C21.9725 15.4342 21.9325 15.5942 21.8225 15.6942L21.0625 16.3442C20.8225 16.5942 20.6825 16.8942 20.6825 17.1842C20.6825 17.4742 20.8225 17.7742 21.0725 18.0342L21.8225 18.6742C21.9325 18.7742 21.9725 18.9442 21.8925 19.0642L21.1725 20.3042C21.1725 20.3042 21.1425 20.3542 21.1225 20.3742C21.0625 20.4242 20.9925 20.4442 20.9125 20.4542H20.8025L19.8625 20.1142C19.8025 20.0942 19.7425 20.0842 19.6825 20.0742H19.4925C19.3125 20.0742 19.1325 20.1142 18.9725 20.1942C18.9675 20.1942 18.9625 20.1992 18.9575 20.2042C18.9525 20.2092 18.9475 20.2142 18.9425 20.2142C18.6825 20.3642 18.4925 20.6442 18.4025 20.9842L18.2225 21.9442C18.1925 22.0942 18.0725 22.2042 17.9225 22.2042H16.4825C16.3325 22.2042 16.2125 22.0942 16.1825 21.9442L15.9925 20.9642C15.9125 20.6442 15.7225 20.3642 15.4625 20.2142C15.4625 20.2142 15.4425 20.2042 15.4325 20.1942C15.1725 20.0642 14.8525 20.0442 14.5325 20.1342L13.6025 20.4642H13.4925C13.4125 20.4642 13.3425 20.4342 13.2825 20.3842C13.2625 20.3642 13.2425 20.3342 13.2325 20.3142L12.5125 19.0742C12.4425 18.9542 12.4625 18.7942 12.5725 18.6942L13.3025 18.0042C13.5825 17.7142 13.7225 17.4642 13.7225 17.1942C13.7225 16.9042 13.5825 16.6042 13.3225 16.3342L13.1625 16.1942L12.5825 15.7042C12.4725 15.6042 12.4325 15.4442 12.5125 15.3142L13.2325 14.0742C13.2325 14.0742 13.2525 14.0342 13.2825 14.0142C13.2925 14.0042 13.3025 13.9967 13.3125 13.9892C13.3225 13.9817 13.3325 13.9742 13.3425 13.9642C13.3925 13.9342 13.4425 13.9242 13.5025 13.9242C13.5325 13.9242 13.5625 13.9242 13.5825 13.9342L14.5625 14.2142C14.7325 14.2642 14.8825 14.2942 15.0225 14.2942C15.1725 14.2942 15.3125 14.2642 15.4325 14.2042C15.4425 14.1942 15.4525 14.1842 15.4625 14.1842C15.7225 14.0342 15.9125 13.7542 16.0025 13.4142L16.1825 12.4542C16.2125 12.3042 16.3325 12.1942 16.4825 12.1942H17.9225C18.0625 12.1942 18.1825 12.2942 18.2225 12.4342L18.4525 13.4142C18.5525 13.7942 18.7125 14.0442 18.9425 14.1842C18.9525 14.1842 18.9625 14.1842 18.9725 14.2042C19.1225 14.2742 19.3025 14.3242 19.4925 14.3242C19.6125 14.3242 19.7425 14.3042 19.8825 14.2642L20.8025 13.9342C20.8025 13.9342 20.8625 13.9242 20.9025 13.9242C20.9625 13.9242 21.0125 13.9342 21.0525 13.9642H21.0625C21.1125 14.0042 21.1425 14.0342 21.1725 14.0742L21.8925 15.3142V15.3042ZM18.9525 17.1842C18.9525 16.2142 18.1725 15.4342 17.2025 15.4342C16.2325 15.4342 15.4525 16.2142 15.4525 17.1842C15.4525 18.1542 16.2325 18.9342 17.2025 18.9342C18.1725 18.9342 18.9525 18.1542 18.9525 17.1842Z" fill="#10181B"/>
<path d="M7.59719 14.9103C4.32069 14.9103 1.78662 17.8116 1.78662 21.2358V21.9858H3.28662V21.2358C3.28662 18.5 5.28258 16.4103 7.59719 16.4103H11.333V14.9103H7.59719Z" fill="#10181B"/>
</svg>
