<svg width="16" height="16" viewBox="0 0 16 16" fill="none" xmlns="http://www.w3.org/2000/svg">
<g clip-path="url(#clip0_51_1768)">
<path fill-rule="evenodd" clip-rule="evenodd" d="M3.11673 4.50102C3.11673 2.35442 4.85689 0.614258 7.00349 0.614258C9.15009 0.614258 10.8903 2.35442 10.8903 4.50102C10.8903 6.64762 9.15009 8.38778 7.00349 8.38778C4.85689 8.38778 3.11673 6.64762 3.11673 4.50102ZM7.00349 2.11426C5.68532 2.11426 4.61673 3.18285 4.61673 4.50102C4.61673 5.81919 5.68532 6.88778 7.00349 6.88778C8.32166 6.88778 9.39025 5.81919 9.39025 4.50102C9.39025 3.18285 8.32166 2.11426 7.00349 2.11426Z" fill="#10181B"/>
<path fill-rule="evenodd" clip-rule="evenodd" d="M15.2573 10.1459C15.3157 10.2408 15.2865 10.3577 15.2062 10.4308L14.651 10.9056C14.4757 11.0882 14.3734 11.3074 14.3734 11.5192C14.3734 11.731 14.4757 11.9502 14.6583 12.1401L15.2062 12.6076C15.2865 12.6807 15.3157 12.8049 15.2573 12.8925L14.7313 13.7984C14.7313 13.7984 14.7094 13.8349 14.6948 13.8495C14.651 13.886 14.5999 13.9006 14.5414 13.9079H14.4611L13.7744 13.6596C13.7306 13.6449 13.6867 13.6376 13.6429 13.6303H13.5041C13.3726 13.6303 13.2411 13.6596 13.1243 13.718C13.1206 13.718 13.1169 13.7216 13.1133 13.7253C13.1096 13.729 13.106 13.7326 13.1023 13.7326C12.9124 13.8422 12.7736 14.0467 12.7079 14.2951L12.5764 14.9964C12.5545 15.1059 12.4668 15.1863 12.3572 15.1863H11.3053C11.1957 15.1863 11.1081 15.1059 11.0862 14.9964L10.9474 14.2805C10.8889 14.0467 10.7501 13.8422 10.5602 13.7326C10.5602 13.7326 10.5456 13.7253 10.5383 13.718C10.3484 13.623 10.1146 13.6084 9.88085 13.6742L9.20149 13.9152H9.12113C9.06269 13.9152 9.01155 13.8933 8.96772 13.8568C8.95311 13.8422 8.9385 13.8203 8.9312 13.8057L8.40525 12.8998C8.35412 12.8122 8.36872 12.6953 8.44908 12.6223L8.98234 12.1182C9.18688 11.9064 9.28915 11.7237 9.28915 11.5265C9.28915 11.3147 9.18688 11.0955 8.99695 10.8983L8.88007 10.796L8.45638 10.4381C8.37602 10.365 8.34681 10.2481 8.40525 10.1532L8.9312 9.24736C8.9312 9.24736 8.94581 9.21814 8.96772 9.20353C8.97503 9.19622 8.98233 9.19074 8.98964 9.18527C8.99694 9.17979 9.00425 9.17431 9.01155 9.167C9.04808 9.14509 9.08461 9.13778 9.12844 9.13778C9.15035 9.13778 9.17227 9.13778 9.18688 9.14509L9.90276 9.34963C10.0269 9.38615 10.1365 9.40807 10.2388 9.40807C10.3484 9.40807 10.4506 9.38615 10.5383 9.34232C10.5456 9.33502 10.5529 9.32771 10.5602 9.32771C10.7501 9.21814 10.8889 9.0136 10.9547 8.76523L11.0862 8.06395C11.1081 7.95438 11.1957 7.87402 11.3053 7.87402H12.3572C12.4595 7.87402 12.5472 7.94707 12.5764 8.04934L12.7444 8.76523C12.8174 9.04282 12.9343 9.22544 13.1023 9.32771C13.1096 9.32771 13.1169 9.32771 13.1243 9.34232C13.2338 9.39346 13.3653 9.42998 13.5041 9.42998C13.5918 9.42998 13.6867 9.41537 13.789 9.38615L14.4611 9.14509C14.4611 9.14509 14.5049 9.13778 14.5341 9.13778C14.5779 9.13778 14.6145 9.14509 14.6437 9.167H14.651C14.6875 9.19622 14.7094 9.21814 14.7313 9.24736L15.2573 10.1532V10.1459ZM13.1096 11.5192C13.1096 10.8106 12.5399 10.2408 11.8313 10.2408C11.1227 10.2408 10.5529 10.8106 10.5529 11.5192C10.5529 12.2278 11.1227 12.7976 11.8313 12.7976C12.5399 12.7976 13.1096 12.2278 13.1096 11.5192Z" fill="#10181B"/>
<path d="M4.75312 9.82183C2.39633 9.82183 0.607422 11.9022 0.607422 14.313V15.063H2.10742V14.313C2.10742 12.5905 3.35821 11.3218 4.75312 11.3218H7.50661V9.82183H4.75312Z" fill="#10181B"/>
</g>
<defs>
<clipPath id="clip0_51_1768">
<rect width="16" height="16" fill="white"/>
</clipPath>
</defs>
</svg>
