<svg width="16" height="16" viewBox="0 0 16 16" fill="none" xmlns="http://www.w3.org/2000/svg">
<path fill-rule="evenodd" clip-rule="evenodd" d="M6.4281 5.80868C6.4281 3.9144 7.96372 2.37878 9.858 2.37878C11.7523 2.37878 13.2879 3.9144 13.2879 5.80868C13.2879 7.70296 11.7523 9.23858 9.858 9.23858C7.96372 9.23858 6.4281 7.70296 6.4281 5.80868ZM9.858 3.87878C8.79214 3.87878 7.9281 4.74283 7.9281 5.80868C7.9281 6.87453 8.79214 7.73858 9.858 7.73858C10.9239 7.73858 11.7879 6.87453 11.7879 5.80868C11.7879 4.74283 10.9239 3.87878 9.858 3.87878Z" fill="#10181B"/>
<path d="M4.15988 7.99939V6.10498H2.65988V7.99939H0.765503V9.49939H2.65988V11.387H4.15988V9.49939H6.04752V7.99939H4.15988Z" fill="#10181B"/>
<path d="M8.18257 10.4377C6.12603 10.4377 4.58252 12.2528 4.58252 14.3333V15.0833H6.08252V14.3333C6.08252 12.9385 7.09026 11.9377 8.18257 11.9377H11.7796C12.8719 11.9377 13.8797 12.9385 13.8797 14.3333V15.0833H15.3797V14.3333C15.3797 12.2528 13.8361 10.4377 11.7796 10.4377H8.18257Z" fill="#10181B"/>
</svg>
