<svg width="24" height="24" viewBox="0 0 24 24" fill="none" xmlns="http://www.w3.org/2000/svg">
<path fill-rule="evenodd" clip-rule="evenodd" d="M12.0001 2.75C9.47611 2.75 7.43005 4.79606 7.43005 7.32C7.43005 9.84394 9.47611 11.89 12.0001 11.89C14.524 11.89 16.5701 9.84394 16.5701 7.32C16.5701 4.79606 14.524 2.75 12.0001 2.75ZM8.93005 7.32C8.93005 5.62449 10.3045 4.25 12.0001 4.25C13.6956 4.25 15.0701 5.62449 15.0701 7.32C15.0701 9.01551 13.6956 10.39 12.0001 10.39C10.3045 10.39 8.93005 9.01551 8.93005 7.32Z" fill="#10181B"/>
<path d="M8.87003 14.79C5.71582 14.79 3.16003 17.3458 3.16003 20.5V21.25H4.66003V20.5C4.66003 18.1743 6.54425 16.29 8.87003 16.29H15.13C17.4558 16.29 19.34 18.1743 19.34 20.5V21.25H20.84V20.5C20.84 17.3458 18.2842 14.79 15.13 14.79H8.87003Z" fill="#10181B"/>
</svg>
