<svg width="16" height="16" viewBox="0 0 16 16" fill="none" xmlns="http://www.w3.org/2000/svg">
<path fill-rule="evenodd" clip-rule="evenodd" d="M7.98703 1.28613C5.89407 1.28613 4.19739 2.98281 4.19739 5.07577C4.19739 7.16873 5.89407 8.86541 7.98703 8.86541C10.08 8.86541 11.7767 7.16873 11.7767 5.07577C11.7767 2.98281 10.08 1.28613 7.98703 1.28613ZM5.69739 5.07577C5.69739 3.81124 6.72249 2.78613 7.98703 2.78613C9.25156 2.78613 10.2767 3.81124 10.2767 5.07577C10.2767 6.3403 9.25156 7.36541 7.98703 7.36541C6.72249 7.36541 5.69739 6.3403 5.69739 5.07577Z" fill="#10181B"/>
<path d="M5.49644 9.81152C2.90196 9.81152 0.799683 11.9138 0.799683 14.5083V15.2583H2.29968V14.5083C2.29968 12.7422 3.73039 11.3115 5.49644 11.3115H10.4776C12.2437 11.3115 13.6744 12.7422 13.6744 14.5083V15.2583H15.1744V14.5083C15.1744 11.9138 13.0721 9.81152 10.4776 9.81152H5.49644Z" fill="#10181B"/>
</svg>
