<svg width="24" height="24" viewBox="0 0 24 24" fill="none" xmlns="http://www.w3.org/2000/svg">
<path fill-rule="evenodd" clip-rule="evenodd" d="M9.45809 7.94243C9.45809 5.47317 11.4598 3.47144 13.9291 3.47144C16.3984 3.47144 18.4001 5.47317 18.4001 7.94243C18.4001 10.4117 16.3984 12.4134 13.9291 12.4134C11.4598 12.4134 9.45809 10.4117 9.45809 7.94243ZM13.9291 4.97144C12.2883 4.97144 10.9581 6.3016 10.9581 7.94243C10.9581 9.58327 12.2883 10.9134 13.9291 10.9134C15.5699 10.9134 16.9001 9.58327 16.9001 7.94243C16.9001 6.3016 15.5699 4.97144 13.9291 4.97144Z" fill="#10181B"/>
<path d="M8.25433 11.5835L4.69501 8.12805L3.65016 9.20429L5.86627 11.3558H2.11084V12.8558H5.89339L3.6502 15.0242L4.69273 16.1026L8.25317 12.6609C8.39915 12.5198 8.48169 12.3255 8.4819 12.1225C8.48212 11.9194 8.40001 11.725 8.25433 11.5835Z" fill="#10181B"/>
<path d="M11.3328 14.1972C8.42932 14.1972 6.19751 16.7655 6.19751 19.7787V20.5287H7.69751V19.7787C7.69751 17.4539 9.39121 15.6972 11.3328 15.6972H16.8674C18.8089 15.6972 20.5026 17.4539 20.5026 19.7787V20.5287H22.0026V19.7787C22.0026 16.7655 19.7708 14.1972 16.8674 14.1972H11.3328Z" fill="#10181B"/>
</svg>
