<svg width="16" height="16" viewBox="0 0 16 16" fill="none" xmlns="http://www.w3.org/2000/svg">
<path d="M3.1084 5.62096C3.1084 6.97278 4.20592 8.07029 5.55773 8.07029C6.90955 8.07029 8.00707 6.97278 8.00707 5.62096C8.00707 4.26915 6.90955 3.17163 5.55773 3.17163C4.20592 3.17163 3.1084 4.26915 3.1084 5.62096Z" fill="#10181B"/>
<path d="M1.41524 12.8284H9.65999C9.93437 12.8284 10.1619 12.6009 10.1619 12.3265C10.1619 10.6534 8.8034 9.29492 7.13035 9.29492H3.94488C2.27184 9.29492 0.91333 10.6534 0.91333 12.3265C0.91333 12.6009 1.14086 12.8284 1.41524 12.8284Z" fill="#10181B"/>
<path d="M11.4535 8.07029C10.1017 8.07029 9.00415 6.97278 9.00415 5.62096C9.00415 4.26915 10.1017 3.17163 11.4535 3.17163C12.8053 3.17163 13.9028 4.26915 13.9028 5.62096C13.9028 6.97278 12.8053 8.07029 11.4535 8.07029Z" fill="#10181B"/>
<path d="M12.33 12.8284H14.7459C15.0203 12.8284 15.2478 12.6009 15.2478 12.3265C15.2478 10.6534 13.8893 9.29492 12.2163 9.29492H11.005C10.7707 9.29492 10.6168 9.3953 10.5767 9.62953C10.5432 9.8236 10.6637 10.0177 10.8176 10.2653C10.8176 10.2653 10.9581 10.446 11.286 11.0617C11.6675 11.7777 11.8281 12.3265 11.8281 12.3265C11.9285 12.6276 12.0556 12.8284 12.33 12.8284Z" fill="#10181B"/>
</svg>
