<svg width="24" height="24" viewBox="0 0 24 24" fill="none" xmlns="http://www.w3.org/2000/svg">
<path fill-rule="evenodd" clip-rule="evenodd" d="M8.19296 4.78503C6.1716 4.78503 4.53296 6.42367 4.53296 8.44503C4.53296 10.4664 6.1716 12.105 8.19296 12.105C10.2143 12.105 11.853 10.4664 11.853 8.44503C11.853 6.42367 10.2143 4.78503 8.19296 4.78503ZM6.03296 8.44503C6.03296 7.2521 7.00003 6.28503 8.19296 6.28503C9.3859 6.28503 10.353 7.2521 10.353 8.44503C10.353 9.63797 9.3859 10.605 8.19296 10.605C7.00003 10.605 6.03296 9.63797 6.03296 8.44503Z" fill="#10181B"/>
<path d="M5.77292 13.9349C3.2687 13.9349 1.24292 15.9607 1.24292 18.4649V19.2149H2.74292V18.4649C2.74292 16.7892 4.09713 15.4349 5.77292 15.4349H10.5329C12.2087 15.4349 13.5629 16.7892 13.5629 18.4649V19.2149H15.0629V18.4649C15.0629 15.9607 13.0371 13.9349 10.5329 13.9349H5.77292Z" fill="#10181B"/>
<path fill-rule="evenodd" clip-rule="evenodd" d="M13.343 8.44503C13.343 6.42367 14.9817 4.78503 17.003 4.78503C19.0244 4.78503 20.663 6.42367 20.663 8.44503C20.663 10.4664 19.0244 12.105 17.003 12.105C14.9817 12.105 13.343 10.4664 13.343 8.44503ZM17.003 6.28503C15.8101 6.28503 14.843 7.2521 14.843 8.44503C14.843 9.63797 15.8101 10.605 17.003 10.605C18.196 10.605 19.163 9.63797 19.163 8.44503C19.163 7.2521 18.196 6.28503 17.003 6.28503Z" fill="#10181B"/>
<path d="M18.1429 13.9349H15.0129V15.4349H18.1429C19.8187 15.4349 21.1729 16.7892 21.1729 18.4649V19.2149H22.6729V18.4649C22.6729 15.9607 20.6472 13.9349 18.1429 13.9349Z" fill="#10181B"/>
</svg>
