<svg width="16" height="16" viewBox="0 0 16 16" fill="none" xmlns="http://www.w3.org/2000/svg">
<path fill-rule="evenodd" clip-rule="evenodd" d="M5.29138 2.79016C3.76849 2.79016 2.53394 4.02471 2.53394 5.54761C2.53394 7.0705 3.76849 8.30505 5.29138 8.30505C6.81428 8.30505 8.04883 7.0705 8.04883 5.54761C8.04883 4.02471 6.81428 2.79016 5.29138 2.79016ZM4.03394 5.54761C4.03394 4.85314 4.59691 4.29016 5.29138 4.29016C5.98585 4.29016 6.54883 4.85314 6.54883 5.54761C6.54883 6.24207 5.98585 6.80505 5.29138 6.80505C4.59691 6.80505 4.03394 6.24207 4.03394 5.54761Z" fill="#10181B"/>
<path d="M3.62177 9.10217C1.76578 9.10217 0.26416 10.6038 0.26416 12.4598V13.2098H1.76416V12.4598C1.76416 11.4322 2.59421 10.6022 3.62177 10.6022H6.90543C7.93299 10.6022 8.76304 11.4322 8.76304 12.4598V13.2098H10.263V12.4598C10.263 10.6038 8.76142 9.10217 6.90543 9.10217H3.62177Z" fill="#10181B"/>
<path fill-rule="evenodd" clip-rule="evenodd" d="M8.3479 5.54761C8.3479 4.02471 9.58245 2.79016 11.1053 2.79016C12.6282 2.79016 13.8628 4.02471 13.8628 5.54761C13.8628 7.0705 12.6282 8.30505 11.1053 8.30505C9.58245 8.30505 8.3479 7.0705 8.3479 5.54761ZM11.1053 4.29016C10.4109 4.29016 9.8479 4.85314 9.8479 5.54761C9.8479 6.24207 10.4109 6.80505 11.1053 6.80505C11.7998 6.80505 12.3628 6.24207 12.3628 5.54761C12.3628 4.85314 11.7998 4.29016 11.1053 4.29016Z" fill="#10181B"/>
<path d="M11.8542 9.10217H10.6621V10.6022H11.8542C12.8818 10.6022 13.7119 11.4322 13.7119 12.4598V13.2098H15.2119V12.4598C15.2119 10.6038 13.7102 9.10217 11.8542 9.10217Z" fill="#10181B"/>
</svg>
