<svg width="24" height="24" viewBox="0 0 24 24" fill="none" xmlns="http://www.w3.org/2000/svg">
<path d="M3.5 18.2895V14.0386L3.51042 14.0498L10.1444 7.88967L15.5306 10.3379L21.3592 7.15864L20.6409 5.8418L15.4696 8.66252L9.85575 6.11077L3.5 12.0125V8.29217L9.61049 4.80046L15.5407 6.28302L21.2563 4.20461L20.7437 2.79492L15.4593 4.71651L9.38958 3.19907L3.5 6.56454V2H2V18.59C2 20.1018 3.22335 21.34 4.75 21.34H21.34V19.84H4.75C4.56557 19.84 4.39082 19.8003 4.23364 19.729L10.1972 12.9134L15.6141 15.3756L21.4749 10.5804L20.5251 9.41943L15.3859 13.6242L9.80272 11.0864L3.5 18.2895Z" fill="#10181B"/>
</svg>
