<svg width="24" height="24" viewBox="0 0 24 24" fill="none" xmlns="http://www.w3.org/2000/svg">
<rect width="24" height="24" fill="white"/>
<path d="M5.41084 3.30831C7.08392 2.40343 9.35823 1.90518 11.8785 1.90518C14.3863 1.90518 16.703 2.34124 18.4224 3.14356C20.1087 3.93043 21.4328 5.18677 21.4328 6.90268V7.11863C21.354 7.68706 20.9232 8.28622 19.6076 8.80141C18.1086 9.38841 15.7101 9.74147 12.2549 9.74147C8.76142 9.74147 6.22759 9.45328 4.59907 8.89285C3.79025 8.61451 3.27857 8.29338 2.97729 7.97424C2.71368 7.69501 2.58442 7.39183 2.57135 7.01922C2.71538 5.4129 3.85467 4.14996 5.41084 3.30831Z" fill="#10181B"/>
<path d="M2.60029 10.1823C2.60924 11.2153 2.6137 12.3261 2.61576 13.3821C2.67512 13.6153 2.79358 13.8215 2.97729 14.0161C3.27857 14.3353 3.79025 14.6564 4.59907 14.9348C6.22759 15.4952 8.76142 15.7834 12.2549 15.7834C15.7101 15.7834 18.1086 15.4303 19.6076 14.8433C20.9232 14.3281 21.354 13.729 21.4328 13.1605V10.1317C21.0996 10.3317 20.7323 10.5089 20.3369 10.6637C18.4874 11.388 15.7898 11.7415 12.2549 11.7415C8.71126 11.7415 5.90278 11.4566 3.94826 10.784C3.45981 10.6159 3.0066 10.4176 2.60029 10.1823Z" fill="#10181B"/>
<path d="M21.4328 16.1736C21.0996 16.3736 20.7323 16.5508 20.3369 16.7056C18.4874 17.4299 15.7898 17.7834 12.2549 17.7834C8.71126 17.7834 5.90278 17.4985 3.94826 16.8259C3.46642 16.6601 3.01889 16.4649 2.61682 16.2338C2.61664 16.4547 2.61644 16.6621 2.61625 16.8532C2.61591 17.1948 2.61563 17.4845 2.61563 17.7073C2.61563 18.5086 3.00229 19.1907 3.57064 19.7314C4.13211 20.2655 4.90332 20.6971 5.78938 21.0372C7.56489 21.7187 9.96419 22.0948 12.5736 22.0948C15.199 22.0948 17.3485 21.6389 18.8714 20.888C20.3609 20.1536 21.4328 19.0294 21.4328 17.6378V16.1736Z" fill="#10181B"/>
</svg>
