<svg width="24" height="24" viewBox="0 0 24 24" fill="none" xmlns="http://www.w3.org/2000/svg">
<g clip-path="url(#clip0_44_41677)">
<path d="M3.74023 3C4.15445 3 4.49023 3.33579 4.49023 3.75V13.4641L8.31006 12.073V3.75C8.31006 3.33579 8.64584 3 9.06006 3C9.47427 3 9.81006 3.33579 9.81006 3.75V11.5267L13.6401 10.1319V3.75C13.6401 3.33579 13.9759 3 14.3901 3C14.8043 3 15.1401 3.33579 15.1401 3.75V9.58562L18.96 8.19451V3.75C18.96 3.33579 19.2957 3 19.71 3C20.1242 3 20.46 3.33579 20.46 3.75V7.64824L21.4836 7.27546C21.8728 7.13372 22.3032 7.33433 22.4449 7.72354C22.5867 8.11274 22.3861 8.54316 21.9969 8.68491L20.46 9.24461V19.75C20.46 20.1642 20.1242 20.5 19.71 20.5C19.2957 20.5 18.96 20.1642 18.96 19.75V9.79089L15.1401 11.182V19.75C15.1401 20.1642 14.8043 20.5 14.3901 20.5C13.9759 20.5 13.6401 20.1642 13.6401 19.75V11.7283L9.81006 13.1231V19.75C9.81006 20.1642 9.47427 20.5 9.06006 20.5C8.64584 20.5 8.31006 20.1642 8.31006 19.75V13.6694L4.49023 15.0605V19.75C4.49023 20.1642 4.15445 20.5 3.74023 20.5C3.32602 20.5 2.99023 20.1642 2.99023 19.75V15.6068L2.00685 15.9649C1.61764 16.1066 1.18722 15.906 1.04548 15.5168C0.90374 15.1276 1.10435 14.6972 1.49356 14.5555L2.99023 14.0104V3.75C2.99023 3.33579 3.32602 3 3.74023 3Z" fill="#10181B"/>
</g>
<defs>
<clipPath id="clip0_44_41677">
<rect width="21.49" height="17.5" fill="white" transform="translate(1 3)"/>
</clipPath>
</defs>
</svg>
