<svg width="16" height="16" viewBox="0 0 16 16" fill="none" xmlns="http://www.w3.org/2000/svg">
<g clip-path="url(#clip0_44_41736)">
<path fill-rule="evenodd" clip-rule="evenodd" d="M0.697266 1.9624H15.3032V6.70855H14.2061C14.1935 6.70918 14.1808 6.7095 14.168 6.7095H6.76282L6.76282 12.5376H6.78522V14.0376H0.697266V1.9624ZM13.8032 3.4624V5.2095H10.9786V3.4624H13.8032ZM6.76282 3.4624H9.47862V5.2095H6.76282V3.4624ZM2.19727 3.4624H5.26282V5.2095H2.19727V3.4624ZM2.19727 8.72267V6.7095H5.26282V8.72267H2.19727ZM2.19727 12.5376V10.2227H5.26282V12.5376H2.19727Z" fill="#10181B"/>
<path d="M11.3969 12.7136C12.8258 12.7136 13.9841 11.5553 13.9841 10.1264C13.9841 8.69743 12.8258 7.53906 11.3969 7.53906C9.96794 7.53906 8.80957 8.69743 8.80957 10.1264C8.80957 11.5553 9.96794 12.7136 11.3969 12.7136Z" fill="#10181B"/>
<path d="M16.2393 13.9083L14.227 11.8959L13.1663 12.9566L15.1787 14.9689L16.2393 13.9083Z" fill="#10181B"/>
</g>
<defs>
<clipPath id="clip0_44_41736">
<rect width="16" height="16" fill="white"/>
</clipPath>
</defs>
</svg>
