<svg width="24" height="24" viewBox="0 0 24 24" fill="none" xmlns="http://www.w3.org/2000/svg">
<g clip-path="url(#clip0_44_41703)">
<path d="M8.75 9.75C9.30228 9.75 9.75 10.1977 9.75 10.75C9.75 11.3023 9.30228 11.75 8.75 11.75C8.19772 11.75 7.75 11.3023 7.75 10.75C7.75 10.1977 8.19772 9.75 8.75 9.75Z" fill="#10181B"/>
<path d="M12.75 10.75C12.75 10.1977 12.3023 9.75 11.75 9.75C11.1977 9.75 10.75 10.1977 10.75 10.75C10.75 11.3023 11.1977 11.75 11.75 11.75C12.3023 11.75 12.75 11.3023 12.75 10.75Z" fill="#10181B"/>
<path d="M14.79 9.75C15.3423 9.75 15.79 10.1977 15.79 10.75C15.79 11.3023 15.3423 11.75 14.79 11.75C14.2378 11.75 13.79 11.3023 13.79 10.75C13.79 10.1977 14.2378 9.75 14.79 9.75Z" fill="#10181B"/>
<path d="M9.75 13.75C9.75 13.1977 9.30228 12.75 8.75 12.75C8.19772 12.75 7.75 13.1977 7.75 13.75C7.75 14.3023 8.19772 14.75 8.75 14.75C9.30228 14.75 9.75 14.3023 9.75 13.75Z" fill="#10181B"/>
<path d="M11.75 12.75C12.3023 12.75 12.75 13.1977 12.75 13.75C12.75 14.3023 12.3023 14.75 11.75 14.75C11.1977 14.75 10.75 14.3023 10.75 13.75C10.75 13.1977 11.1977 12.75 11.75 12.75Z" fill="#10181B"/>
<path d="M9.75 16.75C9.75 16.1977 9.30228 15.75 8.75 15.75C8.19772 15.75 7.75 16.1977 7.75 16.75C7.75 17.3023 8.19772 17.75 8.75 17.75C9.30228 17.75 9.75 17.3023 9.75 16.75Z" fill="#10181B"/>
<path d="M11.75 15.75C12.3023 15.75 12.75 16.1977 12.75 16.75C12.75 17.3023 12.3023 17.75 11.75 17.75C11.1977 17.75 10.75 17.3023 10.75 16.75C10.75 16.1977 11.1977 15.75 11.75 15.75Z" fill="#10181B"/>
<path d="M15.79 13.75C15.79 13.1977 15.3423 12.75 14.79 12.75C14.2378 12.75 13.79 13.1977 13.79 13.75V16.75C13.79 17.3023 14.2378 17.75 14.79 17.75C15.3423 17.75 15.79 17.3023 15.79 16.75V13.75Z" fill="#10181B"/>
<path d="M9.09993 5.33008C8.31569 5.33008 7.67993 5.96583 7.67993 6.75008V6.76008C7.67993 7.54432 8.31569 8.18008 9.09993 8.18008H14.3699C15.1542 8.18008 15.7899 7.54432 15.7899 6.76008V6.75008C15.7899 5.96583 15.1542 5.33008 14.3699 5.33008H9.09993Z" fill="#10181B"/>
<path fill-rule="evenodd" clip-rule="evenodd" d="M7.75 2C6.23122 2 5 3.23122 5 4.75V18.75C5 20.2688 6.23122 21.5 7.75 21.5H15.75C17.2688 21.5 18.5 20.2688 18.5 18.75V4.75C18.5 3.23122 17.2688 2 15.75 2H7.75ZM6.5 4.75C6.5 4.05964 7.05964 3.5 7.75 3.5H15.75C16.4404 3.5 17 4.05964 17 4.75V18.75C17 19.4404 16.4404 20 15.75 20H7.75C7.05964 20 6.5 19.4404 6.5 18.75V4.75Z" fill="#10181B"/>
</g>
<defs>
<clipPath id="clip0_44_41703">
<rect width="13.5" height="19.5" fill="white" transform="translate(5 2)"/>
</clipPath>
</defs>
</svg>
