<svg width="24" height="24" viewBox="0 0 24 24" fill="none" xmlns="http://www.w3.org/2000/svg">
<g clip-path="url(#clip0_44_41802)">
<path fill-rule="evenodd" clip-rule="evenodd" d="M7.75 8.5H7.5V11H14.01V10.75C14.01 9.7835 14.7935 9 15.76 9H17.76C18.7265 9 19.51 9.7835 19.51 10.75V12.75C19.51 13.7165 18.7265 14.5 17.76 14.5H15.76C14.7935 14.5 14.01 13.7165 14.01 12.75V12.5H7.5V16.55C7.5 17.0183 7.6392 17.4096 7.82589 17.6655C8.01329 17.9223 8.20827 18 8.35 18H14.01V17.75C14.01 16.7835 14.7935 16 15.76 16H17.76C18.7265 16 19.51 16.7835 19.51 17.75V19.75C19.51 20.7165 18.7265 21.5 17.76 21.5H15.76C14.7935 21.5 14.01 20.7165 14.01 19.75V19.5H8.35C7.61173 19.5 7.00671 19.0877 6.61411 18.5495C6.2208 18.0104 6 17.3017 6 16.55V8.5H5.75C4.7835 8.5 4 7.7165 4 6.75V4.75C4 3.7835 4.7835 3 5.75 3H7.75C8.7165 3 9.5 3.7835 9.5 4.75V6.75C9.5 7.7165 8.7165 8.5 7.75 8.5ZM5.75 4.5C5.61193 4.5 5.5 4.61193 5.5 4.75V6.75C5.5 6.88807 5.61193 7 5.75 7H7.75C7.88807 7 8 6.88807 8 6.75V4.75C8 4.61193 7.88807 4.5 7.75 4.5H5.75ZM15.76 10.5C15.6219 10.5 15.51 10.6119 15.51 10.75V12.75C15.51 12.8881 15.6219 13 15.76 13H17.76C17.8981 13 18.01 12.8881 18.01 12.75V10.75C18.01 10.6119 17.8981 10.5 17.76 10.5H15.76ZM15.51 17.75C15.51 17.6119 15.6219 17.5 15.76 17.5H17.76C17.8981 17.5 18.01 17.6119 18.01 17.75V19.75C18.01 19.8881 17.8981 20 17.76 20H15.76C15.6219 20 15.51 19.8881 15.51 19.75V17.75Z" fill="#10181B"/>
</g>
<defs>
<clipPath id="clip0_44_41802">
<rect width="15.51" height="18.5" fill="white" transform="translate(4 3)"/>
</clipPath>
</defs>
</svg>
