<svg width="24" height="24" viewBox="0 0 24 24" fill="none" xmlns="http://www.w3.org/2000/svg">
<path fill-rule="evenodd" clip-rule="evenodd" d="M1.9082 3.56885H20.5776V9.31308H19.4434C19.4042 9.3194 19.364 9.32268 19.3231 9.32268H9.38932L9.38932 17.6916C9.38932 17.7217 9.38755 17.7514 9.38409 17.7806V18.9229H1.9082V3.56885ZM19.0776 5.06885V7.82268H14.9123V5.06885H19.0776ZM9.38932 5.06885H13.4123V7.82268H9.38932V5.06885ZM3.4082 5.06885H7.88932V7.82268H3.60245C3.53527 7.82268 3.47016 7.83151 3.4082 7.84808V5.06885ZM3.4082 12.4505V9.29728C3.47016 9.31385 3.53527 9.32268 3.60245 9.32268H7.88932V12.4251H3.60245C3.53527 12.4251 3.47016 12.434 3.4082 12.4505ZM3.4082 17.4229V13.8997C3.47016 13.9163 3.53527 13.9251 3.60245 13.9251H7.88932V17.4229H3.4082Z" fill="#10181B"/>
<path d="M15.6927 17.4211C17.5647 17.4211 19.0822 15.9035 19.0822 14.0316C19.0822 12.1596 17.5647 10.6421 15.6927 10.6421C13.8207 10.6421 12.3032 12.1596 12.3032 14.0316C12.3032 15.9035 13.8207 17.4211 15.6927 17.4211Z" fill="#10181B"/>
<path d="M21.8721 19.1505L19.2359 16.5142L18.1752 17.5749L20.8115 20.2111L21.8721 19.1505Z" fill="#10181B"/>
</svg>
