<svg width="24" height="24" viewBox="0 0 24 24" fill="none" xmlns="http://www.w3.org/2000/svg">
<g clip-path="url(#clip0_44_41590)">
<path d="M9.79837 4.48521C9.90855 4.19324 10.188 4 10.5001 4H22.5601V5.5H11.0187L6.20178 18.2648C6.09864 18.5381 5.84621 18.7267 5.55487 18.748C5.26354 18.7693 4.98632 18.6196 4.84446 18.3642L1.98022 13.2086L3.29146 12.4802L5.36975 16.2211L9.79837 4.48521Z" fill="#10181B"/>
<path d="M15.68 13.6906L13.5799 15.7907L12.5193 14.73L14.6193 12.63L12.1394 10.15L13.2001 9.08936L15.68 11.5693L18.1599 9.08936L19.2206 10.15L16.7407 12.63L18.8407 14.73L17.7801 15.7907L15.68 13.6906Z" fill="#10181B"/>
</g>
<defs>
<clipPath id="clip0_44_41590">
<rect width="20.56" height="15.88" fill="white" transform="translate(2 4)"/>
</clipPath>
</defs>
</svg>
