<svg width="24" height="24" viewBox="0 0 24 24" fill="none" xmlns="http://www.w3.org/2000/svg">
<g clip-path="url(#clip0_44_41579)">
<path fill-rule="evenodd" clip-rule="evenodd" d="M6.45 4.5C5.38961 4.5 4.53 5.35961 4.53 6.42C4.53 7.48039 5.38961 8.34 6.45 8.34C7.51039 8.34 8.37 7.48039 8.37 6.42C8.37 5.35961 7.51039 4.5 6.45 4.5ZM3.03 6.42C3.03 4.53119 4.56119 3 6.45 3C8.33881 3 9.87 4.53119 9.87 6.42C9.87 8.30881 8.33881 9.84 6.45 9.84C4.56119 9.84 3.03 8.30881 3.03 6.42Z" fill="#10181B"/>
<path fill-rule="evenodd" clip-rule="evenodd" d="M17.16 15.26C16.1272 15.26 15.29 16.0972 15.29 17.13C15.29 18.1628 16.1272 19 17.16 19C18.1928 19 19.03 18.1628 19.03 17.13C19.03 16.0972 18.1928 15.26 17.16 15.26ZM13.79 17.13C13.79 15.2688 15.2988 13.76 17.16 13.76C19.0212 13.76 20.53 15.2688 20.53 17.13C20.53 18.9912 19.0212 20.5 17.16 20.5C15.2988 20.5 13.79 18.9912 13.79 17.13Z" fill="#10181B"/>
<path fill-rule="evenodd" clip-rule="evenodd" d="M20.2803 3.23967C20.5732 3.53256 20.5732 4.00744 20.2803 4.30033L4.28033 20.3003C3.98744 20.5932 3.51256 20.5932 3.21967 20.3003C2.92678 20.0074 2.92678 19.5326 3.21967 19.2397L19.2197 3.23967C19.5126 2.94678 19.9874 2.94678 20.2803 3.23967Z" fill="#10181B"/>
</g>
<defs>
<clipPath id="clip0_44_41579">
<rect width="17.52" height="17.52" fill="white" transform="translate(3 3)"/>
</clipPath>
</defs>
</svg>
