<svg width="24" height="24" viewBox="0 0 24 24" fill="none" xmlns="http://www.w3.org/2000/svg">
<path fill-rule="evenodd" clip-rule="evenodd" d="M20.0474 2.48877H12.5474V3.25H5.69141V7.97613H7.19141V4.75H12.5474V9.98877H20.0474V2.48877ZM14.0474 4.2666V3.98877H18.5474V4.2666H14.0474ZM14.0474 5.7666V8.48877H18.5474V5.7666H14.0474Z" fill="#10181B"/>
<path fill-rule="evenodd" clip-rule="evenodd" d="M12.5474 13.2188H20.0474V20.7188H12.5474V19.7309H5.69141V15.5591H2.25V8.05908H9.75V15.5591H7.19141V18.2309H12.5474V13.2188ZM14.0474 16.4971V19.2188H18.5474V16.4971H14.0474ZM14.0474 14.9971H18.5474V14.7188H14.0474V14.9971ZM3.75 11.3369V14.0591H8.25V11.3369H3.75ZM3.75 9.83691H8.25V9.55908H3.75V9.83691Z" fill="#10181B"/>
</svg>
