<svg width="16" height="16" viewBox="0 0 16 16" fill="none" xmlns="http://www.w3.org/2000/svg">
<rect width="16" height="16" fill="white"/>
<path fill-rule="evenodd" clip-rule="evenodd" d="M1.31538 8.34991H1.31195C1.31195 8.38797 1.31323 8.42555 1.31573 8.46268C1.31902 9.55658 1.31798 10.6126 1.31727 11.3337C1.31703 11.5687 1.31684 11.7683 1.31684 11.9218C1.31684 12.554 1.62313 13.0804 2.046 13.4827C2.46199 13.8784 3.02262 14.1889 3.64826 14.429C4.90294 14.9107 6.58207 15.1714 8.39419 15.1714C10.2223 15.1714 11.7375 14.8543 12.8255 14.3179C13.8802 13.7979 14.7165 12.9636 14.7165 11.874V8.58811C14.7216 8.54081 14.7242 8.49269 14.7242 8.44376H14.7165V4.85233C14.7216 4.80503 14.7242 4.75691 14.7242 4.70798H14.7165V4.49732C14.7165 3.18006 13.7004 2.25592 12.5125 1.70158C11.2914 1.1318 9.66327 0.828613 7.91655 0.828613C6.15733 0.828613 4.55349 1.17587 3.36061 1.82103C2.1743 2.46264 1.27582 3.47867 1.27582 4.8157V4.82612L1.27611 4.83652C1.30061 5.71866 1.31113 7.05362 1.31538 8.34991ZM2.81548 8.38063C2.81355 7.78115 2.8103 7.17158 2.80496 6.60014C3.06824 6.74316 3.35549 6.87017 3.65741 6.98223C4.8967 7.44218 6.54417 7.70914 8.28387 7.70914C10.049 7.70914 11.5768 7.36364 12.6877 6.87088C12.8732 6.7886 13.0501 6.70088 13.2165 6.60818V8.43604C13.2 8.46769 13.1559 8.53792 13.0427 8.64397C12.8498 8.82473 12.531 9.0352 12.0795 9.2355C11.1815 9.63383 9.86419 9.94492 8.28387 9.94492C6.67812 9.94492 5.21464 9.69598 4.17933 9.31174C3.65879 9.11854 3.28611 8.90568 3.05725 8.70564C2.8737 8.5452 2.82691 8.43513 2.81548 8.38063ZM13.2165 10.344V11.874C13.2165 12.1112 13.018 12.5506 12.1622 12.9726C11.3396 13.3781 10.0687 13.6714 8.39419 13.6714C6.70369 13.6714 5.21915 13.4253 4.18581 13.0287C3.66744 12.8297 3.30297 12.6081 3.07987 12.3959C2.86364 12.1902 2.81684 12.0326 2.81684 11.9218C2.81684 11.7713 2.81704 11.5746 2.81727 11.3419C2.81756 11.0567 2.8179 10.7173 2.81799 10.343C3.07771 10.4831 3.36046 10.6078 3.65741 10.718C4.8967 11.178 6.54417 11.4449 8.28387 11.4449C10.049 11.4449 11.5768 11.0994 12.6877 10.6067C12.8732 10.5244 13.0501 10.4367 13.2165 10.344ZM13.0427 4.90819C13.1559 4.80214 13.2 4.73191 13.2165 4.70026V4.49732C13.2165 4.06328 12.8794 3.52806 11.8782 3.06087C10.9101 2.60913 9.51324 2.32861 7.91655 2.32861C6.33235 2.32861 4.99083 2.64467 4.0742 3.14042C3.25864 3.58152 2.87076 4.10315 2.79139 4.61414H2.81195C2.81195 4.64661 2.827 4.76861 3.05725 4.96986C3.28611 5.1699 3.65879 5.38277 4.17933 5.57596C5.21464 5.9602 6.67812 6.20914 8.28387 6.20914C9.86419 6.20914 11.1815 5.89805 12.0795 5.49972C12.531 5.29942 12.8498 5.08895 13.0427 4.90819Z" fill="#10181B"/>
</svg>
