<svg width="24" height="24" viewBox="0 0 24 24" fill="none" xmlns="http://www.w3.org/2000/svg">
<g clip-path="url(#clip0_44_41868)">
<path fill-rule="evenodd" clip-rule="evenodd" d="M12.7002 5.95835C13.4612 5.6589 13.9999 4.91736 13.9999 4.05C13.9999 2.91782 13.0821 2 11.9499 2C10.8177 2 9.8999 2.91782 9.8999 4.05C9.8999 4.91758 10.4388 5.65928 11.2002 5.95858V8.49331C10.0002 8.73153 9.00201 9.53038 8.49014 10.6054L6.08678 9.96584C5.97063 8.94388 5.10303 8.1499 4.05 8.1499C2.91782 8.1499 2 9.06772 2 10.1999C2 11.3321 2.91782 12.2499 4.05 12.2499C4.72719 12.2499 5.32768 11.9215 5.70097 11.4154L8.12472 12.0604C8.12167 12.1232 8.12012 12.1864 8.12012 12.2499C8.12012 13.2238 8.4836 14.1128 9.08231 14.7886L7.60997 17.1069C7.48369 17.0826 7.3533 17.0698 7.21992 17.0698C6.08774 17.0698 5.16992 17.9876 5.16992 19.1198C5.16992 20.252 6.08774 21.1698 7.21992 21.1698C8.35211 21.1698 9.26992 20.252 9.26992 19.1198C9.26992 18.6679 9.12371 18.2502 8.87601 17.9113L10.2815 15.6983C10.7859 15.9428 11.352 16.0799 11.9501 16.0799C12.5508 16.0799 13.1192 15.9416 13.6252 15.6952L15.0258 17.9086C14.7769 18.2479 14.6299 18.6667 14.6299 19.1198C14.6299 20.252 15.5477 21.1698 16.6799 21.1698C17.8121 21.1698 18.7299 20.252 18.7299 19.1198C18.7299 17.9876 17.8121 17.0698 16.6799 17.0698C16.5477 17.0698 16.4184 17.0823 16.2932 17.1062L14.823 14.7829C15.4187 14.1078 15.7801 13.2211 15.7801 12.2499C15.7801 12.1871 15.7786 12.1247 15.7756 12.0626L18.1995 11.4163C18.5728 11.9219 19.173 12.2499 19.8498 12.2499C20.982 12.2499 21.8998 11.3321 21.8998 10.1999C21.8998 9.06772 20.982 8.1499 19.8498 8.1499C18.7964 8.1499 17.9286 8.94445 17.8129 9.96694L15.411 10.6074C14.8995 9.53142 13.9009 8.73174 12.7002 8.49334V5.95835ZM9.64292 11.9226C9.62789 12.0296 9.62012 12.1388 9.62012 12.2499C9.62012 13.5367 10.6633 14.5799 11.9501 14.5799C13.2369 14.5799 14.2801 13.5367 14.2801 12.2499C14.2801 12.1315 14.2713 12.0152 14.2543 11.9016C14.2203 11.844 14.1935 11.7809 14.1754 11.7131C14.1548 11.6359 14.1471 11.5583 14.1508 11.4826C13.8447 10.6047 13.0281 9.96602 12.0566 9.92231C12.0219 9.92725 11.9863 9.9298 11.9502 9.9298C11.9141 9.9298 11.8785 9.92725 11.8437 9.92231C10.8808 9.96558 10.0701 10.5933 9.75773 11.4592C9.76447 11.5422 9.7574 11.6277 9.73476 11.7128C9.71447 11.789 9.68313 11.8594 9.64292 11.9226Z" fill="#10181B"/>
</g>
<defs>
<clipPath id="clip0_44_41868">
<rect width="19.91" height="19.17" fill="white" transform="translate(2 2)"/>
</clipPath>
</defs>
</svg>
