<svg width="16" height="16" viewBox="0 0 16 16" fill="none" xmlns="http://www.w3.org/2000/svg">
<g clip-path="url(#clip0_44_41616)">
<path fill-rule="evenodd" clip-rule="evenodd" d="M9.60986 3C9.60986 3.55521 9.30821 4.03997 8.85986 4.29933V5.3113C9.23614 5.4259 9.57581 5.6245 9.85703 5.88526L10.7202 5.39249C10.7242 4.56747 11.3943 3.8999 12.2202 3.8999C13.0486 3.8999 13.7202 4.57148 13.7202 5.3999C13.7202 6.22833 13.0486 6.8999 12.2202 6.8999C11.9442 6.8999 11.6857 6.82538 11.4636 6.69536L10.6123 7.18133C10.6566 7.37043 10.68 7.56758 10.68 7.7702C10.68 7.97272 10.6566 8.16978 10.6123 8.3588L11.5194 8.87664C11.7424 8.74528 12.0023 8.66992 12.2798 8.66992C13.1082 8.66992 13.7798 9.34149 13.7798 10.1699C13.7798 10.9983 13.1082 11.6699 12.2798 11.6699C11.4553 11.6699 10.7861 11.0047 10.7798 10.1816L9.85722 9.65495C9.57597 9.9158 9.23623 10.1145 8.85986 10.2291V11.2407C9.30821 11.5001 9.60986 11.9848 9.60986 12.54C9.60986 13.3685 8.93829 14.04 8.10986 14.04C7.28144 14.04 6.60986 13.3685 6.60986 12.54C6.60986 11.9848 6.91151 11.5001 7.35986 11.2407V10.229C6.98362 10.1143 6.64398 9.91569 6.3628 9.6549L5.49998 10.1475C5.49604 10.9725 4.82599 11.6401 4 11.6401C3.17157 11.6401 2.5 10.9686 2.5 10.1401C2.5 9.31171 3.17157 8.64014 4 8.64014C4.27593 8.64014 4.53447 8.71464 4.75658 8.84464L5.60774 8.35873C5.56346 8.16973 5.54004 7.9727 5.54004 7.7702C5.54004 7.5676 5.56348 7.37048 5.6078 7.1814L4.71259 6.67036C4.50062 6.78501 4.25791 6.8501 4 6.8501C3.17157 6.8501 2.5 6.17852 2.5 5.3501C2.5 4.52167 3.17157 3.8501 4 3.8501C4.82843 3.8501 5.5 4.52167 5.5 5.3501C5.5 5.36422 5.4998 5.37829 5.49942 5.39232L6.363 5.88531C6.64414 5.62461 6.9837 5.42603 7.35986 5.31141V4.29933C6.91151 4.03997 6.60986 3.55521 6.60986 3C6.60986 2.17157 7.28144 1.5 8.10986 1.5C8.93829 1.5 9.60986 2.17157 9.60986 3ZM7.17633 7.24722C7.18152 7.2389 7.18657 7.23045 7.19147 7.22186C7.19335 7.21856 7.1952 7.21526 7.19703 7.21195C7.38512 6.90499 7.72366 6.7002 8.11004 6.7002C8.49555 6.7002 8.83345 6.90407 9.02179 7.20989L9.02848 7.22186C9.03378 7.23115 9.03925 7.24028 9.04488 7.24926C9.13098 7.40342 9.18004 7.58108 9.18004 7.7702C9.18004 7.9583 9.1315 8.13507 9.04627 8.28865C9.04014 8.29833 9.03421 8.3082 9.02848 8.31824L9.02044 8.33267C8.83185 8.63728 8.49464 8.8402 8.11004 8.8402C7.72468 8.8402 7.3869 8.63648 7.19851 8.33086L7.19147 8.31824C7.18609 8.30881 7.18053 8.29955 7.17481 8.29044C7.08896 8.13644 7.04004 7.95903 7.04004 7.7702C7.04004 7.58025 7.08953 7.40186 7.17633 7.24722Z" fill="#10181B"/>
</g>
<defs>
<clipPath id="clip0_44_41616">
<rect width="11.28" height="12.54" fill="white" transform="translate(2.5 1.5)"/>
</clipPath>
</defs>
</svg>
