<svg width="16" height="16" viewBox="0 0 16 16" fill="none" xmlns="http://www.w3.org/2000/svg">
<g clip-path="url(#clip0_44_41684)">
<path d="M2.9502 2C3.36441 2 3.7002 2.33579 3.7002 2.75V8.15194L5.39014 7.53652V2.75C5.39014 2.33579 5.72592 2 6.14014 2C6.55435 2 6.89014 2.33579 6.89014 2.75V6.99027L8.58984 6.37129V2.75C8.58984 2.33579 8.92563 2 9.33984 2C9.75406 2 10.0898 2.33579 10.0898 2.75V5.82504L11.7798 5.20962V2.75C11.7798 2.33579 12.1156 2 12.5298 2C12.944 2 13.2798 2.33579 13.2798 2.75V4.66337L13.4936 4.58552C13.8828 4.44378 14.3132 4.6444 14.4549 5.03361C14.5967 5.42281 14.3961 5.85323 14.0068 5.99497L13.2798 6.25974V12.36C13.2798 12.7742 12.944 13.11 12.5298 13.11C12.1156 13.11 11.7798 12.7742 11.7798 12.36V6.80599L10.0898 7.42141V12.36C10.0898 12.7742 9.75406 13.11 9.33984 13.11C8.92563 13.11 8.58984 12.7742 8.58984 12.36V7.96766L6.89014 8.58663V12.36C6.89014 12.7742 6.55435 13.11 6.14014 13.11C5.72592 13.11 5.39014 12.7742 5.39014 12.36V9.13288L3.7002 9.7483V12.36C3.7002 12.7742 3.36441 13.11 2.9502 13.11C2.53598 13.11 2.2002 12.7742 2.2002 12.36V10.2946L2.00684 10.365C1.61763 10.5067 1.18722 10.3061 1.04548 9.91688C0.903742 9.52767 1.10436 9.09726 1.49357 8.95552L2.2002 8.69819V2.75C2.2002 2.33579 2.53598 2 2.9502 2Z" fill="#10181B"/>
</g>
<defs>
<clipPath id="clip0_44_41684">
<rect width="13.5" height="11.11" fill="white" transform="translate(1 2)"/>
</clipPath>
</defs>
</svg>
