<svg width="24" height="24" viewBox="0 0 24 24" fill="none" xmlns="http://www.w3.org/2000/svg">
<path fill-rule="evenodd" clip-rule="evenodd" d="M1.46484 20.918V3.08203H22.5354V20.918H1.46484ZM2.96484 4.58203H21.0354V6.73145L2.96484 6.73145V4.58203ZM2.96484 8.23145V13.4277C3.06408 13.3792 3.17559 13.3521 3.29346 13.3521H5.29541V8.23145L2.96484 8.23145ZM2.96484 14.7764V19.418H5.29541V14.8521H3.29346C3.17559 14.8521 3.06408 14.8249 2.96484 14.7764ZM6.79541 19.418H13.1104V14.8521H6.79541V19.418ZM14.6104 19.418H21.0354V14.8521H14.6104V19.418ZM21.0354 13.3521V8.23145L14.6104 8.23145V13.3521H21.0354ZM13.1104 13.3521H6.79541V8.23145L13.1104 8.23145V13.3521Z" fill="#10181B"/>
</svg>
