<svg width="16" height="16" viewBox="0 0 16 16" fill="none" xmlns="http://www.w3.org/2000/svg">
<path fill-rule="evenodd" clip-rule="evenodd" d="M2.39079 2.60374C2.39079 1.80323 3.03972 1.1543 3.84023 1.1543H5.23911C6.03962 1.1543 6.68856 1.80323 6.68856 2.60374V4.00262C6.68856 4.78618 6.0668 5.42452 5.28974 5.4512V7.51445C6.01511 7.12628 6.98588 6.95177 8.20483 6.95177C9.62916 6.95177 10.2818 6.78788 10.575 6.60595C10.6915 6.5337 10.7412 6.46417 10.7736 6.38665C10.8138 6.29037 10.8433 6.13972 10.8433 5.8878V5.45207H10.761C9.96046 5.45207 9.31152 4.80313 9.31152 4.00262V2.60374C9.31152 1.80323 9.96046 1.1543 10.761 1.1543H12.1599C12.9604 1.1543 13.6093 1.80323 13.6093 2.60374V4.00262C13.6093 4.74098 13.0572 5.3504 12.3433 5.44057V5.8878C12.3433 6.23386 12.3064 6.60893 12.1577 6.9649C12.0011 7.33961 11.7394 7.64882 11.3658 7.88057C10.6791 8.30664 9.63745 8.45177 8.20483 8.45177C6.83764 8.45177 6.12957 8.70126 5.77011 8.98409C5.45461 9.23233 5.30058 9.5936 5.30058 10.184H5.28974V10.5487C6.06682 10.5754 6.68859 11.2138 6.68859 11.9973V13.3962C6.68859 14.1967 6.03966 14.8457 5.23915 14.8457H3.84027C3.03976 14.8457 2.39082 14.1967 2.39082 13.3962V11.9973C2.39082 11.2137 3.01263 10.5754 3.78974 10.5487V5.4512C3.01262 5.4246 2.39079 4.78623 2.39079 4.00262V2.60374ZM3.89079 2.6543V3.95207H5.18856V2.6543H3.89079ZM3.89082 12.0479V13.3457H5.18859V12.0479H3.89082ZM10.8115 3.95207V2.6543H12.1093V3.95207H10.8115Z" fill="#10181B"/>
</svg>
