<svg width="24" height="24" viewBox="0 0 24 24" fill="none" xmlns="http://www.w3.org/2000/svg">
<g clip-path="url(#clip0_44_41781)">
<path fill-rule="evenodd" clip-rule="evenodd" d="M14.1 4.05C14.1 4.93634 13.5375 5.69131 12.75 5.97738V8.40897C15.017 8.76856 16.75 10.7319 16.75 13.1001C16.75 13.8808 16.5616 14.6176 16.2279 15.2673L18.2189 17.2584C18.4589 17.1565 18.7229 17.1001 19 17.1001C20.1046 17.1001 21 17.9955 21 19.1001C21 20.2047 20.1046 21.1001 19 21.1001C17.8954 21.1001 17 20.2047 17 19.1001C17 18.823 17.0564 18.559 17.1583 18.319L15.3283 16.489C14.4712 17.3309 13.2962 17.8501 12 17.8501C10.7038 17.8501 9.52877 17.3309 8.67171 16.489L6.84173 18.319C6.94363 18.559 7 18.823 7 19.1001C7 20.2047 6.10457 21.1001 5 21.1001C3.89543 21.1001 3 20.2047 3 19.1001C3 17.9955 3.89543 17.1001 5 17.1001C5.27714 17.1001 5.54111 17.1565 5.78107 17.2584L7.7721 15.2673C7.43836 14.6176 7.25 13.8808 7.25 13.1001C7.25 10.7319 8.98301 8.76856 11.25 8.40897V5.93803C10.5153 5.62634 10 4.89835 10 4.05C10 2.91782 10.9178 2 12.05 2C13.1822 2 14.1 2.91782 14.1 4.05ZM8.75 13.1001C8.75 11.3052 10.2051 9.8501 12 9.8501C13.7949 9.8501 15.25 11.3052 15.25 13.1001C15.25 14.895 13.7949 16.3501 12 16.3501C10.2051 16.3501 8.75 14.895 8.75 13.1001Z" fill="#10181B"/>
</g>
<defs>
<clipPath id="clip0_44_41781">
<rect width="18" height="19.1" fill="white" transform="translate(3 2)"/>
</clipPath>
</defs>
</svg>
