<svg width="24" height="24" viewBox="0 0 24 24" fill="none" xmlns="http://www.w3.org/2000/svg">
<path fill-rule="evenodd" clip-rule="evenodd" d="M4.30273 4.28491C4.30273 3.31841 5.08624 2.53491 6.05273 2.53491H8.05273C9.01923 2.53491 9.80273 3.31841 9.80273 4.28491V6.28491C9.80273 7.25141 9.01923 8.03491 8.05273 8.03491H7.80273V11.8857C8.79558 11.1656 10.2707 10.8234 12.2927 10.8234C14.3309 10.8234 15.3476 10.5931 15.8514 10.2806C16.0731 10.143 16.1897 9.99211 16.2627 9.81742C16.3435 9.62398 16.3873 9.36037 16.3873 8.97998V8.03491H15.9473C14.9808 8.03491 14.1973 7.25141 14.1973 6.28491V4.28491C14.1973 3.31841 14.9808 2.53491 15.9473 2.53491H17.9473C18.9138 2.53491 19.6973 3.31841 19.6973 4.28491V6.28491C19.6973 7.25141 18.9138 8.03491 17.9473 8.03491H17.8873V8.97998C17.8873 9.45451 17.8361 9.94254 17.6468 10.3957C17.4496 10.8675 17.121 11.2581 16.6421 11.5552C15.7448 12.1119 14.3392 12.3234 12.2927 12.3234C10.3117 12.3234 9.21109 12.6825 8.61253 13.1535C8.05792 13.5899 7.81824 14.2178 7.81824 15.1222H7.80273V15.9651H8.05273C9.01923 15.9651 9.80273 16.7486 9.80273 17.7151V19.7151C9.80273 20.6816 9.01923 21.4651 8.05273 21.4651H6.05273C5.08624 21.4651 4.30273 20.6816 4.30273 19.7151V17.7151C4.30273 16.7486 5.08624 15.9651 6.05273 15.9651H6.30273V8.03491H6.05273C5.08624 8.03491 4.30273 7.25141 4.30273 6.28491V4.28491ZM6.05273 4.03491C5.91466 4.03491 5.80273 4.14684 5.80273 4.28491V6.28491C5.80273 6.42298 5.91466 6.53491 6.05273 6.53491H8.05273C8.19081 6.53491 8.30273 6.42298 8.30273 6.28491V4.28491C8.30273 4.14684 8.19081 4.03491 8.05273 4.03491H6.05273ZM6.05273 17.4651C5.91466 17.4651 5.80273 17.577 5.80273 17.7151V19.7151C5.80273 19.8532 5.91466 19.9651 6.05273 19.9651H8.05273C8.19081 19.9651 8.30273 19.8532 8.30273 19.7151V17.7151C8.30273 17.577 8.19081 17.4651 8.05273 17.4651H6.05273ZM15.6973 4.28491C15.6973 4.14684 15.8092 4.03491 15.9473 4.03491H17.9473C18.0853 4.03491 18.1973 4.14684 18.1973 4.28491V6.28491C18.1973 6.42298 18.0853 6.53491 17.9473 6.53491H15.9473C15.8092 6.53491 15.6973 6.42298 15.6973 6.28491V4.28491Z" fill="#10181B"/>
</svg>
