<svg width="24" height="24" viewBox="0 0 24 24" fill="none" xmlns="http://www.w3.org/2000/svg">
<g clip-path="url(#clip0_44_41600)">
<path fill-rule="evenodd" clip-rule="evenodd" d="M14.0399 4.05C14.0399 4.91736 13.5013 5.6589 12.7402 5.95835V8.29467C13.5601 8.45976 14.2838 8.8901 14.8182 9.49232L16.9112 8.29494C16.8973 8.19869 16.8901 8.10028 16.8901 8.0002C16.8901 6.86801 17.808 5.9502 18.9401 5.9502C20.0723 5.9502 20.9901 6.86801 20.9901 8.0002C20.9901 9.13238 20.0723 10.0502 18.9401 10.0502C18.4536 10.0502 18.0066 9.88068 17.6551 9.59749L15.5718 10.7893C15.7003 11.1695 15.77 11.5767 15.77 12.0002C15.77 12.4239 15.7003 12.8313 15.5717 13.2115L17.6511 14.4061C18.0032 14.121 18.4517 13.9502 18.9401 13.9502C20.0723 13.9502 20.9901 14.868 20.9901 16.0002C20.9901 17.1324 20.0723 18.0502 18.9401 18.0502C17.808 18.0502 16.8901 17.1324 16.8901 16.0002C16.8901 15.9019 16.8971 15.8051 16.9104 15.7105L14.818 14.5084C14.2836 15.1105 13.5599 15.5407 12.7402 15.7058V18.0415C13.5013 18.341 14.0399 19.0825 14.0399 19.9499C14.0399 21.0821 13.1221 21.9999 11.9899 21.9999C10.8578 21.9999 9.93994 21.0821 9.93994 19.9499C9.93994 19.0823 10.4789 18.3406 11.2402 18.0413V15.7059C10.4221 15.5412 9.69953 15.1124 9.16538 14.5123L7.07968 15.7104C7.09307 15.8051 7.1 15.9018 7.1 16.0002C7.1 17.1324 6.18218 18.0502 5.05 18.0502C3.91782 18.0502 3 17.1324 3 16.0002C3 14.868 3.91782 13.9502 5.05 13.9502C5.53837 13.9502 5.98685 14.121 6.33899 14.4061L8.40987 13.2164C8.28026 12.8347 8.20996 12.4257 8.20996 12.0002C8.20996 11.575 8.28017 11.1662 8.40964 10.7847L6.33483 9.59769C5.98332 9.88076 5.53645 10.0502 5.05 10.0502C3.91782 10.0502 3 9.13238 3 8.0002C3 6.86801 3.91782 5.9502 5.05 5.9502C6.18218 5.9502 7.1 6.86801 7.1 8.0002C7.1 8.10039 7.09281 8.19891 7.07892 8.29526L9.16492 9.48867C9.69911 8.88823 10.4218 8.45923 11.2402 8.29456V5.95858C10.4789 5.65928 9.93994 4.91758 9.93994 4.05C9.93994 2.91782 10.8578 2 11.9899 2C13.1221 2 14.0399 2.91782 14.0399 4.05ZM9.70996 12.0002C9.70996 10.741 10.7308 9.72021 11.99 9.72021C13.2492 9.72021 14.27 10.741 14.27 12.0002C14.27 13.2594 13.2492 14.2802 11.99 14.2802C10.7308 14.2802 9.70996 13.2594 9.70996 12.0002Z" fill="#10181B"/>
</g>
<defs>
<clipPath id="clip0_44_41600">
<rect width="17.99" height="20" fill="white" transform="translate(3 2)"/>
</clipPath>
</defs>
</svg>
