<svg width="16" height="16" viewBox="0 0 16 16" fill="none" xmlns="http://www.w3.org/2000/svg">
<g clip-path="url(#clip0_44_41792)">
<path fill-rule="evenodd" clip-rule="evenodd" d="M9.43018 2.5C9.43018 3.05521 9.12853 3.53997 8.68018 3.79933V5.07501C10.3919 5.42247 11.6802 6.93578 11.6802 8.75C11.6802 9.2311 11.5896 9.69104 11.4245 10.1137L12.696 11.3851C12.8245 11.3493 12.9601 11.3301 13.1001 11.3301C13.9285 11.3301 14.6001 12.0017 14.6001 12.8301C14.6001 13.6585 13.9285 14.3301 13.1001 14.3301C12.2717 14.3301 11.6001 13.6585 11.6001 12.8301C11.6001 12.7024 11.6161 12.5784 11.6461 12.4601L10.5827 11.4008C9.90403 12.0799 8.96616 12.5 7.93018 12.5C6.88976 12.5 5.94831 12.0763 5.26895 11.392L3.97686 12.6841C3.99219 12.7671 4.0002 12.8526 4.0002 12.94C4.0002 13.7132 3.37339 14.34 2.6002 14.34C1.827 14.34 1.2002 13.7132 1.2002 12.94C1.2002 12.1668 1.827 11.54 2.6002 11.54C2.72258 11.54 2.84129 11.5557 2.95443 11.5852L4.43308 10.1066C4.26976 9.68589 4.18018 9.22841 4.18018 8.75C4.18018 6.93578 5.4685 5.42247 7.18018 5.07501V3.79933C6.73182 3.53997 6.43018 3.05521 6.43018 2.5C6.43018 1.67157 7.10175 1 7.93018 1C8.7586 1 9.43018 1.67157 9.43018 2.5ZM7.93018 6.50021L7.91448 6.50005C6.67906 6.50849 5.68018 7.5126 5.68018 8.75C5.68018 9.99264 6.68754 11 7.93018 11C9.17282 11 10.1802 9.99264 10.1802 8.75C10.1802 7.5126 9.18129 6.50849 7.94587 6.50005L7.93018 6.50021Z" fill="#10181B"/>
</g>
<defs>
<clipPath id="clip0_44_41792">
<rect width="13.4" height="13.33" fill="white" transform="translate(1.2002 1)"/>
</clipPath>
</defs>
</svg>
