<svg width="24" height="24" viewBox="0 0 24 24" fill="none" xmlns="http://www.w3.org/2000/svg">
<rect width="24" height="24" fill="white"/>
<path fill-rule="evenodd" clip-rule="evenodd" d="M2.61354 12.5092H2.60852C2.60852 12.5603 2.61038 12.6108 2.61401 12.6607C2.61885 14.2589 2.61733 15.8019 2.61629 16.8532C2.61595 17.1948 2.61566 17.4845 2.61566 17.7073C2.61566 18.5086 3.00233 19.1907 3.57068 19.7314C4.13215 20.2655 4.90336 20.6971 5.78942 21.0372C7.56493 21.7187 9.96422 22.0948 12.5737 22.0948C15.1991 22.0948 17.3485 21.6389 18.8714 20.888C20.361 20.1536 21.4329 19.0294 21.4329 17.6378V12.8358C21.4403 12.7733 21.4441 12.71 21.4441 12.6458H21.4329V7.39924C21.4403 7.33679 21.4441 7.27344 21.4441 7.20924H21.4329V6.90268C21.4329 5.18677 20.1087 3.93043 18.4225 3.14356C16.7031 2.34124 14.3863 1.90518 11.8786 1.90518C9.35827 1.90518 7.08396 2.40343 5.41088 3.30831C3.74438 4.20963 2.55597 5.59409 2.55597 7.36601V7.37642L2.55626 7.38683C2.592 8.67376 2.60735 10.6202 2.61354 12.5092ZM4.11378 12.5838C4.11031 11.485 4.10379 10.362 4.09201 9.35532C4.57794 9.6807 5.15951 9.96136 5.79914 10.1988C7.55621 10.8509 9.91184 11.2353 12.4131 11.2353C14.9397 11.2353 17.1152 10.7403 18.6834 10.0447C19.1477 9.83873 19.5683 9.61095 19.9329 9.36656V12.7018C19.9067 12.7853 19.8231 12.9509 19.572 13.1863C19.2552 13.4831 18.7554 13.8084 18.0752 14.1101C16.7199 14.7112 14.7549 15.1718 12.4131 15.1718C10.0458 15.1718 7.87415 14.8054 6.32107 14.229C5.54164 13.9397 4.95767 13.6121 4.58224 13.284C4.25416 12.9972 4.13827 12.7604 4.11378 12.5838ZM19.9329 14.8031V17.6378C19.9329 18.1769 19.4988 18.9063 18.2081 19.5427C16.9506 20.1627 15.0455 20.5948 12.5737 20.5948C10.0858 20.5948 7.88114 20.2334 6.32697 19.6368C5.54819 19.3379 4.97313 18.9952 4.60455 18.6446C4.24284 18.3005 4.11566 17.9872 4.11566 17.7073C4.11566 17.4876 4.11595 17.2006 4.11629 16.8612C4.11685 16.2983 4.11756 15.5914 4.11734 14.8087C4.5981 15.1269 5.17058 15.402 5.79914 15.6353C7.55621 16.2874 9.91184 16.6718 12.4131 16.6718C14.9397 16.6718 17.1152 16.1768 18.6834 15.4812C19.1477 15.2753 19.5683 15.0475 19.9329 14.8031ZM19.572 7.74974C19.8231 7.5144 19.9067 7.34873 19.9329 7.2653V6.90268C19.9329 6.06998 19.2877 5.20257 17.7882 4.50285C16.3218 3.81857 14.2363 3.40518 11.8786 3.40518C9.53329 3.40518 7.5213 3.87223 6.12447 4.6277C4.85773 5.31281 4.1925 6.17059 4.07496 7.07266H4.10852C4.10852 7.2546 4.20542 7.51806 4.58224 7.84743C4.95767 8.17558 5.54164 8.50321 6.32107 8.79249C7.87415 9.3689 10.0458 9.73527 12.4131 9.73527C14.7549 9.73527 16.7199 9.27472 18.0752 8.67355C18.7554 8.37183 19.2552 8.04659 19.572 7.74974Z" fill="#10181B"/>
</svg>
