<svg width="16" height="16" viewBox="0 0 16 16" fill="none" xmlns="http://www.w3.org/2000/svg">
<path d="M6.09358 3.18881C6.20873 2.90662 6.4832 2.72217 6.78799 2.72217H15.2394V4.22217H7.29199L4.07773 12.0993C3.97046 12.3622 3.72394 12.542 3.44084 12.5638C3.15774 12.5856 2.88662 12.4456 2.74041 12.2022L0.651855 8.72555L1.93768 7.95311L3.25484 10.1457L6.09358 3.18881Z" fill="#10181B"/>
<path d="M10.3152 9.45612L8.84388 10.8168L7.82544 9.71556L9.2106 8.43457L7.56665 6.91425L8.58509 5.81299L10.3152 7.41301L12.0454 5.81299L13.0638 6.91425L11.4199 8.43457L12.805 9.71556L11.7866 10.8168L10.3152 9.45612Z" fill="#10181B"/>
</svg>
