<svg width="16" height="16" viewBox="0 0 16 16" fill="none" xmlns="http://www.w3.org/2000/svg">
<g clip-path="url(#clip0_44_41776)">
<path d="M9.85999 11.3804V10.4304H8.62999V4.38037H7.69999L5.73999 5.52037L6.19999 6.34037L7.40999 5.74037V10.4304H5.97999V11.3804H9.85999Z" fill="#10181B"/>
<path fill-rule="evenodd" clip-rule="evenodd" d="M7.94995 1.2002C4.22203 1.2002 1.19995 4.22227 1.19995 7.9502C1.19995 11.6781 4.22203 14.7002 7.94995 14.7002C11.6779 14.7002 14.7 11.6781 14.7 7.9502C14.7 4.22227 11.6779 1.2002 7.94995 1.2002ZM2.69995 7.9502C2.69995 5.0507 5.05046 2.7002 7.94995 2.7002C10.8494 2.7002 13.2 5.0507 13.2 7.9502C13.2 10.8497 10.8494 13.2002 7.94995 13.2002C5.05046 13.2002 2.69995 10.8497 2.69995 7.9502Z" fill="#10181B"/>
</g>
<defs>
<clipPath id="clip0_44_41776">
<rect width="13.5" height="13.5" fill="white" transform="translate(1.19995 1.2002)"/>
</clipPath>
</defs>
</svg>
