<svg width="24" height="24" viewBox="0 0 24 24" fill="none" xmlns="http://www.w3.org/2000/svg">
<g clip-path="url(#clip0_44_41772)">
<path d="M14.9801 17.33V15.86H13.0801V6.5H11.6401L8.61011 8.26L9.32011 9.53L11.1901 8.6V15.86H8.98011V17.33H14.9801Z" fill="#10181B"/>
<path fill-rule="evenodd" clip-rule="evenodd" d="M12.03 2C6.49058 2 2 6.49058 2 12.03C2 17.5694 6.49058 22.06 12.03 22.06C17.5694 22.06 22.06 17.5694 22.06 12.03C22.06 6.49058 17.5694 2 12.03 2ZM3.5 12.03C3.5 7.31901 7.31901 3.5 12.03 3.5C16.741 3.5 20.56 7.31901 20.56 12.03C20.56 16.741 16.741 20.56 12.03 20.56C7.31901 20.56 3.5 16.741 3.5 12.03Z" fill="#10181B"/>
</g>
<defs>
<clipPath id="clip0_44_41772">
<rect width="20.06" height="20.06" fill="white" transform="translate(2 2)"/>
</clipPath>
</defs>
</svg>
