<svg width="16" height="16" viewBox="0 0 16 16" fill="none" xmlns="http://www.w3.org/2000/svg">
<g clip-path="url(#clip0_44_41697)">
<path fill-rule="evenodd" clip-rule="evenodd" d="M3.10992 5.95463C3.1034 5.85392 3.1001 5.75235 3.1001 5.65C3.1001 3.08188 5.18197 1 7.7501 1C10.3182 1 12.4001 3.08188 12.4001 5.65C12.4001 5.75235 12.3968 5.85392 12.3903 5.95463C13.6607 6.78468 14.5002 8.2194 14.5002 9.8502C14.5002 12.4183 12.4183 14.5002 9.8502 14.5002C9.09451 14.5002 8.38093 14.3199 7.7501 14.0001C7.11927 14.3199 6.40569 14.5002 5.65 14.5002C3.08188 14.5002 1 12.4183 1 9.8502C1 8.2194 1.8395 6.78469 3.10992 5.95463ZM4.61768 5.31519C4.78485 3.7329 6.1235 2.5 7.7501 2.5C9.3767 2.5 10.7153 3.7329 10.8825 5.3152C10.5505 5.23993 10.205 5.2002 9.8502 5.2002C9.09451 5.2002 8.38092 5.38046 7.7501 5.70033C7.11927 5.38046 6.40569 5.2002 5.65 5.2002C5.29521 5.2002 4.9497 5.23993 4.61768 5.31519ZM10.6794 6.81049C10.4152 6.73858 10.1372 6.7002 9.8502 6.7002C9.60684 6.7002 9.36994 6.72779 9.14243 6.78002C9.44956 7.12912 9.70518 7.52465 9.8974 7.95471C10.2365 7.63867 10.5057 7.24871 10.6794 6.81049ZM10.2902 9.54557C11.0347 9.05913 11.6312 8.36502 11.9975 7.54549C12.6144 8.12052 13.0002 8.9403 13.0002 9.8502C13.0002 11.5899 11.5899 13.0002 9.8502 13.0002C9.60684 13.0002 9.36994 12.9726 9.14243 12.9204C9.86299 12.1013 10.3 11.0268 10.3 9.8502C10.3 9.74785 10.2967 9.64628 10.2902 9.54557ZM8.57935 8.68971C8.39761 8.23134 8.1114 7.82577 7.7501 7.50237C7.3888 7.82577 7.10259 8.23134 6.92085 8.68971C7.18507 8.76162 7.4631 8.8 7.7501 8.8C8.0371 8.8 8.31513 8.76162 8.57935 8.68971ZM6.71778 10.185C7.0498 10.2603 7.39531 10.3 7.7501 10.3C8.10489 10.3 8.4504 10.2603 8.78242 10.185C8.69817 10.9825 8.31636 11.6912 7.7501 12.198C7.18384 11.6912 6.80203 10.9825 6.71778 10.185ZM5.21002 9.54557C5.20351 9.64628 5.2002 9.74785 5.2002 9.8502C5.2002 11.0268 5.6372 12.1013 6.35776 12.9204C6.13026 12.9726 5.89335 13.0002 5.65 13.0002C3.9103 13.0002 2.5 11.5899 2.5 9.8502C2.5 8.94031 2.88578 8.12052 3.5027 7.54549C3.86899 8.36502 4.46551 9.05913 5.21002 9.54557ZM5.6028 7.95471C5.26374 7.63867 4.9945 7.24871 4.82075 6.81049C5.08497 6.73858 5.363 6.7002 5.65 6.7002C5.89335 6.7002 6.13026 6.72779 6.35776 6.78002C6.05063 7.12912 5.79502 7.52465 5.6028 7.95471Z" fill="#10181B"/>
</g>
<defs>
<clipPath id="clip0_44_41697">
<rect width="13.5" height="13.5" fill="white" transform="translate(1 1)"/>
</clipPath>
</defs>
</svg>
