<svg width="16" height="16" viewBox="0 0 16 16" fill="none" xmlns="http://www.w3.org/2000/svg">
<path d="M5.31616 1.50244H2.31616V4.50244H3.06395C3.0625 4.52146 3.06177 4.54067 3.06177 4.56006V10.7501C3.06177 11.9165 3.90949 13.0501 5.17549 13.0501H10.6062C10.6324 13.0501 10.6583 13.0487 10.6838 13.0461V13.8286H13.6838V10.8286H10.6838V11.554C10.6583 11.5514 10.6324 11.5501 10.6062 11.5501H5.17549C4.92087 11.5501 4.56177 11.2837 4.56177 10.7501V8.12012H10.5942C10.6245 8.12012 10.6544 8.11831 10.6838 8.11481V8.81543H13.6838V5.81543H10.6838V6.62542C10.6544 6.62192 10.6245 6.62012 10.5942 6.62012H4.56177V4.56006C4.56177 4.54067 4.56103 4.52146 4.55959 4.50244H5.31616V1.50244Z" fill="#10181B"/>
</svg>
