<svg width="24" height="24" viewBox="0 0 24 24" fill="none" xmlns="http://www.w3.org/2000/svg">
<g clip-path="url(#clip0_44_41692)">
<path fill-rule="evenodd" clip-rule="evenodd" d="M4.54037 9.01965C4.51368 8.76675 4.5 8.50997 4.5 8.25C4.5 4.24594 7.74594 1 11.75 1C15.7541 1 19 4.24594 19 8.25C19 8.50997 18.9863 8.76675 18.9596 9.01965C21.0799 10.2848 22.5 12.6016 22.5 15.25C22.5 19.2541 19.2541 22.5 15.25 22.5C13.9807 22.5 12.7877 22.1738 11.75 21.6007C10.7123 22.1738 9.51926 22.5 8.25 22.5C4.24594 22.5 1 19.2541 1 15.25C1 12.6016 2.42009 10.2848 4.54037 9.01965ZM6 8.25C6 5.07436 8.57436 2.5 11.75 2.5C14.9256 2.5 17.5 5.07436 17.5 8.25C17.5 8.28528 17.4997 8.32048 17.4991 8.35561C16.791 8.12479 16.0351 8 15.25 8C13.9807 8 12.7877 8.32617 11.75 8.89926C10.7123 8.32617 9.51926 8 8.25 8C7.46492 8 6.70899 8.12479 6.00095 8.35561C6.00032 8.32048 6 8.28528 6 8.25ZM17.2701 9.86488C16.6416 9.62901 15.9609 9.5 15.25 9.5C14.5057 9.5 13.7945 9.64141 13.1416 9.89883C14.0317 10.7129 14.718 11.7461 15.1151 12.913C16.1378 12.1737 16.9076 11.1062 17.2701 9.86488ZM15.4596 14.4804C16.9253 13.6058 18.0564 12.2288 18.6151 10.587C20.0599 11.6315 21 13.331 21 15.25C21 18.4256 18.4256 21 15.25 21C14.5057 21 13.7945 20.8586 13.1416 20.6012C14.591 19.2756 15.5 17.3689 15.5 15.25C15.5 14.99 15.4863 14.7333 15.4596 14.4804ZM13.7701 13.6351C13.4237 12.449 12.7054 11.4216 11.75 10.6876C10.7946 11.4216 10.0763 12.449 9.72987 13.6351C10.3584 13.871 11.0391 14 11.75 14C12.4609 14 13.1416 13.871 13.7701 13.6351ZM9.50095 15.1444C10.209 15.3752 10.9649 15.5 11.75 15.5C12.5351 15.5 13.291 15.3752 13.999 15.1444C13.9997 15.1795 14 15.2147 14 15.25C14 17.1086 13.1181 18.7613 11.75 19.8124C10.3819 18.7613 9.5 17.1086 9.5 15.25C9.5 15.2147 9.50032 15.1795 9.50095 15.1444ZM8.04037 14.4804C8.01368 14.7333 8 14.99 8 15.25C8 17.3689 8.90902 19.2756 10.3584 20.6012C9.70554 20.8586 8.99428 21 8.25 21C5.07436 21 2.5 18.4256 2.5 15.25C2.5 13.331 3.44011 11.6315 4.88491 10.587C5.44362 12.2288 6.57471 13.6058 8.04037 14.4804ZM8.38491 12.913C7.36221 12.1737 6.59239 11.1062 6.22987 9.86488C6.85836 9.62901 7.53911 9.5 8.25 9.5C8.99428 9.5 9.70554 9.64141 10.3584 9.89883C9.46831 10.7129 8.78203 11.7461 8.38491 12.913Z" fill="#10181B"/>
</g>
<defs>
<clipPath id="clip0_44_41692">
<rect width="21.5" height="21.5" fill="white" transform="translate(1 1)"/>
</clipPath>
</defs>
</svg>
