<svg width="16" height="16" viewBox="0 0 16 16" fill="none" xmlns="http://www.w3.org/2000/svg">
<g clip-path="url(#clip0_44_41715)">
<path d="M7.03003 7.89014C7.03003 7.47592 6.69424 7.14014 6.28003 7.14014C5.86582 7.14014 5.53003 7.47592 5.53003 7.89014C5.53003 8.30435 5.86582 8.64014 6.28003 8.64014C6.69424 8.64014 7.03003 8.30435 7.03003 7.89014Z" fill="#10181B"/>
<path d="M8.78003 7.14014C9.19424 7.14014 9.53003 7.47592 9.53003 7.89014C9.53003 8.30435 9.19424 8.64014 8.78003 8.64014C8.36582 8.64014 8.03003 8.30435 8.03003 7.89014C8.03003 7.47592 8.36582 7.14014 8.78003 7.14014Z" fill="#10181B"/>
<path d="M7.03003 9.77979C7.03003 9.36557 6.69424 9.02979 6.28003 9.02979C5.86582 9.02979 5.53003 9.36557 5.53003 9.77979C5.53003 10.194 5.86582 10.5298 6.28003 10.5298C6.69424 10.5298 7.03003 10.194 7.03003 9.77979Z" fill="#10181B"/>
<path d="M6.28003 10.9199C6.69424 10.9199 7.03003 11.2557 7.03003 11.6699C7.03003 12.0841 6.69424 12.4199 6.28003 12.4199C5.86582 12.4199 5.53003 12.0841 5.53003 11.6699C5.53003 11.2557 5.86582 10.9199 6.28003 10.9199Z" fill="#10181B"/>
<path d="M9.53003 9.77979C9.53003 9.36557 9.19424 9.02979 8.78003 9.02979C8.36582 9.02979 8.03003 9.36557 8.03003 9.77979V11.6698C8.03003 12.084 8.36582 12.4198 8.78003 12.4198C9.19424 12.4198 9.53003 12.084 9.53003 11.6698V9.77979Z" fill="#10181B"/>
<path d="M5.3999 5.31018V5.30018C5.3999 4.81969 5.78941 4.43018 6.2699 4.43018H8.7799C9.26039 4.43018 9.6499 4.81969 9.6499 5.30018V5.31018C9.6499 5.79066 9.26039 6.18018 8.7799 6.18018H6.2699C5.78941 6.18018 5.3999 5.79066 5.3999 5.31018Z" fill="#10181B"/>
<path fill-rule="evenodd" clip-rule="evenodd" d="M3 3.75C3 2.7835 3.7835 2 4.75 2H10.31C11.2765 2 12.06 2.7835 12.06 3.75V13.1C12.06 14.0665 11.2765 14.85 10.31 14.85H4.75C3.7835 14.85 3 14.0665 3 13.1V3.75ZM4.75 3.5C4.61193 3.5 4.5 3.61193 4.5 3.75V13.1C4.5 13.2381 4.61193 13.35 4.75 13.35H10.31C10.4481 13.35 10.56 13.2381 10.56 13.1V3.75C10.56 3.61193 10.4481 3.5 10.31 3.5H4.75Z" fill="#10181B"/>
</g>
<defs>
<clipPath id="clip0_44_41715">
<rect width="9.06" height="12.85" fill="white" transform="translate(3 2)"/>
</clipPath>
</defs>
</svg>
