<svg width="16" height="16" viewBox="0 0 16 16" fill="none" xmlns="http://www.w3.org/2000/svg">
<rect width="16" height="16" fill="white"/>
<path d="M3.48474 1.98835C4.64564 1.36048 6.20482 1.02328 7.91333 1.02328C9.60936 1.02328 11.1916 1.31762 12.3795 1.87191C13.5342 2.41076 14.5298 3.31277 14.5298 4.60348V4.60825H14.5285C14.5285 4.95829 14.3261 5.39912 13.2901 5.78683C12.2497 6.17614 10.5807 6.41151 8.17182 6.41151C5.73615 6.41151 3.9724 6.21938 2.84107 5.84733C2.27829 5.66226 1.92976 5.45081 1.72937 5.24797C1.54805 5.06442 1.47176 4.87434 1.47176 4.63877H1.46429C1.5773 3.46539 2.41227 2.56839 3.48474 1.98835Z" fill="#10181B"/>
<path d="M1.48173 6.89871C1.48691 7.53386 1.48964 8.20889 1.49098 8.85574C1.52373 9.00796 1.59969 9.14257 1.72937 9.27385C1.92976 9.47669 2.27829 9.68814 2.84107 9.87321C3.9724 10.2453 5.73615 10.4374 8.17182 10.4374C10.5807 10.4374 12.2497 10.202 13.2901 9.81271C14.3261 9.425 14.5285 8.98417 14.5285 8.63412H14.5298V6.86574C14.3092 6.98816 14.0699 7.09661 13.8158 7.19168C12.5214 7.67608 10.637 7.91151 8.17182 7.91151C5.70079 7.91151 3.73951 7.72182 2.37248 7.27226C2.05315 7.16725 1.75383 7.04415 1.48173 6.89871Z" fill="#10181B"/>
<path d="M14.5298 10.8916C14.3092 11.014 14.0699 11.1225 13.8158 11.2176C12.5214 11.702 10.637 11.9374 8.17182 11.9374C5.70079 11.9374 3.73951 11.7477 2.37248 11.2981C2.05706 11.1944 1.76116 11.073 1.49173 10.9299C1.49164 11.0363 1.49154 11.1373 1.49144 11.2324C1.49122 11.4604 1.49103 11.6539 1.49103 11.8028C1.49103 12.4238 1.79197 12.9397 2.20514 13.3328C2.61144 13.7193 3.15804 14.0217 3.76634 14.2552C4.98632 14.7235 6.61748 14.9766 8.37649 14.9766C10.1515 14.9766 11.6245 14.6688 12.6835 14.1466C13.7092 13.6409 14.5298 12.8259 14.5298 11.7565V10.8916Z" fill="#10181B"/>
</svg>
