<svg width="16" height="16" viewBox="0 0 16 16" fill="none" xmlns="http://www.w3.org/2000/svg">
<path fill-rule="evenodd" clip-rule="evenodd" d="M2.01 4.43C2.01 3.08795 3.09795 2 4.44 2C5.78205 2 6.87 3.08795 6.87 4.43C6.87 5.77205 5.78205 6.86 4.44 6.86C3.09795 6.86 2.01 5.77205 2.01 4.43ZM4.44 3.5C3.92638 3.5 3.51 3.91638 3.51 4.43C3.51 4.94362 3.92638 5.36 4.44 5.36C4.95362 5.36 5.37 4.94362 5.37 4.43C5.37 3.91638 4.95362 3.5 4.44 3.5Z" fill="#10181B"/>
<path fill-rule="evenodd" clip-rule="evenodd" d="M8.77 11.14C8.77 9.82004 9.84004 8.75 11.16 8.75C12.48 8.75 13.55 9.82004 13.55 11.14C13.55 12.46 12.48 13.53 11.16 13.53C9.84004 13.53 8.77 12.46 8.77 11.14ZM11.16 10.25C10.6685 10.25 10.27 10.6485 10.27 11.14C10.27 11.6315 10.6685 12.03 11.16 12.03C11.6515 12.03 12.05 11.6315 12.05 11.14C12.05 10.6485 11.6515 10.25 11.16 10.25Z" fill="#10181B"/>
<path d="M13.3106 3.29007C13.6033 2.99703 13.6031 2.52215 13.3101 2.22941C13.017 1.93666 12.5422 1.9369 12.2494 2.22993L2.21941 12.2699C1.92666 12.563 1.9269 13.0378 2.21993 13.3306C2.51297 13.6233 2.98785 13.6231 3.28059 13.3301L13.3106 3.29007Z" fill="#10181B"/>
</svg>
