<svg width="16" height="16" viewBox="0 0 16 16" fill="none" xmlns="http://www.w3.org/2000/svg">
<g clip-path="url(#clip0_44_41881)">
<path fill-rule="evenodd" clip-rule="evenodd" d="M8.47852 4.32468C8.80156 4.09164 9.01182 3.712 9.01182 3.28326C9.01182 2.57453 8.43729 2 7.72857 2C7.01985 2 6.44531 2.57453 6.44531 3.28326C6.44531 3.71196 6.65553 4.09156 6.97852 4.3246V5.84466C6.31744 6.03708 5.76198 6.47748 5.41956 7.05845L3.98284 6.6761C3.79875 6.1929 3.33109 5.84961 2.78325 5.84961C2.07453 5.84961 1.5 6.42414 1.5 7.13286C1.5 7.84159 2.07453 8.41612 2.78325 8.41612C3.09195 8.41612 3.37518 8.30712 3.59657 8.12551L5.052 8.51285C5.0721 9.07991 5.2685 9.60209 5.58806 10.0262L4.69289 11.4357C4.01895 11.4744 3.48438 12.0332 3.48438 12.7168C3.48438 13.4256 4.05891 14.0001 4.76763 14.0001C5.47635 14.0001 6.05089 13.4256 6.05089 12.7168C6.05089 12.5482 6.01836 12.3872 5.95924 12.2397L6.79324 10.9265C7.08434 11.035 7.3994 11.0943 7.72831 11.0943C8.0589 11.0943 8.37549 11.0344 8.66784 10.9249L9.49866 12.2378C9.43905 12.3858 9.40625 12.5475 9.40625 12.7168C9.40625 13.4256 9.98078 14.0001 10.6895 14.0001C11.3982 14.0001 11.9728 13.4256 11.9728 12.7168C11.9728 12.0339 11.4393 11.4756 10.7663 11.4359L9.87167 10.0221C10.1891 9.59904 10.3843 9.07893 10.4046 8.51425L11.861 8.12587C12.0823 8.30726 12.3654 8.41612 12.6739 8.41612C13.3826 8.41612 13.9571 7.84159 13.9571 7.13286C13.9571 6.42414 13.3826 5.84961 12.6739 5.84961C12.1258 5.84961 11.6581 6.19315 11.4741 6.67663L10.0378 7.05965C9.69546 6.47821 9.13986 6.0374 8.47852 5.84478V4.32468ZM6.55582 8.30144C6.55216 8.33923 6.55029 8.37754 6.55029 8.41629C6.55029 9.06689 7.07771 9.59431 7.72831 9.59431C8.3789 9.59431 8.90632 9.06689 8.90632 8.41629C8.90632 8.37184 8.90386 8.32796 8.89906 8.28479C8.87902 8.24307 8.86258 8.19889 8.85022 8.15254C8.83538 8.0969 8.82721 8.04106 8.8252 7.98586C8.66211 7.57056 8.26996 7.27033 7.80428 7.24069C7.77936 7.24319 7.75409 7.24447 7.72852 7.24447C7.70289 7.24447 7.67756 7.24319 7.65259 7.24067C7.19328 7.26981 6.80548 7.56217 6.63836 7.96857C6.63756 8.02926 6.62933 8.09084 6.61301 8.15217C6.59899 8.20488 6.57968 8.25477 6.55582 8.30144Z" fill="#10181B"/>
</g>
<defs>
<clipPath id="clip0_44_41881">
<rect width="12.4632" height="12" fill="white" transform="translate(1.5 2)"/>
</clipPath>
</defs>
</svg>
